<?xml version="1.0" encoding="utf-8"?>
<!-- Generator: Adobe Illustrator 23.1.0, SVG Export Plug-In . SVG Version: 6.00 Build 0)  -->
<svg version="1.1" id="Capa_1" xmlns="http://www.w3.org/2000/svg" xmlns:xlink="http://www.w3.org/1999/xlink" x="0px" y="0px"
	 viewBox="0 0 180 200" style="enable-background:new 0 0 180 200;" xml:space="preserve">
<style type="text/css">
	.st0{fill:#FDD7C2;}
	.st1{fill:#414042;}
	.st2{fill:#F4CAB5;}
	.st3{fill:#FFBFBD;}
	.st4{fill:#FFFFFF;}
	.st5{fill:#E56767;}
	.st6{fill:#F27C7C;}
	.st7{fill:#AA7762;}
	.st8{fill:#F6B399;}
	.st9{fill:#CB5959;}
	.st10{fill:#E7A2A2;}
	.st11{fill:#4A3C3B;}
	.st12{fill:#58595B;}
	.st13{opacity:0.1;fill:#231F20;}
	.st14{fill:#513C3B;}
	.st15{fill:#CCCCCC;}
	.st16{fill:#F1F2F2;}
	.st17{fill:#0C556B;}
</style>
<g>
	<g>
		<g>
			<g>
				<path class="st0" d="M55.9,131.7h13.2c0,0,0.5,14.6,0.6,22.3c0.1,7.7-2.7,30.1-3.1,33.1c8.3,5.2,6.8,9.4,6.8,9.4
					s-4.5,1.1-11.3-0.8c-6.8-2-3.6-8.6-3.6-8.6c-0.4-3-2.7-25.3-2.6-33.1C56,146.3,55.9,131.7,55.9,131.7z"/>
				<path class="st1" d="M57.5,188.5c0.3-0.5,0.6-0.9,1-1.3c-0.6,1.6,0,2.9,2.8,4.3c3.3,1.6,9.2,3,10,0.8c0.3-0.8-0.6-1.7-1.6-2.9
					c3.7,2.6,7.6,6.5,6.8,8.4c-1.2,3.1-10.6,0.7-15.5-1.6C56.1,193.8,55.8,191.4,57.5,188.5z"/>
				<polygon class="st1" points="58.3,185 58.5,187.2 66.6,187.2 66.9,184.8 				"/>
			</g>
		</g>
		<g>
			<g>
				<path class="st0" d="M51.7,131.7H38.5c0,0-0.5,14.6-0.6,22.3c-0.1,7.7,2.7,30.1,3.1,33.1c-8.3,5.2-6.8,9.4-6.8,9.4
					s4.5,1.1,11.3-0.8c6.8-2,3.6-8.6,3.6-8.6c0.4-3,2.7-25.3,2.6-33.1C51.6,146.3,51.7,131.7,51.7,131.7z"/>
				<path class="st1" d="M50,188.5c-0.3-0.5-0.6-0.9-1-1.3c0.6,1.6,0,2.9-2.8,4.3c-3.3,1.6-9.2,3-10,0.8c-0.3-0.8,0.6-1.7,1.6-2.9
					c-3.7,2.6-7.6,6.5-6.8,8.4c1.2,3.1,10.6,0.7,15.5-1.6C51.5,193.8,51.7,191.4,50,188.5z"/>
				<polygon class="st1" points="41,187.2 49,187.2 49.2,185.4 40.7,185.4 				"/>
			</g>
			<path class="st2" d="M38.5,131.7c0,0-0.3,7-0.4,13.8c0,0,9.4-2.2,13.6,0c0-6.9,0-13.8,0-13.8H38.5z"/>
			<path class="st2" d="M68.9,166.7c0.5-5,0.8-9.8,0.8-12.6c-0.1-7.7-0.6-22.3-0.6-22.3H55.9v12.7c0,0.3,0,0.7,0,1v0.2
				C55.9,145.7,68.6,153.1,68.9,166.7z"/>
		</g>
	</g>
	<g>
		<g>
			<g>
				<path class="st3" d="M75.3,141l-2.6-40.2L77.6,68c0-4.1-3.3-9.2-7.8-10.5L54,53.3l-16.4,4.2c-4.6,1.3-7.8,6.3-7.8,10.5l4.3,32.8
					l-2,40.2c0,0,7.6,1.3,21.6,1.3S75.3,141,75.3,141z"/>
				<g>
					<path class="st4" d="M46.4,56.1c0,0.6-0.5,1-1,1c-0.6,0-1-0.5-1-1c0-0.6,0.5-1,1-1C45.9,55,46.4,55.5,46.4,56.1z"/>
					<path class="st4" d="M47.4,59c0,0.6-0.5,1-1,1c-0.6,0-1-0.5-1-1c0-0.6,0.5-1,1-1C46.9,57.9,47.4,58.4,47.4,59z"/>
					<path class="st4" d="M49.9,61.9c0,0.6-0.5,1-1,1c-0.6,0-1-0.5-1-1c0-0.6,0.5-1,1-1C49.4,60.9,49.9,61.3,49.9,61.9z"/>
					<path class="st4" d="M61,56c0,0.6,0.5,1,1,1c0.6,0,1-0.5,1-1c0-0.6-0.5-1-1-1C61.5,55,61,55.5,61,56z"/>
					<path class="st4" d="M59.9,59c0,0.6,0.5,1,1,1c0.6,0,1-0.5,1-1c0-0.6-0.5-1-1-1C60.4,57.9,59.9,58.4,59.9,59z"/>
					<path class="st4" d="M57.5,61.9c0,0.6,0.5,1,1,1c0.6,0,1-0.5,1-1s-0.5-1-1-1C57.9,60.9,57.5,61.3,57.5,61.9z"/>
					<path class="st4" d="M54.4,63.4c0,0.6-0.5,1-1,1c-0.6,0-1-0.5-1-1c0-0.6,0.5-1,1-1C53.9,62.4,54.4,62.9,54.4,63.4z"/>
					<path class="st4" d="M51.3,63.1c0,0.3-0.2,0.5-0.5,0.5c-0.3,0-0.5-0.2-0.5-0.5s0.2-0.5,0.5-0.5C51.1,62.6,51.3,62.8,51.3,63.1z
						"/>
					<path class="st4" d="M56.6,63.1c-0.1,0.2-0.3,0.4-0.6,0.3c-0.2-0.1-0.4-0.3-0.3-0.6c0.1-0.2,0.3-0.4,0.6-0.3
						C56.6,62.6,56.7,62.8,56.6,63.1z"/>
				</g>
				<path class="st5" d="M42.7,56.2c0,0,1.3,18,6.2,19L47.1,115c0,0-5.4-3.3-14.5,0l-2.9-38.6L39.3,57L42.7,56.2z"/>
				<path class="st5" d="M65,56.2c0,0-1.3,18-6.2,19l1.7,39.8c0,0,5.4-3.3,14.5,0L78,76.4l-9.5-19.4L65,56.2z"/>
			</g>
			<g>
				<g>
					<polygon class="st0" points="34.7,102.1 34.1,116.2 25.7,117.1 25.2,102.1 					"/>
				</g>
				<path class="st0" d="M25.9,116.8l8.2-0.6c0,0,3.2,2.7,3,4.9c-0.2,2.2-3.6,1.6-3.6,1.6s1.9,3.4-0.1,4.3c-0.9,0.4-6.6,1-8-2.7
					C23.9,120.7,25.9,116.8,25.9,116.8z"/>
				<path class="st6" d="M23.5,95.1l2.3-17.5l0,0l0.6-4.6c0,0,0-1.5,1.5-6.8C30.2,58,41,56.6,41,56.6l-3.3,19.7l0,0l-1.2,19.5
					c-0.2,3.6-3.3,6.3-6.9,6.1C26,101.8,23.3,98.7,23.5,95.1z"/>
				<path class="st6" d="M36.2,107.8l0.4-12.7c0-3.6-3.4-5-6.9-5l0,0c-3.4,0-6.2,2.9-6.2,6.5l-0.2,11.2L36.2,107.8z"/>
			</g>
			<g>
				<g>
					<polygon class="st0" points="72.4,102.1 73,116.2 81.4,117.1 81.9,102.1 					"/>
				</g>
				<g>
					<g>
						<g>
							<path class="st6" d="M83.8,95.1l-2.3-17.5l0,0L80.9,73c0,0,0-1.5-1.5-6.8c-2.3-8.1-13.1-9.5-13.1-9.5l3.3,19.7l0,0l1.2,19.5
								c0.2,3.6,3.3,6.3,6.9,6.1C81.3,101.8,84,98.7,83.8,95.1z"/>
						</g>
						<g>
							<path class="st6" d="M71.1,107.8l-0.4-12.7c0-3.6,3.4-5,6.9-5l0,0c3.4,0,6.2,2.9,6.2,6.5l0.2,11.2L71.1,107.8z"/>
						</g>
					</g>
				</g>
				<path class="st0" d="M81.2,116.8l-8.2-0.6c0,0-3.2,2.7-3,4.9c0.2,2.2,3.6,1.6,3.6,1.6s-1.9,3.4,0.1,4.3c0.9,0.4,6.6,1,8-2.7
					C83.2,120.7,81.2,116.8,81.2,116.8z"/>
			</g>
			<path class="st5" d="M72.1,58.4c0,0-3.2,19.5-2,27.5l-5.8-15.3L65,56.3C65,56.3,70.8,57.4,72.1,58.4z"/>
		</g>
		<path class="st5" d="M35.1,58.4c0,0,3.2,19.5,2,27.5L43,70.6l-0.8-14.3C42.2,56.3,36.4,57.4,35.1,58.4z"/>
	</g>
	<g>
		<g>
			<g>
				<path class="st7" d="M74.6,29.9c0-6.7-1.5-13.2-6.7-17.2c-3.2-2.4-7.7-3.9-14.1-3.9c-17.1,0-20.8,10.4-20.8,21.1
					c0,0,2.5,14.5-3.7,16.5c0,0,6.2,3.8,24.5,3.8c18.3,0,25-3.8,25-3.8S74.6,45.6,74.6,29.9z"/>
				<path class="st2" d="M60.7,54.3c0,3.6-3,7.4-6.7,7.4h-0.5c-3.7,0-6.7-3.7-6.7-7.4V40.5c0-3.6,3-6.6,6.7-6.6H54
					c3.7,0,6.7,3,6.7,6.6V54.3z"/>
				<g>
					<g>
						<g>
							<g>
								<path class="st0" d="M74.9,28.9c-1.6-2.5-4.6-2.8-6.7-0.6c-2.1,2.2-2.4,6-0.8,8.5c1.6,2.5,4.7,2.8,6.7,0.6
									C76.2,35.2,76.5,31.4,74.9,28.9z"/>
								<path class="st8" d="M72.8,31.1c-0.9-1.3-2.4-1.6-3.4-0.5c-1,1.1-1.1,3-0.3,4.4c0.9,1.3,2.4,1.6,3.4,0.5
									C73.5,34.4,73.7,32.4,72.8,31.1z"/>
							</g>
							<g>
								<path class="st0" d="M32.6,28.9c1.6-2.5,4.7-2.8,6.7-0.6c2.1,2.2,2.4,6,0.8,8.5c-1.6,2.5-4.6,2.8-6.7,0.6
									C31.3,35.2,30.9,31.4,32.6,28.9z"/>
								<path class="st8" d="M34.7,31.1c0.9-1.3,2.4-1.6,3.4-0.5c1,1.1,1.1,3,0.3,4.4c-0.9,1.3-2.4,1.6-3.4,0.5
									C33.9,34.4,33.8,32.4,34.7,31.1z"/>
							</g>
							<path class="st0" d="M72.1,31.8c0,10.7-5.2,21.1-18.3,21.1c-13.2,0-18.3-10.4-18.3-21.1c0-10.7,8.2-19.3,18.3-19.3
								C63.9,12.5,72.1,21.2,72.1,31.8z"/>
						</g>
						<path class="st8" d="M56,40.1c0,0.7-1,1.2-2.3,1.2c-1.2,0-2.3-0.5-2.3-1.2c0-0.7,1-1.2,2.3-1.2C55,38.9,56,39.4,56,40.1z"/>
					</g>
				</g>
				<g>
					<path class="st9" d="M53.7,44c-2.4,0-4.5-1-5.8-2.4c0,0.2,0,0.4,0,0.7c0,3.3,2.6,6,5.9,6c3.3,0,5.9-2.7,5.9-6
						c0-0.2,0-0.4,0-0.7C58.2,43,56.1,44,53.7,44z"/>
					<path class="st10" d="M57.8,46.5c-1.1-0.4-2.5-0.6-4.1-0.6c-1.6,0-3,0.2-4.1,0.6c1.1,1.1,2.5,1.7,4.1,1.7
						C55.3,48.2,56.7,47.5,57.8,46.5z"/>
				</g>
				<path class="st7" d="M36.7,24.9c0,0,3.6-4.2,17.3-4.2c13.7,0,16.8,4.2,16.8,4.2s-0.6-13.9-16.5-13.9
					C38.4,10.9,35.9,23.6,36.7,24.9z"/>
			</g>
			<path class="st7" d="M39,23.3c0,0,15.3-2.8,21.9,1.2c0,0-2.2-2-5.3-2.9c0,0,8.7,0.1,12.5,4.5c0,0-0.7-2.1-2-3.2
				c0,0,3,1.1,4.9,3.8c0,0-2.4-11.2-16.2-11.2C41,15.6,39,23.3,39,23.3z"/>
			<path class="st4" d="M71,26.8l1.2,0.2c-2-7.6-9.5-13.3-18.4-13.3c-9,0-16.5,5.7-18.4,13.3c0.4,0,0.8-0.1,1.2-0.1
				C39.4,21.1,46,17,53.8,17C61.5,17,68.1,21.1,71,26.8z"/>
			<path class="st4" d="M74.2,38.6c0,0.7-0.6,1.3-1.3,1.3c-0.7,0-1.3-0.6-1.3-1.3c0-0.7,0.6-1.3,1.3-1.3
				C73.7,37.3,74.2,37.9,74.2,38.6z"/>
			<path class="st4" d="M36,38.6c0,0.7-0.6,1.3-1.3,1.3c-0.7,0-1.3-0.6-1.3-1.3c0-0.7,0.6-1.3,1.3-1.3C35.5,37.3,36,37.9,36,38.6z"
				/>
		</g>
		<g>
			<path class="st11" d="M59.2,27.9c1.1-0.4,2.4-0.3,3.5,0.1c0.3,0.1,0.5,0.2,0.8,0.3c0.3,0.1,0.6,0.3,0.8,0.5
				c0.3,0.2,0.5,0.3,0.8,0.6c0,0-2.3-1.3-4.6-1.1c-0.4,0-0.8,0.1-1.2,0c0,0-0.3-0.1-0.3-0.1C58.9,28,59,27.9,59.2,27.9z"/>
			<path class="st11" d="M48.8,27.9c-1.1-0.4-2.4-0.3-3.5,0.1c-0.3,0.1-0.5,0.2-0.8,0.3c-0.3,0.1-0.6,0.3-0.8,0.5
				c-0.3,0.2-0.5,0.3-0.8,0.6c0,0,2.3-1.3,4.6-1.1c0.4,0,0.8,0.1,1.2,0c0,0,0.3-0.1,0.3-0.1C49.1,28,49,27.9,48.8,27.9z"/>
			<g>
				<g>
					<g>
						<path class="st1" d="M62.8,32.8c0,1.1-0.7,2-1.7,2c-0.9,0-1.7-0.9-1.7-2c0-1.1,0.7-2,1.7-2C62.1,30.8,62.8,31.7,62.8,32.8z"/>
						<path class="st4" d="M61.4,32.1c0,0.5-0.3,0.9-0.7,0.9c-0.4,0-0.7-0.4-0.7-0.9c0-0.5,0.3-0.9,0.7-0.9
							C61.1,31.2,61.4,31.6,61.4,32.1z"/>
					</g>
				</g>
				<g>
					<g>
						<path class="st1" d="M45.3,32.8c0,1.1,0.7,2,1.7,2c0.9,0,1.7-0.9,1.7-2c0-1.1-0.7-2-1.7-2C46,30.8,45.3,31.7,45.3,32.8z"/>
						<path class="st4" d="M45.8,32.1c0,0.5,0.3,0.9,0.7,0.9c0.4,0,0.7-0.4,0.7-0.9c0-0.5-0.3-0.9-0.7-0.9
							C46.1,31.2,45.8,31.6,45.8,32.1z"/>
					</g>
				</g>
			</g>
		</g>
	</g>
</g>
<g>
	<g>
		<g>
			<path class="st1" d="M105.9,198c1.3,3.8,12.8,1.6,18.7-1c5.9-2.6,6.3-5.4,4.4-9c-1.9-3.5-5.7-4.3-11.6-1.7
				C111.5,188.9,104.8,195,105.9,198z"/>
			<path class="st1" d="M161.8,198c-1.3,3.8-12.8,1.6-18.7-1c-5.9-2.6-6.3-5.4-4.4-9c1.9-3.5,5.7-4.3,11.6-1.7
				C156.2,188.9,162.9,195,161.8,198z"/>
			<polygon class="st12" points="110.7,104.3 112.7,189 130,190.5 133.8,137.2 137.7,190.5 155,189 157,104.3 			"/>
			<polygon class="st13" points="143.8,190 135.1,126.1 126.4,190.2 130,190.5 133.8,137.2 137.7,190.5 			"/>
			<path class="st13" d="M154.4,111.3c-5.4-0.5-20.3-1.5-23-1.6c-2.7-0.1-6.5-1.8-11.1-0.6c-4.6,1.3-7.7,2.3-7.9,2.7l-1.3,7.4
				c0,0,44.3,1.4,45.1,11.9l0,0l0.5-19.3C156.2,111.6,155.4,111.4,154.4,111.3z"/>
		</g>
		<g>
			<path class="st2" d="M141.3,53.1c0,4-3.2,5.8-7.2,5.8h-0.5c-4,0-7.2-1.9-7.2-5.8V37.8c0-4,3.2-7.2,7.2-7.2h0.5
				c4,0,7.2,3.2,7.2,7.2V53.1z"/>
			<g>
				<g>
					<g>
						<g>
							<path class="st0" d="M158.2,26.1c-1.7-2.6-4.8-2.9-7-0.7c-2.1,2.2-2.5,6.1-0.8,8.6c1.7,2.6,4.8,2.9,7,0.7
								C159.6,32.5,159.9,28.6,158.2,26.1z"/>
							<path class="st8" d="M156.1,28.3c-0.9-1.4-2.5-1.6-3.5-0.5c-1.1,1.1-1.2,3.1-0.3,4.4c0.9,1.4,2.5,1.6,3.5,0.5
								C156.9,31.6,157,29.6,156.1,28.3z"/>
						</g>
						<g>
							<path class="st0" d="M109.4,26.1c1.7-2.6,4.8-2.9,7-0.7c2.1,2.2,2.5,6.1,0.8,8.6c-1.7,2.6-4.8,2.9-7,0.7
								C108.1,32.5,107.7,28.6,109.4,26.1z"/>
							<path class="st8" d="M111.5,28.3c0.9-1.4,2.5-1.6,3.5-0.5c1.1,1.1,1.2,3.1,0.3,4.4c-0.9,1.4-2.5,1.6-3.5,0.5
								C110.8,31.6,110.6,29.6,111.5,28.3z"/>
						</g>
						<path class="st0" d="M155.4,29.1c0,10.8-6.1,21.3-21.6,21.3c-15.5,0-21.6-10.5-21.6-21.3c0-10.8,9.7-19.5,21.6-19.5
							C145.8,9.5,155.4,18.3,155.4,29.1z"/>
					</g>
					<path class="st8" d="M136.1,35.7c0,0.7-1,1.2-2.3,1.2c-1.2,0-2.3-0.5-2.3-1.2c0-0.7,1-1.2,2.3-1.2
						C135.1,34.5,136.1,35,136.1,35.7z"/>
				</g>
			</g>
			<path class="st11" d="M143.8,4l3.2-1l-9.6-1.3l2.3-1c-3.9,0.1-8.2,1.3-8.2,1.3l1-1.9c-3.4,0.6-6.1,3.2-6.8,3.9
				c-1.5,0.2-17.2,2.5-13.3,22.2c0,0,2.9-0.9,4.6-7.6c0,0,10.6-3.2,19.6,0.7c0,0-0.8-4.4-3.4-6.5c0,0,18.1,1.8,22.2,15.5
				C155.4,28.4,157.6,9.3,143.8,4z"/>
			<g>
				<path class="st9" d="M133.9,42c-2.5,0-4.8-1-6.2-2.6c0,0.2,0,0.5,0,0.7c0,3.5,2.8,6.4,6.2,6.4c3.4,0,6.2-2.9,6.2-6.4
					c0-0.2,0-0.5,0-0.7C138.7,41,136.4,42,133.9,42z"/>
				<path class="st4" d="M140.1,39.4c-1.4,1.6-3.7,2.6-6.2,2.6c-2.5,0-4.8-1-6.2-2.6c0,0.2,0,0.5,0,0.7c0,0.1,0,0.3,0,0.4
					c1.3,1.8,3.6,2.9,6.2,2.9c2.6,0,4.9-1.2,6.2-2.9c0-0.1,0-0.3,0-0.4C140.1,39.8,140.1,39.6,140.1,39.4z"/>
				<path class="st10" d="M138.2,44.7c-1.2-0.4-2.7-0.7-4.4-0.7c-1.7,0-3.2,0.3-4.4,0.7c1.1,1.1,2.7,1.9,4.4,1.9
					C135.6,46.5,137.1,45.8,138.2,44.7z"/>
			</g>
			<g>
				<g>
					<g>
						<path class="st1" d="M142.6,28.8c0,1.1-0.7,2-1.7,2c-0.9,0-1.7-0.9-1.7-2c0-1.1,0.7-2,1.7-2C141.9,26.8,142.6,27.7,142.6,28.8
							z"/>
						<path class="st4" d="M141.2,28.1c0,0.5-0.3,0.9-0.7,0.9c-0.4,0-0.7-0.4-0.7-0.9c0-0.5,0.3-0.9,0.7-0.9
							C140.9,27.2,141.2,27.6,141.2,28.1z"/>
					</g>
					<g>
						<path class="st14" d="M146.5,26c0,0-0.1-0.1-0.2-0.1c-0.2-0.1-0.4-0.2-0.7-0.4c-0.5-0.3-1.3-0.5-2.1-0.7
							c-0.8-0.1-1.6-0.1-2.2,0c-0.3,0-0.7,0.1-1,0.2c-0.3,0.1-0.6,0.1-0.9,0c-0.3-0.1-0.5-0.3-0.6-0.5c-0.2-0.6,0.5-1,0.9-1.1
							c0.5-0.1,1.1-0.1,1.6,0c0.7,0.1,1.6,0.3,2.5,0.7c0.8,0.4,1.6,0.8,2,1.3c0.3,0.2,0.4,0.4,0.5,0.5C146.5,26,146.5,26,146.5,26z"
							/>
					</g>
				</g>
				<g>
					<g>
						<path class="st1" d="M125.1,28.8c0,1.1,0.7,2,1.7,2c0.9,0,1.7-0.9,1.7-2c0-1.1-0.7-2-1.7-2C125.9,26.8,125.1,27.7,125.1,28.8z
							"/>
						<path class="st4" d="M125.6,28.1c0,0.5,0.3,0.9,0.7,0.9c0.4,0,0.7-0.4,0.7-0.9c0-0.5-0.3-0.9-0.7-0.9
							C125.9,27.2,125.6,27.6,125.6,28.1z"/>
					</g>
					<g>
						<path class="st14" d="M121.2,26c0,0,0.1-0.1,0.2-0.1c0.2-0.1,0.4-0.2,0.7-0.4c0.5-0.3,1.3-0.5,2.1-0.7c0.8-0.1,1.6-0.1,2.2,0
							c0.3,0,0.7,0.1,1,0.2c0.3,0.1,0.6,0.1,0.9,0c0.3-0.1,0.5-0.3,0.6-0.5c0.2-0.6-0.5-1-0.9-1.1c-0.5-0.1-1.1-0.1-1.6,0
							c-0.7,0.1-1.6,0.3-2.5,0.7c-0.8,0.4-1.6,0.8-2,1.3c-0.3,0.2-0.4,0.4-0.5,0.5C121.3,26,121.2,26,121.2,26z"/>
					</g>
				</g>
			</g>
		</g>
		<g>
			<g>
				<g>
					<path class="st0" d="M173.8,113.4l-10.7-0.8c0,0-4.2,3.5-3.9,6.4c0.3,2.9,3.3,3.6,3.3,3.6s-0.8,3.3,1.6,4.2
						c1.3,0.4,8.6,1.3,10.4-3.5C176.4,118.6,173.8,113.4,173.8,113.4z"/>
					<path class="st15" d="M170.1,79.6l-3.4-7.4l-2-4.4c0,0-0.3-1.2-3-6.1c-2.7-5-16.6-6.2-16.6-6.2l9.4,19.1l6.8,18.1l-0.5,21.6h14
						l0-15.4C174.5,90.5,171.3,82.3,170.1,79.6z"/>
					<path class="st15" d="M164.4,79.2l-1.8-2.6l-7.9-4.3h-0.3c0,0,1.6,14.1,6.9,20.5C166.5,99,164.4,79.2,164.4,79.2z"/>
					<path class="st15" d="M172,84.6c-0.8-5.5-6.7-19.8-9.2-23c-2.5-3.2-8.4-4.3-8.4-4.3l5.6,25.5C160,82.7,172.8,90.1,172,84.6z"/>
				</g>
				<g>
					<path class="st15" d="M97.2,79.6l3.4-7.4l2-4.4c0,0,0.3-1.2,3-6.1c2.7-5,16.6-6.2,16.6-6.2l-9.4,19.1l-6.8,18.1l0.5,21.6h-14
						l0-15.4C92.8,90.5,96.1,82.3,97.2,79.6z"/>
					<g>
						<path class="st0" d="M93.6,113.4l10.7-0.8c0,0,4.2,3.5,3.9,6.4c-0.3,2.9-3.3,3.6-3.3,3.6s0.8,3.3-1.6,4.2
							c-1.3,0.4-8.6,1.3-10.4-3.5C90.9,118.6,93.6,113.4,93.6,113.4z"/>
						<path class="st15" d="M103,79.2l1.8-2.6l7.9-4.3h0.3c0,0-1.6,14.1-6.9,20.5C100.9,99,103,79.2,103,79.2z"/>
						<path class="st15" d="M95.3,84.6c0.8-5.5,6.7-19.8,9.2-23c2.5-3.2,8.4-4.3,8.4-4.3l-5.6,25.5C107.4,82.7,94.5,90.1,95.3,84.6z
							"/>
					</g>
				</g>
			</g>
			<g>
				<g>
					<path class="st16" d="M148.6,54.7l8.1,3.1c0,0-1.9,17.4,0,22.4l1.8,34.4h-24.8V57.8L148.6,54.7z"/>
					<path class="st16" d="M119.7,54.9l-8.5,3c0,0,1.9,17.4,0,22.4l-1.4,34.4h24.4V57.8L119.7,54.9z"/>
					<rect x="143.1" y="71.7" class="st12" width="10.7" height="1.4"/>
				</g>
				<g>
					<polygon class="st17" points="135.9,64.2 137.1,60.4 133.9,58.1 130.6,60.4 131.8,64.2 128.5,100.1 133.9,110.2 139.2,100.1 
											"/>
					<polygon class="st4" points="133.9,58.1 141.2,66.4 148.4,54.8 141.3,51.4 					"/>
					<polygon class="st4" points="133.8,58.1 126.5,66.4 119.7,54.9 126.4,51.4 					"/>
				</g>
			</g>
		</g>
	</g>
</g>
</svg>
