<?xml version="1.0" encoding="utf-8"?>
<!-- Generator: Adobe Illustrator 23.1.0, SVG Export Plug-In . SVG Version: 6.00 Build 0)  -->
<svg version="1.1" id="Capa_1" xmlns="http://www.w3.org/2000/svg" xmlns:xlink="http://www.w3.org/1999/xlink" x="0px" y="0px"
	 viewBox="0 0 180 200" style="enable-background:new 0 0 180 200;" xml:space="preserve">
<style type="text/css">
	.st0{fill:#FFFFFF;}
	.st1{opacity:0.1;fill:#590949;}
	.st2{fill:#5B9275;}
	.st3{fill:#DAC984;}
	.st4{fill:#FACEA8;}
	.st5{fill:#9EA04E;}
	.st6{clip-path:url(#XMLID_2_);fill:#D33141;}
	.st7{fill:#FE5C4D;}
	.st8{fill:#D33141;}
	.st9{opacity:0.5;fill:#A9B7BF;}
	.st10{fill:#F6AB7D;}
	.st11{fill:none;stroke:#D33141;stroke-linecap:round;stroke-miterlimit:10;}
	.st12{opacity:0.5;fill:#F36449;}
	.st13{opacity:0.3;fill:#F6AB7D;}
	.st14{opacity:0.5;}
	.st15{fill:#A9B7BF;}
	.st16{fill:none;stroke:#353535;stroke-width:1.5898;stroke-linecap:round;stroke-miterlimit:10;}
	.st17{opacity:0.3;fill:#DAC984;}
</style>
<g>
	<path class="st0" d="M44.5,189.9c-12.4,12.6-49.9,27-49.9,27l-5.8-34.1l-0.1-0.6l-0.8-4.6c0,0,23-13.1,36.6-23.9
		c13.6-10.8,29-25.8,36.8-24.6c1.2,0.2,2.2,0.6,3,1.3c0,0,0,0,0,0C73.6,138.3,55.9,178.3,44.5,189.9z"/>
	<path class="st1" d="M64.2,130.3c-0.4,0.4-0.8,0.8-1.2,1.2c-0.9,0.8-1.8,1.6-2.7,2.4c-1.8,1.6-3.6,3.2-5.5,4.7c-3.6,3-7.2,6-11,8.9
		c-13.3,10.3-27.2,19.7-41.8,28c-4.4,2.5-8.8,4.9-13.3,7.2l-0.1-0.6c12.8-6.6,25.3-14,37.2-22.1c7-4.7,13.9-9.8,20.6-15
		c3.3-2.6,6.5-5.2,9.7-7.9c1.6-1.3,3.2-2.7,4.7-4.1C62,132.1,63.1,131.2,64.2,130.3C64.2,130.3,64.2,130.3,64.2,130.3z"/>
</g>
<g>
	<path class="st2" d="M37.9,169.7c-0.7-4.8-1.2-9.7-0.9-14.6c0.3-5.3,1.4-10.8,4.1-15.3c3.4-5.6,11.1-12.7,18.5-10.4
		c1.2,0.4,2.5,1.3,2.4,2.5c0,0.6-0.3,1.1-0.7,1.6c-1.3,1.9-2.7,3.7-4.1,5.6c-4.8,6.6-8.6,13.9-10.9,21.7c-1.2,3.9-0.3,22.5-3.4,23.7
		C40.2,185.5,38.1,171.3,37.9,169.7z"/>
	<path class="st3" d="M166.9,245.2c-6.4,45.8-7.7,42.1-7.7,42.1s-26.5,14.2-118.9,3.8c0,0,1.8-25.6,4.3-51c0.3-3.2,0.5-6.6,0.5-10.2
		c0.1-7.8-0.4-16.5-1-25.4c-1.3-19.9-3.4-40.8-1.7-54.7c2.9-22.9,32.3-29.2,44.8-30.4c12.5-1.2,54.4,1.4,67.5,21.8
		C167.8,161.7,173.2,199.4,166.9,245.2z"/>
	<g>
		<path class="st4" d="M136.1,218.6l-14.2,34l-15.6-30.9l-13.9,31.6l-15.5-32.2l-13.6,29.2l-6.9-18.9c0.1-7.8-0.4-16.5-1.1-25.4
			l6.5-21.4l15,34.1l15.5-32.1l13.9,32.7l16.6-29.3L136.1,218.6z"/>
		<path class="st2" d="M124.8,216.9l-15.6,37.3l-16.3-33.8l-14,33.2l-15-33.8l-12.7,29.5L45,230c0-2.1,0-4.3,0-6.5
			c-0.1-3.3-0.2-6.7-0.4-10.1c-0.1-2.9-0.3-5.8-0.5-8.7l5.9-21.7l14,34.4l15-33.8l14,34.4l17.4-32.2L124.8,216.9z"/>
		<path class="st5" d="M96.5,219.1l13.6-25.1l10.7,22.9L109,245.1L96.5,219.1z M67.5,218.5L78.8,193l10.6,26.1l-10.6,25L67.5,218.5z
			 M50.2,193.3l-5.6,20c0.2,3.4,0.3,6.8,0.4,10.1l6.3,16.4l9.2-21.4L50.2,193.3z"/>
	</g>
	<path class="st2" d="M82.6,173c-1,1.5-3.3,1.3-4-0.4c-4.3-10.5-15.4-39.8-7.7-47.9c11.2-11.8,51.1-7.7,47.1,0
		C114.3,132,93.6,156.2,82.6,173z"/>
	<g>
		<g>
			<g>
				<defs>
					<path id="XMLID_8_" d="M109.8,122.4c0.6,5.2-2.6,10.2-7.7,11.6c-1.8,0.5-3.9,1-6.5,1.4c-7.1,1.1-10.9,0.2-12.9-0.8
						c-1.3-0.7-2.2-2-2.3-3.5l-2.2-19.5l30.1-3.4L109.8,122.4z"/>
				</defs>
				<use xlink:href="#XMLID_8_"  style="overflow:visible;fill:#F6AB7D;"/>
				<clipPath id="XMLID_2_">
					<use xlink:href="#XMLID_8_"  style="overflow:visible;"/>
				</clipPath>
				<path class="st6" d="M84.3,126.8c12.2,0.4,24.5-7.3,27.4-17.3c1.1-3.8,0.8-8.1-2.4-10.8c-3.6-3-9.5-2.9-14.8-2.5
					c-6.3,0.4-12.7,0.8-18.8,2.5c-4.6,1.3-9.1,3.4-12.4,6.4c-3.7,3.4-2.8,6.2-0.5,10C66.8,121.7,75.1,126.5,84.3,126.8z"/>
			</g>
			<path class="st0" d="M109.6,120.7c1.6-1.9,8,8.2,7.1,11.4c-0.9,3.2-14,20.1-22,20.3c-8.1,0.2-10.3-15.2-10.3-15.2
				s-5.3,15.1-9.6,11.2c-4.3-3.9-4-15.6-3.5-18.3c0.4-2.7,4.5-8.8,7.5-9.2c1.3-0.2,0.1,9.5,7.1,11.2
				C92.9,133.8,105.7,125.4,109.6,120.7z"/>
			<g>
				<path class="st7" d="M84.3,143.4c0.7-4.9,6.3-9,14.3-9.4c9.1-0.4,2.5,9.5,2.5,11.7c0,2.1,1.4,7.3-3.7,8.1
					C92.7,154.5,83.7,148.2,84.3,143.4z"/>
				<path class="st7" d="M84.4,144c0.8-5-3.8-10.2-11.1-11.9c-7.5-1.7-4.4,8.2-4.8,10.1c-0.5,1.9-2.7,6,1.2,7.9
					C73.5,152.1,83.6,148.8,84.4,144z"/>
				<path class="st8" d="M77.4,142.7c0.2,3.3,3,5.9,6.3,5.7c3.3-0.2,5.9-3,5.7-6.3c-0.2-3.3-3-5.9-6.3-5.7
					C79.8,136.5,77.3,139.3,77.4,142.7z"/>
			</g>
		</g>
		<g>
			<g>
				<path class="st0" d="M124.1,75.5c-5.1,12.7-17.1,20.9-26.9,22.7c-9.8,1.8-24-1.7-33.2-11.7C46.2,67.4,35.2,27.2,82.5,18.5
					C129.9,9.8,133.9,51.3,124.1,75.5z"/>
			</g>
			<path class="st9" d="M124.1,75.5c-5.1,12.7-17.1,20.9-26.9,22.7c-9.8,1.8-24-1.7-33.2-11.7C46.2,67.4,35.2,27.2,82.5,18.5
				C129.9,9.8,133.9,51.3,124.1,75.5z"/>
			<path class="st9" d="M88.1,17.7c30.2,3.8,31.9,37.1,23.6,57.8c-5,12.4-16.5,20.5-26.2,22.6c4.2,0.8,8.2,0.8,11.8,0.1
				c9.8-1.8,21.8-10.1,26.9-22.7C133.5,52.3,130.2,13.2,88.1,17.7z"/>
			<g>
				<path class="st0" d="M70.6,75.5c6.4-15.8,6.9-38.8-6.5-50.6C39,39.5,49,70.2,63.8,86.4C66.6,83.3,68.9,79.6,70.6,75.5z"/>
			</g>
			<g>
				<path class="st10" d="M72.1,76.8c0.5,8.8-6.2,16.3-15,16.7c-8.8,0.5-16.3-6.2-16.7-15c-0.5-8.8,6.2-16.3,15-16.7
					C64.1,61.3,71.6,68,72.1,76.8z"/>
			</g>
			<g>
				<path class="st11" d="M50.8,68.7c6.5,0.9,10.9,6.9,10,13.4"/>
			</g>
			<path class="st10" d="M100.6,116.6c-24.2,4.5-33.6,1.2-37-16.9l-7.1-38.9c-3.3-18.1,8.6-35.5,26.7-38.8l0,0
				c18.1-3.3,35.5,8.6,38.8,26.7l5.3,29C130.6,95.9,124.8,112.1,100.6,116.6z"/>
			<path class="st12" d="M127.3,77.8l-5.3-29c-3.3-18.1-20.7-30.1-38.8-26.7c-0.2,0-0.4,0.1-0.7,0.1c12.9,2.7,23.5,12.9,26,26.6
				l5.3,29c3.3,18.1-2.5,34.3-26.7,38.8c-3.1,0.6-5.9,1-8.5,1.3c5.4,1,12.6,0.4,21.9-1.3C124.8,112.1,130.6,95.9,127.3,77.8z"/>
			<path class="st13" d="M81.3,77.8l-5.3-29c-1.3-7.2-4.9-13.4-9.8-18.1c-7.8,7.5-11.9,18.7-9.8,30.1l7.1,38.9
				c1,5.3,2.5,9.2,4.7,12.2C81,104.7,83.9,91.8,81.3,77.8z"/>
			<g>
				<g>
					<path class="st0" d="M123.5,58.1c-1.3,0.4-3.6-1.5-5.9-5.8c-4.4-8.3-9.2-24.9-3.7-26.6C119.4,24.1,124.8,57.7,123.5,58.1z"/>
				</g>
			</g>
			<g class="st14">
				<path class="st15" d="M123.5,58.1c-1.3,0.4-3.6-1.5-5.9-5.8c-4.4-8.3-9.2-24.9-3.7-26.6C119.4,24.1,124.8,57.7,123.5,58.1z"/>
			</g>
			<g class="st14">
				<path class="st15" d="M123.5,58.1c-1.3,0.4-3.6-1.5-5.9-5.8c-4.4-8.3-9.2-24.9-3.7-26.6C119.4,24.1,124.8,57.7,123.5,58.1z"/>
			</g>
			<g>
				<path class="st10" d="M118.1,68.4c3,9.3,12.9,14.5,22.3,11.5c9.3-3,14.5-12.9,11.5-22.3c-3-9.3-12.9-14.5-22.3-11.5
					C120.3,49.1,115.1,59.1,118.1,68.4z"/>
				<path class="st12" d="M118.1,68.4c3,9.3,12.9,14.5,22.3,11.5c9.3-3,14.5-12.9,11.5-22.3c-3-9.3-12.9-14.5-22.3-11.5
					C120.3,49.1,115.1,59.1,118.1,68.4z"/>
				<path class="st11" d="M137,52c-6.2,2-9.6,8.6-7.7,14.8"/>
			</g>
			<g>
				<g>
					<path class="st0" d="M90.8,16.6C87.6,26.5,79.8,32.8,73.3,34c-6.5,1.2-16.1-1.8-22.5-10C38.5,8.5,96.8-2.3,90.8,16.6z"/>
				</g>
				<g>
					<g>
						<path class="st0" d="M77,33.2c-8.5,2.2-21.2-1-30.3-11L77,33.2z"/>
					</g>
					<g>
						<path class="st0" d="M75,33.6c8.6-1.4,19.1-9.3,23.5-22.2L75,33.6z"/>
					</g>
				</g>
			</g>
			<g>
				<g>
					<g>
						<path class="st16" d="M62.1,60.2c1.9-2.7,5.6-3.4,8.4-1.5"/>
					</g>
					<g>
						<path class="st16" d="M94,54.4c1.9-2.7,5.6-3.4,8.4-1.5"/>
					</g>
				</g>
				<g>
					<path class="st11" d="M103.3,75.4c0.9,4.6-6,9.8-15.2,11.5l0,0c-9.3,1.7-17.5-0.7-18.3-5.3"/>
					<path class="st11" d="M97.4,65c5.3,2,9.4,6.7,10.5,12.6"/>
					<path class="st11" d="M71.1,69.8c-4.2,3.8-6.5,9.6-5.4,15.5"/>
				</g>
				<path class="st10" d="M92.3,65.6l-1.3-6.8c-0.6-3-3.4-5-6.4-4.4l-5.4,1c-3,0.6-5,3.4-4.4,6.4l1.3,6.8c-1.8,0.9-2.8,2-2.6,3.2
					c0.9,4.8,6.6,7.8,12.8,6.6c6.2-1.1,10.5-6,9.6-10.8C95.7,66.5,94.3,65.9,92.3,65.6z"/>
				<path class="st12" d="M92.3,65.6l-1.3-6.8c-0.6-3-3.4-5-6.4-4.4l-5.4,1c-3,0.6-5,3.4-4.4,6.4l1.3,6.8c-1.8,0.9-2.8,2-2.6,3.2
					c0.9,4.8,6.6,7.8,12.8,6.6c6.2-1.1,10.5-6,9.6-10.8C95.7,66.5,94.3,65.9,92.3,65.6z"/>
				<g>
					<g>
						<path class="st0" d="M80.4,53l-24.9,4.6l-0.3-1.9c-0.7-3.9,1.9-7.7,5.8-8.4l10.6-2c3.9-0.7,7.7,1.9,8.4,5.8L80.4,53z"/>
					</g>
					<g>
						<path class="st0" d="M107.7,48l-24.9,4.6l-0.3-1.9c-0.7-3.9,1.9-7.7,5.8-8.4l10.6-2c3.9-0.7,7.7,1.9,8.4,5.8L107.7,48z"/>
					</g>
					<path class="st9" d="M107.7,48l-24.9,4.6l-0.3-1.9c-0.7-3.9,1.9-7.7,5.8-8.4l10.6-2c3.9-0.7,7.7,1.9,8.4,5.8L107.7,48z"/>
				</g>
			</g>
		</g>
	</g>
	<path class="st17" d="M45,224.9c0,0,78.8-25.8,78.3-57.1s46.2,39.2,46.2,44c0,20.9-7.8,71-9.9,75.1c-0.3,0.7-2.1,1.2-3.8,1.8
		c-14.3,5-35.6,5.8-47.2,6.2c-26,1-68.3-3.8-68.3-3.8l3-37.1l0.7-7.9c0.3-2.2,1-12.1,1.1-14.3L45,224.9z"/>
	<g>
		<path class="st10" d="M4.4,271.5c2.8-4.8,6.9-8.8,11.7-11.6c15.3-9.7,37.6-5.2,42.6-3.5c1.7,5.4,2.2,10.9,2,16.1c0,0,0,0-0.1,0
			c-1,0-1.9-0.4-2.8-0.8c-0.1,0-0.1-0.1-0.2-0.1c-0.1,0.2-0.3,0.3-0.4,0.5c-0.2,0.2-0.3,0.4-0.5,0.6c-3.2,3.5-5.3,2.3-12.2,3.5
			c-0.6,0.2-1.1,0.4-1.7,0.7c-7.1,3-12,9.7-18.7,13.5c-0.9,0.5-2.2,0.9-2.8,0c-0.4-0.6-0.2-1.5,0.1-2.1c2.5-5.6,7.1-9.8,12-13.3
			c-6.6,4.7-13.3,9.5-19.9,14.2c-0.6,0.4-1.2,0.8-1.9,0.7c-0.7-0.1-1.2-0.9-1.2-1.6c-0.1-0.6,0.1-1.3,0.3-1.9c0.3-1,0.7-2,1.2-2.9
			c3.7-6.5,9.6-10.2,15.7-13.4c-7,3-13.6,7.1-19.5,12c-0.9,0.7-1.9,1.5-3,1.1c-1-0.4-1.4-1.7-1.2-2.7c0.2-1.1,1-1.9,1.7-2.7
			c4.9-5.4,10.7-9.8,17.1-13c-4.5,0.4-8.5,3.1-12.3,5.6c-1.4,1-2.9,2-4.3,2.9C5.1,274.2,3.7,272.8,4.4,271.5z"/>
		<path class="st0" d="M168.4,184.3c-1.8-20.9-6-33.4-11.6-41.2c-3.3,1.4-6.6,2.9-9.3,5.2c-4.1,3.5-5.7,9.4-7.7,14.3
			c-2.3,5.6-5.3,10.8-7.4,16.4c0,0.1-0.1,0.2-0.1,0.3c0.8,1.1,1.2,2.5,0.7,4c0.1,0.8,0,1.7-0.4,2.7c-0.4,0.9-0.9,1.7-1.4,2.5
			c-0.3,0.6-0.6,1.1-0.9,1.7c0.3,4.7,0.6,10,0.7,16.4c0.3,21.8-8.9,29.4-32.9,37.7c-24,8.3-48.6,3.5-50.1,5.8
			c-1.4,2.3,2.1,32.5,4.1,32.5c1.9,0,64.6-2.6,89.7-16.6C166.8,252,172,224.4,168.4,184.3z"/>
		<g>
			<path class="st1" d="M149.1,147.6c-0.1,0.1-0.3,0.2-0.4,0.3c3.3,8,5.2,16.5,6.1,25c0.7,6.5,0.9,13,0.8,19.4
				c-0.2,7.5-0.6,14.9-1.8,22.3c-2.2,13.6-6.9,27.2-15.9,37.9c-8.7,10.3-21.2,16.5-34.3,19.2c-15.2,3.1-30.9,1.6-46-1
				c0,0-0.1,0.1,0,0.1c2,0.4,4,0.7,6,1c14.9,2.4,30.3,3.2,45-0.9c13-3.6,24.5-10.8,32.5-21.7c8.4-11.6,12.3-25.8,14-39.9
				c1.6-13.8,1.8-28-0.4-41.7C153.6,160.8,151.8,154,149.1,147.6z"/>
			<path class="st1" d="M131.2,195c-0.1-1.7-0.2-3.3-0.4-5c-0.2,0.3-0.4,0.7-0.5,1c0,0.2,0,0.3,0,0.5c0-0.1-0.1-0.3-0.1-0.4
				c0,0.1-0.1,0.2-0.1,0.3c0.1,0.4,0.2,0.8,0.3,1.1c0,0.8,0.1,1.6,0.1,2.4c0.1,2.9,0.2,5.8,0.3,8.7c0,1.5,0.1,2.9,0,4.4
				c0,1.4,0,2.9-0.2,4.3c-0.2,2.9-0.7,5.7-1.5,8.5c-0.9,2.7-2.2,5.3-3.9,7.6c-1.7,2.3-3.9,4.2-6.2,5.9l-1.8,1.2
				c-0.3,0.2-0.6,0.4-0.9,0.6l-0.9,0.5l-1.9,1.1l-1.9,1c-5.2,2.5-10.7,4.5-16.2,6.4c-11.1,3.4-22.8,4.5-34.4,4.6
				c5.8,0.1,11.6,0,17.4-0.6c5.8-0.6,11.5-1.7,17.2-3.3c2.8-0.9,5.5-1.8,8.3-2.9c1.4-0.5,2.7-1,4.1-1.6c1.3-0.6,2.7-1.1,4-1.8l2-1
				l1.9-1.1l1-0.5c0.3-0.2,0.6-0.4,0.9-0.6l1.8-1.2c2.4-1.8,4.6-3.7,6.4-6.1c1.7-2.4,3.1-5.1,4-7.9c0.8-2.8,1.4-5.7,1.5-8.7
				c0.1-1.5,0.1-2.9,0.2-4.4c0-1.5,0-2.9-0.1-4.4C131.5,200.8,131.4,197.9,131.2,195z"/>
		</g>
		<path class="st0" d="M46.4,248.2c-1.9,1.6-1.8,30.7,1.3,35.2c3.1,4.5,15.9,1.6,17,0c1.1-1.6-0.4-33.7-2.8-35.2
			C59.4,246.7,48.4,246.5,46.4,248.2z"/>
	</g>
	<path class="st2" d="M133.1,193c-0.6,0.7-1.5,1.3-2.5,1.2c-3.2-0.2-3.4-5.3-3.4-7.6c0.1-10.3,2.7-20.7,7.4-30
		c3.3-6.6,8-12.9,14.7-15.8c1.6-0.7,3.4-1.2,5.2-0.9c1.8,0.3,3.5,1.5,3.9,3.2c0.4,1.5-0.2,3.1-0.9,4.5c-1.2,2.6-2.6,5.2-4,7.8
		c-6.3,11.5-12.6,23.1-18.8,34.6C134.2,191,133.8,192.2,133.1,193C133.1,193,133.1,193,133.1,193z"/>
</g>
</svg>
