<?xml version="1.0" encoding="utf-8"?>
<!-- Generator: Adobe Illustrator 23.1.0, SVG Export Plug-In . SVG Version: 6.00 Build 0)  -->
<svg version="1.1" id="Capa_1" xmlns="http://www.w3.org/2000/svg" xmlns:xlink="http://www.w3.org/1999/xlink" x="0px" y="0px"
	 viewBox="0 0 180 200" style="enable-background:new 0 0 180 200;" xml:space="preserve">
<style type="text/css">
	.st0{fill-rule:evenodd;clip-rule:evenodd;fill:#F2F2F2;}
	.st1{fill-rule:evenodd;clip-rule:evenodd;fill:#C57029;}
	.st2{fill-rule:evenodd;clip-rule:evenodd;fill:#932169;}
	.st3{fill-rule:evenodd;clip-rule:evenodd;fill:#3E3B3A;}
	.st4{fill-rule:evenodd;clip-rule:evenodd;fill:#231815;}
	.st5{fill-rule:evenodd;clip-rule:evenodd;fill:#F9D8C7;}
	.st6{fill-rule:evenodd;clip-rule:evenodd;fill:#AF4283;}
	.st7{fill-rule:evenodd;clip-rule:evenodd;fill:#F6C2A7;}
	.st8{fill-rule:evenodd;clip-rule:evenodd;fill:#EBC2AC;}
	.st9{fill-rule:evenodd;clip-rule:evenodd;fill:#CB9F87;}
	.st10{fill-rule:evenodd;clip-rule:evenodd;fill:#ED8322;}
	.st11{fill-rule:evenodd;clip-rule:evenodd;fill:#F6F1F4;}
	.st12{fill-rule:evenodd;clip-rule:evenodd;fill:#F8CAB0;}
	.st13{fill-rule:evenodd;clip-rule:evenodd;fill:#534741;}
	.st14{fill-rule:evenodd;clip-rule:evenodd;fill:#9E625A;}
	.st15{fill-rule:evenodd;clip-rule:evenodd;fill:#ECEBEC;}
	.st16{fill-rule:evenodd;clip-rule:evenodd;fill:#DBCAD5;}
	.st17{fill-rule:evenodd;clip-rule:evenodd;fill:#3C2D2A;}
	.st18{fill-rule:evenodd;clip-rule:evenodd;fill:#86756B;}
	.st19{fill-rule:evenodd;clip-rule:evenodd;fill:#FFFFFF;}
	.st20{fill-rule:evenodd;clip-rule:evenodd;fill:#F7CCB5;}
	.st21{fill-rule:evenodd;clip-rule:evenodd;fill:#CB7B3B;}
</style>
<g>
	<g>
		<ellipse class="st0" cx="89.9" cy="186.8" rx="77.9" ry="10.2"/>
		<g>
			<g>
				<path class="st1" d="M107.2,60.7c-12,8.3-5.9,26.5-35.7,31.2l1.7,6.9c0,0,11-0.7,23-8C115.1,79.2,115.2,55.1,107.2,60.7z"/>
				<path class="st2" d="M75.8,74.3c12.9,6.9,8.9,25.6,39.1,26.9l-0.9,7c0,0-11,0.6-23.8-5.3C70.1,93.6,67.2,69.7,75.8,74.3z"/>
				<path class="st3" d="M139.3,114.6c-1.5,13.8-2.5,52.2-4.9,66.5c0,0-5.1-0.1-5.1-1.1l-3.2-63.7L139.3,114.6z"/>
				<path class="st3" d="M110.8,109.9c1.2,13.8,1.6,56.6,3.7,71c0,0,5.1,0,5.2-1l4.8-69.2L110.8,109.9z"/>
				<path class="st4" d="M132.6,180.2c-1.2,0.4-2.1-0.1-3.3-0.7c-1,0.1-1.1,0.3-1.3,3.1c-0.2,2.9,0.6,2.4,2.3,3
					c0.1,0,8.2,1.2,8.5,1.3c3.9,0.4,7.6,0,8-2C147.4,181.5,135.7,174,132.6,180.2z"/>
				<path class="st5" d="M39.9,131.8c1.1,10.3,1.9,39.3,3.7,50.1c0,0,3.8-0.1,3.9-0.8l2.4-47.9L39.9,131.8z"/>
				<path class="st5" d="M61.4,132.6c-0.9,10.4-1.1,39.3-2.6,50.1c0,0-3.8,0-3.9-0.8l-3.3-47.9L61.4,132.6z"/>
				<path class="st6" d="M36.9,68.6c-6,35.4-8.1,58.9-11,86.3l54.9,0.3c-1.9-33.2-2.2-45.9-6.4-81.3C74.2,72.2,36.9,68.6,36.9,68.6z
					"/>
				<path class="st7" d="M55.7,58.6c4.9,0,4.2,3.2,4.2,7.3c0,4.2,4.7,12.1-4.4,11.4c-9.1-0.8-4.5-7.1-4.5-11.3
					C51,61.9,50.8,58.6,55.7,58.6z"/>
				<path class="st6" d="M58.4,180.8c-0.7,0.6-1.1,1.3-1.1,1.3l-2.7-0.3c0,0-0.6,0-0.8,2.1c-0.2,2.2,0.4,1.8,1.8,2.2
					c0.1,0,6.1,0.9,6.4,0.9c2.9,0.3,5.7,0,6-1.5C68.6,182.5,59.4,178.9,58.4,180.8z"/>
				<path class="st6" d="M43.9,179.8c0.7,0.6,1.1,1.3,1.1,1.3l2.7-0.3c0,0,0.6,0,0.8,2.1c0.2,2.2-0.4,1.8-1.8,2.2
					c-0.1,0-6.1,0.9-6.4,0.9c-2.9,0.3-5.7,0-6-1.5C33.7,181.5,42.9,177.9,43.9,179.8z"/>
				<path class="st8" d="M151.7,22.9c-3.9,0.3-6.9,3.7-6.6,7.7c0.3,3.9,3.7,6.9,7.7,6.6c3.9-0.3,6.9-3.7,6.6-7.7
					C159.1,25.5,155.6,22.6,151.7,22.9z"/>
				<path class="st9" d="M152.3,34.5c2.2,0,4-2,4-4.4s-1.8-4.4-4-4.4s-4,2-4,4.4S150.1,34.5,152.3,34.5z"/>
				<path class="st8" d="M92.8,26.6c-3.9,0.3-6.9,3.7-6.6,7.7c0.3,3.9,3.7,6.9,7.7,6.6c3.9-0.3,6.9-3.7,6.6-7.7
					C100.2,29.3,96.8,26.3,92.8,26.6z"/>
				<path class="st9" d="M93.9,38.1c2.2,0,4-2,4-4.4s-1.8-4.4-4-4.4c-2.2,0-4,2-4,4.4S91.7,38.1,93.9,38.1z"/>
				<path class="st10" d="M125.6,129.7L125.6,129.7l-20.7-0.7l2.3-68.3c0-0.8,9.2-2.1,18.4-3.3h0h0l18.4,3.3l2.3,69L125.6,129.7z"/>
				<path class="st7" d="M123.2,46.1c4.9,0,4.2,3.2,4.2,7.3c0,4.2,4.7,12.1-4.4,11.4c-9.1-0.8-4.5-7.1-4.5-11.3
					C118.4,49.4,118.2,46.1,123.2,46.1z"/>
				<path class="st5" d="M120.9,2c-17.3,1.3-28.8,15.5-27.6,31.5c1.2,16,14.7,27.9,32,26.6c17.3-1.3,28.4-16.2,27.2-32.3
					C151.2,11.7,138.2,0.7,120.9,2z"/>
				<path class="st11" d="M112.2,25.1c1.6-0.1,2.3,1.9-1.2,2.2c-3.5,0.3-11,1.5-10.4,0.1C101.4,25.2,109.8,24.8,112.2,25.1z"/>
				<path class="st11" d="M130.5,23.9c-1.6,0.2-1.9,2.3,1.6,1.9c3.5-0.4,11.1-0.5,10.3-1.8C141.1,22.1,132.9,23.3,130.5,23.9z"/>
				<path class="st11" d="M153.8,20.6c0.1,0.7-1.2,10.9-1,12.8c0.1,1.9-0.4,3.9-0.9,2.2c-0.5-1.8-1.6-10.3-1.5-13.5
					c0-3.2-3.6-9.3-3.6-9.3s2.9-0.8,5.1,1.3C154,16.1,153.8,20.6,153.8,20.6z"/>
				<path class="st11" d="M92.1,21.3C92.1,22,93.4,32.1,93.3,34c-0.1,1.9,0.5,3.9,1,2.1c0.5-1.8,1.4-10.3,1.3-13.5
					c-0.1-3.2,3.5-9.3,3.5-9.3s-2.9-0.7-5.1,1.4C91.9,16.9,92.1,21.3,92.1,21.3z"/>
				<path class="st12" d="M109.5,22.7c7.6-1,16-1.4,23.6-1.5C124.1,19.8,118.3,20.1,109.5,22.7z"/>
				<path class="st12" d="M108.8,18.8c7.6-1,16-1.4,23.6-1.6C123.4,16,117.6,16.2,108.8,18.8z"/>
				<path class="st13" d="M117.5,48.1c2.9,10.3,12.1,6.8,11.7-2.2C128,50,120.9,50.2,117.5,48.1z"/>
				<path class="st14" d="M119.3,40.7c0.2,0.9,1.9,1.6,3.8,1.4c2-0.1,3.5-1,3.6-2L119.3,40.7z"/>
				<g>
					<path class="st15" d="M66.5,16.4c0,0,2.8-5.7-2.7-8.9c-5.5-3.2-19.2-0.5-22,3.6c-2.8,4.1-0.4,10.1,5.5,10.4
						C53.1,21.8,66.5,16.4,66.5,16.4z"/>
					<path class="st16" d="M67.1,14.4c0.1-0.4,0.1-0.9,0.1-1.4c-1.5-0.7-4.9-1.3-13.4-0.3c-7.3,0.9-11,2.5-12.9,3.9
						c0.1,0.4,0.3,0.8,0.5,1.2c2.4-1.2,6.3-2.5,12.5-3.2C61,13.7,64.9,13.9,67.1,14.4z"/>
					<path class="st8" d="M33.6,34c3.5,0.9,5.5,4.4,4.7,7.8c-0.9,3.5-4.4,5.5-7.8,4.7c-3.5-0.9-5.5-4.4-4.7-7.8
						C26.6,35.3,30.1,33.2,33.6,34z"/>
					<path class="st9" d="M31.3,43.9c1.8,0,3.3-1.6,3.3-3.6c0-2-1.5-3.6-3.3-3.6c-1.8,0-3.3,1.6-3.3,3.6
						C28,42.3,29.5,43.9,31.3,43.9z"/>
					<path class="st8" d="M88.6,46.9c3.5,0.9,5.5,4.4,4.7,7.8c-0.9,3.5-4.4,5.5-7.8,4.7c-3.5-0.9-5.5-4.4-4.7-7.8
						C81.7,48.2,85.2,46.1,88.6,46.9z"/>
					<path class="st9" d="M87.3,57.6c2.1,0,3.8-1.9,3.8-4.2c0-2.3-1.7-4.2-3.8-4.2c-2.1,0-3.8,1.9-3.8,4.2
						C83.5,55.7,85.2,57.6,87.3,57.6z"/>
					
						<ellipse transform="matrix(0.2423 -0.9702 0.9702 0.2423 0.2252 92.9459)" class="st5" cx="59.6" cy="46.3" rx="26.2" ry="28.3"/>
					<path class="st12" d="M72.9,41c-6.5-2-14-3.7-20.7-4.9C60.4,36.3,65.5,37.4,72.9,41z"/>
					<path class="st12" d="M74.1,37.7c-6.5-2-14-3.7-20.7-4.9C61.6,33,66.7,34.1,74.1,37.7z"/>
					<path class="st11" d="M34.2,34.2c2.8,3,17.7,3.4,33.7-3.5c12,13.8,19.9,16.5,19.9,16.1c12.5-14.9-15.4-38.3-27.9-30.5
						C48.4,11.4,33.1,19,34.2,34.2z"/>
					<path class="st14" d="M44.6,40.2c0.7,5.5,4.4,8.3,9.4,6.1c1.9-0.8,2.4-1.7,3.4-3.4C55.5,50.9,42.7,48.7,44.6,40.2z"/>
					<path class="st14" d="M66,44.7c0.7,5.5,4.4,8.3,9.4,6.1c1.9-0.8,2.4-1.7,3.4-3.4C76.9,55.4,64.1,53.2,66,44.7z"/>
					<path class="st17" d="M62,62.4c-3.6,3.1-11.3-0.8-10-3.7C52.4,62.4,58.6,63.7,62,62.4z"/>
					<path class="st14" d="M61.4,56.7c-0.3,0.8-1.9,1.1-3.6,0.7C56.1,57,54.9,56,55,55.1L61.4,56.7z"/>
					<path class="st11" d="M57.1,38.8c1.6,0.3,1.8,2.3-1.6,1.8c-3.4-0.5-11.1-1-10.2-2.2C46.6,36.6,54.8,38,57.1,38.8z"/>
					<path class="st11" d="M68.1,41c-1.6-0.4-2.6,1.4,0.8,2.3c3.4,0.9,10.5,3.5,10.2,2C78.7,43.1,70.5,41.2,68.1,41z"/>
				</g>
				<path class="st3" d="M108.8,34.8c1.8,0,3.3-1.5,3.3-3.3c0-1.8-1.5-3.3-3.3-3.3c-1.8,0-3.3,1.5-3.3,3.3
					C105.5,33.3,107,34.8,108.8,34.8z"/>
				<path class="st3" d="M135.9,33.3c1.8,0,3.3-1.5,3.3-3.3s-1.5-3.3-3.3-3.3c-1.8,0-3.3,1.5-3.3,3.3S134.1,33.3,135.9,33.3z"/>
				<path class="st18" d="M152.2,21.3c0.1,0.2,0.8,3.8,0.8,3.8c-1.3,0.4-2.6,0.8-4,1.2c0,0-2.8,12.2-4.6,12.7
					c-1.8,1.1-16.5,0.5-16.6,0c-1.2-0.9-2.2-4.2-2.7-7.6c-1.9,0-3.7,0.1-5.6,0.1c-0.2,3.6-0.8,7.3-2,8.4c0.1,0.9-14.6,2.7-16.5,1.6
					c-1.8-0.3-5.8-12.2-5.8-12.2c-1.4-0.3-2.7-0.5-4.1-0.8c0,0,0.4-3.6,0.4-3.9c0,0,25.4-1.6,26.9-1c0.6,0.2,0.9,1.9,1,4
					c1.7,0,3.5-0.1,5.2-0.1c-0.1-2.4,0-4.4,0.6-4.7C126.8,22.2,152.2,21.3,152.2,21.3L152.2,21.3z M117.1,25.1c0,0-18.7,0.7-19,0.9
					c-0.3,0.2-0.6,0.8-0.5,1.9c0.1,1.1,3.5,10.5,5,11.2c1.5,0.7,12.6,0.6,13.9-2.6C117.8,33.3,117.1,25.1,117.1,25.1L117.1,25.1z
					 M126.6,24.5c0,0,0.3,8,1.9,11.1c1.6,3.1,12.7,2.1,14.1,1.3c1.4-0.9,4-11,3.9-12.2c0-1.1-0.6-1.4-1-1.6
					C145.3,22.9,126.6,24.5,126.6,24.5z"/>
				<path class="st19" d="M109.7,32.1c0.8,0,1.4-0.6,1.4-1.4s-0.6-1.4-1.4-1.4c-0.8,0-1.4,0.6-1.4,1.4S108.9,32.1,109.7,32.1z"/>
				<path class="st19" d="M137,30.5c0.8,0,1.4-0.6,1.4-1.4c0-0.8-0.6-1.4-1.4-1.4c-0.8,0-1.4,0.6-1.4,1.4
					C135.6,29.8,136.3,30.5,137,30.5z"/>
				<path class="st11" d="M105.3,46.2c0.2,2.3,1.1,4.8,3.1,6.2c6.9,4.8,14.8-3.2,15.4-3.3c0.5,0,9.5,6.8,15.7,1.2
					c1.8-1.6,2.4-4.2,2.2-6.5c-0.4,0.7-1.7,3.1-4.3,2.4c-2.5-0.7-5.4-3.9-8.4-4.2c-2.5-0.2-3.5,0.5-4.7,1.8
					c-0.4,0.5-1.2,0.5-1.7,0.1c-1.4-1.1-2.5-1.7-4.9-1.1c-2.9,0.7-5.4,4.3-7.7,5.3C107.4,49,105.8,46.8,105.3,46.2z"/>
				<path class="st20" d="M75.2,101.5c0,0,2.2-2.6,2.9-3c0.7-0.4,3.2-1.7,5.9-1.3c2.7,0.4,5.7-1.8,6.3-0.8c0.6,1.1-2,4.1-3.3,5.2
					c-1.3,1.1-6.6,2.7-9.9,2.3C73.8,103.5,75.2,101.5,75.2,101.5z"/>
				<path class="st5" d="M95,98.5c0,0-2.3,2.2-3.1,2.2c-0.8,0-3.6-0.1-5.8-1.7c-2.2-1.6-7.3,0-7.3-1.2c0-1.2,5.1-3.8,6.8-4.1
					c1.7-0.3,5.8,0.6,6.5,0.9C92.8,95,95,98.5,95,98.5z"/>
				<path class="st2" d="M38.7,69.2c14.6,7.7,5.4,27.6,39.5,29l-1,7.9c0,0-7.7,2-22.2-4.7c-12.5-5.8-21-16.4-22.9-24
					C30.7,71.2,34.3,66.9,38.7,69.2z"/>
				<path class="st1" d="M141.5,60.7c-12,8.3-9.2,28.9-50.9,33.5l1.7,6.9c0,0,26.2-2.9,38.2-10.3C154.7,79,149.5,55.1,141.5,60.7z"
					/>
				<path class="st21" d="M128,183.4c0,1.9,0.8,1.6,2.4,2.1c0.1,0,8.2,1.2,8.5,1.3c3.9,0.4,7.6,0,8-2c0-0.2,0-0.4,0-0.7
					c-1.5,0.7-4.8,1.7-10.5,0.9C131.9,184.5,129.3,183.9,128,183.4z"/>
				<path class="st4" d="M116.3,179.7c1.2,0.4,2.1-0.1,3.3-0.7c1,0.1,1.1,0.3,1.3,3.1c0.2,2.9-0.6,2.4-2.3,3c-0.1,0-8.2,1.2-8.5,1.3
					c-3.9,0.4-7.6,0-8-2C101.4,181,113.2,173.6,116.3,179.7z"/>
				<path class="st21" d="M120.9,183c0,1.9-0.8,1.6-2.4,2.1c-0.1,0-8.2,1.2-8.5,1.3c-3.9,0.4-7.6,0-8-2c0-0.2,0-0.4,0-0.7
					c1.5,0.7,4.8,1.7,10.5,0.9C117,184,119.5,183.4,120.9,183z"/>
				<path class="st3" d="M112.6,152.7c-0.3,0.5-0.6,24.7-0.6,24.7s1.8,2.9,4.3,3.5c2.5,0.6,4.3-0.3,4.3-0.3l0.1-16.2L112.6,152.7z"
					/>
				<path class="st3" d="M136.9,153.1c0.3,0.5,0.6,24.7,0.6,24.7s-1.8,2.9-4.3,3.5c-2.5,0.6-4.3-0.3-4.3-0.3l-0.1-16.2L136.9,153.1z
					"/>
			</g>
		</g>
	</g>
	<path class="st0" d="M37.7,32.7c0,0-3.6,9.8-4.4,10.5c-0.8,0.7-2.3-0.3-1.6-2.4c0.7-2.1,2.3-9.5,2.3-9.5L37.7,32.7z"/>
	<path class="st0" d="M89.9,43.4c0,0-2.9,12.7-3.8,13.4c-0.8,0.7-2.3-0.3-1.6-2.4s1.5-9.9,1.5-9.9L89.9,43.4z"/>
</g>
</svg>
