<?xml version="1.0" encoding="utf-8"?>
<!-- Generator: Adobe Illustrator 23.1.0, SVG Export Plug-In . SVG Version: 6.00 Build 0)  -->
<svg version="1.1" id="Capa_1" xmlns="http://www.w3.org/2000/svg" xmlns:xlink="http://www.w3.org/1999/xlink" x="0px" y="0px"
	 viewBox="0 0 180 200" style="enable-background:new 0 0 180 200;" xml:space="preserve">
<style type="text/css">
	.st0{fill-rule:evenodd;clip-rule:evenodd;fill:#7CC4ED;}
	.st1{fill-rule:evenodd;clip-rule:evenodd;fill:#4184B2;}
	.st2{fill-rule:evenodd;clip-rule:evenodd;fill:#3A2F2D;}
	.st3{fill-rule:evenodd;clip-rule:evenodd;fill:#574844;}
	.st4{fill-rule:evenodd;clip-rule:evenodd;fill:#5B4C43;}
	.st5{fill-rule:evenodd;clip-rule:evenodd;fill:#F79F81;}
	.st6{fill-rule:evenodd;clip-rule:evenodd;fill:#D58FBE;}
	.st7{fill-rule:evenodd;clip-rule:evenodd;fill:#985A95;}
	.st8{fill-rule:evenodd;clip-rule:evenodd;fill:#A17A57;}
	.st9{fill-rule:evenodd;clip-rule:evenodd;fill:#7A6449;}
	.st10{fill-rule:evenodd;clip-rule:evenodd;fill:#01A99D;}
	.st11{fill-rule:evenodd;clip-rule:evenodd;fill:#F06669;}
	.st12{fill-rule:evenodd;clip-rule:evenodd;fill:#FFFFFF;}
	.st13{fill-rule:evenodd;clip-rule:evenodd;fill:#BF7B6F;}
	.st14{fill-rule:evenodd;clip-rule:evenodd;fill:#1E9486;}
	.st15{fill-rule:evenodd;clip-rule:evenodd;fill:#0C685F;}
	.st16{fill-rule:evenodd;clip-rule:evenodd;fill:#F9AE68;}
	.st17{fill-rule:evenodd;clip-rule:evenodd;fill:#3A302B;}
	.st18{fill-rule:evenodd;clip-rule:evenodd;fill:#8E8168;}
	.st19{fill-rule:evenodd;clip-rule:evenodd;fill:#DCD1B9;}
	.st20{fill-rule:evenodd;clip-rule:evenodd;fill:#6D5038;}
	.st21{fill-rule:evenodd;clip-rule:evenodd;fill:#D86066;}
	.st22{fill-rule:evenodd;clip-rule:evenodd;fill:#6A5F5B;}
	.st23{fill-rule:evenodd;clip-rule:evenodd;fill:#ABA494;}
	.st24{fill-rule:evenodd;clip-rule:evenodd;fill:#F3888A;}
	.st25{fill:#333333;}
</style>
<g>
	<g>
		<path class="st0" d="M93.3,67.4l3.3-3.1c0,0,7.5,6.7,16.4,8.6c8.9,2,22-2.4,22-2.4l3.3,12c0,0-15.3,6-27.4,6.5
			c-12.2,0.5-20.5-11.3-20.5-11.3L93.3,67.4z"/>
		<path class="st1" d="M136.9,77.8l1.3,4.8c0,0-15.3,6-27.4,6.5c-12.2,0.5-20.5-11.3-20.5-11.3l1.5-5.2c-0.3,1,11.2,9.4,18.6,10.3
			C116.6,83.7,132,79.3,136.9,77.8z"/>
		<path class="st2" d="M34.3,198.6c0,0,4.8,0.2,11.4,0.4c6.6,0.2,11.4-0.3,11.4-0.3s0-1.8-0.3-3c-0.3-1.1-3.9-5.9-3.9-5.9l-10.7,0.9
			l-2.6,1.7C39.6,192.3,34.3,193.3,34.3,198.6z"/>
		<path class="st3" d="M34.3,198.6c0,0,4.8,0.2,11.4,0.4c6.6,0.2,11.4-0.3,11.4-0.3s0-0.9-0.1-1.9c-1.6,0.2-4,0.3-7,0.2
			c-4.1-0.1-11.5-0.5-15.4-0.7C34.4,196.9,34.3,197.7,34.3,198.6z"/>
		<path class="st2" d="M91.3,190.1l-0.8,2.7c0,0-0.6,0.9-0.8,2.6c-0.2,1.7-0.2,2.4-0.2,2.4s5.8,1,13.5,0.5c7.7-0.5,8.7-1.1,8.7-1.1
			s-3.2-5.5-7.6-7.1c-4.4-1.5-6.6-1.8-6.6-1.8L91.3,190.1z"/>
		<path class="st3" d="M89.7,195.9c-0.1,1.3-0.2,1.9-0.2,1.9s5.8,1,13.5,0.5c7.7-0.5,8.7-1.1,8.7-1.1s-0.4-0.8-1.2-1.8
			c-1.9,0.4-4.4,0.7-7.1,1C98.6,196.9,92.3,196.2,89.7,195.9z"/>
		<path class="st3" d="M70.4,55.6c0,0-10.4,1.7-16.4,4.9c-6.1,3.2-10.8,6.7-10.8,6.7s1.5,60.4-0.1,84.4c-1.6,24-3.5,40.7-3.5,40.7
			s2.9-1,8.5,0.3c5.6,1.3,8.7,3,8.7,3s-1.5-23.8,3.6-38.3c5.2-14.5,11.2-19.2,13.9-20.1c2.7-0.9,9.7,15.6,13,29.1
			c3.3,13.4,3.3,26.5,3.3,26.5s1.2-1.3,6.1-2.4c4.9-1,7.4-0.2,7.4-0.2s-4.7-81.8-6.5-100.5c-1.8-18.7-1.1-25.4-1.1-25.4
			S86.4,55.2,70.4,55.6z"/>
		<path class="st0" d="M70.4,55.6c0,0-10.4,1.7-16.4,4.9l-0.2,0.1c3.8,8.6,9.1,20.2,13.4,22.5c6.9,3.8,6.7,4.7,10.4-0.4
			c2.9-4.1,8.8-17.8,11-23.5C84,57.3,77.8,55.4,70.4,55.6z"/>
		<path class="st1" d="M70.4,55.6c0,0-10.4,1.7-16.4,4.9l-0.2,0.1c2.2,5,4.9,11,7.6,15.6c2.4-1.1,7.6-3.1,12.7-2.7
			c3.9,0.3,6.1,1.3,7.3,2.2c2.7-5.6,5.6-12.6,7.1-16.3l0-0.1C83.9,57.3,77.8,55.4,70.4,55.6z"/>
		<path class="st4" d="M57.6,59c-1.3,0.5-2.5,1-3.6,1.6c-6.1,3.2-10.8,6.7-10.8,6.7s0.8,30.7,0.6,57.1c8.4,0.8,21.9,1.3,35.3-0.9
			c11.8-1.9,17.8-3.2,20.7-3.9c-0.9-13-1.7-24.2-2.2-29.8c-1.8-18.7-1.1-25.4-1.1-25.4s-3.6-3.2-9.8-5.7c-1.5,3.1-5.3,10.6-8.2,14.9
			c-3.7,5.5-6.6,7-6.6,7s-7.4-6.4-10.7-13.1C59.5,64,58.3,61,57.6,59z"/>
		<path class="st0" d="M53.3,132.7c0,0-5.1,2.1-10.3-2.8c-5.1-4.9-10.4-26.8-9.7-39.7c0.7-12.9,7.4-21.3,9.8-22.9
			c2.4-1.7,10.7-0.3,11.9,8.8c1.2,9.1-5.3,21.7-5.5,29.9c-0.3,8.2,7.6,19.4,7.6,19.4l-0.8,3.2L53.3,132.7z"/>
		<g>
			<path class="st5" d="M130.9,185.7l-0.1,4.7c0,0-3.8,2.7-5.6,3.7c-1.8,1-3.6,1.6-3.7,1.7c0,0.1,0.2,2.4,0.2,2.4s9.8,0.4,12.4,0.4
				c2.6,0,2.6,0,2.6,0s1.7-4.5,2-5.5c0.3-1,0.3-1.1,0.3-1.1l-3.7-2.6l-0.1-3L130.9,185.7z"/>
			<path class="st6" d="M126.2,193.6c-0.4,0.2-0.7,0.4-1,0.6c-1.8,1-3.6,1.6-3.7,1.7c0,0.1,0.2,2.4,0.2,2.4s9.8,0.4,12.4,0.4
				c2.6,0,2.6,0,2.6,0s1.7-4.5,2-5.5c0.3-1,0.3-1.1,0.3-1.1l-1.2-0.9l-4.4,4c0,0-0.9-0.8-4.1-1.4C128,193.5,127,193.5,126.2,193.6z"
				/>
			<path class="st7" d="M121.6,197.4c0.1,0.5,0.1,0.9,0.1,0.9s9.8,0.4,12.4,0.4c2.6,0,2.6,0,2.6,0s1.7-4.5,2-5.5
				c0.3-1,0.3-1.1,0.3-1.1l-4.7,5.1C134.3,197.1,124.8,197.3,121.6,197.4z"/>
		</g>
		<g>
			<path class="st5" d="M113,185.7l-0.1,4.7c0,0-3.8,2.7-5.6,3.7c-1.8,1-3.6,1.6-3.7,1.7c0,0.1,0.2,2.4,0.2,2.4s9.8,0.4,12.4,0.4
				c2.6,0,2.6,0,2.6,0s1.7-4.5,2-5.5c0.3-1,0.3-1.1,0.3-1.1l-3.7-2.6l-0.1-3L113,185.7z"/>
			<path class="st6" d="M108.3,193.6c-0.4,0.2-0.7,0.4-1,0.6c-1.8,1-3.6,1.6-3.7,1.7c0,0.1,0.2,2.4,0.2,2.4s9.8,0.4,12.4,0.4
				c2.6,0,2.6,0,2.6,0s1.7-4.5,2-5.5c0.3-1,0.3-1.1,0.3-1.1l-1.2-0.9l-4.4,4c0,0-0.9-0.8-4.1-1.4
				C110.2,193.5,109.1,193.5,108.3,193.6z"/>
			<path class="st7" d="M103.8,197.4c0.1,0.5,0.1,0.9,0.1,0.9s9.8,0.4,12.4,0.4c2.6,0,2.6,0,2.6,0s1.7-4.5,2-5.5
				c0.3-1,0.3-1.1,0.3-1.1l-4.7,5.1C116.5,197.1,106.9,197.3,103.8,197.4z"/>
		</g>
		<path class="st8" d="M109.6,136.3c0,0,1.9,15.2,2,25.7c0.1,10.5-1.2,24.7-1.2,24.7s1.9,1,4.7,0.9c2.8,0,4.5-0.5,4.5-0.5
			s4-25.3,4.2-33.1c0.2-7.8,0.1-17,0.1-17l1.3,0.1c0,0,2.2,10.9,3.1,25.2c0.9,14.3,1.5,25.1,1.5,25.1s3.1,0.7,5.1,0.6
			c2-0.2,4.4-0.9,4.4-0.9s1-21.1,1-31.3c0-10.2-0.5-18.9-0.5-18.9l-17.1-5.8L109.6,136.3z"/>
		<path class="st9" d="M109.6,136.3c0,0,0.2,1.7,0.5,4.5c4.2,0.3,9.1,0.7,13.9,1.6c0-3.2,0-5.4,0-5.4l1.3,0.1c0,0,0.4,2.1,1,5.7
			c1.2,0.3,2.4,0.5,3.6,0.8c4.1,1.1,7.6,2.3,10.4,3.4c-0.1-6-0.4-10.2-0.4-10.2l-17.1-5.8L109.6,136.3z"/>
		<path class="st10" d="M113.2,63.6c0,0-9.4,8.4-10.9,27.3c-1.5,18.9,1.4,47.9,1.4,47.9s17,1.3,29.4,1.1c12.4-0.2,13.5-0.6,13.5-0.6
			s1.3-29.1-4.6-50.6c-6-21.5-11.6-29.1-13-28.8L113.2,63.6z"/>
		<path class="st11" d="M113.2,63.6c0,0-0.9,0.8-2.1,2.4c0.4,1.6,1.2,3.5,2.7,5.1c3,3.4,6.8,4.2,6.8,4.2s4.1-0.5,7.3-4.3
			c2.2-2.6,3.7-6,4.4-7.8c-1.6-2.6-2.7-3.6-3.3-3.5L113.2,63.6z"/>
		<path class="st12" d="M111.1,66.3c0.1,0.4,0.2,0.8,0.4,1.2c0.3-0.1,0.5-0.3,0.5-0.6c0-0.4-0.3-0.6-0.6-0.6
			C111.3,66.2,111.2,66.3,111.1,66.3L111.1,66.3z M113.8,71.2c0.2,0.2,0.4,0.5,0.6,0.7h0c0.4,0,0.6-0.3,0.6-0.6
			c0-0.4-0.3-0.6-0.6-0.6C114.1,70.6,113.8,70.9,113.8,71.2L113.8,71.2z M115.6,72.9c0.3,0.3,0.7,0.5,1,0.7c0-0.1,0.1-0.2,0.1-0.3
			c0-0.4-0.3-0.6-0.6-0.6C115.8,72.7,115.7,72.7,115.6,72.9L115.6,72.9z M119.9,75.2c0.4,0.1,0.7,0.2,0.7,0.2s0.2,0,0.5-0.1
			c-0.1-0.3-0.3-0.5-0.6-0.5C120.2,74.8,120,75,119.9,75.2L119.9,75.2z M124.7,73.8c0.3-0.2,0.7-0.4,1-0.7c-0.1-0.3-0.3-0.5-0.6-0.5
			c-0.4,0-0.6,0.3-0.6,0.6C124.4,73.5,124.5,73.7,124.7,73.8L124.7,73.8z M131.5,65.2c0.1-0.1,0.1-0.2,0.2-0.3c0,0,0-0.1,0-0.1
			c0-0.4-0.3-0.6-0.6-0.6c-0.4,0-0.6,0.3-0.6,0.6c0,0.4,0.3,0.6,0.6,0.6C131.2,65.4,131.4,65.3,131.5,65.2L131.5,65.2z M132.2,63.1
			c-0.1-0.2-0.3-0.4-0.4-0.6v0C131.8,62.8,131.9,63,132.2,63.1L132.2,63.1z M128.5,59.9l-1.1,0.3c0,0.1,0,0.1,0,0.2
			c0,0.4,0.3,0.6,0.6,0.6c0.4,0,0.6-0.3,0.6-0.6C128.7,60.2,128.6,60.1,128.5,59.9L128.5,59.9z M125.6,60.6l-1,0.2
			c0.1,0.1,0.3,0.2,0.4,0.2C125.3,61,125.5,60.9,125.6,60.6L125.6,60.6z M120.3,61.9L120.3,61.9L120.3,61.9
			c-0.3,0.1-0.5,0.3-0.5,0.6c0,0.4,0.3,0.6,0.6,0.6c0.4,0,0.6-0.3,0.6-0.6c0-0.4-0.3-0.6-0.6-0.6C120.4,61.9,120.3,61.9,120.3,61.9
			L120.3,61.9z M118.1,62.5l-1.2,0.3c0.1,0.2,0.3,0.4,0.6,0.4C117.8,63.2,118.1,62.9,118.1,62.5C118.1,62.5,118.1,62.5,118.1,62.5
			L118.1,62.5z M123.4,61.9c0.4,0,0.6,0.3,0.6,0.6c0,0.4-0.3,0.6-0.6,0.6c-0.4,0-0.6-0.3-0.6-0.6C122.8,62.2,123.1,61.9,123.4,61.9
			L123.4,61.9z M129.4,61.9c0.4,0,0.6,0.3,0.6,0.6c0,0.4-0.3,0.6-0.6,0.6c-0.4,0-0.6-0.3-0.6-0.6C128.8,62.2,129.1,61.9,129.4,61.9
			L129.4,61.9z M126.4,61.9c0.4,0,0.6,0.3,0.6,0.6c0,0.4-0.3,0.6-0.6,0.6c-0.4,0-0.6-0.3-0.6-0.6C125.8,62.2,126.1,61.9,126.4,61.9
			L126.4,61.9z M122,64.1c0.4,0,0.6,0.3,0.6,0.6c0,0.4-0.3,0.6-0.6,0.6s-0.6-0.3-0.6-0.6C121.4,64.4,121.7,64.1,122,64.1L122,64.1z
			 M128,64.1c0.4,0,0.6,0.3,0.6,0.6c0,0.4-0.3,0.6-0.6,0.6c-0.4,0-0.6-0.3-0.6-0.6C127.4,64.4,127.7,64.1,128,64.1L128,64.1z
			 M125,64.1c0.4,0,0.6,0.3,0.6,0.6c0,0.4-0.3,0.6-0.6,0.6c-0.4,0-0.6-0.3-0.6-0.6C124.4,64.4,124.7,64.1,125,64.1L125,64.1z
			 M119,64.1c0.4,0,0.6,0.3,0.6,0.6c0,0.4-0.3,0.6-0.6,0.6c-0.4,0-0.6-0.3-0.6-0.6C118.4,64.4,118.7,64.1,119,64.1L119,64.1z
			 M116,64.1c0.4,0,0.6,0.3,0.6,0.6c0,0.4-0.3,0.6-0.6,0.6c-0.4,0-0.6-0.3-0.6-0.6C115.4,64.4,115.7,64.1,116,64.1L116,64.1z
			 M113,64.1c0.4,0,0.6,0.3,0.6,0.6c0,0.4-0.3,0.6-0.6,0.6c-0.4,0-0.6-0.3-0.6-0.6C112.4,64.4,112.7,64.1,113,64.1L113,64.1z
			 M123.4,66.2c0.4,0,0.6,0.3,0.6,0.6c0,0.4-0.3,0.6-0.6,0.6c-0.4,0-0.6-0.3-0.6-0.6C122.8,66.5,123.1,66.2,123.4,66.2L123.4,66.2z
			 M129.4,66.2c0.4,0,0.6,0.3,0.6,0.6c0,0.4-0.3,0.6-0.6,0.6c-0.4,0-0.6-0.3-0.6-0.6C128.8,66.5,129.1,66.2,129.4,66.2L129.4,66.2z
			 M126.4,66.2c0.4,0,0.6,0.3,0.6,0.6c0,0.4-0.3,0.6-0.6,0.6c-0.4,0-0.6-0.3-0.6-0.6C125.8,66.5,126.1,66.2,126.4,66.2L126.4,66.2z
			 M120.4,66.2c0.4,0,0.6,0.3,0.6,0.6c0,0.4-0.3,0.6-0.6,0.6c-0.4,0-0.6-0.3-0.6-0.6C119.8,66.5,120.1,66.2,120.4,66.2L120.4,66.2z
			 M117.4,66.2c0.4,0,0.6,0.3,0.6,0.6c0,0.4-0.3,0.6-0.6,0.6c-0.4,0-0.6-0.3-0.6-0.6C116.8,66.5,117.1,66.2,117.4,66.2L117.4,66.2z
			 M114.4,66.2c0.4,0,0.6,0.3,0.6,0.6c0,0.4-0.3,0.6-0.6,0.6c-0.4,0-0.6-0.3-0.6-0.6C113.8,66.5,114.1,66.2,114.4,66.2L114.4,66.2z
			 M122,68.4c0.4,0,0.6,0.3,0.6,0.6c0,0.4-0.3,0.6-0.6,0.6s-0.6-0.3-0.6-0.6C121.4,68.7,121.7,68.4,122,68.4L122,68.4z M128,68.4
			c0.4,0,0.6,0.3,0.6,0.6c0,0.4-0.3,0.6-0.6,0.6c-0.4,0-0.6-0.3-0.6-0.6C127.4,68.7,127.7,68.4,128,68.4L128,68.4z M125,68.4
			c0.4,0,0.6,0.3,0.6,0.6c0,0.4-0.3,0.6-0.6,0.6c-0.4,0-0.6-0.3-0.6-0.6C124.4,68.7,124.7,68.4,125,68.4L125,68.4z M119,68.4
			c0.4,0,0.6,0.3,0.6,0.6c0,0.4-0.3,0.6-0.6,0.6c-0.4,0-0.6-0.3-0.6-0.6C118.4,68.7,118.7,68.4,119,68.4L119,68.4z M116,68.4
			c0.4,0,0.6,0.3,0.6,0.6c0,0.4-0.3,0.6-0.6,0.6c-0.4,0-0.6-0.3-0.6-0.6C115.4,68.7,115.7,68.4,116,68.4L116,68.4z M113,68.4
			c0.4,0,0.6,0.3,0.6,0.6c0,0.4-0.3,0.6-0.6,0.6c-0.4,0-0.6-0.3-0.6-0.6C112.4,68.7,112.7,68.4,113,68.4L113,68.4z M123.4,70.6
			c0.4,0,0.6,0.3,0.6,0.6c0,0.4-0.3,0.6-0.6,0.6c-0.4,0-0.6-0.3-0.6-0.6C122.8,70.9,123.1,70.6,123.4,70.6L123.4,70.6z M126.4,70.6
			c0.4,0,0.6,0.3,0.6,0.6c0,0.4-0.3,0.6-0.6,0.6c-0.4,0-0.6-0.3-0.6-0.6C125.8,70.9,126.1,70.6,126.4,70.6L126.4,70.6z M120.4,70.6
			c0.4,0,0.6,0.3,0.6,0.6c0,0.4-0.3,0.6-0.6,0.6c-0.4,0-0.6-0.3-0.6-0.6C119.8,70.9,120.1,70.6,120.4,70.6L120.4,70.6z M117.4,70.6
			c0.4,0,0.6,0.3,0.6,0.6c0,0.4-0.3,0.6-0.6,0.6c-0.4,0-0.6-0.3-0.6-0.6C116.8,70.9,117.1,70.6,117.4,70.6L117.4,70.6z M122,72.7
			c0.4,0,0.6,0.3,0.6,0.6c0,0.4-0.3,0.6-0.6,0.6s-0.6-0.3-0.6-0.6C121.4,73,121.7,72.7,122,72.7L122,72.7z M119,72.7
			c0.4,0,0.6,0.3,0.6,0.6c0,0.4-0.3,0.6-0.6,0.6c-0.4,0-0.6-0.3-0.6-0.6C118.4,73,118.7,72.7,119,72.7z"/>
		<path class="st13" d="M115.6,64c0,0,0.5,3.7,3.9,4.7c3.5,1,6.7-4.8,6.7-4.8L115.6,64z"/>
		<path class="st14" d="M105.5,76.3c0,0-7.7,11.2-10.2,21.4c-2.5,10.2-0.3,17.3,1.5,19.5c1.9,2.2,3.5,2.5,3.5,2.5s2.4-0.7,3.6-3.4
			c1.3-2.7,1-4.7,1-4.7S98.9,94.4,105.5,76.3z"/>
		<path class="st15" d="M100.3,119.7c0,0,2.4-0.7,3.6-3.4c1.3-2.7,1-4.7,1-4.7s-3,0.2-4.1,3.1C99.7,117.8,100.3,119.7,100.3,119.7z"
			/>
		<path class="st14" d="M130.5,110.7c0,0,5.4,0.6,11.5-0.7c6.2-1.3,8.9-3.6,8.9-3.6s2.7-13-2.1-23.7C144.1,71.9,134,66.8,134,66.8
			s3.7,7.1,6.1,15.2c2.4,8.2,2.9,18.1,2.9,18.1s-5.5,0.2-7.8,0.3c-2.2,0.1-4.8,0.2-4.8,0.2S126.4,102.7,130.5,110.7z"/>
		<path class="st15" d="M130.4,100.6c0,0-4,2,0,10c0,0,1.2-3.4,1.3-5.6C131.8,102.8,130.4,100.6,130.4,100.6z"/>
		<path class="st5" d="M131.2,108.3c-1.2-0.1-3.8-0.2-4.5-0.1c-0.9,0.2-2.1,0.2-2.4,0.1c-0.2-0.1-7.6-4.3-8.8-4.6
			c-1.2-0.4-0.5-1.8-0.3-2c0.2-0.2,0.8-0.4,0.8-0.4s-1.2-1.1-0.7-1.5c0.5-0.4,1-0.6,1-0.6s-1.2-0.8-1-1.2c0.2-0.4,0.6-0.8,0.6-0.8
			s-1.5-0.2-1.7-0.6c-0.2-0.4,0.4-1.5,2.3-1.8c2-0.3,6.1,2.5,8.2,4.2c2.1,1.7,3.6,3.1,3.6,3.1l2.7-0.2c0.4,0.8,0.7,2,0.7,3.1
			C131.7,106,131.5,107.2,131.2,108.3z"/>
		<path class="st5" d="M100.2,117.3c0.8,1,1.9,2.3,2.1,2.7c0.4,0.8,1.1,1.8,1.4,1.9c0.2,0.1,8,3.5,9,4.2c1,0.7,1.7-0.7,1.8-1
			c0-0.3-0.2-0.9-0.2-0.9s1.6,0.3,1.6-0.3c0-0.6-0.1-1.1-0.1-1.1s1.4,0.5,1.6,0.1c0.2-0.4,0.2-1,0.2-1s1.1,1.1,1.5,0.9
			c0.4-0.1,1-1.2,0-3c-0.9-1.8-5.7-3.3-8.3-4c-2.6-0.7-4.7-1-4.7-1l-2.1-3.1c-0.6,0.2-1.4,0.5-2.2,1.2l-0.2,0.2
			c-0.4,0.4-0.7,0.9-0.9,1.5C100.5,115.7,100.3,116.6,100.2,117.3z"/>
		<g>
			<path class="st5" d="M145.1,74.5c0,0-3.8,0.5-4.8,2.2c-1,1.7,0.3,2.3,1.8,2.1c1.6-0.1,4-1.4,4.1-2.1
				C146.4,76,145.9,74.6,145.1,74.5z"/>
			<path class="st5" d="M147,76.7c0,0-4.2,1.6-4.9,2.6c-0.7,1-0.4,2,0.5,2.1c0.9,0.1,4.8-0.8,5.4-2C148.7,78.2,148.1,76.7,147,76.7z
				"/>
			<path class="st5" d="M148,79.4c0,0-4.4,2.2-4.7,3.2c-0.3,1,1.6,1.4,3.5,0.4C148.7,82.1,150.1,80.7,148,79.4z"/>
			<path class="st5" d="M148.7,81.2c0,0-2.5,1.2-2.4,2.5c0.1,1.3,1.8,0.2,2.5-0.1C149.5,83.3,150.3,81.9,148.7,81.2z"/>
		</g>
		<path class="st16" d="M66.4,138.3c0.8,0.9,2.2,4.6,2.6,5.7c1.4,3.7,2.5,7.5,3.7,11.2c0.9,2.9,1.8,5.9,2.7,8.8
			c3.4,10.8,6.8,23.1,9.4,34.1c0.5,0.4,1.1,0.7,1.6,0.5c0.5-0.2,0.8-0.6,0.9-1c-0.8-3.2-6.4-24.5-9.5-34.4
			c-3.3-10.4-7.5-25.4-9.9-27.1c-2.4-1.6-9.1,1.4-9.3,4.1c-0.2,2.7,2.4,6.2,3.8,8.1c0.4,0.1,0.6,0.1,1,0c0.5-0.2,1.1-0.7,1.3-1.1
			c-1.3-1.8-3.7-5.4-3.6-6.8C61.3,139.5,65.5,137.9,66.4,138.3z"/>
		<path class="st5" d="M52.4,133.8c0,0,1.5,4.2,2.3,5.5c0.8,1.4,5.1,4.8,6.6,5c1.5,0.2,1.7-0.6,2.2-0.9c0.5-0.3,1.1-0.7,1.7-1.1
			c0.6-0.5,1.1-0.6,1.6-1.2c0.6-0.6,0.8-0.9,1.3-1c0.6-0.2,3,1.7,5,1.7c2,0,0.5-2-0.3-2.6c-0.8-0.6-12.1-8.9-13.1-9.8
			C58.8,128.5,52.4,133.8,52.4,133.8z"/>
		<polygon class="st1" points="52.9,135.4 50.5,133.1 57,125.3 60.4,129.4 		"/>
		<path class="st0" d="M72,67.3c0,0,4.9,0.6,8,3c3.1,2.4,3.8,4.2,3.8,4.2s2.6-6.1,3.3-10.2c0.6-4.1,1.4-12.4-3.4-14.9
			c-4.8-2.5-22.4-2-26,1c-3.5,3-2.8,11.6-2,17.1c0.8,5.5,1.4,6.2,1.4,6.2s1.7-2,5.9-4C67.2,67.9,72,67.3,72,67.3z"/>
		<g>
			<path class="st13" d="M51.7,42.9c0,0-1.9-4.3-5-3.4c-3,0.9-1.4,7.4-0.2,9.3c1.2,1.9,5.7,1.1,5.7,1.1L51.7,42.9z"/>
			<path class="st13" d="M88.5,40.4c0,0,1.9-3.4,3.4-4.2c1.5-0.8,4.6,0.8,3.7,5.5c-0.9,4.7-4.9,5.6-5.3,5.6
				C90,47.4,88.5,40.4,88.5,40.4z"/>
			<path class="st17" d="M52.4,39.2c0,0-8.7,0.6-11.2-3.6c-2.5-4.2,2.9-6.5,24.4-7.2c21.5-0.7,28.7-6.5,31.6-4.9
				c3,1.6,1.5,5.9-3.4,8.9c-4.9,3-10.2,4.1-10.2,3.6C83.7,35.4,52.4,39.2,52.4,39.2z"/>
			<path class="st5" d="M54.4,25.1l0.1,6.9c0,0-3.6,3.1-4.1,7.5c-0.5,4.4,0.6,12.9,2.1,15.8c1.5,2.8,5.6,11.3,19.3,10.1
				C85.5,64.2,90.1,55,91.2,51.6c1.2-3.4-2.5-17.5-3.4-20C86.9,29,83,27.9,83,27.9l-1.5-6.2C81.5,21.7,66.1,18.6,54.4,25.1z"/>
			<path class="st18" d="M51.7,53.2c0.2,0.8,0.5,1.5,0.8,2c1.5,2.8,5.6,11.3,19.3,10.1C85.5,64.2,90.1,55,91.2,51.6
				c0.1-0.4,0.2-1,0.2-1.6c-1,0.4-2.2,0.7-3.8,1c-6.1,1.1-8.5,0.1-13-1.1c-4.6-1.1-6.8,0-12.9,2.6C55.6,55,51.7,53.2,51.7,53.2z"/>
			<path class="st19" d="M50.3,24.2c0,0-1.1,0.9-1.5,5.5c-0.2,2.5,0.7,7.2,1.5,10.9c0-0.4,0.1-0.8,0.1-1.1c0.5-4.4,4.1-7.5,4.1-7.5
				l-0.1-6.9c11.6-6.5,27.1-3.4,27.1-3.4l1.5,6.2c0,0,3.9,1.1,4.8,3.7c0.4,1.2,1.4,4.7,2.3,8.5c0,0-0.2-11.6-0.3-14.9
				c-0.1-3.4-2.3-6.5-2.3-6.5s-1.3-0.4-1.3-3.2c0-2.8-2.2-2.9-2.2-2.9s1.3,2.3,0.2,3.3c-1.1,1-5.5,2.3-5.5,2.3s2.7-4.3,3.2-6
				c0.5-1.7-2.9,0.7-2.9,0.7s4.6-4,0.6-3.9c-4,0-18.5-2.4-24.8,1.3C48.4,13.9,50.3,24.2,50.3,24.2z"/>
			<path class="st20" d="M60.3,39.6c1-0.1,1.9,1,2,2.4c0.1,1.4-0.6,2.6-1.6,2.7c-1,0.1-1.9-1-2-2.4S59.3,39.6,60.3,39.6z"/>
			<path class="st20" d="M79.9,38.1c1-0.1,1.9,1,2,2.4c0.1,1.4-0.6,2.6-1.6,2.7c-1,0.1-1.9-1-2-2.4C78.2,39.4,79,38.2,79.9,38.1z"/>
			<path class="st18" d="M84.8,35.5c0,0-5.4-0.7-7.6-0.6c-2.2,0.2-2.3,0.2-2.3,0.2s-0.8-2.1,1.9-2.3C79.5,32.6,85.1,34.5,84.8,35.5z
				"/>
			<path class="st18" d="M64.8,36c0,0-4.9,0.5-7.3,1.1c-2.3,0.6-3.2,1.1-3.2,1.1s2.5-2.7,5.9-3.6C63.6,33.7,65.5,34.4,64.8,36z"/>
			<path class="st13" d="M66.1,48c0,0,1.5,1.3,4.4,1c2.9-0.3,3.3-1.4,3.3-1.4s-0.2-1.1-0.9-1.1c-0.7,0-1.1,0.4-3,0.6
				c-1.9,0.1-2.9-0.6-3.1-0.6C66.7,46.5,65.9,47.1,66.1,48z"/>
			<path class="st21" d="M64.8,54.6c0,0,1.2,2.1,4.9,2.7c3.6,0.5,6.5-3.1,6.5-3.1S66.4,54.7,64.8,54.6z"/>
			<path class="st4" d="M47.4,27.7c0,0-0.4-8,1.7-14.2C51.2,7.2,53,2.6,58.5,2.2c5.5-0.4,7.1,6.1,12.5,4.4c5.5-1.8,3.2-3.7,6.5-3.5
				c3.3,0.2,9.8,12.7,10.7,15.7c0.9,3,1.2,4.3,1.2,4.3s-10,3.2-14,3.5C71.4,26.8,47.4,27.7,47.4,27.7z"/>
			<path class="st22" d="M47.4,27.7c0,0-0.1-3.2,0.3-7.1c2.7-0.3,6.4-0.5,10.3,0c7.3,0.9,21.4-1.3,26.5-2.9c1.2-0.4,2.2-0.6,2.9-0.9
				c0.3,0.8,0.6,1.4,0.7,1.9c0.9,3,1.2,4.3,1.2,4.3s-10,3.2-14,3.5C71.4,26.8,47.4,27.7,47.4,27.7z"/>
			<path class="st22" d="M74.1,5c1.5-1.2,1-2.1,3.4-2c3.3,0.2,9.8,12.7,10.7,15.7c0.9,3,1.2,4.3,1.2,4.3s-0.9,0.3-2.2,0.7l-0.1,0
				c0,0,0,0-1.6-5.3c-1.6-5.3-5.9-10.1-6.9-10.9c-1.1-0.8-2.9,0.8-6.2,2c-3.3,1.2-8.9-0.4-8.9-0.4C71.7,9.1,74.1,5,74.1,5L74.1,5z"
				/>
			<path class="st4" d="M40.6,33.9L40.6,33.9c0,0-1.2-3.7,0.4-5.8c1.5-2.1,10.6-3.3,16.8-3.2c6.2,0.1,21.5-0.5,27.6-2.5
				c6-2,9.3-3.1,11.2-1.8c1.9,1.4,1.9,4.1,1.9,4.1l0,0c-0.2-0.5-0.7-1-1.3-1.3c-3-1.6-10.1,4.2-31.6,4.9
				C47.1,29,40.5,30.8,40.6,33.9z"/>
		</g>
		<g>
			<path class="st19" d="M113.3,19.7c0,0-0.4-7.2,6.1-10c6.4-2.8,11.9,2,12.4,6.8c0.6,4.8-3,7.1-3,7.1L113.3,19.7z"/>
			<path class="st23" d="M113.3,19.7c0,0-0.1-1.9,0.7-4.1c2-0.5,5.1-0.9,8.4-0.2c5.4,1.2,6.9,3,6.9,3h2.5c-0.4,3.5-3,5.2-3,5.2
				L113.3,19.7z"/>
			<path class="st19" d="M105.1,54.3c-0.5,0.3-9.2-7.5-6.4-21.5c2.8-14,15.6-17,21.4-16.1c5.9,0.9,9.3,4.4,9.3,4.4s9-1.3,9.1,12.7
				c0.1,13.9-2.3,17.5-5.1,20.9C130.6,58,105.1,54.3,105.1,54.3z"/>
			<path class="st13" d="M133.9,47.3c0.3-0.2,2.6-3.5,4.7-2.2c2.2,1.3,1.2,6.4-0.3,8c-1.5,1.6-4.6-0.1-4.6-0.5
				C133.6,52.1,133.9,47.3,133.9,47.3z"/>
			<path class="st13" d="M103.8,47c0,0-1.5-3.4-4.3-2.2c-2.8,1.2-0.9,6.9,0.5,7.8c1.5,0.9,3.4-0.7,3.4-0.7L103.8,47z"/>
			<path class="st19" d="M137.5,54.7c1,0,1.9-0.8,1.9-1.9s-0.8-1.9-1.9-1.9c-1,0-1.9,0.8-1.9,1.9S136.5,54.7,137.5,54.7z"/>
			<circle class="st19" cx="101.3" cy="52.3" r="1.5"/>
			<path class="st23" d="M98.1,37.7c0-0.4,0-0.9,0.1-1.4c2.3,0,6.2-0.4,10.8-2.2c7.3-2.9,12-10,12-10s-3,8.1-10.6,11.1
				C104.8,37.4,100.2,37.7,98.1,37.7L98.1,37.7z M98.4,34.4c1.8,0,4.7-0.5,8.5-2.2c6.7-3.1,7.3-6.8,7.3-6.8s-5.1,5.3-10.4,6.8
				c-2.3,0.7-4.1,0.9-5.2,1.1C98.5,33.7,98.4,34.1,98.4,34.4L98.4,34.4z M99,31.3c1.1,0,2.9-0.2,4.9-0.9c3.4-1.3,4.3-2.8,4.3-2.8
				s-3.4,1.7-5.6,2.3c-1.2,0.3-2.4,0.4-3.2,0.4C99.2,30.6,99.1,30.9,99,31.3L99,31.3z M138.5,38.5c0,0.4,0,0.8-0.1,1.2
				c-1.4-0.3-4.5-1.3-7.8-3.6c-4.5-3.1-5.9-7-5.9-7C129,35.1,136,37.7,138.5,38.5z"/>
			<path class="st5" d="M104.3,38.4c0,0-3.1,8.3-2,15.7c1.1,7.4,7.9,12.8,17,12.5c9.1-0.3,13.8-5.8,15.4-10.5
				c1.6-4.6,0.5-10.5,0.5-10.5s-3.8-5.8-8-8.1c-4.2-2.3-6.5-5.4-6.5-5.4S112.4,37.4,104.3,38.4z"/>
			<ellipse class="st20" cx="110.7" cy="48" rx="1.7" ry="2.4"/>
			<ellipse class="st20" cx="126.8" cy="48.6" rx="1.7" ry="2.4"/>
			<path class="st18" d="M130.6,43.8c0,0-4-1-5.9-0.8c-1.9,0.2-2.2-0.5-2.2-0.5s-0.4-1,1.9-1C126.9,41.6,130.4,42.9,130.6,43.8z"/>
			<path class="st18" d="M114.5,43c0,0-3.7-0.2-5.5,0.2c-1.7,0.4-3,0.8-3,0.8s3-2.5,5.5-2.5C114,41.5,115,42.1,114.5,43z"/>
			<path class="st13" d="M115.1,53.2c0,0,1.9,0.9,3.7,0.7c1.8-0.3,2.5-0.9,2.5-0.9s-0.1-1.1-0.6-1.1c-0.6,0-1.6,0.6-2.6,0.6
				s-2.4-0.7-2.9-0.6C114.8,51.9,114.8,52.7,115.1,53.2z"/>
			<path class="st21" d="M113.5,57.9c0,0,1.6,2.5,4.7,2.5c3.1,0,4.5-2.7,4.5-2.7S115,58.1,113.5,57.9z"/>
		</g>
		<path class="st11" d="M120.2,73.1c0,0-1.5-0.6-4.6,2c-3.1,2.5-3.5,7.4-3.5,7.4S121.6,79,120.2,73.1z"/>
		<path class="st12" d="M118,73.6c-0.3,0.2-0.7,0.4-1.1,0.6c0.1,0.2,0.3,0.3,0.6,0.3c0.4,0,0.6-0.3,0.6-0.6
			C118.1,73.8,118,73.7,118,73.6L118,73.6z M112.8,79.6c-0.1,0.3-0.2,0.7-0.3,1c0.1,0.2,0.3,0.3,0.5,0.3c0.4,0,0.6-0.3,0.6-0.6
			c0-0.4-0.3-0.6-0.6-0.6C112.9,79.6,112.9,79.6,112.8,79.6L112.8,79.6z M115.7,80.8c0.3-0.2,0.6-0.4,1-0.7
			c-0.1-0.3-0.3-0.5-0.6-0.5c-0.4,0-0.6,0.3-0.6,0.6C115.4,80.5,115.5,80.7,115.7,80.8L115.7,80.8z M120.4,74.5c0-0.4,0-0.8-0.1-1.2
			c-0.3,0.1-0.5,0.3-0.5,0.6C119.8,74.2,120,74.5,120.4,74.5L120.4,74.5z M119,75.3c0.4,0,0.6,0.3,0.6,0.6c0,0.4-0.3,0.6-0.6,0.6
			c-0.4,0-0.6-0.3-0.6-0.6C118.4,75.6,118.7,75.3,119,75.3L119,75.3z M116,75.3c0.4,0,0.6,0.3,0.6,0.6c0,0.4-0.3,0.6-0.6,0.6
			c-0.4,0-0.6-0.3-0.6-0.6C115.4,75.6,115.7,75.3,116,75.3L116,75.3z M117.4,77.5c0.4,0,0.6,0.3,0.6,0.6c0,0.4-0.3,0.6-0.6,0.6
			c-0.4,0-0.6-0.3-0.6-0.6C116.8,77.8,117.1,77.5,117.4,77.5L117.4,77.5z M114.4,77.5c0.4,0,0.6,0.3,0.6,0.6c0,0.4-0.3,0.6-0.6,0.6
			c-0.4,0-0.6-0.3-0.6-0.6C113.8,77.8,114.1,77.5,114.4,77.5z"/>
		<path class="st11" d="M120.8,72.4c0,0-0.1,1.9,1.9,5.3c2,3.4,5.8,4.4,5.8,4.4S126.5,73.1,120.8,72.4z"/>
		<path class="st12" d="M120.9,73.4c0,0.2,0.1,0.4,0.2,0.7c0-0.1,0-0.1,0-0.2C121.1,73.7,121,73.5,120.9,73.4L120.9,73.4z
			 M121.5,75.6c0.1,0.3,0.3,0.7,0.5,1.1c0.3,0,0.6-0.3,0.6-0.6c0-0.4-0.3-0.6-0.6-0.6C121.8,75.3,121.7,75.4,121.5,75.6L121.5,75.6z
			 M122.8,78c0.2,0.3,0.4,0.5,0.6,0.8c0,0,0,0,0.1,0c0.4,0,0.6-0.3,0.6-0.6c0-0.4-0.3-0.6-0.6-0.6C123.1,77.5,122.9,77.7,122.8,78
			L122.8,78z M124.5,79.9c0.3,0.3,0.7,0.5,1,0.8c0.1-0.1,0.2-0.3,0.2-0.5c0-0.4-0.3-0.6-0.6-0.6C124.8,79.6,124.6,79.7,124.5,79.9
			L124.5,79.9z M128.1,80.9c-0.1-0.3-0.2-0.8-0.4-1.2c-0.2,0.1-0.3,0.3-0.3,0.6C127.4,80.6,127.7,80.9,128.1,80.9
			C128,80.9,128.1,80.9,128.1,80.9L128.1,80.9z M127.1,78.1c-0.1-0.2-0.2-0.3-0.2-0.5c-0.1-0.1-0.2-0.1-0.4-0.1
			c-0.4,0-0.6,0.3-0.6,0.6c0,0.4,0.3,0.6,0.6,0.6C126.8,78.8,127.1,78.5,127.1,78.1L127.1,78.1L127.1,78.1z M124.1,73.9
			c-0.3-0.2-0.6-0.4-0.9-0.6c-0.2,0.1-0.4,0.3-0.4,0.6c0,0.4,0.3,0.6,0.6,0.6C123.8,74.5,124,74.2,124.1,73.9L124.1,73.9z M125,75.3
			c0.4,0,0.6,0.3,0.6,0.6c0,0.4-0.3,0.6-0.6,0.6c-0.4,0-0.6-0.3-0.6-0.6C124.4,75.6,124.7,75.3,125,75.3z"/>
		<path class="st24" d="M120.7,76.3c1.5,0,2.7-1.2,2.7-2.7c0-1.5-1.2-2.7-2.7-2.7c-1.5,0-2.7,1.2-2.7,2.7
			C118,75,119.2,76.3,120.7,76.3z"/>
	</g>
	<g>
		<path class="st25" d="M63,10.6c0.8,0.3,1.8,0.8,2.5,0.3c0.1-0.1,0.1-0.2,0-0.3c-0.5-0.7-1.5-0.5-2.2-0.7c-1.2-0.2-2.3-0.6-3.4-1.1
			c-0.1,0-0.1,0.1-0.1,0.1C60.9,9.6,61.9,10.2,63,10.6z"/>
		<path class="st25" d="M61.3,12.4c0.5,0.2,1.1,0.4,1.6,0c0.1-0.1,0.1-0.3,0-0.3c-0.4-0.3-1-0.3-1.5-0.4c-0.6-0.2-1.2-0.4-1.7-0.7
			c-0.2-0.2-0.5,0.2-0.3,0.4C60,11.8,60.6,12.2,61.3,12.4z"/>
		<path class="st25" d="M95.6,163.1c-1.1,0.5-2.2,1-3.3,1.4c-0.1-0.1-0.2-0.1-0.3-0.1c-0.2,0.1-0.5,0.2-0.7,0.4
			c-0.4,0.2-0.3,0.9,0.2,0.8c1.5-0.2,3-0.7,4.4-1.4c0.8-0.4,1.5-0.9,2.2-1.3c1.1-0.2,2.1-0.5,3-1.1c0.5-0.3,0.3-1-0.3-1
			c-1.2,0.1-2.1,0.5-3.1,1.1c-1.8,0.3-3.8,0.3-5.7,0.1c3-1.1,5.9-2.4,8.7-4.1c0.2-0.1,0.1-0.5-0.2-0.4c-2.7,1.2-9.2,4.7-11.8,2.4
			c0,0-0.1,0-0.1,0.1c1.9,1.8,5.1,0.6,7.5-0.4c-2.1,1-4.3,1.9-6.6,2.2c-0.6,0.1-0.5,0.9,0,1C91.5,162.9,93.5,163.2,95.6,163.1z"/>
		<path class="st25" d="M104.6,32.5c1.8-0.2,3.6-0.5,5.3-1c2.9-0.9,5.4-2.4,7.2-4.8c0-0.1,0-0.1-0.1-0.1c-1.9,2.3-4.4,3.7-7.3,4.4
			c-1.3,0.3-2.5,0.5-3.8,0.7c-0.6,0.1-1.3,0.1-1.9,0.2c-0.5-0.2-0.8-0.1-1,0.1c-0.1,0-0.1-0.1-0.2,0c0,0-0.1,0-0.1,0
			c-0.1,0.1-0.2,0.2-0.1,0.3C103.2,32.9,103.9,32.6,104.6,32.5z"/>
		<path class="st25" d="M103,29.1c2.8,0.6,5.6-0.1,7.8-2c0.1-0.1,0-0.2-0.1-0.1c-2.1,1.5-4.7,1.9-7.2,1.5c0-0.1,0-0.2-0.1-0.2
			l-0.4,0.1C102.6,28.5,102.7,29,103,29.1z"/>
		<path class="st25" d="M116.6,110.9c-0.2,0-1.2-0.1-2.2-0.2c1.3,0,2.6,0,3.1,0c3.6,0.1,7.1,0.4,10.6,0.7c0.1,0,0.2-0.2,0-0.2
			c-5.8-1.6-11.7-1.9-17.7-2.3c0,0,0,0.1,0,0.1c2.8,0.2,5.6,0.4,8.4,0.7c1.3,0.1,2.6,0.3,3.9,0.5c1,0.2,3.1,1,4.1,0.9
			c-1.1,0.2-2.8-0.3-3.8-0.4c-1.3-0.1-2.7-0.2-4.1-0.2c-2.7-0.1-5.4-0.1-8.1,0.1c-0.2,0-0.2,0.3,0,0.3c5.5,0.1,12,0.3,17.2,2.4
			c0.4,0.2,1.7,0.6,1.9,1c0.4,0.8-0.3,0.4-0.9,0.4c-1.3,0-2.7-0.3-4.1-0.3c-2.3,0-5.4,0.1-7.1,0.6c0.3-0.1,0.1-0.5-0.1-0.4
			c-0.7,0.1-0.6,0.1-1.2,0.5c-0.2,0.2,0,0.5,0.2,0.5c4.8-0.7,9.4-0.6,14.2-0.1c0.2,0,0.3-0.2,0.2-0.3
			C127.8,111.5,121.2,111.3,116.6,110.9z"/>
		<path class="st25" d="M152,94.8c-0.2-3.8-0.9-7.5-2.1-11.1c0.1-0.1,0.1-0.1,0.2-0.2c0.8-0.9,0.5-1.6,0-2.6
			c-0.6-1.3-0.5-2.8-1.3-3.9c-1.4-2.2-2.7-3.3-5.2-2.6c-1-1.6-2.5-3-4-4.2c-1.2-1-2.8-2.3-4.5-2.9c-0.6-1.3-1.3-2.5-2.2-3.4
			c0.1-0.2,0.1-0.4,0.2-0.7c0.1-0.7-0.4-1.2-0.9-1.7c1.7-1.8,3.1-3.7,3.6-6.2c0.1-0.3,0.1-0.6,0.2-0.8c0.5,0.4,1.2,0.5,1.7,0.4
			c1.6-0.3,2.5-2.1,1.9-3.4c1.1-1.5,0.8-4.2,0.1-5.7c-0.4-0.8-0.9-1.4-1.8-1.4c1.4-4,2-8.4,1.6-12.7c0.1-0.1,0.2-0.2,0.1-0.3l0,0
			c0,0,0,0,0,0c0,0,0-0.1,0-0.1c-0.1-0.1-0.1-0.2-0.2-0.3c-0.2-1.3-0.4-2.6-0.8-3.9c-0.7-2.4-3.2-6.6-6.2-7c1-5.4-2.4-10.9-8.1-11.6
			c-4.3-0.5-10.8,3-10.9,7.9c-2.9,0.7-5.7,2.1-8,4c-6.4,5.3-10.3,16-6.5,23.9c-0.2,0.2-0.4,0.3-0.6,0.6c-1.6,2-1.1,6.4,1.2,7.8
			c0.2,0.7,0.8,1.3,1.5,1.5c0.2,0.1,0.5,0.1,0.8,0.1c0.2,1,0.4,2,0.7,3c1.3,4.2,4.2,6.7,7.9,8.2c0,0.1,0,0.3,0.1,0.4
			c-1.1,1.3-2.1,2.8-2.9,4.5c-3.5-1.5-6.3-4.1-9.5-6c-0.6-0.4-1.1-0.5-1.5-0.3c-0.1-0.3-0.3-0.7-0.6-0.9c-1.8-1.9-5.1-3.6-7.6-4.5
			c1.3-1.4,2.3-3,2.9-4.7c0.8-2.2,0.9-4.5,0.8-6.8c0,0,0,0,0,0c3.8-1.1,5.3-5.4,4.2-9.1c-0.9-3-3.5-3-5.1-1.1c0-0.8-0.1-1.6-0.1-2.4
			c2.8-1.5,5.8-3.2,7.1-6.2c0,0,0.1,0,0.1,0c1.1-2.7,1.4-6.1-1.1-8.2c-2-1.7-5.1-1.3-7.7-0.7c0,0,0,0,0,0C87.8,14,85.3,6,79.9,3.1
			c-2-1.1-3.9-0.4-5.6,0.8c-1.3,0.9-2.6,1.8-3.8,2.4c-3.3,0.1-6.1-3.3-9.1-4.6c-2.9-1.3-6.1-0.4-8.4,1.8C50.5,6,49.2,9.7,48.1,13
			c-1.3,4.1-2.1,8.2-2.1,12.5c-1.9,0.4-3.7,1.1-5,2.1c-2,1.6-1.3,4.1-0.9,6.4c0,0.3,0,0.6,0.1,1c0,0,0,0.1,0,0.1c0,0,0,0.1,0.1,0.1
			c0.2,0.6,0.6,1.1,1.1,1.6c1.2,1.2,2.6,1.9,4.2,2.3c-1.3,0.7-1.5,2.7-1.4,4.1c0,2.1,0.7,5.3,2.3,6.8c1.1,1.1,2.7,1.2,4.2,1
			c0.4,2.4,1,4.7,2.3,6.8c0.5,0.8,1,1.5,1.6,2.1c-3.1,0.9-5.9,2.8-8.6,4.6c-2.9,1.9-5.4,4.2-7.4,7.1C34,78.2,33,86.5,33,94.3
			c0,8.4,1.4,16.8,3.8,24.8c1.3,4.2,3.2,9.2,6.7,12c-1.8,4.1-1,9.9-1,14.3c0,5.2-0.3,10.3-0.6,15.5c-0.3,5.2-0.8,10.3-1.4,15.5
			c-0.5,5.2-1.4,10.4-1.7,15.6c-2.7,0.5-4.6,3.8-5.3,6.2c-0.1,0.4,0.1,1,0.6,1c7.7,0.2,15.5,0.3,23.2,0.1c0.1,0,0.2,0.1,0.3,0
			c0,0,0,0,0.1,0c0.1,0,0.1-0.1,0.2-0.1c0.4-0.2,0.5-0.7,0.2-1.1c0.1-0.1,0.1-0.3,0.1-0.5c0-0.5-0.1-1-0.1-1.6
			c-0.1-1.2-0.2-2.4-0.2-3.7c-0.1-2.1-0.2-4.2-0.3-6.3c-0.2-4.8-0.1-9.6,0.4-14.3c0.4-4.3,1.2-8.6,2.4-12.7c1.1-3.6,2.7-7,4.3-10.4
			c0.6-0.4,1.1-0.8,1.2-1.3c0.1-0.2,0.1-0.5,0-0.7c0.4-0.6,0.7-1.2,1.1-1.8c0.2-0.3,0.4-0.6,0.5-0.9c0.1-0.2,0.2-0.4,0.2-0.5
			c5.8,16.6,10,33.7,14.8,50.6c0.5,1.6,0.9,5.4,3.1,5.8c2.3,0.5,2.7-2.3,2.3-3.9c-2.1-8.9-5.1-17.7-7.7-26.6
			c-1.4-4.9-2.8-9.7-4.2-14.6c-1.1-3.9-1.9-8.6-3.8-12.3c2.4,0,2.6-2.2,1.5-3.9c0.9-0.1,2.7,0.5,3,0.8c0.4,0.5,0.7,1.2,1,1.8
			c0.6,1.1,1.1,2.2,1.7,3.3c1.1,2.2,2,4.4,2.9,6.7c1.9,4.9,3.3,10.1,4.4,15.2c1,4.8,1.7,9.7,2.2,14.6c0.5,4.8,0.3,9.7,0.9,14.4
			c-0.7,1.9-0.8,2.9,1.6,3.5c3.8,0.9,8.1,0.5,12,0.5c0,0,0,0,0,0c0.3,0.3,0.6,0.4,1.2,0.5c2.1,0.3,4.6-0.8,6.8-1
			c2.3-0.2,4.6,0.2,6.9,0c1.1-0.1,1.3-0.2,1.8-1.2c0.1-0.2,0.2-0.5,0.3-0.7c-0.1,2.9,5.2,2.4,6.9,2.3c2.5-0.1,5.1-0.1,7.6-0.3
			c1.8-0.1,2-0.3,2.7-1.9c0.6-1.3,1.9-3.4,1.6-4.9c-0.4-1.9-2.9-1.9-3.2-4.1c1.1-0.1,2.2-0.3,3.3-0.5c0.6-0.1,0.7-0.8,0.4-1.2
			c0-0.1,0-0.1,0-0.2c0.5-8.3,0.9-16.6,1.1-24.9c0.1-4.2,0.1-8.3,0.1-12.5c0-2.6,0.4-6-0.2-8.8c0.8-0.1,1.5-0.2,2.3-0.3
			c-0.8,0.1-1.5,0.1-2.3,0.2c0-0.1-0.1-0.2-0.1-0.4c1.8-0.1,3.6-0.4,5.2-0.9c0,0.1,0,0.1,0.1,0.2c-0.9,0.4-1.9,0.7-3,0.9
			c1.2-0.1,2.4-0.1,3.6,0c0.4,0,0.6-0.3,0.6-0.6c-0.1-0.4-0.1-0.6-0.2-0.8c0.4-0.2,0.8-0.4,1.1-0.6c0.2-0.1,0.2-0.5-0.1-0.5
			c-0.3,0-0.6-0.1-1-0.1c0.4-2,0.2-4.1,0.3-6.1c0-2.4,0-4.8,0-7.2c-0.1-4.8-0.3-9.7-1-14.4c2.1-0.5,4.2-1.4,4.9-3.4
			C152.4,102.8,152.2,98.4,152,94.8z M144.5,75.7c1.4,0.1,1.9,1.3,2.7,2.3c0.9,1,1.6,1.8,1.7,3.3c0,1-0.1,0.7-0.5,1.2
			c-0.4,0.5-1.7,1.6-2.2,0.8c-0.1-0.1-0.2-0.1-0.3-0.1c-0.5,0-1.3,0.1-1.7-0.3c-0.1-0.1-0.3-0.4-0.4-0.6c-0.1-0.4,0.2-0.7,0.6-0.9
			c0.1-0.1,0.2-0.2,0.1-0.3c0,0,0,0,0-0.1c-0.1-0.1-0.2-0.2-0.3-0.1c-0.2,0.1-0.3,0.1-0.5,0.2c-0.4,0-0.9-0.2-1.1-0.5
			c-0.4-0.4-0.3-0.9-0.2-1.4c0.2-0.6-0.4-1-0.9-0.7c-0.1,0-0.1-0.1-0.2-0.1c-0.2-0.1-0.3-0.2-0.4-0.3c-0.1-0.2-0.2-0.5-0.3-0.7
			C141.3,76.2,143.4,75.6,144.5,75.7z M130.9,65.2c-0.8,1.2-1.5,2.4-2.4,3.5c-1.6,2.1-3.3,3.6-5.3,5.2c0.2-0.8,0.1-1.7-0.1-2.4
			c-0.3-0.7-0.8-1.4-1.5-1.8c1.5-0.6,3.5-2,4.4-3.2c2.1-0.8,3.8-2.3,5.5-4c0.1-0.1,0.1-0.1,0.2-0.2C131.7,63.1,131.1,65,130.9,65.2z
			 M111.2,65.8c1.1,0.4,2.3,0.7,3.5,0.9c0.6,0.1,1.2,0.2,1.9,0.3c0.5,0.9,1.5,2,2.6,2.6c-0.4,0.2-0.8,0.5-1,0.9
			c-0.2,0.2-0.3,0.4-0.4,0.5c-0.4,0.6-0.5,1.3-0.5,2c-0.1-0.1-0.2-0.1-0.3-0.2c-1-0.7-2-1.7-2.8-2.6
			C112.8,68.9,112.2,67.3,111.2,65.8C111.2,65.8,111.2,65.8,111.2,65.8z M117.9,67.2c1.7,0.2,3.5,0.3,5.1,0c-0.6,0.4-1.2,0.7-1.8,1
			C119.9,68.8,118.9,67.9,117.9,67.2z M117.5,74.6c0.1,0.2,0.2,0.5,0.4,0.7c0.1,0.1,0.1,0.2,0.2,0.3c-0.3,0.2-0.6,0.6-0.8,0.8
			c-0.6,0.6-1.1,1.2-1.6,1.9c-0.1,0.1,0.1,0.2,0.1,0.1c0.5-0.7,1.1-1.2,1.9-1.7c0.3-0.2,0.7-0.3,1-0.5c0.3,0.2,0.6,0.4,1,0.5
			c-0.8,0.9-1.5,1.8-2.5,2.6c-0.6,0.5-1.3,1-2,1.4c-0.5,0.3-1.5,1-2.1,1c-0.7-0.1-0.2-0.9,0-1.4c0.3-0.7,0.6-1.3,0.9-2
			c0.3-0.6,1.9-3.3,3-3.7C117.2,74.5,117.3,74.6,117.5,74.6z M119.7,75.3c-0.1-0.1-0.3-0.2-0.4-0.4c-0.6-0.8-0.9-2.4-0.4-3.4
			c0.5-1.2,1.8-1.2,2.5-0.5c-0.4-0.3-1-0.4-1.6-0.2c-1.8,0.6-0.8,2.6,0.3,3.4c0.1,0.1,0.1,0,0.1-0.1c-0.1-0.2-0.3-0.4-0.5-0.6
			c-0.5-0.5-0.4-1,0.2-1.4c0.3-1,0.8-1.1,1.5-0.2c0.3,0.4,0.4,0.7,0.5,1.2c0.1,0.8-0.6,2.1-1.4,2.3C120.3,75.5,120,75.5,119.7,75.3z
			 M122.5,75.5c1,0.8,1.8,1.8,2.4,2.9c0.1,0.1,0.3,0,0.2-0.1c-0.5-1.3-1.2-2.5-2.3-3.5c0,0,0,0,0-0.1c0.2-0.1,0.5-0.2,0.7-0.3
			c2,0.7,3.1,4.2,3.8,6.3c-1.3-0.4-2.4-1-3.4-2c-0.8-0.8-1.3-2-2.1-2.7C122.2,75.9,122.4,75.7,122.5,75.5z M138.2,53.7
			c-0.7,0.5-1.3,0.2-1.8-0.3c-0.1,0-0.1-0.1-0.2-0.1c0-0.5,0.1-1,0.1-1.5c0.2-0.3,0.4-0.5,0.8-0.7c0.5-0.2,1.1,0,1.4,0.4
			c0,0.2-0.1,0.3-0.1,0.5c0,0.2,0.2,0.4,0.4,0.3C138.9,52.9,138.7,53.4,138.2,53.7z M139.1,47.8c0.1,1-0.1,1.8-0.3,2.7
			c-0.7-0.4-1.5-0.5-2.2-0.1c-0.1,0-0.1,0.1-0.2,0.1c0-1.2-0.1-2.5-0.2-3.7c0.2-0.1,0.3-0.3,0.2-0.6c0,0,0,0,0,0
			c0.3-0.2,0.6-0.3,0.9-0.5C138.5,45.3,138.9,46.8,139.1,47.8z M130.3,13.6c1.1,2.1,0.9,4.4,1.1,6.6c-0.5,0.1-1,0.3-1.4,0.6
			c-0.5-1.1-1.5-1.7-2.7-2.3c-0.2-0.1-0.4-0.2-0.5-0.2c-0.1-1,0.3-2.3,0.6-2.9c0.4-1.2,1.1-2.3,2-3.2
			C129.6,12.6,130,13.1,130.3,13.6z M129.2,12.1c-1.3,1.2-2.1,2.7-2.5,4.4c-0.1,0.5-0.2,1.1-0.2,1.7c-0.6-0.3-1.2-0.5-1.8-0.7
			c-1.5-2-1.4-6,0.2-7.8C126.4,10,128,10.8,129.2,12.1z M123.9,9.5c0.2,0,0.4,0.1,0.6,0.1c-1.1,1.1-1.3,2.7-1.2,4.2
			c0,0.9,0.1,2.3,0.6,3.3c-0.8-0.3-1.7-0.5-2.6-0.7c-2.2-1-2.9-4-1.8-6.1C120.9,9.7,122.4,9.4,123.9,9.5z M117.1,11.9
			c0.7-0.6,1.5-1.2,2.3-1.6c-0.8,1.7-0.7,4.6,0.6,5.8c-0.3,0-0.6-0.1-0.9-0.1c-1.7-0.2-3.3-0.1-4.9,0.2
			C115.1,14.7,115.7,13.2,117.1,11.9z M99.6,33.2c0.9-3.8,2.8-7.4,5.5-10.2c3-3.1,7.2-5.2,11.6-5.4c4-0.2,10.1,1.4,13.1,4.3
			c0.2,0.2,0.4,0.1,0.4-0.2c0-0.1,0-0.3-0.1-0.4c0.6,0.1,1.1,0.2,1.6,0.3c0.1,0,0.1,0.1,0.2,0.1c1.5,0.4,2.7,1,3.8,2.5
			c1,1.4,1.5,3.2,1.9,4.9c-1.1-0.8-2.3-1.4-3.6-1.8c-0.2,0-0.2,0.2-0.1,0.2c1.6,0.6,2.8,1.5,3.8,2.5c0.1,0.3,0.1,0.6,0.2,0.9
			c0,0.2,0.1,0.4,0.1,0.6c-1.6-1.4-4.2-1.9-6.1-2.5c0,0,0,0,0,0c2.1,0.8,4.7,1.5,6.2,3.2c0.5,4.2,0.4,8.1-0.8,12.2
			c-0.6,0.1-1,0.4-1.4,0.8c-0.1-0.1-0.1-0.1-0.2-0.1c-1.6-2.6-4-5-6.3-6.8c-1.5-1.3-3.2-2.1-4.9-3.2c-1.6-1.1-2.6-2.5-3.7-3.9
			c0.2-0.3,0.4-0.6,0.6-1c0.1-0.1-0.1-0.2-0.2-0.1c-0.2,0.2-0.4,0.5-0.6,0.7c-0.1-0.1-0.1-0.2-0.2-0.3c-0.1-0.1-0.2,0-0.2,0.1
			c0,0.2,0.1,0.3,0.1,0.5c-2.2,2.2-4.6,3.9-7.7,4.8c-1.6,0.5-3.2,0.8-4.8,1c-1.7,0.2-4.7,0.6-6.3-0.4c-0.2-0.1-0.4,0.1-0.3,0.2
			c0.3,1.1,1.3,1.6,2.6,1.8c-0.8,1.8-1.3,3.8-1.7,5.8c-0.2-0.2-0.4-0.3-0.7-0.4c-0.6-0.2-1.2-0.1-1.8,0.1C99,40.4,98.6,37,99.6,33.2
			z M98.8,48.3c-0.1-1.9,1.3-4,3.1-2.6c-0.2,1.7-0.3,3.4-0.3,5c-0.4-0.2-0.9-0.1-1.3,0.2c-0.2,0.1-0.3,0.3-0.4,0.4
			C99.4,50.3,98.9,49.5,98.8,48.3z M101.4,53.2c-0.4-0.1-0.7-0.3-0.8-0.7c-0.2-0.7,0.3-1.3,1-1.2c0,0.7,0.1,1.3,0.2,2
			C101.6,53.2,101.5,53.2,101.4,53.2z M103.4,55.8c-1.4-5.7-0.6-11.5,1.1-17c2.6,0.2,6.1-0.7,7.5-1.2c3.3-1,6.4-2.9,8.5-5.7
			c1,2.7,3.7,4.1,6,5.7c3.7,2.5,5.9,6,8.9,9c0,0.1,0,0.1,0.1,0.2c0.2,2.7,0.3,5.3-0.5,8c-0.7,2.4-2.1,4.4-3.8,6.2
			c-0.1,0.1-0.2,0.2-0.3,0.3c-0.3,0.3-0.6,0.6-0.9,0.9c-4.2,4.2-9.5,4.5-15.1,3.4C109.1,64.5,104.7,61.7,103.4,55.8z M99.4,66.6
			c1.1,0.8,2.2,1.6,3.3,2.4c1.4,1,2.8,1.8,4.4,2.5c-0.7,1.5-1.2,3.1-1.7,4.4c0,0,0,0,0,0c-2.2,2.9-4.2,6.1-5.9,9.4
			c-0.5-0.1-0.9-0.3-1.4-0.3c-0.2-1.6-0.4-3.2-0.6-4.8c-0.3-3.9-0.5-7.8-0.6-11.8c0-1,0.1-2.3,0-3.4C97.7,64.9,98.9,66.2,99.4,66.6z
			 M101.8,97.2c0,0.1,0,0.2,0,0.3c-0.8-0.7-1.8-1-2.8-1c-0.6-0.2-1.3-0.4-2-0.5C98.8,95.6,101.1,95.5,101.8,97.2z M99.1,96.9
			c0.9,0.3,1.9,0.7,2.7,1.2c0,0.6,0,1.2,0.1,1.9c-1.2-1.7-3.2-3-5.1-2.4C97.6,97.1,98.3,96.9,99.1,96.9z M101.8,96.5
			c-1.2-1.5-4-1.1-5.5-0.5c-0.2,0.1-0.1,0.3,0.1,0.3c0.6,0.1,1.2,0.2,1.8,0.3c-1,0.2-1.9,0.8-2.6,1.6c-0.1,0.2,0.1,0.4,0.3,0.2
			c2.2-1.7,4.7-0.1,6.1,2.1c0.3,3.7,1,7.4,2.4,10.7c-1,0.1-2.3,1.1-2.7,1.6c-1.2,1.4-2.2,4-1.6,6c-1.7-0.7-3.3-3.8-3.8-4.8
			c-0.8-1.9-1.3-3.9-1.6-6c-0.4-4.2,0.3-8.4,1.6-12.3c1-3.1,2.3-6,3.8-8.9c0.7,0.2,1.1-0.8,0.6-1.2c1.3-2.4,2.6-4.8,4-7.2
			c-0.9,2.9-1.6,5.9-2.1,8.9C102.1,90.4,101.8,93.4,101.8,96.5z M117.7,121.8c-0.1,0-0.3,0-0.4,0.1c-0.2,0.2-0.4,0.5-0.7,0.6
			c-0.4,0.1-0.7-0.1-1,0.2c-0.2,0.2-0.3,0.5-0.4,0.8c0,0.3,0.1,0.8-0.4,0.7c-0.4-0.1-0.6,0.3-0.5,0.6c-1.9,1.4-4.9-0.9-6.6-1.8
			c-1.5-0.8-3.7-1.6-4.7-3c0.5-0.6,0.9-1.1,1.4-1.7c0.6-0.7,1.6-2.5,2.7-2.5c0,0,0,0,0,0c1.7,0.5,3.5,0.7,5.2,1
			c1.1,0.2,2.2,0.3,3.2,0.7c0.9,0.3,1.8,0.8,2.4,1.5c1,0.8,1.1,1.7,0.3,2.8C118.1,121.7,117.8,121.7,117.7,121.8z M103.2,137.9
			c0.5,2,3.4,2,5.5,2c-0.1,3.6,0.8,7.4,1.1,11c0.4,4.5,0.6,9.1,0.6,13.6c0,4.1-0.1,8.2-0.4,12.3c-0.1,2-0.3,4.1-0.6,6.1
			c-0.1,1.1-0.6,2.3,0.1,3.3c0.2,0.3,0.5,0.4,0.8,0.3c0.6,0.5,1.2,0.9,1.9,1.2c0,0,0,0,0,0c0,2.3-1.6,3.8-3.5,4.9
			c-0.9-1.1-2.2-2-3.6-2.5c0,0,0-0.1,0-0.1c0.3-2.6-0.1-5.3-0.3-8c-0.2-3-0.4-5.9-0.6-8.9c-0.4-5.9-0.8-11.9-1.2-17.8
			c-0.4-5.8-0.8-11.5-1.2-17.3c-0.4-5.9-0.6-11.9-1.4-17.8c0.4,0,0.7,0,1.1-0.1c0.1,0.3,0.3,0.7,0.6,1c-0.2,2.8,0.2,5.7,0.4,8.5
			c0.2,2.5,0.1,5.5,0.9,7.9C103.3,137.6,103.2,137.7,103.2,137.9z M127.1,144c-0.3-1.3-0.7-2.6-1.3-3.7c0.4,0,0.9,0,1.3,0
			c2,0.8,4.1,1.5,6.2,2c0.9,0.2,1.8,0.4,2.7,0.6c0.4,0.1,2.7,0,1.2,0.2c-2.4,0.2-4.8,0.3-7.2,0.5C129.1,143.6,127.9,143.4,127.1,144
			z M123.8,140.3c-0.1,0.8-0.2,1.6-0.3,2.4c-4-1-8-1.9-12-2.8c3.9,0.2,7.9,0.3,11.8,0.4C123.5,140.3,123.7,140.3,123.8,140.3z
			 M118.5,186.8C118.5,186.8,118.5,186.8,118.5,186.8c-0.1,0-0.1,0-0.2-0.1c-1.2-0.2-2.4-0.4-3.6-0.7c1.4,0,2.7-0.1,4.1-0.4
			C118.7,186,118.6,186.4,118.5,186.8z M118.9,191.8c0.1,0.1,0.1,0.1,0.2,0.2c-1.4,0.7-3.2,2-4.7,2c-0.6,0-1.4-0.5-2-0.6
			c-0.3-0.1-0.7-0.1-1-0.2c1.6-1.2,2.9-3.1,2-5.1c1.2,0.2,2.2-0.1,3.3-0.3C115.8,189.3,117.7,190.7,118.9,191.8z M110.2,139.8
			c0.3,0,0.7,0,1,0c4.1,0.9,11.3,2.6,11.3,2.8c0-0.2-8.3,0-11.9,0.1c-0.2-1-0.4-2-0.8-3C110,139.8,110.1,139.8,110.2,139.8z
			 M111,183.9c2.3,0.5,4.6,1,7,1.4c-2.3,0.4-4.6,0.3-6.9-0.2C110.9,184.8,110.9,184.4,111,183.9z M111.2,185.7
			c1.6,0.5,3.3,0.9,4.9,1.3c-0.6,0.1-1.1,0.3-1.7,0.2c-1.2-0.1-2.3-0.5-3.3-1.1C111.1,186,111.2,185.8,111.2,185.7z M118.9,185
			c-2.2-0.4-4.3-0.8-6.5-1.2c1.8-0.2,3.4-0.7,4.9-1.7c0.1-0.1,0-0.2-0.1-0.1c-2,0.9-4,1.5-6.2,1.5c0.2-1.2,0.5-2.7,0.6-3.3
			c0.2-2,0.3-4.1,0.4-6.1c0.2-4.1,0.3-8.2,0.2-12.3c-0.1-3.8-0.3-7.7-0.7-11.5c-0.2-2.1-0.4-4.4-0.7-6.6c3.3,0.6,6.6,1.4,9.9,2.3
			c0.8,0.2,2.4,0.1,1.3,0.9c-0.8,0.6-1.8,0.3-2.7,0.3c-2.1-0.1-4.2-0.2-6.3-0.2c-0.1,0-0.1,0.2,0,0.2c2.5,0.2,4.9,0.2,7.4,0.3
			c0.9,0,2.3,0.4,3-0.3c0,0,0,0,0,0c-0.1,1.5-0.1,3-0.2,4.5c-0.3,3.9-0.6,7.8-1,11.7C121.2,170.4,120.2,177.7,118.9,185z
			 M123.3,146.8c-0.5-1.1-2.4-1.2-3.5-1.5c-2.2-0.6-4.5-1.2-6.8-1.7c-0.4-0.1-1.5-0.2-2.2-0.3c0,0,0-0.1,0-0.1
			c1.3,0.1,4.2-0.3,4.5-0.3c2.8-0.1,5.5,0,8.3,0.1C123.4,144.2,123.3,145.5,123.3,146.8z M53.3,134.9c-0.8-0.8-1.5-1.5-2.4-2.1
			c2.3-2.1,4.3-4.6,6.3-7c0.7,1,1.5,2,2.3,2.9C57.2,130.6,55.2,132.8,53.3,134.9z M58.3,125.6c2.9,0.3,5.8,0.1,8.7,0
			c1.5-0.1,3-0.2,4.5-0.3c0,0.1,0,0.3,0,0.4c-4.4,0.4-8.9,0.6-13.1,0C58.4,125.7,58.4,125.7,58.3,125.6z M71.6,125.3
			c1.2-0.1,2.4-0.2,3.6-0.3c0,0.1,0,0.2,0,0.4c-1.2,0.1-2.4,0.3-3.6,0.4C71.6,125.6,71.6,125.5,71.6,125.3z M75.3,125
			c1.1-0.1,2.1-0.2,3.1-0.4c3.2-0.4,6.2-1,9.3-1.7c0.2,0.2,0.5,0.4,0.7,0.6c-3.1,0.6-6.2,1.1-9.3,1.4c-1.2,0.1-2.5,0.3-3.8,0.4
			C75.4,125.2,75.4,125.1,75.3,125z M87.9,122.8c3.7-0.9,7.4-1.9,11.1-3.1c0.2,0.1,0.4,0.2,0.6,0.3c0,0,0,0.1,0,0.1
			c-3.6,1.5-7.2,2.5-11,3.3C88.4,123.2,88.2,123,87.9,122.8z M100.5,118.3c0.2,0.2,0.4,0.4,0.7,0.6c-0.2,0.1-0.5,0.2-0.7,0.1
			C100.5,118.7,100.5,118.5,100.5,118.3z M106.1,115.7c0.1,0.1,0.1,0.1,0.2,0.1c-0.2,0.2-0.4,0.4-0.7,0.7c-0.9,1.1-1.8,2.1-2.7,3.2
			c0,0-0.1,0.1-0.1,0.1c0-0.1-0.1-0.1-0.1-0.2c0.2-0.5,0.5-1,0.8-1.5c0.6-1,1.4-1.9,2.3-2.7C106,115.5,106.1,115.6,106.1,115.7z
			 M102.7,119.4C102.7,119.4,102.7,119.4,102.7,119.4C102.7,119.4,102.7,119.4,102.7,119.4C102.7,119.4,102.7,119.4,102.7,119.4z
			 M105.8,115.3c-0.2,0.2-0.6,0.5-0.7,0.6c-0.9,0.9-1.6,1.9-2.2,3.1c0-0.1-0.1-0.1-0.1-0.2c0.4-0.8,0.8-1.6,1.3-2.2
			c0.4-0.5,0.9-1,1.5-1.3C105.7,115.3,105.7,115.3,105.8,115.3C105.8,115.3,105.8,115.3,105.8,115.3z M102.8,118.8
			c-0.1-0.1-0.2-0.2-0.3-0.3c0-0.3,0-0.5,0.1-0.8c0-0.2-0.2-0.3-0.4-0.2c-0.2,0.2-0.4,0.4-0.5,0.6c-0.4-0.2-0.7-0.5-1.1-0.8
			c0.1-0.7,0.2-1.3,0.5-2c0.2-0.6,0.5-1.2,0.9-1.7c0.3-0.3,0.6-0.6,0.9-0.9c0.4-0.3,0.8-0.4,1.2-0.4c0,0.1,0,0.1,0,0.2
			c0.3,1,0.9,1.9,1.5,2.8C104.3,116,103.5,117.4,102.8,118.8z M98.3,87.7c0-0.5-0.1-1.1-0.1-1.6c0.2,0.2,0.5,0.3,0.7,0.4
			C98.7,86.9,98.5,87.3,98.3,87.7z M96.3,81.5c0,0.5,0.1,1.1,0.1,1.7c-0.9-1.3-1.3-3.1-1.8-4.4c-0.4-1.3-0.7-2.6-1.1-3.9
			c-0.1-0.4-0.7-1.8,0-0.3C94.6,76.8,95.1,79.3,96.3,81.5C96.3,81.5,96.3,81.5,96.3,81.5z M78.3,76.5c-0.1-0.1-0.2-0.2-0.3-0.2
			c-0.3-0.2-0.5-0.5-0.8-0.7c0.4-0.5,0.8-1.1,1.2-1.6c0.1,0.1,0.2,0.2,0.3,0.3c0.2,0.2,0.4,0.4,0.7,0.5
			C79.1,75.3,78.7,75.9,78.3,76.5z M77.2,78.2c-0.1-0.1-0.3-0.3-0.4-0.4c-0.2-0.3-0.4-0.5-0.7-0.8c0.3-0.4,0.6-0.8,0.9-1.3
			c0.2,0.2,0.5,0.5,0.7,0.7c0.1,0.1,0.2,0.2,0.3,0.3c-0.3,0.4-0.6,0.9-0.9,1.3C77.2,78.1,77.2,78.2,77.2,78.2z M75.9,80
			c-0.1-0.1-0.3-0.2-0.4-0.3c-0.3-0.2-0.5-0.5-0.8-0.7c0.4-0.6,0.8-1.1,1.2-1.7c0.2,0.2,0.4,0.5,0.6,0.7c0.1,0.2,0.3,0.4,0.4,0.5
			C76.6,79,76.2,79.5,75.9,80z M66.9,77.5c0,0,0.1-0.1,0.1-0.1c0.2-0.1,0.4-0.3,0.6-0.4c0.3,0.3,0.6,0.7,0.9,1
			c-0.2,0.3-0.4,0.5-0.7,0.8C67.6,78.3,67.3,77.9,66.9,77.5z M63.2,72.9c0.2-0.2,0.4-0.4,0.7-0.5c0.1,0,0.1-0.1,0.1-0.2
			c0.4,0.6,0.8,1.2,1.3,1.8c-0.2,0.1-0.3,0.2-0.5,0.3c-0.1,0-0.1,0.1-0.2,0.1C64.1,73.9,63.6,73.4,63.2,72.9z M61.8,71.7
			c0.4-0.3,0.8-0.5,1.3-0.8c0.2,0.4,0.5,0.8,0.7,1.2c0,0-0.1,0-0.1,0c-0.3,0.2-0.6,0.3-0.8,0.6C62.6,72.3,62.2,72,61.8,71.7z
			 M69.9,66.4c-2,0.6-4.1,1.7-5.9,2.6c-2.3,1.2-4.4,2.5-6.5,4c-0.5-2.2-0.9-4.4-1.2-6.6c-0.2-1.6-0.2-3.4-0.5-5
			C59.6,64.7,64.9,66.4,69.9,66.4z M72.3,80c-2.9-3.1-5.5-6.4-8.4-9.5c0.4-0.2,0.7-0.4,1.1-0.6c2-1,4.3-1.6,6.3-2.6
			c2.1,0.9,4.4,1.3,6.4,2.4c0.6,0.3,1.1,0.7,1.7,1.1C77,73.9,74.6,76.9,72.3,80z M64.9,74.6c0.2-0.1,0.3-0.3,0.5-0.4
			c0.7,0.8,1.3,1.7,2,2.5c-0.2,0.1-0.4,0.2-0.6,0.4c-0.1,0-0.1,0.1-0.2,0.1c-0.6-0.8-1.3-1.6-1.9-2.4C64.8,74.7,64.9,74.7,64.9,74.6
			z M68.8,78.2c0.6,0.7,1.3,1.4,1.9,2.1c-0.2,0.2-0.5,0.5-0.7,0.7c0,0,0,0.1,0,0.1c-0.7-0.7-1.3-1.4-1.9-2.1
			C68.4,78.8,68.6,78.5,68.8,78.2z M70.3,81.3c0.2-0.2,0.5-0.5,0.7-0.7c0,0,0,0,0,0c0.3,0.3,0.6,0.6,0.9,0.9c0.3,0.3,0.8,0.3,1,0
			c0.1-0.2,0.2-0.3,0.4-0.5c0.3,0.4,0.7,0.7,1.1,1c-0.3,0.3-0.6,0.4-1.4,0.6C71.4,82.8,71.3,82.4,70.3,81.3
			C70.2,81.3,70.3,81.3,70.3,81.3z M75,81.1c-0.2,0.2-0.3,0.4-0.5,0.6c-0.5-0.2-0.9-0.6-1.2-1c0.4-0.5,0.8-1,1.2-1.6
			c0.2,0.2,0.5,0.5,0.7,0.7c0.1,0.1,0.2,0.3,0.4,0.4C75.4,80.6,75.2,80.9,75,81.1z M79.6,74.5c-0.1-0.2-0.4-0.3-0.6-0.5
			c-0.1-0.1-0.3-0.2-0.4-0.3c0.4-0.5,0.7-1,1.1-1.5c0.1,0.1,0.2,0.1,0.3,0.2c0.2,0.2,0.4,0.4,0.6,0.5C80.2,73.4,79.9,74,79.6,74.5z
			 M80.7,72.6c-0.1-0.2-0.3-0.3-0.5-0.4l-0.3-0.2c0.1-0.1,0.2-0.3,0.3-0.4c0.3,0.2,0.5,0.4,0.8,0.6C80.8,72.3,80.8,72.5,80.7,72.6z
			 M72.6,66.3c0-0.1,0-0.1,0-0.2c4.7-0.6,10.3-2.6,14.3-6c-0.8,4.4-1.8,8.6-3.1,12.9C81.1,70,76.7,66.6,72.6,66.3z M89.8,35.9
			c-0.4-1.3-1-2.6-1.5-3.8c-0.4-1-0.9-2.1-1.8-2.9c-1-0.8-2.9-1-3.4-2.3c1.6-0.3,3.1-0.6,4.6-1c0.8-0.2,1.5-0.3,2.3-0.5
			C89.7,28.9,89.6,32.4,89.8,35.9z M94.8,37.1c0.7,0.8,0.8,2.3,0.8,3.3c0,2.4-1.1,4.8-3.6,5.6c-0.1-1.5-0.3-3-0.5-4.4
			c-0.1-1.2-0.2-2.4-0.3-3.6C92.2,37,93.5,35.7,94.8,37.1z M94.5,31c-1,0.8-2.2,1.5-3.4,2.1c0-2.6,0.1-5.3,0.3-8
			c0.3-0.1,0.5-0.1,0.8-0.2c0.7-0.2,1.7-0.7,2.4-0.6c0.2-0.1,0.5-0.1,0.7-0.2c0.7,1,1.4,1.9,2.2,2.9C97.6,28.4,95.4,30.3,94.5,31z
			 M49.5,13.6c1.3-3.6,3-8.5,6.8-10.2c4.3-1.9,6.8,2.5,10.6,3.6c0.5,0.1,1,0.2,1.5,0.3c-1.4,0.6-2.9,0.9-4.6,1.1c0,0,0,0,0,0
			c2.3,0.2,4.7-0.2,6.8-1.1c2.6-1.1,5.6-4.6,8.6-3.1c2.7,1.4,4.6,5,5.8,7.6c1.3,2.6,2.2,5.3,3.1,8c-0.1,0-0.3,0.1-0.4,0.1
			c-4.4,1.1-8.6,2.7-12.9,3.7c-1.1,0.3-2.2,0.5-3.3,0.6c-7.1,0.3-14.2-0.4-21.2,0.6c-0.9,0.1-2,0.3-3.1,0.5
			C47.4,21.3,48.1,17.3,49.5,13.6z M40.9,31.9c0-2.5,1.1-3.6,3.5-4.4c0.7-0.2,1.3-0.4,2-0.6c0.3,0.2,0.7,0.1,0.8-0.2
			c2.6-0.6,5.4-0.9,8.1-1.1c3.2-0.2,6.5-0.2,9.8-0.4c5.3,0.3,10.6-0.1,15.7-1.6c3.4-1,6.7-2.1,10.2-2.7c2-0.3,4.3-0.7,5.8,0.9
			c0.5,0.5,0.8,1,1.1,1.6c-0.4-0.3-1-0.5-1.7-0.5c-1.7,0-3.6,0.8-5.2,1.2c-0.1,0-0.3,0-0.4,0.1c-2.5,0.6-5.1,1.2-7.7,1.6
			c-4.8,0.8-9.6,1.3-14.4,1.6c-4.8,0.3-9.7,0.4-14.5,0.9c-3.7,0.3-8.4,0.5-11.7,2.5C41.6,31.2,41.2,31.5,40.9,31.9z M54,32.4
			c-0.7,1.4-2.3,2.7-3.1,4.1c-0.3,0.5-0.6,1.1-0.8,1.6c-0.4-2.6-0.8-5.2-1.2-7.7c0.6-0.1,1.2-0.1,1.7-0.2c1.2-0.2,2.4-0.3,3.6-0.4
			C54.1,30.7,54.4,31.6,54,32.4z M49,39.4c0,0-0.1-0.1-0.1-0.1C48.9,39.4,48.9,39.4,49,39.4C49,39.4,49,39.4,49,39.4z M42.1,32.7
			c1.3-1.4,3.6-1.9,5.8-2.2c0.3,2.7,0.6,5.4,0.9,8C45.7,38,39.1,35.9,42.1,32.7z M49.6,49.8c-2.4,0-3.2-2-3.7-3.9
			c-0.3-1.2-0.5-2.5-0.4-3.7c0.2-2.1,2.1-2.4,3.7-1.5c0.2,1.7,0.5,3.3,0.7,5c0.2,1.3,0.3,2.7,0.5,4C50.1,49.7,49.8,49.8,49.6,49.8z
			 M52.7,54.2c-0.4-1.2-0.7-2.5-0.9-3.8c0-0.1,0.1-0.2,0.1-0.3c0-0.1,0-0.2,0-0.3c0-0.2-0.1-0.3-0.3-0.4c-0.4-2.4-0.6-4.8-0.9-7.1
			c-0.2-1.1-0.3-2.2-0.5-3.3c0-0.1,0-0.1,0-0.2c0.7-2,2.1-3.7,3.6-5.4c1.3-1.5,1.2-2,0.8-3.8c4.9-0.4,9.9-0.5,14.9-0.9
			c4.4-0.4,8.7-1,13-1.8c0,0.4,0.1,0.6,0.4,1.1c0.4,0.5,0.7,0.5,1.2,0.8c1.2,0.7,2.1,1.1,2.8,2.5c1.4,2.6,2.1,5.4,3,8.2
			c0.3,3.2,0.8,6.3,0.8,9.5c-0.3,9.1-9.7,14.4-17.8,15.6C65,66,55.4,62.5,52.7,54.2z M55,60.5C55,60.5,55,60.5,55,60.5
			c-0.3,1.8,0,3.8,0.2,5.6c0.3,2.7,0.7,5.4,1.4,8.1c0.1,0.5,0.6,0.7,1,0.4c1.3-1,2.6-1.9,4-2.7c0.4,0.4,0.7,0.7,1,1.1
			c-0.2,0.2-0.3,0.4-0.4,0.6c0,0.1,0.1,0.2,0.2,0.2c0.2-0.1,0.3-0.3,0.4-0.4c0.4,0.5,0.9,1,1.3,1.5C64.1,74.9,64,74.9,64,75
			c0,0.1,0.1,0.2,0.2,0.2c0.1,0,0.1-0.1,0.2-0.1c0.6,0.8,1.3,1.5,1.9,2.3c-0.1,0.1-0.2,0.2-0.3,0.3c-0.1,0.1,0,0.2,0.1,0.2
			c0.1,0,0.3-0.1,0.4-0.2c0.2,0.2,0.3,0.4,0.5,0.6c0.2,0.3,0.4,0.6,0.7,0.9c0,0,0,0.1,0.1,0.1c1.3,1.7,3.1,4.1,4.7,4.5
			c1,0.2,1.8-0.7,2.5-1.6c0,0,0,0,0-0.1c0.4-0.5,0.7-1,0.9-1.4c0,0,0-0.1,0.1-0.1c0,0,0.1,0,0.2,0.1c0.1,0,0.1,0,0.1-0.1
			c0-0.1-0.1-0.1-0.1-0.2c0.4-0.5,0.7-1,1-1.4c0,0,0,0,0.1,0.1c0.1,0.1,0.3-0.1,0.2-0.2c0-0.1-0.1-0.1-0.1-0.2c0.3-0.5,0.7-1,1-1.5
			c0.1,0,0.1,0.1,0.2,0.1c0.1,0,0.1-0.1,0.1-0.1c0-0.1-0.1-0.2-0.1-0.2c0.9-1.4,1.8-2.9,2.6-4.4c0.8,0.8,1.6,1.6,2.2,2.5
			c0.3,0.4,1,0.3,1.2-0.2c1.7-5,3-10.2,3.5-15.4c2.1,1.4,5.1,2.5,6.7,4.4c1.6,2,0.8,6.5,0.9,9c0.1,2,0.2,4,0.3,6.1
			c-1.3-4.1-2.2-8.3-2.5-12.6c0-0.1-0.1,0-0.1,0c0.2,4.6,1.1,9.2,2.6,13.6c0,0.1,0.1,0.2,0.1,0.3c0,0,0,0,0,0.1
			c-0.3-0.5-0.5-1-0.7-1.5c-0.7-2-1.3-3.9-2.3-5.7c-0.1-0.2-0.4-0.1-0.4,0.1c0.5,2.4,1.1,4.8,1.9,7c0.5,1.3,0.9,2.7,1.8,3.8
			c0.1,1.9,0.3,3.9,0.9,5.7c-1.9,4-3.3,8.1-3.9,12.5c-0.6,4.6-0.1,9.5,2.2,13.6c0.6,1.1,1.7,2.7,2.9,3.6c-6.6,1.9-13.4,3.2-20.2,4.1
			c-1,0.1-2.1,0.3-3.2,0.4c0,0,0,0,0,0c0-0.1-0.2-0.1-0.1,0c0,0,0,0,0,0c-2.4,0.3-4.8,0.5-7.2,0.6c-3.3,0.2-6.8,0-10.1,0.3
			c-1.4-2-2.7-4-3.8-6.2c-1-1.9-1.8-3.8-2.6-5.8c-0.5-1.2-0.8-2.6-1.3-3.9c0.1-0.1,0.1-0.2,0.1-0.3c0.6-5.5,1.8-10.7,3.1-16.1
			c0.1-0.4,0.2-0.9,0.3-1.3c1.9-0.6,3.8-1.2,5.6-2c0.2-0.1,0.1-0.4-0.1-0.3c-1.3,0.5-2.7,0.9-3.9,1.4c-2.4,1-0.8,0.4,0.4-0.5
			c1.8-1.3,3.3-2.7,4.2-4.8c0.1-0.2-0.2-0.4-0.3-0.2c-1.2,1.1-2.4,2.2-3.7,3.1c2.2-3.1,4.2-7.3,2.9-10.6c0-0.1-0.2,0-0.2,0.1
			c0.8,3.5-1.6,7.5-3.9,10.4c0.8-3.2,1.4-6.5,1.2-9.8c-0.2-3.6-1.6-7.5-4.7-9.7c-1.8-1.3-4.2-2-6.4-1.5C47.6,64.1,51.3,61.9,55,60.5
			z M46.3,105.1c-0.7-0.7-1.3-1.3-1.5-1.4c-1.4-1-2.9-1.8-4.4-2.5c0.4,0,0.7,0.1,1.1,0.1c1.6,0.2,3.1,0.6,4.4,1.4
			c0.8,1.4,1.7,2.7,2.7,4c0.1,0.1,0.2,0.1,0.3,0.1c0,0.1,0,0.2,0,0.3C48.3,106.5,47.4,105.8,46.3,105.1z M46.7,106.1
			c-1.2-0.3-2.6-0.2-3.9-0.4c-1-0.1-3.7-0.4-4.4-1.3c-2.2-2.7,1.9-1.6,2.8-1.4C43,103.7,45.1,104.7,46.7,106.1z M48.9,105.7
			c-0.5-1.5-1.4-2.6-2.6-3.4c0,0,0-0.1,0-0.1c-0.5-0.9-1-1.9-1.4-2.9c-0.5-1-1.5-2.1,0-1.3c1.7,0.9,3.2,3.2,4.3,5.1
			C49,104.1,48.9,104.9,48.9,105.7z M48.5,105.7c0-0.1-0.5-0.9-1.1-1.7C48,104.6,48.7,105.3,48.5,105.7z M53.8,90.1
			c0.9-0.6,1.8-1.3,2.7-2c0.7-0.6,1.5-1.7,2.3-2.2c-0.9,0.6-1.8,2.1-2.6,2.8c-0.8,0.6-1.6,1.2-2.4,1.7
			C53.8,90.3,53.8,90.2,53.8,90.1z M37.1,114.9c-1.8-7.1-2.7-14.6-2.6-22c0.1-7.1,1.1-14.5,5-20.6c1.1-1.7,2.5-3.3,4.1-4.8
			c4.1-0.6,7.6,1.2,9.5,5.1c1.8,4,1.3,8.5,0.4,12.6c-0.9,4-1.9,8-2.8,12c-0.4,1.7-0.9,3.5-1.3,5.3c-1.5-2.3-3.3-4.3-5.6-5.9
			c-0.2-0.1-0.4,0.1-0.4,0.3c0.6,1.7,1.3,3.3,2.2,4.8c-2-1-4.5-1.3-6.7-1.4c-0.3,0-0.4,0.4-0.1,0.5c1.9,0.7,3.7,1.7,5.4,2.9
			c-3.1-1.5-6.6-2.4-7.6-0.2c0,0,0,0.1,0,0.1c1.7,0.9,3.4,1.7,5.2,2c1.2,0.2,2.4,0.2,3.5,0.4c0.6,0,1.2,0.2,1.8,0.4
			c0.4,0.4,0.7,0.8,1,1.2c1.1,1.8,1.6,4,2.4,5.9c0.8,2,1.7,3.9,2.7,5.7c1,1.8,2,3.6,3.2,5.4c-2,2.4-4.3,4.7-6.1,7.2
			c-0.1,0-0.2,0-0.3,0C41.4,132,38.8,121.6,37.1,114.9z M38.9,193.1c0.2,0.5,1,0.4,1.1-0.2l0.2-0.7c2.9,0.3,5.8,0.8,8.7,1.4
			c2.2,0.5,4.2,1.6,6.2,2.6c-6.2,0-12.4-0.3-18.7-0.4c0.3-0.4,0.6-0.8,1-1.2C37.8,194.1,38.3,193.6,38.9,193.1z M35.3,197.8
			c0.2-0.6,0.5-1.1,0.8-1.6c6.5,0.7,13.1,0.7,19.7,0.5c0.3,0.1,0.6,0.3,1,0.4c0,0.3,0.1,0.6,0.1,0.8C49.7,197.9,42.5,198,35.3,197.8
			z M56.7,170.7c-0.5,4.8-0.6,9.6-0.5,14.4c0.1,3.4,0,7.2,0.4,10.7c-4.7-3-10.9-3.9-16.4-3.9l0.1-0.4c0-0.1,0-0.1,0-0.2
			c0.8-4.9,1.1-9.9,1.6-14.8c0.4-3.7,0.7-7.4,1-11.1c2.5,0.8,4.9,1.5,7.4,2.3c-2.2-0.1-4.7-0.3-6.2,0.9c-0.1,0.1-0.1,0.3,0,0.4
			c2.1,2.3,6.4,2,9.1,1.3c0.2-0.1,0.2-0.3,0-0.3c-2.2,0.1-4.7,0.6-6.9-0.1c-1.3-0.2-1.4-0.7-0.2-1.5c0.8,0,1.6,0,2.4,0
			c1.2,0,2.4,0,3.6,0c0.3,0,0.4-0.4,0.1-0.5c-1.7-0.5-3.4-1.1-5.1-1.6c-0.8-0.3-1.7-0.6-2.6-0.8c-1.8-0.3-0.5-0.1,0.3-0.1
			c3.2-0.1,6.3-0.5,9.4-1.3c0.2-0.1,0.2-0.4-0.1-0.4c-1.6,0.2-9.2,1.2-9.5-1.4c0-0.2-0.2-0.1-0.2,0c0.2,2.3,4.8,2.1,6.5,2.1
			c-0.2,0-0.3,0.1-0.4,0.1c-2.5,0.4-5,0.5-7.5,0.5c0.1-1.3,0.2-2.6,0.3-3.9c0.3-5.2,0.5-10.3,0.6-15.5c0-2.6-0.1-5.3-0.1-7.9
			c0-2,0.4-4.1,0.4-6.1c1.6,1.2,3.6,1.9,5.9,1.9c0.7,1.3,1.8,2.3,2.7,3.4c0.2,0.2,0.5,0.3,0.8,0.3c0.5,2.8,2.7,5.6,5.3,6.9
			c0.2,0.9,0.9,1.5,1.4,2.3c0.7,1,1.3,2.1,1.9,3.2c0.2,0.3,0.6,0.5,0.9,0.3c0.2-0.1,0.5-0.3,0.8-0.4
			C59.3,155.3,57.5,163.6,56.7,170.7z M62.8,144.6c0,0.1,0.1,0.2,0.1,0.3c0.3,0.4,0.5,0.7,0.8,1.1c0.1,0.1,0.7,0.9,0.7,1
			c0,0.2-0.9,0.8-1.6,1.2c-0.5-0.8-1-1.6-1.5-2.4c-0.3-0.4-0.6-0.8-0.9-1.2C61.2,144.7,62,144.7,62.8,144.6z M65.2,145.3
			c-0.3-0.4-0.6-0.8-0.9-1.1c0.1-0.1,0.3-0.1,0.4-0.2c0.8-0.5,1.5-1.6,2.4-2.1c0.1,0.3,0.2,0.6,0.3,0.8
			C66.8,142.9,65.8,144.3,65.2,145.3z M79.3,170.6c1.4,4.7,2.7,9.4,4.1,14.1c0.7,2.4,1.4,4.7,2,7.1c0.3,1.2,1.2,2.8,1.2,4
			c0.5,1,0,1.8-1.3,2.3c-0.3-0.5-0.6-1-0.7-1.6c-1.7-4.8-2.8-9.8-4.2-14.7c-1.3-4.7-2.7-9.3-4-14s-2.7-9.3-4-14
			c-1.2-4.1-2.1-8.6-4.2-12.4c0.1,0,0.2,0,0.2,0c0.7,0,1.5,0.4,2.2,0.7c2.5,4.1,3.3,9.8,4.7,14.3C76.6,161.2,77.9,165.9,79.3,170.6z
			 M71.3,140.8c-0.2-0.1-0.4-0.1-0.7-0.2c-0.6,0-1.2-0.5-1.8-0.6c-3.2-0.6-4,3.1-7.1,3.1c-3.8,0-5-3.2-6.8-5.7
			c0.8-1.1,1.5-2.1,2.4-3.1c1.1-1.2,2.4-2.2,3.4-3.4c0,0,0-0.1-0.1-0.1c-1.3,0.7-2.3,1.9-3.3,3c-1,1.1-1.9,2.2-2.6,3.4
			c-0.2-0.3-0.4-0.5-0.6-0.7c2.1-2.1,4.3-4.3,6.1-6.6c2.1,2.3,4.6,4.5,7.1,6.2c1.2,0.8,2.6,1.4,3.8,2.3
			C72.7,138.9,72.7,139.7,71.3,140.8z M86.3,158.2c-1.7-5.9-4-11.7-7-17.2c-0.8-1.4-1.7-3.5-3.4-4.1c-1.1-0.4-2.2-0.1-2.9,0.8
			c0,0-0.1-0.1-0.1-0.1c-1.6-1.4-3.8-2.2-5.6-3.4c-2.3-1.6-4.3-3.6-6.6-5.2c-0.1-0.2-0.2-0.3-0.3-0.4c-0.6-0.9-1.2-1.8-1.8-2.6
			c4.2,0.7,8.6,0.5,13,0.1c0.4,3.5,0.8,7,1.4,10.4c0,0.2,0.3,0.1,0.2,0c-0.5-3.5-1.1-6.9-1.6-10.4c1.2-0.1,2.4-0.3,3.5-0.4
			c0.4,3.5,1.2,10.8,0.8,10.7c-0.1,0-0.1,0.1-0.1,0.2c0.3,0.3,0.3,0.3,0.7,0.2c0.1,0,0.2-0.1,0.2-0.2c-0.3-3.7-0.8-7.3-1.4-10.9
			c1.3-0.2,2.5-0.3,3.8-0.4c3.2-0.4,6.3-0.8,9.5-1.5c1.9,1.5,4.7,3.1,7.2,3.2c-0.8,0.2-1.5,0.5-2.5,0.5c-1.2,0-2.3-0.2-3.4-0.6
			c-0.7-0.3-3.2-1.2-3.1-2.3c0-0.1-0.2-0.2-0.2-0.1c-0.1,0.1-0.1,0.2-0.2,0.3c-0.1,0.1,0,0.2,0,0.3c1,1.5,3.1,2.3,4.7,2.7
			c2.6,0.6,4.6-0.5,7.2-0.7c0.2,0,0.1-0.3,0-0.3c-3.5,0.1-6.7-0.9-9.5-2.9c3.7-0.8,7.3-1.8,10.8-3.2c0,5.4,0.6,10.9,0.9,16.3
			c0.4,5.9,0.8,11.9,1.2,17.8c0.4,5.8,0.8,11.5,1.2,17.3c0.2,3,0.4,5.9,0.6,8.9c0.2,3,0.1,6.3,0.8,9.2c-1.8-0.6-3.9-0.7-5.6-0.5
			c-2.1,0.3-5.6,1.1-7.5,2.9c0-4.9-0.7-9.9-1.2-14.6C89.4,171.1,88.1,164.5,86.3,158.2z M96.1,197.9c-1.1,0-2.3,0.1-3.4-0.2
			c-0.8,0-1.5-0.2-2.1-0.8c0-0.1,0-0.1,0-0.2c0.3,0,0.5-0.2,0.6-0.5c0-0.2,0-0.3,0-0.5c3.7,1.2,7.9,1.8,11.8,1.4c0,0.3,0,0.5,0,0.8
			C100.7,198,98.4,198,96.1,197.9z M103.6,195.2c-0.3,0.1-0.5,0.4-0.5,0.7c0,0.3,0,0.6-0.1,0.9c-4-0.2-7.8-0.5-11.8-1.3
			c0.1-0.7,0.1-1.5,0.1-2.3c2.1-1.5,4.8-2.2,7.3-2.5c3.6-0.4,6,1,8.9,2.6C106.2,194,104.8,194.6,103.6,195.2z M119.5,195.6
			c-0.8,1.4-1.6,1.7-3.1,1.8c-2.2,0.3-4.5,0.1-6.7,0.3c-1.3,0.1-7,0.9-4.2-1.4c1.4-1.2,3.6-1.7,5.1-2.7c0,0,0,0,0,0
			c0.7,0.2,1.4,0.4,2.1,0.7c0.6,0.2,1.4,0.8,2.1,0.7c0.4,0,0.8-0.3,1.2-0.6c1.1-0.7,2.2-1.4,3.3-2.1
			C120.3,193.3,120.4,194.2,119.5,195.6z M121.1,195.6c0.3-1,0.5-1.9,0.5-2.7c0-0.8-0.2-1.4-0.8-2c-0.5-0.5-1.4-0.7-1.8-1.4
			c-0.4-0.5-0.5-1.4-0.8-2c0,0,0.1,0,0.1,0c0.2,0,0.3-0.1,0.4-0.2c0.3,0.6,1.4,0.5,1.6-0.3c1.5-8,2.7-16.1,3.5-24.2
			c0.7-7.3,1.8-15.1,0.9-22.5c0.2,0,0.3,0,0.5,0c2,7.3,2.1,15.3,2.8,22.8c0.7,8.2,1.2,16.4,1.6,24.6c0,0.3,0.3,0.6,0.6,0.6
			c0.1,0,0.2,0,0.3,0C131.2,191.9,123.2,193,121.1,195.6z M130.6,185.5c1.8,0.3,3.6,0.8,5.4,0.9c-1.7,0.5-3.5,0.6-5.2,0
			C130.7,186.1,130.6,185.8,130.6,185.5z M138.3,186.4c-0.7,0.1-1.3,0.2-2,0.3c0.6-0.2,1.1-0.4,1.6-0.6c0.3-0.1,0.1-0.5-0.1-0.5
			c-1.8,0.3-3.4,0-5.1-0.3c1.9-0.1,3.8-0.3,5.7-0.8c0,0.5-0.1,1.1-0.1,1.6C138.3,186.3,138.3,186.4,138.3,186.4z M131.2,186.9
			c0.4,0.2,0.8,0.3,1.2,0.3C131.9,187.2,131.5,187.2,131.2,186.9C131.2,187,131.2,186.9,131.2,186.9z M137.7,194.1
			c-0.2,0.7-0.8,2-1.2,2.6c-0.9,1.4-1.3,1.1-2.7,1.2c-2.2,0.1-4.4,0.2-6.6,0.3c-0.9,0-2.3,0.3-3.2,0c-1,0.1-1.5-0.7-1.3-2.3
			c0.6-0.3,1.2-0.7,1.7-1c1-0.6,2-1.1,3-1.6c1.7,0.8,4.4,2.1,6.3,1.7c1.3-0.3,2.9-1.5,3.6-2.8C137.8,192.6,138,193.1,137.7,194.1z
			 M135.3,190.6c0.5,0.6,1.1,0.9,1.6,1.2c-1,1.1-2,2.3-3.6,2.5c-1.7,0.2-3.7-0.6-5.4-1.3c0.6-0.3,1.2-0.7,1.7-1
			c1.3-0.9,2.3-2.2,1.7-3.6c1.2,0.1,2.3,0,3.5,0C134.5,189.2,134.6,189.8,135.3,190.6z M139.7,140c0,0.1,0,0.2,0,0.3c0,0,0,0,0,0
			c0,0,0,0,0,0c0,0.4-0.1,0.8-0.1,1.3c0,1,0,2.1,0,3.1c0,1.9,0,3.8,0,5.7c0,4-0.1,8-0.2,11.9c-0.2,7.2-0.5,14.4-1,21.6
			c-1.8-0.3-3.6-0.5-5.4-0.7c0.1,0,0.2-0.1,0.3-0.1c0.1,0,0-0.2-0.1-0.2c-0.3,0.1-0.9,0.1-1.3,0.2c-0.4,0-0.7-0.1-1.1-0.1
			c-0.1,0-0.2,0.2-0.1,0.3c0.5,0.1,1,0.2,1.4,0.1c0,0,0,0,0,0c0.7,0.1,1.4,0.1,2.1,0.2c0.7,0.1,1.4,0.2,2.1,0.3
			c0.2,0,1.5,0.1,1.9,0.3c0,0,0,0.1,0,0.1c-0.7,0.2-3,0.6-3.3,0.7c-1.6,0.2-3.1,0.2-4.7,0.1c-0.2-1.6,0-3.6,0-4.6
			c-0.3-5-0.6-9.9-1.1-14.9c-0.4-4.8-0.9-9.5-1.4-14.3c-0.2-2-0.4-4.3-0.8-6.5c1.4,0.3,2.8,0.7,4.1,1c0.9,0.2,1.8,0.4,2.7,0.6
			c0.7,0.2,3.6,0.7,0.3,0.6c-0.1,0-0.2,0.2,0,0.2c1,0.2,1.6,0.1,2.5-0.3c0.2-0.1,0.1-0.3-0.1-0.3c-1.5-0.3-3-0.6-4.4-0.9
			c-0.9-0.2-2.8-0.4-3.5-0.8c-0.7-0.4-1.3-0.3-0.1-0.7c1.3-0.5,3.4-0.2,4.8-0.3c1.8-0.1,3.5-0.2,5.3-0.4c0.2,0,0.2-0.3,0-0.3
			c-3.8-0.5-7.5-1.4-11.2-2.6c0.5,0,0.9,0,1.4,0c2,0.2,4.1,0.3,6.2,0.3c1.5,0,3-0.2,4.5-0.3c-1.9,0.1-3.9,0.1-5.5,0
			c-0.8,0-1.5,0-2.3-0.1c1.2,0,2.4-0.1,3.6-0.2c1.3-0.1,2.7-0.1,4.2-0.2C139.7,139.9,139.7,140,139.7,140z M146.1,124.5
			c0,2.4,0.1,4.8,0,7.1c0,1.9-0.3,3.8-0.1,5.7c-2.6,0.1-5.3,0.9-7.8,1.1c-3.9,0.4-7.8,0.5-11.7,0.5c-3.7,0-7.3-0.1-10.9-0.3
			c-1.7-0.1-3.5-0.1-5.2-0.2c-1.6,0-4.4,0.4-6-0.5c0.1-0.8,0.1-1.6,0-2.4c11.9,0.8,24,0.3,35.9-0.7c0.2,0,0.2-0.3,0-0.3
			c-4.3-0.5-8.7-1-13-1.3c2.5,0,5.1,0,7.6-0.1c0.1,0,0.1-0.1,0-0.1c-3.5-0.1-6.9-0.1-10.4-0.1c-3,0-6.6-0.5-9.7-0.2
			c-0.9,0-1.9,0-2.8,0.1c-0.2,0-0.2,0.4,0,0.4c3.5,0,6.9,0,10.4,0c0,0,0,0,0.1,0c3.5,0.2,7,0.5,10.5,0.8c1.7,0.2,3.5,0.4,5.2,0.6
			c2.8,0.2-1.4,0.2-2,0.3c-3.3,0.2-6.5,0.4-9.8,0.6c-7.3,0.3-14.6,0.2-21.9,0.1c-0.2-1.9-0.6-3.8-0.8-5.5c-0.3-2.7-0.4-5.5-0.8-8.2
			c1.1,0.9,2.6,1.7,3.6,2.2c1.8,0.9,4.6,3.1,6.8,2.7c1-0.1,1.5-0.7,1.5-1.5c0,0,0.1,0,0.1,0c0.5,0.1,0.9-0.1,1.3-0.4
			c0.1-0.2,0.2-0.3,0.3-0.5c0-0.1,0-0.4,0-0.5c0.4,0,0.8-0.1,1.2-0.4c0.2-0.2,0.4-0.4,0.5-0.7c0.4,0.6,1.1,1,1.8,0.3
			c0.9-0.9,0.3-2.7-0.2-3.6c-2.1-3.8-8.7-4.1-12.7-4.2c0,0,0,0,0,0c-0.5-0.6-1-1.3-1.5-2c-0.1-0.1-0.2-0.3-0.3-0.5
			c0.1-0.1,0.1-0.1,0.2-0.2c0,0,0.1-0.1,0.1-0.1c0.2-0.1,0.3-0.3,0.2-0.6c-3-7-3-15.6-2-23.1c0.4-0.8,1.1-2.8,1.2-3
			c0.3-0.8,0.7-1.6,1-2.4c0.7-1.9,1.3-3.9,1.9-5.8c0-0.1-0.1-0.1-0.1,0c-0.6,2.2-1.4,4.5-2.3,6.6c-0.4,0.9-0.9,1.9-1.4,2.9
			c0.6-3.6,1.5-7.1,2.7-10.5c1.2-3.3,3.1-6.3,4.3-9.5c0.6,1.7,1.7,3.3,2.8,4.5c0.7,0.8,1.6,1.8,2.7,2.6c-1.4,0.8-2.4,2.4-3.1,3.8
			c-0.4,0.8-2.4,4-1.4,4.8c0.9,0.8,3.4-1,4.2-1.4c1.6-1,3.6-2.6,4.4-4.4c0.3,0,0.6-0.1,0.9-0.2c0.1,1.2,1.4,2.5,2.2,3.3
			c1.3,1.2,2.8,1.9,4.5,2.2c0.3,0.1,0.6-0.3,0.6-0.6c-0.5-2-1.3-4-2.4-5.7c-0.4-0.7-1-1.4-1.8-1.7c2.5-1.6,4.4-4.1,6-6.4
			c0.5-0.8,1.6-2,2.2-3.1c0.5,2.5,2.2,5.1,3.1,7.5c1.2,3.2,2.3,6.5,3.1,9.9c0.7,2.5,1.2,5,1.7,7.5c-0.5-1-1-2.1-1.6-3.1
			c-0.4-1.1-0.7-2.2-1.1-3.3c-1.2-3.6-2.2-7.3-3.2-11c0,0-0.1,0-0.1,0c0.7,3.3,1.5,6.5,2.5,9.7c0.3,0.9,0.6,1.9,0.8,2.8
			c-1.1-2-2.3-4-3.6-5.9c-0.1-0.1-0.2,0-0.2,0.1c1.1,2.5,2.3,5,3.6,7.3c0.8,1.5,1.7,3.6,3,4.8c0.1,0.7,0.3,1.4,0.4,2.1
			c0,0.2-0.1,0.4-0.1,0.5c0,0.1,0.1,0.2,0.2,0.1c0,0,0-0.1,0-0.1c0.3,1.6,0.6,3.2,0.8,4.8c0,0,0,0.1,0,0.1c0.1,0.5,0.2,1.1,0.3,1.6
			c-1.3,0.1-2.6,0.2-3.8,0.2c-2.7,0.1-5.4,0-8.1,0.1c-0.1,0-0.2,0-0.3,0.1c-0.1-0.1-0.2-0.1-0.3-0.1c-0.3,0-0.5,0.3-0.6,0.6
			c-0.1,0.2-0.2,0.3-0.2,0.5c-0.3-0.1-0.5-0.2-0.8-0.4c-0.5-0.3-0.9-1.1-1.4-1.5c-0.7-0.7-1.5-1.4-2.4-2c-1.9-1.3-3.9-2.2-6.1-2.8
			c-2-0.6-6.4-0.1-4.3,3c0.1,0.1,0.1,0.1,0.2,0.2c-0.1,0.1-0.1,0.3-0.1,0.4c0,0.5,0.3,0.8,0.6,1.1c-0.4,0.6-0.3,1.6,0.1,2.2
			c-0.3,0.3-0.5,0.7-0.5,1.3c0.1,1.8,2.5,2.6,3.8,3.3c3,1.5,6.4,3.9,9,2.5c0.3,0.2,0.6,0.3,0.9,0.4c0.3,0.1,0.5,0.1,0.8,0.2
			c0,0.3,0.2,0.6,0.3,0.8c0.2,0.4,0.3,0.8,0.6,1.2c0.2,0.3,0.6,0.2,0.7,0c4.2,0.3,8.4,0.1,12.6-0.7c0.6-0.1,1.3-0.2,2.1-0.4
			C145.6,114.8,146,119.6,146.1,124.5z M139.1,87.1c-0.5-0.8-1-1.5-1.1-1.7c-0.8-1.4-1.5-2.8-2.2-4.3c-0.2-0.3-1.6-3-0.3-0.9
			c0.3,0.6,0.7,1.1,1,1.7c0.8,1.3,1.5,2.6,2.2,4C138.8,86.4,138.9,86.8,139.1,87.1z M143.5,99.6c-0.1-0.5-0.2-1.1-0.3-1.6
			c0.9-0.5,1.9-0.6,3-0.1c0.1,0.1,0.1,0.1,0.2,0.2C145.4,98.1,144.4,98.9,143.5,99.6z M142.1,91.4c0.2-0.6,0.4-1.2,0.5-1.8
			c0.3-1.1,1.1-2.9,1-4c0.2,2-0.6,4.8-1.3,7C142.3,92.1,142.2,91.8,142.1,91.4z M130.4,107.7c0,0-0.1,0-0.1,0
			c-0.6,0.1-1.1,0.1-1.7,0c0,0,0,0,0,0c0-0.1,0-0.1,0-0.2c0.3-0.4,0.6-0.8,0.9-1.4c0.1,0.4,0.2,0.8,0.3,1.2c0,0.1,0.2,0.1,0.2,0
			c-0.3-1.3-0.6-2.7-1.1-4c0-0.1-0.1-0.2-0.1-0.2c0-0.1,0-0.2-0.1-0.3c0.6,0.1,1.3,0,2.3-0.4C131.6,104.1,130.9,105.9,130.4,107.7z
			 M130,109.4c0-0.1-0.1-0.2-0.1-0.3c0,0,0,0,0,0c0.1,0,0.1,0,0.2,0C130,109.2,130,109.3,130,109.4z M116.1,102
			c0.3,0,0.5-0.3,0.4-0.6c-0.1-0.5-0.5-0.7-0.5-1.2c0-0.3,0-0.5,0.1-0.7c0.3-0.2,0.4-0.7-0.1-0.9c-0.2-0.1-0.6-0.2-0.6-0.5
			c0-0.1,0.1-0.2,0.1-0.3c0,0,0.1-0.1,0.1-0.2c0.1-0.1,0.1-0.1,0.1-0.2c0-0.1,0-0.3-0.1-0.4c0.4-1.5,1.2-1.9,2.5-1.1
			c0.3,0.1,0.5,0.2,0.8,0.3c1,0.3,1.9,0.8,2.7,1.3c1.6,0.9,3.1,2,4.4,3.3c1.1,1.1,1.7,1.8,2.5,2c0,0.2,0.1,0.3,0.1,0.5
			c0,0.1,0,0.2,0,0.4c0,0.4,0,0.7,0,1.1c-0.1,0.6-0.1,1.2-0.2,1.8c0-0.5-0.2-0.9-0.3-1.4c-0.3-1.2-0.7-2.3-1.3-3.3c0,0-0.1,0,0,0
			c0.8,1.6,1.3,3.2,1.4,4.9c-1.1,0.6-2.2,1.1-3.6,0.9c-0.9-0.1-2-0.9-2.8-1.3C120.8,105.7,115.8,103.9,116.1,102z M128.7,106.5
			c0.1-0.8,0.2-1.7,0.2-2.5c0.2,0.7,0.4,1.4,0.5,2.1c0,0-0.1,0-0.1,0C129.1,106.2,128.9,106.4,128.7,106.5z M130.2,100.9
			C130.2,100.9,130.2,101,130.2,100.9c0.2,0.2,0.3,0.4,0.5,0.6c-0.3,0-0.5-0.1-0.8-0.2c0.1-0.1,0.2-0.2,0.2-0.3
			C130.1,101,130.2,101,130.2,100.9z M150.4,103.4c-0.2,1.3-0.3,1.9-1.1,3c-1,1.3-1.9,1.5-3.4,2c-1.5,0.4-3.1,0.8-4.7,1
			c-3.4,0.5-6.8,0.6-10.2,1c1.1-1.4,1.5-3.9,1.6-5.6c0.1-1.4-0.1-2.7-1-3.6c2.6,0.4,5.2,0.3,7.8,0.2c3.6-0.2,7.3-0.9,10.5,1.2
			c0.2,0.1,0.5-0.1,0.3-0.3c-1-1.3-2.2-2.3-3.8-2.6c-0.4-0.1-1.8,0.1-2.3,0.1c0.7-1.3,3.5-1.2,4.4-0.7c0.3,0.1,0.5-0.2,0.3-0.4
			c-1.3-0.8-2.6-1.6-4.2-1.5c-0.4,0-0.7,0.2-1,0.3c1-0.4,2.1-1.3,3.1-1.7c0.2-0.1,0.1-0.3-0.1-0.3c-1.4,0.3-2.5,0.9-3.4,1.8
			c-0.2-1.4-0.5-2.8-0.7-4.2c1-2.6,1.4-5.4,1.4-8.2c0-0.2-0.2-0.2-0.2,0c-0.4,1.7-0.8,3.3-1.3,5c-0.1,0.3-0.2,0.7-0.3,1
			c0,0,0,0,0-0.1c0.3-2,0.2-4.3,0-6.2c0,0,0,0,0,0c0.1,1.9,0.1,3.7-0.1,5.6c-0.6-3.1-1.3-6.3-2.2-9.3c-0.8-2.8-1.6-5.6-2.6-8.3
			c-0.4-1.2-0.9-2.6-1.4-3.9c1.1,0.7,2.3,1.4,3.3,2.2c1.5,1.2,2.6,2.7,3.9,4.1c-1.5,0.6-4,2.3-2.7,3.9c0.1,0.1,0.1,0.2,0.2,0.3
			c0.2,0.2,0.4,0.4,0.7,0.4c-0.3,0.8-0.1,1.7,0.6,2.3c0.4,0.3,0.8,0.4,1.3,0.4c-0.2,0.5-0.3,1,0,1.4c0.3,0.5,0.8,0.9,1.4,1
			c0.6,0.1,1.2-0.2,1.7-0.5c0.5,0.8,1.9,0.7,3,0.3C150.5,90.5,151.3,96.9,150.4,103.4z M145.1,99.9c1.2-0.1,2.4,0.2,3.4,1
			c0.1,0.1,0.1,0.1,0.2,0.2C147.6,100.4,146.4,100,145.1,99.9z"/>
		<path class="st25" d="M121.4,163.8c-3.1,0-5.8-0.1-8.7-1.3c0,0-0.1,0,0,0.1c2.7,1.2,5.8,1.9,8.7,1.4
			C121.4,163.9,121.4,163.8,121.4,163.8z"/>
		<path class="st25" d="M134.8,163.3c-0.8,0.1-1.6,0.5-2.3,0.7c-0.8,0.2-1.6,0.3-2.4,0.4c-0.1,0-0.1,0.1,0,0.1
			c1.5-0.2,3.4-0.4,4.8-1.1C134.9,163.4,134.9,163.3,134.8,163.3z"/>
	</g>
</g>
</svg>
