<?xml version="1.0" encoding="utf-8"?>
<!-- Generator: Adobe Illustrator 23.1.0, SVG Export Plug-In . SVG Version: 6.00 Build 0)  -->
<svg version="1.1" id="Capa_1" xmlns="http://www.w3.org/2000/svg" xmlns:xlink="http://www.w3.org/1999/xlink" x="0px" y="0px"
	 viewBox="0 0 180 200" style="enable-background:new 0 0 180 200;" xml:space="preserve">
<style type="text/css">
	.st0{fill:#01D6C0;}
	.st1{fill:#FFFFFF;}
	.st2{fill:#FDA57F;}
	.st3{fill:#F78469;}
	.st4{fill:#F78163;}
	.st5{fill:#4F1A08;}
	.st6{fill:#E4DED0;}
	.st7{fill:#232323;}
	.st8{fill:#F26C47;}
	.st9{fill:#631F1C;}
	.st10{fill:#00827B;}
	.st11{fill:#00837E;}
	.st12{fill:#E9E1D6;}
	.st13{fill:#F8D89B;}
	.st14{fill:#98572D;}
	.st15{fill:#834B26;}
	.st16{fill:#A65F36;}
	.st17{fill:#00A595;}
	.st18{fill:#994133;}
	.st19{fill:#F9E2BB;}
	.st20{fill:#FCF0DE;}
	.st21{fill:#B24FCD;}
	.st22{fill:#8834A3;}
	.st23{fill:#502E2D;}
	.st24{fill:#452625;}
	.st25{fill:#FCDA4C;}
	.st26{fill:#F9E27D;}
	.st27{fill:#EE9E01;}
	.st28{fill:#FDD600;}
</style>
<g>
	<g>
		<path class="st0" d="M124.6,46.2h-20.1c-5.1,0-9.3,4.2-9.3,9.3v47.6h38.7V55.5C133.9,50.3,129.7,46.2,124.6,46.2z"/>
		<g>
			<path class="st1" d="M129.3,16.9c0,8.2-6.6,14.8-14.8,14.8c-8.2,0-14.8-6.6-14.8-14.8c0-8.2,6.6-14.8,14.8-14.8
				C122.7,2.1,129.3,8.7,129.3,16.9z"/>
			<g>
				<g>
					<path class="st2" d="M103.7,22.6c0,1.7-1.4,3.1-3.1,3.1c-1.7,0-3.1-1.4-3.1-3.1c0-1.7,1.4-3.1,3.1-3.1
						C102.3,19.4,103.7,20.8,103.7,22.6z"/>
					<path class="st3" d="M103.7,22.6c0,1.2-1,2.3-2.3,2.3c-1.2,0-2.3-1-2.3-2.3c0-1.2,1-2.3,2.3-2.3
						C102.7,20.3,103.7,21.3,103.7,22.6z"/>
				</g>
				<g>
					<path class="st2" d="M125.4,22.6c0,1.7,1.4,3.1,3.1,3.1c1.7,0,3.1-1.4,3.1-3.1c0-1.7-1.4-3.1-3.1-3.1
						C126.8,19.4,125.4,20.8,125.4,22.6z"/>
					<path class="st3" d="M125.4,22.6c0,1.2,1,2.3,2.3,2.3c1.2,0,2.3-1,2.3-2.3c0-1.2-1-2.3-2.3-2.3
						C126.4,20.3,125.4,21.3,125.4,22.6z"/>
				</g>
			</g>
			<path class="st4" d="M114.5,50.1L114.5,50.1c-2.4,0-4.3-1.9-4.3-4.3v-9.5h8.6v9.5C118.8,48.1,116.9,50.1,114.5,50.1z"/>
			<path class="st2" d="M114.5,39.6L114.5,39.6c-7.1,0-12.8-5.7-12.8-12.8v-8.5c0-7.1,5.7-12.8,12.8-12.8l0,0
				c7.1,0,12.8,5.7,12.8,12.8v8.5C127.3,33.9,121.6,39.6,114.5,39.6z"/>
			<g>
				<g>
					<path class="st5" d="M120.8,22.6c0,0.6-0.5,1.1-1.1,1.1c-0.6,0-1.1-0.5-1.1-1.1c0-0.6,0.5-1.1,1.1-1.1
						C120.3,21.4,120.8,21.9,120.8,22.6z"/>
				</g>
				<g>
					<path class="st5" d="M108.3,22.6c0,0.6,0.5,1.1,1.1,1.1c0.6,0,1.1-0.5,1.1-1.1c0-0.6-0.5-1.1-1.1-1.1
						C108.8,21.4,108.3,21.9,108.3,22.6z"/>
				</g>
			</g>
			<path class="st6" d="M118.7,28.2c0.4,0,0.7,0.3,0.7,0.7l0,0c0,0.3,0,0.5-0.1,0.8c-0.2,1-0.7,1.9-1.4,2.6
				c-0.9,0.9-2.1,1.4-3.4,1.4c-2.4,0-4.4-1.8-4.8-4c0-0.3-0.1-0.5-0.1-0.8l0,0c0-0.4,0.3-0.7,0.7-0.7H118.7z"/>
			<path class="st7" d="M119.3,29.6c-0.2,1-0.7,1.9-1.4,2.6c-0.9,0.9-2.1,1.4-3.4,1.4c-2.4,0-4.4-1.8-4.8-4H119.3z"/>
			<g>
				<path class="st3" d="M121.6,31.2C121.6,31.2,121.6,31.2,121.6,31.2c-0.2,0-0.3-0.1-0.3-0.3c0-2.3-1.4-2.9-1.5-3
					c-0.1-0.1-0.2-0.2-0.2-0.4c0.1-0.1,0.2-0.2,0.4-0.2c0.1,0,1.9,0.7,1.9,3.5C121.9,31.1,121.7,31.2,121.6,31.2z"/>
				<path class="st3" d="M107.5,31.2c-0.2,0-0.3-0.1-0.3-0.3c0-2.7,1.8-3.4,1.9-3.5c0.1-0.1,0.3,0,0.4,0.2c0.1,0.1,0,0.3-0.2,0.4
					c-0.1,0-1.5,0.6-1.5,3C107.8,31.1,107.6,31.2,107.5,31.2C107.5,31.2,107.5,31.2,107.5,31.2z"/>
			</g>
			<path class="st3" d="M116.1,35.2H113c-0.2,0-0.3-0.1-0.3-0.3s0.1-0.3,0.3-0.3h3.1c0.2,0,0.3,0.1,0.3,0.3S116.3,35.2,116.1,35.2z"
				/>
			<g>
				<g>
					<path class="st3" d="M103.5,24.8c-0.1,0-0.2-0.1-0.3-0.2c0-0.1,0-0.3,0.2-0.3l3.1-0.8c0.1,0,0.3,0,0.3,0.2
						c0,0.1-0.1,0.3-0.2,0.3L103.5,24.8C103.5,24.8,103.5,24.8,103.5,24.8z"/>
					<path class="st3" d="M104.5,26.3c-0.1,0-0.1,0-0.2-0.1c-0.1-0.1-0.1-0.3,0-0.4l2.1-2.3c0.1-0.1,0.3-0.1,0.4,0
						c0.1,0.1,0.1,0.3,0,0.4l-2.1,2.3C104.7,26.3,104.6,26.3,104.5,26.3z"/>
				</g>
				<g>
					<path class="st3" d="M125.6,24.8C125.6,24.8,125.6,24.8,125.6,24.8l-3.2-0.8c-0.1,0-0.2-0.2-0.2-0.3c0-0.1,0.2-0.2,0.3-0.2
						l3.1,0.8c0.1,0,0.2,0.2,0.2,0.3C125.8,24.7,125.7,24.8,125.6,24.8z"/>
					<path class="st3" d="M124.5,26.3c-0.1,0-0.2,0-0.2-0.1l-2.1-2.3c-0.1-0.1-0.1-0.3,0-0.4c0.1-0.1,0.3-0.1,0.4,0l2.1,2.3
						c0.1,0.1,0.1,0.3,0,0.4C124.7,26.3,124.6,26.3,124.5,26.3z"/>
				</g>
			</g>
			<g>
				<path class="st3" d="M113,19.4c-0.2,0-0.3-0.1-0.3-0.3v-1.5c0-0.2,0.1-0.3,0.3-0.3c0.2,0,0.3,0.1,0.3,0.3v1.5
					C113.3,19.3,113.1,19.4,113,19.4z"/>
				<path class="st3" d="M116.1,19.4c-0.2,0-0.3-0.1-0.3-0.3v-1.5c0-0.2,0.1-0.3,0.3-0.3c0.2,0,0.3,0.1,0.3,0.3v1.5
					C116.4,19.3,116.3,19.4,116.1,19.4z"/>
			</g>
			<g>
				<path class="st8" d="M112.3,24.1v0.2c0,1.2,1,2.2,2.2,2.2c1.2,0,2.2-1,2.2-2.2v-0.2H112.3z"/>
				<path class="st8" d="M115.9,25.3h-2.8l0.4-3.4c0.1-0.5,0.5-0.9,1-0.9l0,0c0.5,0,1,0.4,1,0.9L115.9,25.3z"/>
			</g>
			<g>
				<g>
					<g>
						<g>
							<path class="st1" d="M112.4,26.2h-7.1l-0.7-5.3h8.5L112.4,26.2z M105.9,25.4h5.8l0.5-3.9h-6.8L105.9,25.4z"/>
							<path class="st9" d="M112.3,26.3h-7.1c-0.1,0-0.3-0.1-0.3-0.2l-0.6-5c0-0.1,0-0.2,0.1-0.2c0.1-0.1,0.1-0.1,0.2-0.1h8.3
								c0.1,0,0.2,0,0.2,0.1c0.1,0.1,0.1,0.1,0.1,0.2l-0.6,5C112.6,26.2,112.5,26.3,112.3,26.3z M105.5,25.7h6.6l0.6-4.5h-7.7
								L105.5,25.7z"/>
						</g>
						<path class="st1" d="M107.6,23.1c0,0.6-0.4,1-1,1c-0.6,0-1-0.4-1-1c0-0.6,0.4-1,1-1C107.1,22.1,107.6,22.6,107.6,23.1z"/>
					</g>
					<g>
						<g>
							<path class="st1" d="M123.8,26.2h-7.1l-0.7-5.3h8.5L123.8,26.2z M117.4,25.4h5.8l0.5-3.9h-6.8L117.4,25.4z"/>
							<path class="st9" d="M123.8,26.3h-7.1c-0.1,0-0.3-0.1-0.3-0.2l-0.6-5c0-0.1,0-0.2,0.1-0.2c0.1-0.1,0.1-0.1,0.2-0.1h8.3
								c0.1,0,0.2,0,0.2,0.1c0.1,0.1,0.1,0.1,0.1,0.2l-0.6,5C124.1,26.2,123.9,26.3,123.8,26.3z M117,25.7h6.6l0.6-4.5h-7.7
								L117,25.7z"/>
						</g>
						<path class="st1" d="M119.1,23.1c0,0.6-0.4,1-1,1c-0.6,0-1-0.4-1-1c0-0.6,0.4-1,1-1C118.6,22.1,119.1,22.6,119.1,23.1z"/>
					</g>
				</g>
				<rect x="112.7" y="23.2" class="st9" width="3.8" height="0.6"/>
			</g>
			<g>
				<polygon class="st1" points="111.7,17.6 111.7,19.8 105,20.3 105.5,19.4 				"/>
				<polygon class="st1" points="117.4,17.6 117.4,19.8 124.1,20.3 123.5,19.4 				"/>
			</g>
			<path class="st3" d="M116.1,16.5h-3.6l-0.1-0.2c-0.5-1.1-1.2-1.2-1.2-1.2c-0.2,0-0.3-0.1-0.3-0.3c0-0.2,0.1-0.3,0.3-0.3
				c0,0,0.9,0.1,1.6,1.3h3c0.3-0.7,1.6-3.2,4.4-3.2c0,0,0.1,0,0.1,0c0.2,0,0.3,0.1,0.3,0.3c0,0.2-0.1,0.3-0.3,0.3
				c-2.9-0.1-4,2.9-4.1,3l-0.1,0.2H116.1z"/>
			<path class="st3" d="M114.5,15.1c-0.2,0-0.3-0.1-0.3-0.3V13c0-0.2,0.1-0.3,0.3-0.3c0.2,0,0.3,0.1,0.3,0.3v1.9
				C114.8,15,114.7,15.1,114.5,15.1z"/>
			<path class="st1" d="M120.2,7.8c0,3.1-2.5,5.7-5.7,5.7c-3.1,0-5.7-2.5-5.7-5.7c0-3.1,2.5-5.7,5.7-5.7
				C117.7,2.1,120.2,4.7,120.2,7.8z"/>
			<path class="st1" d="M117.7,26.6h-6.4c-1.5,0-2.8,1.2-2.8,2.8h11.9C120.5,27.8,119.3,26.6,117.7,26.6z"/>
			<g>
				<path class="st3" d="M122.9,32.8c-0.2,0-0.3-0.1-0.3-0.3c0-1.2,1.5-3,1.5-3c0.1-0.1,0.3-0.1,0.4,0c0.1,0.1,0.1,0.3,0,0.4
					c-0.4,0.5-1.4,1.9-1.4,2.7C123.2,32.6,123.1,32.8,122.9,32.8z"/>
				<path class="st3" d="M106.2,32.8c-0.2,0-0.3-0.1-0.3-0.3c0-0.8-1-2.2-1.4-2.7c-0.1-0.1-0.1-0.3,0-0.4c0.1-0.1,0.3-0.1,0.4,0
					c0.1,0.1,1.5,1.8,1.5,3C106.4,32.6,106.3,32.8,106.2,32.8z"/>
			</g>
		</g>
		<polygon class="st10" points="116.3,64 112.8,64 113.4,50.1 115.7,50.1 		"/>
		<g>
			<g>
				<g>
					<path class="st11" d="M110.2,43.7c0,0-0.1,4.9,4.6,6.3l-2.9,4.9C111.9,54.9,105.6,47.9,110.2,43.7z"/>
				</g>
				<g>
					<path class="st11" d="M118.9,43.7c0,0,0.3,4.9-4.4,6.3l2.9,4.9C117.4,54.9,123.5,47.9,118.9,43.7z"/>
				</g>
			</g>
		</g>
		<g>
			<path class="st12" d="M115.3,60.3c0,0.4-0.3,0.8-0.8,0.8c-0.4,0-0.8-0.3-0.8-0.8c0-0.4,0.3-0.8,0.8-0.8
				C115,59.5,115.3,59.8,115.3,60.3z"/>
			<path class="st12" d="M115.3,57.1c0,0.4-0.3,0.8-0.8,0.8c-0.4,0-0.8-0.3-0.8-0.8c0-0.4,0.3-0.8,0.8-0.8
				C115,56.3,115.3,56.6,115.3,57.1z"/>
			<path class="st12" d="M115.3,53.8c0,0.4-0.3,0.8-0.8,0.8c-0.4,0-0.8-0.3-0.8-0.8c0-0.4,0.3-0.8,0.8-0.8
				C115,53.1,115.3,53.4,115.3,53.8z"/>
		</g>
		<g>
			<path class="st2" d="M90.6,116.5c-0.5,2.4-2.8,4-5.3,3.5c-2.4-0.5-4-2.8-3.5-5.3c0.5-2.4,2.8-4,5.3-3.5
				C89.5,111.7,91.1,114.1,90.6,116.5z"/>
			<g>
				<g>
					<path class="st2" d="M138.4,116.5c0.5,2.4,2.8,4,5.3,3.5c2.4-0.5,4-2.8,3.5-5.3c-0.5-2.4-2.8-4-5.3-3.5
						C139.5,111.7,138,114.1,138.4,116.5z"/>
					<g>
						<path class="st0" d="M93,54.6l-11.9,60l10.1,2l13.9-70l0,0C99.5,45.4,94.1,49,93,54.6z"/>
						<path class="st0" d="M136.1,54.6c-1.1-5.6-6.5-9.2-12.1-8.1l13.9,70l10.1-2L136.1,54.6z"/>
					</g>
				</g>
			</g>
		</g>
		<path class="st13" d="M118.9,102.4l0.1,1.5h-8.9l0.1-1.5h-15l3.7,88.4h9.4l2.8-67.5c0.1-1.8,1.5-3.2,3.3-3.2l0,0
			c1.8,0,3.3,1.4,3.3,3.2l2.8,67.5h9.6l3.7-88.4H118.9z"/>
		<g>
			<g>
				<g>
					<path class="st14" d="M97.3,190.8c-0.2,0-0.4,0-0.6,0c-1.7,0.2-3.2,0.9-4.3,2.1c-1,1.1-1.8,2.4-2,4c-0.1,0.4-0.1,0.7-0.1,1.1
						h18.2v-7.2H97.3z"/>
					<path class="st15" d="M108.4,196.9v1.1H90.3c0-0.4,0-0.7,0.1-1.1H108.4z"/>
				</g>
				<path class="st16" d="M98.6,190.8v2.1c0,0.2-0.1,0.3-0.3,0.3c-0.2,0-0.3-0.1-0.3-0.3v-2.1H98.6z"/>
				<path class="st16" d="M97.3,190.8v2.1c0,0.2-0.1,0.3-0.3,0.3c-0.2,0-0.3-0.1-0.3-0.3v-2C96.9,190.8,97.1,190.8,97.3,190.8z"/>
			</g>
			<g>
				<g>
					<path class="st14" d="M138.7,196.9c-0.2-1.5-1-2.9-2-4c-1.1-1.1-2.7-1.9-4.3-2.1c-0.2,0-0.4,0-0.6,0h-11.1v7.2h18.2
						C138.8,197.6,138.8,197.2,138.7,196.9z"/>
					<path class="st15" d="M120.7,196.9v1.1h18.2c0-0.4,0-0.7-0.1-1.1H120.7z"/>
				</g>
				<path class="st16" d="M130.5,190.8v2.1c0,0.2,0.1,0.3,0.3,0.3c0.2,0,0.3-0.1,0.3-0.3v-2.1H130.5z"/>
				<path class="st16" d="M131.7,190.8v2.1c0,0.2,0.1,0.3,0.3,0.3c0.2,0,0.3-0.1,0.3-0.3v-2C132.2,190.8,132,190.8,131.7,190.8z"/>
			</g>
		</g>
		<g>
			<polygon class="st17" points="99,61.1 94.5,89.3 95.4,93 			"/>
			<polygon class="st17" points="130.1,61.1 134.6,89.3 133.7,93 			"/>
		</g>
		<g>
			<path class="st18" d="M133.8,101.6H95.3c-0.5,0-1,0.4-1,1v1c0,0.5,0.4,1,1,1h38.6c0.5,0,1-0.4,1-1v-1
				C134.8,102.1,134.4,101.6,133.8,101.6z"/>
			<g>
				<rect x="102.1" y="101.6" class="st13" width="1" height="3"/>
				<rect x="125.9" y="101.6" class="st13" width="1" height="3"/>
			</g>
			<rect x="111.5" y="101.6" class="st19" width="6" height="3"/>
			<rect x="115.8" y="101.6" class="st20" width="1.7" height="3"/>
		</g>
	</g>
	<g>
		<g>
			<path class="st2" d="M41,131.2c-0.3,2.4-2.5,4.1-5,3.8c-2.4-0.3-4.1-2.5-3.8-5c0.3-2.4,2.5-4.1,5-3.8
				C39.7,126.5,41.4,128.7,41,131.2z"/>
			<g>
				<path class="st2" d="M85,131.2c0.3,2.4,2.5,4.1,5,3.8c2.4-0.3,4.1-2.5,3.8-5c-0.3-2.4-2.5-4.1-5-3.8
					C86.3,126.5,84.6,128.7,85,131.2z"/>
				<g>
					<path class="st21" d="M39.5,72.6L32,129.1l9.6,1.3l8.8-66.1l0,0C45.1,63.6,40.2,67.3,39.5,72.6z"/>
					<path class="st21" d="M86.5,72.6c-0.7-5.3-5.6-9-10.8-8.3l0,0l8.8,66.1l9.6-1.3L86.5,72.6z"/>
				</g>
			</g>
		</g>
		<path class="st22" d="M41.3,114.8l-0.1-35.1C41.2,79.7,39,101,41.3,114.8z"/>
		<path class="st22" d="M85.1,114.8l0.1-35.1C85.1,79.7,87.4,101,85.1,114.8z"/>
		<g>
			<g>
				<polygon class="st2" points="59.6,190.8 52.8,190.8 48.8,123.1 63.7,123.1 				"/>
				<path class="st23" d="M53.8,190.8c-4,0-7.2,3.2-7.2,7.2h5.8c4,0,7.2-3.2,7.2-7.2l0,0H53.8z"/>
				<path class="st24" d="M46.6,198h5.8c1.4,0,2.7-0.4,3.8-1.1h-9.5C46.6,197.2,46.6,197.6,46.6,198z"/>
			</g>
			<g>
				<polygon class="st2" points="66.4,190.8 73.2,190.8 77.2,123.1 62.3,123.1 				"/>
				<path class="st23" d="M79.3,196.9c-0.2-1.5-1-2.9-2-4c-1.3-1.3-3.1-2.1-5.1-2.1h-5.8c0,2,0.8,3.8,2.1,5.1c0.4,0.4,0.8,0.7,1.2,1
					c1.1,0.7,2.4,1.1,3.8,1.1h5.8C79.4,197.6,79.4,197.2,79.3,196.9z"/>
				<path class="st24" d="M79.4,198h-5.8c-1.4,0-2.7-0.4-3.8-1.1h9.5C79.4,197.2,79.4,197.6,79.4,198z"/>
			</g>
		</g>
		<g>
			<path class="st25" d="M82.3,163H43.7V83c0-10.7,8.7-19.3,19.3-19.3l0,0c10.7,0,19.3,8.7,19.3,19.3V163z"/>
			<g>
				<polygon class="st26" points="45.4,67.6 80.6,67.6 80.6,67.6 82,70.3 44,70.3 				"/>
				<rect x="43.7" y="75.6" class="st26" width="38.7" height="2.8"/>
				<rect x="43.7" y="83.6" class="st26" width="38.7" height="2.8"/>
				<rect x="43.7" y="91.6" class="st26" width="38.7" height="2.8"/>
				<rect x="43.7" y="99.6" class="st26" width="38.7" height="2.8"/>
				<rect x="43.7" y="107.6" class="st26" width="38.7" height="2.8"/>
				<rect x="43.7" y="115.6" class="st26" width="38.7" height="2.8"/>
				<rect x="43.7" y="123.7" class="st26" width="38.7" height="2.8"/>
				<rect x="43.7" y="131.7" class="st26" width="38.7" height="2.8"/>
				<rect x="43.7" y="139.7" class="st26" width="38.7" height="2.8"/>
				<rect x="43.7" y="155.6" class="st26" width="38.7" height="2.8"/>
				<rect x="43.7" y="147.7" class="st26" width="38.7" height="2.8"/>
			</g>
		</g>
		<g>
			<g>
				<path class="st1" d="M63,17.9L63,17.9c-9.4,0-16.9,7.6-16.9,16.9v8.6c0,9.4,7.6,16.9,16.9,16.9l0,0c9.4,0,16.9-7.6,16.9-16.9
					v-8.6C79.9,25.5,72.4,17.9,63,17.9z"/>
				<path class="st1" d="M82.5,52.3c0,5.7-8.7,10.3-19.5,10.3c-10.7,0-19.5-4.6-19.5-10.3C43.5,46.6,52.3,42,63,42
					C73.7,42,82.5,46.6,82.5,52.3z"/>
			</g>
			<g>
				<path class="st27" d="M70,63.2c0,2.4-3.2,4.3-7,4.3c-3.9,0-7-1.9-7-4.3c0-2.4,3.2-4.3,7-4.3C66.9,58.9,70,60.8,70,63.2z"/>
				<path class="st4" d="M67.3,53.8v11.5c0,0.4-0.1,0.7-0.2,1v0c-0.4,0.8-1.2,1.3-2.1,1.3h-4c-0.9,0-1.7-0.5-2.1-1.3
					c-0.1-0.3-0.2-0.6-0.2-1V53.8H67.3z"/>
				<path class="st28" d="M67.7,59.5c-0.1-0.1-0.3-0.1-0.4,0v0.8c1.5,0.7,2.3,1.8,2.3,2.9c0,1.2-1,2.3-2.5,3.1v0
					c-1.1,0.5-2.5,0.8-4.1,0.8c-1.5,0-2.9-0.3-4.1-0.8c-1.5-0.7-2.5-1.8-2.5-3.1c0-1.1,0.8-2.2,2.3-2.9v-1c-0.1,0-0.1,0-0.2,0
					c-1.9,0.9-3,2.3-3,3.9c0,2.7,3.4,4.8,7.5,4.8c4.1,0,7.5-2.2,7.5-4.8C70.5,61.7,69.5,60.4,67.7,59.5z"/>
			</g>
			<g>
				<g>
					<g>
						<path class="st2" d="M50,40.1c0,1.7-1.4,3.1-3.1,3.1c-1.7,0-3.1-1.4-3.1-3.1c0-1.7,1.4-3.1,3.1-3.1C48.6,36.9,50,38.3,50,40.1
							z"/>
						<path class="st3" d="M50,40.1c0,1.2-1,2.3-2.3,2.3c-1.2,0-2.3-1-2.3-2.3c0-1.2,1-2.3,2.3-2.3C49,37.8,50,38.8,50,40.1z"/>
					</g>
					<g>
						<path class="st2" d="M76,40.1c0,1.7,1.4,3.1,3.1,3.1c1.7,0,3.1-1.4,3.1-3.1c0-1.7-1.4-3.1-3.1-3.1C77.4,36.9,76,38.3,76,40.1z
							"/>
						<path class="st3" d="M76,40.1c0,1.2,1,2.3,2.3,2.3c1.2,0,2.3-1,2.3-2.3c0-1.2-1-2.3-2.3-2.3C77,37.8,76,38.8,76,40.1z"/>
					</g>
				</g>
				<path class="st2" d="M63,23.3L63,23.3c-8.5,0-15.4,6.9-15.4,15.4V42c0,8.5,6.9,15.4,15.4,15.4l0,0c8.5,0,15.4-6.9,15.4-15.4
					v-3.3C78.4,30.2,71.5,23.3,63,23.3z"/>
				<g>
					<g>
						<path class="st5" d="M69.2,40.1c0,0.6-0.5,1.1-1.1,1.1c-0.6,0-1.1-0.5-1.1-1.1c0-0.6,0.5-1.1,1.1-1.1
							C68.7,38.9,69.2,39.4,69.2,40.1z"/>
						<path class="st5" d="M69.3,39.6c-0.4,0.3-0.8,0.4-0.9,0.2c-0.1-0.2,0.1-0.5,0.5-0.8c0.4-0.3,0.8-0.4,0.9-0.2
							C69.9,39,69.7,39.3,69.3,39.6z"/>
					</g>
					<g>
						<path class="st5" d="M56.8,40.1c0,0.6,0.5,1.1,1.1,1.1c0.6,0,1.1-0.5,1.1-1.1c0-0.6-0.5-1.1-1.1-1.1
							C57.3,38.9,56.8,39.4,56.8,40.1z"/>
						<path class="st5" d="M56.7,39.6c0.4,0.3,0.8,0.4,0.9,0.2c0.1-0.2-0.1-0.5-0.5-0.8c-0.4-0.3-0.8-0.4-0.9-0.2
							C56.1,39,56.3,39.3,56.7,39.6z"/>
					</g>
				</g>
				<g>
					<path class="st1" d="M72.5,36.7c-0.1,0.6-1.6,0.8-3.3,0.5c-1.8-0.3-3.1-0.9-3-1.5c0.1-0.6,1.6-0.8,3.3-0.5
						C71.2,35.5,72.6,36.2,72.5,36.7z"/>
					<path class="st1" d="M53.5,36.7c0.1,0.6,1.6,0.8,3.3,0.5c1.8-0.3,3.1-0.9,3-1.5c-0.1-0.6-1.6-0.8-3.3-0.5
						C54.8,35.5,53.4,36.2,53.5,36.7z"/>
				</g>
				<path class="st1" d="M67.2,45.7c0.4,0,0.7,0.3,0.7,0.7l0,0c0,0.3,0,0.5-0.1,0.8c-0.2,1-0.7,1.9-1.4,2.6
					c-0.9,0.9-2.1,1.4-3.4,1.4c-2.4,0-4.4-1.8-4.8-4c0-0.3-0.1-0.5-0.1-0.8l0,0c0-0.4,0.3-0.7,0.7-0.7H67.2z"/>
				<path class="st7" d="M67.8,47.1c-0.2,1-0.7,1.9-1.4,2.6c-0.9,0.9-2.1,1.4-3.4,1.4c-2.4,0-4.4-1.8-4.8-4H67.8z"/>
				<g>
					<path class="st3" d="M70.1,48.7C70.1,48.7,70.1,48.7,70.1,48.7c-0.2,0-0.3-0.1-0.3-0.3c0-2.3-1.4-2.9-1.5-3
						c-0.1-0.1-0.2-0.2-0.2-0.4c0.1-0.1,0.2-0.2,0.4-0.2c0.1,0,1.9,0.7,1.9,3.5C70.3,48.6,70.2,48.7,70.1,48.7z"/>
					<path class="st3" d="M55.9,48.7c-0.2,0-0.3-0.1-0.3-0.3c0-2.7,1.8-3.4,1.9-3.5c0.1-0.1,0.3,0,0.4,0.2c0.1,0.1,0,0.3-0.2,0.4
						c-0.1,0-1.5,0.6-1.5,3C56.2,48.6,56.1,48.7,55.9,48.7C55.9,48.7,55.9,48.7,55.9,48.7z"/>
				</g>
				<path class="st3" d="M64.6,52.7h-3.1c-0.2,0-0.3-0.1-0.3-0.3c0-0.2,0.1-0.3,0.3-0.3h3.1c0.2,0,0.3,0.1,0.3,0.3
					C64.8,52.6,64.7,52.7,64.6,52.7z"/>
				<g>
					<g>
						<path class="st3" d="M51.9,42.3c-0.1,0-0.2-0.1-0.3-0.2c0-0.1,0-0.3,0.2-0.3l3.1-0.8c0.1,0,0.3,0,0.3,0.2c0,0.1,0,0.3-0.2,0.3
							L51.9,42.3C52,42.3,52,42.3,51.9,42.3z"/>
						<path class="st3" d="M53,43.8c-0.1,0-0.1,0-0.2-0.1c-0.1-0.1-0.1-0.3,0-0.4l2.1-2.3c0.1-0.1,0.3-0.1,0.4,0
							c0.1,0.1,0.1,0.3,0,0.4l-2.1,2.3C53.2,43.8,53.1,43.8,53,43.8z"/>
					</g>
					<g>
						<path class="st3" d="M74.1,42.3C74,42.3,74,42.3,74.1,42.3l-3.2-0.8c-0.1,0-0.2-0.2-0.2-0.3c0-0.1,0.2-0.2,0.3-0.2l3.1,0.8
							c0.1,0,0.2,0.2,0.2,0.3C74.3,42.2,74.2,42.3,74.1,42.3z"/>
						<path class="st3" d="M73,43.8c-0.1,0-0.2,0-0.2-0.1l-2.1-2.3c-0.1-0.1-0.1-0.3,0-0.4c0.1-0.1,0.3-0.1,0.4,0l2.1,2.3
							c0.1,0.1,0.1,0.3,0,0.4C73.1,43.8,73.1,43.8,73,43.8z"/>
					</g>
				</g>
				<g>
					<path class="st3" d="M61.4,36.9c-0.2,0-0.3-0.1-0.3-0.3v-1.5c0-0.2,0.1-0.3,0.3-0.3c0.2,0,0.3,0.1,0.3,0.3v1.5
						C61.7,36.8,61.6,36.9,61.4,36.9z"/>
					<path class="st3" d="M64.6,36.9c-0.2,0-0.3-0.1-0.3-0.3v-1.5c0-0.2,0.1-0.3,0.3-0.3c0.2,0,0.3,0.1,0.3,0.3v1.5
						C64.8,36.8,64.7,36.9,64.6,36.9z"/>
				</g>
				<path class="st8" d="M60.8,41.6v0.2c0,1.2,1,2.2,2.2,2.2c1.2,0,2.2-1,2.2-2.2v-0.2H60.8z"/>
				<g>
					<g>
						<g>
							<g>
								<path class="st1" d="M57.7,44.3c-2.1,0-3.9-1.7-3.9-3.9c0-2.1,1.7-3.9,3.9-3.9c2.1,0,3.9,1.7,3.9,3.9
									C61.6,42.5,59.9,44.3,57.7,44.3z M57.7,37.2c-1.7,0-3.2,1.4-3.2,3.2c0,1.7,1.4,3.2,3.2,3.2c1.7,0,3.2-1.4,3.2-3.2
									C60.9,38.6,59.5,37.2,57.7,37.2z"/>
								<path class="st9" d="M57.7,44.3c-2.2,0-4-1.8-4-4c0-2.2,1.8-4,4-4c2.2,0,4,1.8,4,4C61.7,42.6,59.9,44.3,57.7,44.3z M57.7,37
									c-1.9,0-3.4,1.5-3.4,3.4c0,1.9,1.5,3.4,3.4,3.4c1.9,0,3.4-1.5,3.4-3.4C61.2,38.5,59.6,37,57.7,37z"/>
							</g>
							<path class="st1" d="M57.2,39.6c0,0.6-0.5,1.1-1.1,1.1c-0.6,0-1.1-0.5-1.1-1.1c0-0.6,0.5-1.1,1.1-1.1
								C56.7,38.5,57.2,39,57.2,39.6z"/>
							<path class="st1" d="M67.7,39.6c0,0.6-0.5,1.1-1.1,1.1c-0.6,0-1.1-0.5-1.1-1.1c0-0.6,0.5-1.1,1.1-1.1
								C67.2,38.5,67.7,39,67.7,39.6z"/>
						</g>
						<g>
							<g>
								<path class="st1" d="M68.3,44.3c-2.1,0-3.9-1.7-3.9-3.9c0-2.1,1.7-3.9,3.9-3.9c2.1,0,3.9,1.7,3.9,3.9
									C72.1,42.5,70.4,44.3,68.3,44.3z M68.3,37.2c-1.7,0-3.2,1.4-3.2,3.2c0,1.7,1.4,3.2,3.2,3.2c1.7,0,3.2-1.4,3.2-3.2
									C71.4,38.6,70,37.2,68.3,37.2z"/>
								<path class="st9" d="M68.3,44.3c-2.2,0-4-1.8-4-4c0-2.2,1.8-4,4-4c2.2,0,4,1.8,4,4C72.2,42.6,70.4,44.3,68.3,44.3z M68.3,37
									c-1.9,0-3.4,1.5-3.4,3.4c0,1.9,1.5,3.4,3.4,3.4c1.9,0,3.4-1.5,3.4-3.4C71.7,38.5,70.1,37,68.3,37z"/>
							</g>
						</g>
					</g>
					<rect x="61.4" y="40.1" class="st9" width="3.1" height="0.6"/>
				</g>
				<path class="st1" d="M66.6,33.2l-20.8,5.3l1.5-8.1c1.2-6.5,7-11,13.5-10.7l4.4,0.2c4.8,0.2,7.8,5.2,5.9,9.6l0,0
					C70.3,31.3,68.6,32.7,66.6,33.2z"/>
			</g>
		</g>
		<g>
			<g>
				<g>
					<path class="st21" d="M54.5,63.3v60.5c0,7.4-6,13.4-13.4,13.4l0,0V76.7C41.2,69.3,47.2,63.3,54.5,63.3L54.5,63.3z"/>
				</g>
				<g>
					<path class="st21" d="M71.5,63.3v60.5c0,7.4,6,13.4,13.4,13.4l0,0V76.7C84.8,69.3,78.8,63.3,71.5,63.3L71.5,63.3z"/>
				</g>
			</g>
		</g>
	</g>
</g>
</svg>
