<?xml version="1.0" encoding="utf-8"?>
<!-- Generator: Adobe Illustrator 23.1.0, SVG Export Plug-In . SVG Version: 6.00 Build 0)  -->
<svg version="1.1" id="Capa_1" xmlns="http://www.w3.org/2000/svg" xmlns:xlink="http://www.w3.org/1999/xlink" x="0px" y="0px"
	 viewBox="0 0 1920 1080" style="enable-background:new 0 0 1920 1080;" xml:space="preserve">
<style type="text/css">
	.st0{opacity:0.1;fill:#35495E;}
	.st1{fill:#EEFCFE;}
	.st2{fill:#40E0D0;}
	.st3{fill:#72B5B7;}
	.st4{opacity:0.5;fill:#40E0D0;}
	.st5{fill:#35495E;}
	.st6{fill:#FFFFFF;}
</style>
<image style="overflow:visible;" width="1920" height="1080" xlink:href="BE5E563.png" >
</image>
<ellipse id="XMLID_32_" class="st0" cx="546.2" cy="712.6" rx="153.5" ry="37.4"/>
<rect x="-66" y="-33" class="st1" width="2048" height="1129"/>
<g id="XMLID_16_">
	<g id="XMLID_4_">
		<g id="XMLID_50_">
			
				<ellipse id="XMLID_20_" transform="matrix(0.7071 -0.7071 0.7071 0.7071 -245.6341 499.0215)" class="st2" cx="479.6" cy="546" rx="324.5" ry="324.5"/>
			<g id="XMLID_43_">
				<path id="XMLID_71_" class="st3" d="M382,854.5c-2.7-4.9-2.9-11-6.7-15.4c0.3-1,0.8-2.3,1.1-3.2c18.2-2.7,18.2-2.7,19.2-4.2
					c6.8-9.8-0.5-21,3.3-31.1c3.7-9.9,16.6-12.6,18.6-23.8l0,0c1.8-12.3-3.5-15.2-9.6-18.7c-69.7-39.5-70.9-42.6-72.5-46.8
					c-0.3-0.7-3.1-8.9-4.1-12.6c-8.7-30.6-51-38.1-51-74.6c-0.7-0.6-1.7-1.4-2.5-2.1c-0.8,0.5-1.8,1.2-2.6,1.8
					c-0.5-1.1-1.1-2.5-1.5-3.5c-20.2-5.3-20.2-5.3-35.4-21.9c-1.7,1-4,2.3-5.8,3.3c-0.4-0.2-0.9-0.4-1.3-0.5c1.2-1.8,2.8-4.1,4-5.9
					c-3.8-4.5-17.4-5.7-25.3,12.7c-5.5-3.1-9-9.5-16.1-10.2c-13.2-19.3,15.5-53-13.1-63.4c3-13.3,13.7-23.3,15.5-37.1
					c0.5-3.7-4.7-10.1-9.9-5.3c-3.7,3.4-4.3,8.6-6.9,12.6c-22.7-2.6,13.2-67.3,13.7-68c9.1-10.7,10.4-9.2,22.2,4.7
					c1-1.9,2.3-4.3,3.3-6.2c5.8,3.1,8,9.7,13.2,13.3c-1.5,11.9-7.7,22.8-7.4,35c18.7-7.4,11.2-29.5,22.8-40.9
					c10.6-10.4,27.5-7.8,38.1-18.2c0.9-0.9,2-2.3,2.8-3.4c15.1-21,40.9-28.2,83.5-40.1c-2.9,3.5-7.4,5.2-9.9,9.1
					c0.7,0.6,1.6,1.5,2.3,2.1c7.2-4.2,17.2,0.2,23.4-7.4c-1.5-2.4-1.5-2.4,6.3-22.5c-0.5-0.8-1.1-1.9-1.5-2.7
					c-2.2-0.6-5.1-1.1-7.4-1.3c13.7-6.5,27.8,2.7,41.5-1.2c-2.3,3.6-2.3,3.6-23.1,18.2c5.7,4.7,13.5,5.3,19.1,10.3
					c5.4-2.8,5.5-3,10.1-15.1c0.5-1.9,0.2-1.9,0-2c-0.3-0.1-0.5-0.1-0.8-0.2c-0.3-0.1-0.6-0.1-0.9-0.2c-0.3-0.1-0.6-0.1-0.9-0.2
					c-0.3-0.1-0.7-0.2-1-0.2c-0.3-0.1-0.7-0.2-1-0.2c-0.4-0.1-0.8-0.2-1.1-0.3c-0.4-0.1-0.8-0.2-1.2-0.3
					c14.3-16.6,13.8-39.2,23.4-57.7c-12.4,5.9-12.4,5.9-16.1,4.4c6.7-14,6.7-14,6.7-15.7c-6.1-5.3-7.4-6.4-18.7,3.1
					c-30.2,25.5-54,31.9-56.6,32.5c2-6.2,2-6.2,15.1-15.1c-3.8-12.3-10-32.9,50.8-36.6c-2,1-4.7,2.2-6.8,3.2
					c0.6,0.7,1.3,1.7,1.9,2.5c0.9-0.2,2.2-0.5,3.1-0.7c1.6,1,4.2,1.7,6,1.7c3.5-6.1,3.7-6.3,6.2-9.6c10.2,4.6,15.8-5.7,24-7.5
					c0.8,0.6,1.9,1.3,2.7,1.9c-2.5,11.8-15.1,13-18.5,10.7c-2.4,1.1-5.3,3-7.3,4.6c1.7,0.8,4.1,1.7,5.9,2.3
					c1.1,10.9,1.1,10.9,3.2,12.4c5.2-4.5,13.4-5.5,15.6-13.5c7.1,8.4,13.3-4,13.3-4.2c0.5-1.9-0.7-4.7-1.4-6.5
					c4.7-4,3.3-10.4,5.9-15.3c-0.9-0.4-2-1-2.9-1.4c-0.7,0.6-1.7,1.5-2.4,2.1c0.6-0.8,1.4-1.9,2-2.7c-1-0.5-1-0.5-34.9,12.5
					c9.8-9.1,23.1-12.2,33.6-20.1c-1.5,0-1.5,0-21.2,7c0.2-0.1,0.4-0.3,0.5-0.4c7.7-3.5,7.7-3.5,10.3-5
					c-13.2-2.8-19.6,10.6-30.7,12.9c1.9-1,4.3-2.5,6.2-3.5c-4.4-1.4-8.3,1.7-12.6,1.5c-0.6-0.7-1.4-1.7-2-2.4
					c11.3-0.7,11.3-0.7,28.1-9.7c-1.9-0.2-4.4-1-6-2c1.7-1.1,3.7-2.9,5-4.4c-5.9-1-16.6,0-21.9,1.5c0.8,0.6,1.9,1.4,2.7,2
					c-2.8,1.5-2.8,1.5-14.3,5.1c0.5-0.9,1.2-2.1,1.8-3c-0.7-0.6-1.6-1.5-2.3-2.1c0.8-0.6,1.8-1.4,2.6-1.9c-2.4-0.8-5.7-1.8-8.2-2.4
					c0-1,0.1-2.2,0.1-3.2c2.6-2,4.8-4.5,7.2-6.7c-9.8-6.5-30.5-2.5-32.8-2.1c-2.4,0.6-2.5,0.7-2.7,0.7c-0.1,0.1-0.2,0.1-0.3,0.2
					c-0.1,0.1-0.2,0.1-0.3,0.2c-0.1,0.1-0.2,0.1-0.3,0.2c-0.1,0.1-0.2,0.1-0.3,0.2c-0.1,0.1-0.2,0.1-0.3,0.2
					c-0.1,0.1-0.2,0.1-0.3,0.2c-0.1,0.1-0.2,0.1-0.3,0.2c-12.6,0.9-12.6,0.9-25.6,5.4c-1.3,0.5-1.5,0.6-1.6,0.6
					c-0.1,0.1-0.3,0.1-0.4,0.2c-0.1,0.1-0.3,0.1-0.4,0.2c-0.1,0.1-0.3,0.1-0.4,0.2c-0.1,0.1-0.3,0.1-0.4,0.2
					c-0.1,0.1-0.3,0.1-0.4,0.2c-0.1,0.1-0.2,0.1-0.4,0.2c-0.1,0.1-0.2,0.1-0.4,0.2l-1,0.4c-2,0.5-4.3,1.4-6.4,2.3
					c0.4-0.2,0.9-0.4,1.5-0.7l0.1,0c-1.6,0.7-3.8,1.2-5.2,2.3c0,0,0,0,0,0c0.6-0.2,0.9-0.3,1.3-0.5c3.9-1,4.1-1,9.8-1.6
					c-0.1,0.1-0.2,0.1-0.3,0.2c-1.1,0.4-2.5,0.8-3.5,1.2c1.9,0.5,4.6,0.4,6.5,0c-18.2,18.5-43.9,23.8-65.1,37c0,0,0,0,0-0.1
					c0,0,0-0.1,0-0.1c0,0,0-0.1,0-0.1c0,0,0-0.1,0-0.1c0-0.1,0-0.1,0-0.2c0-0.1,0-0.1,0-0.2c0-0.1,0-0.1,0.1-0.2
					c0-0.1,0-0.2,0.1-0.3c-49.8,35.9-96.8,69.9-124,156.7c22.8-51.3,22.8-51.3,26.2-56.9c0.9-1.4,0.9-1.4,0.9-1.4l0,0l0,0
					c0,0,0,0,0,0l0,0c0,0,0,0,0,0c0,0,0,0,0,0c0,0,0,0,0,0c-36.6,90.7-36.6,90.7-36.8,111.3c-0.1,13.1,33.9,117.9,34.3,118.4
					c1.1-1.5,2.3-3.8,2.8-5.6c8,4.3,9.2,32.1,6.8,40.1c-16,53.5,73.6,167.3,157.3,202.3c-1.5-0.5-2.9-1-4.4-1.6
					c3.9,1.5,8.1,3.1,11.5,4.4c3.9,1.4,5.5,1.9,9.1,3c3.6,1.2,5,1.6,8.9,2.7l1.4,0.4l0,0l0,0c0,0,0,0,0,0c-0.1,0-0.1,0-0.2-0.1
					c-0.6-0.2-1-0.4-1.5-0.5c4,1,4.6,0.9,4.9,0.8c-0.3-0.1-0.7-0.3-1-0.4c19.2,3.9,37.8-1.4,44-3.2l0,0
					C418.4,858.4,400.5,858.4,382,854.5z M321.9,365.4c0-0.1-0.1-0.1-0.1-0.2c-1.2-1.6-2.9-1.2-3.6-1c-0.7,0.2-1.4,0.4-2.7,1.3
					c-1.7,1-3.3,2.3-5,3.4c0.4-2.5,0.8-4.7,0.8-4.7c0.2-0.4,0.8-0.9,1.7-1.5c2.9-2.1,3.6-3.5,3.1-6.2
					C320.4,356.1,325,357.3,321.9,365.4z M325.6,340.4c1.8,1.1-0.7,5.3-3.9,9c-0.2,0.3-0.6,0.6-0.8,0.9c-4.6-3-8.2-5.6-12.5-8.8
					C325.2,340.1,325.2,340.1,325.6,340.4z M310.5,354.7c-0.3,0.2-0.7,0.5-1,0.7v0c-20.2,13.5-20.2,13.5-25.1,16.5
					C293.8,360.3,305,354.1,310.5,354.7z"/>
				<path id="XMLID_94_" class="st3" d="M353.2,845.5c0.2,0.1,0.3,0.1,0.5,0.2c-0.2-0.1-0.5-0.2-0.7-0.3L353.2,845.5z"/>
				<path id="XMLID_95_" class="st3" d="M358.5,847.5c-1.6-0.6-3.2-1.2-4.8-1.9C355.2,846.3,356.8,846.9,358.5,847.5z"/>
				<path id="XMLID_96_" class="st3" d="M358.6,847.6C358.5,847.6,358.5,847.6,358.6,847.6C358.5,847.6,358.5,847.6,358.6,847.6z"/>
				<path id="XMLID_99_" class="st3" d="M802.1,562.4c0.8-10.5,0.7-15.3,0.4-27.4l-1.5-20.8c0-0.2-0.1-0.3-0.1-0.5
					c-0.8-9.5-1.3-12.6-2.8-21.5c1,6.7,1.4,11.3,1.3,13.7c-0.9-3.8-2-7.6-3-11.4c0.5,0.3,1.1,0.6,1.7,0.7c0-0.7-0.1-1.4-0.1-2
					c0,0.1,0,0.1,0.1,0.2c0-0.2-0.1-0.4-0.1-0.5c0-0.6-0.1-1.2-0.1-1.7c0.1,0.7,0.3,1.6,0.5,2.4l-2.1-11.9
					c-2.4-11.6-3.5-16.4-6.4-25.9c-2.5-9.4-4.2-14.1-8.3-25c-4.2-11-6.2-15.9-10.5-24.3c-3.9-8.7-6.4-13.2-12.3-23.5
					c-6.1-10.3-9.2-15.3-14.4-22.5c-5.1-7.6-8.5-12-16.2-21.4c-10-11.8-18.2-20.4-26-27.8c-6.2-6-13.1-12.2-21.5-18.9
					c-0.2-0.2-0.4-0.4-0.7-0.5c-1.8-1.4-3.6-2.9-5.6-4.4c-29.7-22.6-64.9-38.6-104-45.9l-0.1,0l0.2,0.1
					c13.4,4.4,25.6,11.6,38.5,17.2c-2-0.6-4.6-1.4-6.6-2c3.4,2.9,3.4,2.9,20,9.9c-1,0-2.2,0.1-3.2,0.1c4.1,4.1,6.3,9.7,10.7,13.6
					c-1.9-0.7-4.3-1.8-6-2.8c1.4,2.3,3.6,5.1,6.1,8c-11.3-8.3-32.4-10.8-32.6-10.8c-0.3,1.5-0.8,3.6-1.5,4.9
					c11.5,15,15.6,26.2,14.9,29c-3.3,12,12.9,27.7,17.8,28c0.7-2,1.5-4.7,1.8-6.8c7,6.6,12.1,15.1,20.6,20
					c1.7-5.1,1.7-5.1-28.5-52.7c1,0.1,2.3,0.2,3.2,0.3c6.4,10.6,13.7,22.6,23.9,24.5c1.1-1.5,3.1-3.3,4.9-4c0.1,0.9,0.3,2.2,0.4,3.1
					c-0.9,0.4-2.2,0.9-3.1,1.2c1.4,2.8,1.4,2.8,9.3,11.1c-1-0.3-2.4-0.6-3.5-0.9c0.1,6.4,5.3,10.5,7,16.2c-3.7,1.1-4.8,1.4-6.4,6.1
					c-5.3-0.1-9.1-3-15.1-9.1c1.1,2.5,2.6,5.7,3.9,8c-7.5-3.4-7.5-12.4-12.8-17.5c-0.9,8.6-0.9,9,7.9,20.1
					c-5.8,14.6-5.8,14.6-6.5,19.9c-0.8,0.5-1.9,1.1-2.8,1.6C617,356,617,356,608.5,347.1c0.3-1,0.7-2.4,1-3.4
					c-0.6-0.9-1.3-2.1-1.9-3c-1.1-1.1-1.3-1.1-1.4-1.1c-0.1,0-0.2,0-0.3,0c-0.1,0-0.2,0-0.4,0c-0.1,0-0.2,0-0.4,0
					c-0.1,0-0.2,0-0.4,0c-0.1,0-0.3,0-0.4,0c-0.1,0-0.3,0-0.4,0c-0.1,0-0.3,0-0.4,0c-0.1-0.9-0.3-2.2-0.4-3.1
					c-0.8-0.5-1.9-1.2-2.7-1.7c-0.9,0.4-2.2,1-3.1,1.5c-0.6,3.2-2.3,13,15.5,25.4c-2.6,7.4-2.6,7.4-2.3,13.5c0.9,0.5,2.1,1.2,3,1.6
					c-1.8,8.4-1.8,8.4-1.8,9.2c19.6-4.9,19.6-4.9,21.7-4.9c-1.5,5.4-2.9,6.2-6.9,5.9c-2.8,5.3-2.8,5.3-12.1,6.3
					c5.2,12,20.3,18,20.4,33.2c-0.7,0.6-1.6,1.4-2.3,2.1c-21.4-1.6-41.7-3.2-24.4,47.1c10.1,0.3,11,1.6,15.8,9
					c-20.3,27.7-29,63.2-57.6,85.3c-13.9,22.5-13.9,22.5-14.2,23.8l-8,67c0.1,0.7,27.1,64.1,50.8,58.3c46-11.3,56.7-13.8,60.1-13.9
					c1.3,0,2.8,1.3,4,1.9c6,3.1,11.1,8,18,9.5c0.5,0.9,1.2,2,1.7,2.9c-12.8,43.8-29.8,102-94.1,131.2c-13.3,4.4-27.4,8.5-43.1,13.1
					c2.9-0.2,10.7-2,13-2.6l0.2,0l1.2-0.3c9.8-2.5,18.1-5,25.6-7.6c9-3,18.7-6.7,30.6-12c11.4-5.4,17.8-8.6,24.8-12.7
					c6.9-3.8,13-7.6,23.4-14.4c9.9-6.9,14.7-10.3,21.5-16c6.9-5.3,11.4-9.4,20.2-17.7c1.6-1.6,3.3-3.4,5.2-5.3c0,0,0,0,0,0
					l11.5-11.8l1.3-1.4c12.4-14.1,30.3-36.9,45.5-65.5c-0.1,0.1-0.2,0.3-0.2,0.4l0.5-0.9c5.5-10.6,7.6-14.8,11.3-24.3
					c4.1-9.2,5.7-13.9,9.5-25.2c1.6-5,4.6-14.8,6.9-24.6c0.2-0.7,0.4-1.5,0.5-2.2c-0.1,0.2-0.1,0.4-0.2,0.7c1-4.3,1.8-8.6,2.3-12.3
					c1-3.4,1.9-7.7,3.2-16.3c-0.1,0.6-0.2,1.2-0.3,1.9l0.6-3.9C801.2,577.8,801.8,572.7,802.1,562.4z M631.4,291.1
					c0.5-0.7,1-1.5,1.5-2.2c4,4.4,7.6,7.9,7.7,8C636.3,294.1,635.2,293.4,631.4,291.1z M799.7,588.7c0.4-4.4,0.8-8.2,1.1-11.6
					C800.6,581.3,800.2,584.9,799.7,588.7z M733.7,390.6c-0.4,0.5-0.6,0.7-1.2,1.1c-0.3,0.2-0.3,0.2-2.1,1.1
					c-0.6-0.9-1.1-1.8-1.7-2.7c0.6-1.8,1-3.6,1.4-5.7c0.1,0.1,0.2,0.3,0.3,0.5C732.6,388.6,733.7,390.3,733.7,390.6z M721.9,392.2
					c0.3-0.4,0.9-0.2,0.9-0.2c1.8,0.6,3.7,2.9,6.6,6.3c3.2,3.7,3.4,3.8,3.9,3.9c2.9,1,0.2-6.9,3.1-5.8c0.4,0.1,6,3.2,6,3.2
					c5.7,3.5,11,9.5,11.5,12.1h0c0.5,2.5,0.4,4-0.5,4.8c-0.1,0-0.1,0.1-0.2,0.1c-3.3,2.1-5.5-1.6-8.4-1.6c-3,0-4,4.2-4.9,7.8
					c-0.6,2.7-1.5,3.2-2,3.5c-3.7,0.9-8.8-7.4-8.8-7.5c-1.6-3.4-2-7.1-3-10.7c-1.1-3.6-2.3-7.1-3.5-10.6
					C722.2,396.4,721.1,393.1,721.9,392.2z M749.2,388.6c-0.4-0.4-0.9-0.9-1.2-1.4c-0.1-0.2-10.5-19.5-6.7-18.5
					c0.7,0.2,3.2,1.5,7.2,11.7c0.6,1.5,0.6,3.2,1.7,4.5c0.4,0.5,0.9,1,1.4,1.5c1.4,3.2,2.8,6.5,4.1,9.8
					C753.5,393.5,751.3,390.9,749.2,388.6z M770.9,492c-5.4-0.2-5.4-0.2-8.5,5.3c-9.1,2.5-14.6-10.4-24.2-5.8
					c-1.1,0.6-2.7,3.1-2.9,4.3c-0.7,4.9,0.7,9.7,0,14.6c-0.7,0.5-1,0.6-3.1-0.4c-2.8-1.3-5.7-2.3-8.5-3.7c-4.1-2.1-4.5-8.6-10.2-8.9
					c-10.9-0.6-10.9-0.6-14.4-4.4c-0.7-0.7-0.2-2.2-0.3-3.2c-0.6-5.9-1.7-13.1-3-21.5c-29.3,4.4-41.8,8.9-41.9,8.9
					c-4.8,3.1-7.9,8.8-14.1,10c-7.9,1.5-13.2-2.9-15.1-4.5c15.1-3.9,17-4.4,19.5-7.6c4.9-6.4,2.4-14.4,4.8-21.3
					c1.5-4.2,4.8-7.2,6.8-11.1c2.3-4.4-2.1-16,4.6-14c6.5,1.9,8.4,0.2,12.5-8c2,1.2,2,1.2,2.2,1.4c4,3.4,7,7.9,11,11.4
					c5.8,5,13.5,7.7,18.4,13.9c6.4,8,1.3,11.1-1,11.6c-3.5,0.7-3.5,0.7-6.7,4.1c4.7,2.8,9.5,5.6,12.1,7.2c3.6-12,3.6-12,0.5-26.1
					c1.5,0.6,3,1.2,4.5,1.8c-0.6-3.3-1.1-5.1-3.3-7.2c-4.1-3.9-9.6-5.6-14-9.1c-9.3-7.5-12.5-13.2-14.4-16.7
					c3.5-2.1,4.6-2.8,25.7,15.8c1.1,0.9,1.9,1.7,10.6,16.3c8.7,14.5,16.9,28.2,29.4,28.5c-3.9-4.9-10-7.5-13.2-13.1
					c-0.6-1-1.3-2.3-1.6-3.3c-0.5-1.5,1-3.7,0.5-5.2c-1.7-5.2-5.2-9.5-6.9-14.7c1.6-1.2,2.7-1.9,5.1-3.8
					c11.4,23.9,11.4,23.9,20.9,26.9c0.7-1.2,0.7-2.7,1.7-3.8c2.4,0.1,3.9,2.1,6,2.7c0.5,3.5,0.8,5.9,1.2,9.9c4.2,3,3.2-5.2,2.8-7.8
					c-0.6-3.8-1.9-5-3.1-6.1c1.1-1.4,1.4-1.7,2.3-3c1.6,4,3.2,7.7,4.8,13.4l0,0C772.3,480.8,773.2,489.6,770.9,492z M765.9,695.8
					c3.5-7.4,6.2-13.1,8.3-17.7C771.3,684.9,768.5,690.8,765.9,695.8z M795.6,609.9c-1.2,5.7-2.5,11.1-3.9,16.3
					c2.5-61.8-2.4-75.9-14.1-109.5c0.5-1,1.1-2.2,1.6-3.2c3.6,6.4,21.3,41.2,14.4,101.4c0.9-2.2,1.5-3.9,2.1-5.8
					C795.7,609.4,795.7,609.7,795.6,609.9z"/>
				<path id="XMLID_111_" class="st3" d="M798.9,594.7l0.1-0.5c0-0.1,0-0.2,0-0.4L798.9,594.7z"/>
				<path id="XMLID_112_" class="st3" d="M765.2,697.2c0-0.1,0.1-0.1,0.1-0.2l-0.8,1.6L765.2,697.2z"/>
				<path id="XMLID_113_" class="st3" d="M707.3,775.2c5.5-5.3,9.5-9.6,11.4-11.7C715.3,767,711.2,771.3,707.3,775.2z"/>
				<path id="XMLID_114_" class="st3" d="M798.5,493.6C798.5,493.6,798.4,493.6,798.5,493.6l0.1,0.5L798.5,493.6z"/>
				<path id="XMLID_115_" class="st3" d="M476.4,254c0.1,0,0.1-0.1,0.1-0.1C476.5,253.9,476.4,254,476.4,254
					C476.4,254,476.4,254,476.4,254z"/>
				<path id="XMLID_116_" class="st3" d="M540.8,273.2c2.2-0.7,3.9-1.2,4.1-3.4c0.3-3.2-2.7-5.2-3.2-8.2c-0.2-1.5-1.6-2.8-3.6-4.9
					c0.2-1.2,0.4-3.2-0.6-5.9c-0.1-0.2-0.7-1.8-2.3-2c-2.9-0.2-6.3-2.8-7.5-3.6c-0.1,0-0.1,0-0.2,0c-0.1,0-0.1,0-0.2,0
					c-0.1,0-0.1,0-0.2,0c-0.1,0-0.1,0-0.2,0c-0.1,0-0.1,0-0.2,0c-0.1,0-0.1,0-0.2,0c-0.1,0-0.1,0-0.2,0c-0.1,0-0.1,0-0.2,0.1
					c0,0.1-0.1,0.3-0.1,0.4c-2.6,0.5-4.9,1.7-7.4,2.2c-4.9,1.1-9,4.5-14.2,4.9c-4.3,6.1-4.1,6.3-0.5,6.7c6.4,0.7,3,7-0.7,13.7
					c1,1,1.8,1.7,2.9,2.6c-0.1,0.2-0.3,0.6-0.4,0.8c-0.4,0.1-0.4,0.1-2.6-0.9c-0.7,5.9-0.7,5.9-1,6.5c-2.1,0.6-3.9,1.2-5.7,2.9
					c-4,3.9-8.4,22.7-8.4,24.6c0,0,0.1,4.1,0.9,5.3c1,1.5,2.9,0,4,1.2c1.2,1.3,1.1,3.4,2.5,4.6c0.2,0.2,0.4,0.4,0.6,0.5
					c1.8,1,2.6,0.3,10.5-9.2c2.9-3.4,4.4-7.8,7.7-10.9c1.9-1.8,3-2.5,6.6-2.6c1.2,0,3-0.1,4.8-1c0.3-0.2,0.8-0.4,1.1-0.6
					c2.2-1.3,3.3-3.6,5-5.4c0.7-0.7,1.1-0.7,1.3-0.7c1.9-0.1,7.7-0.4,11-4.5C548.4,280.8,546.9,279,540.8,273.2z"/>
				<path id="XMLID_117_" class="st3" d="M800.8,511.2l0-0.5l0.2,3.4c0,0.1,0,0.1,0,0.2C801,513.4,800.9,512.2,800.8,511.2z"/>
				<path id="XMLID_118_" class="st3" d="M794.5,617.8c-0.2,0.7-0.3,1.4-0.5,2.1c0-0.1,0-0.1,0.1-0.2L794.5,617.8z"/>
				<path id="XMLID_119_" class="st3" d="M481.9,252.2c-0.7,0.6-0.4,1.7-1.1,2.4c-1,0.9-2.3,1.3-3.4,1.9c2,1.4,4.9,3.6,6.3,3.5
					c2.9-0.1,4.7-2.5,7.2-3.5c0.9-0.4,1.8-0.4,2.7-0.6l17.1-5.9c4.2-1.7,5.2-2.6,5.5-3c0.1-0.1,0.1-0.1,0.4-1.1c-1.6,0-3-0.7-4.5-1
					c-3-0.5-6.7,0.6-8.7,1.3c0,0-0.6,0.9-1,1.8c-0.3,0.7-3.6,2.6-3.6,2.6c-1,0.4-1.2,0.5-2,0.6c-5.7,0.6-8.4,1.8-11.3,3
					c0.2-0.4,0.5-0.8,0.6-1.2c-0.4-0.1-0.9,0.1-1.3-0.1c-0.1-0.4-0.1-0.4,0.5-1.3c0.1,0,0.5-0.1,3.2-0.5l0,0c0.4-0.1,0.4-0.1,1.9-1
					c0-1.4,0.2-2.2,0.6-3.7c-0.7,0.1-3.8,1.2-4.7,2c-0.5,0.5-0.9,1.6-1.1,3.2C482.9,251.3,482.8,251.3,481.9,252.2z"/>
				<path id="XMLID_120_" class="st3" d="M256,553.6c-0.7-3.6-2-9.7-10.2-16.6c-9.4-7.9-9.4-7.9-12.1-12.1
					c-5.5-8.6-7.7-18.8-13.3-27.4c-1.4-2.1-2.2-3.3-4.2-4.6c-5.7-2.6-10.1-0.6-14.6,6.7c10-0.3,10.2-0.3,12.7,3
					c9,11.7,8.5,19.8,8.2,24.2c7.3,6.7,7.3,6.7,8.2,7.1c3.7,1.5,3.7,1.5,4.2,2c0.8,0.8,0.8,0.9,3.2,7.2c-4.2-0.9-5.6-1.3-7.4-1.7
					c-0.3,1.2-0.6,2.3-0.9,3.5c10.2,7.2,16.4,11.6,25.8,9l0,0C255.7,553.7,255.9,553.6,256,553.6z"/>
				<path id="XMLID_121_" class="st3" d="M559.9,298.2c-1.8,0.9-2.2,0.9-6.1,1.3c-2.1,0.2-3.2-2-5.1-2.2c-1.4,0.1-2,1.1-2.6,4.7
					c0.2,0,0.3,0,0.5,0c0.1,0,0.3,0,0.4,0c0.1,0,0.3,0,0.4,0c0.1,0,0.3,0,0.4,0c0.1,0,0.3,0,0.4,0c0.1,0,0.2,0,0.4,0
					c0.1,0,0.2,0,0.3,0c0.1,0,0.2,0,0.3,0c0.1,0.3,0.2,0.6,0.2,0.9c0.1,0.3,0.2,0.6,0.2,0.9c0.1,0.3,0.2,0.6,0.2,0.9
					c0.1,0.3,0.2,0.6,0.2,0.9c0.1,0.3,0.1,0.6,0.2,0.9c0.1,0.3,0.1,0.6,0.2,0.9c0.1,0.3,0.1,0.6,0.2,0.8c0.1,0.3,0.1,0.5,0.2,0.8
					c2.7,1.5,10.9,5.9,16.5-5c0.1-0.2,0.3-0.6,0.4-0.8c-2.5-2.7-4.4-4.8-6.2-5.4C561.3,298,560.6,297.9,559.9,298.2z"/>
				<path id="XMLID_122_" class="st3" d="M461,249.9c3.7,2.4,6,2.8,6,2.8c0.4,0.1,0.4,0.1,4.9-1.1c0.8-0.2,0.8-0.2,1.9-0.8
					c0.3-1.2,0.4-1.4,0.1-1.5c-0.2-0.1-0.6,0-0.8,0.1c-2.4,0.6-3.3,0.7-3.6,0.5c0.1-0.3,0.4-0.6,2.2-1.5c2.8-1.4,3.5-1.9,2.9-2.4
					c0,0-4.7-1.2-10.7,0.7c0.2,0.8,0.4,1.2,0.6,1.7C463.3,248.6,462,248.9,461,249.9C461,249.8,461,249.9,461,249.9z"/>
				<path id="XMLID_123_" class="st3" d="M596.1,378.9c2.3-3.5,7.5-3.6,9-7.9c0.5-1.5,0.3-3.4,0.3-3.5c-0.4-3.5-1.4-6.8-1.9-10.2
					c0-0.3-0.1-0.6-0.1-0.9c-5.5-2.2-5.5-2.2-6.5-2.3c-0.1,0-0.5,0-0.8,0.2c-1,1-0.8,2.7-1.8,3.8c-0.8,0.9-2.2,0.4-3,1.3
					c-0.2,0.2-0.5,0.6-0.5,0.9c-0.5,2,0.7,4.4,2.8,7.8c-0.8,1.2-1.7,2.5-2.5,3.7C592.7,374.1,594.4,376.5,596.1,378.9z"/>
				<path id="XMLID_124_" class="st3" d="M499.7,249.7L499.7,249.7c0.7-0.3,3.3-3.2,2.4-3.5c-1-0.1-4.4,1-7.4,2.3
					c0,0-2.4,1.7-2.5,2.2C492,251.4,496.2,251.2,499.7,249.7z"/>
				<path id="XMLID_125_" class="st3" d="M473.4,254.1c0.6,0.4,2.3,0.1,3.2-0.1c1.5-0.4,2.8-1.1,4.1-1.7c0.5-0.2,0.5-0.2,2-1
					c-0.1,0-0.2,0-0.3,0c-1.4-0.1-2.7-0.2-4.1-0.3c0.5-0.9,0.6-1.2-2.8-0.2c-1.1,0.3-1.1,0.3-2,1.7C473,253.2,473,253.8,473.4,254.1
					z"/>
				<path id="XMLID_126_" class="st3" d="M476.6,253.9L476.6,253.9c0,0-0.1,0-0.1,0.1L476.6,253.9z"/>
				<path id="XMLID_127_" class="st3" d="M476.4,254L476.4,254C476.4,254,476.4,254,476.4,254L476.4,254z"/>
				<path id="XMLID_128_" class="st3" d="M280.5,566.4c-0.1,0-0.2,0-0.2-0.1c0.6,5.7,1.7,11.4,2.3,17.1c0.6,5.3-0.5,10.7,0.6,16
					c0.9,4.2,2.6,6.5,6,9.7c0.2,0.2,0.5,0.5,0.8,0.7c-5.2-10.5-5.2-10.5-5.5-22.7C284.2,571.6,284.1,568.4,280.5,566.4z"/>
				<path id="XMLID_129_" class="st3" d="M241.8,490.7c-0.8-3.9-0.8-3.9-0.9-4c0,0-5.1-1.2-7.6,1.4c0,0-0.6,0.6-1.2,2.4
					c-0.8,2.4-1.3,4.9-2.1,7.3c3.4-2.1,6.7-4.2,11.4-7C241.5,490.8,241.7,490.7,241.8,490.7z"/>
				<path id="XMLID_130_" class="st3" d="M481.9,247.3c0.2-0.1,0.4-0.1,0.6-0.2c0-0.4,0-0.5-0.2-0.6c-0.8-0.3-4.1,0.6-4.1,0.6
					c0,0-0.6,0.5-0.8,0.8C477,248.7,478.5,248.3,481.9,247.3z"/>
				<path id="XMLID_131_" class="st3" d="M265,555.8c-0.5-0.2-1-0.2-1.4-0.1c-1.1,0.2-2,0.7-3.1,1c0.5,1.4,0.9,2.9,1.5,4.2
					c0.1,0.2,0.5,1,1,1.2c0.4,0.2,0.9,0.3,1.5,0.2c1.4-0.2,2.7-0.8,4.1-1.1c0.2,0,0.4-0.1,0.5-0.1c-1.1-1.4-2-3-3.1-4.4
					C265.6,556.1,265.2,555.9,265,555.8z"/>
				<path id="XMLID_132_" class="st3" d="M677.6,428.7c-1.3,1.1-2.3,2-2.2,3.3c0.1,3,2,5.2,2.8,7.9c0.1,0.5,0.2,0.8,0.1,1
					c-0.5,1.4-0.8,2.3-0.3,4.9c0,0.1,2.8,10.5,5.3,12.2c1.4,1,3.8-2,2.3-7.9C685.2,448.5,683.6,443.7,677.6,428.7z"/>
				<path id="XMLID_133_" class="st3" d="M736.4,453.1c-0.5,1.4-0.9,2.3-2,4.3c3.1,1.6,6.2,3.2,9.3,4.8c-0.1-0.5-0.1-1-0.2-1.5
					C743.6,460.6,743.6,460.4,736.4,453.1z"/>
				<path id="XMLID_134_" class="st3" d="M655.2,461.9c2.2-2,5.6-5.1,9.3-9c0.1-0.1,0.2-0.2,0.3-0.3c-0.4-0.7-0.7-1.5-1.1-2.2
					C659.2,451.1,656.7,454.5,655.2,461.9z"/>
			</g>
			<path id="XMLID_91_" class="st4" d="M727.7,336.9c23.8,53.3,33.6,113.7,25.2,175.8c-24,177.6-187.5,302.1-365.1,278.1
				c-83.1-11.2-154.6-53-204.7-112.5C227.5,777.4,320.5,852,436,867.6c177.6,24,341.1-100.5,365.1-278.1
				C813.9,495,784.7,404.6,727.7,336.9z"/>
		</g>
	</g>
	<g id="XMLID_1_">
		<path id="XMLID_2_" class="st5" d="M435.4,872c-43.6-5.9-84.8-20.1-122.4-42.2c-2.1-1.2-2.8-3.9-1.6-6c1.2-2.1,3.9-2.8,6-1.6
			c36.6,21.5,76.7,35.3,119.1,41c118.7,16.1,234.4-34.2,303.7-131.5c-82.1-18-138.8-57.7-172.2-88.2
			c-43.8-40.1-73.5-88.4-81.3-132.7c-7.8-44.1,6.3-79.7,39.7-100.2c16.9-10.4,33.5-16.4,49.3-18.1c1.1-32.6,13.3-59.9,33.9-75.2
			c0.9-0.7,1.8-1.3,2.6-1.9c36-25.6,85.3-19.6,114.6,14c62.6,71.6,91.2,166.6,78.4,260.8c-6.6,49-23.6,94.6-50.4,135.6
			c9.4,1.7,18.8,3.1,28.2,4.1c2.4,0.3,4.2,2.4,3.9,4.9c-0.3,2.4-2.4,4.2-4.9,3.9c-10.8-1.2-21.8-2.8-32.6-4.9
			c-33.8,48.6-80,87.2-134,111.8C573,865,526.7,875,479.8,875C465.1,875,450.2,874,435.4,872z M617.6,322.6
			c-0.8,0.6-1.7,1.2-2.5,1.8c-18.3,13.6-29.2,38.1-30.3,67.6c49,0,72.5,42.5,78.7,55.8c11.5,24.9,12.3,49.9,2,60.8
			c-4.3,4.5-12.4,8.8-26.3,3.2c-40.4-16.2-62-66.9-63.3-110.5c-14.2,1.6-29.2,7.2-44.6,16.7c-30.2,18.5-42.8,50.9-35.7,91.2
			c7.5,42.4,36.2,88.9,78.6,127.7c33.1,30.3,89.6,69.7,171.7,86.9c27.2-40.6,44.4-86,51-134.9c12.4-91.6-15.4-184.1-76.3-253.8
			c-15.4-17.6-36.9-26.8-58.6-26.8C646.5,308.4,631,313.1,617.6,322.6z M642.4,503.7c7.5,3,13.1,2.6,16.6-1.1c7.7-8.1,6.1-30-3.6-51
			c-5.6-12.1-26.9-50.7-70.8-50.7C585.7,441.6,605.4,488.9,642.4,503.7z"/>
		<g id="XMLID_5_">
			<path id="XMLID_11_" class="st5" d="M910,868.8c31.6,0,51.8-39.8,52.6-41.5l-3.5-1.7c-0.2,0.4-20.7,40.8-50.9,39.3
				c-10.3-0.5-27-7-43.7-16.9l-2,3.4c17.5,10.3,34.5,16.8,45.5,17.4C908.7,868.8,909.4,868.8,910,868.8z"/>
			
				<ellipse id="XMLID_3_" transform="matrix(0.491 -0.8712 0.8712 0.491 -230.2481 1257.6531)" class="st5" cx="961.1" cy="825.9" rx="5" ry="5.6"/>
			<path id="XMLID_7_" class="st5" d="M968.8,814.9c-4-2.3-8.9-1.2-11,2.4c-2,3.6-0.4,8.4,3.6,10.6c4,2.3,8.9,1.2,11-2.4
				C974.5,821.9,972.8,817.1,968.8,814.9z"/>
			<path id="XMLID_10_" class="st5" d="M863.6,854.1c1.5,0,3-0.8,3.8-2.2c1.2-2.1,0.5-4.8-1.6-6c-17.5-10.3-60-39.5-76.6-86.5
				c-7.4-20.9,0.3-44.2,18.8-56.5c41.5-27.7,93-25.6,113.2-23.4c2.4,0.3,4.6-1.5,4.9-3.9c0.3-2.4-1.5-4.6-3.9-4.9
				c-21.2-2.3-75.1-4.5-119,24.8c-21.8,14.6-31,42.1-22.2,66.8c17.6,49.8,62.1,80.4,80.4,91.2C862.1,853.9,862.8,854.1,863.6,854.1z
				"/>
			<path id="XMLID_6_" class="st5" d="M987.6,752.3c0.4-1.9,8.4-47.6-18.9-65.9c-9.2-6.2-26.7-11.1-46.8-13.3l-0.4,3.9
				c19.3,2.1,36.5,7,45.1,12.7c25.1,16.8,17.3,61.5,17.2,61.9L987.6,752.3z"/>
			<path id="XMLID_9_" class="st5" d="M984.8,757.5c-3-0.4-5.2-2.9-4.9-5.7c0.4-2.7,3.1-4.6,6.2-4.2s5.2,2.9,4.9,5.7
				C990.6,756,987.9,757.9,984.8,757.5z"/>
			<path id="XMLID_8_" class="st5" d="M985.1,766c-4.6-0.6-7.8-4.4-7.3-8.5c0.5-4.1,4.7-7,9.2-6.4c4.6,0.6,7.8,4.4,7.3,8.5
				C993.8,763.7,989.7,766.6,985.1,766z"/>
		</g>
	</g>
</g>
<g id="XMLID_21_">
	<path class="st6" d="M554,464.1c2.5,1.7,4.5,4,6.2,6.5c0.9,1.2,1.6,2.6,2.3,3.9c0.7,1.3,1.3,2.7,1.9,4.1c0.5,1.4,1,2.9,1.4,4.3
		l1,4.4c0.5,3,0.9,6,1,9c0.2,3,0,6-0.2,9l-0.1,1.1l-0.1,1.1l-0.3,2.2c-0.2,1.5-0.4,3-0.7,4.4c-0.7,2.9-1.3,5.8-2.1,8.7
		c-0.9,2.8-1.8,5.7-2.9,8.4c0.4-3,1-5.9,1.6-8.7l1.3-8.7c0.1-1.5,0.2-2.9,0.4-4.4l0.2-2.2l0.1-1.1l0-1.1c0.1-2.9,0.3-5.8,0-8.7
		c-0.2-5.8-1-11.6-2.7-17.1c-0.5-1.4-1-2.7-1.5-4.1c-0.6-1.3-1.1-2.7-1.9-3.9C557.7,468.7,556.1,466.2,554,464.1z"/>
</g>
<g id="XMLID_22_">
	<path class="st6" d="M569.6,473.2c1.7,2.6,2.8,5.5,3.6,8.5c0.8,3,1.3,6,1.6,9.1c0.3,3.1,0.3,6.1,0.1,9.2c-0.1,1.5-0.3,3-0.5,4.6
		c-0.2,1.5-0.5,3-0.9,4.5c-0.1-1.5,0-3.1,0-4.6c0-1.5,0-3-0.1-4.5c-0.1-1.5,0-3-0.2-4.5c-0.1-1.5-0.2-3-0.3-4.5
		c-0.3-3-0.7-6-1.2-8.9C571.2,479.1,570.6,476.1,569.6,473.2z"/>
</g>
<g id="XMLID_23_">
	<path class="st5" d="M368.2,491.6c-1.5,7.1-2.5,14.2-3.3,21.3c-0.7,7.1-1.1,14.3-1,21.4c-0.1,3.6,0.2,7.1,0.3,10.7l0.5,5.3
		c0.1,0.9,0.1,1.8,0.2,2.7l0.4,2.7c0.8,7.1,2.4,14.1,4,21.2c-0.7-1.7-1.3-3.4-1.9-5.1l-0.9-2.6c-0.3-0.9-0.5-1.7-0.8-2.6l-1.4-5.3
		c-0.4-1.8-0.7-3.6-1.1-5.3l-0.5-2.7c-0.1-0.9-0.2-1.8-0.4-2.7l-0.7-5.4c-0.2-3.6-0.5-7.3-0.5-10.9c-0.1-3.6,0.1-7.3,0.4-10.9
		l0.5-5.4c0.2-1.8,0.5-3.6,0.7-5.4C364,505.5,365.7,498.4,368.2,491.6z"/>
</g>
<g id="XMLID_24_">
	<path class="st5" d="M351,528.9c0.5,5.4,1.2,10.6,2,15.9c0.4,2.6,0.9,5.2,1.4,7.8c0.5,2.6,1.1,5.2,1.8,7.7c1.3,5.1,3,10.1,5.1,14.9
		c1.1,2.4,2.3,4.8,3.6,7.1c1.3,2.3,2.8,4.5,4.5,6.6c-2.1-1.7-3.9-3.8-5.6-5.9c-1.6-2.2-3.1-4.5-4.4-6.9c-1.3-2.4-2.4-4.9-3.4-7.4
		c-1-2.5-1.7-5.1-2.5-7.8c-1.3-5.3-2.3-10.6-2.7-16C350.4,539.7,350.3,534.3,351,528.9z"/>
</g>
</svg>
