<?xml version="1.0" encoding="utf-8"?>
<!-- Generator: Adobe Illustrator 23.1.0, SVG Export Plug-In . SVG Version: 6.00 Build 0)  -->
<svg version="1.1" id="Layer_1" xmlns="http://www.w3.org/2000/svg" xmlns:xlink="http://www.w3.org/1999/xlink" x="0px" y="0px"
	 viewBox="0 0 270.8 177.5" style="enable-background:new 0 0 270.8 177.5;" xml:space="preserve">
<style type="text/css">
	.st0{fill:#007BC0;}
	.st1{fill:#4AB7E9;}
</style>
<g>
	<g>
		<polygon class="st0" points="9,112.5 43.3,112.5 43.3,121.3 22.8,121.3 22.8,135.1 39.6,135.1 39.6,142.8 22.9,142.8 22.9,156.4 
			44.9,156.4 44.9,165.7 9,165.7 		"/>
		<path class="st0" d="M78,127.9v9.1c0,0-9-3.9-13.8-2.6c-2.4,0.4-6.1,3.2,0.5,5.1c3.1,1.1,16.7,5,16.4,14.2
			c-0.3,9.6-12.8,11.8-18.4,11.9c-5.7,0.1-15.8-1.9-15.8-1.9v-9.6c0,0,8.4,3.5,14,3.6c2.5,0.1,3.9-0.5,4.7-1.1
			c0.9-0.8,1.2-3.4-7.8-6.8C45.3,145.4,47,136.9,47,136.9S48,126.2,64.1,126C72.5,126,78,127.9,78,127.9z"/>
		<path class="st0" d="M115.7,114.3v9.9c0,0-11-4.2-16.1-2.4c-2.3,0.7-5.9,4.7,1.7,8.8c2.9,1.7,18,8.3,18.1,19.9
			c0,12.5-14.4,15-20.1,15.1c-5.7,0.2-15.9-1.6-15.9-1.6l0-10.4c0,0,8.6,3.1,14,3c2.7-0.1,4.6-0.9,5.8-1.9c3.7-2.9,2.5-5.9-9.6-12.8
			c-17.6-9.6-11.9-29.5,7-29.5C110.8,112.7,115.7,114.3,115.7,114.3z"/>
		<path class="st0" d="M156.5,156.8c0,0-0.9-0.3-1-1.5c0-1.1,0.2-17.2-0.2-20c-0.7-3.2-2.6-8.8-16.9-9h-0.5
			c-11.1,0.4-14.1,2.6-14.1,2.6v8.7c0,0,5.9-3.5,12.1-3.3c0.7,0.1,1.4,0.1,2,0.2c4.3,0.7,4.6,3.2,4.6,6.7c-1.6-0.1-3.2-0.1-4.6-0.1
			c-3.8,0-17.7,2.4-17.3,13.6c0.4,11.1,12.1,11,12.1,11s2.5,0.2,5.1-0.8c1.6-0.6,3.5-2,4.6-3.6c2.2,4.5,8,4.4,8,4.4s7,0,8.4-0.9
			c0-1.3,0-8.1,0-8.1H156.5z M142.5,154.1c0,0-2.1,2.5-4.5,2.7c-0.3,0-0.5,0-0.7,0c-2.7-0.1-3.6-2-3.7-3.6c0-1.4,0.7-3.7,4.5-4.4
			c0.2,0,0.4-0.1,0.6-0.1c3.4-0.3,3.9-0.1,3.9-0.1V154.1z"/>
		<polygon class="st0" points="175.2,114.6 175.2,165.6 161.5,165.6 161.5,112.5 175.2,112.5 		"/>
		<path class="st0" d="M179.9,128.1h13.8v25.4c0,0,0.4,2.6,2.8,2.6c2.5,0,6.6-3.6,6.5-6.7c0-3.1,0-21.2,0-21.2l13.6,0l0,37.6
			l-13.8,0c0,0,1.2-5,0.7-7c-1.2,1.6-4.6,7.1-13,7c-8.4-0.2-10.6-6.9-10.6-9.2C179.9,155.9,179.9,128.1,179.9,128.1z"/>
		<path class="st0" d="M245.5,112.5l0,18.8c0,0-1.2-2.1-5.8-3.3c-1.4-0.4-3.5-0.7-5-0.7c-9.7,0-15.5,9.1-15.5,20.1
			c0,11,4.9,18.4,14.6,18.4c7,0,12.4-7.1,12.4-7.1l-1,7.1h14.3v-53.2H245.5z M245.5,151.1c0,0-1.7,4.8-5.8,5h-0.4
			c-3.2-0.1-5.6-3.6-5.5-9.7c0.2-5.8,2.2-10.3,5.8-10.7h0.5c3.9,0.1,5.4,3.3,5.4,3.3V151.1z"/>
	</g>
	<g>
		<g>
			<path class="st0" d="M158.7,76.1l-10.8-5.9l11,34.5h10l0.9-2.7l-7.5-27.6L158.7,76.1z M131.8,84.6l-2.7,20.1h8.3l-0.4-17.9
				L131.8,84.6z M89.8,32.7l-28,20.9l4.4,7.1l17.2-13.1L71.7,83.5l6.2-0.6l-6.3,21.9h9.8l5.9-22.8l7.9-0.7l8.3,23.5h10.2l-2-5.4
				l-0.4-0.8l-0.2-0.8l-6.5-17.7l6.3-0.6l-8.4-33.3l19,12.5l1.8-4.1l0.3-4.1l14-9l-0.1,4c0.9-0.5,2-1.6,3.6-1.5
				c6.2,0.5,5.4,6.9,4.9,9c0,1.8,0.5,2.3,1.8,2.6c-1.1,2-4.5,2.6-4.5,2.6c4.7,3.7,13.9,11.8,13.9,11.8l3.4-2.4l-0.8-3.2V42.5
				c4.1,2.9,8.2,5.9,12.4,8.8c0.1-3.1,2-6.2,5.5-7.4c-7.6-6-15.2-12-22.7-18c2.6-1.6,4.4-4.5,4.4-7.7c0-5-4-9-9-9c-5,0-9,4-9,9
				c0,3.4,1.9,6.3,4.6,7.9l-29.8,20c0,0-15.3-11.8-17-13L89.8,32.7z"/>
			<path class="st1" d="M132.4,54.8L132.4,54.8C132.4,54.8,132.4,54.8,132.4,54.8z"/>
			<path class="st1" d="M191.2,64.3l11-2.9l-3-8.3c-4.1,0.8-8.2,1.5-12.3,2.3c0.7-1.2,1.1-2.5,1.1-3.9c0-1.9-0.7-3.6-1.8-5
				c-0.1-0.1-0.2-0.2-0.3-0.3c-0.1-0.1-0.2-0.3-0.3-0.4c-0.7-0.7-1.4-1.2-2.4-1.6c0,0-0.1,0-0.1,0c-0.3-0.1-0.7-0.2-1-0.3
				c-0.6-0.2-1.3-0.3-2-0.3c-0.7,0-1.4,0.1-2.1,0.3c0,0,0,0,0,0c0,0-0.1,0-0.1,0l0,0c-3.3,1-5.7,4-5.7,7.5c0,2.8,1.4,5.2,3.6,6.6
				l-18.3,11.6c-4.7-3.7-9.2-7.5-13.9-11.2c0,0,3.5-0.6,4.6-2.6c-1.3-0.4-2.1-1.3-1.7-3c0.5-2.1,0.9-8.3-5.3-8.8
				c-1.6-0.2-2.8,0.1-3.7,0.6c-2.7,1.5-3,5.3-3.2,6.8c-0.2,0.9-1.6,1.9-3.1,0.7c-0.1,0.8,0.9,2.2,1.2,2.6l0.1,0.1c0,0,0,0-0.1-0.1
				l-14.5-8.4l-5,6.6l16.8,11l-14.4,13.5l0,0l-0.2,0.2l6.1,2.6l-10.8,18.9l7.5,0.8L130,84l6.9,2.9l0.4,17.7h6.3l1-14.4l4.8,2
				l-2.5-20.1l11.9,5.3l14.2-7.2l-5.3,34.4h8.8l4.2-17.4l7.6-2.4l11.3,14.2l7.1-5.8L191.2,64.3z"/>
		</g>
		<path class="st0" d="M99.2,34.1c2.2-0.6,4.6-2,6.4-4.6c-2.6-0.5-3.3-1.5-3.6-2.7c-0.7-2.7,0.5-9.3-7.8-10h0.2
			c-8.3,0.7-7.1,7.3-7.8,10c-0.3,1.3-1,2.3-3.6,2.7c1.8,2.6,4.2,3.9,6.4,4.6H99.2z"/>
	</g>
</g>
</svg>
