<?xml version="1.0" encoding="utf-8"?>
<!-- Generator: Adobe Illustrator 23.1.0, SVG Export Plug-In . SVG Version: 6.00 Build 0)  -->
<svg version="1.1" id="Capa_1" xmlns="http://www.w3.org/2000/svg" xmlns:xlink="http://www.w3.org/1999/xlink" x="0px" y="0px"
	 viewBox="0 0 864.4 725.8" style="enable-background:new 0 0 864.4 725.8;" xml:space="preserve">
<style type="text/css">
	.st0{opacity:0.1;fill:#35495E;enable-background:new    ;}
	.st1{fill:#40E0D0;}
	.st2{fill:#72B5B7;}
	.st3{opacity:0.5;fill:#40E0D0;enable-background:new    ;}
	.st4{fill:#35495E;}
	.st5{fill:#FFFFFF;}
</style>
<ellipse id="XMLID_32_" class="st0" cx="411.2" cy="519.6" rx="153.5" ry="37.4"/>
<g id="XMLID_16_">
	<g id="XMLID_4_">
		<g id="XMLID_50_">
			<ellipse id="XMLID_20_" class="st1" cx="344.5" cy="353" rx="324.5" ry="324.5"/>
			<g id="XMLID_43_">
				<path id="XMLID_71_" class="st2" d="M247,661.5c-2.7-4.9-2.9-11-6.7-15.4c0.3-1,0.8-2.3,1.1-3.2c18.2-2.7,18.2-2.7,19.2-4.2
					c6.8-9.8-0.5-21,3.3-31.1c3.7-9.9,16.6-12.6,18.6-23.8l0,0c1.8-12.3-3.5-15.2-9.6-18.7c-69.7-39.5-70.9-42.6-72.5-46.8
					c-0.3-0.7-3.1-8.9-4.1-12.6c-8.7-30.6-51-38.1-51-74.6c-0.7-0.6-1.7-1.4-2.5-2.1c-0.8,0.5-1.8,1.2-2.6,1.8
					c-0.5-1.1-1.1-2.5-1.5-3.5c-20.2-5.3-20.2-5.3-35.4-21.9c-1.7,1-4,2.3-5.8,3.3c-0.4-0.2-0.9-0.4-1.3-0.5c1.2-1.8,2.8-4.1,4-5.9
					c-3.8-4.5-17.4-5.7-25.3,12.7c-5.5-3.1-9-9.5-16.1-10.2c-13.2-19.3,15.5-53-13.1-63.4c3-13.3,13.7-23.3,15.5-37.1
					c0.5-3.7-4.7-10.1-9.9-5.3c-3.7,3.4-4.3,8.6-6.9,12.6c-22.7-2.6,13.2-67.3,13.7-68c9.1-10.7,10.4-9.2,22.2,4.7
					c1-1.9,2.3-4.3,3.3-6.2c5.8,3.1,8,9.7,13.2,13.3c-1.5,11.9-7.7,22.8-7.4,35c18.7-7.4,11.2-29.5,22.8-40.9
					c10.6-10.4,27.5-7.8,38.1-18.2c0.9-0.9,2-2.3,2.8-3.4c15.1-21,40.9-28.2,83.5-40.1c-2.9,3.5-7.4,5.2-9.9,9.1
					c0.7,0.6,1.6,1.5,2.3,2.1c7.2-4.2,17.2,0.2,23.4-7.4c-1.5-2.4-1.5-2.4,6.3-22.5c-0.5-0.8-1.1-1.9-1.5-2.7
					c-2.2-0.6-5.1-1.1-7.4-1.3c13.7-6.5,27.8,2.7,41.5-1.2c-2.3,3.6-2.3,3.6-23.1,18.2c5.7,4.7,13.5,5.3,19.1,10.3
					c5.4-2.8,5.5-3,10.1-15.1c0.5-1.9,0.2-1.9,0-2c-0.3-0.1-0.5-0.1-0.8-0.2s-0.6-0.1-0.9-0.2s-0.6-0.1-0.9-0.2s-0.7-0.2-1-0.2
					c-0.3-0.1-0.7-0.2-1-0.2c-0.4-0.1-0.8-0.2-1.1-0.3c-0.4-0.1-0.8-0.2-1.2-0.3c14.3-16.6,13.8-39.2,23.4-57.7
					c-12.4,5.9-12.4,5.9-16.1,4.4c6.7-14,6.7-14,6.7-15.7c-6.1-5.3-7.4-6.4-18.7,3.1c-30.2,25.5-54,31.9-56.6,32.5
					c2-6.2,2-6.2,15.1-15.1c-3.8-12.3-10-32.9,50.8-36.6c-2,1-4.7,2.2-6.8,3.2c0.6,0.7,1.3,1.7,1.9,2.5c0.9-0.2,2.2-0.5,3.1-0.7
					c1.6,1,4.2,1.7,6,1.7c3.5-6.1,3.7-6.3,6.2-9.6c10.2,4.6,15.8-5.7,24-7.5c0.8,0.6,1.9,1.3,2.7,1.9c-2.5,11.8-15.1,13-18.5,10.7
					c-2.4,1.1-5.3,3-7.3,4.6c1.7,0.8,4.1,1.7,5.9,2.3c1.1,10.9,1.1,10.9,3.2,12.4c5.2-4.5,13.4-5.5,15.6-13.5
					c7.1,8.4,13.3-4,13.3-4.2c0.5-1.9-0.7-4.7-1.4-6.5c4.7-4,3.3-10.4,5.9-15.3c-0.9-0.4-2-1-2.9-1.4c-0.7,0.6-1.7,1.5-2.4,2.1
					c0.6-0.8,1.4-1.9,2-2.7c-1-0.5-1-0.5-34.9,12.5c9.8-9.1,23.1-12.2,33.6-20.1c-1.5,0-1.5,0-21.2,7c0.2-0.1,0.4-0.3,0.5-0.4
					c7.7-3.5,7.7-3.5,10.3-5c-13.2-2.8-19.6,10.6-30.7,12.9c1.9-1,4.3-2.5,6.2-3.5c-4.4-1.4-8.3,1.7-12.6,1.5
					c-0.6-0.7-1.4-1.7-2-2.4c11.3-0.7,11.3-0.7,28.1-9.7c-1.9-0.2-4.4-1-6-2c1.7-1.1,3.7-2.9,5-4.4c-5.9-1-16.6,0-21.9,1.5
					c0.8,0.6,1.9,1.4,2.7,2c-2.8,1.5-2.8,1.5-14.3,5.1c0.5-0.9,1.2-2.1,1.8-3c-0.7-0.6-1.6-1.5-2.3-2.1c0.8-0.6,1.8-1.4,2.6-1.9
					c-2.4-0.8-5.7-1.8-8.2-2.4c0-1,0.1-2.2,0.1-3.2c2.6-2,4.8-4.5,7.2-6.7c-9.8-6.5-30.5-2.5-32.8-2.1c-2.4,0.6-2.5,0.7-2.7,0.7
					c-0.1,0.1-0.2,0.1-0.3,0.2c-0.1,0.1-0.2,0.1-0.3,0.2c-0.1,0.1-0.2,0.1-0.3,0.2c-0.1,0.1-0.2,0.1-0.3,0.2
					c-0.1,0.1-0.2,0.1-0.3,0.2c-0.1,0.1-0.2,0.1-0.3,0.2c-0.1,0.1-0.2,0.1-0.3,0.2c-12.6,0.9-12.6,0.9-25.6,5.4
					c-1.3,0.5-1.5,0.6-1.6,0.6c-0.1,0.1-0.3,0.1-0.4,0.2c-0.1,0.1-0.3,0.1-0.4,0.2c-0.1,0.1-0.3,0.1-0.4,0.2
					c-0.1,0.1-0.3,0.1-0.4,0.2c-0.1,0.1-0.3,0.1-0.4,0.2c-0.1,0.1-0.2,0.1-0.4,0.2c-0.1,0.1-0.2,0.1-0.4,0.2l-1,0.4
					c-2,0.5-4.3,1.4-6.4,2.3c0.4-0.2,0.9-0.4,1.5-0.7h0.1c-1.6,0.7-3.8,1.2-5.2,2.3l0,0c0.6-0.2,0.9-0.3,1.3-0.5
					c3.9-1,4.1-1,9.8-1.6c-0.1,0.1-0.2,0.1-0.3,0.2c-1.1,0.4-2.5,0.8-3.5,1.2c1.9,0.5,4.6,0.4,6.5,0c-18.2,18.5-43.9,23.8-65.1,37
					c0,0,0,0,0-0.1v-0.1V92v-0.1c0-0.1,0-0.1,0-0.2s0-0.1,0-0.2s0-0.1,0.1-0.2c0-0.1,0-0.2,0.1-0.3c-49.8,35.9-96.8,69.9-124,156.7
					c22.8-51.3,22.8-51.3,26.2-56.9c0.9-1.4,0.9-1.4,0.9-1.4l0,0l0,0l0,0l0,0l0,0l0,0l0,0c-36.6,90.7-36.6,90.7-36.8,111.3
					c-0.1,13.1,33.9,117.9,34.3,118.4c1.1-1.5,2.3-3.8,2.8-5.6c8,4.3,9.2,32.1,6.8,40.1c-16,53.5,73.6,167.3,157.3,202.3
					c-1.5-0.5-2.9-1-4.4-1.6c3.9,1.5,8.1,3.1,11.5,4.4c3.9,1.4,5.5,1.9,9.1,3c3.6,1.2,5,1.6,8.9,2.7l1.4,0.4l0,0l0,0l0,0
					c-0.1,0-0.1,0-0.2-0.1c-0.6-0.2-1-0.4-1.5-0.5c4,1,4.6,0.9,4.9,0.8c-0.3-0.1-0.7-0.3-1-0.4c19.2,3.9,37.8-1.4,44-3.2l0,0
					C283.4,665.4,265.5,665.4,247,661.5z M186.9,172.4c0-0.1-0.1-0.1-0.1-0.2c-1.2-1.6-2.9-1.2-3.6-1s-1.4,0.4-2.7,1.3
					c-1.7,1-3.3,2.3-5,3.4c0.4-2.5,0.8-4.7,0.8-4.7c0.2-0.4,0.8-0.9,1.7-1.5c2.9-2.1,3.6-3.5,3.1-6.2
					C185.4,163.1,190,164.3,186.9,172.4z M190.6,147.4c1.8,1.1-0.7,5.3-3.9,9c-0.2,0.3-0.6,0.6-0.8,0.9c-4.6-3-8.2-5.6-12.5-8.8
					C190.2,147.1,190.2,147.1,190.6,147.4z M175.5,161.7c-0.3,0.2-0.7,0.5-1,0.7l0,0c-20.2,13.5-20.2,13.5-25.1,16.5
					C158.8,167.3,170,161.1,175.5,161.7z"/>
				<path id="XMLID_94_" class="st2" d="M218.2,652.5c0.2,0.1,0.3,0.1,0.5,0.2c-0.2-0.1-0.5-0.2-0.7-0.3L218.2,652.5z"/>
				<path id="XMLID_95_" class="st2" d="M223.5,654.5c-1.6-0.6-3.2-1.2-4.8-1.9C220.2,653.3,221.8,653.9,223.5,654.5z"/>
				<path id="XMLID_96_" class="st2" d="M223.6,654.6C223.5,654.6,223.5,654.6,223.6,654.6C223.5,654.6,223.5,654.6,223.6,654.6z"/>
				<path id="XMLID_99_" class="st2" d="M667.1,369.4c0.8-10.5,0.7-15.3,0.4-27.4l-1.5-20.8c0-0.2-0.1-0.3-0.1-0.5
					c-0.8-9.5-1.3-12.6-2.8-21.5c1,6.7,1.4,11.3,1.3,13.7c-0.9-3.8-2-7.6-3-11.4c0.5,0.3,1.1,0.6,1.7,0.7c0-0.7-0.1-1.4-0.1-2
					c0,0.1,0,0.1,0.1,0.2c0-0.2-0.1-0.4-0.1-0.5c0-0.6-0.1-1.2-0.1-1.7c0.1,0.7,0.3,1.6,0.5,2.4l-2.1-11.9
					c-2.4-11.6-3.5-16.4-6.4-25.9c-2.5-9.4-4.2-14.1-8.3-25c-4.2-11-6.2-15.9-10.5-24.3c-3.9-8.7-6.4-13.2-12.3-23.5
					c-6.1-10.3-9.2-15.3-14.4-22.5c-5.1-7.6-8.5-12-16.2-21.4c-10-11.8-18.2-20.4-26-27.8c-6.2-6-13.1-12.2-21.5-18.9
					c-0.2-0.2-0.4-0.4-0.7-0.5c-1.8-1.4-3.6-2.9-5.6-4.4c-29.7-22.6-64.9-38.6-104-45.9h-0.1l0.2,0.1c13.4,4.4,25.6,11.6,38.5,17.2
					c-2-0.6-4.6-1.4-6.6-2c3.4,2.9,3.4,2.9,20,9.9c-1,0-2.2,0.1-3.2,0.1c4.1,4.1,6.3,9.7,10.7,13.6c-1.9-0.7-4.3-1.8-6-2.8
					c1.4,2.3,3.6,5.1,6.1,8c-11.3-8.3-32.4-10.8-32.6-10.8c-0.3,1.5-0.8,3.6-1.5,4.9c11.5,15,15.6,26.2,14.9,29
					c-3.3,12,12.9,27.7,17.8,28c0.7-2,1.5-4.7,1.8-6.8c7,6.6,12.1,15.1,20.6,20c1.7-5.1,1.7-5.1-28.5-52.7c1,0.1,2.3,0.2,3.2,0.3
					c6.4,10.6,13.7,22.6,23.9,24.5c1.1-1.5,3.1-3.3,4.9-4c0.1,0.9,0.3,2.2,0.4,3.1c-0.9,0.4-2.2,0.9-3.1,1.2
					c1.4,2.8,1.4,2.8,9.3,11.1c-1-0.3-2.4-0.6-3.5-0.9c0.1,6.4,5.3,10.5,7,16.2c-3.7,1.1-4.8,1.4-6.4,6.1c-5.3-0.1-9.1-3-15.1-9.1
					c1.1,2.5,2.6,5.7,3.9,8c-7.5-3.4-7.5-12.4-12.8-17.5c-0.9,8.6-0.9,9,7.9,20.1c-5.8,14.6-5.8,14.6-6.5,19.9
					c-0.8,0.5-1.9,1.1-2.8,1.6C482,163,482,163,473.5,154.1c0.3-1,0.7-2.4,1-3.4c-0.6-0.9-1.3-2.1-1.9-3c-1.1-1.1-1.3-1.1-1.4-1.1
					c-0.1,0-0.2,0-0.3,0s-0.2,0-0.4,0c-0.1,0-0.2,0-0.4,0c-0.1,0-0.2,0-0.4,0c-0.1,0-0.3,0-0.4,0c-0.1,0-0.3,0-0.4,0
					c-0.1,0-0.3,0-0.4,0c-0.1-0.9-0.3-2.2-0.4-3.1c-0.8-0.5-1.9-1.2-2.7-1.7c-0.9,0.4-2.2,1-3.1,1.5c-0.6,3.2-2.3,13,15.5,25.4
					c-2.6,7.4-2.6,7.4-2.3,13.5c0.9,0.5,2.1,1.2,3,1.6c-1.8,8.4-1.8,8.4-1.8,9.2c19.6-4.9,19.6-4.9,21.7-4.9
					c-1.5,5.4-2.9,6.2-6.9,5.9c-2.8,5.3-2.8,5.3-12.1,6.3c5.2,12,20.3,18,20.4,33.2c-0.7,0.6-1.6,1.4-2.3,2.1
					c-21.4-1.6-41.7-3.2-24.4,47.1c10.1,0.3,11,1.6,15.8,9c-20.3,27.7-29,63.2-57.6,85.3c-13.9,22.5-13.9,22.5-14.2,23.8l-8,67
					c0.1,0.7,27.1,64.1,50.8,58.3c46-11.3,56.7-13.8,60.1-13.9c1.3,0,2.8,1.3,4,1.9c6,3.1,11.1,8,18,9.5c0.5,0.9,1.2,2,1.7,2.9
					c-12.8,43.8-29.8,102-94.1,131.2c-13.3,4.4-27.4,8.5-43.1,13.1c2.9-0.2,10.7-2,13-2.6h0.2l1.2-0.3c9.8-2.5,18.1-5,25.6-7.6
					c9-3,18.7-6.7,30.6-12c11.4-5.4,17.8-8.6,24.8-12.7c6.9-3.8,13-7.6,23.4-14.4c9.9-6.9,14.7-10.3,21.5-16
					c6.9-5.3,11.4-9.4,20.2-17.7c1.6-1.6,3.3-3.4,5.2-5.3l0,0l11.5-11.8l1.3-1.4c12.4-14.1,30.3-36.9,45.5-65.5
					c-0.1,0.1-0.2,0.3-0.2,0.4l0.5-0.9c5.5-10.6,7.6-14.8,11.3-24.3c4.1-9.2,5.7-13.9,9.5-25.2c1.6-5,4.6-14.8,6.9-24.6
					c0.2-0.7,0.4-1.5,0.5-2.2c-0.1,0.2-0.1,0.4-0.2,0.7c1-4.3,1.8-8.6,2.3-12.3c1-3.4,1.9-7.7,3.2-16.3c-0.1,0.6-0.2,1.2-0.3,1.9
					l0.6-3.9C666.2,384.8,666.8,379.7,667.1,369.4z M496.4,98.1c0.5-0.7,1-1.5,1.5-2.2c4,4.4,7.6,7.9,7.7,8
					C501.3,101.1,500.2,100.4,496.4,98.1z M664.7,395.7c0.4-4.4,0.8-8.2,1.1-11.6C665.6,388.3,665.2,391.9,664.7,395.7z
					 M598.7,197.6c-0.4,0.5-0.6,0.7-1.2,1.1c-0.3,0.2-0.3,0.2-2.1,1.1c-0.6-0.9-1.1-1.8-1.7-2.7c0.6-1.8,1-3.6,1.4-5.7
					c0.1,0.1,0.2,0.3,0.3,0.5C597.6,195.6,598.7,197.3,598.7,197.6z M586.9,199.2c0.3-0.4,0.9-0.2,0.9-0.2c1.8,0.6,3.7,2.9,6.6,6.3
					c3.2,3.7,3.4,3.8,3.9,3.9c2.9,1,0.2-6.9,3.1-5.8c0.4,0.1,6,3.2,6,3.2c5.7,3.5,11,9.5,11.5,12.1l0,0c0.5,2.5,0.4,4-0.5,4.8
					c-0.1,0-0.1,0.1-0.2,0.1c-3.3,2.1-5.5-1.6-8.4-1.6c-3,0-4,4.2-4.9,7.8c-0.6,2.7-1.5,3.2-2,3.5c-3.7,0.9-8.8-7.4-8.8-7.5
					c-1.6-3.4-2-7.1-3-10.7c-1.1-3.6-2.3-7.1-3.5-10.6C587.2,203.4,586.1,200.1,586.9,199.2z M614.2,195.6c-0.4-0.4-0.9-0.9-1.2-1.4
					c-0.1-0.2-10.5-19.5-6.7-18.5c0.7,0.2,3.2,1.5,7.2,11.7c0.6,1.5,0.6,3.2,1.7,4.5c0.4,0.5,0.9,1,1.4,1.5c1.4,3.2,2.8,6.5,4.1,9.8
					C618.5,200.5,616.3,197.9,614.2,195.6z M635.9,299c-5.4-0.2-5.4-0.2-8.5,5.3c-9.1,2.5-14.6-10.4-24.2-5.8
					c-1.1,0.6-2.7,3.1-2.9,4.3c-0.7,4.9,0.7,9.7,0,14.6c-0.7,0.5-1,0.6-3.1-0.4c-2.8-1.3-5.7-2.3-8.5-3.7c-4.1-2.1-4.5-8.6-10.2-8.9
					c-10.9-0.6-10.9-0.6-14.4-4.4c-0.7-0.7-0.2-2.2-0.3-3.2c-0.6-5.9-1.7-13.1-3-21.5c-29.3,4.4-41.8,8.9-41.9,8.9
					c-4.8,3.1-7.9,8.8-14.1,10c-7.9,1.5-13.2-2.9-15.1-4.5c15.1-3.9,17-4.4,19.5-7.6c4.9-6.4,2.4-14.4,4.8-21.3
					c1.5-4.2,4.8-7.2,6.8-11.1c2.3-4.4-2.1-16,4.6-14c6.5,1.9,8.4,0.2,12.5-8c2,1.2,2,1.2,2.2,1.4c4,3.4,7,7.9,11,11.4
					c5.8,5,13.5,7.7,18.4,13.9c6.4,8,1.3,11.1-1,11.6c-3.5,0.7-3.5,0.7-6.7,4.1c4.7,2.8,9.5,5.6,12.1,7.2c3.6-12,3.6-12,0.5-26.1
					c1.5,0.6,3,1.2,4.5,1.8c-0.6-3.3-1.1-5.1-3.3-7.2c-4.1-3.9-9.6-5.6-14-9.1c-9.3-7.5-12.5-13.2-14.4-16.7
					c3.5-2.1,4.6-2.8,25.7,15.8c1.1,0.9,1.9,1.7,10.6,16.3c8.7,14.5,16.9,28.2,29.4,28.5c-3.9-4.9-10-7.5-13.2-13.1
					c-0.6-1-1.3-2.3-1.6-3.3c-0.5-1.5,1-3.7,0.5-5.2c-1.7-5.2-5.2-9.5-6.9-14.7c1.6-1.2,2.7-1.9,5.1-3.8
					c11.4,23.9,11.4,23.9,20.9,26.9c0.7-1.2,0.7-2.7,1.7-3.8c2.4,0.1,3.9,2.1,6,2.7c0.5,3.5,0.8,5.9,1.2,9.9c4.2,3,3.2-5.2,2.8-7.8
					c-0.6-3.8-1.9-5-3.1-6.1c1.1-1.4,1.4-1.7,2.3-3c1.6,4,3.2,7.7,4.8,13.4l0,0C637.3,287.8,638.2,296.6,635.9,299z M630.9,502.8
					c3.5-7.4,6.2-13.1,8.3-17.7C636.3,491.9,633.5,497.8,630.9,502.8z M660.6,416.9c-1.2,5.7-2.5,11.1-3.9,16.3
					c2.5-61.8-2.4-75.9-14.1-109.5c0.5-1,1.1-2.2,1.6-3.2c3.6,6.4,21.3,41.2,14.4,101.4c0.9-2.2,1.5-3.9,2.1-5.8
					C660.7,416.4,660.7,416.7,660.6,416.9z"/>
				<path id="XMLID_111_" class="st2" d="M663.9,401.7l0.1-0.5c0-0.1,0-0.2,0-0.4L663.9,401.7z"/>
				<path id="XMLID_112_" class="st2" d="M630.2,504.2c0-0.1,0.1-0.1,0.1-0.2l-0.8,1.6L630.2,504.2z"/>
				<path id="XMLID_113_" class="st2" d="M572.3,582.2c5.5-5.3,9.5-9.6,11.4-11.7C580.3,574,576.2,578.3,572.3,582.2z"/>
				<path id="XMLID_114_" class="st2" d="M663.5,300.6C663.5,300.6,663.4,300.6,663.5,300.6l0.1,0.5L663.5,300.6z"/>
				<path id="XMLID_115_" class="st2" d="M341.4,61c0.1,0,0.1-0.1,0.1-0.1L341.4,61L341.4,61z"/>
				<path id="XMLID_116_" class="st2" d="M405.8,80.2c2.2-0.7,3.9-1.2,4.1-3.4c0.3-3.2-2.7-5.2-3.2-8.2c-0.2-1.5-1.6-2.8-3.6-4.9
					c0.2-1.2,0.4-3.2-0.6-5.9c-0.1-0.2-0.7-1.8-2.3-2c-2.9-0.2-6.3-2.8-7.5-3.6c-0.1,0-0.1,0-0.2,0c-0.1,0-0.1,0-0.2,0
					c-0.1,0-0.1,0-0.2,0c-0.1,0-0.1,0-0.2,0c-0.1,0-0.1,0-0.2,0c-0.1,0-0.1,0-0.2,0c-0.1,0-0.1,0-0.2,0c-0.1,0-0.1,0-0.2,0.1
					c0,0.1-0.1,0.3-0.1,0.4c-2.6,0.5-4.9,1.7-7.4,2.2c-4.9,1.1-9,4.5-14.2,4.9c-4.3,6.1-4.1,6.3-0.5,6.7c6.4,0.7,3,7-0.7,13.7
					c1,1,1.8,1.7,2.9,2.6c-0.1,0.2-0.3,0.6-0.4,0.8c-0.4,0.1-0.4,0.1-2.6-0.9c-0.7,5.9-0.7,5.9-1,6.5c-2.1,0.6-3.9,1.2-5.7,2.9
					c-4,3.9-8.4,22.7-8.4,24.6c0,0,0.1,4.1,0.9,5.3c1,1.5,2.9,0,4,1.2c1.2,1.3,1.1,3.4,2.5,4.6c0.2,0.2,0.4,0.4,0.6,0.5
					c1.8,1,2.6,0.3,10.5-9.2c2.9-3.4,4.4-7.8,7.7-10.9c1.9-1.8,3-2.5,6.6-2.6c1.2,0,3-0.1,4.8-1c0.3-0.2,0.8-0.4,1.1-0.6
					c2.2-1.3,3.3-3.6,5-5.4c0.7-0.7,1.1-0.7,1.3-0.7c1.9-0.1,7.7-0.4,11-4.5C413.4,87.8,411.9,86,405.8,80.2z"/>
				<path id="XMLID_117_" class="st2" d="M665.8,318.2v-0.5l0.2,3.4c0,0.1,0,0.1,0,0.2C666,320.4,665.9,319.2,665.8,318.2z"/>
				<path id="XMLID_118_" class="st2" d="M659.5,424.8c-0.2,0.7-0.3,1.4-0.5,2.1c0-0.1,0-0.1,0.1-0.2L659.5,424.8z"/>
				<path id="XMLID_119_" class="st2" d="M346.9,59.2c-0.7,0.6-0.4,1.7-1.1,2.4c-1,0.9-2.3,1.3-3.4,1.9c2,1.4,4.9,3.6,6.3,3.5
					c2.9-0.1,4.7-2.5,7.2-3.5c0.9-0.4,1.8-0.4,2.7-0.6l17.1-5.9c4.2-1.7,5.2-2.6,5.5-3c0.1-0.1,0.1-0.1,0.4-1.1c-1.6,0-3-0.7-4.5-1
					c-3-0.5-6.7,0.6-8.7,1.3c0,0-0.6,0.9-1,1.8c-0.3,0.7-3.6,2.6-3.6,2.6c-1,0.4-1.2,0.5-2,0.6c-5.7,0.6-8.4,1.8-11.3,3
					c0.2-0.4,0.5-0.8,0.6-1.2c-0.4-0.1-0.9,0.1-1.3-0.1c-0.1-0.4-0.1-0.4,0.5-1.3c0.1,0,0.5-0.1,3.2-0.5l0,0c0.4-0.1,0.4-0.1,1.9-1
					c0-1.4,0.2-2.2,0.6-3.7c-0.7,0.1-3.8,1.2-4.7,2c-0.5,0.5-0.9,1.6-1.1,3.2C347.9,58.3,347.8,58.3,346.9,59.2z"/>
				<path id="XMLID_120_" class="st2" d="M121,360.6c-0.7-3.6-2-9.7-10.2-16.6c-9.4-7.9-9.4-7.9-12.1-12.1
					c-5.5-8.6-7.7-18.8-13.3-27.4c-1.4-2.1-2.2-3.3-4.2-4.6c-5.7-2.6-10.1-0.6-14.6,6.7c10-0.3,10.2-0.3,12.7,3
					c9,11.7,8.5,19.8,8.2,24.2c7.3,6.7,7.3,6.7,8.2,7.1c3.7,1.5,3.7,1.5,4.2,2c0.8,0.8,0.8,0.9,3.2,7.2c-4.2-0.9-5.6-1.3-7.4-1.7
					c-0.3,1.2-0.6,2.3-0.9,3.5c10.2,7.2,16.4,11.6,25.8,9l0,0C120.7,360.7,120.9,360.6,121,360.6z"/>
				<path id="XMLID_121_" class="st2" d="M424.9,105.2c-1.8,0.9-2.2,0.9-6.1,1.3c-2.1,0.2-3.2-2-5.1-2.2c-1.4,0.1-2,1.1-2.6,4.7
					c0.2,0,0.3,0,0.5,0c0.1,0,0.3,0,0.4,0c0.1,0,0.3,0,0.4,0c0.1,0,0.3,0,0.4,0c0.1,0,0.3,0,0.4,0c0.1,0,0.2,0,0.4,0
					c0.1,0,0.2,0,0.3,0s0.2,0,0.3,0c0.1,0.3,0.2,0.6,0.2,0.9c0.1,0.3,0.2,0.6,0.2,0.9c0.1,0.3,0.2,0.6,0.2,0.9
					c0.1,0.3,0.2,0.6,0.2,0.9c0.1,0.3,0.1,0.6,0.2,0.9c0.1,0.3,0.1,0.6,0.2,0.9c0.1,0.3,0.1,0.6,0.2,0.8c0.1,0.3,0.1,0.5,0.2,0.8
					c2.7,1.5,10.9,5.9,16.5-5c0.1-0.2,0.3-0.6,0.4-0.8c-2.5-2.7-4.4-4.8-6.2-5.4C426.3,105,425.6,104.9,424.9,105.2z"/>
				<path id="XMLID_122_" class="st2" d="M326,56.9c3.7,2.4,6,2.8,6,2.8c0.4,0.1,0.4,0.1,4.9-1.1c0.8-0.2,0.8-0.2,1.9-0.8
					c0.3-1.2,0.4-1.4,0.1-1.5c-0.2-0.1-0.6,0-0.8,0.1c-2.4,0.6-3.3,0.7-3.6,0.5c0.1-0.3,0.4-0.6,2.2-1.5c2.8-1.4,3.5-1.9,2.9-2.4
					c0,0-4.7-1.2-10.7,0.7c0.2,0.8,0.4,1.2,0.6,1.7C328.3,55.6,327,55.9,326,56.9C326,56.8,326,56.9,326,56.9z"/>
				<path id="XMLID_123_" class="st2" d="M461.1,185.9c2.3-3.5,7.5-3.6,9-7.9c0.5-1.5,0.3-3.4,0.3-3.5c-0.4-3.5-1.4-6.8-1.9-10.2
					c0-0.3-0.1-0.6-0.1-0.9c-5.5-2.2-5.5-2.2-6.5-2.3c-0.1,0-0.5,0-0.8,0.2c-1,1-0.8,2.7-1.8,3.8c-0.8,0.9-2.2,0.4-3,1.3
					c-0.2,0.2-0.5,0.6-0.5,0.9c-0.5,2,0.7,4.4,2.8,7.8c-0.8,1.2-1.7,2.5-2.5,3.7C457.7,181.1,459.4,183.5,461.1,185.9z"/>
				<path id="XMLID_124_" class="st2" d="M364.7,56.7L364.7,56.7c0.7-0.3,3.3-3.2,2.4-3.5c-1-0.1-4.4,1-7.4,2.3c0,0-2.4,1.7-2.5,2.2
					C357,58.4,361.2,58.2,364.7,56.7z"/>
				<path id="XMLID_125_" class="st2" d="M338.4,61.1c0.6,0.4,2.3,0.1,3.2-0.1c1.5-0.4,2.8-1.1,4.1-1.7c0.5-0.2,0.5-0.2,2-1
					c-0.1,0-0.2,0-0.3,0c-1.4-0.1-2.7-0.2-4.1-0.3c0.5-0.9,0.6-1.2-2.8-0.2c-1.1,0.3-1.1,0.3-2,1.7C338,60.2,338,60.8,338.4,61.1z"
					/>
				<path id="XMLID_126_" class="st2" d="M341.6,60.9L341.6,60.9c0,0-0.1,0-0.1,0.1L341.6,60.9z"/>
				<path id="XMLID_127_" class="st2" d="M341.4,61L341.4,61L341.4,61L341.4,61z"/>
				<path id="XMLID_128_" class="st2" d="M145.5,373.4c-0.1,0-0.2,0-0.2-0.1c0.6,5.7,1.7,11.4,2.3,17.1c0.6,5.3-0.5,10.7,0.6,16
					c0.9,4.2,2.6,6.5,6,9.7c0.2,0.2,0.5,0.5,0.8,0.7c-5.2-10.5-5.2-10.5-5.5-22.7C149.2,378.6,149.1,375.4,145.5,373.4z"/>
				<path id="XMLID_129_" class="st2" d="M106.8,297.7c-0.8-3.9-0.8-3.9-0.9-4c0,0-5.1-1.2-7.6,1.4c0,0-0.6,0.6-1.2,2.4
					c-0.8,2.4-1.3,4.9-2.1,7.3c3.4-2.1,6.7-4.2,11.4-7C106.5,297.8,106.7,297.7,106.8,297.7z"/>
				<path id="XMLID_130_" class="st2" d="M346.9,54.3c0.2-0.1,0.4-0.1,0.6-0.2c0-0.4,0-0.5-0.2-0.6c-0.8-0.3-4.1,0.6-4.1,0.6
					s-0.6,0.5-0.8,0.8C342,55.7,343.5,55.3,346.9,54.3z"/>
				<path id="XMLID_131_" class="st2" d="M130,362.8c-0.5-0.2-1-0.2-1.4-0.1c-1.1,0.2-2,0.7-3.1,1c0.5,1.4,0.9,2.9,1.5,4.2
					c0.1,0.2,0.5,1,1,1.2c0.4,0.2,0.9,0.3,1.5,0.2c1.4-0.2,2.7-0.8,4.1-1.1c0.2,0,0.4-0.1,0.5-0.1c-1.1-1.4-2-3-3.1-4.4
					C130.6,363.1,130.2,362.9,130,362.8z"/>
				<path id="XMLID_132_" class="st2" d="M542.6,235.7c-1.3,1.1-2.3,2-2.2,3.3c0.1,3,2,5.2,2.8,7.9c0.1,0.5,0.2,0.8,0.1,1
					c-0.5,1.4-0.8,2.3-0.3,4.9c0,0.1,2.8,10.5,5.3,12.2c1.4,1,3.8-2,2.3-7.9C550.2,255.5,548.6,250.7,542.6,235.7z"/>
				<path id="XMLID_133_" class="st2" d="M601.4,260.1c-0.5,1.4-0.9,2.3-2,4.3c3.1,1.6,6.2,3.2,9.3,4.8c-0.1-0.5-0.1-1-0.2-1.5
					C608.6,267.6,608.6,267.4,601.4,260.1z"/>
				<path id="XMLID_134_" class="st2" d="M520.2,268.9c2.2-2,5.6-5.1,9.3-9c0.1-0.1,0.2-0.2,0.3-0.3c-0.4-0.7-0.7-1.5-1.1-2.2
					C524.2,258.1,521.7,261.5,520.2,268.9z"/>
			</g>
			<path id="XMLID_91_" class="st3" d="M592.7,143.9c23.8,53.3,33.6,113.7,25.2,175.8c-24,177.6-187.5,302.1-365.1,278.1
				c-83.1-11.2-154.6-53-204.7-112.5C92.5,584.4,185.5,659,301,674.6c177.6,24,341.1-100.5,365.1-278.1
				C678.9,302,649.7,211.6,592.7,143.9z"/>
		</g>
	</g>
	<g id="XMLID_1_">
		<path id="XMLID_2_" class="st4" d="M300.4,679c-43.6-5.9-84.8-20.1-122.4-42.2c-2.1-1.2-2.8-3.9-1.6-6c1.2-2.1,3.9-2.8,6-1.6
			c36.6,21.5,76.7,35.3,119.1,41c118.7,16.1,234.4-34.2,303.7-131.5c-82.1-18-138.8-57.7-172.2-88.2
			c-43.8-40.1-73.5-88.4-81.3-132.7c-7.8-44.1,6.3-79.7,39.7-100.2c16.9-10.4,33.5-16.4,49.3-18.1c1.1-32.6,13.3-59.9,33.9-75.2
			c0.9-0.7,1.8-1.3,2.6-1.9c36-25.6,85.3-19.6,114.6,14C654.4,208,683,303,670.2,397.2c-6.6,49-23.6,94.6-50.4,135.6
			c9.4,1.7,18.8,3.1,28.2,4.1c2.4,0.3,4.2,2.4,3.9,4.9c-0.3,2.4-2.4,4.2-4.9,3.9c-10.8-1.2-21.8-2.8-32.6-4.9
			c-33.8,48.6-80,87.2-134,111.8C438,672,391.7,682,344.8,682C330.1,682,315.2,681,300.4,679z M482.6,129.6
			c-0.8,0.6-1.7,1.2-2.5,1.8c-18.3,13.6-29.2,38.1-30.3,67.6c49,0,72.5,42.5,78.7,55.8c11.5,24.9,12.3,49.9,2,60.8
			c-4.3,4.5-12.4,8.8-26.3,3.2c-40.4-16.2-62-66.9-63.3-110.5c-14.2,1.6-29.2,7.2-44.6,16.7c-30.2,18.5-42.8,50.9-35.7,91.2
			c7.5,42.4,36.2,88.9,78.6,127.7c33.1,30.3,89.6,69.7,171.7,86.9c27.2-40.6,44.4-86,51-134.9c12.4-91.6-15.4-184.1-76.3-253.8
			c-15.4-17.6-36.9-26.8-58.6-26.8C511.5,115.4,496,120.1,482.6,129.6z M507.4,310.7c7.5,3,13.1,2.6,16.6-1.1c7.7-8.1,6.1-30-3.6-51
			c-5.6-12.1-26.9-50.7-70.8-50.7C450.7,248.6,470.4,295.9,507.4,310.7z"/>
		<g id="XMLID_5_">
			<path id="XMLID_11_" class="st4" d="M775,675.8c31.6,0,51.8-39.8,52.6-41.5l-3.5-1.7c-0.2,0.4-20.7,40.8-50.9,39.3
				c-10.3-0.5-27-7-43.7-16.9l-2,3.4c17.5,10.3,34.5,16.8,45.5,17.4C773.7,675.8,774.4,675.8,775,675.8z"/>
			
				<ellipse id="XMLID_3_" transform="matrix(0.491 -0.8712 0.8712 0.491 -130.8452 1041.8613)" class="st4" cx="826.1" cy="632.9" rx="5" ry="5.6"/>
			<path id="XMLID_7_" class="st4" d="M833.8,621.9c-4-2.3-8.9-1.2-11,2.4c-2,3.6-0.4,8.4,3.6,10.6c4,2.3,8.9,1.2,11-2.4
				C839.5,628.9,837.8,624.1,833.8,621.9z"/>
			<path id="XMLID_10_" class="st4" d="M728.6,661.1c1.5,0,3-0.8,3.8-2.2c1.2-2.1,0.5-4.8-1.6-6c-17.5-10.3-60-39.5-76.6-86.5
				c-7.4-20.9,0.3-44.2,18.8-56.5c41.5-27.7,93-25.6,113.2-23.4c2.4,0.3,4.6-1.5,4.9-3.9c0.3-2.4-1.5-4.6-3.9-4.9
				c-21.2-2.3-75.1-4.5-119,24.8c-21.8,14.6-31,42.1-22.2,66.8c17.6,49.8,62.1,80.4,80.4,91.2C727.1,660.9,727.8,661.1,728.6,661.1z
				"/>
			<path id="XMLID_6_" class="st4" d="M852.6,559.3c0.4-1.9,8.4-47.6-18.9-65.9c-9.2-6.2-26.7-11.1-46.8-13.3l-0.4,3.9
				c19.3,2.1,36.5,7,45.1,12.7c25.1,16.8,17.3,61.5,17.2,61.9L852.6,559.3z"/>
			<path id="XMLID_9_" class="st4" d="M849.8,564.5c-3-0.4-5.2-2.9-4.9-5.7c0.4-2.7,3.1-4.6,6.2-4.2s5.2,2.9,4.9,5.7
				C855.6,563,852.9,564.9,849.8,564.5z"/>
			<path id="XMLID_8_" class="st4" d="M850.1,573c-4.6-0.6-7.8-4.4-7.3-8.5s4.7-7,9.2-6.4c4.6,0.6,7.8,4.4,7.3,8.5
				C858.8,570.7,854.7,573.6,850.1,573z"/>
		</g>
	</g>
</g>
<g id="XMLID_21_">
	<path class="st5" d="M419,271.1c2.5,1.7,4.5,4,6.2,6.5c0.9,1.2,1.6,2.6,2.3,3.9s1.3,2.7,1.9,4.1c0.5,1.4,1,2.9,1.4,4.3l1,4.4
		c0.5,3,0.9,6,1,9c0.2,3,0,6-0.2,9l-0.1,1.1l-0.1,1.1l-0.3,2.2c-0.2,1.5-0.4,3-0.7,4.4c-0.7,2.9-1.3,5.8-2.1,8.7
		c-0.9,2.8-1.8,5.7-2.9,8.4c0.4-3,1-5.9,1.6-8.7l1.3-8.7c0.1-1.5,0.2-2.9,0.4-4.4l0.2-2.2l0.1-1.1V312c0.1-2.9,0.3-5.8,0-8.7
		c-0.2-5.8-1-11.6-2.7-17.1c-0.5-1.4-1-2.7-1.5-4.1c-0.6-1.3-1.1-2.7-1.9-3.9C422.7,275.7,421.1,273.2,419,271.1z"/>
</g>
<g id="XMLID_22_">
	<path class="st5" d="M434.6,280.2c1.7,2.6,2.8,5.5,3.6,8.5s1.3,6,1.6,9.1s0.3,6.1,0.1,9.2c-0.1,1.5-0.3,3-0.5,4.6
		c-0.2,1.5-0.5,3-0.9,4.5c-0.1-1.5,0-3.1,0-4.6s0-3-0.1-4.5s0-3-0.2-4.5c-0.1-1.5-0.2-3-0.3-4.5c-0.3-3-0.7-6-1.2-8.9
		C436.2,286.1,435.6,283.1,434.6,280.2z"/>
</g>
<g id="XMLID_23_">
	<path class="st4" d="M233.2,298.6c-1.5,7.1-2.5,14.2-3.3,21.3c-0.7,7.1-1.1,14.3-1,21.4c-0.1,3.6,0.2,7.1,0.3,10.7l0.5,5.3
		c0.1,0.9,0.1,1.8,0.2,2.7l0.4,2.7c0.8,7.1,2.4,14.1,4,21.2c-0.7-1.7-1.3-3.4-1.9-5.1l-0.9-2.6c-0.3-0.9-0.5-1.7-0.8-2.6l-1.4-5.3
		c-0.4-1.8-0.7-3.6-1.1-5.3l-0.5-2.7c-0.1-0.9-0.2-1.8-0.4-2.7l-0.7-5.4c-0.2-3.6-0.5-7.3-0.5-10.9c-0.1-3.6,0.1-7.3,0.4-10.9
		l0.5-5.4c0.2-1.8,0.5-3.6,0.7-5.4C229,312.5,230.7,305.4,233.2,298.6z"/>
</g>
<g id="XMLID_24_">
	<path class="st4" d="M216,335.9c0.5,5.4,1.2,10.6,2,15.9c0.4,2.6,0.9,5.2,1.4,7.8s1.1,5.2,1.8,7.7c1.3,5.1,3,10.1,5.1,14.9
		c1.1,2.4,2.3,4.8,3.6,7.1c1.3,2.3,2.8,4.5,4.5,6.6c-2.1-1.7-3.9-3.8-5.6-5.9c-1.6-2.2-3.1-4.5-4.4-6.9s-2.4-4.9-3.4-7.4
		s-1.7-5.1-2.5-7.8c-1.3-5.3-2.3-10.6-2.7-16C215.4,346.7,215.3,341.3,216,335.9z"/>
</g>
</svg>
