<?xml version="1.0" encoding="utf-8"?>
<!-- Generator: Adobe Illustrator 23.1.0, SVG Export Plug-In . SVG Version: 6.00 Build 0)  -->
<svg version="1.1" id="Capa_1" xmlns="http://www.w3.org/2000/svg" xmlns:xlink="http://www.w3.org/1999/xlink" x="0px" y="0px"
	 viewBox="0 0 901 410" style="enable-background:new 0 0 901 410;" xml:space="preserve">
<style type="text/css">
	.st0{fill:#F1A31C;}
	.st1{fill:#0090C8;}
	.st2{fill:#DF3630;}
	.st3{fill:#E03630;}
	.st4{fill:#E67933;}
	.st5{fill:#E57A34;}
	.st6{fill:#E57D37;}
	.st7{fill:#E77C29;}
	.st8{fill:#E47F3C;}
	.st9{fill:#E57D34;}
	.st10{fill:#E8762F;}
	.st11{fill:#E67B37;}
	.st12{fill:#F5E8DF;}
	.st13{fill:#F3D0B9;}
	.st14{fill:#EABE6C;}
	.st15{fill:#EDB85F;}
	.st16{fill:#EAB96C;}
	.st17{fill:#ECC26F;}
	.st18{fill:#E9B956;}
	.st19{fill:#E9AF48;}
	.st20{fill:#F1F1EF;}
	.st21{fill:#E97A2B;}
	.st22{fill:#E56C03;}
	.st23{fill:#E56C04;}
	.st24{fill:#E67B28;}
	.st25{fill:#E56D03;}
	.st26{fill:#E46E03;}
	.st27{fill:#E46F03;}
	.st28{fill:#F6F6F6;}
	.st29{fill:#F5F2F2;}
	.st30{fill:#F6F3F3;}
	.st31{fill:#F6F3F2;}
	.st32{fill:#F2D7B6;}
	.st33{fill:#F1A41D;}
	.st34{fill:#F1A41F;}
</style>
<g>
	<path class="st0" d="M869,139.1c0,0.3-0.1,0.6-0.2,0.8c-1.4,1.5-3.4,2.5-3,5.3c1.4,9.4-2.6,16.8-8.9,23.3c-1.5,1.5-3.5,2.6-4,4.9
		c-0.3,1-0.7,2-2.1,1.6c-7.6-0.7-8.3,0-8.8,7.2c-1.9,27.7-4,55.4-5.9,83.1c-0.2,2.9-1.3,3.6-3.9,3.7c-14.5,0.8-28.9,1.7-43.4,2.6
		c-34.1,2-68.1,4-102.2,6c-30.7,1.8-61.5,3.4-92.2,5.1c-32.4,1.9-64.8,3.9-97.2,5.8c-26.2,1.5-52.5,2.9-78.8,4.4
		c-36.2,2-72.4,4-108.7,6.1c-20.9,1.2-41.9,2.6-62.8,3.9c-2.2,1.5-4.7,1.4-7.2,1.3c-6-0.2-11.8,0.9-17.7,1.7
		c-4.8,0.5-9.6,1-14.3-0.3c-9.9-0.1-19.9-0.8-29.7,2c-1.5,1-2.8,0-4.2-0.4c-10-3.1-19.8-2.8-29.3,1.9c-1.3,0.6-2.6,1.6-4.1,0.6
		c-9.1-0.8-18.1-0.5-27,1.7c-0.3,0.1-0.7,0.3-1,0.1c-9.7-6.2-20.4-5.6-31.2-4.8c-1.8-0.6-3.3-2-5.5-2c-4.3,0-6.3-2.3-6.2-6.6
		c0-2.2,0.4-4.6-1.4-6.6c-1.6,1.6-0.7,3.3-0.9,4.9c-0.8,6.6-2.7,12.6-7.8,17.3c-1.1,1-2.2,2.1-2,3.8c-0.4,1.6,0.3,3.9-2.4,4.2
		c-0.3-2.6-1.5-3.6-4.3-2.9c-3,0.8-6.3,0.9-9.2,0c-3.4-1.1-5.1,0.5-6.6,3c-0.9,0.2-1.3,0-1.1-1c0-1.6,1.4-3,0.9-4.7
		c-5.7-5.9-10.6-12.2-12.6-20.3c-0.1-0.4-0.7-0.6-1.2-0.8c-1.6,0.1-3.3,0-4.9,0.2c-0.9,0.1-1.7,0.2-2-0.8c-0.1-0.6-0.1-1.4,0.3-1.8
		c0.7-1,1.4-0.3,2,0.3c1.3,1.5,3.1,0.7,4.7,0.9c1-0.4,1.7-1.2,1.7-2.3c0-6.9,4.1-11.5,8.7-15.9c0.9-0.8,1.2-1.9,1.7-3
		c0.4-0.6,0.9-1.1,1.7-1.1c4.3,3.1,8.2,0.8,12.1-1.1c0.5-0.1,0.9-0.1,1.4,0.1c1.6,2.1,4.3,2.4,6.4,3.7c4.4,2.7,8.1,6.1,10.7,10.6
		c-0.5-2.2-1.8-3.8-3.1-5.4c-3.7-4.4-3.7-4.9-0.3-9.8c1-1.4,2.6-2.3,3-4.2c-2.4,1.5-2.8,4.4-4.5,6.4c-3,3.6-5.4,3.5-8.3-0.8
		c1.2-14.6,2.5-29.2,3.6-43.8c1.1-13.9,2.1-27.9,2.9-41.8c0.2-3,1.4-3.5,4-3.6c30.9-1.3,61.9-2.6,92.8-4.1
		c39.3-1.8,78.5-3.8,117.8-5.6c30.9-1.5,61.9-2.9,92.8-4.3c54.4-2.5,108.8-4.9,163.2-7.4c22.3-1,44.6-2.3,66.8-3.5
		c1-0.1,2-0.3,2.9-0.5c1.5-1.2,3.1-0.9,4.8-0.5c10.7,2.2,21.4,2.6,32.2,1c2.7-0.4,5.1-1.6,7.6-2.3c1.7-0.5,3.5-1.3,5.3-0.3
		c21.3-0.5,42.5-1.5,63.7-3.2c1.9-1.8,3.7-0.2,5.5,0.3c17.1,4.4,34,4.4,50.7-1.7c2.6-0.9,5.1-2.6,8.1-1.4c7.8,0.7,15.6-0.8,23.3-0.6
		c0.3,0,0.9,0,0.9-0.1c1.7-7.5,7.3-1.1,10.5-2.9c1.8-1.4,0.8-3.4,1.3-5.1c1.5-5.4,4.1-10.1,8.5-13.7c1.7-1.4,3.3-2.8,3.1-5.3
		c0-0.3,0.1-0.5,0.3-0.8c1-1.9,2.3-1.2,3.7-0.6c4.6,1.6,8.7,1.1,12.3-2.3c0.9-0.5,1.8-1,1.3-2.2c-0.5-1-1.5-2.1,0.4-2.7
		c1.1-0.4,2.4-0.5,3.2,0.5c1.2,1.6-0.4,1.8-1.3,2.3c-1,0.7-0.5,1.8-0.5,2.7c0.9,1.7,2.2,2.7,4.1,3.3c6.1,1.9,10.8,5.8,13.7,11.4
		c1.3,2.6,3.1,4.2,5.9,4.7l0.2,0C868.6,137.6,869.6,137.9,869,139.1z"/>
	<path class="st1" d="M378.3,84.3c0,22.9-0.1,44.7,0.1,66.6c0,4.6-0.9,6.5-5.9,6.6c-8.6,0.1-17.3,0.9-25.9,1.5c-4,0.3-5.6-1-5.7-5.2
		c-0.6-41-1.3-81.9-2.1-122.9c-0.1-3.7,1-4.9,4.8-4.8c9.8,0.2,19.7,0,29.5-0.2c3.1-0.1,4.9,0.6,6.4,3.9
		c10.2,21.5,20.8,42.8,31.2,64.2c0.6,1.3,1.4,2.5,2.9,5c0-9,0.1-16.6,0-24.1c-0.2-14.8-0.3-29.6-0.8-44.5c-0.1-4.2,1.3-5.5,5.4-5.4
		c9,0.2,18,0,27-0.3c4.1-0.2,5.2,1.3,5.2,5.2c0.1,40.6,0.4,81.3,0.7,121.9c0,3-0.5,4.5-4,4.6c-9.5,0.3-19,0.9-28.4,1.5
		c-3.1,0.2-4.8-0.9-6.1-3.7c-10.7-22.2-21.5-44.3-32.3-66.4C379.9,86.7,379.3,85.9,378.3,84.3z"/>
	<path class="st1" d="M649,154.7c-16.3,7-33,6.2-49.8,2.1c-23.9-9-36.9-26.7-40.6-51.6c-3-20.9-0.4-40.7,11.6-58.7
		c19.8-29.6,59.3-34,80.3-20.9c11.7,7.3,19.9,17.6,25.3,30c10.6,24.3,11.4,48.7-1.1,72.7C668.9,139.6,660,148.2,649,154.7z"/>
	<path class="st1" d="M777,148.6c-21.1,9.3-42.5,10.7-64.3,2.9c-8.4-3-15.8-7.7-22.5-13.6c-5.4-4.8-5.5-6-0.9-11.3
		c5.3-6.2,10.8-12.2,15.9-18.5c2.4-3,4.2-3.6,7.8-1.5c7.4,4.4,15.1,8.5,23.6,10.6c4.3,1.1,8.5,1.6,12.8-0.1c2.2-0.8,3.7-2.2,4-4.6
		c0.4-2.7-1.3-3.9-3.2-5.1c-8-4.8-17.2-6.1-25.8-9.2c-8.9-3.3-17.9-6.2-25.3-12.5c-18.6-15.8-18-40.5,1.2-55.3
		c27.1-20.9,67.1-18.3,91.4,5.7c3,3,3.3,5.1,0.4,8.3c-5.6,6.3-10.9,13-16.3,19.5c-4.2,5.1-4.7,5.3-10.1,1.8
		c-7.6-4.9-15.6-8.9-24.7-10.2c-2.5-0.3-5-0.5-7.4-0.3c-2.9,0.2-5.8,1-6.5,4.4c-0.6,3.3,2,4.9,4.4,5.9c6.1,2.7,12.3,5,18.5,7.4
		c10.7,4.1,21.3,8.3,30.7,15.2c21.1,15.5,16.8,48.1-1.2,58.6C778.6,147.3,777.8,148,777,148.6z"/>
	<path class="st1" d="M330,75.5c-0.4,15,0.4,28.6-1,42c-2.8,26.7-16.7,43.7-44.5,46.7c-15.2,1.7-29.9,1.1-43.5-7.1
		c-8.5-5.1-14-12.7-17-22c-2.6-8.1-4-16.5-4-25c0-23.5,0.1-47-0.2-70.5c-0.1-4.8,1.5-6,6-5.6c10.1,0.7,20.3,1.2,30.4,1.5
		c3.9,0.1,5.1,1.4,5,5.3c-0.3,22.8-0.4,45.6-0.5,68.5c0,4.9,0.5,9.6,3.1,13.9c4.7,8,16.6,8.3,21.6,0.4c2.9-4.6,3.3-9.8,3.3-14.9
		c0.1-22.7,0.1-45.3-0.2-68c-0.1-5,1.2-6.7,6.3-6.7c10,0,20-0.6,30-1.1c4-0.2,5.2,1.2,5.1,5.2C329.8,51.1,330,64,330,75.5z"/>
	<path class="st1" d="M210,75.5c-0.9,14.5,0.9,29.9-1.8,45c-4.8,26.7-20.4,40.6-47.6,42.3c-10.5,0.6-20.9,0.3-31-3.4
		c-17.6-6.3-25.3-20-28.3-37.2c-1.5-8.4-1-16.9-1.1-25.4c0-3.7,1.3-5,5-4.6c10.6,1.2,21.2,2.1,31.8,3c2.9,0.2,4.1,1.5,4.1,4.4
		c-0.1,5.7-0.2,11.3,1.2,16.9c1.7,7,6,10.9,12.2,11.2c6.4,0.3,10.7-3.1,13-10.2c1.5-4.7,1.6-9.5,1.6-14.3c0-22.6,0-45.3-0.2-67.9
		c0-4,1-5.6,5.3-5.4c10.6,0.6,21.3,0.9,31.9,1c3.4,0,4.2,1.3,4.2,4.4C210,48.4,210,61.6,210,75.5z"/>
	<path class="st1" d="M490.9,108.7c0-15-0.1-29.9,0.1-44.9c0-3.3-1-4.3-4.3-4.2c-7.8,0.3-15.7-0.1-23.5,0.5
		c-5.2,0.4-6.6-1.5-6.5-6.4c0.2-6.3,0-12.6-0.4-19c-0.3-4.3,1.5-5.4,5.5-5.5c29-0.3,57.9-0.9,86.9-1.3c11.1-0.2,11.1-0.1,11.3,11.3
		c0.1,4.5-0.2,9,0.4,13.5c0.6,5-1.5,6.1-5.9,6c-6.7-0.1-13.3,0.2-20,0.1c-3.4-0.1-4.5,1-4.4,4.5c0.9,28.9,1.5,57.9,2.2,86.8
		c0.2,7.3,0.2,7.3-7.3,7.5c-9.1,0.3-18.3,0.5-27.4,1.1c-4.1,0.3-5.6-1-5.6-5.2c0.2-15,0.1-29.9,0.1-44.9
		C491.7,108.7,491.3,108.7,490.9,108.7z"/>
	<path class="st2" d="M409.2,347.4c0-13.4,0.2-26.5-0.1-39.7c-0.1-3.8,1-5,4.7-4.7c4.5,0.3,9,0.1,13.5-0.1c2.6-0.1,3.4,0.9,3.5,3.5
		c0.1,26.5,0.3,52.9,0.6,79.4c0,2.7-1,3.2-3.5,3.5c-9.9,0.9-17.7,0.1-22.6-11.2c-5.2-12.1-13.3-22.9-20.2-34.4c-1.9,0.9-1,2.4-1,3.5
		c0,12.7,0,25.3,0.4,38c0.1,3.8-1.2,4.9-4.8,4.7c-4.3-0.3-8.7-0.1-13,0.1c-2.5,0.1-3.5-0.6-3.5-3.3c-0.2-26.3-0.4-52.6-0.8-78.9
		c0-3.4,1.2-4.5,4.4-4.1c1.5,0.2,3.1,0.3,4.5,0c9.1-2.2,13.6,2.5,17.5,10c5.5,10.8,12.1,21,18.3,31.5
		C407.2,345.9,407.5,347,409.2,347.4z"/>
	<path class="st2" d="M351.9,347.1c-0.2,6.7-0.7,12.9-2.5,19.1c-4.5,15.6-17.8,25.6-34.4,25.9c-17.6,0.3-30.4-8.2-34.9-24.7
		c-4.3-15.7-4.7-31.6,3.2-46.6c6.8-13.1,21-19.6,38.2-17.7c12.9,1.4,24,11.5,27.7,24.7C351,334.1,351.5,340.7,351.9,347.1z"/>
	<path class="st2" d="M207.9,305.8c4.6-1.9,9.5-0.2,14.2-0.9c8-0.2,16-2.2,24,0.1c2.9,1.9,6.3,1.3,9.5,2.4
		c16.1,5.7,17.6,28.5,7.1,38.9c-3.3,3.3-4.5,4.8-1.8,9.7c5.6,10.1,9.5,21.2,14.2,31.8c1.1,2.5,0.3,3.2-2.2,3.1c-2.7-0.1-5.3-0.1-8,0
		c-11.6,0.2-11.6,0.2-16-10.3c-2.2-5.4-4.7-10.7-6.8-16.1c-1.5-3.9-4.1-5.6-8.4-5.6c-3,0-4.1,0.9-4,4c0.2,7.8-0.1,15.6,0.3,23.4
		c0.2,4.1-1.3,5.2-5.1,5c-3.8-0.2-7.7,0-11.5,0.4c-3.9,0.4-5.1-0.9-5.1-5c0.1-18.6-0.2-37.3-0.4-55.9
		C207.9,322.4,207.9,314.1,207.9,305.8z"/>
	<path class="st2" d="M694.9,387c-7.5,0-14.1-0.1-20.7,0c-2.5,0-2.9-1.6-3.6-3.3c-2.9-6.9-5.8-13.8-8.7-20.7c-0.9-2-1.8-4-3.1-5.7
		c-2.4-3.1-6-3-9.2-2.2c-2.8,0.7-1.4,3.7-1.4,5.6c-0.1,7.5-0.1,15,0.1,22.5c0.1,3.2-0.8,4.5-4.2,4.4c-4.5-0.2-9-0.1-13.5,0
		c-2.5,0.1-3.6-0.6-3.6-3.4c-0.1-26.6-0.4-53.3-0.7-79.9c0-2.7,1-3.4,3.5-3.4c10.7,0.1,21.3-0.4,32,0c7.5,0.3,15,1.9,20.4,8
		c8.8,10,7.2,26.9-3.4,35.8c-2.1,1.7-2.8,2.6-0.6,4.8c3.6,3.8,4.5,9.2,6.7,13.8C688.4,371,691.4,378.7,694.9,387z"/>
	<path class="st2" d="M140.5,309.9c9.4-5.9,19.6-7.2,30.4-5c2.6,0.5,5,1.6,7.3,2.9c10.2,5.2,15.1,14.2,17.2,24.9
		c3.2,16.2,3.4,32.3-6.2,46.7c-7.9,11.8-19.8,14.9-33.2,13.9c-12.5-0.9-22-6.7-27.2-18.2c-6.8-15.2-7.3-30.9-2-46.7
		C129.3,320.6,134,314.5,140.5,309.9z"/>
	<path class="st2" d="M764,333.2c0,8.3,0,16.7,0,25c0,15.5-7.8,25.4-22.9,28.9c-6.4,1.5-13,1.4-19.4,0.4
		c-14.4-2.2-22.4-11.2-22.7-25.9c-0.5-19.1-0.5-38.3-0.8-57.5c-0.1-3.1,1-4.1,4-4c4.2,0.2,8.3,0.3,12.5,0c3.8-0.3,5.1,0.9,5.1,4.9
		c-0.1,17.2,0.1,34.3,0.2,51.5c0.1,7.7,3.2,11.9,9.3,12.6c8.2,1,12.9-2.8,12.9-11.1c0.1-13.5-0.1-27-0.2-40.5
		c0-4.8,0.1-9.7-0.1-14.5c-0.1-2.4,0.7-3.2,3.1-3.2c5,0.1,10,0.2,15,0c3.1-0.1,3.5,1.2,3.5,3.8c-0.1,9.8,0,19.7,0,29.5
		C763.7,333.2,763.8,333.2,764,333.2z"/>
	<path class="st2" d="M476.7,302.7c11.9,0,11.7,0,15.5,11.4c7.7,23.2,15.6,46.3,23.6,69.4c1.4,4.1,1,5.6-3.8,5.2
		c-4.5-0.4-9-0.2-13.5,0.1c-3.1,0.2-4.6-1-5.3-3.9c-0.9-3.5-2.3-7-3-10.6c-0.7-3.4-2.5-4.2-5.6-4c-5.7,0.2-11.3,0.3-17,0.2
		c-2.6-0.1-3.9,0.8-4.4,3.5c-0.6,3.1-2,6-2.4,9.1c-0.7,4.7-2.9,6.5-7.7,5.9c-3.3-0.4-6.7-0.3-10,0c-4.3,0.4-4.5-1.2-3.4-4.8
		c6.3-20.5,12.3-41.1,18.5-61.6c1.6-5.3,3.4-10.4,4.6-15.8c0.8-3.5,2.4-4.7,5.8-4.3C471.3,302.9,474,302.7,476.7,302.7z"/>
	<path class="st2" d="M804.2,298.1c10.2,0,19.1,3.5,27.1,9.8c2.6,2.1,2.6,3.8,0.6,6c-0.1,0.1-0.2,0.3-0.3,0.4
		c-2.5,3.3-4.3,8-7.6,9.7c-3.9,2-6.8-3.4-10.6-4.8c-3.4-1.3-6.8-2.7-10.6-2.2c-2.8,0.4-5.1,1.7-5.9,4.6c-0.9,3.1,0,5.8,2.8,7.3
		c2.9,1.6,6,2.9,9,4.1c2.8,1.1,5.7,1.8,8.5,3c17.4,7.4,22.1,30.1,8.7,43.3c-6,5.9-13.7,8-21.9,8.3c-10.4,0.4-20-2.4-29.3-6.9
		c-2.5-1.2-3.1-2.5-2-5.1c1.7-3.8,3.1-7.7,4.5-11.6c0.9-2.8,1.9-3.6,4.9-2c6.3,3.3,13,5.9,20.4,6c4,0,6.9-1.6,7.9-5.5
		c1.1-4.1-1.3-6.8-4.7-8.3c-4.2-1.9-8.8-3.1-13.1-4.8c-15-6.2-20.6-15.9-17.6-30.8c2.4-12.1,13.4-20.2,27.7-20.4
		C803.2,298.1,803.7,298.1,804.2,298.1z"/>
	<path class="st2" d="M546.6,359.5c0.7-2.2,1.5-4.3,2.1-6.5c4.2-15.6,8.5-31.1,12.5-46.7c0.9-3.5,2.3-5,6.1-4.7
		c4.3,0.3,8.6,0,13-0.1c2.7-0.1,3,1,2.3,3.3c-7.5,24.5-14.7,49-22.4,73.4c-3.1,10-3.5,9.9-14.1,10c-11.4,0-11.4,0-14.9-11.2
		c-7.1-22.5-14.3-45-21.4-67.4c-0.5-1.4-0.7-2.9-1.2-4.3c-0.7-2-0.5-3.2,2-3.2c5.5,0,11-0.1,16.5,0c3.6,0.1,3.3,3.4,3.9,5.5
		c3.5,12,6.8,24,10.1,36c1.5,5.3,3.1,10.5,4.6,15.7C545.9,359.4,546.2,359.4,546.6,359.5z"/>
	<path class="st2" d="M81.1,306c9.2-1.6,18.4-2.6,27.1,2c1.9,1,3.6,2.3,5.3,3.5c0.3,0.2,0.6,0.3,0.9,0.5c10.1,8.9,10.1,9.5-0.7,17.3
		c-0.7,0.5-1.4,0.9-1.9,1.6c-2.6,3.1-4.3,2.4-6.9-0.6c-9.3-11.2-21.4-9-26.1,4.8c-3.7,10.8-3,21.7,1.7,32.1
		c3.5,7.8,12.6,10.5,20.9,6.7c1.5-0.7,2.9-1.6,4.3-2.5c6.3-4.2,6.3-4.3,10.8,2.2c0.3,0.4,0.6,0.8,0.9,1.2c5.4,7.5,5.4,7.8-2.5,12.8
		c-16,10.2-36.9,8.5-49.2-4.2c-7.1-7.3-9.6-16.5-10.5-26.3c-0.6-6.6-0.9-13.3,0.8-19.9c1.1-4.3,1.6-8.4-0.9-12.4
		c1.4-3.2,5.3-2.1,7.3-4.3c3.4,0.7,2.7,4.3,5,7c-1.1-4-4.2-6.1-4.1-9.6c0.5-2.3,2.2-3.6,3.9-5C70.9,308.9,76.4,308.3,81.1,306z"/>
	<path class="st3" d="M613,344.5c0,13-0.1,26,0.1,38.9c0.1,3.5-1,4.8-4.5,4.4c-2.8-0.3-5.7,0-8.5,0c-8.2,0-8.3,0-8.4-8
		c-0.3-24.6-0.4-49.3-0.8-73.9c-0.1-3.6,0.8-5.2,4.7-4.9c4,0.3,8,0.3,12,0c3.4-0.2,4.7,0.7,4.6,4.4c-0.2,13-0.1,26-0.1,38.9
		C612.4,344.5,612.7,344.5,613,344.5z"/>
	<path class="st4" d="M851.9,173c0.9-2.6,2.9-4.4,4.7-6.3c6-6.3,9.6-13.4,7.5-22.4c-0.9-3.9,1.6-4.5,4.6-4.4
		c1.9,3.5,2.3,7.2,1.8,11.1c-0.6,4.4,2.8,7.3,6.9,5.8c1.7-0.6,2.9-1.2,3.5,0.9c0.6,2.4,0.2,5-2.2,6c-2,0.9-2.1-1.1-2.4-2.6
		c-0.6-3.2-3.8-1.9-5.7-2.9c-1.8-0.9-2.6,0.6-3.3,2c-0.9,1.6-1.9,3.2-3.1,4.5c-2.4,2.6-5.9,4.9-2.6,9.1c2,2.5,1.3,7.1,6,7.6
		c1.8,0.2,1.6,2,0.8,3.2c-1.3,1.9-3.1,3.3-5.5,2.5c-2-0.6-0.8-1.9-0.5-3.2c1.3-4.7-3-7.1-4.7-10.6c-0.9-1.8-2.6-1.9-4.2-0.5
		C853.1,173.6,852.6,173.6,851.9,173z"/>
	<path class="st5" d="M867.7,137.1c-2.8,1.4-4.6,1.3-6.1-2.2c-2.8-6.6-7.7-11.5-15.1-12.8c-3.1-0.5-2.6-2.4-2.5-4.4
		c1.7,0.5,3.5,1,5.2,1.6c2.6,0.9,5.3,3.8,7.5-0.4c1.3-2.4,4.9-3.8,3.4-7.6c-0.7-1.7,0.1-2.5,1.9-2.5c2.5,0.1,4.7,1,5.3,3.6
		c0.4,2.1-1.5,1.6-2.7,1.7c-4.7,0.6-4.2,5.3-6.2,8c-1.5,2,0.8,3.2,2,4.4C863.3,129.8,866,133.1,867.7,137.1z"/>
	<path class="st6" d="M824.7,120.8c2.1,1.8,2.7,2.8-0.4,4.9c-5.7,3.8-9.5,9.4-10.3,16.6c-0.2,1.4-0.3,2.6-2.1,2.7
		c0.1-4.8,0.7-9.5,3.1-13.9c1.4-2.5-2.8-8.1-6.1-7.8c-2,0.2-3.2-0.1-2.7-2c0.5-2.2,1.7-4.7,4.3-4.9c2.6-0.2,2,1.6,1.7,3.4
		c-0.6,3.2,2.5,3.8,4.2,5.4c1.9,1.7,2.9-0.2,4-1.3C821.6,122.8,822.8,121.3,824.7,120.8z"/>
	<path class="st7" d="M52.3,271.3c5.6,3.3,8.7,1.7,9.8-5.1c0.2-1.1-0.3-2.5,1.3-2.9c1.4-0.4,2.7,0.4,3.6,1.3
		c1.3,1.2,1.6,2.3-0.5,3.4c-6.2,3.2-6.7,6.2-2.4,11.7c1.2,1.5,2.2,3.3,3.3,5c0.6,1,1.2,2.2-0.2,3c-1,0.6-2.2,0.1-2.6-0.8
		c-3.2-7.1-9-11.1-15.8-14c-0.4-0.2-0.4-1.2-0.7-1.8c0.6-0.7,1.3-0.6,2.1-0.1C50.8,271,51.5,271.1,52.3,271.3z"/>
	<path class="st8" d="M21,295.1c2.2,0,2.4,1.9,3.1,3.3c2.6,5.3,4.9,10.8,9.6,14.8c0.8,0.7,2.7,1.3,1.1,3c-3.9-1.6-6.5-4.7-8.5-8.1
		c-1.7-3-3.5-3.6-6.4-2.2c-2.8,1.4-6.6,0.9-8.1,4.6c-0.4,1-1.9,0.6-2.6-0.1c-1.2-1.3-1.8-2.9-1.2-4.6c0.5-1.3,1.5-0.7,2.4-0.3
		c4.6,1.8,7.8-1.8,11-3.8C24.1,300.1,21.8,297.3,21,295.1z"/>
	<path class="st9" d="M34,272.9c0.3,2-0.6,3.4-2.2,4.7c-4.1,3.4-7.3,7.3-7.9,12.9c-0.2,1.6-0.7,3.3-2.9,3.5c1.3-3.6,0.5-7.7,2.9-11
		c1.9-1.2,0.8-4.1,3.1-5c1.1-1.6,2.4-3,4.2-3.9C32,273.4,32.8,272.4,34,272.9z"/>
	<path class="st10" d="M841,117.1c0.3,2.9-0.8,4.4-3.9,3.9c-3.1-0.4-6.7,3.2-9.3-1.1c-0.3-1.8,1.4-1.1,2.1-1.6
		C833.5,116.6,837.2,116.5,841,117.1z"/>
	<path class="st7" d="M47.1,271c-4,4.6-9.7,5.1-12.1,1.1c0-0.7,0.7-0.7,1.1-0.9c3.2-1.4,6.6-1.3,10-1.1
		C46.6,270.2,46.9,270.5,47.1,271z"/>
	<path class="st11" d="M27.1,277.9c-1.1,1.6-0.6,4.2-3.1,5c1-4.3-0.9-6.9-5.1-7.5c-1.5-0.2-2.3-0.5-2-1.9c0.3-1.9,1.3-3.6,3.3-3.9
		c2.1-0.3,1.7,1.3,1.6,2.6C21.5,276,25.3,276,27.1,277.9z"/>
	<path class="st12" d="M62.1,321c-1.3,3.3-4.3,3.3-7.1,3.9c0-1,0.1-2.1,0.1-3.1c1.9-1.2,0.7-3,1-4.6c1-1.6,2.4-2.6,4.1-1.3
		C61.9,317.1,63.4,318.6,62.1,321z"/>
	<path class="st13" d="M246,304.9c-8,0-16,0-24-0.1c8.2-1.9,16.6-2.1,25-1.8C246.7,303.7,246.4,304.3,246,304.9z"/>
	<path class="st14" d="M851.9,173c0.6-0.1,1.1-0.1,1.7-0.2c0.6,2.8-0.9,6,1.8,8.4c1.2,1,0.3,2.2-0.7,2.9c-1,0.7-2.1,1-3.3,0.4
		c-1.6-0.8-0.9-1.8-0.2-2.8c1.7-2.3-0.3-4.4-0.4-6.7C851.7,174.7,851.9,173.9,851.9,173z"/>
	<path class="st15" d="M829.9,118.3c-0.7,0.5-1.4,1.1-2.1,1.6c-1-0.6-1.9-0.5-2.9,0.1c-0.2-2.1-0.4-4.4-2.3-5.7
		c-1.2-0.8-1.8-1.4-0.8-2.6c1-1.2,2.3-2,3.9-1.4c1.5,0.6,0.8,1.7,0.4,2.9C825.1,116.4,826.6,118.1,829.9,118.3z"/>
	<path class="st16" d="M36.1,271.1c-0.4,0.3-0.7,0.6-1.1,0.9c-0.3,0.3-0.7,0.6-1,0.8c-0.9,0.4-1.9,0.8-2.8,1.1
		c1.1-2.1,1.8-4.3-0.5-6.1c-1.1-0.8-1.6-1.6-0.5-2.7c0.7-0.7,1.6-1.3,2.6-1c1.6,0.5,1,1.7,0.8,2.8C33.2,269.1,34.2,270.4,36.1,271.1
		z"/>
	<path class="st17" d="M34,320.9c0.4,0.3,0.7,0.7,1.1,1c-0.2,1.8-2,3-1.5,5.1c0.3,1.4-0.9,1.6-1.9,1.5c-1-0.1-2-0.4-2.4-1.5
		c-0.2-0.9-0.1-1.8,1-1.9C32.7,324.7,32,321.6,34,320.9z"/>
	<path class="st18" d="M869,139.1c-0.4-0.7-0.7-1.3-1.1-2c0.9-0.2,2.2-0.2,2.7-0.8c1-1.3,1.9-1.7,3-0.3c0.7,0.9,1.4,1.9,0.7,3.1
		c-0.8,1.4-1.8,0.6-2.9,0.2C870.6,139,869.8,139.2,869,139.1z"/>
	<path class="st19" d="M47.1,271c-0.3-0.3-0.7-0.6-1-0.9c0.3-0.5,0.8-1.2,0.7-1.6c-0.3-1.2-0.7-2.2,0.9-2.7c1-0.2,2-0.3,2.7,0.5
		c0.9,1,0,1.7-0.7,2.4c-0.8,0.8,0.1,1.5,0.3,2.2c-0.7,0-1.4,0.1-2.1,0.1C47.7,271,47.4,271,47.1,271z"/>
	<path class="st20" d="M331.2,231.8c0-12.9,0-25,0-37.1c0-3.5,0.1-7-0.1-10.5c-0.2-2.7,1-3.4,3.5-3.4c6,0,12-0.2,18-0.6
		c3.5-0.2,4.5,1.1,4.5,4.5c0.3,20.8,0.8,41.6,1.2,62.4c0.2,8.3,0.2,16.6,0.7,24.9c0.3,4.1-1.3,5-5.1,5c-19.4,0.5-19.4,0.6-29-16.7
		c-0.5-0.9-1-1.7-1.6-2.5c-6.8-10.6-13.6-21.1-21.4-33.1c0,6.6-0.1,11.8,0,17c0.2,10.6,0.4,21.3,0.9,31.9c0.1,3.4-0.8,4.8-4.4,4.6
		c-5.6-0.2-11.3-0.2-17,0.3c-3.2,0.3-3.6-1-3.6-3.6c-0.3-18.3-0.7-36.6-1.1-54.9c-0.2-11.5-0.3-23-0.7-34.4c-0.1-3.3,1-4.6,4.2-4.3
		c0.3,0,0.7,0,1,0c6,0,13-1.9,17.6,0.6c4.6,2.5,6.6,9.5,9.8,14.5C316.1,208.1,323.5,219.7,331.2,231.8z"/>
	<path class="st20" d="M480,178.1c9,0.2,17.9-1.1,26.8,1c19.4,4.6,27.2,27,14.8,42.7c-2.1,2.6-5.9,4.3-6.9,6.9
		c-1.1,2.9,3.6,4.9,4.9,8c4.7,11,9.6,21.8,14.8,32.6c2,4.1,0.4,4.5-3,4.5c-6.2,0-12.3,0-18.5,0.3c-2.5,0.1-3.8-0.6-4.9-3
		c-4.1-9.2-8.6-18.3-12.9-27.5c-1.3-2.8-3.2-4.4-6.3-5c-6.5-1.2-8.1,0.1-8,6.5c0.2,8.3,0.3,16.6,0.8,24.9c0.2,3.6-0.8,5.2-4.6,5
		c-5-0.2-10-0.3-15,0.2c-4.8,0.5-5.9-1.7-5.9-5.8c0-10.5-0.2-21-0.4-31.4c-0.3-18.3-0.6-36.6-1.1-54.9c-0.1-3.7,1-5,4.7-4.9
		C466.4,178.3,473.2,178.1,480,178.1z"/>
	<path class="st20" d="M263.9,231.9c0.5,8.3-1,16.3-3.9,23.9c-5.3,13.8-15.4,22.3-30.1,24.6c-15.2,2.3-29.7,1-40.9-11.3
		c-7.7-8.4-10.6-18.9-11.5-30c-1.2-15,0-29.5,9.6-42.1c14.8-19.5,47.9-21.8,64.7-4.2c8.5,9,10.8,20.7,12.1,32.6
		C264.1,227.5,263.9,229.7,263.9,231.9z"/>
	<path class="st20" d="M699.8,270.8c-8.8,0-17.6-0.2-26.4,0.1c-4,0.1-5.5-0.7-5.5-5.1c-0.2-21.8-0.7-43.6-1.1-65.4
		c-0.1-7.1-0.3-14.3-0.7-21.4c-0.2-3.6,0.9-5,4.7-5c17.8-0.1,35.6-0.4,53.4-1c4.6-0.2,5.8,1.6,5.7,5.7c-0.1,4.2-0.1,8.3,0.1,12.5
		c0.2,3-0.8,4-3.9,4c-10,0-20,0.5-29.9,0.5c-3.3,0-4.3,1.1-4.2,4.4c0.6,11.3-2.2,10,10,9.9c6.3-0.1,12.6-0.2,19-0.6
		c3-0.2,4.2,0.8,4.1,3.9c-0.2,4.7-0.2,9.3,0.1,14c0.2,3.4-0.9,4.6-4.4,4.6c-8-0.1-16,0.3-24,0.2c-3.6,0-4.6,1.3-4.5,4.7
		c0.4,11.7,0.3,11.7,11.7,11.5c7.8-0.1,15.7-0.1,23.5-0.4c3.5-0.2,4.7,1.1,4.6,4.5c-0.1,4.5,0,9,0.3,13.5c0.2,3-0.9,4.1-4,4.1
		c-9.5-0.1-19,0-28.5,0C699.8,270.1,699.8,270.4,699.8,270.8z"/>
	<path class="st20" d="M616.4,271.7c-13,0.2-13,0.2-17.1-12.5c-2.5-7.6-2.5-7.6-10.6-7.5c-5.7,0.1-11.3,0.1-17,0.2
		c-2.4,0-4.3,0.2-4.9,3.5c-1,5-3.1,9.8-4.4,14.7c-0.6,2.2-1.7,2.9-3.8,2.9c-5.8,0-11.7,0.1-17.5,0.3c-3.2,0.1-3.4-0.9-2.5-3.8
		c6.6-21.3,13-42.6,19.4-63.9c2.4-8.1,4.8-16.2,7.2-24.3c1.1-3.7,2.7-5.8,7.2-5.6c6.1,0.4,12.3-0.1,18.4-0.4
		c2.9-0.1,4.7,0.8,5.7,3.6c6.8,18.7,13.7,37.4,20.5,56.1c3.9,10.8,7.7,21.6,11.9,32.3c1.3,3.3,0.8,4.6-2.9,4.4
		C622.7,271.6,619.6,271.7,616.4,271.7z"/>
	<path class="st20" d="M96.2,232.3c0.3-14.3,2.9-27.7,13.9-38.2c15.1-14.3,47-18.4,64.4,5.4c1.5,2,1.1,2.9-0.9,4.3
		c-4.1,2.8-8,6-11.8,9.1c-2.2,1.8-3.8,2.1-5.7-0.6c-1.3-1.9-3.2-3.3-5.1-4.8c-8.7-6.9-20.2-5.2-24.9,4.8
		c-6.5,13.6-6.1,27.9,1.1,41.2c4.7,8.7,15.4,11,24.4,6.4c3.1-1.6,6.3-3.1,8.7-5.7c1.9-2,3.1-1.6,4.7,0.5c2.7,3.6,5.6,7,8.6,10.3
		c2,2.2,1.9,3.6-0.4,5.7c-11.6,10.5-25.3,13.5-40.3,11.5c-23.9-3.2-35.3-20.7-36.6-45C96.1,235.7,96.2,234,96.2,232.3z"/>
	<path class="st20" d="M406,178.3c11.3,0,22.6,0.1,33.9-0.1c3.6-0.1,5.3,0.8,5,4.7c-0.2,3.3,0,6.7,0,10c0.1,7.4,0.1,7.5-7.5,7.8
		c-3.8,0.1-7.7,0.1-11.5,0.2c-7.8,0.1-7.8,0.1-7.6,8.1c0.5,20.1,1,40.2,1.5,60.4c0.2,6.3,0.1,6.4-6.4,6.5c-4.7,0.1-9.3,0-14,0.3
		c-3.4,0.2-4.6-0.8-4.6-4.4c-0.4-21.6-1.2-43.2-1.5-64.9c-0.1-4.6-1.5-5.6-5.7-5.2c-5.3,0.4-10.6,0.1-16,0.3c-2.6,0.1-4-0.6-3.9-3.6
		c0.1-4.6-0.1-9.3-0.5-14c-0.3-3.4,0.8-4.7,4.4-4.6c11.5,0.2,23,0.1,34.4,0.1C406,179.4,406,178.9,406,178.3z"/>
	<path class="st20" d="M776.3,269.2c-8.7,0-17.3-0.4-26,0.1c-5.3,0.3-6.1-2.3-6.2-6.4c-0.2-13-0.3-26-0.5-38.9
		c-0.3-15.5-0.5-30.9-1-46.4c-0.1-3.7,0.8-5,4.6-4.9c5.3,0.1,10.6-0.1,16-0.5c3.7-0.3,4.7,1.2,4.9,4.9c1,20.6,0.5,41.3,0.9,61.9
		c0.2,9.6-0.1,7.9,7.7,7.8c9-0.1,18-0.3,26.9-0.7c3.3-0.2,4.4,0.9,4.2,4.2c-0.2,4.6-0.2,9.3,0.1,14c0.2,3.5-1.3,4.3-4.3,4.2
		c-9.1-0.1-18.3,0-27.5,0C776.3,268.6,776.3,268.9,776.3,269.2z"/>
	<path class="st21" d="M62.1,321c-0.8-3.1-1.9-5.8-5.9-3.7c-0.5-1.9,0.7-2.9,2-4.1c6.2-5.2,8-12.3,7.6-20c-0.1-1.9-0.4-3.2,1.7-3.8
		c2.6-0.8,2.7,1.4,3,2.8c0.4,2.1,0.7,4.3,0.5,6.4c-0.4,4.2,2.1,5.9,5.2,5c3.1-0.9,3.7,0.9,4.9,2.5c-1.5,2.2-3,3.6-6.3,3.6
		c-2.3,0-4.6,2.8-6.9,4.3c-2.6-0.1-4.4,0.7-4.1,3.8c1,2.7,1.4,5.8,4.5,7.2c1.1,0.5,1.8,1,1,2.1c-0.8,1.3-2,2.2-3.7,1.9
		c-1.2-0.2-1.7-1.1-1.3-2.1C65.4,324.1,64.2,322.4,62.1,321z"/>
	<path class="st22" d="M828.3,158c-5.3,0-9.3-4-9.3-9.4c-0.1-5.7,3.3-8.7,9.7-8.6c5.2,0.1,8.3,3.6,8.3,9.5
		C836.9,155,833.7,158.1,828.3,158z"/>
	<path class="st23" d="M35.7,304.9c-4.9-0.2-7.9-3.9-7.6-9.6c0.2-4,2.9-6.4,7.2-6.3c3.8,0.1,8,4.8,7.8,8.8
		C42.8,301.7,39.3,305.1,35.7,304.9z"/>
	<path class="st23" d="M848.5,164.8c-3.7,0-7.3-3.2-7.4-6.6c-0.1-3.6,3.7-7,8.1-7.2c3.6-0.1,6.8,3.3,6.7,7.1
		C855.7,161.6,852.2,164.8,848.5,164.8z"/>
	<path class="st24" d="M813.5,148.8c1.7,0.5,1.9,2.2,2.4,3.5c2.2,6.3,5.6,11.6,10.8,15.9c1,0.8,3.4,1.5,1.6,3.3
		c-1.4,1.4-2.6-0.5-3.7-1.4c-3.3-2.8-6-6.2-8.4-9.8c-1.1-1.7-2.2-2.2-4.1-1.4c-4,1.7-9,1.4-11.4,6.2c-0.7,1.4-2,0.9-3,0.1
		c-1.6-1.4-3.4-2.9-2.4-5.5c0.4-1,1.2-1.4,2.4-1.2C806,160.1,812.1,156.4,813.5,148.8z"/>
	<path class="st25" d="M52.9,298.9c4.1,0,5.3,2.2,5.2,5.8c-0.1,3.9-2,5.2-5.7,5.3c-4,0-6.2-2.3-6.1-5.8
		C46.5,300.6,49.5,299,52.9,298.9z"/>
	<path class="st26" d="M850.9,141.1c0.2,3-1.5,4.1-4.3,4c-2.7-0.1-4.6-1.2-4.6-4c0-2.8,2-3.9,4.6-4
		C849.5,136.9,851.1,138,850.9,141.1z"/>
	<path class="st27" d="M55,290.5c-0.6,2.2-1.9,3.6-4.3,3.4c-2.2-0.2-3.8-1.1-3.6-3.8c0.2-2.3,1.6-3.1,3.7-3.1
		C53.1,287,54.5,288.2,55,290.5z"/>
	<path class="st28" d="M646.3,96.6c0.2,5.5-2.9,13.9-9.4,20.9c-7.4,8-18.8,8.9-27.6,2.7c-16.4-11.6-16.8-42.4-0.7-54.4
		c9.7-7.2,22.8-5.3,30.1,4.4C643.8,77.2,646,83.8,646.3,96.6z"/>
	<path class="st28" d="M329.3,348c0,6.5-0.7,12.2-3.1,17.6c-2.2,5-6.1,7.6-11.2,7.8c-5.2,0.3-9.7-2.5-11.7-7.1
		c-5.4-12.4-5.6-25.2-0.4-37.8c2-4.8,6.1-7.4,11.5-7.3c5.1,0.2,8.7,2.8,10.9,7.4C328.5,335,329.4,341.7,329.3,348z"/>
	<path class="st29" d="M229.5,331.9c-0.4-10.4,1.1-11.6,11.4-9.2c3.4,0.8,5.9,2.4,6.2,6.1c0.4,4.2,0.5,8.5-3.8,11.1
		c-3.8,2.3-8.1,1.4-12.2,1.6c-1.6,0.1-1.7-1.4-1.7-2.6C229.5,336.6,229.5,334.3,229.5,331.9z"/>
	<path class="st30" d="M648,328.1c0-0.3-0.1-0.7,0-1c0.8-3.3-3-8.8,4.6-8.9c8.9-0.1,12.9,2.2,13.2,8.4c0.3,6.6-3.1,10.6-9.3,11.2
		C648.1,338.6,648.1,338.6,648,328.1z"/>
	<path class="st28" d="M175.5,349.9c-0.1,5.5-0.4,11-2.7,16.1c-2.3,5-5.6,8.6-11.5,8.8c-5.8,0.2-10.2-2.8-12.2-7.8
		c-4.9-12-5-24.4-0.3-36.5c1.9-4.8,6-7.9,11.8-7.8c5.5,0.1,8.9,3.1,11.2,7.8C174.8,336.6,175.5,343.2,175.5,349.9z"/>
	<path class="st31" d="M476,353.9c-8.2,0-8.2,0-6.1-7.9c1.5-5.6,3-11.2,4.6-16.8c0.3-1.1-0.1-3.1,1.7-3c1.6,0.1,1.5,2,1.8,3.2
		c1.9,6.7,3.8,13.4,5.7,20c0.9,3,1,5.2-3.2,4.5C479,353.8,477.5,353.9,476,353.9z"/>
	<path class="st32" d="M63.9,317.6c-1.2-1.1-2.6-2.7-1.1-4c1.4-1.2,3.5-1.4,5.2,0.2C66.6,315.1,65.2,316.4,63.9,317.6z"/>
	<path class="st33" d="M487.4,218.9c-6.6,0.2-6.6,0.2-6.7-6.5c-0.1-3.6-0.2-7.3-0.4-10.9c-0.2-2.9,0.7-4.4,3.9-4.2
		c2.6,0.2,5.3,0,7.9,0.4c6.9,0.9,9.8,4.1,9.7,10.1c-0.2,6.4-4.3,10.7-10.9,11.2C489.7,218.9,488.6,218.9,487.4,218.9z"/>
	<path class="st0" d="M238.3,232.9c0,6-0.7,11.4-2.4,16.7c-2,6.4-8.3,11.1-14.5,11.2c-5.8,0.1-13.1-4.7-15.1-10.6
		c-4.1-11.9-5.1-24-0.9-36.2c2.7-7.8,7.7-11.8,14.7-11.9c6.7-0.1,12,3.8,14.9,11.2c0.9,2.1,1.6,4.4,1.9,6.7
		C237.6,224.4,238.6,228.8,238.3,232.9z"/>
	<path class="st34" d="M581.4,201.2c3.4,7.4,5,15.3,7.3,23c2.6,8.9,2.5,8.9-7.2,9.1c-10,0.1-10,0.1-7.2-9.9c2-7.2,4-14.3,6-21.5
		C580.4,201.7,580.9,201.6,581.4,201.2z"/>
</g>
</svg>
