<?xml version="1.0" encoding="utf-8"?>
<!-- Generator: Adobe Illustrator 23.1.0, SVG Export Plug-In . SVG Version: 6.00 Build 0)  -->
<svg version="1.1" id="Capa_1" xmlns="http://www.w3.org/2000/svg" xmlns:xlink="http://www.w3.org/1999/xlink" x="0px" y="0px"
	 viewBox="0 0 1366 354" style="enable-background:new 0 0 1366 354;" xml:space="preserve">
<style type="text/css">
	.st0{fill:#58585A;}
	.st1{fill:#E2001B;}
	.st2{fill:#FEFEFE;}
	.st3{fill:#FDFDFD;}
	.st4{fill:#F98181;}
	.st5{fill:#BD191F;}
	.st6{fill:#AEAEB0;}
	.st7{fill:#414141;}
	.st8{fill:#FCFCFC;}
	.st9{fill:#FCFCFD;}
	.st10{fill:#F9F9FA;}
	.st11{fill:#FBFBFC;}
	.st12{fill:#393939;}
	.st13{fill:#404042;}
	.st14{fill:#3C3C3E;}
	.st15{fill:#FDFBFB;}
	.st16{fill:#FDFAFA;}
	.st17{fill:#FCF8F7;}
	.st18{fill:#FDFBFA;}
	.st19{fill:#FBF4F3;}
	.st20{fill:#B1121E;}
	.st21{fill:#A61722;}
	.st22{fill:#A9131F;}
	.st23{fill:#A91523;}
	.st24{fill:#D70819;}
	.st25{fill:#1B823F;}
	.st26{fill:#F4E53E;}
	.st27{fill:#DB061A;}
	.st28{fill:#D60A1C;}
	.st29{fill:#B3212C;}
	.st30{fill:#2D090A;}
	.st31{fill:#280908;}
	.st32{fill:#0B0B0B;}
	.st33{fill:#0D0D0D;}
	.st34{fill:#2F090A;}
	.st35{fill:#390909;}
	.st36{fill:#941E0D;}
	.st37{fill:#0C0C0C;}
	.st38{fill:#0E0E0E;}
	.st39{fill:#0F0F0F;}
	.st40{fill:#131111;}
	.st41{fill:#0A0909;}
	.st42{fill:#390D09;}
	.st43{fill:#D8CD49;}
	.st44{fill:#102812;}
	.st45{fill:#0B210F;}
	.st46{fill:#131313;}
	.st47{fill:#E8E14C;}
	.st48{fill:#0B230F;}
	.st49{fill:#390D0E;}
	.st50{fill:#CDC860;}
	.st51{fill:#D0CC5B;}
	.st52{fill:#FAD6CE;}
	.st53{fill:#413610;}
	.st54{fill:#34100E;}
	.st55{fill:#0B1F0C;}
	.st56{fill:#3F3914;}
	.st57{fill:#6F7134;}
	.st58{fill:#B0A553;}
	.st59{fill:#061A07;}
	.st60{fill:#575758;}
	.st61{fill:#DE031A;}
	.st62{fill:#DF021B;}
	.st63{fill:#FEFDFD;}
	.st64{fill:#F8E32E;}
	.st65{fill:#DE041A;}
	.st66{fill:#F3DD26;}
	.st67{fill:#DE041B;}
	.st68{fill:#FAF7F6;}
	.st69{fill:#F9FAF8;}
	.st70{fill:#F4D63B;}
	.st71{fill:#2E0A02;}
	.st72{fill:#9B2903;}
	.st73{fill:#570B00;}
	.st74{fill:#FDFEFE;}
	.st75{fill:#081E0B;}
	.st76{fill:#152911;}
	.st77{fill:#09260F;}
	.st78{fill:#07240A;}
	.st79{fill:#06280B;}
	.st80{fill:#061E06;}
	.st81{fill:#072807;}
	.st82{fill:#012A06;}
	.st83{fill:#022207;}
	.st84{fill:#071E0B;}
	.st85{fill:#FAFCF9;}
	.st86{fill:#80CEF0;}
	.st87{fill:#AF2313;}
	.st88{fill:#82CDEA;}
	.st89{fill:#B81916;}
	.st90{fill:#F1DF21;}
	.st91{fill:#F8F7F4;}
	.st92{fill:#0D1000;}
	.st93{fill:#2F0A03;}
	.st94{fill:#151104;}
	.st95{fill:#E8E479;}
	.st96{fill:#714D06;}
	.st97{fill:#3D3B13;}
	.st98{fill:#3E5329;}
	.st99{fill:#30290E;}
	.st100{fill:#16210C;}
	.st101{fill:#263815;}
	.st102{fill:#303916;}
	.st103{fill:#591301;}
	.st104{fill:#716B28;}
	.st105{fill:#DD041B;}
	.st106{fill:#DE031B;}
	.st107{fill:#F5D43B;}
	.st108{fill:#FCF9F8;}
	.st109{fill:#E8D357;}
	.st110{fill:#A21E16;}
	.st111{fill:#FBD2C4;}
	.st112{fill:#E0021B;}
	.st113{fill:#E1021B;}
	.st114{fill:#EBEBEB;}
	.st115{fill:#E8E8E8;}
	.st116{fill:#EAEAEA;}
	.st117{fill:#A21F17;}
	.st118{fill:#F6F6F6;}
	.st119{fill:#EFEFEF;}
	.st120{fill:#CBCBCB;}
	.st121{fill:#898334;}
	.st122{fill:#817371;}
	.st123{fill:#BA1719;}
	.st124{fill:#64260C;}
	.st125{fill:#41552D;}
	.st126{fill:#090F01;}
	.st127{fill:#701701;}
	.st128{fill:#241C05;}
	.st129{fill:#B47340;}
	.st130{fill:#387942;}
	.st131{fill:#CBEBC8;}
	.st132{fill:#DBF3D7;}
	.st133{fill:#718358;}
	.st134{fill:#2E7B40;}
	.st135{fill:#357C4B;}
	.st136{fill:#287E40;}
	.st137{fill:#31703E;}
	.st138{fill:#C2E8C2;}
	.st139{fill:#2E733B;}
	.st140{fill:#BFEBC3;}
	.st141{fill:#3C844E;}
	.st142{fill:#3F733E;}
	.st143{fill:#3C7A46;}
	.st144{fill:#3C6E4B;}
	.st145{fill:#2A7241;}
	.st146{fill:#407A52;}
	.st147{fill:#346E3C;}
	.st148{fill:#2F7434;}
	.st149{fill:#CDEAC6;}
	.st150{fill:#396C3F;}
	.st151{fill:#347243;}
	.st152{fill:#D1EFCE;}
	.st153{fill:#2A6C34;}
	.st154{fill:#316C34;}
	.st155{fill:#2B6534;}
	.st156{fill:#396E47;}
	.st157{fill:#346C41;}
	.st158{fill:#AFE1AA;}
	.st159{fill:#296639;}
	.st160{fill:#8CD1A1;}
	.st161{fill:#C66E35;}
	.st162{fill:#98C1C9;}
	.st163{fill:#7F7466;}
	.st164{fill:#9DC0C8;}
	.st165{fill:#383C3D;}
	.st166{fill:#DF031A;}
	.st167{fill:#4A1206;}
	.st168{fill:#A3714E;}
	.st169{fill:#464742;}
	.st170{fill:#9F724F;}
	.st171{fill:#84CBEB;}
	.st172{fill:#A0C0D2;}
	.st173{fill:#E3C03F;}
	.st174{fill:#531C08;}
	.st175{fill:#E2B648;}
	.st176{fill:#E5BF48;}
	.st177{fill:#491F05;}
	.st178{fill:#6A450F;}
	.st179{fill:#D9C44C;}
	.st180{fill:#DFBA4E;}
	.st181{fill:#201208;}
	.st182{fill:#E1C13F;}
	.st183{fill:#E3BC44;}
	.st184{fill:#E6C23C;}
	.st185{fill:#DDBA50;}
	.st186{fill:#DEBC4B;}
	.st187{fill:#D7BB67;}
	.st188{fill:#E6F2D5;}
	.st189{fill:#889264;}
	.st190{fill:#E0EDC6;}
	.st191{fill:#2C6E39;}
	.st192{fill:#DCEAC0;}
	.st193{fill:#316D35;}
	.st194{fill:#337234;}
	.st195{fill:#307143;}
	.st196{fill:#8B9466;}
	.st197{fill:#572910;}
	.st198{fill:#3F3026;}
	.st199{fill:#663B1D;}
	.st200{fill:#904412;}
	.st201{fill:#F6C911;}
	.st202{fill:#A81E1E;}
	.st203{fill:#99271B;}
	.st204{fill:#F1C71B;}
	.st205{fill:#3D1202;}
	.st206{fill:#3C1D04;}
	.st207{fill:#501E03;}
	.st208{fill:#DDB746;}
	.st209{fill:#391003;}
	.st210{fill:#502105;}
	.st211{fill:#7A4D07;}
	.st212{fill:#481002;}
	.st213{fill:#DDB957;}
	.st214{fill:#41372E;}
	.st215{fill:#E5BE3F;}
	.st216{fill:#E4BF3E;}
	.st217{fill:#370D02;}
	.st218{fill:#DDC84E;}
	.st219{fill:#E8B83B;}
	.st220{fill:#E6B95A;}
	.st221{fill:#E6C134;}
	.st222{fill:#DDB74F;}
	.st223{fill:#E7C032;}
	.st224{fill:#D9B93F;}
	.st225{fill:#DFC347;}
	.st226{fill:#CAB458;}
	.st227{fill:#446843;}
	.st228{fill:#3B6A34;}
	.st229{fill:#EEC820;}
	.st230{fill:#2F1403;}
	.st231{fill:#EFC627;}
	.st232{fill:#E5C246;}
	.st233{fill:#EDC535;}
	.st234{fill:#CBA842;}
	.st235{fill:#461902;}
	.st236{fill:#5C2300;}
	.st237{fill:#D0AF5D;}
	.st238{fill:#DEB466;}
	.st239{fill:#E2BC61;}
	.st240{fill:#CFB85B;}
	.st241{fill:#E6B968;}
	.st242{fill:#E4C447;}
	.st243{fill:#371B01;}
	.st244{fill:#EEC62A;}
	.st245{fill:#F4CA19;}
	.st246{fill:#613F05;}
	.st247{fill:#542D03;}
	.st248{fill:#F4C819;}
	.st249{fill:#E1BE41;}
	.st250{fill:#F5C917;}
	.st251{fill:#4F3202;}
	.st252{fill:#DFBF58;}
	.st253{fill:#DEC074;}
	.st254{fill:#604711;}
	.st255{fill:#947B0A;}
	.st256{fill:#764D05;}
	.st257{fill:#633E06;}
</style>
<g>
	<path class="st0" d="M716,0.1c215.7,0,431.4,0,647.1-0.1c3.9,0,4.9,0.6,4.9,4.8c-0.2,116-0.1,232.1-0.1,348.1
		c-1.7,0.9-3.6,0.5-5.4,0.5c-213.5,0-427,0-640.5,0c-1.7,0-3.3,0.2-5-0.2c-2-0.9-2.3-2.7-2.4-4.6c-0.1-1.5-0.1-3-0.1-4.5
		c0-112,0-223.9,0-335.9C714.6,5.5,713.9,2.5,716,0.1z"/>
	<path class="st1" d="M319,0.1c125.3,0,250.6,0,375.9,0c2.1,2.6,1.4,5.7,1.4,8.7c0,101.8,0,203.5,0,305.3c0,10.3,0,20.7,0,31
		c0,7.1-0.8,7.9-7.7,7.9c-121.1,0-242.3,0-363.4,0c-7.1,0-7.7-0.7-7.7-9.4c0-108.9,0-217.8,0-326.8c0-3.7,0-7.3,0-11
		C317.7,3.8,317.5,1.7,319,0.1z"/>
	<path class="st2" d="M317,353.9c-105.3,0-210.6,0-315.9,0.1c-3.4,0-4.1-0.7-4.1-4.1C-2.9,234.6-2.9,119.4-3,4.1C-3,0.7-2.3,0,1.1,0
		C106.4,0.1,211.7,0.1,317,0.1c1.5,1.9,1,4.2,1,6.3c0,114.3,0,228.5,0,342.8C318,350.8,318.4,352.5,317,353.9z"/>
	<path class="st3" d="M715,353.9c-6,0-12,0-18,0c-1.3-1.4-1-3.1-1-4.7c0-114.3,0-228.5,0-342.8c0-2.1-0.5-4.4,1-6.3c6,0,12,0,18,0
		c0.9,1.9,0.5,3.9,0.5,5.9c0,113.4,0,226.7,0,340.1c0,2-0.1,4,0.1,6C715.6,352.7,715.4,353.4,715,353.9z"/>
	<path class="st4" d="M697,0.1c0.1,1.7,0.1,3.3,0.1,5c0,114.1,0,228.2,0,342.3c0,2.2-0.1,4.3-0.1,6.5c-126.6,0-253.3,0-379.9,0
		c0-48.4-0.1-96.8-0.1-145.2c0-69.5,0-139.1,0.1-208.6c0.3,0,0.7,0,1,0C319,2,318.5,4,318.5,6c0,113.1,0,226.2,0,339.2
		c0,7.2,0,7.2,7.1,7.2c121,0,241.9,0,362.9,0c7.1,0,7.1,0,7.1-7.2c0-113.1,0-226.2,0-339.2c0-2-0.5-4,0.5-5.9
		C696.3,0.1,696.7,0.1,697,0.1z"/>
	<path class="st5" d="M696,0.1c0,1.8,0.1,3.7,0.1,5.5c0,113.6,0,227.1,0,340.7c0,6.7,0,6.7-6.7,6.7c-121.8,0-243.5,0-365.3,0.1
		c-5.1,0-6.3-1.2-6.3-6.3c0.2-115.5,0.1-231.1,0.2-346.6c0.3,0,0.7,0,1,0c0,114.4,0,228.8,0,343.2c0,8.5,0,8.5,8.8,8.5
		c119.8,0,239.6,0,359.4,0c7.8,0,7.8,0,7.8-7.5c0-114.7,0-229.5,0-344.2C695.3,0.1,695.7,0.1,696,0.1z"/>
	<path class="st6" d="M715,353.9c0-0.3,0-0.7,0-1c0.6-0.6,1.2-0.5,1.9-0.1c2.3,0.1,4.7,0.2,7,0.2c214.7,0,429.3,0,644,0
		c-0.2,0.3,0.5,1-0.5,1c-1.3,0-2.7,0-4,0C1147.2,353.9,931.1,353.9,715,353.9z"/>
	<path class="st7" d="M716.9,352.8c-0.6,0-1.3,0.1-1.9,0.1c0-1.2-0.1-2.3-0.1-3.5c0-115.3,0-230.5,0-345.8c0-1.2,0.1-2.3,0.1-3.5
		c0.3,0,0.7,0,1,0c0,115.3,0,230.6,0,345.8C716,348.3,715.6,350.6,716.9,352.8z"/>
	<path class="st3" d="M770.9,164.9c-1.3,1.2-3,1.4-4.6,1.6c-6.2,0.8-7.6-0.5-7.6-6.8c0-25.3,0-50.6,0-75.9c0-7.2,0.8-8,8.1-8
		c11.6-0.1,12.1,0.2,16.4,11.1c8.1,20.3,16.1,40.6,24.5,61.7c4.3-10.3,8.3-19.9,12.3-29.5c5-11.9,9.9-23.9,14.8-35.8
		c2.8-6.7,13.4-10.3,19.8-6.7c2.2,1.2,2.4,3.4,2.4,5.6c0,26.6-0.1,53.3,0.1,79.9c0,4.6-2.8,4.6-5.8,4.5c-3-0.1-6.3,0.6-6.3-4.6
		c0.2-23.5,0.1-46.9,0.1-70.4c0-1.2,0-2.5,0-3.7c-0.3,0-0.6-0.1-0.9-0.1c-5.4,13.3-10.8,26.5-16.2,39.8c-4.7,11.5-9.5,23-13.9,34.6
		c-1.4,3.8-3.9,4.5-7.3,4.5c-3.2,0-5.5-1-6.8-4.5c-8.5-22.5-17.2-44.9-25.9-67.3c-0.4-0.9-0.8-1.8-1.3-2.8c-2,0.9-2.2,2.4-1.8,4
		c0.8,2.9,0.4,5.9,0.4,8.9c0,18.5,0,37.1,0,55.6C771.4,162,772,163.6,770.9,164.9z"/>
	<path class="st3" d="M1221.7,275.2c-2.4,2.1-3.9,3.3-5.4,4.6c-13.3,11.5-35.9,7.5-40.5-13.4c-2.3-10.5-2.6-20.8,0.8-31
		c6.4-19.2,26-24.5,41.3-11.4c0.5,0.4,0.9,0.8,2.3,2c0-4.4,0-7.9,0-11.5c0-6.5,0-13,0-19.5c0-6.7,3.2-8.9,9.7-7
		c2.5,0.8,2.1,2.7,2.1,4.4c0,8.2,0,16.3,0,24.5c0,20.7,0,41.3,0,62c0,3.6,0.1,6.4-5,6.3c-4.6-0.1-5.9-1.8-5.3-6
		C1221.8,278.3,1221.7,277.3,1221.7,275.2z"/>
	<path class="st3" d="M801,274.9c-5.9,5.7-11.3,10.2-18.7,10.9c-13.3,1.4-22.6-4.6-26.6-17.3c-3.5-11.1-3.5-22.3,0.2-33.3
		c6.2-18.6,25.5-24.2,40.6-11.8c0.8,0.6,1.5,1.3,3.1,2.6c0-3.5,0-6.2,0-8.9c0-7.5,0-15,0-22.5c0-6.2,3.5-8.6,9.5-6.5
		c2.4,0.8,2.1,2.7,2.1,4.5c0,7.8,0,15.6,0,23.5c0,21.1,0,42.2,0,63.4c0,5.1-4.5,7.6-8.9,5.3c-1.3-0.7-1.3-1.7-1.3-2.9
		C801,279.8,801,277.9,801,274.9z"/>
	<path class="st8" d="M954.7,285.9c-7.1,0.3-13.8-1.4-20.1-4.8c-2.6-1.4-4.3-3.2-4.5-6.1c-0.2-2.3-0.7-5.1,1.5-6.5
		c2-1.3,3.6,1,5.3,1.9c7.6,4.2,15.6,6.7,24.4,4.7c5.8-1.3,10.1-4.5,11.5-10.5c1.4-6-0.4-11.1-5.6-14.9c-5.3-3.9-11.5-5.9-17.2-8.9
		c-7.9-4.1-15-9-16.9-18.4c-3.1-15.7,6.3-27.7,22.7-29.1c7.3-0.7,14.3,0.4,20.8,3.8c3.9,2,5.7,7,4.1,11c-1,2.3-2.4,1.7-4,0.8
		c-4.7-2.9-9.7-5-15.3-5.6c-10.4-1-17.6,5.2-16.5,14.3c0.7,5.8,4.9,8.9,9.5,11.4c5.8,3.2,11.9,5.8,17.8,8.9
		c5.9,3.1,10.5,7.6,12.6,14.1c5.3,16.5-6.7,32.7-25.1,33.9C958.1,286,956.4,285.9,954.7,285.9z"/>
	<path class="st3" d="M1303.3,167.3c-24.4,0.3-33.3-14.6-32.9-35.3c0.3-10.9,2.9-21.3,12.6-27.9c11.3-7.7,23.6-8.1,35.5-2.2
		c12.6,6.3,15,18.4,14.8,31c-0.1,12.4-3.6,23.7-15.4,30.5C1312.8,166.3,1307.1,167.3,1303.3,167.3z"/>
	<path class="st8" d="M862.3,253.9c-6.3,0-12.6,0.1-19,0c-2.4,0-3,0.6-2.9,3.1c0.7,13.6,8.4,20.5,22.1,19.6c5.2-0.4,10.1-1.4,15-3.4
		c1.7-0.7,4.1-3,5.5,0.2c1.3,3,1.3,6.4-2.1,8.3c-2.3,1.2-4.9,1.9-7.5,2.6c-7.1,2.1-14.5,2.5-21.7,1.2c-14.2-2.6-21.5-11.4-23.4-28.1
		c-1-8.5,0.1-16.9,3.9-24.8c5.7-11.8,19.1-17.9,32.8-15.1c12.7,2.6,20.1,11.6,21,25.4c0.1,1.3,0.2,2.7,0.2,4c0.1,5.8-1.1,7-6.9,7
		C873.6,253.9,868,253.9,862.3,253.9z"/>
	<path class="st8" d="M1150.7,135c-6.2,0-12.3,0.2-18.5-0.1c-3.1-0.1-3.6,1.2-3.3,3.8c1.1,13.3,9.3,20.2,22.8,19.1
		c4.8-0.4,9.5-1.5,14-3.1c1.8-0.6,4.1-3.5,5.9-0.1c1.6,3,0,7.5-3.1,8.8c-7.1,3.1-14.7,4.2-22.4,3.8c-18.8-1.1-28.9-11.9-29.3-30.8
		c-0.1-7.2,0.2-14.3,3.1-21c6-13.9,21.3-20.6,36.7-16.1c12,3.5,20,17.5,18.1,31.5c-0.4,3.1-2.1,4.2-5.1,4.2
		C1163.4,135,1157.1,135.1,1150.7,135z"/>
	<path class="st9" d="M1039.1,277.2c-8.5,8.2-17.6,10.6-28.1,7.8c-8.1-2.2-12.7-7.8-13.7-16.5c-0.9-7.3,3.1-14.5,10-18.1
		c7.8-4.1,16.3-4.8,24.8-4.2c5.2,0.4,6-1.6,5.7-6.2c-1-13.2-8.9-14.7-21.2-12.7c-3.2,0.5-6.1,2.4-9.2,3.6c-1.9,0.7-4.2,3.8-5.9,0.6
		c-1.5-2.9-1.5-6.6,2-8.9c4.5-3,9.7-4.6,14.9-5.3c5.9-0.8,12-0.9,17.8,1.1c7.8,2.6,12.4,8.2,12.7,16.2c0.5,15.6,0.3,31.3,0.5,47
		c0,3.6-2.3,3.6-4.7,3.4c-2.3-0.1-5.4,0.9-5.4-3.2C1039.1,280.7,1039.1,279.5,1039.1,277.2z"/>
	<path class="st3" d="M923.6,108.9c4-4.1,8.3-7.8,13.7-9.6c15.4-5.1,28.5,4.7,29.3,22.7c0.6,13.5,0.1,26.9,0.2,40.4
		c0,4.8-3.6,4.1-6.3,4.1c-2.7,0-5.6,0.2-5.5-4.3c0.2-11.6,0.1-23.3,0.1-34.9c0-2.7-0.2-5.3-0.8-7.9c-2.4-10.3-11.3-14.2-20.1-8.4
		c-6.2,4.1-11,8.8-10.3,17.7c0.9,10.9-0.1,22,0.3,32.9c0.2,4.8-2.6,5.1-5.9,5.1c-3.3,0-6.2-0.1-6.1-5c0.2-19.1,0.2-38.3,0-57.4
		c0-4.2,1.9-5,5.5-5c3.7,0,5.8,0.9,5.3,5.1C922.8,105.6,922.5,107.2,923.6,108.9z"/>
	<path class="st3" d="M1146.2,275.2c-6.7,6.4-12.8,10.9-21.4,10.8c-12.5-0.2-21.1-7.5-21.6-20.1c-0.6-14.6-0.3-29.3-0.5-44
		c-0.1-4.6,3.1-3.9,5.9-3.9c3.1-0.1,6.1-0.2,6,4.4c-0.1,11.7,0,23.3,0,35c0,3.3,0,6.6,1.2,9.8c2.7,7.6,10.1,11.2,17.2,7.4
		c7.1-3.8,13.1-8.5,12.3-18.4c-0.8-11.1,0-22.3-0.3-33.5c-0.1-4.9,2.6-4.9,6-4.8c3.5,0,6,0.1,6,4.9c-0.2,19.1-0.2,38.3,0,57.5
		c0.1,4.6-2.3,4.7-5.6,4.7c-3.1,0-5.8-0.3-5.3-4.5C1146.3,279.2,1146.2,277.7,1146.2,275.2z"/>
	<path class="st9" d="M1035.4,167.3c-5.7,0-11.2-1-16.4-3.7c-2.3-1.2-3.5-2.9-3.8-5.5c-0.2-2-0.3-4.3,1.2-5.7
		c1.7-1.5,3.3,0.6,4.8,1.4c6.3,3.3,12.9,5.5,20.1,3.2c3.7-1.2,6.4-3.4,6.9-7.6c0.5-4.2-1.2-7.2-4.8-9c-4.3-2.1-8.8-3.9-13.2-5.8
		c-10.5-4.7-14.5-11.1-13.2-20.9c1.1-7.8,8.6-14.2,18.6-15.4c5.9-0.7,11.6,0.1,17,2.7c2.2,1,4.1,2.4,4.1,5.1c0,1.9,0.7,4.3-1.3,5.6
		c-1.7,1-3-0.8-4.4-1.5c-5.1-2.3-10.2-3.8-15.9-2.4c-3.8,0.9-6.3,3.1-7,6.9c-0.7,3.6,1,6.4,3.9,8.6c3.3,2.4,7.1,3.6,10.8,5.1
		c2.5,1,4.9,2.1,7.2,3.3c6.2,3.3,10,8,9.9,15.4c-0.1,7.7-3.2,13.4-10,17.1C1045.3,166.6,1040.4,167.2,1035.4,167.3z"/>
	<path class="st8" d="M1077.2,130.1c0-5.3-0.2-10.7,0.1-16c0.2-3.9-1-5.4-5-5c-2.5,0.3-5.5,0.9-6.1-3.1c-0.7-4.4,0.9-6.8,5.5-6.3
		c4.8,0.5,6.2-1.4,5.6-5.8c-0.2-1.6-0.2-3.3,0-5c0.2-2-1.1-4.5,1.6-5.8c2.9-1.3,5.8-1.1,8.8,0c0.9,0.3,1.2,1,1.3,1.9
		c0,0.7,0,1.3,0.1,2c0.4,4.1-1.8,9.4,1,11.9c2.7,2.4,8,0.9,12.1,0.6c4.4-0.4,5.7,1.7,5.5,5.5c-0.1,2.9-1.3,4.8-4.6,4.3
		c-0.2,0-0.3,0-0.5,0c-4.4,0.4-10.5-2-12.8,1c-2.2,2.8-0.8,8.6-0.7,13.1c0.2,8.6-0.9,17.3,0.6,25.9c1.2,7.1,5.1,9.2,12.2,7.4
		c1.7-0.4,4.5-3.5,5.4,0.8c0.8,3.3,0.9,6.7-3.1,8.4c-14,6-26.2-2.2-26.8-18.3C1077,141.8,1077.2,136,1077.2,130.1z"/>
	<path class="st3" d="M1069.9,190c3.7-4.3,7.9-3,12.1-1c0.7,1.1,0.4,2.3,0.4,3.4c0,29.2,0,58.4,0,87.6c0,1,0.1,2-0.4,2.9
		c-3.7,3.9-7.9,2.3-12.1,1c-0.8-1-0.5-2.2-0.5-3.4c0-29,0-58.1,0-87.1C1069.4,192.3,1069.2,191.1,1069.9,190z"/>
	<path class="st3" d="M1202.8,109.6c2.5-2.7,4.4-4.9,6.5-7c3.2-3.1,7.1-4.7,11.7-4.5c7.1,0.4,9.6,4,7.8,10.8c-0.6,2.5-2,1.9-3.8,1.5
		c-10.7-2.7-21.2,5.7-21.2,17c0,11.5-0.2,23,0.1,34.5c0.1,4.7-2.9,4.7-5.8,4.6c-2.7-0.1-6.1,0.6-6.1-4.3c0.2-19.5,0.1-39,0-58.4
		c0-4.2,2.3-4.5,5.4-4.5c3.1,0,5.8,0.2,5.4,4.5C1202.7,105.4,1202.8,107.2,1202.8,109.6z"/>
	<path class="st3" d="M1254,164c-3.7,4.1-7.9,3-12.1,1c-0.8-1.7-0.4-3.6-0.4-5.4c0-17.7,0-35.4,0-53.2c0-1.8-0.4-3.6,0.4-5.4
		c5.2-3,9-2.7,12.2,1c0.9,10.1,0.3,20.1,0.3,30.2C1254.3,142.8,1254.9,153.4,1254,164z"/>
	<path class="st2" d="M999.1,133c0,9.7-0.2,19.3,0.1,29c0.1,4.7-3,4.6-5.9,4.6c-2.9,0-5.9,0-5.8-4.7c0.2-19.3,0.2-38.6,0-57.9
		c0-4.5,2.5-4.8,5.7-4.8c3.4,0,6.2,0,6,4.9C998.9,113.7,999.1,123.4,999.1,133z"/>
	<path class="st3" d="M879.7,133c0-9.6,0.2-19.3-0.1-28.9c-0.1-4.8,2.7-4.8,6.1-4.9c3.4,0,5.7,0.5,5.7,4.9
		c-0.2,19.1-0.2,38.3,0,57.4c0.1,4.7-2.5,5.1-5.9,5.1c-3.4,0-6-0.4-5.9-5.1C879.9,152,879.6,142.5,879.7,133
		C879.6,133,879.6,133,879.7,133z"/>
	<path class="st10" d="M885.5,87.4c-5.4,0.1-7.4-1.7-7.4-6.9c0-5.1,2.1-7.2,7.4-7.1c4.7,0,7.1,2.3,7.2,6.8
		C892.8,85.2,890.7,87.3,885.5,87.4z"/>
	<path class="st10" d="M993.4,87.4c-5.4,0-7.5-1.9-7.4-6.9c0-5.1,2.2-7.2,7.4-7.1c5,0,7.3,2.3,7.2,7.3
		C1000.6,85.4,998.5,87.3,993.4,87.4z"/>
	<path class="st11" d="M1240.7,80.3c0.1-5.2,2.1-7.1,7.4-7c5.2,0.1,6.9,2,6.8,7.5c-0.1,5.2-2,6.8-7.6,6.6
		C1242.2,87.2,1240.6,85.5,1240.7,80.3z"/>
	<path class="st7" d="M1069.9,190c0,31.3,0.1,62.6,0.1,93.9c-2-0.1-1-1.6-1-2.4c-0.1-29.2-0.1-58.5,0-87.7
		C1068.9,192.4,1068.6,191,1069.9,190z"/>
	<path class="st12" d="M1082,282.9c0-31.3,0-62.6-0.1-93.9c1.4,1.2,0.9,2.7,0.9,4.2c0,28.5,0,57,0,85.5
		C1082.9,280.1,1083.4,281.7,1082,282.9z"/>
	<path class="st13" d="M770.9,164.9c0.1-22.9,0.1-45.9,0.2-68.8c1.2,1,0.9,2.4,0.9,3.7c0.3,21.2-0.6,42.4,0.4,63.6
		c0,0.6-0.4,1.2-0.7,1.8c0,0.1-0.3,0.1-0.5,0C771.1,165.1,771,165,770.9,164.9z"/>
	<path class="st14" d="M1241.8,101.1c0,21.3,0,42.6,0,63.9c-1.2-1-1-2.4-1-3.7c0-18.9,0-37.7,0-56.6
		C1240.9,103.5,1240.6,102.1,1241.8,101.1z"/>
	<path class="st13" d="M1254,164c0-20.6,0-41.3,0-61.9c1.2,1,0.9,2.4,0.9,3.7c0,18.2,0,36.3,0,54.5
		C1254.9,161.6,1255.2,163,1254,164z"/>
	<path class="st15" d="M557,139.4c14.2,11.7,12,26.1-6,39c4.4,2.7,7.2,6.8,9.1,11.4c3.4,8.1,6.6,16.2,10.1,24.3
		c1.4,3.3,0.3,4.5-3.1,4.9c-5,0.5-8.4-0.6-10.1-6.1c-2.2-7.1-5.2-14-8.2-20.7c-4.1-8.9-10.9-12.1-20.4-10.4c-2.5,0.5-2.2,2-2.2,3.6
		c0,8.3,0,16.6,0,24.9c0,9.3-2,10.6-11,7.7c-1.4-1.4-0.7-3.2-0.7-4.7c-0.1-23.8,0-47.6,0-71.4c0-6.5,0.7-7.4,7.1-7.2
		c9.1,0.3,18.3-1.1,27.3,1C551.9,136.3,554.8,137.1,557,139.4z"/>
	<path class="st16" d="M645.9,198.9c-8.8,19-26.5,26-45.6,18c-10.3-4.3-15.7-12.6-16-23.3c-0.6-18.3-0.1-36.6-0.3-54.9
		c0-4.3,2.8-3.9,5.3-3.9c2.9,0,6-0.4,5.9,4.4c-0.2,15.5,0,31-0.1,46.4c0,3.7,0.3,7.3,1.3,10.8c2.9,9.8,11.1,14.7,22.1,13.5
		c9.6-1.1,16.2-7.5,16.5-17.5c0.5-16.3,0.4-32.6,0.5-48.9c0.1-9.4,2.3-10.8,11.4-7.5c0.9,1.2,0.5,2.6,0.5,3.9c0,17.1,0,34.2,0,51.3
		C647.5,193.9,647.2,196.5,645.9,198.9z"/>
	<path class="st17" d="M454.1,217.5c-1-1.8-1-3.8-1-5.8c0-23.3,0-46.6,0-69.9c0-5.7,1-6.7,6.7-6.7c10.7,0,21.3,0,32,0
		c8,0,8.5,0.6,7.2,8.6c-1.5,2.4-3.8,2.5-6.2,2.3c-7.8-0.7-15.6-0.2-23.3-0.4c-2.8-0.1-4,0.9-4,3.7c0.1,5.3,0.1,10.6,0,15.9
		c-0.1,3.3,1.3,4.4,4.5,4.4c6.5-0.1,13-0.1,19.4,0c4.8,0,6.2,1.4,6.1,5.7c-0.1,4-1.4,5.2-6,5.3c-5.8,0-11.6,0-17.5,0
		c-7.5,0.1-6.4-0.9-6.5,6.7c0,5.7,0.1,11.3,0,17c-0.1,3.3,1.3,4.4,4.5,4.4c8.5-0.1,17,0.1,25.4-0.1c4.2-0.1,5.2,1.9,5.2,5.4
		c0,3.6-1.3,5.7-5.2,5.6c-12.1-0.1-24.3,0-36.4,0C457,219.5,455.2,219.4,454.1,217.5z"/>
	<path class="st18" d="M387.7,177.9c0-11.6,0-23.3,0-34.9c0-7.1,0.8-8,8.1-7.9c7.5,0.2,15-0.8,22.4,0.6c13,2.4,20.2,10.4,20.9,21.7
		c1,17.1-9.3,25.8-20.2,28.5c-4.9,1.2-9.9,1.2-14.9,0.9c-3.7-0.2-5.3,0.7-5.1,4.8c0.4,7.3-0.1,14.6,0.2,21.9
		c0.2,4.4-1.8,5.4-5.6,5.4c-3.7,0-5.9-0.7-5.9-5.2C387.8,201.9,387.7,189.9,387.7,177.9z"/>
	<path class="st19" d="M613.3,128.9c-1.4-0.1-3.3,0.4-3.9-1.3c-0.5-1.4,1.1-2.2,1.9-3.2c3.1-3.6,6.5-7.1,9.4-10.9
		c3.2-4,7.3-4.1,11.7-3.4c2.1,0.3,3.2,1.5,1.3,3.3c-5.1,4.9-10.4,9.7-15.7,14.5C616.8,128.9,615,129,613.3,128.9z"/>
	<path class="st20" d="M472,180c6-0.1,11.9-0.3,17.9-0.2c3.4,0.1,4.9-1.3,5-4.6c0-3.4-1.2-5.2-5-5.1c-7,0.2-13.9-0.1-20.9,0.1
		c-3.6,0.1-4.5-1.1-4.4-4.5c0.3-5.8,0.2-11.6,0-17.4c-0.1-2.8,0.8-3.7,3.7-3.7c8.6,0.1,17.3,0,25.9,0c1.7,0,3.3-0.1,4.8-1
		c-0.1,3.5-2.6,3.5-5,3.2c-8.2-0.8-16.4-0.9-24.7-0.7c-2.5,0.1-3.3,1.2-3.3,3.3c0,5.2,0,10.3,0,15.5c0,3.1,1.5,4,4.4,4
		c6.5-0.1,13,0.1,19.5-0.1c4.5-0.1,6.3,1.8,6.2,6.2c0,4.3-2,6-6.1,5.9c-6-0.1-12-0.1-18-0.1c-0.3-0.2-0.4-0.4-0.3-0.6
		C471.8,180.1,471.9,180,472,180z"/>
	<path class="st21" d="M557,139.4c-12.2-6.5-25.3-3.8-38.2-4.1c-3.5-0.1-3.8,3-3.8,5.8c0,18.1,0,36.2,0,54.3
		c0,7.5,0.1,14.9,0.2,22.4c-2-1.1-1.2-2.9-1.2-4.5c0-24.3,0.1-48.6-0.1-72.9c0-4.6,1.5-6.9,6.3-6.6c9.8,0.5,19.6-1,29.3,1.1
		C552.5,135.7,555.5,136.2,557,139.4z"/>
	<path class="st22" d="M472,180c0,0.3,0,0.6,0,0.9c-4.6-0.7-6.5,1-6.1,5.9c0.5,5.4,0.2,11,0.1,16.4c-0.1,3.5,1.3,4.7,4.7,4.6
		c8.5-0.1,16.9,0.2,25.4-0.1c5.1-0.2,5.1,2.9,5,6.5c-0.2,3.4-0.8,5.9-5.4,5.8c-12.1-0.3-24.2-0.1-36.4-0.2c-2,0-4.5,0.6-5.2-2.4
		c2,0.8,4,1.3,6.3,1.3c11.3-0.1,22.6-0.1,33.9,0c3.6,0,5.6-0.9,5.7-5c0-4.2-2.1-4.9-5.6-4.8c-8.3,0.2-16.6-0.1-24.9,0.2
		c-3.5,0.1-5-0.6-4.8-4.6c0.4-6,0.1-12,0.1-18C464.7,179.5,464.7,179.5,472,180z"/>
	<path class="st23" d="M645.9,198.9c2.3-20.9,0.5-41.9,1.1-62.8c1.7,1.2,1,3,1,4.6c0,17.2,0,34.3,0,51.5
		C648,194.6,648.4,197.2,645.9,198.9z"/>
	<path class="st24" d="M18.7,105.1c4.6,3.5,9.3,6.8,13.7,10.4c2.8,2.3,3.9,1.8,4.6-1.6c1.3-5.8,2.6-11.5,5.1-16.9
		c2.2-1.7,4.1-0.8,5.9,0.6c10.3,8,20.6,15.9,31.1,23.8c2.5,1.9,3.3,4,2,6.8c-2.5,4.7-6.3,8.2-9.5,12.3c-0.9,1.1-2.1,2.1-3.8,1.8
		c-5.8-3.9-11.2-8.3-17.2-11.9c-0.9-0.5-1.8-1.1-2.1-2.1c-1-3.3-3.1-4.5-6.4-3.7c-3.7,0.8-7.2,1.7-8.2,6.1c-0.6,2.6-1.1,5.2-1.9,8.2
		c6.6-2.5,12.9-3.2,19.3-1.2c1.6,2.3,2,4.9,2,7.5c0,3.9,1.6,6.6,5.3,8c0.4,0.3,0.8,0.7,1.1,1.1c5.6,5.7,8.2,12.9,10.3,20.5
		c1.4,5,1.7,10.1,1.4,15.2c-0.2,3.6-1.7,6.1-6,5.2c-14-7.6-28.4-14.6-39.4-26.7c-0.5-0.5-0.8-1-1.1-1.7c1.1-3,3.8-3.1,6.3-3.4
		c3.2,0.4,6.4,0.5,9.7,0c4.6,0.1,8.7,2,13.1,4c-0.6-2.2-2-3.3-3.6-4.4c-6.1-4.1-12.8-4.5-19.6-2.9c-3.9,0.9-6.3,3.5-6.1,7.8
		c0.1,1-0.3,1.9-0.6,2.8c-1.5,5.7,0.6,10,5.1,13.5c9.3,7.2,19.8,12.3,30.2,17.6c3.5,1.8,7.4,3.2,8.9,7.5c-0.1,5.6-1.8,10.7-5.3,15
		c-6.8-0.5-13.1-1.6-18.8-6.3c-4-3.3-9.9-4.4-13.6-8.8c-1.5-1.8-3.4-3.2-4.5-5.2c-0.4-0.7-0.9-1.4-1.5-2c-1.6-1.3-3.4-2-5.4-2.4
		c-2.8-0.5-0.9,4-3.7,3.5c-1.1-2.4-0.3-5-0.5-7.5c-0.1-12.6,0.2-25.2-0.4-37.8c-0.5-10.8-0.2-21.6-0.1-32.4c0-5.8-0.4-11.6-0.3-17.4
		C13.9,103.1,14.1,103.1,18.7,105.1z"/>
	<path class="st25" d="M95,102.1c-0.9-1.3-1.1-2.7,0-4c0.6-0.4,0.6-1.7,0.8-1.7c1.4,0.2,1.4-0.4,1.5-1.5c0.5-4.6,1.2-5.5,6-8.3
		c0,0,0.1,0.1,0.2,0.1c1.4-8.7,10.3-9.5,15.2-14.4c5-1.6,10.1,0,15.2-0.9c1.5-0.3,5.6-0.9,4.9,3.6c-0.1,0.5,1.6-0.3,2.4,0.1
		c0.2-0.7-0.6-0.7-0.9-1.1c-0.9-1.4-0.5-2.1,1-2.5c1.8-0.5,4.1-1,5.3,0.1c2.3,2,2.2-1,3.4-1.2c8.2,0.8,12.8,7,18.1,12.1
		c1.4,1.3,1.9,1.7,2.7-0.1c0.3,2.2,2.9,2.1,3.6,4c1.5,4.2,1.4,7.4-1.6,13.5c1.9-1.8,3.1-4,5.3-1.8c1.4,1.1,0.6,2.7,0.9,4.1
		c0.6,2.6-4.4,4.9-0.4,8c0.6,0.5-1.9,4.2-3.9,5.7c-1.3,0.9-2.9,1.4-3.7,3c-2.6-0.2-2.7,3.2-5.1,3.3l0.1-0.1
		c-2.1,0.8-4.4,1.3-6.6,0.7c-3.2-0.8-3.4,1.1-3.5,3.3c-2.7,2.5-6,1.4-9.1,1.9c-0.2-0.3-0.3-0.6-0.3-0.9c-2.3-0.4-4.5-1-6.6-2
		c-3.1-1.5-4.4-3.4-2.8-6.7c1-2,2.4-3.8,4.5-4.2c4.7-0.9,8.8-3.3,12.8-5.7c3.1,0.6,5.4-0.1,6.4-3.6c0.7-2.3,2.2-4.6,4.9-2.3
		c-0.5-2-3.2-0.5-4.5-1.7c-0.4-0.2-0.8-0.6-1.1-0.9c-1.3-2.2-4.1-4.8-1.7-7c2.6-2.3,4.6,1.2,6.7,2.6c0.8,0.5,1.3,1.3,2.4,1.7
		c-2.2-1.3-3.9-2.9-5.6-4.5c-2.2-1.9-4.3-3.7-7.5-3.1c-0.5,0.1-1-0.1-1.5-0.3c-2.1-0.7-5-1.5-4.9-3.6c0.2-2.7,3.4-1.7,5.3-2.1
		c1.3-0.3,2.7-0.2,4,0c1.4,1,3.2,0.6,4.8,1.7c-1.5-1.3-3.4-0.7-4.8-1.6c-3.8-0.4-7.5-0.4-11,1.7c-2.2,1.3-4.8,1.2-7.2,0.3
		c-1.7-0.6-3.6-1.4-2.1-3.9c0.4-0.4,1.2-0.4,1.3-1c0-0.3-0.8-0.3-1.2-0.2c-1.2,0.4-2,1-1.3,2.4c1,2.1-0.3,3.2-1.8,4.3
		c-2,0.2-4.1,0.2-6.1,0.1c-2.1-1.2-4-2.8-6.9-3.1c1.4,1.2,4.1,0.1,4.4,2.7c-1.1,2.9-3.5,3.9-6.2,4.5c-1,0-1.9-0.4-2.9-0.6
		c-2-0.4-3.1-0.3-2.1,2.4c1.4,3.9,0,6.5-4.1,8.6c-0.7,0.7-1.5,1.3-2,2.1c0.7-0.7,1.3-1.5,2-2.1c2.4-0.3,3,1.7,3.7,3.3
		c1.5,3.7,4.9,5.6,7.3,8.5c1,1.3,2.7,0.8,4.2,0.4c1-0.2,1.9-0.1,2.9,0.2c2.8,1.3,6,2.2,7.3,5.4c0.8,1.9,1.9,3.6-1.6,5.3
		c-3.5,1.7-6.7,3.9-10.7,4.1c-1.3-0.4-2.5-0.7-3.8-0.9c-0.9,0.1-1.7-0.2-2.2-1.1c-0.1-4.8-3.5-3.5-6.3-3.3c-2.6-0.8-5.8,0.2-7.7-2.7
		c0.5-2-0.5-3.1-2.2-3.8c-3.5-1.5-5.7-3.1-3.5-7.7C98.4,107.9,95.8,104.7,95,102.1z"/>
	<path class="st26" d="M146.9,127.2c0.1,0.3,0.1,0.6,0,0.8c1,3.1,3.7,2.6,6,3.1c11.7,2.6,22.9,2,33.1-5.2L186,126
		c2-1.6,3.9-1.6,5.6,0.5c4.2,5.2,8.4,10.4,13.2,15.1c2.3,4,6.9,6.3,8.1,11.2c-0.1,1.7-0.9,3.1-1.9,4.5c-7.6,10.7-10.7,22.4-8.8,35.4
		c0.2,1.5,0.2,3-0.3,4.4c-0.2,0.6-0.7,1.1-1.1,1.5c2.9,2.1,1.5,5.7,2.9,8.3c0.8,0.8,1.4,1.9,1.8,3c2.1,5.2,3,10.9,6,15.8
		c2.6,6.5,5.5,12.8,4.3,20.1c-1.9,0.9-2.7,2.2-2.4,4.4c0.5,3.5-0.6,7.3,1.4,10.6c0.4,1.5,0.6,3-0.8,4.2c-2-0.2-3.3-1.4-4.6-2.7
		c-0.7-1.8,0-3.6,0.3-5.4c0.1-3.4,0.1-6.8-0.1-10.2c-1.4-8.6-3.8-16.8-6.5-25.1c-1.3-4-3.4-5.3-7.5-5.3
		c-39.5,0.1-78.9,0.1-118.4,0.1c-1.8,0-3.7,0.3-5.5-0.4c-3.4-2.4-0.6-3.5,1-4.9c2.6-0.9,5.3-0.5,7.9-0.5c15.3,0,30.6,0,45.8,0
		c2.1,0,4.3,0.4,6.3-1c1.4-1.7,1-3.8,1-5.7c0-23.4,0-46.8,0-70.2c-0.5-2.9-1.5-0.5-2.4-0.2c-2.3,1.9-5.2,1.8-7.8,2.7
		c-12.1,3.3-24,3.7-35.6-1.8c-0.7-0.2-1.4-0.6-2-1c-3.9-1.7-4.3,2.1-6,3.9c-0.3,0.6-0.7,1.1-1.2,1.6c-2.5,2.1-5,4.3-6.8,7.1
		c-0.2,0.4-0.5,0.8-0.8,1.1c-0.7,0.9-1.5,1.8-2.4,2.4c-2.6,2-2.5,3.9-0.7,6.6c1.8,2.6,5.1,5,3.2,9.1c-0.3,0.1-0.8,0.3-0.9,0.1
		c-2.1-2.9-1.4,0.7-2.1,0.9c-3.9-3.3-5.3-8.5-9.2-11.8c0-0.3,0-0.5,0.2-0.7c-1.4-3.1,1.7-4.1,2.8-6c1-1.9,2.6-3.3,4.2-4.7
		c0.6-0.4,1.2-0.8,1.9-0.8c4.5-4.2,8.3-9.1,12-14c1.5-2.1,2.8-5,6-2c1.6,1,3.1,2,4.7,3c6.7,2.3,13.6,3.9,20.8,3.3
		c4.4-1.2,9.1-1.4,13.3-3.8c3-1.3,6.2-2,9.2-3.3c2-0.9,4.3-1,6.2,0C142.3,126.7,144.7,126.7,146.9,127.2z"/>
	<path class="st27" d="M210.1,225.7c-2.8-4.9-4.1-10.4-5.8-15.7c0.1-3.1,2.3-4.5,4.6-5.9c7.4-4.4,15.3-7.9,22.7-12.3
		c3.7-2.2,7.3-4.5,10.7-7.2c4.4-3.5,6.1-8.1,4.7-13.6c-0.3-0.6-0.6-1.3-0.6-2c0.4-2.1-0.6-4.2-0.2-6.3c0.2-0.5,0.5-0.8,0.9-1.1
		c4.4-0.2,5.8-2.5,5.6-6.8c-0.7-14.1,0-28.2,0-42.7c-5.9,1.8-8.8,7.4-13.9,9.4c3.2,3.3,4.7,7.8,7.4,11.5c0.7,1,0.6,2.8-0.5,3.1
		c-4,1.3-2,3.5-1,5.4c2.4,4.2,2.7,9.1,5.8,13.1c2.2,2.9-0.8,5.3-3.6,6.8c-1.5,0.1-2.2-0.8-2.6-2.1c-0.2-3,0.5-6.5-3.9-7.4
		c-0.4-0.1-0.9-0.6-1-1c-1.4-7.3-7.5-8.4-13.2-10c-0.8-0.2-1.6-0.5-1.6-1.6c1.7-2.3,4.1-1.5,6.3-1.7c2.7-0.1,5.2,0.6,8.7,2.6
		c-2.7-5.5-0.8-11.8-7.2-14.4c-1-0.2-1.9-0.4-2.9-0.5c-4-0.7-6.7,0.4-7,5c-5.2,1.9-9.4,5.3-13.8,8.4c-1.6,1.1-2.8,2.8-4.9,3.3
		c-5.3-4-8.9-9.5-13.1-14.5c-1.5-2.8-0.2-4.7,1.9-6.3c3.3-2.5,6.6-4.9,9.8-7.4c5.9-4.5,11.8-9,17.7-13.6c2.2-1.7,4-4,7.1-4.2
		c0.8,0.1,1.5,0.3,2,0.9c1.9,7,3.8,13.9,5.9,21.4c5.9-4.5,11.6-8.7,17.3-13c3.2-0.1,4.6,0.8,4.6,4.6c0,25.6-0.6,51.2-0.9,76.8
		c0,2.3,0.2,4.7,0.1,7c-1,3.1,1.3,6.4-0.9,9.4c-3.7-3.7-6.8-3-10.2,1.2c-4.3,5.3-8.4,11.1-15.8,12.7c-1.1,0.3-2.1,0.9-3,1.7
		c-3.6,3.5-7.7,5.6-12.9,5.5C212.5,224.3,211.3,225.1,210.1,225.7z"/>
	<path class="st28" d="M133.9,331.8c-5.1,2.1-10.5,2.7-15.8,3.2c-1.1-3.2,4.2-5.4,1.1-8.7c-1.7-1.6-1.4-3.4,0.1-4.8
		c2.3-2.2,2.5-4.7,2.1-7.7c-0.5-3.5,0.3-6.8,1.9-10c2.9-5.8,5-6.2,10.1-1.8c1.4,2,2.9,1.2,4.6,0.2c3.2-1.8,6.4-2.1,9.2,0.9
		c1.5,3,2.1,6.2,2.3,9.6c0.2,3.4,0.1,6.9,2.3,10c0.6,0.8,1,2.2,0.1,2.7c-2.5,1.7-1.9,3.5-1.2,5.8c0.5,1.8-0.8,3.1-2.9,3.1
		c-7.3,0-10.1-2.9-9.6-10.1c-0.8-1.3-2.1-2-3.2-1.2c-1.2,0.8,0.2,2,0.5,3C136.1,328.3,136.8,330.5,133.9,331.8z"/>
	<path class="st29" d="M139.9,322.7c-1.5,8.6-1.2,9.2,5.8,10.3c1.4,0.2,2.9,1.4,4-0.5c1-2-0.5-3-1.7-4.1c-0.4-0.4-1.3-0.5-0.9-1.8
		c3.9-0.5,4.5-1.6,2.5-5.9c-2.5-5.4-1.1-12-3.4-17.8c0.6-0.9,0.4-2.4,2.1-2.2c2.6,1.9,2.4,5.8,5.3,7.4c0.5,0.4,1,0.8,1.6,1.2
		c2.8,1.7,5.8,2.6,9.1,2.6c0.5,0.1,1,0.2,1.4,0.3c2.9,0.6,5.8,1.5,8.8,1.4c1.3,0,2.6,0.1,3.9,0.4c6.8,1.9,13.7,1.8,20.5,0.1
		c5.4-0.3,10.5-1.8,15.5-4c3-0.8,5.8-2,8.3-4c6-4.4,12.3-8.4,16.7-14.5c4.7-6.5,8.6-13.6,11.4-22.1c-3.1,2-4.7,6.2-8.7,3.5
		c2.3-3.8,5.2-7,8.3-10c1.1-1.1,2.6-2.2,4.4-0.6c1.1,7.6-1.9,14.5-5.2,20.9c-12,23.5-31.9,34.8-58.1,35.8c-10.3,0.4-20.1-1.7-30-4.2
		c-0.8-0.2-1.6-0.4-2.4-0.1c-2.4,0.3-4.8-3.4-7.1-0.6c-2.4,3,0,5.3,1.8,7.8c1.2,1.7,4.2,4.8-1.4,5.2c-2,0.2-1.1,1.6-0.6,2.6
		c0.7,1.6,1.5,3.3,2.5,5.4c-6.2-0.1-11.8-0.8-17.1-3.5C135.3,326.7,135.8,325,139.9,322.7z"/>
	<path class="st30" d="M111.2,314c-37.4,14-79.9,3.6-93.7-38.5c-1.2-3.7-2.2-7.6-2.3-11.6c0.9-1.3-0.3-3,1-4.2
		c1.6,0.1,2.1,1.3,2.4,2.6c1.9,19.4,12.3,33.5,28.1,43.8c13.9,9,29.5,10.5,45.7,9.1c5.6-0.5,11.1-2.2,16.8-2.4
		C110,313,110.7,313.3,111.2,314z"/>
	<path class="st31" d="M159,314.7c2.7-1.7,5.2,0.2,7.6,0.8c19.2,4.2,38.1,3.8,55.7-5.7c17.1-9.2,27.3-23.8,31.6-42.7
		c0.4-1.6,0-3.3,0-5c-0.3-0.8,0.2-1.2,0.9-1.4c1.1,0.4,0.6,1.6,1.2,2.2c0.1,20.1-16.6,43.8-36.7,52.1C199.1,323.1,179,321,159,314.7
		z"/>
	<path class="st32" d="M84.2,36.6c0.2,4.6-2.7,5.4-5.3,6.5c-6.4,2.8-6.4,2.7-9-3.6c-0.4-0.9-0.8-1.8-1.1-2.7c-0.9-2.4-3.7-5.4-2.2-7
		c2.1-2.1,5.8-2.7,8.9-3.8c0.8-0.3,2.4-0.1,2.8,0.5C80.5,30.1,81.6,34.2,84.2,36.6z"/>
	<path class="st33" d="M29,76.2c-1.2,2.5-2.8,3.3-5.3,2.7c-1.6-0.4-3.3-0.8-4.9-0.5c-1.8,0.3-3.9,1.3-1.3,3.5c0.8,0.7,1.5,1.4,2.2,2
		c0.8,0.8,1.8,1.5,0.5,2.7c-0.9,0.8-1.6,0.8-2.5,0c-3.4-3.1-6.9-6.2-10.4-9.3C7,77,6.6,76.6,6.5,76.1c-0.2-1.6,7.2-8.6,9.1-8.5
		c3.8,0.2,5.8,2.1,4.9,6.2c-0.4,1.9,1,1.1,1.7,1.2C24.5,75.4,26.7,75.8,29,76.2z"/>
	<path class="st33" d="M245.9,75.6c-2.6-1-3.2-2.7-2.7-4.9c0.3-1.6,0.7-3.2,0.8-4.9c0.1-1.2-0.6-2.3-1.7-2.8
		c-1.2-0.5-1.6,0.8-2.3,1.5c-0.6,0.6-1.2,1.2-1.7,1.8c-0.7,0.8-1.4,1.4-2.4,0.4c-1.1-1-1.1-1.8-0.1-2.9c3.1-3.2,6.2-6.5,9.3-9.8
		c0.3-0.3,0.7-0.8,1.2-0.9c1.4-0.3,8.7,7.1,8.6,9c-0.2,3.5-2,5.6-5.8,5c-1.8-0.3-1.7,0.7-1.9,1.9C246.8,71.2,246.3,73.3,245.9,75.6z
		"/>
	<path class="st34" d="M18.7,105.1c-5.4-1.7-4.3,2.6-4.2,5c1.2,19,0.5,38.1,0.7,57.2c0.1,9.6,0,19.2,0,28.7c-0.3,0.5-0.6,0.5-1,0.1
		c-0.4-27.4-0.8-54.7-1.2-82.1c0-3.3-0.1-6.6-0.2-9.9c0-1.5,0.7-2.2,2.1-2.2C16.2,102.9,17.4,104,18.7,105.1z"/>
	<path class="st35" d="M255.9,194.9c0.1-24.7-0.6-49.3,0.8-74c0.2-3.9-0.3-7.9-0.1-11.9c0.2-3.1-2.7-2.3-3.9-3.6
		c1.4-1.1,2.9-2.2,4.3-3.4c1.3,0.5,1.7,1.3,1.3,2.6c-0.4,28.3-0.7,56.6-1.1,84.9c0,1.8-0.1,3.7-0.2,5.5
		C256.6,195.3,256.2,195.3,255.9,194.9z"/>
	<path class="st36" d="M111.2,314c-0.8-0.1-1.5-0.2-2.3-0.2c-0.7-3.1,2-2.9,3.6-3.5c3.2-1.2,6.8-1.8,8.1-5.7
		c2.8-4.8,2.8-4.5-2.4-5.4c-7.2-1.3-14.5-0.2-21.6-1.8C95.4,297,94,297,93,296c-0.3-1.1,0.4-1.5,1.2-1.9c11.1-0.7,22.1,0,33,2.2
		c3.2,0.6,6.3,2.3,7.1,6.1c-0.2,0.7-0.7,0.9-1.3,0.6c-5.5-4.5-6.4-4.5-8.9,2.3c-2.5,6.7-2,14.3-4.9,21c-3,0.4-4.2-0.5-2.3-3.4
		c1-1.5,2.1-2.9,3.2-4.3c1.6-2,0.3-3.9-0.4-5.5c-1.2-2.6-2.8,0-4.1,0.1C114.1,313.3,112.8,314.1,111.2,314z"/>
	<path class="st33" d="M29,53.8c0.3,0.2,0.8,0.4,1.1,0.8c0.4,0.6,0.3,1.2-0.3,1.7c-1.4,1.2-2.6,2.5-4,3.7c-1.2,1-2.3,1.9-0.5,3.5
		c1.5,1.4,2.1,0.3,3.2-0.4c1.8-1.2,3.3-5.4,5.4-3c1.8,2-2.1,3.6-3.7,5.2c-1.6,1.5-1,2.3,0.2,3.6c1.1,1.2,1.9,1.5,3.1,0.2
		c1.4-1.5,2.9-2.7,4.3-4.1c0.7-0.7,1.3-0.9,2.1-0.2c1.1,0.9,0.6,1.7-0.2,2.4c-2.3,2.2-4.7,4.2-6.8,6.5c-1.4,1.4-2.2,0.7-3.2-0.4
		c-2.9-3.2-5.8-6.3-8.7-9.5c-0.4-0.5-0.9-1-1-1.6C19.8,61.3,28,53.8,29,53.8z"/>
	<path class="st37" d="M168.5,23.5c-0.2,3.3-0.6,6.7-4.1,8.7c-3.5,1.9-7.1-0.1-10.7-0.2c-1.3,0-0.7-2-0.6-3
		c0.5-3.9,1.3-7.8,1.7-11.7c0.2-1.9,0.7-2.4,2.7-2.3C165.2,15,168.4,17.3,168.5,23.5z"/>
	<path class="st38" d="M221,55.6c1.9-2.5,3.5-5,5.4-7.2c1.8-2.1,3.2-6.4,5.3-5.9c3.3,0.8,6,3.9,8.9,6.1c0.7,0.5,1.1,1.2,0.4,2.1
		c-0.7,0.8-1.4,0.6-2.1,0.1c-1.6-1.2-3.2-2.3-4.7-3.6c-1.2-1.1-2-0.6-2.8,0.5c-0.8,1-1.3,1.9,0.3,2.7c1.4,0.8,2.7,1.9,3.9,3
		c0.6,0.5,2,0.8,0.8,2.2c-0.9,1-1.6,0.9-2.5,0.2c-1.2-0.9-2.5-1.7-3.6-2.7c-1.5-1.4-2.4-1.1-3.5,0.5c-1.2,1.6-0.9,2.6,0.6,3.6
		c1.5,1,3,2.1,4.4,3.3c0.6,0.5,1.4,0.9,0.7,1.9c-0.7,1.1-1.4,1.1-2.4,0.3C227.1,60.2,224.1,58,221,55.6z"/>
	<path class="st32" d="M170.8,33c1.2-4.8,2.3-8.9,3.2-13.1c0.3-1.5,1-2.1,2.4-1.8c3,0.7,6.1,1.5,9.1,2.4c0.7,0.2,1.7,0.4,1.4,1.6
		c-0.3,1-1.1,1.3-1.9,1.1c-1.8-0.3-3.6-0.6-5.3-1.2c-1.6-0.6-2.2-0.4-2.9,1.3c-0.8,2,0.3,2.2,1.7,2.7c2,0.8,6.2,0,5.6,2.7
		c-0.7,2.9-4,0.1-6.1-0.2c-1.9-0.2-2.5,0-3,2c-0.5,2,0,2.7,1.8,3c1.3,0.2,2.9,0.2,3.8,1c1,0.8,3.6-0.5,2.9,2.1
		c-0.6,2.1-2.2,0.8-3.3,0.6c-2.4-0.5-4.8-1.5-7.2-1.8C170.8,35,170.4,34.2,170.8,33z"/>
	<path class="st37" d="M58.8,52.3c-2.1,0.3-3.5-1-4.6-2.8c-1.6-2.7-3-5.5-4.6-8.2c-0.8-1.3-1.3-2.4,0.4-3.2c1.5-0.8,1.9,0.4,2.5,1.5
		c1.3,2.5,2.8,4.9,4.1,7.3c1.3,2.4,3.1,2.8,5.4,1.5c2.3-1.4,1.8-3.2,0.7-5.1c-1.4-2.4-2.6-4.9-4-7.4c-0.6-1.1-1.2-2,0.3-2.9
		c1.5-0.8,2.1,0.1,2.6,1.2c1.4,2.6,2.9,5.1,4.2,7.8C68.5,47.3,65.1,52.4,58.8,52.3z"/>
	<path class="st33" d="M255.8,85.4c-2.3,0-4.1-2.4-5.5-4.7c-1.3-2.3-1-4.8,1.1-6.8c2.3-2.2,4.6-4.3,6.9-6.4c0.9-0.8,1.9-2.1,3.2-0.4
		c1.4,1.7-0.2,2.3-1.1,3.2c-1.6,1.5-3.3,2.8-4.9,4.3c-1.9,1.7-4,3.5-1.7,6.3c2.7,3.2,4.7,0.6,6.6-1.1c1.9-1.6,3.6-3.4,5.5-5.1
		c0.6-0.6,1.4-0.9,2.2-0.1c0.6,0.6,1.2,1.2,0.8,2.1C268.4,78.2,258.6,85.4,255.8,85.4z"/>
	<path class="st37" d="M219.2,46.3c-0.9-0.4-1.9-0.6-2.7-1.1c-2.9-2-4.7-1.4-5.8,2c-0.2,0.7-0.4,2.5-2.3,1.4
		c-1.6-0.9-1.5-1.7-0.6-3.1c1.5-2.4,2.7-4.9,4.1-7.3c1.1-2,2.1-5.7,3.6-5.4c3.2,0.8,6.5,2.4,8.7,5.2c1.4,1.8,1,3.7-0.1,5.5
		C223,45.3,221.6,46.6,219.2,46.3z"/>
	<path class="st32" d="M143.7,30.6c-1.6,0.5-2.7,1.1-4-0.6c-2.9-3.9-6.7-3.9-9.2-0.1c-0.8,1.2-1.7,1.8-2.8,1.4c-1.6-0.7-0.5-2-0.2-3
		c1.3-3.9,2.7-7.8,4.1-11.7c0.5-1.3,0.5-2.9,2.7-2.8c1.9,0.1,2.5,1.2,3.1,2.6C139.4,21.1,141.5,25.8,143.7,30.6z"/>
	<path class="st39" d="M43.8,63.7c-0.3-0.3-0.7-0.5-1-0.9c-2.9-3.8-5.8-7.6-8.6-11.4c-0.3-0.4-0.6-1.1-0.4-1.3
		c2.2-2.7,4.9-4.9,8.2-5.9c2.6-0.8,4.5,1,5.6,3.1c1.6,3,0.2,5.6-2.3,7.2c-2.7,1.7-2.6,3.2-0.6,5.3c0.6,0.7,2.2,1.5,0.9,2.8
		C45.1,62.9,44.5,63.2,43.8,63.7z"/>
	<path class="st38" d="M108.7,23.3c-0.2-3.5,1.1-6.3,4.4-7.7c2.8-1.2,5.8-1.4,8.4,0.9c0.6,0.6,1.9,1.4,1.2,2.3
		c-0.5,0.7-1.8,1.8-2.9,0.7c-1.9-1.9-4-2.5-6.1-0.6c-2.4,2.1-1.6,4.9-1,7.4c0.4,1.8,1.5,3.4,3.6,3.7c1.9,0.3,3.3-0.5,4-2.2
		c0.7-1.7,2.1-2.5,3.5-1.3c1.4,1.1-0.2,2.5-0.8,3.4c-2,3-5,3.6-8.3,2.7C109.8,31.2,108.8,27.5,108.7,23.3z"/>
	<path class="st40" d="M255.9,194.9c0.4,0,0.7,0.1,1.1,0.1c0.4,22.6-0.2,45.3-1,67.9c-0.9-0.5-0.9-1.4-1.1-2.3
		c-1.1-1.2-1.4-2.6-1.4-4.1c-0.2-16.6-0.2-33.1,0-49.7c0-1.6,0.2-3.4,2-4.2C255.7,200,255.8,197.4,255.9,194.9z"/>
	<path class="st41" d="M14.2,196c0.3,0,0.6,0,1-0.1c0.2,2.2,0.3,4.3,0.5,6.5c1.9,1.1,2,3,2,4.8c0.2,15.9,0.1,31.9,0,47.8
		c0,1.7-0.2,3.3-1.4,4.7c-0.4,1.4,0.3,3-1,4.2C14.7,241.3,13.7,218.7,14.2,196z"/>
	<path class="st42" d="M86.1,126.2c-2.9-2-4.2,0.7-6,2c1.3-2.9,0.2-4.8-2.3-6.6c-10.1-7.6-20.1-15.3-30-23c-1.7-1.3-3.7-1.4-5.6-1.5
		c-0.2-0.3-0.4-0.6-0.6-0.9c1.2-1.5,2.8-1.5,4.5-1.2c12.9,9.9,25.8,19.7,38.6,29.6C85.2,124.9,86.2,125.1,86.1,126.2z"/>
	<path class="st43" d="M229.6,97c-0.8,0-1.5,0.1-2.3,0.1c-0.9-0.5-1.9-0.9-2-2.2c2.4-4.4,3.7-9.9,10.2-9.9
		C239.9,92,234.3,94.3,229.6,97z"/>
	<path class="st44" d="M150.1,70.3c-1.9,2.1,1.1,2.6,1.3,4.6c-3.3-2-6.6-3.7-10.4-2.4c-0.1,2.1,2.8,1.5,3.2,3.5
		c-2.8,0-5.5,0.1-8.1,1.2c-0.6-2.3,3.2-1.9,2.1-3.8c-0.9-1.4-3.1-1.7-4.6-1.1c-4.8,2-9.8-1.1-14.5,0.7c-0.6-0.6-0.5-1.1,0-1.7
		C129.4,70,139.8,70.8,150.1,70.3z"/>
	<path class="st37" d="M193.2,23.1c1.4,0.5,2.3,1.2,1.6,2.9c-0.6,1.5-1.2,3.1-1.8,4.6c-2.4,6.4-2.4,6.5,3.6,9.2c1.3,0.6,2,1,1.5,2.4
		c-0.6,1.4-1.5,0.6-2.4,0.3c-9.6-2.7-9.6-2.7-6.3-11.9c0.7-2,1.5-4,2.2-6C191.9,23.9,192,22.9,193.2,23.1z"/>
	<path class="st39" d="M86.1,22c1.2-0.2,1.8,0.4,2,1.6c0.4,1.6,1.1,3.2,1.4,4.8c0.9,5,2.6,8.6,8.5,5.1c0.9-0.5,2-0.7,2.5,0.6
		c0.6,1.7-0.7,1.7-1.8,2.2c-9.1,3.5-9,3.5-11.8-5.6c-0.6-2.1-1.3-4.1-1.9-6.2C84.5,23.3,84.3,22.2,86.1,22z"/>
	<path class="st45" d="M119.1,71.2c0,0.6,0,1.1,0,1.7c-2.9,2.1-5.1,4.8-8.7,6.2c-3.6,1.4-5.9,4.7-6.3,8.8c-5-1.4-5.2,3.1-5.6,5.5
		C98.1,96,97,97.1,95,98.1C98.3,84.9,107.4,76.9,119.1,71.2z"/>
	<path class="st46" d="M106.3,32.6c0.5,1.3-0.4,1.8-1.6,2.2c-1.4,0.4-1.5-0.6-1.7-1.6c-1-4.3-2.1-8.6-3.1-12.9
		c-0.3-1.2-0.8-2.2,1-2.5c1.1-0.2,1.9-0.2,2.2,1.1C104.1,23.4,105.2,27.8,106.3,32.6z"/>
	<path class="st47" d="M40.1,94.8c-3.6-1.1-5.9-5.1-4.8-8.4c0.5-1.3,1.3-2.3,3-1.4c1.6,0.9,3.4,1.4,4.6,2.9
		C41.9,90.2,43.8,93.6,40.1,94.8z"/>
	<path class="st48" d="M178.3,98c-3.5-0.5-3.8,3.9-6.8,4.3c-1.1-2.4,0.9-4.1,1.8-5.8c1.9-3.6,2.1-7.2,0-10.3c-0.9-1.3-2.5-2.1-2.4-4
		c3.9,0.6,4.6,3.8,5.2,6.7C176.7,92,177.2,95.1,178.3,98z"/>
	<path class="st49" d="M225.3,94.9c0.7,0.7,1.3,1.4,2,2.2c-7.5,3.7-13.2,9.9-20.1,14.5c-1.4,0.9-2.7,1.9-4.1,2.8
		c-0.5-0.4-0.6-0.9-0.2-1.4C210.5,106.9,217.9,100.9,225.3,94.9z"/>
	<path class="st50" d="M14.9,101.8c-0.7,0.7-1.4,1.5-2.1,2.2c-1.4-0.9-2.6-2-4.1-2.6c-2.3-0.8-2.4-2.4-1.9-4.3
		c0.2-0.9-0.5-2.8,1.3-2.5c1.7,0.3,3.7,0.7,4.7,2.4C13.6,98.5,14.2,100.2,14.9,101.8z"/>
	<path class="st51" d="M258.3,104.7c-0.4-0.9-0.8-1.8-1.3-2.6c0.5-2.2,0.7-4.8,3.2-5.7c1.3-0.5,3-2.7,4.1-0.1
		c0.7,1.7,1.1,4.1-1.2,5.2C261.4,102.3,259.7,103.2,258.3,104.7z"/>
	<path class="st52" d="M139.9,322.7c-2.7,2.5-3.8,5.4-2.7,9c-1.1,1.4-2.2-0.2-3.2,0.1c1.5-2.3,1.6-4.5-0.1-6.7
		c-0.8-1-2.2-2.1-1.4-3.3c0.9-1.3,2.7-0.7,4.1-0.3C137.6,321.7,139.1,321.2,139.9,322.7z"/>
	<path class="st53" d="M186,125.9c-2.9,4-7.4,5.1-11.8,6.1c-7.1,1.7-14.3,1.8-21.4-1c6.2-0.4,12.2,1.4,18.6,0.1
		C176.7,130.1,181.1,127.3,186,125.9z"/>
	<path class="st54" d="M203,112.9c0.1,0.5,0.1,0.9,0.2,1.4c-2.2,2.8-5.4,4.3-8,6.5c-2.2,1.8-4.6,3.4-4.1,6.8
		c-1.3-1.7-2.9-2.6-5.1-1.6C190.9,120.6,197.3,117.2,203,112.9z"/>
	<path class="st45" d="M95,102.1c1.2,2.1,2.5,4.2,3.7,6.3c0.4,0.7,0.8,1.6,0.6,2.2c-1.5,4.1-1.5,4.1,2.7,6.3
		c1.8,0.9,4.8,1.5,1.4,4.1c-0.3-0.6-0.5-1.5-1-1.7C93.4,116.4,96.9,108.1,95,102.1z"/>
	<path class="st55" d="M156,126.2c0.1-1.7-1.7-2-2.6-3.1c4.1-3.6,8.6-0.3,12.8-1C163.6,125.5,158.6,122.8,156,126.2z"/>
	<path class="st56" d="M112,132.8c-7.4,0.9-14.6,0.2-21.3-3.5c3.9-0.6,7.1,1.8,10.9,2.2c3.5,0.4,6.9,0.1,10.4,0.5
		c0.3,0.2,0.4,0.4,0.3,0.6C112.2,132.6,112.1,132.8,112,132.8z"/>
	<path class="st57" d="M112,132.8c-0.1-0.3-0.1-0.6-0.1-0.9c2.4-1.6,5.5-0.8,8-2.1c2-1.1-0.8-0.9-0.5-1.6c1.5,0,3-0.1,4.6-0.1
		c0.4,0.4,1.1,0.5,1.2,1.2C121.2,131.6,116.7,132.4,112,132.8z"/>
	<path class="st58" d="M40.1,94.8c1.7-2,1.6-4.7,2.8-6.9c-0.5,3,2.6,4.4,3.1,6.9c-1.4,0.9-2.7,1.9-4.5,1.2
		C41,95.6,40.6,95.2,40.1,94.8z"/>
	<path class="st59" d="M111,123.8c0.7-0.9,1.8-0.6,2.7-1c2-0.7,4-1.3,5.4,0.8c1.1,1.7-2.6,1.6-1.8,3.5
		C115.2,126.1,113.7,123.7,111,123.8z"/>
	<path class="st55" d="M166.1,122.2c-0.1-1.5,4-1.3,1.6-3.9c-0.5-0.5,0.4-1,1.1-1.1c1.5-0.3,2.1,0.4,2.4,1.8
		C170.3,121.2,168.5,122.1,166.1,122.2z"/>
	<path class="st0" d="M1220.2,251.5c0,2.2,0,4.3,0,6.5c0,8.4-8.6,17.5-17.1,18.1c-6.6,0.5-11.6-2.3-14.1-8.8
		c-3.9-10.3-4.2-20.9,0.1-31.1c4-9.4,13.2-11.7,21.9-6.4C1219.6,234.9,1221.8,242.3,1220.2,251.5z"/>
	<path class="st0" d="M799.6,251.6c0,2,0,4,0,6c0,8.6-8.6,17.8-17.2,18.5c-6.7,0.5-12-2.5-14.3-9.1c-3.5-10-3.8-20.2,0-30.2
		c3.8-10,13.9-12.5,22.9-6.6C799,235.4,801.2,242.6,799.6,251.6z"/>
	<path class="st0" d="M1320.9,132.7c0,2.2,0.2,4.3,0,6.5c-1.3,11.1-7.8,17.8-17.6,18.2c-11.5,0.5-17.6-4.4-20-16.3
		c-1.1-5.6-1.1-11.3,0.2-16.8c2.7-11.7,9.7-17.1,20.9-16.2c9.4,0.7,15.6,7.7,16.6,18.7C1321.1,128.6,1320.9,130.7,1320.9,132.7
		C1320.9,132.7,1320.9,132.7,1320.9,132.7z"/>
	<path class="st60" d="M857.1,245.2c-4.7,0-9.3,0-14,0c-1.4,0-2.4,0.1-2.5-2c-0.4-8.5,8.1-17,17.3-17.1c9.5-0.1,16.5,6.9,16.4,16.2
		c0,2.6-1.1,3-3.3,3C866.4,245.1,861.7,245.2,857.1,245.2C857.1,245.2,857.1,245.2,857.1,245.2z"/>
	<path class="st0" d="M1145.9,126.7c-4.3,0-8.6-0.2-12.9,0.1c-3.9,0.3-4.3-1-3.4-4.5c2.6-10.9,9.7-16.1,20.7-14.4
		c7.7,1.2,13.3,8.5,12.9,16.4c-0.1,2.6-1.5,2.5-3.2,2.5C1155.2,126.7,1150.6,126.7,1145.9,126.7
		C1145.9,126.7,1145.9,126.7,1145.9,126.7z"/>
	<path class="st0" d="M1027,254.6c11.3-0.1,11.3-0.1,10.7,10.5c-0.3,5.8-10.6,12.6-17.9,11.9c-7.3-0.7-10.9-5.2-10.1-12.5
		c0.6-5,4.7-8.5,11.3-9.5C1023.4,254.6,1025.9,254.6,1027,254.6z"/>
	<path class="st61" d="M526.3,158.1c0-0.2,0-0.3,0-0.5c0.7-4.3-2.1-11.4,1.5-12.3c6.7-1.7,14.6-2.2,21.2,2.2c4.2,2.7,5.9,9,4.4,14.3
		c-1.6,5.9-6,9.5-12.6,10.3C526.2,173.8,526.2,173.8,526.3,158.1z"/>
	<path class="st62" d="M407.8,144.6c11.5,0.1,16.3,2.7,18.7,10.4c3.6,11.5-3.4,21.7-15.4,22.3c-12,0.6-12,0.6-12-11.5
		c0-5.3,0.3-10.7-0.1-16c-0.3-4.3,0.9-6.3,5.4-5.4C405.4,144.8,406.6,144.6,407.8,144.6z"/>
	<path class="st63" d="M16.3,259.7c0.1-19.1,0.2-38.2-0.6-57.3c0.1-1.6,0.3-3.2,0.4-5c4.9,1.5,8.9,2.7,12.3,7.7
		c2.8,4.2,7.8,7.9,13.5,10.6c6.6,3.1,12.8,6.8,20,8.3c1.4,6-2.4,10.9-3.4,16.4c-1.1,7.9-3.4,15.8-0.1,23.7c0.6,3.1,2.4,5.7,3.9,8.4
		c0.8,1.5,2.3,3,0.7,4.9c-0.7,0.4-1.4,0.6-2.2,0.6c-7.8-4.9-16.7-4.7-25.3-4.6c-5.9,0.1-10.8-1.1-13.8-6.7c-0.8-1.6-2.8-2.4-3.3-4.3
		C17.7,261.5,17,260.6,16.3,259.7z"/>
	<path class="st64" d="M57.5,238.8c1.4-5,3.6-9.6,4.4-14.8c3-4.5,4.5-9.5,5.3-14.8c0.6-1.2-0.4-2.4,0.1-3.6c0.5-2,1.4-3.8,1.5-5.9
		c-0.3-3.6,2-6.5,2-10.1c0-6.3-0.4-12.5-2.4-18.5c-0.5-1.4-1.6-3.1-0.3-4.7c-0.3-4,2-2,3.6-1.4c2.7,0.8,2.9,3.4,3.5,5.5
		c1,3.3,1.5,6.7,2.3,10.1c0.2,4.2,0.4,8.5-0.1,12.7c-1,3.5-0.8,7.3-2,10.7c-0.9,1.8-0.3,4.1-1.3,5.9c-0.5,0.9-1.8,1.1-1.8,2.3
		c0.5,1.2-2,1.5-0.8,2.9c-0.2,3.5-1.9,6.6-3.1,9.8c-3.4,8.7-5.6,17.6-6.5,26.9c-0.1,1.3-0.1,2.6,0.3,3.9c0.4,2.7,0.9,5.4,1.9,8
		c5,12.9,15,20.1,27.6,24.2c2.8,0.9,5.8,1.3,8.8,1.6c7.2-0.4,14.3,0.8,21.5,1.1c3.4,0.7,6.9,1.2,9.6,3.5c3.2,2.8,6,3,8.9-0.2
		c4.3-2.4,8.9-3.1,13.8-3.4c7.6-0.5,15.2-0.4,22.7-1.8c13.8-2.6,23.6-10.6,30.1-22.8c0.7-1.3,1.1-2.9,3-2.9c2.4-1.2,3.4-0.4,3.2,2.2
		c0.9,0.8,1,1.8,1,2.9c-0.2,2.8-1.8,4.9-3.6,6.9c-6.4,8.3-14,15.1-24,18.7c-8.2,3-16.9,3.2-25.5,3.6c-8.7,0.4-17.3,0.5-24.4,6.5
		c-0.9,0.8-1.9,0.5-2.1-0.9c-3.9-5.5-9.9-6.3-15.8-6.8c-8.1-0.6-16.2-0.8-24.3-1.2c-9.2,0.4-16.5-4.1-23.1-9.7c-2.9-2.5-7-4-8.1-8.4
		c-1.5-2.5-3-4.9-4.5-7.4c-0.8-1.4-1.8-2.8-0.7-4.4c-3.2-6.4-1.8-13.2-1.1-19.8C57.2,243,57.6,240.9,57.5,238.8z"/>
	<path class="st65" d="M24.1,116c8.3,1.7,9.4,4.4,6.6,12.4c-1.3,3.8-1.1,8-2.4,11.9c-0.9,2.9,2.2,4.9,4.7,2.9
		c4.2-3.3,9-2.4,13.6-2.9c0.9-0.1,2.2,0.6,2,1c-2.9,4.3,2.4,7.2,1.7,11.3c-0.7,3.7-1.6,6-5.9,4.3c-3.5-1.4-7.2-1.4-10.8-0.5
		c-4,1.1-5.1,0.2-3.6-3.7c0.3-0.9,1.4-2.1-0.3-3.1c-5,5.4-8.7,11.3-8.6,18.9c0,0.5,0.1,1.1-0.2,1.5c-0.7,1.5-0.5,3.4-2.1,4.4
		c-0.3,0.2-1.1,0.1-1.3-0.2c-1-1.8-0.3-3.4,0.7-5.1c1.5-2.4,1.1-5.3,0.6-7.8c-2.4-12.6-1.6-25.4-1.8-38.1c0-1.5,0.7-2.5,2-3.2
		C21.9,120.1,21,115.6,24.1,116z"/>
	<path class="st65" d="M42.9,202.3c-1.7,2.8-0.3,5.1,0.1,7.4c0.2,1,0.3,2.1-0.6,2.8c-0.9,0.7-1.9,0.2-2.7-0.4
		c-2.2-1.6-5.4-2.4-4.7-6.1c0.1-0.3-0.1-0.9-0.2-0.9c-5.1-0.3-5.5-7.3-10.1-7.5c-4.5-0.2-5.2-3.1-5.2-6.1c0-3.3-0.8-6.3-1.4-9.4
		c-0.2-1.4,0.1-2.8,1.7-3.1c1.7-0.3,1.9,1.3,2.1,2.2c1.2,5.6,5.9,8.1,10,10.5c6.4,3.9,13.4,6.8,20.3,9.9c3.3,1.5,5.6,4.6,9.6,5.5
		c2,0.4,2.3,5,1.6,8c-0.2,1-1.1,1.9-1.4,3.1c-0.5,2.7-1.6,3.8-3.6,0.9c-1.4-2.1-4.9-2-5.6-5.2c-0.2-1-2.2-1-3.5,0.1
		c-0.7,0.5,0.7,2.9-1.5,1.8c-1.2-0.6-1.1-1.7-0.9-3C47.7,208.6,46.8,205,42.9,202.3z"/>
	<path class="st66" d="M70,200.9c0.1,2-1.2,3.4-2,4.9c-1,0.6-1.9,0.2-2.8-0.4c-11.4-6.8-23.6-12.3-34.3-20.2
		c-5.2-3.8-9.2-8.2-7.9-15.3c0.4-0.6,0.7-1.3,1.1-1.9c0.1-0.7,0.5-1,1.2-1.1c3.6,0.8,4.4,4.6,7.1,6.6c9.8,7.4,20.5,13.4,31,19.6
		c0.6,0.3,1.1,0.7,1.6,1.1C68.5,195,69.9,197.4,70,200.9z"/>
	<path class="st67" d="M49,102.4c4.4,4,9.4,7.1,13.6,11.5c2,2.1,5.3,3.7,8.1,5.3c1.9,1.1,3.6,2.3,5.3,3.6c0.9,0.6,1.5,2,0.7,2.6
		c-4.2,3.6-4.3,10.7-10.7,12.4c-1.4-1,2.9-7-4-3.7c-3.6,1.7-9.5-8.6-10.3-13.6C50.9,114.5,51.1,108.3,49,102.4z"/>
	<path class="st68" d="M68.1,142.1c-0.4,0.3-0.8,0.6-1.2,0.9c-2,0.5-3-1.1-4.1-2.2c-1.8-1.7-3.9-3-5.9-4.5c-2.9-2.1-4.8-1.8-5.9,1.7
		c-7.1-0.3-14.4-1.6-21.2,4.5c1.3-5.5,2.2-10.1,3.5-14.5c1-3.5,13.6-7.1,14.7-4.2C51.7,133.6,63.2,134.1,68.1,142.1z"/>
	<path class="st69" d="M51.1,138c0-1.7,0-3.5,0-5.5c6.7,1.6,11.1,6.3,15.9,10.5c-2.1,3.9-6.2,6.4-7.7,10.7c-4.2,0.4-6.4-1.7-6.9-5.8
		C51.9,144.6,51.5,141.3,51.1,138z"/>
	<path class="st70" d="M25.2,167c-0.4,0.4-0.8,0.8-1.2,1.1c-1-4.3,0.6-7.6,5-8.9c8.2-2.4,16-1.6,23.2,3.4c2.3,1.6,2.8,3.9,3.4,6.8
		c-4.9-2.2-9.5-4.4-14.5-4.9c-3.4,0.2-6.7,0.1-10.1,0C28.9,164.9,26.7,165.1,25.2,167z"/>
	<path class="st71" d="M23,170c0,6.5,3.7,10.8,8.7,14.3c11.5,8.3,24.2,14.3,36.3,21.5c0.2,1.2,0.3,2.5-0.8,3.4
		c-1.6-3.2-4.9-4.3-7.7-5.9c-10.9-5.9-22.3-11-32.1-18.8C22.8,180.9,21.2,175.8,23,170z"/>
	<path class="st72" d="M70,200.9c-0.5-3.2-2.9-4.9-5.2-6.7c4,0.8,5.3-1.1,5.2-4.9c-0.2-12.1-1.9-23.7-11-32.8
		c-0.7-0.7-0.6-1.4-0.1-2.2c3.9,0.6,4.5,4.2,6.3,6.7c1.1,1.6,1.8,3.5,2.7,5.3C71.7,177.7,72.2,189.2,70,200.9z"/>
	<path class="st65" d="M43.1,119c-1.5,1.1-2.6,3.7-4.8,2.3c-2.4-1.5-0.5-3.7,0.1-5.3c0.7-1.8,1.7-3.4,1.9-5.5
		c0.3-2.1,1.7-3.2,3.8-1.4C44.5,112.5,44.9,115.9,43.1,119z"/>
	<path class="st67" d="M24.1,116c-1.4,1.1-1.6,2.8-2.3,4.3c-0.9,1.7-2.1,2.5-2.7-0.3c0-1.3,0-2.7,0-4c0.3-1.8,0.6-3.6,2-5
		C23.7,111.8,23.4,114.2,24.1,116z"/>
	<path class="st65" d="M21.1,111c0,1.9,0.3,4-2,5c-0.5-0.6-1-1.2-1.4-1.9c-0.7-1.3-1.2-3-0.2-4.1C18.9,108.5,19.6,111.6,21.1,111z"
		/>
	<path class="st67" d="M43.1,119c-0.4-3.4,0.5-6.7,1-10C44.8,112.5,48.3,116.2,43.1,119z"/>
	<path class="st73" d="M31,164.4c3.4-0.7,6.7-0.6,10.1,0C37.8,165.5,34.4,165.5,31,164.4z"/>
	<path class="st74" d="M128,115.2c-0.9,0-1.9,0-2.8,0c-8.4-1-14.2-9.8-11.2-17.3c0.4-1.1,0.8-2.2,0.6-3.4c-0.8-4.2,1.5-4.4,4.6-3.7
		c2.6-0.2,4.1-2.2,5.9-3.7c0.9-1,2-0.7,3-0.3c2-0.4,3.9-1.2,5.9-0.1c5.2-1.6,10.1-0.8,15.3,1c6.4,2.2,8.6,7.6,11.7,12.5l0-0.1
		c4.1,3-0.7,5.5-0.8,8.3c0,2-3.3,1-5.2,0.8c-4.1,2.4-7.4,6.3-12.9,6c-1.5-0.1-3.3,1.4-4,3.3c-1,1.9-2.1,0.9-3.1,0.1
		C132.9,116.9,130.5,115.9,128,115.2z"/>
	<path class="st75" d="M161,100.2c-1.3-0.2-2.3-1.3-2.5-2.2c-1.7-6.1-7.2-7.6-11.8-10c-3.9-2.1-8.5-0.7-12.7-1.3
		c0.2-1.4,2.4-2,0.4-4.2c-2.3-2.7,1.7-2.2,2.7-3.3c1.2,0.6,2.1,1.4,1,2.8c-1.1,1-0.7,1.6,0.5,2.1c2.9,1.2,5.9,1.5,8.5-0.1
		c3.8-2.3,7.3-2.2,11,0l0-0.1c-3-0.4-5.8,1.6-9.5,0.8c2.2,3,4.7,4.3,7.3,3.6c2.9-0.7,4.2,0.4,5.6,2.5c1.3,1.9,3.1,3.4,5.3,4.4
		c2.4,1,2.7,2.8,2.4,5.8c-3.4-3.5-5.5-7.5-10.4-7.9C158.2,96.1,161.2,97.7,161,100.2z"/>
	<path class="st76" d="M128,115.2c4.1-1.1,6.3,3.6,10.1,3.3c-0.6,4.6,1.1,6.1,8.3,7.5c0.6,0.1,1.1,0.3,1.7,0.4
		c-0.4,0.3-0.7,0.5-1.1,0.8c-1.8-1.2-0.6,2.9-2.6,1.4c-6.5-4.6-12.8-1.7-19.1,0.6c-0.4-0.4-0.8-0.8-1.2-1.2
		c3.9-0.6,7.2-2.9,10.8-4.3c1.6-0.6,0.6-1.5,0.4-2.4C134.4,117.5,130.3,117.4,128,115.2z"/>
	<path class="st77" d="M119.2,90.8c-2.5,0-4.8,0.5-3.9,3.8c0.8,3.2-3.1,5.2-1.8,8.8c2.2,5.8,6.8,8.8,11.7,11.8
		c-2.3,1.5-3.9,0.6-5.6-1.3c-3.1-3.4-6.9-6.4-8.3-11.1c-0.1-0.4-0.8-0.5-1.2-0.8l0.1,0.1c1.5-1.5,2.9-3.1,3.5-5.1
		c0.3-0.9,0.4-2.7,0.3-2.7c-3.8-0.8-1.5-2.9-0.7-4.1c1.4-2.3,3.2,0,4.8,0C118.4,90,118.8,90.5,119.2,90.8z"/>
	<path class="st78" d="M155,109.2c4.8-0.5,7.5-4.5,5.9-9.1c2.3,1.2,7-0.4,6,5.2c-3-3.5-4.3-3.5-5.3,0.9
		C160.6,111,158.3,110.7,155,109.2z"/>
	<path class="st79" d="M110.1,94.5c-1.8,2.9-3,4.5-3.8,6.3c-1.1,2.5-3.3-1.4-4.3,0.9c-0.4-1.3,0-2.6,1-3.3
		C104.9,97.1,107,96.1,110.1,94.5z"/>
	<path class="st80" d="M128.1,86.8c-1,0.1-2,0.2-3,0.3c-1.6-2.2-4.6-0.1-6.6-2.5C122.6,81.6,125.2,84.7,128.1,86.8z"/>
	<path class="st75" d="M158,84.1c3.4-1.3,5.8-0.6,6.9,4C162.3,86.6,160.2,85.3,158,84.1C158.1,84,158,84.1,158,84.1z"/>
	<path class="st81" d="M111.1,84c0.9,1.4,2.4,0.5,4.5,0.8c-2.6,1.6-4.5,2.8-7.3,4.6C109.2,86.9,109.7,85.3,111.1,84L111.1,84z"/>
	<path class="st82" d="M111.1,84.1c0.7-2.7,1.1-5.7,5.8-4.6C114.7,81.1,112.9,82.6,111.1,84.1C111.1,84,111.1,84.1,111.1,84.1z"/>
	<path class="st83" d="M110,102c0.1,1.8-0.9,3.1-2,4.3C105.9,103.5,105.9,103.5,110,102C110.1,102.1,110,102,110,102z"/>
	<path class="st75" d="M162,82.2c-1.6-1-2.4-1.4-3.2-2c-0.5-0.4-0.8-0.9-1.3-1.5C160.5,78.5,160.5,78.5,162,82.2z"/>
	<path class="st84" d="M138.1,82c-0.3-0.9-0.6-1.9-1-2.8c1.7-0.2,3,0.8,4.5,1.5C141,82.8,139.3,81.9,138.1,82z"/>
	<path class="st2" d="M209.9,273.7c1.5-1.6,2.8-3.2,3.3-5.4c0.9-2.9,2.1-5.8,1.6-9c-0.1-3.2,0-6.3,0-9.5c-0.1-1.3,0.2-2.6,0.4-3.9
		c-0.3-7.1-2.1-13.8-5-20.2c-0.3-2.9,1.8-2.9,3.6-2.7c4.9,0.5,8.6-1.7,11.9-5c0.7-0.7,1.5-1.9,2.2-1.9c6.9,0.1,9.5-6.6,14.5-9.3
		c0.8-0.4,1.6-1.4,1.7-2.3c1-5.9,6.4-5.2,10.1-6.3c2.3-0.7,0.6,2.8,1.4,4.2c-0.7,19.3-0.8,38.7-0.7,58c-0.3,0.5-0.7,1-1,1.5
		c-2.9,1.2-5.4,3-6.7,6c-1.1,2.4-3.3,3.4-5.4,4.6c-0.7,1.2-1.9,1.5-3,1.3c-3.7-0.7-7.3,0.3-10.9,0.2c-6-0.2-11.5,1.1-16.5,4.4
		C204.6,278.9,209.8,275.5,209.9,273.7z"/>
	<path class="st85" d="M173.5,137.1c0.5-0.3,1-0.7,1.4-1c3.3,0.1,5.9-1.7,8.6-3.1c1.9-1,3.5-0.9,4.8,0.9
		c4.3,5.9,10.2,10.4,14.6,16.2l0,0c1.8,2.1,4.1,4.1,1,6.9l0.1-0.1c-8.1,13.5-9.6,28-6.5,43.2c0.1,0.6,0,1.3,0.1,2
		c0,0.2,0.1,0.3,0.1,0.5c3,9.1,3,9.1-6.5,8.8c-5.2-1-10.5-0.8-15.7-2c-5.7-1.3-8-3.8-7.8-9.7c0.2-4.2-2-9.1,2.8-12.2
		c3.1,0.2,6.1,1.3,9.6,2c-2.8-1.1-5.4-1.2-7.8-2c-1.3-2.2,0.4-2.9,1.8-3.8c0.5-0.1,0.9-0.1,1.4,0c2.8,0.9,5.4,2.4,8.5,2
		c1-0.2,1.8-0.9,2.6-1.4c1.2-1.2-0.5-2.2-0.1-3.4c0.6-2,2.6-1.6,4-2.4c0.4-0.5,0.2-1,0.1-1.6c0-0.4,0-0.8,0.2-1.2
		c0.5-0.8,1.1-1.7,0.9-2.8c0-1.1-0.1-2.2,0-3.3c0.3-1,0.8-1.9,1.4-3.1c-1.9,0.6-2.6,2.3-4.1,3c-0.7,0.2-1.4,0.2-2-0.1
		c-4-4.3,0.5-6,2.5-8.4c-1.2-1.9,0.1-2.8,1.4-3.8c0.6-0.5,1.4-0.8,1.9-1.6c-2.2-1-4.5,0.9-6.7-0.3c-0.9-2.4,1.4-3.4,2.2-5.1
		c0.7-1.6,1.6-3.2,1.5-5.1c-3.1,1.1-3,5-5.9,6.2c-2-0.5-2.4-2.1-2.7-3.9c0.7-1.7-0.1-2.3-1.8-2.3c-1-1.9-1.7-1.2-2.9,0
		c-1.8,1.9-1.9,1.9-4.8,0c0.2,3,2.8,4,4.3,5.8c0.3,0.4,0.5,0.8,0.7,1.2c0.3,0.9,0.3,1.9-0.2,2.7c-0.5,0.5-1.1,0.7-1.8,0.6
		c-0.5-0.3-1-1.1-1.2,0.3c-0.5,1.3-0.4,3.1-2.3,3.5c-0.7-0.1-1.3-0.3-1.9-0.6c-0.4-0.2-0.9-0.6-1.3-0.6c-4.8-0.3-4.8-0.3-3.3-5.2
		c-1.2,1.3-2.2,4.3-3.6,0.2c-0.5-2.7,2.1-6-1.5-8.1c-1.1-0.6-2.6-1.9-2.9,0.4c-0.5,3.8-2.5,4.4-5.8,3.4c-0.4-0.1-0.7,0.5-0.9,1
		c-0.4,2.1-1,4.2-0.1,6.3c1.1,3-0.9,5.1-2.3,7.3c-0.2,0.9-0.6,1.6-1.4,2.1c-3.4,0.9,0.6,2.2-0.2,3.3c0.4,1.5,0.8,3-0.2,4.4
		c-0.3,0.5-0.6,1-0.4,1.6c0.4,0.7,1,1.3,1,2.1c-0.2,0.8-0.4,1.5,0,2.3c1.4,1.3,0.2,3.5,1.9,4.6c0.4,0.1,0.8,0.3,1.2,0.4
		c1.2,0.4,2.2,1.3,3.5,1.5c1.1,0.2,2.2,0.1,3.3,0.3c0.9,0.2,1.8,0.6,2.1,1.6c-0.1,0.5-0.5,0.8-0.7,1.2c-0.5,1.1,0.5,0.4,0.6,0.3
		c2.6-0.1,5.3-2.4,7.8,0.2c2.3,9.8,0.1,16.5-6.3,19.8c-3.7,1.9-7.8,0.9-11.7,1.7c-1.4,0.3-3,0-4.4,0.5c-1.7-0.2-3.6,0.8-5.1-0.8
		c-0.2-24.8,0-49.5-0.2-74.3c0-3.8,1.2-4.1,4.4-2.9C152.7,137.4,162.9,139.2,173.5,137.1z"/>
	<path class="st86" d="M86.1,132.4c0.5,0.3,0.9,0.5,1.4,0.8c6.6,3.9,14,4.7,21.4,5.3c1.1,0.8,1.3,2,1.1,3.2c-0.4,1-0.3,2,0.7,2.7
		c0.7,0.5,1.5,0.8,2.3,1.1c1.4,0.5,2.9,0.6,3.9,1.8c2.3,4.3,2.7,8.9,2.5,13.6c-0.2,4.9-2,6-6.4,3.7c-6.6-3.4-13.3-5.1-20.7-2.8
		c-3.5-0.4-6.4,2.8-10.1,1.8c-2.3,0.3-2,2.1-2.3,3.6c-0.5,2.9-2,4.3-5.1,3.1c-2.7-5.4-4.4-11.3-8.2-16.1c-1.2-1.5-0.6-2.7,0.6-3.8
		c1.4-1.4,2.9-2.7,3.9-4.4l-0.1,0.1c2.2-3,4.9-5.4,7.5-8c0.2-0.1,0.4-0.3,0.5-0.5C82,132.8,83.1,132,86.1,132.4z"/>
	<path class="st87" d="M61,256c-1.5-6,0-11.9,1.3-17.6c1.9-8.1,4.4-16.2,8.9-23.4c38.4,0.1,76.9,0.1,115.3,0.2c0.7,0,1.3,0,2,0
		c14.2,0,14.2,0,18.4,13.4c1.9,6,3.1,12.2,3.8,18.5c-0.4,3.6-0.2,7.3-0.1,10.9c-0.3,1.7-0.5,3.3-0.8,5
		c-8.3,18.5-22.7,27.5-42.9,28.4c-9,0.4-18.4-0.8-26.7,4.1c-0.8-3.7,2.1-4.4,4.5-5c5.2-1.2,10.6-2.1,16-1.9
		c11.6,1.4,21.6-2.9,31.1-8.7c12.5-7.6,18.1-23.1,14.2-39.5c-1.2-5.1-2.2-10.4-4.1-15.4c-1.9-4.9-5-6.7-10.2-6.7
		c-36.6,0.2-73.2,0.1-109.8,0.1c-1.8,0-3.7,0-5.5,0.4c-2.2,0.5-4.1,1.6-4.9,3.8c-3.3,8.7-6.6,17.4-6.9,26.9
		c-0.5,14.4,6.1,25.5,19.6,32.8c-0.4-1.3-1.8-2.1-1.4-3.6c3.5-1.9,5.3,0.7,7.2,2.9c1.3,2.7,3.6,3.7,6.2,2.7
		c5.3-2.2,8.7,2.1,12.9,3.3c0.8,0.2,1.4,1.1,1.2,2c-0.2,1-1.2,0.9-2,0.9c-3,0.1-5.9-0.3-8.9,0.3c-14.7-1.4-25.8-8.7-33.9-20.8
		c-1.1-1.6-2.4-3.2-2.3-5.4C62.3,261.7,62,258.8,61,256z"/>
	<path class="st88" d="M124.1,134.5c2.4-0.8,5.2-0.3,7.3-2.2c1.1-1.1,1.8-0.3,2.3,0.6c0.6,1.2,0.4,2.6,0.4,3.9
		c0,21.7,0.1,43.4,0,65.1c-1.4,6.5-7.3,8.3-14.4,4.4c-1-0.6-1.7-1.5-2.7-2.1c-4.2-3.1-4.3-6.8-2.3-11.3c2.1-4.7,4-9.4,6.3-13.9
		c1.5-2.8,4.1-5,4.3-8.5c1.2-5.6,0-11.1-0.9-16.6c-0.5-2.3-0.6-4.7,1.6-6.2c3.7-2.5,2.7-4.2-0.6-5.8c-1-0.5-2.1-0.9-2.8-1.9
		c-0.6-1.2-0.6-2.4,0-3.7C123.1,135.6,123.8,135.3,124.1,134.5z"/>
	<path class="st89" d="M245.1,159c0.7,0.7,1.4,1.3,2,2c0.3,0.2,0.4,0.4,0.4,0.6c-0.1,0.2-0.2,0.4-0.3,0.4c-0.1,0.4-0.1,0.7-0.2,1.1
		c-1.9,0.5-3.1-0.9-4.5-1.6c-7.7-3.4-14.9-1.9-21.8,2.1c-0.7,0.4-1.3,1-1.8,1.6c-0.4,0.5-0.8,1-0.9,2.2c7.4-3.3,15-5.1,23-3.6
		c2.3,0.4,4.6,0.9,5.4,3.6c-2,3.4-5.4,5.3-7.8,8.3c-3.4,2-5.7,6.2-10.6,5.2c-0.3-2.5,1.8-3.4,3.2-4.6c2.6-2.2,5.8-3.9,8.1-7.6
		c-5.7-1.4-10.7,0.3-15.7,1.4c-0.3,0.1-0.6,0.2-0.9,0.3c-2.9,0.8-6,4-8.7,1.3c-2.9-2.9-0.6-6.9,0.2-10.4c0.2-0.9,1-1.7,1.1-3.2
		c-4.6,2.2-6.9,6.3-8.2,10.3c-1.9,5.8-3.3,11.8-3.6,18c-0.1,1.7-0.6,4,1.4,5c1.8,0.9,3-0.8,4.4-1.7c2.5-1.6,5.2-2.9,7.7-4.7
		c1.3-0.9,2.7-1.4,4.2-0.5c0.8,1.9-0.6,2.8-1.8,3.5c-4.8,3.1-9.7,6.3-14.5,9.4c-1.1,0.7-2.3,1.4-3.6,0.2c-1.4-9.4-1.2-18.7,1.8-27.8
		c1.7-5.2,3.8-10.2,7.5-14.4c1-1.1,2-2.2,1.8-3.9c4.8,0.5,5.2-2.7,5.6-6.3c0.8-7.7,5.1-10.5,12.4-8.5c1,0.3,1.9,0.7,2,1.9
		c-2.4,0.7-5.1-0.8-7.2,1.1c-2.8,4.7-3.8,9.8-3.3,17.7c4.6-1.5,9.3-2,14-2.2C239.5,155.2,242.6,156.2,245.1,159z"/>
	<path class="st90" d="M228.1,181.3c3.8-1.4,6.6-4.4,10.1-6.3c1.7-1.1,3-2.7,4.4-4c1-0.9,1.9-2.1,3.4-1.1c1.4,1,1.7,2.5,1.1,4
		c-1.3,3.7-3,7.1-6.6,9c-2.3,1.2-4.2,2.6-5.9,4.5c-4.1,4.4-10.1,5.6-14.9,8.9c-4.8,3.3-9.8,6.1-15,8.8c-0.4,0.8-0.8,1.5-1.6,2
		c-0.2,0-0.3,0.1-0.5,0.1c-1-3.1-1.9-6.3-2.9-9.4c0.5,0.1,1,0.1,1.4,0.2c7.3-3.4,13.7-8.2,20.3-12.7
		C223,182.8,225.4,181.8,228.1,181.3z"/>
	<path class="st91" d="M232.3,138.9c-3.1-1.6-6.4-0.9-9.7-0.5c-1.9,0.2-2.8,1.4-2.9,3.3c-0.2,2.6-0.5,5.2-1,7.8
		c-0.7,4.4-3,5.2-6.5,2.3c-3.1-2.9-5.7-6.3-8.1-9.7c4.1-5.7,10.5-8.3,15.9-12.2c1-0.7,1.2,0.7,1.8,1.1c2.6,4.4,6.5,5.9,11.9,4.9
		c2.3-0.4,2.3-1.8,2.2-3.6c-0.2-2.8-3-4.4-2.9-7.2c2.7-0.1,4.3,1.3,4.9,3.9c1,4.3,2.1,8.6,3.3,13.4
		C237.9,140.9,235.7,138.4,232.3,138.9z"/>
	<path class="st92" d="M132.9,202.9c0-22.3,0-44.5,0-66.8c0-1.3,1.4-3.5-1.5-3.9c0.4-1.8,1.4-1.9,2.8-1.1c0.7,1.8,0.4,3.6,0.4,5.4
		c0,23,0,46,0,69c0,1.8,0.3,3.6-0.3,5.4c-1.3,2-3.3,1-5,1c-19.1,0.1-38.1,0.1-57.2,0.2c-2.4-2.1,0.2-2.2,1.2-2.9
		c17.4,0.3,34.8,0.2,52.2,0.1C131.9,209.4,132.1,209.1,132.9,202.9z"/>
	<path class="st93" d="M203.1,207c0.3-0.6,0.6-1.2,0.9-1.8c11.2-7.1,23.3-12.4,34-20.3c5.4-4,8.7-8.6,10.3-14.9
		c2,6,0.5,11.1-4.3,15.1c-9.8,8.2-21.5,13-32.4,19.2c-2.7,1.5-5.7,2.7-7.1,5.8C203.9,209,203.5,208,203.1,207z"/>
	<path class="st94" d="M173.5,137.1c-10.1,3.4-19.8,0.8-29.4-2.3c-1.5-0.5-3-1.2-5-1.9c0,26.3,0,52.2,0,78c0.3,0.3,0.4,0.5,0.3,0.7
		c-0.1,0.2-0.3,0.3-0.4,0.3c-0.8-0.1-1-0.7-1-1.4c0-26.4,0-52.8,0-79c1.4-0.9,2.2,0,3,0.4C151.3,137.2,162.3,137.4,173.5,137.1z"/>
	<path class="st95" d="M134.2,211c0-26.6,0-53.2-0.1-79.9c1.2,1,0.9,2.4,0.9,3.7c0,24.1,0,48.3,0,72.4
		C135.1,208.5,135.3,209.9,134.2,211z"/>
	<path class="st96" d="M139,211.9c0-0.3,0.1-0.7,0.1-1c1.6,0,3.2,0,4.9,0c15.7-1.8,31.5-1.9,47.2-0.1c2.6,0.1,5.2,0.7,8-0.2
		c-0.7-2.9-1.3-5.7-2-8.6c0.3-0.5,0.7-0.5,0.9,0c4,9.9,4,10-5.9,10C174.5,212.2,156.8,212,139,211.9z"/>
	<path class="st97" d="M198.1,202.1c-0.3,0-0.6,0-0.9,0c-3.3-12.7-2.6-25.2,2-37.4c1.1-2.8,1.9-5.9,4.8-7.7
		c-2,5.7-4.8,11.1-5.9,17.1C196.4,183.4,196.7,192.7,198.1,202.1z"/>
	<path class="st98" d="M124.1,134.5c0.1,0.8-0.4,1.3-1,1.7c-4.3,3-8.9,4-14,2.8c-7.6-0.4-15.3-0.6-21.6-5.9c0.3-0.1,0.7-0.3,0.9-0.2
		C100.1,138.8,112.1,137.9,124.1,134.5z"/>
	<path class="st99" d="M203,150.1c-5.5-3.9-9.6-9.3-14.1-14.3c-2.2-2.4-3.8-2.8-6.6-1.2c-2.2,1.2-4.5,3.4-7.4,1.6
		c1.7-0.7,3.3-1.4,5-2.1c7.1-3,7.3-3.2,12.4,3.1C195.8,141.4,200.9,144.5,203,150.1z"/>
	<path class="st100" d="M71.1,146c-4.9,4.7-4.1,9.1,0.1,14.1c2.2,2.6,2.8,6.6,4.1,9.9c2.2,2.9,2.6,6.3,2.2,9.8
		c-0.4,0.5-0.8,0.6-1.4,0.3c-1.8-5-1.9-10.4-4.6-15.1c-1-3.2-2.4-6.2-4.6-8.6c-3-3-2.3-5.2,0.6-7.4C68.7,148,69.2,146,71.1,146z"/>
	<path class="st64" d="M215.2,245.9c0.8,0.8,0.9,1.8,0.7,2.9c-0.6,3.5-0.1,7.1-0.3,10.7c0,0.9-0.2,1.6-1.4,1.5
		C210.6,257,211.2,247.5,215.2,245.9z"/>
	<path class="st101" d="M78.6,138c-2.3,2.9-4,6.3-7.5,8C72.6,142.5,74.8,139.6,78.6,138z"/>
	<path class="st102" d="M86.1,132.4c-4-0.5-4.2,4-7,5.2c0-3.4,2.8-4.9,4.8-6.8C85,129.7,86.2,130.7,86.1,132.4z"/>
	<path class="st99" d="M204,157c2.5-2.7-0.2-4.7-1-6.9C208.3,153.1,208.4,154,204,157z"/>
	<path class="st103" d="M210.7,257.9c-1-3.6-1.1-7.3,0.1-10.9C211.3,250.6,211.4,254.3,210.7,257.9z"/>
	<path class="st104" d="M214.2,261c0.4-0.4,0.7-0.8,1.1-1.2c0.2,0,0.4,0,0.6,0c-0.5,3-0.5,6.1-2.7,8.5c0-1.1,0-2.1-0.1-3.2
		C214.3,264,213.8,262.4,214.2,261z"/>
	<path class="st105" d="M247.2,162c0-0.3-0.1-0.7-0.1-1c2.5-2.8,4.5-4.3,0.6-8.8c-2.9-3.4-4.5-9.7-5.4-15c-0.1-0.4,0-1.1,0.3-1.3
		c2.9-2.4,3.3-2.7,0.7-5.3c-2.6-2.6-1.3-8.2-8.1-8.3c6.7-3,10.7-7.6,15.5-11.2c0.8-0.6,1.7-1.1,2.7-0.7c1.1,0.5,1,1.3,1,2.4
		c-0.2,14.7-0.2,29.4-0.3,44C254,162.5,253,163.3,247.2,162z"/>
	<path class="st106" d="M194.1,124.4c3.8,1.3,5.8,0.4,6.3-3.4c0.2-1.2,1.9-3,2.9-3c4.5-0.1,6-5,9.9-5.8c2.7-0.5-0.1-2.5,1.2-3.3
		c2.5-1.6,5.1-0.8,6.9,0.8c1.7,1.5,1.1,3.9-0.7,5.2c-2.7,1.9-4.2,3.1-1.2,6.4c2.3,2.6-1.7,4.1-2.6,6.2c-0.6,1.6-2.2,2-3.7,0.9
		c-2.7-2-3.4-0.5-2.7,1.9c0.7,2.3,0,3.9-1.9,4.4c-2.6,0.7-6.1,1.8-7.8-1C198.9,130.6,195.7,128.7,194.1,124.4z"/>
	<path class="st105" d="M245.1,159c-8.3-4.2-16.6-2.1-24.8,0.6c-0.2-5.8,0.3-11.3,1.6-16.8c0.5-2,1.2-3,3.2-2.8
		c4-0.7,7.4,1.5,10.8,2.7c2.2,0.8,4.4,3,4.2,6.1c-0.1,1.2,0.3,2.3,1.6,2.8C245.8,153,246.5,154.6,245.1,159z"/>
	<path class="st105" d="M251.1,184c5.1,1.3,2.9,5.4,2.7,8.2c-0.1,2.3-2.4,2.8-4.6,1.5c-1-0.6-1.5,0-1.7,1c-0.6,4.2-2.1,4-4.4,0.9
		c-0.7-0.9-1.7-2.1-2.9-1.1c-1.7,1.5,0.3,2.2,1,3.1c0.7,0.9,1.7,1.6,1.7,3.5c-3.1-1.6-6.2,0.6-9.5-1.4c-1.5-0.9-2.9,1.4-2.3,3.2
		c0.6,1.8,0.4,3.2-1.2,3.7c-1.9,0.7-0.7-1.6-1.5-2.1c-0.8-0.5-1.5-0.7-2.3-0.4c-1,0.3-1.2,1.2-0.9,2c0.4,1.2-0.4,2.2-0.5,3.1
		c-0.4,4.6-4.1,3.5-6.4,3.5c-3.2,0-4.8-3.1-6.7-5.4c-0.5-0.6,0-1.4,0.7-1.5c3.5-0.5,5.4-5,9.9-3.6c1.6,0.5,3.4-1,4.7-2.4
		c2.2-2.3,3.9-5.5,8-4.7c0.5,0.1,1.3-0.9,1.8-1.4c3-3.5,6.5-5.5,11.5-5C251.6,189,250.9,186.1,251.1,184L251.1,184z"/>
	<path class="st107" d="M246.2,168.2c-3-4.5-7.8-3.6-12.1-3.6c-6.4,0-12.4,1.9-18.1,5.3c0-6.2,4.3-8.1,8.7-9.7
		c7.9-2.8,15.6-3.2,22.4,2.9c-0.4,2,2.3,3.9,0.1,5.9C246.2,169.4,246,169,246.2,168.2z"/>
	<path class="st108" d="M233.1,125.1c1.1,1.3,2.4,2.4,3.1,3.8c1.2,2.4,1.9,5,0.6,7.6c-1.4,2.7-3.6,0.3-5.3,0.6c-1,0.1-2-0.1-3,0
		c-4.9,0.9-7.2-1-6.6-6C222,123.4,224.4,122.2,233.1,125.1z"/>
	<path class="st109" d="M246.2,168.2c0.3,0.3,0.6,0.6,1,0.8c0.4,0.3,0.7,0.6,1.1,0.9c0,5.9-2.7,10.3-7.4,13.9
		c-11.2,8.7-24.2,14.4-36.2,21.8c-0.1,0.1-0.5-0.3-0.7-0.4c0.1-0.9-1.3-2.4,0-2.5c7.8-0.5,12.2-7.4,18.9-9.6c6.8-2.2,10.9-8,16.9-11
		c3.8-1.9,5-5.6,6.5-9c0.5-1-0.1-2-0.9-2.6c-0.8-0.5-1.5,0.2-2.1,0.8c-1.6,1.3-2.6,3.5-5.1,3.7C240.8,172.6,242.1,168.8,246.2,168.2
		z"/>
	<path class="st105" d="M211.3,219.6c-3.5-2.6-1.9-7.1-3.9-10.3c-0.6-1,1.9-1.6,2.4-0.7c1.4,2.6,5.7,4.5,2.8,8.6
		C212.2,217.8,212.8,218.9,211.3,219.6z"/>
	<path class="st105" d="M254.1,170.6c-0.4,1.4,0.6,4-1.1,3.8c-2.9-0.4-2.5-3.7-2.9-5.9c-0.2-1.3,0.2-3.1,1.8-2.9
		C255,165.9,253.7,168.7,254.1,170.6z"/>
	<path class="st105" d="M251.1,184c-1-0.6-1.1-1.6-0.9-2.6c0.3-1.3,0.6-2.6,2.1-3.1c0.7-0.2,1.3,0.1,1.6,0.8c0.5,1.3-0.5,2.1-1.3,3
		C252,182.7,251.5,183.3,251.1,184C251.1,184,251.1,184,251.1,184z"/>
	<path class="st105" d="M232.6,211.6c-0.1,1.7-1.6,1.2-2.5,1.5c-1,0.3-1.9,0.5-2-1.1c-0.1-1.5,0.9-1.4,1.8-1.6
		C231.2,210.1,232.1,210.3,232.6,211.6z"/>
	<path class="st105" d="M219.2,218.3c0.6,1.5-0.5,1.6-1.5,1.8c-1.4,0.4-1.8-0.2-1.7-1.4c0.1-1.1-0.1-2.5,1.6-2.5
		C219,216.2,218.9,217.5,219.2,218.3z"/>
	<path class="st110" d="M209.9,273.7c2.1,0.8-4.1,4,1.1,4c-2.5,5-7.1,7.8-11.2,11.1c-9.2,7.3-19.9,10.1-31.5,9.5
		c-3.7-0.2-7.2,1.1-10.8,1c-3.2,0-6.6-0.5-9.4,1.6c-0.6,0.7-1.3,1.3-1.9,2c-3.2-1.4-6.1-1.5-8.9,1.2c-1.4,1.4-3.4,1.4-4.2-1.1
		c0.5-0.1,1-0.2,1.5-0.3c0.9,0.6,1.8,0.7,2.6-0.3c5.4-6.1,12.8-6.3,20.2-6.7c6.8-0.4,13.7-0.5,20.4-1.4
		C191.5,292.4,201.5,284.3,209.9,273.7z"/>
	<path class="st111" d="M138,311.1c-0.4,1.3-0.8,3-2.2,2.9c-1.4-0.1-2.2-1.8-2.5-3.2c-0.2-1.1,0.8-1.7,1.9-1.8
		C136.8,308.9,137.7,309.7,138,311.1z"/>
	<path class="st112" d="M157.1,298c11-1.9,22.6,0.3,33.2-4.9c4.3-2.1,8.1-4.9,11.8-7.8c3.1-2.4,5.5-5.7,9-7.6
		c4.7-3.8,9.8-5.2,16-5.1c4.9,0.1,9.8-0.4,14.7,0.1c3.2,1,4.9-0.8,6.4-3.2c0.6-1,1.6-2.7,3.1-1.9c1.4,0.8,0.6,2.3,0.1,3.6
		c-3.2,8.5-7.1,16.8-13.1,23.5c-4.3,4.8-9.4,9.1-15.3,12.3c-3.3,0.2-5.6,2.1-8,4c-5,2.5-10.2,4.5-16,4c-7,0.8-14,1.1-21.1,0
		c-1.3,0-2.6,0-4,0c-2.8-1.6-6.1-1.1-9-2c-0.3,0-0.7,0-1,0c-3.1-1.7-6.5-2.7-10-3c-0.3-0.3-0.7-0.6-1-0.9c-0.4-0.7-0.9-1.4-1.3-2
		c-4-6.2-3.1-8.1,4-8.5C156.2,298.4,156.6,298.2,157.1,298z"/>
	<path class="st28" d="M178,315c7-0.1,14-1,21.1,0C192.1,317.5,185.1,317.5,178,315z"/>
	<path class="st28" d="M157.1,298c-7,2.4-7,2.4-4.1,10c0.1,0.3,0.1,0.6,0.1,1c-3.4-1.6-3.8-5.1-5-8.1
		C149.6,295.7,154,298.9,157.1,298z"/>
	<path class="st28" d="M154.1,309.9c4.3-2.1,7.3-0.1,10,3C160.3,313.5,157.1,312.1,154.1,309.9z"/>
	<path class="st28" d="M215.1,310.9c2-2.8,3.5-6.3,8-4C220.9,309.2,218.1,310.3,215.1,310.9z"/>
	<path class="st28" d="M165,312.9c3.1,0.2,6.5-0.9,9,2C170.9,315,167.9,314.2,165,312.9z"/>
	<path class="st113" d="M18.4,262.4c2,0.8,3.9,2,4.9,4c2.2,4.8,6,5.7,11,5.6c9.2-0.1,18.7-1.1,26.8,5.1c4.6,3.2,9.4,6.2,12.5,11.1
		c2.8,2.9,6.4,4.3,10.2,5.5c10.9,3.5,22.2,4.3,33.5,4.7c5.9,0.2,6.1,0.7,3.9,6.5c0.2,2.2-0.7,3.3-2.7,4.5c-3,1.7-7.1,1.2-9.4,4.3
		c-13,2.9-26.1,4.2-39.4,2.3c-25.3-3.6-47.4-24.5-52-49.6C17.2,265,16.8,263.4,18.4,262.4z"/>
	<path class="st114" d="M77.9,35.2c1.8-0.1,3.1,0.7,3,2.2c-0.2,3.2-3.3,3.5-5.4,4.1c-1.9,0.5-2.3-2.1-2.2-3.1
		C73.5,35.7,76.6,36.4,77.9,35.2z"/>
	<path class="st115" d="M72.6,34.6c-1.9,0.1-2.2-1.9-2.2-2.6c0.3-2.7,2.9-2.4,4.8-2.9c1.3-0.3,2.3,0.5,2.1,1.9
		C76.9,33.7,74.3,33.5,72.6,34.6z"/>
	<path class="st116" d="M14.9,71.1c1.8-0.1,3,0.8,2.9,1.9c-0.3,2.4-1.9,4.2-4,5.1c-0.6,0.2-2.9-1.6-2.8-2.3
		C11.3,73.4,13.5,72.3,14.9,71.1z"/>
	<path class="st114" d="M251.2,62c-0.2,1.7-1,2.6-2.3,2.3c-2.2-0.6-4.2-1.9-4.6-4.3c-0.2-1,1.5-2.8,2.5-2.5
		C249,58.2,250.7,59.9,251.2,62z"/>
	<path class="st28" d="M121.1,305c1.1-5-0.9-6.6-5.9-6.1c-10.1,0.9-20-1.6-29.9-3.2c-4.1-0.7-7-3.5-10.9-4.3
		c-1.4-0.3-2.3-1.8-2.4-3.5c1-0.6,2-0.5,2.9,0.1c5.6,3.8,11.9,5.7,18.2,7.9c9.4,0.7,18.8,1.4,28.2,2.1c1.3,0.1,3.3,0.1,3.2,1.6
		C124.3,301.7,123.6,304,121.1,305z"/>
	<path class="st117" d="M93.1,295.9c-7.9-0.2-14.1-5.1-21-8c-2.8-4.5-8.5-6.1-11.1-10.8c0.7-0.1,1.4-0.3,2.2-0.4
		c9,8.5,18.7,15.7,31.2,18.1C93.9,295.2,93.5,295.5,93.1,295.9z"/>
	<path class="st118" d="M165,23.9c0.2,1.5-0.3,3.1-1.2,4.5c-1.4,2.4-3.8,1.7-5.8,1.4c-2.5-0.4-0.9-2.3-1-3.5c0-1.1-0.2-2.4,0.3-3.4
		c0.8-1.7-0.8-5.1,3.2-4.8C163.9,18.4,165.1,19.9,165,23.9z"/>
	<path class="st119" d="M221.3,40.3c-0.2,1.4-0.7,2.7-2.3,2.7c-1.8-0.1-3.9-0.8-4.4-2.4c-0.3-0.9,0.8-3.7,2.4-3.7
		C218.9,36.9,220.7,38.1,221.3,40.3z"/>
	<path class="st120" d="M134.5,18.2c3.2,6.1,3.2,6.1-2.1,6.3C132.6,22.4,133.2,20.4,134.5,18.2z"/>
	<path class="st115" d="M42,47.2c1.8,0.4,3,1.3,2.8,2.7c-0.3,2.1-2.1,3.7-3.9,3.9c-1.4,0.1-2.9-1.9-2.7-3.4
		C38.5,48.4,40.9,48.2,42,47.2z"/>
	<path class="st121" d="M57.5,238.8c1.2,1.5,0.8,3.1,0.4,4.7c-1.4,7.1-1.4,14.3,0.1,21.4c-3.7-2.9-2.7-7.3-2.7-10.9
		C55.3,248.9,56.1,243.8,57.5,238.8z"/>
	<path class="st122" d="M132.9,202.9c0,1.7,0,3.3,0.1,5c0.2,2.4-0.9,3.1-3.2,3.1c-17.8-0.1-35.6,0-53.5,0c-1.3,0-2.8,0.2-3.1-1.7
		c0.8-1.4-1.1-3.2,0.6-4.5c0.7,0,1.3,0.2,1.9,0.4c2.1,0.5,3.2-0.1,3.2-2.4c0-1.3-0.1-2.7,0.8-3.8c2-0.6,2,1.1,2.5,2.2
		c0.8,2,1.3,4.1,3.3,5.4c1.2-0.8-0.3-1.8,0.3-2.5c1.3-1.2,3-0.7,4.4-1.4c2.3,0.5,2.1,3.6,4.4,4.2c1.3-0.9-1-2.9,1-3.6
		c0.2,0,0.3-0.2,0.5-0.1c5.1,1.4,8.7-0.2,10.3-5.4c2.2,0.7,1.6,2.6,1.8,4.1c0.2,2.5,0.1,5.3,3,6.1c2.7,0.7,3.6-2.1,5-3.8
		c0.3-0.4,0.5-0.8,0.8-1.2c2.7,2.8,6.3,2.6,9.7,3.5C130.5,207.6,132.3,206.6,132.9,202.9z"/>
	<path class="st123" d="M161.1,289.9c-5.6-0.1-11.2,0.9-16.7,2c-2.2,0.4-3.7,1.3-4.2,3.5c-2.5,3.9-5.2,4.2-8.4,0.6
		c-2.3-2.6-5.8-2.9-8.9-4c-1-1.2-3,0.2-4-1.3c0.6-2.2,3.2-1.8,4.1-3.5c3.2-3.6,6,0.8,9,0.6c2.7,0,5.2,3.4,8.1,0.4
		c0.5-0.5,1-0.9,1.6-1.3c1.9-1.3,4.4-0.8,6.4-1.9c0.6-0.4,1.2-0.6,1.8-0.8c1.8-0.2,3.5,0.6,5.2,0.1c0.5,0,0.9,0,1.3,0.1
		c4.1,0.6,8.1,0.5,11.6-2.1c0.6-0.5,1.2-0.8,1.9-0.8c0.5,0.1,0.9,0.2,1.3,0.6c1.2,3.9-1.9,4.7-4.3,5.8
		C165.1,288.7,162.8,288.2,161.1,289.9z"/>
	<path class="st124" d="M124.3,287.3c-0.4,2.3-2.2,2.8-4.4,2.9c0.9,1.2,2.6,0.3,3,1.8c-7.9-0.4-15.8-0.8-23.8-1.2
		c3.2-1.7,6.8,0.1,10.2-1.6c-4.8-0.4-7.8-6.3-13.8-3.4c-2.6,1.2-6,0.4-6.4-3.8c0.2-0.1,0.4-0.1,0.7-0.2c1.5-0.8,4,4.8,4.8-0.8
		c0.2-0.7,0.6-1.2,1.3-1.3c2,1.5,4.5,0.7,6.7,1.5c0.7,0.9,0.5,2.2,1.6,2.7c-0.2-0.9-1.1-1.8-0.3-2.8c2.4-0.8,4.4,0.9,6.6,1.2
		c0.4,0.2,0.7,0.6,0.9,1c0,1.2-0.8,2.8,1.1,3.3c0.7,0.2,1.4-0.1,1.8-0.6c1.6-2.2-1.9-2.4-1.6-4.1c0-0.5,0.2-0.9,0.6-1.3
		c3.7-0.6,6.5,1.6,9.7,2.8c0.4,0.3,0.6,0.7,0.7,1.2c0,1.8-1.6,1.7-2.7,2.2C122,287.6,123.2,286.6,124.3,287.3z"/>
	<path class="st125" d="M75.1,206c-0.8-0.1-1-0.6-1.2-1.3c0.7-3.7,1.4-7.3,2.1-11c0.8,0.2,1.4,0.8,1.7,1.6
		C77.5,199.1,77.9,203,75.1,206z"/>
	<path class="st126" d="M76.9,194.9c-0.3-0.4-0.6-0.7-0.9-1.1c0-4.6,0.1-9.2,0.1-13.8c0.3,0,0.5,0,0.8,0c2.2,1.8,1.4,4.3,1.6,6.6
		c0.1,0.9,0.1,1.8,0,2.6C78.2,191.2,78.8,193.4,76.9,194.9z"/>
	<path class="st127" d="M61,256c2.2,2.5,2,5.5,2.1,8.4C61.5,261.9,60.8,259.1,61,256z"/>
	<path class="st128" d="M215.9,259.8l-0.3,0c0,0-0.3,0-0.3,0c-0.1-3.7-0.9-7.4,0.6-11C215.8,252.5,215.9,256.1,215.9,259.8z"/>
	<path class="st129" d="M191.2,210.8c-15.7,0-31.5,0-47.2,0.1c3.2-1.4,6.7-1.6,10.2-1.9c8.1-0.5,10.6-3,10.9-11.2
		c0.1-2.9,1.4-5.9-0.1-8.8c-0.6-0.7-1.3-1.3-1.3-2.3c0-0.5,0.2-0.9,0.5-1.3c2.7-3.1,2.5-6-0.9-8.5c-1.3-1-2.7-2-3.9-3.1
		c-0.7-0.7-1.1-1.6-1-2.6c0.3-1.1,1-1.6,2.1-1.7c0.7,0.1,1.3,0.4,1.9,0.9c0.8,0.7,1.6,1.5,2.3,2.2c2.3-1,0.3-3.1,1.1-4.4
		c0.4-0.5,1-0.7,1.7-0.7c0.8,0,1.6,0.1,2.4,0c0.4-0.1,0.8-0.1,1.2-0.2c0.4,0,0.8,0.1,1.2,0.2c0.6,0.3,1,0.7,1.1,1.4
		c-0.4,0.7-0.2,1.4,0.2,2c0,0.7-0.2,1.3-0.8,1.6c-0.7,0.4-2.1,0.7-1.8,1.4c1.3,2.8-0.8,5.3-0.3,8c1.9,0.7,3.6-1.2,5.3,0
		c0.5,1.1,0,1.8-1,2.3c-1.2,0.8-2.7,1.3-3,3.1c0,0.2,0,0.4-0.1,0.6c-1.9,0.1-2.5,1.3-2.6,3c-0.9,13.8-2.1,17.3,13.6,18.2
		C185.7,209.1,188.6,209.5,191.2,210.8z"/>
	<path class="st130" d="M160.8,170.1c-0.8-0.1-1.5,0.2-2,0.9c-0.4,0.2-0.8,0.2-1.2-0.1c-1.1-1.2-2-2.6-3.6-3.4
		c-2.7-1-5.7-1.3-7.1-4.4c-0.5-0.7-2.5-1.8-0.9-2c4.2-0.4,2.9-2.9,2.8-5.2c-0.3-1.4-0.9-3,0.3-4c1-0.8,2,0.3,2.9,0.9
		c0.3,0.3,0.6,0.7,0.9,1.2c1.3,2.4,1.3,5.1,1.3,7.2c1.4-6.4,2.7-7,8.4-3.3c0.9,1.6,1.4,3.3,0.9,5.1
		C161.9,165.2,163.2,168.4,160.8,170.1z"/>
	<path class="st131" d="M173.1,170.1c-0.9-0.4-0.7-0.8-0.1-1.3c0.8-1.7,2.1-2.7,4-2.8c1.2-0.1,2.3,0.3,3.5,0.3c5.2,0,5.2,0,4.3,5.4
		c1.1-0.7,1.2-2.3,2.5-2.7c0.6,0,1.1,0,1.7,0c0.8,1.1,2.3,0.4,3.2,1.3c0.7,0.9,0.5,1.8,0,2.6c-1.2,1.9-3.5,0.7-4.9,1.8
		c-0.7,0.1,0,0.8-0.2,0.1c-0.1-0.2,0.1-0.2,0.4-0.2c1.6-0.4,3-0.3,3.7,1.5c0,0.3,0,0.6,0,0.8c-0.6,1-1.5,1.1-2.5,1.1
		c1.2,0.2,2.6-0.2,3.4,1.1c-1.2,2-4,0.2-5.1,2.2c-1.3,1-2.7,0.4-4.1,0.4c1.4,1.1,4.1,0.6,4.3,3.3c-0.8,0.6-1.6,1.2-2.4,1.8
		c-2.8-2.4-6.4-2-9.7-2.8c0,0,0,0.1,0,0.1c0.4-0.7,0.7-1.4,1.1-2.1c0-0.7,0.3-1.3,0.7-1.9c0.5-0.8,1-1.7,1.5-2.6
		c2.9-5.6,2.3-6.8-3.9-6.8C173.9,170.6,173.5,170.4,173.1,170.1z"/>
	<path class="st132" d="M147,163.2c2.7,1.3,5.4,2.5,8,3.8c0,0.2,0,0.5-0.1,0.7c-1,2.9-2.6,5.9,0,8.8c0.7,1.7,3.9,2.7,1.3,5.2
		c-2.8,0.8-6.1,0.3-8.1,3.2c-1.3-0.1-3.7,0.5-2.2-2c1.2-2-0.3-2.6-0.9-3.8c1.1-1.7,2.9-1.2,4.5-1.3c0.1,0,0.3-0.2,0.3-0.3
		c0-0.1-0.1-0.3-0.2-0.4c-0.5-0.6-0.9-1.2-1.4-1.7c-0.9-1.1-2.6-1.3-3.2-2.7c1.1-1.3-0.1-2.5,0-3.8c1-0.6,1.8,0,2.7,0.6
		c-0.2-1.7-2.6-2.6-1.7-4.6C146.4,164.4,146.7,163.8,147,163.2z"/>
	<path class="st133" d="M163,162.8c-0.3-1.6-0.7-3.2-1-4.7c-1.1-1.6-2.7-2.3-4.7-2.1c-2.1,0.2-3.9-0.4-5.3-2l0,0.1
		c-0.4-2.5,1.3-2.7,3-2.6c1.6,0.1,3.2,0,4.9,0c1,0,1.6,0.7,2.1,1.5c0,0.2,0,0.3,0.1,0.5c0.1,0.3,0.3,0.5,0.4,0.7
		c0.9-1.8,1.3-3.9,3.3-5c1.8,3.4-1.2,5.7-1.7,8.6c2.1-0.1,1.8-2.4,3.4-2.8c1,0.8,0.7,2.9,2.5,3.2c0.3,0.9-0.1,1.7-0.5,2.5
		c-2.1,2-0.8,4.8-1.7,7.1c-0.5,0-1,0.1-1.4,0.1C164.4,166.8,163.9,164.7,163,162.8z"/>
	<path class="st134" d="M187.3,169c-0.3,2.6-1,4.8-3.9,5.6c1.9-5.9-0.1-8.4-6.2-7.6c1.3-2.6,3.1-4.7,4.8-7c3.3-2.3,6.1-0.2,9.1,0.9
		c1.1,1.8-1.2,1.8-1.5,1.9C186.1,163.9,185.6,166,187.3,169z"/>
	<path class="st135" d="M176.1,152.1c-3.9-2.2-7.2-4.7-5.5-10c2.7,0.2,2.6,2.8,3.9,4.1c1.3-2,2.4-4.7,5-4.9c1.1-0.1,0.6,2.2,0.4,3.5
		C179.7,147.8,178.6,150.3,176.1,152.1z"/>
	<path class="st136" d="M184.1,151c1.1-3.8,3.3-6.8,7.1-8.7c0.9,5.5-2.1,9.3-5.2,13c-0.6,1.8-1.5,1-2.4,0.3
		C182.8,154,182.7,152.4,184.1,151z"/>
	<path class="st137" d="M149.1,149c-0.1-0.8-2.3-2,0.5-2.1c1.9-0.1,3.4,1.2,5.1,1.8c0.3-2.6-0.1-5.6,2.4-7c1.3-0.8,1.5,2.2,3,2.7
		c1.6,2-0.1,3.4-1,4.9C155.6,152.8,152.4,152.7,149.1,149z"/>
	<path class="st138" d="M176.1,152.1c0.6-2.8,2.6-4.8,3.8-7.2c0.9,0.6,3-0.1,2.2,2.2c-1,3.5,1.2,7,0.1,10.4
		c-0.4,1.4-1.2,2.3-2.8,1.9C176.9,157.5,178.3,153.9,176.1,152.1L176.1,152.1z"/>
	<path class="st139" d="M184.1,156c0.6-0.2,1.2-0.4,1.9-0.6c3-1.3,6-2.5,9.5-1c-0.8,2.2-2.8,2.7-4.4,3.8c-2.1,0.6-4.2,1.2-6.4,0.5
		c-0.8-0.4-1.1-1.1-1-2C183.8,156.5,183.9,156.2,184.1,156z"/>
	<path class="st140" d="M149.1,149c3.2,1.6,6.5,4.6,9-0.9c2.6,0.3,2.4,2.1,2.1,3.9c-1.5,1-3.1,1.1-4.8,0.6c-1.6-0.5-2.8-0.3-3.4,1.5
		c-0.9-0.5-1.8-1-2.7-1.5c-0.2,1.2-0.3,2.4-0.5,3.5C147,153.6,148.7,151.3,149.1,149z"/>
	<path class="st141" d="M160.2,152c-1.4-0.9-0.5-3.1-2.1-3.9c0.8-1.2,2.5-2,2-3.9c3.1-0.2,2.8,2.2,2.8,4c0,1.6-0.5,3.2-0.8,4.8
		C161.4,152.7,160.8,152.3,160.2,152z"/>
	<path class="st142" d="M192.1,170.2c-1.4,0.1-2,2.5-3.7,1.3c-0.3-0.2,0.3-1.7,0.4-2.6c1-2.5,3-3.8,6-4.3
		C194.6,167,193.1,168.5,192.1,170.2z"/>
	<path class="st143" d="M175,184c3.8-1.1,7.5-1.5,9.7,2.8C181.1,187.3,177.8,186.6,175,184z"/>
	<path class="st144" d="M146.1,165c1.4,1.9,3.5,3.5,3.5,6.3c-2.2,0.6-3-1.6-4.5-2.3c-0.8-1.6-1.4-3.3-2.9-4.4
		C143.8,163.2,144.7,165.6,146.1,165z"/>
	<path class="st145" d="M181.2,156.9c0.1-3.3-2.2-6.8,0.8-9.9c0.4,1.5,0.6,3,2,4c0,1.7,0,3.3,0,5c0,0-0.2,0.2-0.2,0.2
		C183.1,156.8,182.4,157.7,181.2,156.9z"/>
	<path class="st146" d="M187.2,184.9c-2.2-1.1-4.3-2.1-6.6-3.3c2.1-2,4.3-0.8,6.4-0.4c0.7,1.2,3,1.2,2.5,3.1
		C189.3,184.7,187.9,184.8,187.2,184.9z"/>
	<path class="st147" d="M155.9,186.9c-1.2,0-2.4,0-3.6,0c-1-4.8,3-3.8,5.4-4.6c1.8,0.4,3.7,0.4,5.2,1.5c0.6,0.6,0.8,1.3,0.5,2.1
		C161.1,187.4,158.4,185.9,155.9,186.9z"/>
	<path class="st148" d="M169,159.8c0.3-0.5,0.7-1.1,1-1.6c0.7-0.2,1,0.2,1.2,0.7c2.8,3,2.3,6-0.2,8.9c-0.3,0-0.7,0.1-1,0.1
		C166.7,165.6,168.3,162.6,169,159.8z"/>
	<path class="st149" d="M171.1,167.8c0.6-3,0.9-5.9,0.2-8.9c0.5-1.3,1.1-2.6,1.6-3.9c2.2,2.4,1.7,5.6,2.3,8.5
		c-0.1,2.1-1,3.8-3.2,4.3l-0.4,0.1L171.1,167.8z"/>
	<path class="st150" d="M163.8,186.9c0.9,0.4,1.1,1.2,1.1,2.1c-3.1-0.1-5.9,2.6-9.2,0.9c0.1-1.4,1.7-1.2,2.2-2.1
		C159.6,185.7,161.6,185.9,163.8,186.9z"/>
	<path class="st151" d="M172,187.8c0.1-0.2,0.1-0.4,0.1-0.6c3.5-1.2,6.4,0.2,9.8,2.6C177.8,191,174.8,190.1,172,187.8z"/>
	<path class="st152" d="M184.1,157.9c2.3,0.1,4.6,0.2,7,0.3c-1.4,0.9-1.4,1.8,0,2.7c-3-0.3-6-1.8-9,0.3c-1.7-0.1-1.1-1.1-0.7-1.9
		C181.9,158,182.5,157,184.1,157.9z"/>
	<path class="st153" d="M174.2,163.9c-0.8-2.9-1.4-5.9-1.3-8.9c0.4-1.1,0.9-1,1.4-0.1c1.8,1.4,2.8,3.3,2.9,5.6
		C176.8,162.1,177.6,164.9,174.2,163.9z"/>
	<path class="st154" d="M176,152c4.5,0.7,2.6,4.4,3.2,6.9c0.2,1-0.3,1.4-1.2,1.3c-1.4-1.5-2.7-3-2.1-5.3
		C175.9,153.9,176,153,176,152z"/>
	<path class="st150" d="M192.1,179c-2.5,0.1-5,0.5-7.6-0.4c1.7-2.8,4.4-1.6,6.7-1.8C192.3,177.2,193.3,177.6,192.1,179z"/>
	<path class="st155" d="M148.1,184.9c0.3-3.7,2.1-4.6,7.8-3.8c0.2,0.3,0.3,0.5,0.3,0.8c-0.1,0.3-0.1,0.4-0.2,0.4
		c-2.1,1.4-4.4,2.5-7,2.6l-0.4-0.1L148.1,184.9z"/>
	<path class="st156" d="M150.2,176.8c0.7,0.4,1.8,0.8,1.9,1.4c0.3,1.3-1,0.9-1.6,0.9c-1.8,0.1-3.6,0.1-5.4,0.1
		c-1.8-1.5-0.6-2,0.8-2.3C147.3,175.7,148.7,176,150.2,176.8z"/>
	<path class="st157" d="M191.1,176c-1.4-0.5-2.7-0.9-4.2-1.4c1.4-1.8,3.4-1.6,5.2-1.8C196.4,175.3,191.1,174.8,191.1,176z"/>
	<path class="st132" d="M149,184.9c2.3-1,4.7-2.1,7-3.1c1.1-0.4,2.2-0.6,2.1,1.2c-2.3,0.7-5.2,0.5-5.7,3.8
		C151.2,186.2,150.1,185.6,149,184.9z"/>
	<path class="st158" d="M163.8,186.9c-2,0.1-4,0.1-5.9,0.9c-0.7-0.3-1.3-0.6-2-0.9c2.2-1.1,4.4-2.9,7-0.9c0.5-0.4,0.9-0.3,1.2,0.2
		C164,186.4,163.9,186.6,163.8,186.9z"/>
	<path class="st159" d="M145,172.8c1.6,0.2,3.6-0.2,4,2.2c-1.7,1.5-3.4,0.5-5.1,0.2C141.6,173.1,143.9,173.2,145,172.8z"/>
	<path class="st160" d="M143.9,175.2c1.7-0.1,3.4-0.1,5.1-0.2c0.4,0.6,0.7,1.2,1.1,1.8c-1.4,0-2.8,0-4.3,0.1
		C145.2,176.3,144.6,175.7,143.9,175.2z"/>
	<path class="st138" d="M175.9,154.9c0.8,1.7,1.5,3.3,2.3,5c0.5,0.8,0.5,1.8-0.4,2c-1.5,0.3-1-1.2-1.5-1.9c-0.7-1.7-1.3-3.4-2-5.1
		C174.8,154.9,175.4,154.9,175.9,154.9z"/>
	<path class="st161" d="M123.1,140c2.8-0.5,4.5,1.7,6.4,3c2.3,1.7,0.9,3.6-1.2,4.3c-2.8,0.9-3.4,2.7-3.1,5.3
		c0.3,6.2,2.6,12.3,1,18.5c0.5,3.6-2.2,5.6-4.1,7.9c-1.9,0.6-3.5,1.3-4.3,3.3c-1.6,1.5-3.8,2-5.3,3.7c-1.2,0.5-2.5,0.5-3.8,0.4
		c-1.3-0.5-1.7-2-2.8-2.6c-2.8-1-5.9-0.4-8.5-2.2c-1.3-0.9,1.1-3-1.1-3.6c-0.2,0-0.1-0.7-0.4-0.2c-0.1,0.1,0.2,0.6,0.2,0.9
		c0.1,1.7-0.2,3.3-1,4.8c-0.8,1.5-1.5,3.4-3.3,3.4c-1.9,0-1.5-2.3-2.3-3.4c-2.5-3.3-4.7-6.8-6.2-10.7c-0.7-2.1-0.7-4.2-0.2-6.3
		c1.4-3.6,4.8-4.3,7.9-5.5c7.8-3.7,15.1-2.1,22.2,1.9c1.3,0.7,2.4,2.3,3.9,1.6c1.9-0.9,1.1-2.9,1.1-4.5c0.1-4.5-1.1-8.8-2.3-13.2
		c-0.5-2.3-0.3-4.5,0.7-6.7C118.7,138.3,120.8,138.4,123.1,140z"/>
	<path class="st162" d="M77.2,186.8c-0.1-2.3-0.2-4.5-0.4-6.8c-0.5-3.3-1.1-6.7-1.6-10c2.5,0,4.1-0.6,3.6-3.7
		c-0.4-2.3,0.5-4.1,3.3-4.2c-0.1,3.7-0.8,7.4-1.2,11.1c-2,2-2.9,4.2-0.9,7c2.3-1.4,0.5-3.4,0.8-5.1c0.3-0.7,0.8-1.2,1.6-1.4
		c1.2,0,1.9,0.7,2.4,1.7C85.7,182,83.2,185.8,77.2,186.8z"/>
	<path class="st163" d="M80.1,174c0.1-4-0.9-8.3,2-11.8c3.3,2.2,5.6-3.2,8.9-1c-1.8,2.3-5.1,2.4-6.7,4.8c-2.6,2.2,0.9,6-2.2,8
		c-0.3,0.4-0.7,0.8-1,1.2C80.2,175.2,79.8,174.9,80.1,174z"/>
	<path class="st164" d="M123.1,140c-1.9,0.8-4.1-0.8-6,0.5c-2.1,2.7-5.2,2.1-8,2.4c0-1.3,0-2.5,0-3.8c4.7-0.9,9.4-1.9,14-2.8
		C123.1,137.5,123.1,138.7,123.1,140z"/>
	<path class="st165" d="M109,142.8c2-3,5.5-1,8-2.4c0.3,2.3,0,4.5-1.1,6.6c-1.6-0.1-3.3,0.1-4.8-0.9c0.2-0.6,1-0.7,1.1-1.3
		c-0.9-0.1-1.3,0.6-1.9,1C109.6,144.9,107.4,144.7,109,142.8z"/>
	<path class="st161" d="M110.3,145.8c0.1-1,0.3-2.1,1.4-2.3c1.1-0.3,2.2-0.3,3.3-0.2c0.2,0,0.7,0.8,0.6,1.1
		c-0.5,1.5-1.8,1.7-3.1,1.7c-0.5,0-1,0.1-1.5,0.1C110.8,146.2,110.5,146.1,110.3,145.8z"/>
	<path class="st166" d="M161.1,289.9c-0.5-3.5,2.6-2.4,4.1-2.8c2.9-0.8,5.8-1.3,5.8-5.1c-1.8-2.4-1.7-7.8-7.2-4.7
		c-0.4,0.2-0.8,0.4-1.3,0.5c-1,0.2-2.3,0.4-2.9-0.1c-4.2-3.8-10.1-3.2-14.7-6.1c-1.9-1.4-4.2-0.8-6.2-1.4c-1.9-0.5-3.5-1.5-3.5-3.7
		c0-2.3,1.7-2.7,3.7-3.1c3.7-0.8,7.1-0.3,10.6,1.3c14.8,6.7,28.8,3.8,42-4.5c5.3-3.4,8.4-13.7,6.7-19.7c-0.3-1-1.2-1.5-1.8-2.4
		c-0.5-0.9-0.7-1.8-0.8-2.8c-1.1-5.5-3.8-9.3-9.5-10.8c-5.4-1.4-9.8-0.3-13.5,3.9c-2.2,2.5-2.8,5.2-0.6,8.1c0.8,1.1,1.9,1.9,3.4,1.7
		c1.2-0.2,1.5-1.1,1.5-2.2c-0.1-2.8,0-5.6,3.9-5.6c3,0,6.8,3.8,6.7,7c-0.1,2.4,0.4,4.6,0.4,6.9c-0.4,2.4-2.2,3.5-4.1,4.5
		c-6.5,1.8-12-0.7-17.4-3.7c-5.2-3.4-8.7-8.6-13.5-12.4c-1.4-1.5-2.5-3.2-4.5-3.9c-5.2-3.7-11.2-5.2-17.3-6.6
		c-3.9-0.9-7.4,1.4-11.2,0.7c-0.7,0.1-1.4,0.1-2.1,0c-3.8-0.7-7.1,0.9-10.5,2.1c-5.3,2.7-10.2,6-13.9,10.8c-1.1,1.6-2.5,2.9-3.8,4.2
		c-1.7,1.4-3.7,2.3-4.9,4.2c-1.2,1.5-2.8,2.4-4.5,3.2c-2.2,0.9-2.9,2.7-2.7,4.8c0.7,8.7,2,17.2,5.5,25.3c0,0.2,0.1,0.5,0.1,0.7
		c-0.2,2.9,2.8,3,4,4.7c0.6,0.8,1.3,1.7,0.5,2.6c-0.8,0.9-1.4-0.1-2.1-0.4c-8.4-4.1-14.9-10.1-19.3-18.4c-3.5-6.6-3.3-13.7-2.8-20.9
		c0.5-8,4-15.1,6.1-22.7c1.3-4.9,5.5-6,10.2-6c22.8,0.1,45.6,0,68.4,0c15.3,0,30.6,0.2,45.9-0.1c4.1-0.1,6.6,1.2,8.1,5
		c3.4,8.5,5.5,17.1,6.1,26.3c1.3,17.7-6.8,28.6-22.3,36.3C177.7,288.6,169.8,290,161.1,289.9z"/>
	<path class="st167" d="M89.1,281.8c-2-1.3-4-2.6-6-3.9c0,0,0,0,0,0c-0.6-0.6-0.7-1.2-0.3-1.9c2.2,0.9,5.1-3.1,6.8,1.1
		c0.3,0.6,0.6,1.2,0.8,1.8c0.1,0.4,0.1,0.9,0,1.3c-0.2,0.6-0.5,1.2-1.1,1.6L89.1,281.8z"/>
	<path class="st168" d="M108.7,186.1c1-0.5,2-1,3.1-0.2c1.4-1.8,4.1-1.8,5.2-3.9c0.7-2.6,2-4.1,4.9-3c-2.1,5.1-4,10.2-6.4,15.2
		c-1.6,3.5-1.4,6.2,1.5,8.7c1.9,4.2-2.5,6-4.1,6.7c-3.1,1.3-5.4-1.5-5.8-4.9c-0.3-2.3-0.2-4.6-0.3-6.9c-1.5-2-1.1-4-0.2-6.1
		C108,190.1,107.5,187.8,108.7,186.1z"/>
	<path class="st169" d="M126.1,171.2c0-5.4-0.1-10.7-1.6-16c-0.3-1-0.4-1.9,0.6-2.6C127.2,158.7,128.1,164.9,126.1,171.2z"/>
	<path class="st65" d="M228.1,181.3c-1.9,1.8-4.2,3.1-6.7,3.9c-5.1,0.3-8.4,4.2-12.5,6.5c-1.7,0.9-3.2,3-5.3,1.8
		c-1.7-0.9-1.8-3.1-1.6-5c0.9-10.9,1.7-21.8,10.1-30.1c1.1-1.1,2.4-3.2,4-1.9c1.4,1.1,0.8,2.6-0.6,4.4c-1.6,2.3-2.2,6.1-1.8,9
		c0.6,4.2,3.9,1.4,5.4,0.7c5.4-2.6,11-3.5,16.8-3.6c1.7,0,4.3-0.9,5,1c0.9,2.2-1.9,3.1-3.1,4.5C235.2,176,230.3,177.1,228.1,181.3z"
		/>
	<path class="st170" d="M77.2,186.8c4.4-2.5,7.6-5.8,6.8-11.4c-0.5-0.9-0.7-1.7,0.2-2.4c1.5,4.8,7.6,7.1,6.9,13.7
		c3.3-2.6,3.9-5.6,4.1-8.9c2.9,0.6,0.7,3.6,2.3,4.8c0.3,2.5-0.9,4.6-2.6,6.2c-3.6,3.3-3.6,6.8-1.1,10.7c0.8,1.2,1.7,2.5,1.4,4.1
		c-0.9,1.8,3.9,2.4,1.1,4.6c-1.4,1.1-2.7,0.8-3.6-0.8c-0.9-1.5-1.9-2.9-2.8-4.4c-4-1.3-3.4-6.1-6.2-8.2c-1,2.8,0.6,4.9,1.9,7
		c0.4,0.5,0.7,1.1,0.7,1.8c0.2,0.4,0.4,0.9,0.5,1.3c0.4,1,3.1,1.1,1.3,2.9c-1.5,1.4-3.2,1.1-4.1-0.7c-1.5-2.6-2.7-5.5-4-8.2
		c-3.4-2.6-0.9-6.8-2.7-9.8C77.2,188.4,77.2,187.6,77.2,186.8z"/>
	<path class="st171" d="M95.3,203.6c-1.1-1.6-2.3-3.2-3.3-5c-2-3.6-1.9-6.9,1.4-9.8c1.8-1.6,3.1-3.5,3.4-5.9
		c-0.2-0.9-0.5-1.8,0.6-2.3c3.2,0.8,6.5,1.7,9.7,2.5c-0.4,3,2.9,5.7,0.8,8.8c-1.4,1.7-0.8,3.8-1,5.8c-1.8,2,0.4,5.7-1.9,6.7
		C101.9,205.8,98.4,204.9,95.3,203.6z"/>
	<path class="st162" d="M77.2,189.2c2.2,2.9,1.3,6.7,2.7,9.8c0.1,1.2,0.1,2.3,0.3,3.5c0.6,4.2-0.6,5.1-5.1,3.6
		c0.6-3.7,1.2-7.4,1.8-11.1C77,193,77.1,191.1,77.2,189.2z"/>
	<path class="st172" d="M83.3,192.2c3.4,2.9,4.1,7.4,6.6,10.9c-0.6,3.9-2.5,0-3.7,0.6c-0.3-0.2-0.6-0.5-0.9-0.7
		C83.7,199.5,81.4,196.2,83.3,192.2z"/>
	<path class="st173" d="M141.6,287.9c-0.3,0.1-0.5,0.3-0.6,0.6c-2.5,3.3-5.1,1.7-6.9-0.4c-2.2-2.6-0.5-4.8,2.9-6.8
		c-2.2,1.1-3.3,2.3-4.9,2.4c-1,0-1.8-0.3-2.2-1.4c1.5-1.9,0.8-3.9,0.2-5.9c1.4-2.5-1.7-4.7-0.5-7.2c1.2-1.3,2.1-0.2,3.1,0.3
		c4.8,0.2,6.8,3.5,8.2,7.5c0.5,0.5,1,0.9,1.5,1.4c4.2,3.4,4.2,3.4-0.2,7.1C141.7,285.9,143.2,287.4,141.6,287.9z"/>
	<path class="st174" d="M146.1,271c6.1,0.8,11.2,4.7,17.1,6c0.9,0.5,1.5,1.2,0.8,2.2c-0.6,0.9-2.5-0.6-2.6,1.2
		c-0.1,0.6,0,1.5,0.5,1.8c1.6,0.9,2-1.2,3.1-1.5c1.8-0.1,2.9,1,4.1,2.1c-3.8,3.8-8.4,3.4-13,2.4c1-2,2.3-4,0.4-6.2
		c-0.4-0.6,0.1,0.2-0.2-0.4c-0.7-1.5-1.4-3-3.3-3.1c-0.7,0-1.4,0.3-1.4,1c-0.2,2.1,1.6,2.6,2.9,3.5c0.3,0.2,0.5,0.4,0.8,0.6
		c0.4,1.5-1,3.1,0.2,4.6c-1.8,1.7-3.5-0.2-5.2-0.2c-0.8-2.1-1.8-4.1-3.8-5.4c-0.3-0.3-0.5-0.7-0.6-1.2c1-4.2-2.4-4.8-5-6
		c-0.1-0.5,0-1,0.3-1.5C142.6,269.5,144.3,270.2,146.1,271z"/>
	<path class="st175" d="M124.3,287.3c-0.9,0.4-1.8,0.9-2.7,1.2c-1.3,0.4-2.3-0.2-3-1.2c-0.3-0.5-0.6-1.4-0.3-1.8c0.9-1.3,2,0,3,0.1
		c0.7,0.1,1.3,0,1.7-0.7c2.7-3.7,6.1-2.2,9.4-1.4c1.5,2,2,3.8-0.8,5.2c-1.9,0.2-3.6-0.2-4.8-1.7
		C125.8,285.6,125.1,286.2,124.3,287.3z"/>
	<path class="st176" d="M164,278.9c-0.3-0.7-0.6-1.3-0.9-2c0,0-0.1,0.1-0.1,0.1c1.8-1.6,3.7-2,5.8-0.5c2,1.5,2.4,3.3,1,5.4
		c-0.3,0.3-0.5,0.6-0.8,0.9c-2.6,1.5-2.8-1.4-4.1-2.3C164.2,280.2,163.7,279.8,164,278.9z"/>
	<path class="st177" d="M141.6,287.9c1-0.9-2.3-3,1.3-3.5c2-0.3,3.6-2.7-0.3-3.8c-1.2-0.3-1.8-1.3-1.9-2.6c2-0.8,3.8-0.6,5.4,0.9
		l-0.1-0.1c1.9,1.9,0.4,5.2,2.9,6.9C146.9,288.1,143.8,286.4,141.6,287.9z"/>
	<path class="st178" d="M131.7,288.7c1.5-1.6,2.2-3.2,0.3-5c-0.3-0.2-0.3-0.4-0.2-0.5c0.1-0.2,0.2-0.2,0.3-0.2
		c1.7-1.2,4.1-1.3,4.7-4.1c0.6,1.6,1.5,3.6,0,4.1c-2.9,0.9-3.7,2.4-2.3,4.6c1.5,2.4,4,2.5,6.5,1c-0.7,2.7-2.6,2.7-4.7,2
		C134.7,290,133.2,289.4,131.7,288.7z"/>
	<path class="st179" d="M156.8,279.6c3.4,2,3.3,3.1-0.8,5.6c0,0-0.4-0.1-0.4-0.1s-0.4,0.1-0.4,0.1c-5-1.5-2.1-3,0.1-4.4
		C155.5,280.1,156,279.7,156.8,279.6z"/>
	<path class="st180" d="M148.9,285.8c-6.5,0-1.4-4.8-2.9-6.9c3.3,0.8,5.8,2,4,6.1C149.7,285.3,149.3,285.5,148.9,285.8z"/>
	<path class="st174" d="M169.8,281.9c0-5.3-1.2-6.1-6.8-4.9c1.2-2.5,3.3-2.7,5.4-1.9c3.1,1.3,2.8,4.1,2.6,6.8
		C170.7,281.9,170.2,281.9,169.8,281.9z"/>
	<path class="st181" d="M132.1,283c-0.1,0.3-0.1,0.5-0.1,0.8c-3.2-1-6,0.6-8.9,1.2c0.1-0.2,0.1-0.5,0.1-0.7c0.9-2.6-0.2-4-2.8-4.4
		c-1.6-0.3-3.3-0.4-4.8-0.9c-1.7-0.6-3.6-1.2-2.6-3.7c0.7-0.8,1.5-0.5,2.3-0.4c1.2,0.2,2.5,0.4,2.7-1.2c0.2-1.3-0.6-2.3-1.8-2.6
		c-1.5-0.4-2.1,0.6-2.4,1.9c-0.2,0.6-0.2,1.3-0.4,1.9c-2.2,2,0.3,4.3-0.3,6.4c0,0.4,0,0.9,0,1.3c-0.6,0.5-1.2,1-2,0.4l0.1,0.1
		c-2.1-2.9-4.8-3.9-8.2-2.8c-2.3-3.5-4.7-2.7-7.2-0.2c-0.2,0.4-0.4,0.7-0.7,1.1c-2,1.2-3.9,1.8-5-1.2l0,0.1c2.8-1.7,6.2-3.1,3.3-7.4
		c-0.3-1.2-0.4-2.3,0.2-3.4c1.3-1.2,3.2-1.5,3.4,0.3c0.4,3.5,3.1,2.7,5,3.4c1.8,0.9,3.3,2.7,5.6,2.4c-2-0.4-3.9-1.2-5.6-2.4
		c-0.9-2.8,0.9-2.6,2.7-2.3c1.3,0.2,2.7,0.6,3.4-1c0.5-1,0-2-0.7-2.7c-1.1-1.2-2.6-2-4-1.1c-3.1,2.1-4.8,1-5.9-2.2
		c-0.2-0.5-0.5-1.2-0.9-1.2c-4.3,0-7.1-4.5-11.6-4c-2.1-0.4-4.4-0.6-4.6-3.5c-0.2-3.3,2-4.6,4.6-5.7c1-0.3,2-0.3,3-0.1
		c5.8,1.1,10.1,4.8,14.6,8.1c6.2,5.2,13.8,6.6,21.5,7.6c0.5,0.1,1,0.2,1.4,0.4c1.8,1,4.6,0.7,4.8,3.7c-0.6,3.1,2.1,5.8,1,9
		c-0.8-0.1-1.7,0.7-2.5-0.1c-1-1.1-1.2-2.8-2.4-3.7c-1-0.8-2.2-1.1-3.1,0c-0.9,1.2,0,2.1,1,2.8c1.1,0.7,2.5,0.8,3.7,1.4
		c1.2,0.9,2,2,2.1,3.6C130.7,282.3,131.4,282.6,132.1,283z"/>
	<path class="st182" d="M113,281.2c-1.7-2.1-3.7-4.3,0.1-6.3l-0.1-0.1c-0.2,2.6,1.7,2.8,3.5,3.2c2,0.4,4.3-0.3,5.9,1.2
		c1.1,1,3.5-0.2,3.5,1.9c0,1.6-1.5,2.4-2.9,3.1C119.5,284.2,116.7,281.1,113,281.2z"/>
	<path class="st183" d="M95.8,280c0.1-0.1,0.2-0.3,0.3-0.4c1.9-0.8-0.4-5,3.2-4.4c2.8,0.5,3.6,3,3.8,5.5c-0.1,0.2-0.2,0.3-0.3,0.5
		c-0.1-0.1-0.3-0.2-0.4-0.3C99.9,282.3,97.5,283.5,95.8,280z"/>
	<path class="st184" d="M111.1,282.9c0.7-0.1,1.3-0.2,2-0.4c0.9,1.3,3.8-0.7,3.8,2.1c0,1.8-1.4,2.9-3.1,3.6
		c-1.7,0.7-2.8-0.1-3.9-1.3C108.1,284.9,110.4,284.1,111.1,282.9z"/>
	<path class="st185" d="M103.1,280.7C103.1,280.7,103,280.7,103.1,280.7c4-4.3,5.5-3.9,8.1,2.2c-3,0.7-5.5-0.7-7.9-2.2L103.1,280.7z
		"/>
	<path class="st186" d="M90.1,279.9c1.3,1.9,3.3,0.9,5,1.2c-0.2,1.3,2.5,1.7,1,3.2c-1.2,1.2-2.8,1.1-4.1,0.2
		c-1.1-0.7-1.8-1.8-2.7-2.7C89.6,281.2,89.8,280.5,90.1,279.9z"/>
	<path class="st187" d="M103.1,280.7c0,0,0.2,0.1,0.2,0.1c1.1,1.7,1.7,4.2,5,3.3c-4.1,2.8-5.4,1.9-5.9-3.2
		C102.6,280.9,102.8,280.8,103.1,280.7z"/>
	<path class="st188" d="M177.9,179.1c-0.6,1-1.2,1.9-1.8,2.9c-0.2,0-0.3,0-0.5,0c-2.2,0.1-4.2,3.3-6.1,1.4c-1.8-1.8,0.1-4.3,1.1-6.4
		c0.3-0.7,1-1.4-0.4-1.7c-2.1-0.5-0.9-2-0.5-2.9c0.7-1.7,2-1.2,3.3-0.6c2.3-0.4,5.1-2.7,6.9-0.6c1.4,1.7-0.5,4.3-1.4,6.5
		C178.2,178.1,178,178.6,177.9,179.1z"/>
	<path class="st189" d="M176.3,160c0.5,0.5,1,1.1,1.4,1.6c0.2-0.6,0.3-1.1,0.5-1.7c0.3-0.4,0.7-0.7,1-1.1c1.6,0.3,1.9-0.8,2-2
		c0.9-0.2,1.8-0.4,2.6-0.7c0.1,0.6,0.2,1.1,0.3,1.7c-1.9,0.3-3,1.1-2.1,3.2c-1.6,2-2.7,4.4-4.9,5.9c-1.8-0.4-2.7,1.3-4.1,1.8
		c-0.3-0.3-0.7-0.6-1-1c0.8-1.3,2.5-2.1,2.3-3.9C176.9,163.6,175.6,161.3,176.3,160z"/>
	<path class="st190" d="M164.2,186.1c-0.4-0.1-0.8-0.1-1.2-0.2c0-0.6,0-1.2,0-1.8c0-0.2,0.1-0.4,0.1-0.7c0.3-0.9,0.7-1.8,0.5-2.9
		c-0.9,0.5-0.6,1.7-1.3,2.2c-2.7,0.5-3-1.6-3.4-3.4c0-2.3-0.6-4.6,0.7-6.8c3.6,2.6,8.4,4.3,7.6,10.3
		C166.8,184.9,166.2,186,164.2,186.1z"/>
	<path class="st191" d="M177.9,179.1c-1.2-2.8,1.6-4.8,1.1-7.8c-1.8,0.1-3.9,1.6-6.1,0.5c0.1-0.6,0.1-1.1,0.2-1.7
		c0.2,0,0.3-0.1,0.5-0.1c2.6-1.1,7-2.4,7.6-0.5C182.1,172.4,182.1,176.9,177.9,179.1z"/>
	<path class="st192" d="M163,162.8c3.2,0.3,2.5,3.3,3.4,5.1c1.3,2.4-0.1,4.9,0.5,7.5c-1.6-0.5-2.5-1.3-3-2.5c-0.1-0.5-0.1-1-0.2-1.4
		c-0.2-0.6,0.5-1.6-0.5-1.8c-0.2-0.1-0.6,1-1.2,1.4c-0.4-0.3-0.7-0.7-1.1-1C162.9,168.1,159.1,164.3,163,162.8z"/>
	<path class="st193" d="M159.5,172.7c1,2.4,0.6,4.8,0.5,7.3c-2.5,0.3-2.9-1.7-3.7-3.3c-0.4-2.2-0.3-4.3,1.9-5.6c0.2,0,0.4,0,0.7,0.1
		C159.1,171.6,159.3,172.1,159.5,172.7z"/>
	<path class="st149" d="M169,159.8c0.1,2.7-0.7,5.6,1,8.1c-0.8,1.7-1.5,1.1-2.2,0C166.7,164.9,166.2,162.1,169,159.8z"/>
	<path class="st194" d="M162,171.1c0.4-1.7-1.4-3.9,1.4-5.1c1.9,2.2,2.2,4.5,0.6,6.9C163.2,172.3,162.6,171.7,162,171.1z"/>
	<path class="st140" d="M152,154c2.2,0.3,4.3,1.5,6.6,1.1c2.3-0.4,3.3,0.8,3.3,3c-0.9-0.3-1.8-0.7-2.8-0.8c-1.7-0.2-4.2-1.5-2.9,2.5
		c0.4,1.3-1,3.1-1.9,5.4C152.6,161,153.7,157.2,152,154z"/>
	<path class="st132" d="M158.2,171c-0.7,1.9-1.4,3.8-0.9,5.9c-0.6,1.6-0.9,1.6-2.6-0.1c-1-3.3-0.4-6.6,0.4-9.9c0,0-0.1,0.1-0.1,0.1
		C156.9,167.7,157.6,169.3,158.2,171z"/>
	<path class="st195" d="M155.1,167c1.9,3.3,0.1,6.6-0.1,9.9c-0.3,0.6-0.6,0.7-1.1,0.2C150.9,173.3,151.9,170,155.1,167z"/>
	<path class="st196" d="M153.9,177c0.4-0.1,0.7-0.1,1.1-0.2c0.8,0.3,1.5,1.9,2.3,0.1c1.2,0.8,1.1,2.6,2.7,3c0.3,1.1,0.1,2.9,2.2,2
		c1.4,0.1,1.5,0.9,0.9,2c0,0-0.2,0.2-0.2,0.2c-1.6-0.3-3.5,0.3-4.9-1.1c-0.2-1.3-1.2-1.2-2.1-1.2c0-0.2,0-0.5,0-0.7
		C156.8,179,154.1,178.7,153.9,177z"/>
	<path class="st197" d="M97.4,180.7c-0.2,0.8-0.4,1.6-0.6,2.3c-1.9-1.3,0.1-3.9-1.6-5.2c-0.5-0.9-1.3-1.8,0-4.3
		C94.9,177.1,100,177.1,97.4,180.7z"/>
	<path class="st198" d="M107.9,192c1.2-3.1-3.4-5.6-0.8-8.8c1.4,0.5,0.6,2.2,1.6,2.9C109,188.2,110.1,190.3,107.9,192z"/>
	<path class="st199" d="M84.3,173c-0.1,0.8-0.2,1.6-0.2,2.4c-0.7-0.5-1.3-1-2-1.4c2.1-2.3-1.6-6.2,2.2-8
		C84.3,168.3,84.3,170.6,84.3,173z"/>
	<path class="st200" d="M117.1,182.1c-0.2,3.4-3.1,3.1-5.2,3.9C112.3,182.9,115.2,183.2,117.1,182.1z"/>
	<path class="st86" d="M80.1,174c0.3,0.4,0.7,0.8,1,1.1c0.6,0.8,1.3,1.6,1.6,2.5c0.8,2.5-1.1,4.1-2.7,4.6c-2.1,0.6-2-1.7-1.9-3
		C78.3,177.3,74.5,173.7,80.1,174z"/>
	<path class="st201" d="M87.9,250.2c-0.8,0-1.7,0-2.5,0c-2.4,0-6,3.8-6.3-2.2c0.2-0.9,0.5-1.8,1.6-1.9c1.2-0.8,2.3-1.7,3.5-2.5
		c2.4-2.4,5.2-3.1,8.5-2.7c0.5,0.1,1,0.2,1.4,0.4c2.6,1.1,4.9,2.7,7.3,4.1c1,0.6,1.9,1.3,2.5,2.3c1.3,2.8,3.8,4.6,5.6,7
		c3.4,3.2,7.8,3.5,12,4c3.3,0.4,6.1,1.5,8.2,4.1c0.7,0.9,1.9,1.7,1.3,3c-0.6,1.4-2,0.8-3.1,0.8c-1,0-2,0.1-2.9-0.4l0.1,0
		c-7.2-2-14.9-2.5-21.3-7.1c-0.5-0.4-1-0.9-1.5-1.3c-3.8-2.2-6.7-5.8-11.1-7.1C90.1,250.2,89,249.9,87.9,250.2z"/>
	<path class="st202" d="M146.1,271c-1.7,0.3-3.6-0.8-5,1c-3,1-5.1-2.4-8-1.7c-0.5-0.6-0.7-1.3-0.7-2.1c0-0.8,0.4-1.6,0.3-2.4
		c-0.5-4.1,1.4-5.4,5.2-4.4c1.3,0.3,2.6,0.4,3.9-0.2c2.4-0.8,4.7-1.3,6.7,1c3.5,0.3,5.8,4.2,9.7,3.2c1.4-0.6,2.9-1.3,4.1-0.3
		c2.8,2.2,5.1,0.9,7.6-0.4c0.4-0.1,0.9-0.1,1.3-0.1c1.6,0.8,3.3,0.6,5,0.3c0.6-0.1,1.3-0.2,1.9-0.2c3.5-1.1,6.2-4.3,10.2-4
		c1.9,0.5,1.7-1.7,2.7-2.3c0.7-1,1.2-2.1,2.4-2.7c1.3-0.7,0.6-2.2,1.2-3.2c1.7-2.8,0.2-6.4,2-9.1c0.4-1.8-0.6-3.7,0.5-5.5
		c1.7,0.2,2.6,1.1,2.9,2.9c1.6,10.5-4.6,21.4-14.8,24.9c-8.7,3-17.6,5.1-27,3.3c-3-0.6-6-1.1-8.4-2.8c-3.8-2.7-7.9-1.6-11.9-1.6
		c-1.3,0-1.8,0.9-1.7,2c0.1,1.6,1.3,2.1,2.6,2.5C141.2,269.8,144.3,268,146.1,271z"/>
	<path class="st203" d="M187.1,244c-0.3-2.1-1-4-0.6-6.3c0.8-4-2.7-5.7-5.5-6.4c-3-0.7-3.2,2.1-2.5,4.4c0.5,1.6,0.7,3-1,3.8
		c-1.6,0.8-3.1,0.7-4.7-0.4c-4.2-2.9-4.5-8.1-0.9-11.9c4.7-5,9.9-5.7,16.2-3.6c5.6,1.9,7.9,6,8.9,11.3c-0.4,0.2-0.8,0.1-1.3,0
		c-1-0.5-1.7-1.3-2.4-2.1c-0.9-1.7-3-0.8-4.1-1.9c-0.3-0.3-0.3-0.8-0.6-1c0,0-0.1,0.1-0.1,0.2c0.2,0.4,0.5,0.7,0.8,1
		c0.8,1.6,0.3,3.2,0.2,4.8C188.7,238.7,191,242.3,187.1,244z"/>
	<path class="st204" d="M118.1,221.5c0.6,0,1.2,0.1,1.7,0.1c3.2,0,5.7,1.3,7.4,4.1c3,5.6,1.9,11.1-0.3,16.6
		c-0.9,1.1-1.8,2.5-3.5,1.8c-1.4-0.6-1.4-2-1.6-3.3c-0.3-1.5,0.6-3.2-0.7-4.7c-2-3.9-3.4-7.9-6.4-11.4
		C112.2,221.8,115.9,221.6,118.1,221.5z"/>
	<path class="st205" d="M126.1,226c-1.7-2-3.5-3.8-6.2-4.3c10.6-2,20.4-0.7,29,6.3c-0.1,0.5-0.2,0.9-0.4,1.3
		c-1.5,3.9-1.6,8.3-3.7,12c-1.3,2.5-2.6,5-4.4,7.1c-0.8,1-1.9,2.3-3.3,1.2c-1-0.8-0.5-2.2,0.1-3.2c1.5-2.9,3.3-5.7,4.6-8.8
		c1-2.3,2-4.6,1.9-7.1c-0.1-2.2-0.9-4.4-3.1-4.4c-2.9-0.1-1,2.5-1.3,3.8c-0.2,0.9-0.2,2-0.7,2.8c-0.3,0.4-0.8,0.5-1.2,0.5
		c-2.1-1.6-1.9-4.4-3.2-6.4c-2.1-3.2-4.1-3.5-6.7-0.8C126.9,226.3,126.5,226.3,126.1,226z"/>
	<path class="st206" d="M166.2,243.9c5.7,2.3,11.2,5.2,17.6,3.9c0.4-0.3,0.9-0.3,1.3,0c-0.8,2.5,1.3,5.8-2.2,7.4
		c-2.5-1.3-5-2.5-7.7-3.4c-0.9,4.6,2,10.4-4.1,13.4c-0.3-0.1-0.7-0.1-1-0.2c-0.7-2,0.3-3.8,0.8-5.7c1.2-4.3,0.5-8.1-3.2-11
		c-0.4-0.2-0.9-0.4-1.3-0.7c-1.2-1-2.1-2.1-1.7-3.9C165.3,243.5,165.7,243.5,166.2,243.9z"/>
	<path class="st87" d="M80.6,246c-0.2,0.6-0.4,1.2-0.6,1.8c-0.5,5.3,1.2,10.4,0.9,15.6c0.2,3.4,1,6.5,3.4,9.1c0.4,1.4,0,2.4-1.2,3.2
		c0,0.7,0,1.4-0.1,2.1c-2.9-0.8-2.3-3.5-3.1-5.5c-2.7-6.4-3-13.3-3.8-20.1C75.9,249.4,76.4,246.2,80.6,246z"/>
	<path class="st207" d="M118.1,221.5c-1.1,0.6-2.7,0.3-3.7,2.2c4.8,2.6,6.7,7.2,7.5,12.5c0.6,6.1,2,12.1,2.2,18.2
		c-0.1,0.6-0.4,1.1-0.8,1.5c-2.9,0.1-2.6-2.4-3.1-4c-0.9-2.6-0.2-5.5-0.9-8.2c-0.5-2.1-0.8-4.3-0.8-6.4c0-7.3-3.7-11.3-10.7-12.7
		c-0.2-0.2-0.4-0.3-0.5-0.5C110.5,221.9,114.1,220.6,118.1,221.5z"/>
	<path class="st208" d="M89.6,238.9c0.6-1.8,2-2.8,3.4-3.8c1.4-0.9,3-0.8,3.7-3.3c1.2-4.4,6.1-4.3,9.5-6.1c3.3,2.3,8,3.4,7.3,9
		c-2.8,1.3-3.2-2.2-5.1-2.5c-0.9-0.4-1.8-0.7-2.7-0.8c-4-0.4-4.5,0.3-3.2,4.4c-0.1,0.3-0.3,0.6-0.5,0.8c0,0-9.1,4.9-9.2,4.9
		C88.4,241.4,88.4,241.3,89.6,238.9z"/>
	<path class="st209" d="M166.2,243.9c-0.3,0-0.6,0.1-0.9,0.1c-1.6,1.4-0.6,3.4-1.2,5.1c-0.3,0.8-0.4,1.7-1.4,1.8
		c-1,0-1.2-0.9-1.5-1.7c-0.6-1.9-0.1-4-1.1-5.8c-1.3,1.5-1.2,3.9-3.2,4.8c-0.5,0.1-0.9-0.1-1.2-0.5c-0.7-1.6-0.2-3.2,0.1-4.8
		c0.6-3.6-0.2-6.8-3.2-9.1c-0.5-0.9-1.1-1.9,0.8-2C158.4,234.8,162,239.7,166.2,243.9z"/>
	<path class="st210" d="M185.1,248c-0.4-0.1-0.8-0.1-1.3-0.2c0.8-1.5,3-1.8,3.3-3.8c2.4-2.7-0.6-6.7,2.1-9.3c1-2.2,2.5-3.3,4.8-1.8
		c0.9,0.5,1.8,1,1.8,2.2c-0.2,0.1-0.3,0.3-0.5,0.4c-1.4,0.7-3.2,0.4-4.2,1.8c-0.6,1.1-0.5,2.4-0.3,3.6c2.9,2.7-1.2,4.2-1.2,6.4
		C188.3,248.2,186.8,248.7,185.1,248z"/>
	<path class="st211" d="M153.2,231.7c-0.9,0.4-0.8,0.9-0.1,1.5c1.7,5.3-0.6,12.2-5.1,15c-1.1-1.1-1.1-2.5-0.5-3.7
		c2.6-5.4,2.4-10.8,0.6-16.4c0.2-0.1,0.5-0.2,0.7-0.1C151.3,228.1,152.7,229.4,153.2,231.7z"/>
	<path class="st207" d="M106,225.5c-1.5,1.4-2.9,2.8-5.1,3.3c-1.8,0.4-3.9,1.8-3.8,3.4c0.4,3.9-2.3,2.6-4.1,3
		c3.1-5.7,7.9-9.4,14.2-10.9c0,0,0,0,0,0C107.2,225,106.8,225.5,106,225.5z"/>
	<path class="st210" d="M195.9,235.1c0.3,0,0.7,0,1,0c0.1,0.9,0.1,1.9,0.2,2.8c0.9,2,1.1,4.1,0.8,6.2c-2.8-0.2-4.5-1.2-3.2-4.4
		c-0.9-1-2.9-0.8-2.8-2.8C192.9,235.6,194.8,236.4,195.9,235.1L195.9,235.1z"/>
	<path class="st212" d="M89.6,238.9c0.1,3.7,3,1.3,4.4,2.1c0.2,0.2,0.3,0.4,0.2,0.6c0,0.2-0.1,0.3-0.1,0.3c-3.4,0.1-6.9-0.1-10,1.5
		C84.8,240.6,87.6,240.3,89.6,238.9z"/>
	<path class="st186" d="M94.1,273c1.9,1.1,2.5,2.7,1.5,4.6c-1.1,2.3-3.3,2.5-5.6,2.4c-0.3-0.7-0.7-1.4-1-2c-0.9-1.2-0.2-2.2,0.5-3.2
		c1.1-0.9,2.4-1.5,3.8-1.8C93.6,273,93.8,273,94.1,273z"/>
	<path class="st213" d="M90.1,274.9c-0.3,1-0.7,2.1-1,3.1c-1.2-0.4-0.7-1.7-1.4-2.5c-1.3,0.7,0.3,2.5-1.1,3c-1.7-0.2-2.1-2-3.3-2.7
		c0.2-0.9,0.5-1.9,0.7-2.8C86.7,271.1,88.7,271.9,90.1,274.9z"/>
	<path class="st214" d="M83.3,192.2c-1,3.9,1.7,7.2,2.1,10.8C82.4,199.8,80.4,196.4,83.3,192.2z"/>
	<path class="st215" d="M133.3,267.8c0,0.7,0,1.4,0,2.1c0.2,0.8-0.2,1.2-0.9,1.4c-0.7-0.8-1.4-1.6-2.1-2.3c-1.3-1.8-3.7-1.6-5.3-2.9
		c1.8,0,3.4-1.1,5.5-0.1c-3.1-6.7-9.3-5.7-14.4-6.9c-3.1-0.7-6.1-1.3-7.9-4.3c6.7,1.1,13.5,2.1,19.9,4.6
		C131.2,260.6,134.1,263.4,133.3,267.8z"/>
	<path class="st216" d="M146.1,279c-1.9,0.1-3.8,0.3-5.4-0.9c0,0-0.1-0.1-0.1-0.1c-2-1.9-2.1-3.7,0.4-5.2c2-1.1,3.7-0.7,5.2,0.9
		C147.9,275.5,146.6,277.2,146.1,279z"/>
	<path class="st217" d="M141,272.8c-1.4,1.6-1.2,3.4-0.4,5.2c-1.4,0.2-2.6-0.5-2.4-1.8c1-5.3-2.7-4.7-5.8-4.9c0.3-0.5,0.6-1,0.9-1.4
		c2.9-0.4,5.1,1.7,7.7,2.1C141,272.2,141,272.5,141,272.8z"/>
	<path class="st218" d="M130.1,282c-1.7-0.4-2.1-1.5-1.9-3.1c0.2-0.4,0.4-0.6,0.8-0.8c0.7,0,1.4-1.4,2.2-0.1
		C132.9,279.9,133,281.3,130.1,282z"/>
	<path class="st219" d="M156.8,279.6c-0.5,0.4-1,0.8-1.5,1.2c-2.9-0.2-5.7-0.8-5.7-4.5c0-1.5,1.3-2.7,3-2.6
		C156.4,274,156.9,276.6,156.8,279.6z"/>
	<path class="st220" d="M164,278.9c0.3,0.5,0.6,1.1,0.9,1.6c0.1,1.2-0.3,2.3-0.9,3.3c-0.8,1.1-1.9,1.4-3.1,1
		c-1.4-0.5-0.4-1.6-0.5-2.5c-0.1-1.3-0.3-2.6-0.5-3.9C161.4,277.2,162.6,279.2,164,278.9z"/>
	<path class="st221" d="M85,258.3c2.6-1.8,5.2-2.7,6.5,1.4c0.2,0.6,0,1.4,1,1c5.6-2.3,6.3,1.7,7.2,6.1c2.6-2.4,5.1-4.1,8.3-1.7
		c1.9,1.5,2.9,3.5,1.8,5.6c-1,2-3.2,2.2-5.2,1.1c-1.5-0.8-2.7-1.7-2.6,1.1l0.1-0.1c-4.7,1.6-4.8,1.5-5.9-3.4
		c-0.2-0.9-1.3-0.5-2.1-0.5c-1.8,0.6-2.6-0.7-3.6-1.7c-1.5-2.7-5.5-2.8-6.2-6.3C84.1,260,84.2,259.1,85,258.3z"/>
	<path class="st222" d="M85,258.3c0,0.9,0,1.7,0.1,2.6c-0.6,2.9,3.5,3.6,3.2,6.4c0.1,1.2,0.1,2.4-0.3,3.5c-3.2,2.3-6.5,0.9-6.9-3.1
		c-0.1-1.4,0.4-2.9-1-3.9c-1-5.3-1.2-10.7,0-16c-0.2,5.3,3.8,1.1,5.3,2.4C80.1,253.1,80,255.2,85,258.3z"/>
	<path class="st223" d="M129,278.1c-0.3,0.3-0.5,0.5-0.8,0.8c-0.2,0-0.3,0-0.5,0c-3.3,0.3-6-0.4-6.6-4.3c-0.2-1.9,1-2.9,2.7-2.8
		C127.8,271.9,129.2,274.4,129,278.1z"/>
	<path class="st224" d="M113.2,274.9c-0.9-2-1.8-4.2,0.9-5.6c1.8-0.9,3.2,0.3,4.3,1.6c1.2,1.4,2.1,3.1,0.4,4.8
		C116.4,278,114.9,275.7,113.2,274.9C113.1,274.8,113.2,274.9,113.2,274.9z"/>
	<path class="st225" d="M87.1,270.9c0-1.2,0-2.3-0.1-3.5c1.1-2.7,2.6-2.3,4.2-0.4c0.9,0.7,1.9,1.3,2.8,2c0,1.3,0,2.7,0,4
		c0,0,0.1-0.1,0.1-0.1C91.2,274.4,88.8,274.1,87.1,270.9z"/>
	<path class="st215" d="M102.1,257c6,4.7,13.4,6,20.5,7.9c1,0.3,2,0.1,2.5,1.2c-8.3-0.7-16.5-2-23-8
		C101.5,257.7,101.5,257.4,102.1,257z"/>
	<path class="st222" d="M102.1,257c0,0.4,0,0.7,0,1.1c-4.5-3-8.6-6.7-14.1-7.9c2-2.5,3.4,0.1,5,0.6C96.7,251.8,99,254.9,102.1,257z"
		/>
	<path class="st226" d="M102,273c2.8-0.2,5.5,2.2,8.8-0.8c-0.2,3-1.4,4.3-3.2,4.5C104.8,277.2,103.3,275.2,102,273
		C102.1,272.9,102,273,102,273z"/>
	<path class="st227" d="M174.8,173.8c0.6,3.6,0.3,6-2.1,8.2C171.3,178.7,172.9,176.6,174.8,173.8z"/>
	<path class="st228" d="M163.1,183.9c0-0.8-0.1-1.5-0.9-2c-0.2-1.7-0.9-3.5,1.2-5C164.6,179.5,166.6,181.7,163.1,183.9z"/>
	<path class="st229" d="M94.1,242c0-0.3-0.1-0.7-0.1-1c-2.1-2.8-1.5-4.6,2-5c2-0.2,4.1,0,6.1,0c3.4,1.1,4.5,4.2,6,7
		c0.3,3.4,3.3,6.2,2.2,9.9c-4.2,0.5-5.3-3.1-7.2-5.5c-0.6-0.3-1.3-0.7-1.9-1C99.4,244,96.7,243,94.1,242L94.1,242z"/>
	<path class="st230" d="M103.1,247.5c2.5,1.5,3.5,4.9,6.8,5.4c1.3,0.2,2.5,0.6,3.7,0.7c2.9,1.7,6.4,0.8,9.4,2.4
		c0.1-0.5,0.2-1,0.3-1.5c1.6,0,2.2,1.8,3.6,2.2c0.4,0.1,0.8,0.3,1.2,0.5c3.4,0.3,6.4,2,9.7,2.3c0.4,0.1,0.8,0.3,1.2,0.5
		c1.2,0.9,3,0.6,4.1,1.6c-0.6,1.3-2,1.6-2.9,1.2c-5.1-2.1-6.7,0.3-6.9,5c-1.4-5.7-5.6-8.5-11-9.1c-5-0.6-9.7-1.6-14.1-3.9
		C106.3,252.4,103.3,250.9,103.1,247.5z"/>
	<path class="st230" d="M94,241.9c3.3,0.1,6.2,0.7,7.1,4.6C98.7,245,96.4,243.5,94,241.9z"/>
	<path class="st231" d="M143.1,261.7c-1.7,0-3.6,1.3-4.9-0.8c1.1-3,4.2-4.5,5.3-7.4c1.5-1.9,1.4-5,4.5-5.5c3.4-4.3,4.7-9.4,5.1-14.7
		c4.8,3.3,5.2,5.8,2.4,14.7c-0.2,1.6-1.4,2.8-1.9,4.3c0.9-1.2,1.1-2.9,2.6-3.8c1.9-2.4,2.3-5.3,3.3-8.1c3.6,2.7,2,6.7,2.8,10.3
		c1.4-1.7,0.8-3.6,0.8-5.2c0.1-1.9,0.9-1.7,2.1-1.3c0.6,1,1.2,2,1.8,3c1.1,5.4,0.8,10.5-1.4,14.2c1.1-1.4,1.8-4.1,2-7.2
		c0.1-2.3-0.6-4.6,0.4-6.9c5.9,4.3,6.5,8.8,2.2,18c-2.4,2.2-4.9,4.2-8,1.1c-1.4-1.4-2.8,0-4.1-0.1c-1.6,0.7-3.5,0.1-3.8-1.2
		c-0.5-2.6,3-2.5,3.6-4.4c-2.5,3.3-5.9,3.9-9.8,2.3C146.7,261.3,145,260.9,143.1,261.7z"/>
	<path class="st232" d="M185.1,248c1.4-1.7,3.3-0.6,5-1c0.2,0,0.5,0.1,0.7,0.1c3.3,2.1,4.8,4.8,3.1,8.7c-0.6,1-1.3,1.9-1.9,2.9
		c-3.8,1.1-1.1-2.5-2.4-3c0,1.6,0.8,3.5-0.5,5.2c-3.5,1.6-7.1,3.3-10.6,4.9c-0.5-3.6,0.2-7,1.1-10.4c1-1.7,2.8,1.9,3.7-0.6
		c1.3-0.5,1.3-1.7,0.7-2.4C182.2,250.2,184.3,249.3,185.1,248z"/>
	<path class="st233" d="M183.2,254.7c-0.4,1.5,0.5,3.3-1,4.8c-2-0.9-0.2-3.7-2.2-4.5c-1.1,3.7,0.8,8.5-4,10.8
		c-1.6,0.1-3.5,2-4.8-0.6c3-4.3,3.2-5.5,2.2-16.4C176.5,252,181.1,250.8,183.2,254.7z"/>
	<path class="st234" d="M196.6,239.9c-2.7,2.4,0.9,2.8,1.4,4.2c-0.6,1.7-2.1,3-1.1,5.2c0.6,1.3,0,2.9-1.7,3.7
		c-1.5-2.2-2.4-4.8-5.1-6c0,0,0.1,0,0.1,0c0.5-1-2.2-1.4-0.8-2c3.2-1.5,0.4-2.7,0.1-4C191.5,238.8,193.9,238.4,196.6,239.9z"/>
	<path class="st235" d="M148.1,262.8c5.3,1.2,8.8-1.4,11.6-5.6c-0.2,3.5-2.8,5.2-5,7.2c0.8,1.3,2.1,1.5,3.4,1.7
		c-1.2,2.3-3.1,0.9-4,0.1c-1.8-1.7-3.8-2.4-6.2-2.6c-0.1,0-0.2-0.3-0.1-0.4C147.9,263.1,148,263,148.1,262.8z"/>
	<path class="st210" d="M190,247c3.3,0.6,4.3,3.2,5.1,6c-0.5,0.9,1,2.7-1.2,2.9C194.8,251.9,191.9,249.7,190,247z"/>
	<path class="st206" d="M176,265.9c3.6-2.8,2.3-7.4,4-10.8c0.4,3.7,0.1,7.3-1.6,10.7C177.6,265.8,176.8,265.8,176,265.9z"/>
	<path class="st236" d="M189,260.9c0.3-2.9,0.1-5.8-1.2-8.9c3.7,1.4,1.1,5.6,4.1,6.7C191.2,259.7,190.8,261.3,189,260.9z"/>
	<path class="st237" d="M180,229c-1.2,0.6-2.5,1.2-3.7,2c-1.7,1.1-2.5,0-2.8-1.3c-0.3-1.2-0.3-2.4,1.9-1.5c1.2,0.5,0.8-2.5,2.7-2.9
		C180,225.6,178.4,228.4,180,229L180,229z"/>
	<path class="st238" d="M194.1,232.9c-1.9-0.2-3.4,0.7-4.8,1.8c-1.4-1.2,0.1-2.5-0.1-3.7l0,0C191.1,230.8,193.7,228.9,194.1,232.9z"
		/>
	<path class="st239" d="M187.7,225.5c-1.2,1.5-1.3,3.7-3.4,4.2c-0.8,0.2-1.3-1-1.1-1.8C183.7,225.7,185,224.5,187.7,225.5z"/>
	<path class="st240" d="M189.1,231c-0.7-0.3-1.8,1.6-2.3-0.3c-0.4-1.3,0.5-2.2,1.5-2.9c0.7-0.5,1.7-0.7,2.2,0.1
		c0.9,1.3-1,1.3-1.2,2.1C189.2,230.4,189.2,230.7,189.1,231C189.1,231,189.1,231,189.1,231z"/>
	<path class="st241" d="M180.1,229c0.1-1.9-0.7-4.3,3.1-5.1C182.3,226.2,183.2,228.7,180.1,229C180,229,180.1,229,180.1,229z"/>
	<path class="st242" d="M126.1,257.6c-2.2,0.2-1.6-2.4-2.9-3c-1.2-6.1-1.3-12.2-1.2-18.4c2.2,1.3,0.9,3.4,1.1,5
		c0.3,3.8,1.7,1.9,3.1,0.8c1.4,1.4,1.2,3,0.9,4.7C125.1,250.2,128.3,254.2,126.1,257.6z"/>
	<path class="st243" d="M125.9,247c0.1-1.7,0.1-3.3,0.2-5c1.3-5.4,2.9-10.7,0-16.1c0.4,0,0.9-0.1,1.3-0.1c2.8,1.2,3,3.9,3,6.3
		c0,5.7-0.6,11.3-2.9,16.5C125.5,249.4,125.6,248.3,125.9,247z"/>
	<path class="st244" d="M127,248.9c0.6-3.9,1.1-7.8,1.7-11.6c0.6-3.9,0.7-7.8-1.3-11.4c-1.6-2.6-1.1-4.1,2.1-3.5
		c6,1,6.8,5.8,7.4,10.6c-0.6,6.9-5.1,12.6-6.3,19.4c1.7-6.7,4.8-12.9,7.2-19.4c0.3-2,0.4-3.9-0.3-5.9c-1.2-3.4,1-3.2,3.1-2.7
		c4.1,1,5.5,4.7,3.8,10.1c-1.7,5.4-5,9.9-7.2,15.1c3.5-2,4.3-6.1,6.7-9c2.2,2.2,0.8,4.2-0.4,6.2c-1.4,2.3-3.1,4.3-4.4,6.5
		c-0.9,1.6-1.5,3,0.1,4.4c0.4,1.1-0.3,1.7-1.1,2.3c-1.8,0.2-4.1,2.6-5-1.2c-2.1,0.5-4.1,0.3-6-1.1
		C126.5,254.8,125.3,251.9,127,248.9z"/>
	<path class="st245" d="M139.4,258.1c-3-0.2-4.7-0.1-2.2-4.1c2.5-4.2,7.7-7.3,6.7-13.3c2.3-3.9,1.4-8.9,4.3-12.6
		c3.9,3.4,3.2,7.6,2.4,11.9c-0.5,2.8-2.7,5-2.5,7.9c-1.3,2-2.5,4-3.8,6C142.7,255.4,141.9,257.7,139.4,258.1z"/>
	<path class="st246" d="M137.9,232.9c-1,7.3-5.2,13.4-7.6,20.2c1-7.1,4.4-13.5,6.7-20.2C137.2,232.9,137.6,232.9,137.9,232.9z"/>
	<path class="st247" d="M168.1,247.1c0.4,5.9,0.7,11.7-3.8,16.5c2.9-5.2,2.9-10.9,2.8-16.7C167.4,247.1,167.7,247.1,168.1,247.1z"/>
	<path class="st181" d="M87.1,270.9c2,1.8,4.4,2.4,7,2c-1,1.4-2.6,1.6-4.1,1.9c-1.9-1.1-3.7-2.6-6.2-1.9c-4-1.9-3.8-5.6-3.9-9.1
		c1.2,0.5,2.4,0.9,4.2,1.6c-3.2,0.6-3.2,2.5-1.9,4.1C83.4,270.8,84.6,273.8,87.1,270.9z"/>
	<path class="st248" d="M106,225.5c0.4-0.4,0.9-0.8,1.3-1.2c7.8-0.2,11.6,3.5,12,11.4c0.1,2.4,1.3,4.7,1,7.2c0.5,0.9,0.5,2,0.3,2.9
		c-0.3,1.6,1.2,4.2-1.5,4.5c-2.2,0.3-2.8-1.9-3.4-3.7c-0.2-0.6-0.6-1.2-0.9-1.7c-0.6-0.9-1-1.9-1.4-2.9c-0.3-2.3-1.9-4.5-0.2-6.8
		c0.3-3.6-2.4-5.3-4.8-6.9C107,227.5,105.9,227.1,106,225.5z"/>
	<path class="st249" d="M115.1,243.8c0.3,0.2,0.5,0.5,0.8,0.6c2.2,0.9,0.1,5.7,3.4,4.8c2-0.6,0.4-4.2,1-6.3c1.4,4.3,0,9.2,2.7,13.3
		c-3.5,0.3-7.1,0.7-9.9-2.1c-0.9-0.5-1.4-1.2-1-2.3c1.6-1.3,2.6-2.9,1.9-5.1C113.6,245.5,113.8,244.4,115.1,243.8z"/>
	<path class="st250" d="M115.1,243.8c-0.5,1.1-0.2,1.9,0.1,3.1c0.8,2.6,0.6,5.1-3.2,5.1c-3.7-1.9-3.1-6.1-4.9-9.1
		c-1.6-2.3-3.3-4.5-4.9-6.8c-0.2-2-4.8-2.5-2.2-5c2.4-2.3,5.9-1.4,8.9-0.2c3.7,2.8,3.6,7.5,5.8,11
		C114.8,242.6,114.9,243.2,115.1,243.8z"/>
	<path class="st251" d="M114.6,242c-3-3.1-3.3-7.7-5.8-11c2.7,0.1,2.8,2.9,4.3,4.2C113.6,237.4,114.1,239.7,114.6,242z"/>
	<path class="st252" d="M196.6,239.9c-2.5-0.2-4.9,0.2-7.3,1.1c0.2-1.4,0.3-2.7,0.5-4.1c0.8-0.5,1.6-0.6,2.4,0.1
		C193.3,238.5,196,237.6,196.6,239.9z"/>
	<path class="st253" d="M192.2,237c-0.8,0-1.6-0.1-2.4-0.1c1.5-2.5,3.7-2.4,6.1-1.7C196,238.4,193.5,236.6,192.2,237z"/>
	<path class="st181" d="M91.3,267c-1.5-0.7-2.9-0.9-4.2,0.4c0.7-2.6-4.6-3.3-2-6.5c0.3,1.9,1.5,2.9,3.3,2.9
		C90.5,263.9,90.9,265.4,91.3,267z"/>
	<path class="st254" d="M107.1,242.9c2.5,2.5,2.2,6.6,4.9,9.1c0.3,0.7,0.7,1.4,1,2.1c-1.6,1.1-2.4,0.2-3.1-1.1
		C109.2,249.5,106.9,246.5,107.1,242.9z"/>
	<path class="st255" d="M127,248.9c0,3,0.1,5.9,0.1,8.9c-0.3-0.1-0.7-0.1-1-0.2c0-3.5-2.3-7-0.2-10.6
		C126.2,247.7,126,248.7,127,248.9z"/>
	<path class="st256" d="M139.4,258.1c1.9-1,2.6-3.5,4.8-4.1c-1.2,3-3.3,5.3-6.1,6.9c-0.1-0.3-0.2-0.5-0.1-0.8
		C138.5,259.4,139,258.7,139.4,258.1z"/>
	<path class="st257" d="M156.2,248.3c-0.8,3-2.5,5.4-5.4,7.1c1.6-2.5,3.2-5,4.7-7.6C155.9,247.9,156.1,248,156.2,248.3z"/>
</g>
</svg>
