<?xml version="1.0" encoding="utf-8"?>
<!-- Generator: Adobe Illustrator 23.1.0, SVG Export Plug-In . SVG Version: 6.00 Build 0)  -->
<svg version="1.1" id="Capa_1" xmlns="http://www.w3.org/2000/svg" xmlns:xlink="http://www.w3.org/1999/xlink" x="0px" y="0px"
	 viewBox="0 0 30 30" style="enable-background:new 0 0 30 30;" xml:space="preserve">
<style type="text/css">
	.st0{fill:#111111;}
</style>
<g>
	<path class="st0" d="M13.5,8.1v13.5H11l-5.4-8.9l0,0v8.9H3.2V8.1h2.4l5.4,9.1l0,0V8.1H13.5z"/>
	<path class="st0" d="M19.4,21.2c-0.8-0.3-1.4-0.8-2-1.4c-0.5-0.6-1-1.3-1.3-2.2c-0.3-0.9-0.5-1.8-0.5-2.8s0.2-1.9,0.5-2.8
		c0.3-0.9,0.7-1.6,1.3-2.2s1.2-1.1,2-1.4c0.8-0.3,1.6-0.5,2.5-0.5s1.7,0.2,2.5,0.5s1.4,0.8,2,1.4c0.5,0.6,1,1.3,1.3,2.2
		s0.5,1.8,0.5,2.8s-0.2,2-0.5,2.8c-0.3,0.9-0.7,1.6-1.3,2.2c-0.5,0.6-1.2,1.1-2,1.4s-1.6,0.5-2.5,0.5S20.2,21.5,19.4,21.2z
		 M23.4,18.9c0.5-0.2,0.8-0.5,1.2-0.9s0.6-0.9,0.8-1.4c0.2-0.5,0.3-1.1,0.3-1.8c0-0.8-0.2-1.6-0.5-2.3s-0.8-1.2-1.3-1.6
		s-1.2-0.6-1.9-0.6c-0.7,0-1.4,0.2-1.9,0.6c-0.6,0.4-1,0.9-1.3,1.6c-0.3,0.7-0.5,1.4-0.5,2.2s0.2,1.6,0.5,2.2s0.8,1.2,1.3,1.6
		c0.6,0.4,1.2,0.6,1.9,0.6C22.5,19.2,23,19.1,23.4,18.9z"/>
</g>
</svg>
