<?xml version="1.0" encoding="utf-8"?>
<!-- Generator: Adobe Illustrator 23.1.0, SVG Export Plug-In . SVG Version: 6.00 Build 0)  -->
<svg version="1.1" xmlns="http://www.w3.org/2000/svg" xmlns:xlink="http://www.w3.org/1999/xlink" x="0px" y="0px"
	 viewBox="0 0 500 500" style="enable-background:new 0 0 500 500;" xml:space="preserve">
<style type="text/css">
	.st0{display:none;}
	.st1{display:inline;fill:#EBEBEB;}
	.st2{opacity:0.27;fill:#6B1414;}
	.st3{opacity:0.18;fill:#FDF9FD;}
	.st4{fill:#C41D1C;}
	.st5{fill:#E3B297;}
	.st6{fill:#6B1414;}
	.st7{fill:#2F2B31;}
	.st8{fill:#D28181;}
	.st9{fill:#FCFF4A;}
	.st10{fill:#991918;}
	.st11{fill:#E3E0E2;}
	.st12{fill:#B2AFB1;}
	.st13{opacity:0.49;fill:#FDF9FD;}
</style>
<g id="Background_Complete">
</g>
<g id="Background_Simple" class="st0">
	<path class="st1" d="M77.5,143.5l2-3.5c16.5-29.9,47.9-48.9,82-48.3c4.4,0.1,8.8,0.4,13.1,1.2c31.2,5.1,59.2,26.9,71.7,56
		c7.4,17.1,10.1,37,23.2,50.2c17,17.2,44.6,16.5,68.7,14.6c24.1-1.9,51.7-2.5,68.7,14.8c10.6,10.8,14.6,26.7,14.5,41.9
		c-0.3,40.1-26.9,77.3-62,96.8c-35.1,19.5-77.3,23.1-117.1,17.1c-55.6-8.4-109.4-36.1-143.1-81.1C65.6,257.9,54.7,194.9,77.5,143.5z
		"/>
</g>
<g id="Character">
</g>
<g id="Device">
</g>
<g id="Desk">
	<g>
		<path class="st2" d="M366.7,484.7c0,4.8-42.9,8.7-95.7,8.7s-95.7-3.9-95.7-8.7c0-4.8,42.9-8.7,95.7-8.7S366.7,479.8,366.7,484.7z"
			/>
		<path class="st3" d="M200.9,484.5h10c0.1-3,0.2-5.9,0.2-8.9C208.1,477,203.9,479.7,200.9,484.5z"/>
		<g>
			<g>
				<g>
					<g>
						<path class="st4" d="M275.9,96.3c0,0,69.6,31.8,74.6,37.9c5,6.1,9.3,17.6,9.3,17.6l11.1-2.5c0,0,23.3,69,19,80.1
							c-4.3,11.1-23.7,26.2-37,23.2c-13.3-3.1-21.9-8.5-21.9-8.5l16.5,228.4l-63.5,2.9l-17-189.6h-5.3l-4.9,189.6
							c0,0-56.4,2.2-68.8-5V272.8c0,0-62.6-19.4-67.6-38.1c-5-18.7,30.2-97.7,44.5-106.3c14.4-8.6,48.1-22.7,48.1-22.7L275.9,96.3z"
							/>
						<path class="st5" d="M219.6,61.7l-1.8,34.5c0,0,4,8.2,12.2,8.2c8.2,0,37.7-2.1,37.7-2.1s6-2.3,5.2-9.2c0,0-3.4-7.1-3.8-11.6
							c-0.4-4.4-1.4-20.9-1.4-20.9L219.6,61.7z"/>
						<path class="st6" d="M215.7,54.3c0,0-6.8-2.9-8.2-11.8c-1.4-8.9,7.8-19.3,7.8-19.3l4.7-1.3c0,0,11.7,10.3,28.8,9.7
							c17.1-0.6,25.4-9.7,25.4-9.7s5.1,0.2,6.1,1.3c1,1.1,6.5,22.5-4.2,30.2C265.4,61.3,215.7,54.3,215.7,54.3z"/>
						<path class="st5" d="M225.2,55.8c0,0-2.9-7.3-7.3-4.3c-4.4,3-2.7,9.4,1.6,10.2c4.3,0.8,2.9,0.8,2.9,0.8s0.1,7.6,12,10.5
							c11.9,2.9,28.5-2,31-12.4c0,0,9.8,0.4,10.5-6.3c0.7-6.7-5.7-5.6-7.1-3.5c-1.4,2.1-1.5,2.7-1.5,2.7s1.5-7.2-2.1-10.9
							c-3.6-3.7-12-3.8-18.6-2.5c-6.6,1.3-18.5,4.4-20.1,5.9C225,47.5,224.6,53.2,225.2,55.8z"/>
						<path class="st7" d="M243.7,45.2c0,0-7.9,1-8.6,0.4c-0.6-0.7-1-2.3,1.3-3.5c2.3-1.2,5.4-1.5,6.4,0
							C243.8,43.6,243.7,45.2,243.7,45.2z"/>
						<path class="st7" d="M253.5,45.2c0,0-6.3,0.5-6.8,0c-0.5-0.5-1-3.4,1.4-4.1c2.3-0.8,5.2,1,5.4,2.2
							C253.8,44.4,253.5,45.2,253.5,45.2z"/>
						<path class="st7" d="M241.9,46.7c0,0.5-0.4,0.9-0.9,0.9c-0.5,0-0.9-0.4-0.9-0.9c0-0.5,0.4-0.9,0.9-0.9
							C241.5,45.9,241.9,46.2,241.9,46.7z"/>
						<path class="st7" d="M249.7,46.5c0,0.5-0.4,0.9-0.9,0.9c-0.5,0-0.9-0.4-0.9-0.9c0-0.5,0.4-0.9,0.9-0.9
							C249.3,45.6,249.7,46,249.7,46.5z"/>
						<path class="st8" d="M245.3,40.4l1.9,21.2c0,0-3.9-3.4-4.1-4.9C243.1,55.1,244.2,41.8,245.3,40.4z"/>
						<ellipse class="st8" cx="237" cy="51.4" rx="2.4" ry="1.5"/>
						<ellipse class="st8" cx="251.8" cy="51.4" rx="2.4" ry="1.5"/>
						<path class="st7" d="M237.4,59c0,0,5.4,5.3,9,5c3.6-0.3,6.1-5,6.1-5s-1.4,6-5.7,6.2c-4.3,0.2-9.7-6.2-9.7-6.2"/>
						<path class="st7" d="M247,59c0,0,4.4-1.7,5.6-0.4c1.1,1.2,4,7.5,3.2,8.7c-0.8,1.2-5.9,2.8-7.8,2.2c-1.9-0.6-3-0.8-4-0.5
							c-1,0.4,0,4.8,0,4.8s7,0.2,13.5-3.8c6.5-4.1,7.8-6.9,8.3-9.4c0.5-2.4,1.9-8.3,1.9-8.3l-3.7-2.5c0,0,0.5,5.8,0.1,8.5
							c-0.5,3.2-5.9,5.8-5.9,5.8s-1.3-8-4.9-8.3c-3.6-0.2-6.3,1.6-6.3,1.6L247,59z"/>
						<path class="st7" d="M266,51.7c0,0-3.1-1.6-2.9-4.6c0.2-2.9,0.2-6,0.2-6s3.3,1.1,4.4,5.6c1,4.6-0.2,6.8-0.2,6.8L266,51.7z"/>
						<path class="st7" d="M245.4,59.8c0,0-5.9-2.6-8-2.1c-2.2,0.5-7,4.2-6,7.1c0.9,2.9,3.6,4.4,5.7,4.5c2,0.1,6.6,0.2,6.6,0.2
							l0.3,4.5c0,0-13.2,0.5-17.5-3.7c-4.3-4.2-4.1-8.1-4.1-8.1s3.3-4.8,2.5-7.1c0,0-2.2-3.5-3.3-3.9c-1.1-0.3-1.5-0.4-1.5-0.4
							s0-3.8,3-5c3-1.2,8.1-1.8,8.1-1.8s-4.9,0.6-4.7,3.8c0.2,3.3,0.6,13.2,1.6,13.7c1,0.5,3.6-5,8.1-5.4c4.5-0.3,7.4,0.5,7.4,0.5
							S244.5,58.9,245.4,59.8z"/>
						<path class="st4" d="M229.1,27.5V15c0,0,2.4-6.2,17.3-8.8c0,0,15.4,2.6,15.4,10.7s0,12.3,0,12.3S244.8,36.4,229.1,27.5z"/>
						<path class="st4" d="M220.1,21.9l-2.3,0.6c0,0,13.6,11.2,29.5,11.1c15.9-0.1,26.9-9,28.8-11.6l-1.9-0.2c0,0-13.4,12-27.9,9.8
							C231.8,29.4,220.1,21.9,220.1,21.9z"/>
						<path class="st9" d="M238.7,30v-11c0,0,1.2,3.2,3.8,2.9c2.6-0.3,2.9-4.5,2.9-4.5s0.9,4.4,3,4.5c2.1,0,3.4-3.8,3.4-3.8
							l1.1,13.3C253,31.4,243.1,32.9,238.7,30z"/>
						<polygon class="st7" points="217.8,92.2 241.9,119.3 213.4,105.8 						"/>
						<polygon class="st7" points="255.6,117.4 270.8,88.2 278.9,101 						"/>
						<path class="st9" d="M228.5,104.3l13.3,15.6c0,0,2.4,3.1,6.7,3.3c4.4,0.2,7.9-6.4,7.9-6.4l6.8-14.2L228.5,104.3z"/>
						<polygon class="st7" points="192.6,215.6 192.6,194.9 319.1,190.4 319.1,211.9 						"/>
						<polygon class="st9" points="242.3,193.1 243.2,214.1 274.4,213.2 274.4,192 						"/>
						<polygon class="st9" points="290.1,102.8 290.1,190.4 304.9,190.4 302.9,108.9 						"/>
						<polygon class="st7" points="230.8,134.8 232.8,149.7 267.3,149.7 267.3,134.8 						"/>
						<polygon class="st7" points="232.8,161.1 234.9,176.1 267.7,172.5 267.7,159.8 						"/>
						<polygon class="st9" points="202.8,110.3 209.9,194.3 197,194.7 188.2,116.8 						"/>
						<polygon class="st9" points="187.7,174.1 189.1,186.6 316.8,178.4 316.8,165.1 						"/>
						<path class="st10" d="M340.8,155.8l30.2-6.5c0,0,24.8,63.4,19,80.1s-20.2,28.9-37,23.2c-16.8-5.8-26-6.1-30.3-21.6
							L340.8,155.8z"/>
						<polygon class="st9" points="340.8,155.8 337.9,168 374.9,159.8 371,149.3 						"/>
						<polygon class="st9" points="330.9,197.3 384.9,190.4 388.1,203 327.7,210.5 						"/>
						<path class="st10" d="M139.3,169.8c-12.1,20.5-25.1,45.1-18.6,64.9c6.6,19.9,68.9,38.7,68.9,38.7l11-45.6
							C208.6,237.2,139.3,169.8,139.3,169.8z"/>
						<polygon class="st9" points="189.6,223.6 180.5,269.4 189.6,273.4 200.6,227.8 						"/>
						<polygon class="st9" points="173.4,214.1 163.7,263.7 154.4,260.1 162.5,207.5 						"/>
						<path class="st5" d="M198.3,237.4c0,0,11-1.8,9.1,0c-1.9,1.8-8.3,8.5-8.3,11.1c0,2.6,5.6,22.1,1.6,22.1
							c-4,0-8.1-10.4-8.1-10.4L198.3,237.4z"/>
						<polygon class="st9" points="188.3,330.8 260.6,337.4 260.6,353.8 188.3,350.6 						"/>
						<polygon class="st9" points="271.9,337.4 273.3,353.8 338.4,344.6 337,324.4 						"/>
						<path class="st7" d="M246.1,484.7l-0.6-9l-39.6-1.3c0,0-9,2.1-14.2,10.3H246.1z"/>
						<path class="st7" d="M345.3,484.7c-2.3-4.6-6.1-9.9-11.8-11.5l-39.9,1.8l1.2,9.7H345.3z"/>
					</g>
					<path class="st10" d="M319.1,196.7c0,0-4.9-57.2-4.5-60.6c0.4-3.4,8.5,10.9,8.1,19.5C322.4,164.3,319.1,196.7,319.1,196.7z"/>
					<path class="st10" d="M250.2,286c0,0,57.1-20,54.7-12.6C302.6,280.8,254.4,289.2,250.2,286z"/>
					<path class="st7" d="M280.1,89.6c0,0,71,59.5,74.3,59.6c3.4,0.2,2.8-2.7,2.8-2.7l-81.1-64.1L280.1,89.6z"/>
					<path class="st5" d="M366,150.4c0,0-3.8-16.1-7-17.7s-8.7-1-11.9,2.5c-3.2,3.5-2.5,10.9-1.4,11.5c1,0.6,3.6,3.4,3.6,3.4
						s1.6-4.9,4.1-5.8c2.5-0.9,5.5,0.2,3.9,2.4c-1.6,2.2-4.4,3.8-4.4,3.8l-0.7,3L366,150.4z"/>
					<path class="st4" d="M289.2,92.8l-2.3,4.9c0,0-2.6-3.7-4.9-4.9c-2.3-1.2-12.4-12.2-12.4-12.2l2.1-7.5L289.2,92.8z"/>
					<polygon class="st4" points="286.8,90.1 297.5,82.5 274.9,64.1 271.6,73.1 					"/>
					<polyline class="st7" points="272.9,69.5 291.4,86.9 297.5,82.5 274.9,64.1 272.9,70.3 					"/>
					<polygon class="st11" points="313.1,75.5 280.9,43.2 278.7,50.7 307.2,78.1 					"/>
					<polygon class="st12" points="278.7,50.7 274.9,64.1 297.5,82.5 307.2,78.1 					"/>
				</g>
				<path class="st2" d="M388.1,203L388.1,203L388.1,203c-0.9-4.1-2.1-8.4-3.3-12.6l0,0h0c-3.2-11.4-7.1-22.7-9.9-30.6l0,0
					c-2.3-6.4-3.9-10.5-3.9-10.5l-5,1.1c0,0-3.8-16.1-7-17.7c-2.5-1.3-6.4-1.2-9.5,0.6c-3.9-3.1-16.2-9.5-29.6-16.1l-30.8-24.3
					l-2.4-2.7l4.6-3.3l6.2-4.4l9.7-4.4l5.9-2.7l-31.3-31.4c2.1-9.1-0.8-20.1-1.5-20.8c-1-1.1-6.1-1.3-6.1-1.3s-3.9,3.5-9.7,6.3
					c-2.7,1.2-5.9,2.2-9.7,2.8c4.2-0.8,6.9-2,6.9-2s0-4.3,0-12.3c0-6.2-9.2-9.2-13.4-10.2l-40.6,478h38.4l-0.6-9l0,0
					c6.9-0.1,11.6-0.3,11.6-0.3l3.1-121.6l0.4,0v-16.4l1.3-51.2c1.1-0.1,2.3-0.3,3.5-0.4h1.8l4.6,51.6l1.5,16.4l10.9,121.6l38.6-1.7
					l-29.3,1.3l1.2,9.7h50.5c-2.3-4.6-6.1-9.9-11.8-11.5l14.2-0.6l-9.3-127.9l-1.5-20.2l-5.8-80.3c0,0,0.1,0.1,0.3,0.2
					c1.9,1.3,4,2.3,6.4,3.2c3.8,1.7,9,3.6,15.2,5.1c16.8,5.8,31.2-6.5,37-23.2c0.1-0.2,0.1-0.4,0.2-0.7
					C391.8,223.3,390.5,213.7,388.1,203z M275.9,96.3l-5.1-8.1l0,0c-0.8-2.2-1.6-4.7-1.8-6.7c-0.4-4.4-1.4-20.9-1.4-20.9l0,0
					c2.9-0.3,7.9-1.5,8.4-6.2c0-0.3,0-0.6,0-0.8c0,0,0,0,0,0c1-0.7,1.8-1.5,2.5-2.4l-3.7,13l-3.2,9.1l-2.1,7.5
					c0,0,10.1,11,12.4,12.2c2.3,1.2,4.9,4.9,4.9,4.9l0.8-1.7c4.2,3.5,9.9,8.2,16.1,13.4C288.8,102.1,275.9,96.3,275.9,96.3z
					 M357.5,146.2c-0.3-0.7-0.6-1.4-1-2.1C357.5,144.4,358,145.1,357.5,146.2z"/>
				<path class="st2" d="M218,51.5c0,0,0.7-1.1,2.1-0.7c1.5,0.4,2.1,0.7,2.1,0.7l45.3-5.7c0,0,2-7.8-13.8-7.5
					c-15.8,0.3-30.9,6.8-33.6,9C217.4,49.5,218,51.5,218,51.5z"/>
			</g>
			<polygon class="st3" points="254.8,31.1 254.8,31.1 254.8,31.1 			"/>
			<path class="st13" d="M196.7,271.9c-1.4-2.9-2.9-7.2-5.7-7.2c-34.5-5.7-64.6-38.8-48.8-73.3c5.7-12.9,7.2-28.7,15.8-38.8
				c17.2-20.1,51.7-21.5,63.2-46c8.6-17.2,8.6-40.2,0-56c-4.3-7.2-8.6-14.4-4.3-14.4c17.1-1.1,20.6-14.9,20.6-27.7
				c-7,2.8-8.4,6.4-8.4,6.4v11.6c-5.5-2.4-9-4.6-9-4.6l-2.3,0.6v0l-2.4,0.7c0,0-9.3,10.3-7.8,19.3c1.4,8.9,8.2,11.8,8.2,11.8h0
				c-1.1,3.1,0.6,6.8,3.8,7.4L218,92.5l-0.2-0.2l-4.4,13.5c0,0-4.3,1.8-10.6,4.5h0c-4.2,1.9-9.4,4.1-14.6,6.5l0,0v0
				c-8.5,3.9-17.3,8.2-23,11.6c-6.3,3.8-16.8,21.4-26,41.4c-12.1,20.5-25.1,45.1-18.6,64.9c1.2,4.5,5.9,9.1,12.2,13.5
				c17.8,12.6,48.8,22.7,55.5,24.8v57.8v19.8v119.7c2.7,1.6,7.7,2.7,13.7,3.5C203.4,407,202,339.8,196.7,271.9z"/>
		</g>
	</g>
</g>
<g id="Lighting_bolts">
</g>
<g id="Line">
</g>
</svg>
