<?xml version="1.0" encoding="utf-8"?>
<!-- Generator: Adobe Illustrator 23.1.0, SVG Export Plug-In . SVG Version: 6.00 Build 0)  -->
<svg version="1.1" id="Capa_1" xmlns="http://www.w3.org/2000/svg" xmlns:xlink="http://www.w3.org/1999/xlink" x="0px" y="0px"
	 viewBox="0 0 180 200" style="enable-background:new 0 0 180 200;" xml:space="preserve">
<style type="text/css">
	.st0{fill:#A77360;}
	.st1{fill:#895C4E;}
	.st2{fill:#724A3F;}
	.st3{fill:#9A6E41;}
	.st4{fill:#724A2D;}
	.st5{fill:#F5A59A;}
	.st6{fill:#B58355;}
	.st7{fill:#CE9C76;}
	.st8{fill:#ECC19C;}
	.st9{fill:#F797A5;}
	.st10{fill:#FFED7B;}
	.st11{fill:#DE8086;}
	.st12{fill:#D39667;}
	.st13{opacity:0.54;fill:#C4736C;}
	.st14{fill:#C4736C;}
	.st15{fill:#E08B82;}
	.st16{opacity:0.28;fill:#C1577E;}
	.st17{fill:#BC6169;}
	.st18{fill:#A07050;}
	.st19{fill:#8E5B38;}
	.st20{fill:#F7C9C4;}
	.st21{fill:#FFFFFF;}
	.st22{opacity:0.76;fill:#FFFFFF;}
	.st23{fill:#4D3721;}
	.st24{fill:#BA8E67;}
	.st25{fill:#EAA75E;}
	.st26{fill:#FFF699;}
	.st27{fill:#AF8F4A;}
	.st28{opacity:0.22;}
	.st29{fill:#AA5955;}
	.st30{fill:#EAA2A9;}
	.st31{fill:#B77E6C;}
	.st32{opacity:0.5;fill:#FFFFFF;}
</style>
<g>
	<path class="st0" d="M107.8,133.2c-4.9,17.5-9.8,34.9-14.6,52.4c-0.3,0.3-1.3,1-2.8,1.1c-1.6,0.1-2.8-0.7-3.1-0.9
		c-0.8,0.2-2,0.4-3.4,0.3c-1.9-0.2-3.3-0.9-4-1.3c0.5-4.3,1.1-8.7,1.8-13.2c0.4-2.7,0.9-5.3,1.3-7.9c-0.3-1.8-0.8-4.5-2-7.8
		c-0.5-1.5-1-2.2-4-7.9c-1.7-3.2-2.5-4.9-2.7-5.1c-1.6-3.4-3.4-7.2-4.2-12.1c-0.3-2.1-0.4-3.9-0.4-5.1c1.1,0.1,2.8,0.4,4.6,1.1
		c2.3,0.9,2.8,1.7,6.3,3.8c2.5,1.5,4,2.4,6.4,3.2c2.9,1,5,1.1,5.5,1.1c1.4,0.1,2.4-0.1,4.3-0.3c4-0.6,5.3-1.3,8.5-1.3
		C106.5,133.1,107.3,133.2,107.8,133.2z"/>
	<path class="st1" d="M94.7,137c3,8.9,3.1,16,2.7,20.4c-0.3,3.9-1.1,6.9-2.2,11.1c-1.9,7.5-4.2,13.4-5.9,17.5
		c-0.9-0.3-1.8-0.5-2.7-0.8c2.2-4.7,4.3-10,6-16c0.6-2.2,1.2-4.4,1.7-6.5c0.2-2.7,0.2-5.6,0-8.9c-0.3-5.4-1.3-10-2.3-13.9
		C92.9,139,93.8,138,94.7,137z"/>
	<path class="st2" d="M92.8,168.3c1.1-3,1.8-6.1,2-9.3c0.2-3.5-0.2-7-0.9-10.4c-0.8-3.8-1.9-7.5-3.1-11.2c-0.2-0.8,1-1.1,1.2-0.3
		c2,6.5,4.1,13.2,4.1,20.2c0,3.2-0.5,6.4-1.5,9.5c-0.9,3-2.1,5.8-3.2,8.7c-1.3,3.3-2.4,6.7-2.7,10.2c-0.1,0.8-1.3,0.8-1.2,0
		C88,179.5,90.8,174,92.8,168.3z"/>
	<path class="st1" d="M69.8,125.5c1.1,0.1,2.8,0.4,4.6,1.1c2.3,0.9,2.8,1.7,6.3,3.8c2.5,1.5,4,2.4,6.4,3.2c2.9,1,5,1.1,5.5,1.1
		c1.4,0.1,2.4-0.1,4.3-0.3c4-0.6,5.3-1.3,8.5-1.3c1,0,1.8,0,2.3,0.1c-0.4,1.4-0.8,2.8-1.2,4.2c-1.1-0.2-2.5-0.4-3.9-0.6
		c-4-0.4-6.9-0.6-8.4,1c-1.7,1.9-0.5,4.9-1.5,5.2c-1,0.3-1.8-2.8-5-5.4c-1.8-1.4-2.3-1-6.8-3.1c-5.5-2.5-5.9-3.6-8.2-3.8
		c-0.7-0.1-1.5,0-2.5,0.2c0-0.2-0.1-0.4-0.1-0.5C69.9,128.5,69.8,126.7,69.8,125.5z"/>
	<path class="st2" d="M70.7,125.7c2.7,1.5,5.3,2.9,8,4.4c2.4,1.3,4.9,2.7,7.5,3.6c2.7,1,5.4,1.5,8.3,1.4c2.5-0.1,5-0.5,7.5-1
		c0.1-0.1,0.3-0.2,0.5-0.2c0.2,0,0.4,0,0.5,0c0.2,0,0.3-0.1,0.5-0.1c0.2,0,0.4,0,0.5,0.1c0.1,0,0.3,0,0.4,0c0,0,0.1-0.1,0.2-0.1
		c0.6-0.2,1.1-0.4,1.7-0.6c0.7-0.2,1,0.8,0.5,1.1c0.1,0.4-0.1,0.8-0.6,0.8c-1,0-2,0-3.1,0c-2.8,0.6-5.5,1.1-8.3,1.2
		c-3,0.1-5.9-0.3-8.7-1.3c-2.7-1-5.2-2.3-7.7-3.7c-2.8-1.5-5.5-3-8.3-4.5C69.3,126.4,70,125.3,70.7,125.7z"/>
	<path class="st3" d="M62.2,19.6c0.2-1.4,0.7-3.7,2.2-6c1.2-1.8,2.7-3.2,5.5-4.8C77.2,4.7,88.7,3.5,91,3.2C92.5,3,94.8,2.8,97,4
		c1.5,0.8,2.3,1.8,2.8,2.5c3.5,4.4,4.8,4.5,7.6,7.9c2.7,3.3,7.1,10,9.7,19.2c1.1,3.9,4,15.7,0.4,29.6c-0.5,1.8-0.9,3.2-1.3,4.2
		c-0.6,1.3-1.5,3.5-1.5,6.4c-0.1,3.7,1.2,6.6,1.9,7.9c-0.6,1-1.7,2.6-3.7,3.8c-3.7,2.3-7.6,1.7-8.6,1.5c-0.6-0.1-1.2-0.2-1.8-0.3
		c-9.9,0.9-19.8,1.9-29.7,2.8c-1,0.3-2.2,0.5-3.4,0.7c-7.3,0.8-13.2-2.6-16-4.6c0.4-0.8,1-2,1.4-3.5c0.3-1.1,0.9-3.7,0.3-8
		c-0.4-3.2-1.2-5.4-1.5-6.6c-1.3-4.1-1.8-8.1-2.6-16.1c-0.9-8.5,0-6.8-0.9-15.3c-0.1-1.2-0.4-3.3,0-6c0.3-2.7,0.7-5.8,3.1-8.3
		c0.6-0.6,2.6-2.7,5.7-2.7C60.3,18.8,61.5,19.3,62.2,19.6z"/>
	<path class="st4" d="M65.8,78.4c-5-7.8-6.8-9-7.7-12.6c-0.5-2-0.9-5.2,0.6-9.7c18.8-0.6,37.6-1.2,56.4-1.8c0.1,3.6-0.6,6.2-1.2,7.9
		c-2.1,5.8-5.6,7-8.1,13.9c-1.1,3-1.2,5-1.2,5.8c0,2,0.3,3.7,0.7,5.1c-0.5-0.1-0.9-0.1-1.1-0.2c-0.6-0.1-1.2-0.2-1.8-0.3
		c-9.9,0.9-19.8,1.9-29.7,2.8c-1,0.3-2.2,0.5-3.4,0.7c-0.3,0-0.6,0.1-0.9,0.1c0.7-1.2,1.1-2.5,1.1-4C69.5,85.1,69.3,83.9,65.8,78.4z
		"/>
	<path class="st5" d="M95.3,81.7c1,0.6,4.1,2.4,5.9,6.4c1.9,4.2,1.1,8.1,0.8,9.2c2.1,1.3,5.3,3.7,8.1,7.7c1.8,2.6,3.7,5.5,3.9,9.5
		c0.1,5.5-3.3,9.5-4.4,10.7c-0.4,0.1-1,0.3-1.8,0.4c-1.4,0.3-2.4,0.2-2.5,0.6c-0.1,0.4,0.8,0.8,0.7,1.1c-0.2,0.4-1.8-0.1-2.1,0.5
		c-0.2,0.3,0.1,0.6-0.1,0.9c-0.3,0.4-0.7,0.2-1.1,0.5c-0.4,0.4-0.4,1.3,0,2c0.6,1,2.2,1,3.2,1c0.7,0,2-0.1,3.4-0.8
		c-0.1,0.8-0.1,1.7-0.2,2.5c-0.8-0.2-1.9-0.3-3.1-0.4c0,0-1,0-2,0c-2.6,0.1-4.6,0.8-6.6,1.3c-1.2,0.3-4.3,0.9-7.5,0.2
		c-1.5-0.3-2.4-0.3-5.9-2.4c-5.9-3.5-8.6-5.7-10.3-6c-4-0.8-7,0.3-7.5-0.9c-0.3-0.6,0.5-1.5,1.5-2.7c1.2-1.4,2.3-2.2,2.8-2.6
		c1.2-1,2.6-2.9,3-7c1.2,1.8,3,4.1,5.5,6.4c3.5,3,6.9,4.7,9.3,5.7c0.4,0.1,1.9,0.4,2-1.1c0.1-1.3,2.6-1,2.2-2.2
		c-0.2-0.7-0.5-1.2-1-1.3c0.1-0.4,0.3-0.8,0.4-1.3c-1.4-0.7-3-1.5-4.5-2.6c-5.8-3.9-9.2-8.8-11.2-12.3c0.7-2.8,1.4-5.5,2-8.3
		c0.5-0.2,1.4-0.5,2.2-1.2c1.9-1.7,2.6-4.4,2.2-6.7c-0.3-1.6-1.1-2.8-1.7-3.5c-0.1-0.1-0.1-0.3-0.1-0.6c-0.1-0.8,0.5-1.4,0.6-1.4
		c0.6-0.6,1.7-0.7,2.8-0.2c0.5,1.1,1.3,2.7,2.9,4c0.8,0.7,2.7,2.3,5.4,2.3c0.8,0,2.3,0,3.2-1.2c0.6-0.8,0.8-2,0.4-2.8
		c-0.2-0.6-0.7-1.1-1.8-1.9c-0.7-0.6-1.3-1-1.7-1.3C93.4,81.6,94.3,81.7,95.3,81.7z"/>
	<path class="st6" d="M90.5,28.8c-4.5-3.6-9.7-11.2-7.3-17.2c1.1-2.6,3.2-3.9,5.6-5.4c0.7-0.4,3-1.9,6-3C95.6,3.4,96.3,3.6,97,4
		c1.5,0.8,2.3,1.8,2.8,2.5c3.5,4.4,4.8,4.5,7.6,7.9c2,2.4,4.9,6.8,7.4,12.6c0.8,5.3,1.8,13.7,0.1,14.2c-0.9,0.2-2.9-1.3-8.8-15
		c0.8,1.9,2.4,6.5,0.7,7.9c-0.9,0.7-2.2,0.4-4.3-0.3C96,31.7,92.8,30.7,90.5,28.8z"/>
	<path class="st6" d="M53.1,21.6c0.6-0.6,2.6-2.7,5.7-2.7c1.5,0,2.7,0.4,3.4,0.8c0.2-1.4,0.7-3.7,2.2-6c1-1.6,2.3-2.9,4.5-4.2
		c0.1,1.8-0.6,5.2-3.2,11.7c2.1,1.1,5,2.9,8.1,5.8c1.9,1.7,4.5,4.2,4,5.2c-0.4,0.7-2.6,0.9-10.7-1.9c0.3,0.6,2.8,6.7-0.7,11.8
		c-0.6,0.9-2.4,3.5-3.9,3.2c-1.7-0.4-3.4-4.5-3-21c-2.1-0.1-4.8,0.2-6.3,2.1c-2.1,2.5-0.4,6-2.6,7.6c-0.2,0.1-0.4,0.3-0.6,0.4
		c-0.1-1.2-0.1-2.7,0.1-4.5C50.3,27.2,50.7,24.1,53.1,21.6z"/>
	<path class="st7" d="M112.5,60.5c0.3-1.6,0.6-4,0.4-6.8c-0.1-1-0.2-2.8-1.3-6.5c-1.7-6-2.5-9-4.6-11.4c-3-3.4-7-4.7-7.3-4.8
		c-2.4-0.8-4.1-0.6-6.7-2c-1.8-1-3-2.1-3.7-3c-1.5,1.1-3.5,2.2-6,2.9c-8.1,2.5-15.2-0.5-17.6-1.7c0.4,2,0.7,4.9,0.6,8.4
		c-0.1,3.1-0.3,6.6-2,10.4c-2.1,4.7-5.7,7.6-8.1,9.2c-0.1,0.3-0.2,0.7-0.3,1.1c0,0-0.4,1.8-0.2,3.5c0.2,1.9,1.9,4.5,4.8,6.6
		c0.9,1.3,1.8,2.6,2.6,3.9c0.1-2.4,0.2-4.7,0.3-7.1c2.3-2.1,5.6-4.9,10.1-7.4c2.1-1.2,7.2-3.9,14-5c10-1.7,18.4,0.8,22.8,2.5
		c0.5,1.6,1,3.2,1.5,4.8C112.1,59,112.3,59.8,112.5,60.5z"/>
	<path class="st8" d="M112.4,51.9c0.5-0.3,1-0.7,1.6-1c0-0.5,0-1.8,0.9-2.9c0.3-0.4,1.1-1.3,2-1.3c1.1,0.1,1.8,1.5,2.1,2.5
		c0.4,1.9-0.7,3.5-1.2,4.3c-1.6,2.3-3.9,3.3-5.1,3.7C112.6,55.4,112.5,53.7,112.4,51.9z"/>
	<path class="st9" d="M112.3,61.2c-0.7-2.7-1.4-5.5-2.1-8.2c-2.2-0.5-5.2-1.2-8.9-1.6c-1.5-0.2-9.3-1.1-15.4-0.4
		c-10.5,1.3-18.5,8-22.8,12.3c-0.1,2.5-0.1,5-0.2,7.5c2.2,2.2,7.7,7,16.1,8.5c5,0.9,10,0.2,10,0.2c0.2,0,1.1-0.2,2.2-0.4
		c6.8-1.6,11.8-5.7,12.6-6.4C108.7,68.5,111.2,63.8,112.3,61.2z"/>
	<path class="st8" d="M90.7,78.7c0,1.1,0.8,2,0.8,3.1c0.7,0.2,1.5,0.6,2.3,1.3c0.5,0.5,1.4,1.3,1.6,2.6c0,0.4,0.1,1.2-0.3,1.9
		c-0.6,0.9-1.9,1-2.6,1.1c-1.9,0.1-3.4-0.7-4-1.1C85.6,86,84.4,83,84,81.8c0.1-1,0.1-2,0.2-3C86.6,78.7,88.2,78.8,90.7,78.7z"/>
	<path class="st5" d="M94.9,81.4c0.8-0.5,1.9-1.1,3.4-1.3c4.6-0.5,7.8,4,8,4.3c-0.6,0.1-1.9,0.3-3.2,1.3c-1,0.7-1.5,1.5-1.9,2
		c-0.4-1.1-1.5-3.4-3.9-5.1C96.4,82,95.6,81.6,94.9,81.4z"/>
	<path class="st5" d="M80.8,82.6c-0.2,0.3-1.1,0.7-1.1,1.3c0,0.9,1.1,1.6,1.6,2.5c0,0,0,0.9,0.3,2.8c0.4,2.5-1.1,5.3-2.2,6.4
		c-0.4-1-1.4-2.9-3.3-4.4c-1.5-1.2-3-1.8-3.9-2.1c0.2-0.7,1.1-3.4,3.8-5.1C78,82.6,80,82.5,80.8,82.6z"/>
	<path class="st10" d="M104.5,85.5c0.1-0.1,0.4-0.3,0.7-0.4c0.4-0.1,1.2-0.1,1.4,0.3c0.2,0.3,0,0.8-0.3,1c-0.4,0.4-1.1,0.4-1.7-0.1
		c0,0.1,0,0.8-0.6,1.3c-0.7,0.5-1.5,0.2-1.6,0.2c-0.5-0.2-0.7-0.5-0.8-0.6c0.1-0.3,0.6-1,1.4-1.4C103.6,85.5,104.1,85.5,104.5,85.5z
		"/>
	<path class="st8" d="M105.1,86.8c0.8,2.2,1.7,4.9,2.3,8c0.6,3,0.8,5.6,0.8,7.9c-2.3-1.8-4.6-3.5-6.8-5.3c0.5-1,1.2-3,1.1-5.5
		c-0.1-1.9-0.6-3.3-1-4.3c0.1,0.1,1,0.6,2,0.4C104.5,87.7,105,87,105.1,86.8z"/>
	<path class="st8" d="M77.4,96.3c-0.7,1.8-1.2,3.1-1.7,5.5c-0.1,0.7-0.2,1.6-0.3,2.3c0.9,2,2.9,5.5,5.8,8.3
		c4.3,4.3,9.1,5.9,11.5,6.6c-0.5,0.3-1,0.5-1.5,0.8c0.3,0.2,0.9,0.5,1.3,1.2c0.2,0.4,0.5,0.9,0.3,1.5c-0.2,0.6-0.9,0.9-1,0.9
		c0.2,0.3,0.2,0.7,0,1c-0.3,0.4-0.9,0.5-1.4,0.2c0,0,0.5,0.9,0.2,1.2c-0.3,0.3-1,0.1-1.9-0.6c0,0.1,0,0.3-0.1,0.5
		c-0.4,0.4-1.5-0.2-1.9-0.4c-3.8-1.9-6.6-4.8-6.6-4.8c-3.6-3.8-5.7-4.6-8.4-10.2c-0.6-1.3-1.3-1.9-1.6-2.6c-0.3-1.3-0.4-4-0.5-5.7
		c-0.2-5,0.7-8.4,1.8-10.7c0.3,0.1,1.4,0.2,1.7,0.3c0,0.1,0,0.5,0.3,0.8c0.4,0.4,1.1,0.4,1.7,0c-0.1,0.7,0.1,1.3,0.7,1.7
		c0.5,0.4,1.1,0.3,1.3,0.3c0.1,0.4,0.2,1,0.6,1.6C77.7,95.9,77.3,96.2,77.4,96.3z"/>
	<path class="st11" d="M83.4,186.6c0,0.6,0.1,1.5,0.5,2.5c0.3,0.7,0.7,1.7,1.6,2.3c1.7,1.2,4,0.2,4.2,0.1c0.5,0.4,2.1,1.7,2.9,3.2
		c0.1,0.3,0.4,0.8,0.4,1.5c0,0.4,0.1,1-0.4,1.4c-0.2,0.2-0.5,0.3-0.8,0.3c-1.4,0.2-2.5,0-2.5,0c-3-0.7-3.1-0.1-4.5-0.8
		c-1.2-0.6-1.9-1.4-2.5-2c-1.5-1.7-2.2-3.4-2.6-4.9c-0.3-1-0.7-2.5-0.9-4.3c0.3-0.2,0.6-0.4,0.9-0.7c0.5,0.4,1.4,0.9,2.5,1.2
		C82.7,186.5,83.1,186.6,83.4,186.6z"/>
	<path class="st11" d="M93.6,189.3c1.1,0.3,2.9,1,4.1,2.6c0.8,1.1,0.9,1.8,0.9,2c0,1.3-1,2.1-1.1,2.1c-1,0.8-2.6,0.8-4-0.1
		c-0.4-0.5-0.7-0.9-1.1-1.4c-0.8-1-1.7-2-2.5-3c0.6-0.1,2.2-0.3,3.2-1.5C93.3,189.7,93.5,189.5,93.6,189.3z"/>
	<path class="st8" d="M92.5,186.1c0.2,1.3,0.5,2.6,0.7,3.9c-1.1,0.4-2.2,0.8-3.3,1.2c-0.2-0.2-0.3-0.4-0.5-0.6c-0.7-1.1-1-2.1-1-2.4
		c-0.1-0.4-0.2-1-0.2-1.7c0.5,0.1,1.2,0.1,1.9,0.1C91.1,186.5,91.9,186.3,92.5,186.1z"/>
	<path class="st8" d="M86.8,186c0.5,1.7,1,3.3,1.4,5c-0.3,0.1-1.2,0.4-2.2,0.1c-0.9-0.3-1.4-1-1.7-1.5c-0.8-1.2-0.7-2.4-0.7-2.9
		c0.5-0.1,1-0.1,1.5-0.3C85.9,186.3,86.4,186.1,86.8,186z"/>
	<path class="st8" d="M110.3,125.5c0.2,0.4,0.6,1.2,0.6,2.3c-0.1,1.8-1.4,2.8-1.7,3.1c-1.2,0.9-2.4,0.9-3.1,0.9
		c-0.7,0-1.7,0.2-2.6-0.4c-0.4-0.2-1.7-0.6-1.7-1.5c0-0.8,1.2-1.7,1.3-1.8c0.1-0.2,0.3-0.5,0.7-0.7c1.1-0.7,2.4-0.1,2.5,0
		c-0.5-0.4-1.3-1-1.4-1.6c0.8,0.1,2.2-0.4,3-0.3c-0.1-0.3,0.3-0.2,0.2-0.5C108.7,125.3,109.5,125.4,110.3,125.5z"/>
	<path class="st8" d="M109.7,49.8c-0.1-1.5-0.6-6-3.9-10.2c-1.1-1.4-3.7-4.7-7.9-5.7c-2.9-0.7-5,0-7.6-1.7c-1.3-0.8-2.1-1.9-2.6-2.6
		c-1.2,1.1-3.2,2.6-6.1,3.5c-5.2,1.8-9.8,0.6-11.5,0c0.2,2.2,0.3,6.7-2,11.8c-2.6,5.9-7,9.1-8.8,10.3c1.4,1,3.1,2.4,4.3,4.7
		c0.2,0.3,0.3,0.7,0.5,1c3.1-2.9,7.9-6.5,14.6-9.1c13.9-5.4,26.5-2.3,31.2-0.9C109.7,50.5,109.7,50.2,109.7,49.8z"/>
	<g>
		<path class="st11" d="M111.4,57.6c-1.3,1.7-3.4,2.8-5.5,3.7c-3.6,1.5-7.2,2.8-10.9,4c-7.5,2.3-15.2,3.8-22.9,4.9
			c-2,0.3-3.9,0.5-5.9,0.7c-0.9,0.1-1.9,0.2-2.8,0.2c-0.1-0.1-0.3-0.3-0.4-0.4c0-1.4,0.1-2.8,0.1-4.2c7.5-0.8,15-1.8,22.3-3.5
			c4.6-1.1,9.1-2.4,13.5-4c1.6-0.6,3.3-1.2,4.9-1.9c-12.7,0.9-25.2,3.6-37.2,8c-1.1,0.4-2.3,0.8-3.4,1.3c0-1.1,0.1-2.1,0.1-3.2
			c0.9-0.9,2.1-2,3.3-3.1c2-0.7,3.9-1.3,5.9-1.9c7.8-2.4,15.8-4.1,23.9-5.1c3.5-0.4,7-0.7,10.5-0.9c1.3,0.3,2.4,0.5,3.4,0.7
			C110.6,54.6,111,56.1,111.4,57.6z"/>
		<path class="st11" d="M63.6,71.4c1.2,0.2,2.5,0.4,3.8,0.6c7.5,1,14.9,0.6,22.2-1.9c7.9-2.7,15-7.2,22.1-11.6
			c0.2,0.9,0.5,1.8,0.7,2.7c-0.4,0.9-1,2.1-1.8,3.5c-5.5,3.4-11.2,6.6-17.3,9c-3.8,1.5-7.7,2.5-11.7,3.1c-3.1,0.4-6.3,0.5-9.4,0.3
			C68.2,75.4,65.3,73,63.6,71.4z"/>
	</g>
	<path class="st12" d="M90.7,79.7c0,1.1,0.8,1,0.8,2.1c0.7,0.2,1.5,0.6,2.3,1.3c0.5,0.5,1.4,1.3,1.6,2.6c0,0.4,0.1,1.2-0.3,1.9
		c-0.6,0.9-1.9,1-2.6,1.1c-1.4,0.1-2.5-0.3-3.3-0.7c1-0.1,1.9-0.4,2.4-1.1c0.6-0.6,0.8-1.6,0.7-2.4c-0.3-1.9-2.5-3-3.9-3.2
		c-1.3-0.3-2.4,0.1-2.9,0.2c-0.5,0.2-1,0.4-1.3,0.7c-0.1-0.2-0.4-0.2-0.4-0.3c0.1-1,0-0.9,0.1-1.9C86.3,79.9,88.2,79.8,90.7,79.7z"
		/>
	<path class="st13" d="M94.3,96.3c0.2,0.6-0.5,2.7-2.4,4.3c-1.1,1-3.2,2.7-5.5,2c-2-0.6-3.5-2.6-3.8-5.1c0.2,0.3,2.1,2.7,5.3,2.6
		c2.5-0.1,4.7-1.6,5.8-3.9c0,0,0.2-0.3,0.4-0.3C94.1,96,94.2,96.2,94.3,96.3z"/>
	<path class="st14" d="M101.7,91.1c0,0.2,0.6,2-0.6,3.5c-0.8,0.9-1.8,1.2-2.1,1.2c0.8,0.6,1.5,1.1,2.3,1.7c0.4-0.7,1.6-2.7,1-5
		C102.1,92,101.9,91.5,101.7,91.1z"/>
	<path class="st15" d="M81.3,88.4c-0.1,0-0.5-1.2-1.6-2.2c-0.3-0.3-1.5-1.4-3-1.4c-2-0.1-3.4,1.7-3.6,1.5c-0.1-0.2,0.7-1.4,2.1-2.3
		c1.8-1.3,3.8-1.5,5-1.5c-0.1,0.2-0.3,0.5-0.4,0.8c-0.2,0.9,0.1,1.6,0.3,1.8C81.1,87.7,81.3,88.4,81.3,88.4z"/>
	<path class="st1" d="M84.2,162.1c1.5,1.3,2.2,2,2,2.3c-0.1,0.2-0.5,0.2-1.3,0c0.6,2.2,0.7,3.4,0.3,3.6c-0.3,0.1-0.8-0.1-1.5-0.9
		c-0.6,3.1-1.1,6.4-1.5,9.9c-0.3,2.8-0.6,5.5-0.8,8.1c-0.3-0.1-0.6-0.1-0.9-0.2c-0.3-0.1-0.5-0.3-0.7-0.4c0.5-4.3,1.1-8.7,1.8-13.2
		c0.4-2.7,0.9-5.3,1.3-7.9c-0.3-1.8-0.8-4.5-2-7.8c-0.5-1.4-0.9-2.1-3.4-6.8c0-0.3,0-0.5,0-0.8c1.1,1.4,2.3,3.1,3.3,5.1
		C82.7,156.6,83.7,159.7,84.2,162.1z"/>
	<path class="st10" d="M79,96c-0.3-0.8-0.9-1.9-1.8-2.9c-2-2.4-4.6-3.2-5.7-3.6c-0.1,0.1-0.4,0.4-0.4,0.9c0,0.6,0.6,1.1,1.4,1.1
		c0,0.1,0.1,0.7,0.7,1.1c0.6,0.4,1.3,0.1,1.3,0.1c0,0.1,0,0.9,0.6,1.4c0.5,0.5,1.1,0.6,1.3,0.6c0,0.2,0.1,0.8,0.6,1.3
		c0.2,0.2,0.6,0.6,1.3,0.5C78.6,96.5,78.9,96.1,79,96z"/>
	<path class="st16" d="M69.2,58.1c-0.3,0.9-0.4,2-0.4,3.1c0.1,2.4,1.2,6,3.7,7c2.1,0.8,4.6-0.5,4.7-0.3c0.1,0.3-4,1-4.6,3.1
		c-0.5,1.9,1.9,4.1,2.1,4.3c4.2,3.7,11.4,1.8,14.6,1c8.7-2.3,14.1-7.5,16.3-9.6c2.7-2.6,4.7-5.3,6.1-7.6c0.2,0.7,0.4,1.5,0.6,2.2
		c-1.1,2.6-3.6,7.3-8.5,11.4C103,73.3,98,77.5,91.2,79c-1,0.2-1.9,0.4-2.2,0.4c0,0-4.9,0.8-10-0.2c-8.4-1.6-13.9-6.3-16.1-8.5
		c0.1-2.5,0.1-5,0.2-7.5C64.7,61.8,66.7,59.9,69.2,58.1z"/>
	<path class="st16" d="M70.4,73.3c13.3,6.2,27.9-4.1,30.2-5.8c5-3.6,8.3-7.8,10.5-11.2c0.4,1.6,0.8,3.3,1.2,4.9
		c-1.1,2.6-3.6,7.3-8.5,11.4C103,73.3,98,77.5,91.2,79c-1,0.2-1.9,0.4-2.2,0.4c0,0-4.9,0.8-10-0.2c-8.4-1.6-13.9-6.3-16.1-8.5
		c0-1.1,0.1-2.1,0.1-3.2C64.8,69.7,67.3,71.8,70.4,73.3z"/>
	<path class="st12" d="M102.5,91.9c-0.1-1.9-1-3.6-1.4-4.5c0.1,0.1,1.3,0.9,2.4,0.6c1-0.2,1.5-1,1.6-1.2c0.3,0.8,0.6,1.6,0.9,2.4
		c-0.5-0.1-1-0.1-1.4,0.2c-0.3,0.2-0.7,0.5-1,1.7c-0.1,0.4-0.7,2.5-0.2,4.6c0.7,2.8,3.1,4.6,4.8,5.5c0,0.5,0,1,0,1.4
		c-2.3-1.8-4.6-3.5-6.8-5.3C101.9,96.4,102.6,94.4,102.5,91.9z"/>
	<path class="st12" d="M70.6,93.3c0.3-0.8,0.5-1.5,0.8-2.1c0.3,0.1,1.4,0.2,1.7,0.3c0,0.1,0,0.5,0.3,0.8c0.4,0.4,1.1,0.4,1.7,0
		c-0.1,0.7,0.1,1.3,0.7,1.7c0.5,0.4,1.1,0.3,1.3,0.3c0.1,0.4,0.2,1,0.6,1.6c0.1,0.2-0.3,0.4-0.2,0.5c-0.7,1.8-1.2,3.1-1.7,5.5
		c-0.1,0.7-0.2,1.6-0.3,2.3c0.9,2,2.9,5.5,5.8,8.3c4.3,4.3,9.1,5.9,11.5,6.6c-0.5,0.3-1,0.5-1.5,0.8c0.1,0.1,0.3,0.1,0.4,0.3
		c-2.9-0.8-6.4-2.3-9.7-5c-1.3-1-9.1-7.3-7.9-12c0.2-0.8,0.8-2.1,0.8-4c0-1,0-2.4-0.9-3.6C73.2,94,71.7,93.5,70.6,93.3z"/>
	<path class="st12" d="M70.1,107.5c-0.2-0.6-0.3-1.5-0.3-2.4c1.2,2.8,2.5,4.9,3.5,6.3c3.3,4.6,6.9,7.2,9.9,9.3
		c2.8,2,5.4,3.4,7.6,4.5c0,0.2,0,0.4-0.1,0.5c-0.3,0.3-1,0.1-1.9-0.6c0,0.1,0,0.3-0.1,0.5c-0.4,0.4-1.5-0.2-1.9-0.4
		c-3.8-1.9-6.6-4.8-6.6-4.8c-3.6-3.3-5.9-5.5-8.2-9.7C71.4,109.4,70.4,108.2,70.1,107.5z"/>
	<path class="st17" d="M78.8,185.9c0.3-0.2,0.6-0.4,0.9-0.7c0.5,0.4,1.4,0.9,2.5,1.2c0.4,0.1,0.8,0.2,1.2,0.2c0,0.3,0,0.6,0.1,0.9
		c-2.6-0.9-3.3-0.3-3.5-0.1c-1,1.1,0.8,4.7,3.4,6.7c2.1,1.6,4.3,1.8,5.2,1.9c1.7,0.1,3.2-0.2,4.3-0.5c0.1,0.2,0.1,0.4,0.1,0.7
		c0,0.4,0.1,1-0.4,1.4c-0.2,0.2-0.5,0.3-0.8,0.3c-1.4,0.2-2.5,0-2.5,0c-3-0.7-3.1-0.1-4.5-0.8c-1.2-0.6-1.9-1.4-2.5-2
		c-1.5-1.7-2.2-3.4-2.6-4.9C79.4,189.2,79,187.7,78.8,185.9z"/>
	<path class="st17" d="M93.1,190c0.2-0.2,0.4-0.5,0.5-0.7c0.4,0.1,0.9,0.3,1.5,0.5c-0.5,0.2-1.1,0.5-1.7,0.9
		c-1.2,0.7-1.3,1.1-1.3,1.2c-0.2,1,1.4,2.1,1.8,2.3c0.5,0.3,1.5,1,2.7,0.8c0.7-0.1,1.4-0.5,2-1c-0.1,1.2-1,1.9-1.1,2
		c-1,0.8-2.6,0.8-4-0.1c-0.4-0.5-0.7-0.9-1.1-1.4c-0.8-1-1.7-2-2.5-3C90.5,191.4,92.1,191.2,93.1,190z"/>
	<path class="st12" d="M83.8,186.7c0.5-0.1,1-0.1,1.5-0.3c0.6-0.1,1.1-0.3,1.6-0.5c0.1,0.5,0.3,0.9,0.4,1.4
		c-0.2-0.1-0.5-0.2-0.7-0.3c-1.4-0.3-2.5,0.3-2.7,0.4c0-0.1,0-0.2-0.1-0.3C83.7,187.1,83.7,186.8,83.8,186.7z"/>
	<path class="st12" d="M90.1,186.5c0.9-0.1,1.7-0.2,2.3-0.4c0,0,0.1,0,0.1,0c0,0.3,0.1,0.5,0.1,0.8c-0.5,0.1-1.1,0.2-1.8,0.5
		c-1,0.5-1.6,1.1-1.9,1.5c-0.1-0.1-0.3-0.4-0.6-0.7c-0.1-0.4-0.2-1-0.2-1.7C88.7,186.5,89.4,186.6,90.1,186.5z"/>
	<path class="st18" d="M55.8,54.3c8.6-5.1,9.7-15.9,9.7-24.9c0-0.1,0-0.2,0-0.2c-0.4-0.6,0.3-1.7,1.2-1.3c6.6,2.7,14.4,2.3,20.7-1
		c0.2-0.1,0.4-0.1,0.5-0.1c0.1-0.8,1.2-1.3,1.7-0.4c1.6,2.8,4.9,3.4,7.8,4c2.9,0.6,5.5,1.7,7.8,3.7c4.7,4.2,6.4,10.6,7.4,16.6
		c0.2,1.2-1.7,1.3-1.9,0.1c-1-6-2.7-12.4-7.9-16.2c-2.6-1.9-5.6-2.2-8.6-3c-2.1-0.6-4.2-1.5-5.6-3.3c-0.1,0-0.1,0.1-0.2,0.1
		C82,31.8,74.3,32.4,67.4,30c-0.1,9.2-1.5,19.7-9.6,25.2c0.4,0.2,0.7,0.5,0.9,0.8c0.6,0.9,0.6,2,1.3,2.8c1.1,1.4,2.8,2.2,3.3,4.1
		c0.3,1.2-1.5,1.8-1.8,0.6c-0.4-1.4-1.7-2.2-2.6-3.2c-0.2-0.3-0.5-0.5-0.7-0.8c0.2,1.7,0.7,3.3,1.6,4.7c0.1,0.1,0.1,0.2,0.1,0.3
		c0.2,0,0.4,0.1,0.6,0.4c0.9,1.3,1.8,2.5,2.7,3.8c0.7,1-0.8,2-1.5,1.1c-0.9-1.3-1.8-2.5-2.7-3.8c-0.1-0.1-0.1-0.2-0.1-0.3
		c-0.2,0-0.4-0.2-0.6-0.4c0-0.1-0.1-0.1-0.1-0.2c-0.1,0-0.1,0-0.2-0.1c-0.2-0.1-0.4-0.3-0.5-0.5c0-0.2-0.1-0.4-0.1-0.6
		c0-0.1,0-0.2,0-0.4c-0.8-1.7-1.1-3.6-1.1-5.5c0-0.6,0.5-0.9,0.9-1c-0.1-0.2-0.2-0.3-0.4-0.3c-0.6,0-0.9-0.5-1-1
		C55.3,55.5,55.1,54.7,55.8,54.3z"/>
	<path class="st18" d="M111.6,58.3c0.4-2,0.5-4,0.5-6c-0.1-1.2,1.8-1.3,1.9-0.1c0,0.7,0,1.4,0,2.1c2.2-1.2,3.4-3.5,3.3-6
		c-0.1-1.2,1.8-1.3,1.9-0.1c0.2,3.7-1.8,6.9-5.2,8.2c0,0,0,0-0.1,0c-0.1,0.7-0.2,1.5-0.3,2.2C113.2,59.9,111.4,59.5,111.6,58.3z"/>
	<path class="st7" d="M95.3,47.7c1-0.1,1.4-1,1-1.8c0-0.1-0.1-0.1-0.1-0.2c-0.1,0-0.2-0.1-0.3-0.2c0,0-0.1-0.1-0.1-0.1c0,0,0,0,0,0
		c-0.7-0.5-0.2-1.4,0.4-1.6c0.5-0.4,0.9-0.9,1.4-1.3c0.4-0.3,0.9-0.4,1.3-0.1c0.4,0.3,0.5,1,0.1,1.3c-0.3,0.3-0.6,0.5-0.9,0.8
		c0.5,0.1,1,0.1,1.5,0c1.2-0.3,1.8,1.5,0.6,1.8c-0.7,0.2-1.3,0.2-2,0.1c0,1.6-1.2,3-2.9,3.1C94.2,49.7,94.1,47.8,95.3,47.7z"/>
	<path class="st7" d="M68.2,49c0.1,0,0.3,0,0.4,0.1c-0.3-0.3-0.5-0.6-0.7-1c-0.3-0.4-0.2-1,0.2-1.3c0.4-0.3,1-0.2,1.3,0.2
		c0.3,0.5,0.7,1,1.1,1.4c0.4,0,0.7,0.2,0.8,0.6c0.2,0.6,0.2,1.2,0.2,1.9c0,0.6,0,1.2,0.3,1.7c0.4,0.7,1,0.5,1.5,0
		c0.4-0.5,0.5-1.1,0.4-1.7c-0.1-1.2,1.7-1.3,1.9-0.1c0.2,2-1.3,4.6-3.7,4.2c-0.9-0.2-1.5-0.9-1.9-1.7c-0.3-0.7-0.3-1.5-0.3-2.3
		c-0.6,0-1.3,0-1.9-0.1C66.6,50.7,67,48.8,68.2,49z"/>
	<path class="st7" d="M67.3,43.3c1.2-1.4,2.4-2.7,3.7-3.9c0.9-0.8,2.3,0.4,1.4,1.2c-1.3,1.2-2.6,2.5-3.7,3.9
		C67.9,45.5,66.5,44.3,67.3,43.3z"/>
	<path class="st7" d="M88.6,29.4c1.6,2.7,5.5,2.4,8.1,3.2c2.5,0.8,4.9,2,6.9,3.7c4.5,3.7,7,9.3,7,15.1c0,1.1-1.5,1.3-1.8,0.4
		c-0.1-0.1-0.2-0.2-0.4-0.3c-0.4-0.3-0.4-1-0.1-1.3c0.1-0.1,0.2-0.2,0.3-0.2c-0.4-5.2-3.1-10.1-7.5-13.1c-0.3-0.2-0.5-0.3-0.8-0.5
		c-0.1,0.1-0.3,0.2-0.5,0.2c-2.8,0.1-5.6,0.4-8.4,0.9c-1.2,0.2-1.3-1.6-0.1-1.9c1.9-0.4,3.9-0.7,5.8-0.8c-1.1-0.4-2.3-0.7-3.5-0.9
		c-2.5-0.5-5.3-1.1-6.7-3.4C86.5,29.4,88,28.3,88.6,29.4z"/>
	<path class="st19" d="M84.8,79.6c1.8,0,3.7,0.5,5.4,0.7c1.3,0.2,0.8,2.2-0.6,2.1c-0.8-0.1-1.7-0.2-2.5-0.3
		c-0.5-0.1-1.3-0.3-1.9-0.3c-0.3,0.6-1.1,1-1.7,0.3C82.6,80.9,83.4,79.5,84.8,79.6z"/>
	<g>
		<path class="st20" d="M101.8,82.2c0.6,0,1.1,0.5,1.1,1.1v0.2c0,0.6-0.5,1.1-1.1,1.1c-0.6,0-1.1-0.5-1.1-1.1v-0.2
			C100.8,82.7,101.3,82.1,101.8,82.2z"/>
		<path class="st20" d="M98.2,81.5c0.6,0,1.1,0.5,1.1,1.1v0.2c0,0.6-0.5,1.1-1.1,1.1c-0.6,0-1.1-0.5-1.1-1.1v-0.2
			C97.1,82,97.6,81.4,98.2,81.5z"/>
		<path class="st20" d="M98.2,85.3c1.4,0,1.4,2.1,0,2.1C96.8,87.5,96.8,85.3,98.2,85.3z"/>
		<path class="st20" d="M98.5,89.5c0.7-0.4,1.7-0.4,2.4,0.3c0.1,0.1,0.2,0.2,0.2,0.3c0.1,0.1,0.2,0.2,0.2,0.4c0.3,0.9-0.2,1.9-1,2.2
			c-0.9,0.4-1.9,0.1-2.4-0.8C97.4,91.1,97.6,90,98.5,89.5z"/>
		<path class="st20" d="M95,89.2c0.6,0,1.1,0.5,1.1,1.1v0.2c0,0.6-0.5,1.1-1.1,1.1c-0.6,0-1.1-0.5-1.1-1.1v-0.2
			C93.9,89.7,94.4,89.2,95,89.2z"/>
		<path class="st20" d="M94.3,91.5c1.4,0,1.4,2.1,0,2.1C92.9,93.6,92.9,91.5,94.3,91.5z"/>
		<path class="st20" d="M88.2,90.8h0.2c0.6,0,1.1,0.5,1.1,1.1c0,0.6-0.5,1.1-1.1,1.1h-0.2c-0.6,0-1.1-0.5-1.1-1.1
			C87.1,91.3,87.6,90.8,88.2,90.8z"/>
		<path class="st20" d="M83.8,86.7c1.4,0,1.4,2.1,0,2.1C82.5,88.8,82.5,86.7,83.8,86.7z"/>
		<path class="st20" d="M81.6,82.4c1.4,0,1.4,2.1,0,2.1C80.2,84.5,80.2,82.4,81.6,82.4z"/>
		<path class="st20" d="M97.7,96.7c0.6,0,1.1,0.5,1.1,1.1V98c0,0.6-0.5,1.1-1.1,1.1c-0.6,0-1.1-0.5-1.1-1.1v-0.2
			C96.7,97.2,97.2,96.7,97.7,96.7z"/>
		<path class="st20" d="M98.8,101.5c0.6,0,1.1,0.5,1.1,1.1v0.2c0,0.6-0.5,1.1-1.1,1.1c-0.6,0-1.1-0.5-1.1-1.1v-0.2
			C97.7,102,98.2,101.5,98.8,101.5z"/>
		<path class="st20" d="M102.5,100.6c1.4,0,1.4,2.1,0,2.1C101.1,102.7,101.1,100.6,102.5,100.6z"/>
		<path class="st20" d="M106.2,107.9c1.4,0,1.4,2.1,0,2.1C104.8,110,104.8,107.9,106.2,107.9z"/>
		<path class="st20" d="M109.3,109.5h0.2c0.6,0,1.1,0.5,1.1,1.1c0,0.6-0.5,1.1-1.1,1.1h-0.2c-0.6,0-1.1-0.5-1.1-1.1
			C108.3,110,108.8,109.5,109.3,109.5z"/>
		<path class="st20" d="M106.8,103.3c1.4,0,1.4,2.1,0,2.1C105.5,105.5,105.5,103.3,106.8,103.3z"/>
		<path class="st20" d="M98,107.4c1.4,0,1.4,2.1,0,2.1C96.6,109.6,96.6,107.4,98,107.4z"/>
		<path class="st20" d="M103.9,115.2c0.6,0,1.1,0.5,1.1,1.1v0.2c0,0.6-0.5,1.1-1.1,1.1c-0.6,0-1.1-0.5-1.1-1.1v-0.2
			C102.8,115.7,103.3,115.2,103.9,115.2z"/>
		<path class="st20" d="M105.2,111.8v0.1c0,1.4-2.1,1.4-2.1,0v-0.1C103,110.4,105.2,110.4,105.2,111.8z"/>
		<path class="st20" d="M108.9,116.8c1.4,0,1.4,2.1,0,2.1C107.5,118.9,107.5,116.8,108.9,116.8z"/>
		<path class="st20" d="M108.4,121.3c1.4,0,1.4,2.1,0,2.1C107.1,123.5,107.1,121.3,108.4,121.3z"/>
		<path class="st20" d="M104.3,118.8c1.4,0,1.4,2.1,0,2.1C103,121,103,118.8,104.3,118.8z"/>
		<path class="st20" d="M102.5,125.2c1.4,0,1.4,2.1,0,2.1C101.1,127.3,101.1,125.2,102.5,125.2z"/>
		<path class="st20" d="M97.3,124.8c1.4,0,1.4,2.1,0,2.1C95.9,126.9,95.9,124.8,97.3,124.8z"/>
		<path class="st20" d="M99.8,131.6c0.6,0,1.1,0.5,1.1,1.1v0.2c0,0.6-0.5,1.1-1.1,1.1c-0.6,0-1.1-0.5-1.1-1.1v-0.2
			C98.7,132.1,99.2,131.6,99.8,131.6z"/>
		<path class="st20" d="M94.3,128.4c1.4,0,1.4,2.1,0,2.1C92.9,130.5,92.9,128.4,94.3,128.4z"/>
		<path class="st20" d="M93.2,133.2c1.4,0,1.4,2.1,0,2.1C91.8,135.3,91.8,133.2,93.2,133.2z"/>
		<path class="st20" d="M88.6,130.9c1.4,0,1.4,2.1,0,2.1C87.2,133,87.2,130.9,88.6,130.9z"/>
		<path class="st20" d="M82.7,129.5h0.2c0.6,0,1.1,0.5,1.1,1.1c0,0.6-0.5,1.1-1.1,1.1h-0.2c-0.6,0-1.1-0.5-1.1-1.1
			C81.7,130,82.1,129.5,82.7,129.5z"/>
		<path class="st20" d="M79.4,123.3c0.4-0.4,1.1-0.4,1.5,0c0.1,0.1,0.2,0.2,0.2,0.2c0.4,0.4,0.4,1.1,0,1.5c-0.4,0.4-1.1,0.4-1.5,0
			c-0.1-0.1-0.2-0.2-0.2-0.2C79,124.4,79,123.6,79.4,123.3z"/>
		<path class="st20" d="M75.3,124.6c0.4-0.4,1.1-0.4,1.5,0c0.1,0.1,0.2,0.2,0.2,0.2c0.4,0.4,0.4,1.1,0,1.5c-0.4,0.4-1.1,0.4-1.5,0
			c-0.1-0.1-0.2-0.2-0.2-0.2C74.9,125.7,74.9,125,75.3,124.6z"/>
		<path class="st20" d="M74.5,119.5h0.2c0.6,0,1.1,0.5,1.1,1.1c0,0.6-0.5,1.1-1.1,1.1h-0.2c-0.6,0-1.1-0.5-1.1-1.1
			C73.5,120,73.9,119.5,74.5,119.5z"/>
		<path class="st20" d="M68.3,122.8c0.4-0.4,1.1-0.4,1.5,0c0.1,0.1,0.2,0.2,0.2,0.2c0.4,0.4,0.4,1.1,0,1.5c-0.4,0.4-1.1,0.4-1.5,0
			c-0.1-0.1-0.2-0.2-0.2-0.2C67.9,123.9,67.8,123.2,68.3,122.8z"/>
		<path class="st20" d="M74,115.7c1.4,0,1.4,2.1,0,2.1C72.7,117.8,72.7,115.7,74,115.7z"/>
		<path class="st20" d="M87.9,127.7c1.4,0,1.4,2.1,0,2.1C86.6,129.9,86.6,127.7,87.9,127.7z"/>
		<path class="st20" d="M95.4,119.8c0.1-0.1,0.2-0.2,0.2-0.2c0.4-0.4,1.1-0.4,1.5,0c0.4,0.4,0.4,1.1,0,1.5c-0.1,0.1-0.2,0.2-0.2,0.2
			c-0.4,0.4-1.1,0.4-1.5,0C95,120.9,95,120.3,95.4,119.8z"/>
		<path class="st20" d="M100.5,117c0.6,0,1.1,0.5,1.1,1.1v0.5c0,0.6-0.5,1.1-1.1,1.1c-0.6,0-1.1-0.5-1.1-1.1v-0.5
			C99.4,117.5,99.9,117,100.5,117z"/>
		<path class="st20" d="M98.9,111.5c1.4,0,1.4,2.1,0,2.1C97.5,113.7,97.5,111.5,98.9,111.5z"/>
		<path class="st20" d="M101.1,105.6c0.6,0,1.1,0.5,1.1,1.1v0.2c0,0.6-0.5,1.1-1.1,1.1c-0.6,0-1.1-0.5-1.1-1.1v-0.2
			C100.1,106.1,100.6,105.6,101.1,105.6z"/>
		<path class="st20" d="M95,101.8c0.6,0,1.1,0.5,1.1,1.1v0.2c0,0.6-0.5,1.1-1.1,1.1c-0.6,0-1.1-0.5-1.1-1.1v-0.2
			C93.9,102.3,94.4,101.7,95,101.8z"/>
		<path class="st20" d="M91.8,98.3h0.5c0.6,0,1.1,0.5,1.1,1.1c0,0.6-0.5,1.1-1.1,1.1h-0.5c-0.6,0-1.1-0.5-1.1-1.1
			C90.8,98.8,91.2,98.3,91.8,98.3z"/>
		<path class="st20" d="M85.9,103.3h0.2c0.6,0,1.1,0.5,1.1,1.1c0,0.6-0.5,1.1-1.1,1.1h-0.2c-0.6,0-1.1-0.5-1.1-1.1
			C84.8,103.8,85.3,103.3,85.9,103.3z"/>
		<path class="st20" d="M92.5,106.3c1.4,0,1.4,2.1,0,2.1C91.1,108.4,91.1,106.3,92.5,106.3z"/>
		<path class="st20" d="M90.9,102.2c1.4,0,1.4,2.1,0,2.1C89.5,104.3,89.5,102.2,90.9,102.2z"/>
		<path class="st20" d="M95.2,109.5c1.4,0,1.4,2.1,0,2.1C93.9,111.6,93.9,109.5,95.2,109.5z"/>
		<path class="st20" d="M93.6,116.1c1.4,0,1.4,2.1,0,2.1C92.3,118.2,92.3,116.1,93.6,116.1z"/>
		<path class="st20" d="M86.3,112.8c0.1-0.1,0.2-0.2,0.2-0.2c0.4-0.4,1.1-0.4,1.5,0c0.4,0.4,0.4,1.1,0,1.5c-0.1,0.1-0.2,0.2-0.2,0.2
			c-0.4,0.4-1.1,0.4-1.5,0C85.9,113.9,85.8,113.2,86.3,112.8z"/>
		<path class="st20" d="M90.2,110.2c1.4,0,1.4,2.1,0,2.1C88.8,112.3,88.8,110.2,90.2,110.2z"/>
		<path class="st20" d="M85.7,108.6c1.4,0,1.4,2.1,0,2.1C84.3,110.7,84.3,108.6,85.7,108.6z"/>
		<path class="st20" d="M81.8,108.4c0.6,0,1.1,0.5,1.1,1.1v0.7c0,0.6-0.5,1.1-1.1,1.1c-0.6,0-1.1-0.5-1.1-1.1v-0.7
			C80.7,108.9,81.2,108.3,81.8,108.4z"/>
		<path class="st20" d="M79.4,103.7c0.1-0.1,0.2-0.2,0.2-0.2c0.4-0.4,1.1-0.4,1.5,0c0.4,0.4,0.4,1.1,0,1.5c-0.1,0.1-0.2,0.2-0.2,0.2
			c-0.4,0.4-1.1,0.4-1.5,0C79,104.7,79,104.1,79.4,103.7z"/>
		<path class="st20" d="M83.1,100.6c1.4,0,1.4,2.1,0,2.1C81.8,102.7,81.8,100.6,83.1,100.6z"/>
		<path class="st20" d="M78.8,99.5c1.4,0,1.4,2.1,0,2.1C77.5,101.6,77.4,99.5,78.8,99.5z"/>
		<path class="st20" d="M78.5,103.7v0.1c0,1.4-2.1,1.4-2.1,0v-0.1C76.4,102.4,78.5,102.4,78.5,103.7z"/>
		<path class="st20" d="M81.1,96.7c1.4,0,1.4,2.1,0,2.1C79.7,98.9,79.7,96.7,81.1,96.7z"/>
		<path class="st20" d="M83.8,93.1c1.4,0,1.4,2.1,0,2.1C82.5,95.2,82.5,93.1,83.8,93.1z"/>
		<path class="st20" d="M87.6,96.8l0.2-0.2c0.4-0.4,1.1-0.4,1.5,0c0.4,0.4,0.4,1.1,0,1.5l-0.2,0.2c-0.4,0.4-1.1,0.4-1.5,0
			C87.2,97.9,87.2,97.2,87.6,96.8z"/>
		<path class="st20" d="M90.4,93.3h0.2c0.6,0,1.1,0.5,1.1,1.1c0,0.6-0.5,1.1-1.1,1.1h-0.2c-0.6,0-1.1-0.5-1.1-1.1
			C89.4,93.8,89.8,93.3,90.4,93.3z"/>
		<path class="st20" d="M90.7,88.8c1.4,0,1.4,2.1,0,2.1C89.3,90.9,89.3,88.8,90.7,88.8z"/>
		<path class="st20" d="M84.3,89.9c1.4,0,1.4,2.1,0,2.1C82.9,92,82.9,89.9,84.3,89.9z"/>
		<path class="st20" d="M79.3,90.6c0.6,0,1.1,0.5,1.1,1.1v0.2c0,0.6-0.5,1.1-1.1,1.1c-0.6,0-1.1-0.5-1.1-1.1v-0.2
			C78.2,91.1,78.7,90.6,79.3,90.6z"/>
		<path class="st20" d="M78.5,86.8c0.4-0.4,1.1-0.4,1.5,0c0.1,0.1,0.2,0.2,0.2,0.2c0.4,0.4,0.4,1.1,0,1.5c-0.4,0.4-1.1,0.4-1.5,0
			c-0.1-0.1-0.2-0.2-0.2-0.2C78.1,87.9,78.1,87.2,78.5,86.8z"/>
		<path class="st20" d="M75.6,84.7c1.4,0,1.4,2.1,0,2.1C74.3,86.8,74.3,84.7,75.6,84.7z"/>
		<path class="st20" d="M78.6,83.1c1.4,0,1.4,2.1,0,2.1C77.2,85.2,77.2,83.1,78.6,83.1z"/>
		<path class="st20" d="M74.6,89.5c0,0.1,0,0.2,0,0.3c0.1,0.2,0.3,0.5,0.5,0.6c0.3,0.1,0.5,0.2,0.9,0.1c0.2,0,0.4-0.2,0.5-0.3
			c0.2-0.2,0.3-0.5,0.3-0.8c0-0.3-0.1-0.6-0.3-0.8c-0.2-0.2-0.5-0.3-0.8-0.3c-0.2,0-0.4,0.1-0.6,0.2c-0.2,0.1-0.4,0.4-0.5,0.6
			C74.6,89.3,74.6,89.4,74.6,89.5z"/>
	</g>
	<g>
		<path class="st20" d="M101.8,82.2c0.6,0,1.1,0.5,1.1,1.1v0.2c0,0.6-0.5,1.1-1.1,1.1c-0.6,0-1.1-0.5-1.1-1.1v-0.2
			C100.8,82.7,101.3,82.1,101.8,82.2z"/>
		<path class="st20" d="M98.2,81.5c0.6,0,1.1,0.5,1.1,1.1v0.2c0,0.6-0.5,1.1-1.1,1.1c-0.6,0-1.1-0.5-1.1-1.1v-0.2
			C97.1,82,97.6,81.4,98.2,81.5z"/>
		<path class="st20" d="M98.2,85.3c1.4,0,1.4,2.1,0,2.1C96.8,87.5,96.8,85.3,98.2,85.3z"/>
		<path class="st20" d="M98.5,89.5c0.7-0.4,1.7-0.4,2.4,0.3c0.1,0.1,0.2,0.2,0.2,0.3c0.1,0.1,0.2,0.2,0.2,0.4c0.3,0.9-0.2,1.9-1,2.2
			c-0.9,0.4-1.9,0.1-2.4-0.8C97.4,91.1,97.6,90,98.5,89.5z"/>
		<path class="st20" d="M95,89.2c0.6,0,1.1,0.5,1.1,1.1v0.2c0,0.6-0.5,1.1-1.1,1.1c-0.6,0-1.1-0.5-1.1-1.1v-0.2
			C93.9,89.7,94.4,89.2,95,89.2z"/>
		<path class="st20" d="M94.3,91.5c1.4,0,1.4,2.1,0,2.1C92.9,93.6,92.9,91.5,94.3,91.5z"/>
		<path class="st20" d="M88.2,90.8h0.2c0.6,0,1.1,0.5,1.1,1.1c0,0.6-0.5,1.1-1.1,1.1h-0.2c-0.6,0-1.1-0.5-1.1-1.1
			C87.1,91.3,87.6,90.8,88.2,90.8z"/>
		<path class="st20" d="M83.8,86.7c1.4,0,1.4,2.1,0,2.1C82.5,88.8,82.5,86.7,83.8,86.7z"/>
		<path class="st20" d="M81.6,82.4c1.4,0,1.4,2.1,0,2.1C80.2,84.5,80.2,82.4,81.6,82.4z"/>
		<path class="st20" d="M97.7,96.7c0.6,0,1.1,0.5,1.1,1.1V98c0,0.6-0.5,1.1-1.1,1.1c-0.6,0-1.1-0.5-1.1-1.1v-0.2
			C96.7,97.2,97.2,96.7,97.7,96.7z"/>
		<path class="st20" d="M98.8,101.5c0.6,0,1.1,0.5,1.1,1.1v0.2c0,0.6-0.5,1.1-1.1,1.1c-0.6,0-1.1-0.5-1.1-1.1v-0.2
			C97.7,102,98.2,101.5,98.8,101.5z"/>
		<path class="st20" d="M102.5,100.6c1.4,0,1.4,2.1,0,2.1C101.1,102.7,101.1,100.6,102.5,100.6z"/>
		<path class="st20" d="M106.2,107.9c1.4,0,1.4,2.1,0,2.1C104.8,110,104.8,107.9,106.2,107.9z"/>
		<path class="st20" d="M109.3,109.5h0.2c0.6,0,1.1,0.5,1.1,1.1c0,0.6-0.5,1.1-1.1,1.1h-0.2c-0.6,0-1.1-0.5-1.1-1.1
			C108.3,110,108.8,109.5,109.3,109.5z"/>
		<path class="st20" d="M106.8,103.3c1.4,0,1.4,2.1,0,2.1C105.5,105.5,105.5,103.3,106.8,103.3z"/>
		<path class="st20" d="M98,107.4c1.4,0,1.4,2.1,0,2.1C96.6,109.6,96.6,107.4,98,107.4z"/>
		<path class="st20" d="M103.9,115.2c0.6,0,1.1,0.5,1.1,1.1v0.2c0,0.6-0.5,1.1-1.1,1.1c-0.6,0-1.1-0.5-1.1-1.1v-0.2
			C102.8,115.7,103.3,115.2,103.9,115.2z"/>
		<path class="st20" d="M105.2,111.8v0.1c0,1.4-2.1,1.4-2.1,0v-0.1C103,110.4,105.2,110.4,105.2,111.8z"/>
		<path class="st20" d="M108.9,116.8c1.4,0,1.4,2.1,0,2.1C107.5,118.9,107.5,116.8,108.9,116.8z"/>
		<path class="st20" d="M108.4,121.3c1.4,0,1.4,2.1,0,2.1C107.1,123.5,107.1,121.3,108.4,121.3z"/>
		<path class="st20" d="M104.3,118.8c1.4,0,1.4,2.1,0,2.1C103,121,103,118.8,104.3,118.8z"/>
		<path class="st20" d="M102.5,125.2c1.4,0,1.4,2.1,0,2.1C101.1,127.3,101.1,125.2,102.5,125.2z"/>
		<path class="st20" d="M97.3,124.8c1.4,0,1.4,2.1,0,2.1C95.9,126.9,95.9,124.8,97.3,124.8z"/>
		<path class="st20" d="M99.8,131.6c0.6,0,1.1,0.5,1.1,1.1v0.2c0,0.6-0.5,1.1-1.1,1.1c-0.6,0-1.1-0.5-1.1-1.1v-0.2
			C98.7,132.1,99.2,131.6,99.8,131.6z"/>
		<path class="st20" d="M94.3,128.4c1.4,0,1.4,2.1,0,2.1C92.9,130.5,92.9,128.4,94.3,128.4z"/>
		<path class="st20" d="M93.2,133.2c1.4,0,1.4,2.1,0,2.1C91.8,135.3,91.8,133.2,93.2,133.2z"/>
		<path class="st20" d="M88.6,130.9c1.4,0,1.4,2.1,0,2.1C87.2,133,87.2,130.9,88.6,130.9z"/>
		<path class="st20" d="M82.7,129.5h0.2c0.6,0,1.1,0.5,1.1,1.1c0,0.6-0.5,1.1-1.1,1.1h-0.2c-0.6,0-1.1-0.5-1.1-1.1
			C81.7,130,82.1,129.5,82.7,129.5z"/>
		<path class="st20" d="M79.4,123.3c0.4-0.4,1.1-0.4,1.5,0c0.1,0.1,0.2,0.2,0.2,0.2c0.4,0.4,0.4,1.1,0,1.5c-0.4,0.4-1.1,0.4-1.5,0
			c-0.1-0.1-0.2-0.2-0.2-0.2C79,124.4,79,123.6,79.4,123.3z"/>
		<path class="st20" d="M75.3,124.6c0.4-0.4,1.1-0.4,1.5,0c0.1,0.1,0.2,0.2,0.2,0.2c0.4,0.4,0.4,1.1,0,1.5c-0.4,0.4-1.1,0.4-1.5,0
			c-0.1-0.1-0.2-0.2-0.2-0.2C74.9,125.7,74.9,125,75.3,124.6z"/>
		<path class="st20" d="M74.5,119.5h0.2c0.6,0,1.1,0.5,1.1,1.1c0,0.6-0.5,1.1-1.1,1.1h-0.2c-0.6,0-1.1-0.5-1.1-1.1
			C73.5,120,73.9,119.5,74.5,119.5z"/>
		<path class="st20" d="M68.3,122.8c0.4-0.4,1.1-0.4,1.5,0c0.1,0.1,0.2,0.2,0.2,0.2c0.4,0.4,0.4,1.1,0,1.5c-0.4,0.4-1.1,0.4-1.5,0
			c-0.1-0.1-0.2-0.2-0.2-0.2C67.9,123.9,67.8,123.2,68.3,122.8z"/>
		<path class="st20" d="M74,115.7c1.4,0,1.4,2.1,0,2.1C72.7,117.8,72.7,115.7,74,115.7z"/>
		<path class="st20" d="M87.9,127.7c1.4,0,1.4,2.1,0,2.1C86.6,129.9,86.6,127.7,87.9,127.7z"/>
		<path class="st20" d="M95.4,119.8c0.1-0.1,0.2-0.2,0.2-0.2c0.4-0.4,1.1-0.4,1.5,0c0.4,0.4,0.4,1.1,0,1.5c-0.1,0.1-0.2,0.2-0.2,0.2
			c-0.4,0.4-1.1,0.4-1.5,0C95,120.9,95,120.3,95.4,119.8z"/>
		<path class="st20" d="M100.5,117c0.6,0,1.1,0.5,1.1,1.1v0.5c0,0.6-0.5,1.1-1.1,1.1c-0.6,0-1.1-0.5-1.1-1.1v-0.5
			C99.4,117.5,99.9,117,100.5,117z"/>
		<path class="st20" d="M98.9,111.5c1.4,0,1.4,2.1,0,2.1C97.5,113.7,97.5,111.5,98.9,111.5z"/>
		<path class="st20" d="M101.1,105.6c0.6,0,1.1,0.5,1.1,1.1v0.2c0,0.6-0.5,1.1-1.1,1.1c-0.6,0-1.1-0.5-1.1-1.1v-0.2
			C100.1,106.1,100.6,105.6,101.1,105.6z"/>
		<path class="st20" d="M95,101.8c0.6,0,1.1,0.5,1.1,1.1v0.2c0,0.6-0.5,1.1-1.1,1.1c-0.6,0-1.1-0.5-1.1-1.1v-0.2
			C93.9,102.3,94.4,101.7,95,101.8z"/>
		<path class="st20" d="M91.8,98.3h0.5c0.6,0,1.1,0.5,1.1,1.1c0,0.6-0.5,1.1-1.1,1.1h-0.5c-0.6,0-1.1-0.5-1.1-1.1
			C90.8,98.8,91.2,98.3,91.8,98.3z"/>
		<path class="st20" d="M85.9,103.3h0.2c0.6,0,1.1,0.5,1.1,1.1c0,0.6-0.5,1.1-1.1,1.1h-0.2c-0.6,0-1.1-0.5-1.1-1.1
			C84.8,103.8,85.3,103.3,85.9,103.3z"/>
		<path class="st20" d="M92.5,106.3c1.4,0,1.4,2.1,0,2.1C91.1,108.4,91.1,106.3,92.5,106.3z"/>
		<path class="st20" d="M90.9,102.2c1.4,0,1.4,2.1,0,2.1C89.5,104.3,89.5,102.2,90.9,102.2z"/>
		<path class="st20" d="M95.2,109.5c1.4,0,1.4,2.1,0,2.1C93.9,111.6,93.9,109.5,95.2,109.5z"/>
		<path class="st20" d="M93.6,116.1c1.4,0,1.4,2.1,0,2.1C92.3,118.2,92.3,116.1,93.6,116.1z"/>
		<path class="st20" d="M86.3,112.8c0.1-0.1,0.2-0.2,0.2-0.2c0.4-0.4,1.1-0.4,1.5,0c0.4,0.4,0.4,1.1,0,1.5c-0.1,0.1-0.2,0.2-0.2,0.2
			c-0.4,0.4-1.1,0.4-1.5,0C85.9,113.9,85.8,113.2,86.3,112.8z"/>
		<path class="st20" d="M90.2,110.2c1.4,0,1.4,2.1,0,2.1C88.8,112.3,88.8,110.2,90.2,110.2z"/>
		<path class="st20" d="M85.7,108.6c1.4,0,1.4,2.1,0,2.1C84.3,110.7,84.3,108.6,85.7,108.6z"/>
		<path class="st20" d="M81.8,108.4c0.6,0,1.1,0.5,1.1,1.1v0.7c0,0.6-0.5,1.1-1.1,1.1c-0.6,0-1.1-0.5-1.1-1.1v-0.7
			C80.7,108.9,81.2,108.3,81.8,108.4z"/>
		<path class="st20" d="M79.4,103.7c0.1-0.1,0.2-0.2,0.2-0.2c0.4-0.4,1.1-0.4,1.5,0c0.4,0.4,0.4,1.1,0,1.5c-0.1,0.1-0.2,0.2-0.2,0.2
			c-0.4,0.4-1.1,0.4-1.5,0C79,104.7,79,104.1,79.4,103.7z"/>
		<path class="st20" d="M83.1,100.6c1.4,0,1.4,2.1,0,2.1C81.8,102.7,81.8,100.6,83.1,100.6z"/>
		<path class="st20" d="M78.8,99.5c1.4,0,1.4,2.1,0,2.1C77.5,101.6,77.4,99.5,78.8,99.5z"/>
		<path class="st20" d="M78.5,103.7v0.1c0,1.4-2.1,1.4-2.1,0v-0.1C76.4,102.4,78.5,102.4,78.5,103.7z"/>
		<path class="st20" d="M81.1,96.7c1.4,0,1.4,2.1,0,2.1C79.7,98.9,79.7,96.7,81.1,96.7z"/>
		<path class="st20" d="M83.8,93.1c1.4,0,1.4,2.1,0,2.1C82.5,95.2,82.5,93.1,83.8,93.1z"/>
		<path class="st20" d="M87.6,96.8l0.2-0.2c0.4-0.4,1.1-0.4,1.5,0c0.4,0.4,0.4,1.1,0,1.5l-0.2,0.2c-0.4,0.4-1.1,0.4-1.5,0
			C87.2,97.9,87.2,97.2,87.6,96.8z"/>
		<path class="st20" d="M90.4,93.3h0.2c0.6,0,1.1,0.5,1.1,1.1c0,0.6-0.5,1.1-1.1,1.1h-0.2c-0.6,0-1.1-0.5-1.1-1.1
			C89.4,93.8,89.8,93.3,90.4,93.3z"/>
		<path class="st20" d="M90.7,88.8c1.4,0,1.4,2.1,0,2.1C89.3,90.9,89.3,88.8,90.7,88.8z"/>
		<path class="st20" d="M84.3,89.9c1.4,0,1.4,2.1,0,2.1C82.9,92,82.9,89.9,84.3,89.9z"/>
		<path class="st20" d="M79.3,90.6c0.6,0,1.1,0.5,1.1,1.1v0.2c0,0.6-0.5,1.1-1.1,1.1c-0.6,0-1.1-0.5-1.1-1.1v-0.2
			C78.2,91.1,78.7,90.6,79.3,90.6z"/>
		<path class="st20" d="M78.5,86.8c0.4-0.4,1.1-0.4,1.5,0c0.1,0.1,0.2,0.2,0.2,0.2c0.4,0.4,0.4,1.1,0,1.5c-0.4,0.4-1.1,0.4-1.5,0
			c-0.1-0.1-0.2-0.2-0.2-0.2C78.1,87.9,78.1,87.2,78.5,86.8z"/>
		<path class="st20" d="M75.6,84.7c1.4,0,1.4,2.1,0,2.1C74.3,86.8,74.3,84.7,75.6,84.7z"/>
		<path class="st20" d="M78.6,83.1c1.4,0,1.4,2.1,0,2.1C77.2,85.2,77.2,83.1,78.6,83.1z"/>
		<path class="st20" d="M74.6,89.5c0,0.1,0,0.2,0,0.3c0.1,0.2,0.3,0.5,0.5,0.6c0.3,0.1,0.5,0.2,0.9,0.1c0.2,0,0.4-0.2,0.5-0.3
			c0.2-0.2,0.3-0.5,0.3-0.8c0-0.3-0.1-0.6-0.3-0.8c-0.2-0.2-0.5-0.3-0.8-0.3c-0.2,0-0.4,0.1-0.6,0.2c-0.2,0.1-0.4,0.4-0.5,0.6
			C74.6,89.3,74.6,89.4,74.6,89.5z"/>
	</g>
	<path class="st21" d="M101.7,85.7c0.8-0.8,1.8-1.3,2.8-1.6c-0.7-0.8-1.5-1.6-2.2-2.4c-0.4-0.4,0.2-0.9,0.6-0.6
		c0.9,0.9,1.8,1.9,2.6,2.9c0.3,0.2,0.4,0.7,0,0.7c-1.2,0.2-2.3,0.7-3.2,1.5C101.9,86.6,101.3,86,101.7,85.7z"/>
	<path class="st22" d="M98.7,92.9c0.2-0.2,0.5-0.4,0.7-0.6c0-0.2,0.1-0.4,0.2-0.6c-0.2-0.2-0.3-0.5-0.4-0.8c-0.1-0.3,0-0.9-0.3-1.1
		c-0.7-0.3-0.1-1.4,0.6-1.1c0.4,0.2,0.6,0.4,0.7,0.8c0.1,0.2,0.3,1.1,0.2,1.3c0,0,0.1,0,0.1-0.1c0.1,0,0.1,0,0.2-0.1
		c-0.1-1.1-0.4-2.3-0.8-3.4c-0.2-0.5,0.6-0.7,0.8-0.2c1,3.1,1.2,6.3,0.5,9.5c-0.1,0.5-0.9,0.3-0.8-0.2c0.3-1.4,0.4-2.9,0.4-4.3
		c-0.1,0.1-0.1,0.2-0.1,0.3c0.1,0.2,0.2,0.5-0.1,0.7c-0.4,0.4-0.9,0.6-1.5,0.7C98.6,94,98.3,93.2,98.7,92.9z"/>
	<path class="st21" d="M83.6,97.4c1.8,1.9,4.3,1.8,6.7,1.6c0.5,0,0.5,0.8,0,0.8C87.7,100,85,100,83,98C82.7,97.6,83.2,97,83.6,97.4z
		"/>
	<path class="st21" d="M71.6,89c0.3-1.2,0.8-2.2,1.5-3.2c0.3-0.4,0.9,0.2,0.6,0.6c-0.5,0.6-0.9,1.3-1.1,2.1c2.5,0.2,4.6,3,5.8,4.9
		c0.3,0.4-0.4,0.8-0.7,0.4c-1.2-1.7-3.1-4.5-5.4-4.5C72.3,89.7,71.5,89.5,71.6,89z"/>
	<path class="st21" d="M101.1,97.3c5.2,4.6,10.6,9.4,12.6,16.3c0.1,0.5-0.6,0.7-0.8,0.2c-2-6.7-7.3-11.5-12.4-16
		C100.2,97.5,100.8,96.9,101.1,97.3z"/>
	<path class="st21" d="M81.7,113c2.1,2.9,5.2,4.9,8.7,5.8c0.5,0.1,0.3,0.9-0.2,0.8c-3.7-0.9-6.9-3.1-9.2-6.1
		C80.7,112.9,81.4,112.5,81.7,113z"/>
	<path class="st21" d="M106.7,131.1c2.3-0.7,3.5-2.9,2.8-5.2c-0.2-0.5,0.6-0.7,0.8-0.2c0.9,2.7-0.6,5.4-3.3,6.2
		C106.5,132,106.2,131.2,106.7,131.1z"/>
	<path class="st21" d="M68.1,124.6c6.8,0.4,12.4,4.5,17.7,8.5c0.2,0.2,0.2,0.5,0,0.7c0,0.3-0.3,0.6-0.6,0.4
		c-5.1-3.8-10.5-7.8-17.1-8.1c-0.4,0-0.5-0.4-0.3-0.7C67.6,125.1,67.6,124.5,68.1,124.6z"/>
	<path class="st21" d="M96.9,168.1c1.3-7.8,3.6-15.3,6.8-22.6c0.2-0.5,0.9-0.1,0.7,0.4c-3.1,7.2-5.4,14.7-6.7,22.4
		C97.6,168.9,96.8,168.6,96.9,168.1z"/>
	<path class="st21" d="M93,143.9c1.1,6.9,1.6,13.9,1.4,20.8c0,0.5-0.8,0.5-0.8,0c0.2-6.9-0.3-13.8-1.4-20.6
		C92.2,143.7,92.9,143.4,93,143.9z"/>
	<path class="st21" d="M76.6,144.3c1.4,2.3,2.6,4.6,3.6,7.1c0.2,0.5-0.6,0.7-0.8,0.2c-1-2.4-2.1-4.7-3.5-6.9
		C75.7,144.3,76.4,143.9,76.6,144.3z"/>
	<path class="st21" d="M95.2,189.9c1.5,0.9,2.8,2.2,3.8,3.6c0.3,0.4-0.4,0.8-0.7,0.4c-0.9-1.4-2.1-2.5-3.5-3.3
		C94.3,190.3,94.7,189.6,95.2,189.9z"/>
	<path class="st21" d="M89.8,192.2c1.1,1,2.1,2,3.2,3c0.4,0.4-0.2,0.9-0.6,0.6c-1.1-1-2.1-2-3.2-3C88.9,192.4,89.4,191.8,89.8,192.2
		z"/>
	<path class="st21" d="M93.3,187.7c0,0.7,0.1,1.4,0.1,2.1c0,0.5-0.8,0.5-0.8,0c0-0.7-0.1-1.4-0.1-2.1
		C92.5,187.2,93.3,187.2,93.3,187.7z"/>
	<path class="st21" d="M88.2,188.7c0.1,0.7,0.2,1.4,0.3,2.1c0.1,0.5-0.7,0.7-0.8,0.2c-0.1-0.7-0.2-1.4-0.3-2.1
		C87.4,188.4,88.1,188.2,88.2,188.7z"/>
	<path class="st21" d="M85.5,185.4c0.8-2,1.8-4,3-5.9c0.3-0.4,1,0,0.7,0.4c-0.3,0.4-0.5,0.9-0.8,1.3c0,0,0,0,0,0
		c0,0.1-0.1,0.2-0.1,0.2c0,0,0,0.1-0.1,0.1c-0.1,0.2-0.2,0.4-0.3,0.6c0.2,0.1,0.3,0.2,0.2,0.4c-0.3,1.1-0.8,2.1-1.5,3.1
		c-0.2,0.2-0.4,0.2-0.6,0.1C85.7,185.9,85.4,185.7,85.5,185.4z"/>
	<path class="st21" d="M79.1,52.5c10-1.8,20.3-1.6,30.2,0.5c0.4,0.1,0.3,0.8-0.1,0.7c-9.9-2.1-20.1-2.2-30-0.5
		C78.7,53.3,78.7,52.6,79.1,52.5z"/>
	<path class="st21" d="M92.6,77.3c8-2.9,14.6-8.8,18.7-16.2c0.2-0.4,0.8-0.1,0.6,0.3C107.8,69,101,75,92.9,78
		C92.4,78.2,92.2,77.5,92.6,77.3z"/>
	<path class="st21" d="M88.8,22.6c0.3,4.4,4.9,6,8.4,7.1c3,0.9,6.1,1.9,8,4.6c0.3,0.4-0.3,0.8-0.6,0.4c-2.4-3.3-6.7-3.8-10.3-5.2
		c-3-1.2-6-3.4-6.2-6.9C88.1,22.2,88.8,22.1,88.8,22.6z"/>
	<path class="st21" d="M65.9,26.2c5.2,2.6,11,3.4,16.6,2.4c0.4-0.1,0.5,0.6,0,0.7c-5.8,1-11.7,0.1-17-2.5
		C65.2,26.6,65.5,26,65.9,26.2z"/>
	<path class="st21" d="M60.4,50c3.9-4.9,5.6-11.2,4.5-17.4c-0.1-0.4,0.6-0.5,0.7,0c1.1,6.3-0.6,12.9-4.7,17.9
		C60.6,50.8,60.1,50.4,60.4,50z"/>
	<path class="st21" d="M114,48.5c0.3-1.2,1.4-2.1,2.7-2c1.3,0.1,2.2,1.3,2.2,2.5c0,0.5-0.7,0.5-0.7,0c-0.1-2.1-3-2.5-3.6-0.4
		C114.6,49.1,113.9,48.9,114,48.5z"/>
	<path class="st21" d="M54.5,58.4c0.2-1.6,1.9-2.2,3.2-1.4c0.4,0.3-0.1,0.8-0.5,0.5c-0.9-0.6-1.9,0-2.1,1
		C55.1,59,54.4,58.8,54.5,58.4z"/>
	<path class="st21" d="M96.2,45.9c0.5,0,0.5,0.7,0,0.7C95.8,46.6,95.8,45.9,96.2,45.9z"/>
	<path class="st21" d="M84.2,84c0.7,1.7,2.2,2.8,3.8,3.6c1.5,0.8,3.8,2.2,5.3,0.8c0.4-0.3,0.9,0.2,0.6,0.6c-1.5,1.4-3.4,0.8-5,0
		c-2.2-1-4.4-2.2-5.4-4.6C83.3,84,84,83.6,84.2,84z"/>
	<path class="st21" d="M76.6,6.5c6.3-2,13.3-4,19.8-1.5c3,1.2,5.3,3.4,7.4,5.8c2.2,2.7,4.2,5.5,6.1,8.5c2.1,3.3,4,6.8,5.6,10.4
		c0.2,0.4-0.5,0.6-0.7,0.2c-1.8-3.9-3.8-7.7-6.2-11.3c-2.2-3.4-4.6-6.9-7.5-9.7c-6.8-6.6-16.2-4.2-24.2-1.7
		C76.4,7.3,76.2,6.6,76.6,6.5z"/>
	<path class="st21" d="M53.6,20.6c0.3-0.3,0.8,0.1,0.5,0.5c-4.5,5-4.2,12-3.7,18.3c0.6,7,1.1,13.9,1.7,20.9c0,0.5-0.7,0.5-0.7,0
		c-0.6-7.4-1.3-14.8-1.8-22.2C49.1,32,49.3,25.4,53.6,20.6z"/>
	<g>
		<path class="st23" d="M66,15.3c-2,4,3.6,7.1,6.5,8.7c1.7,0.9,3.6,1.7,5.6,1.8c2,0.2,3.6-0.4,5.4-1c0.1,0,0.2,0.1,0.1,0.2
			c-3.5,2.8-9,0.8-12.3-1.2c-1.8-1.1-3.9-2.4-5.1-4.1C65.3,18.4,64.8,16.6,66,15.3C66,15.3,66.1,15.3,66,15.3L66,15.3z"/>
	</g>
	<g>
		<path class="st23" d="M89.6,17.1c1.1,8.8,11,10.3,17.1,14.4c2.6,1.8,4.9,4.1,6.6,6.8c1.7,2.6,3.2,5.9,3.4,9c0,0.1-0.2,0.1-0.2,0
			c-0.5-1.7-0.8-3.5-1.5-5.2c-0.7-1.6-1.6-3.2-2.6-4.7c-2.2-3.1-5.2-5.6-8.6-7.4c-3.4-1.7-7-3-10-5.4c-2.3-1.9-4.3-4.6-4.3-7.7
			C89.4,17,89.5,17,89.6,17.1L89.6,17.1z"/>
	</g>
	<g>
		<path class="st23" d="M61.4,23.8c1.7,5.1,1.5,10.8-0.1,15.9c-0.8,2.5-1.9,4.9-3.4,7.1c-0.7,1.1-1.5,2.1-2.3,3
			c-0.8,1-1.9,2.3-3.1,2.8c-0.1,0.1-0.4-0.1-0.2-0.2c0.6-0.9,1.6-1.6,2.4-2.4c0.9-1,1.8-2.1,2.6-3.3c1.5-2.2,2.6-4.6,3.4-7.1
			C62.4,34.4,62.4,29,61.4,23.8C61.3,23.7,61.4,23.7,61.4,23.8L61.4,23.8z"/>
	</g>
	<g>
		<path class="st23" d="M70.6,14.8c3.6-7.4,13.7-9.8,21-7.7c9.2,2.6,15.6,10.7,19.3,19.1c2.5,5.7,4.4,12,5.5,18.2
			c0,0.1-0.1,0.2-0.2,0.1c-1.5-5-2.6-10-4.4-14.9c-1.7-4.7-4-9.2-7.3-13C99,9.8,90.7,5.2,81.9,7.1c-4.7,1-8.5,3.7-11.2,7.7
			C70.6,14.9,70.5,14.9,70.6,14.8L70.6,14.8z"/>
	</g>
	<g>
		<path class="st23" d="M117.4,56.1c-0.2,2.2-1.8,4.7-2.9,6.6c-1.4,2.4-2.8,4.8-4,7.3c-1.1,2.5-2,5.3-2,8.1c0,1.2,0.2,2.4,0.5,3.6
			c0.4,1.3,1.1,2.4,1.8,3.6c0.1,0.2-0.1,0.3-0.2,0.2c-1.6-1.4-2.3-3.9-2.5-6c-0.3-2.6,0.2-5.3,1.1-7.7c1-2.6,2.4-5.1,3.7-7.5
			c0.8-1.3,1.5-2.7,2.2-4c0.7-1.3,1.1-2.9,2-4.1C117.2,56,117.4,56,117.4,56.1L117.4,56.1z"/>
	</g>
	<g>
		<path class="st23" d="M54.3,59.5c0.1,5.6,3.3,9.9,5.6,14.8c1.6,3.4,2.9,8.6,0.3,11.9c-0.2,0.2-0.4-0.1-0.3-0.3
			c1.1-2.5,1.5-4.7,0.9-7.3c-0.5-2.4-1.6-4.5-2.7-6.6c-2-3.8-4.7-8-4.2-12.5C54,59.2,54.3,59.2,54.3,59.5L54.3,59.5z"/>
	</g>
	<g>
		<path class="st23" d="M61.7,19.3c0.2-8,7.9-12.3,14.6-14.2c7.5-2.1,16.8-4.4,23.9,0.1c3.1,2,5.5,4.9,7.6,7.8
			c2.4,3.4,4.7,7,6.8,10.6c2.1,3.7,3.8,7.7,4.6,11.9c0.9,4.4,0.9,9,0.7,13.5c-0.2,5.2-0.8,10.4-1.7,15.5c-0.5,2.6-1,5.2-1.6,7.7
			c-0.7,2.8-1.2,6.3,1.5,8.1c0.3,0.2,0,0.7-0.3,0.5c-3.2-1.9-2.5-6-1.7-9c1.1-4.5,2-9.1,2.5-13.7c1.1-8.7,1.8-18.3-1.1-26.7
			c-1.4-4-3.5-7.7-5.8-11.3c-2.1-3.3-4.2-6.7-6.7-9.7c-2.5-3-5.6-5.5-9.4-6.5c-4.3-1.1-8.7-0.4-13,0.5c-8.2,1.7-20,4.7-20.6,14.9
			C62,19.5,61.7,19.5,61.7,19.3L61.7,19.3z"/>
	</g>
	<g>
		<path class="st23" d="M61.4,19.5c-4.7-2.6-9.7,0.8-11.6,5.2c-2,4.8-1.3,10.2-1,15.3c0.4,5.5,0.9,10.9,1.7,16.3
			c0.8,5.2,2.2,10.3,3.1,15.5c0.8,4.3,1.3,10.5-2.1,14c-0.1,0.1-0.3,0-0.3-0.2c1.2-2.5,2.1-4.8,2.2-7.6c0.1-2.8-0.3-5.6-1-8.4
			c-1.2-5.4-2.4-10.7-3.1-16.1c-0.7-5.6-1.2-11.3-1.4-16.9c-0.2-4.8-0.4-10,2.4-14.1c2.4-3.5,7.1-5.6,11-3.3
			C61.8,19.3,61.6,19.6,61.4,19.5L61.4,19.5z"/>
	</g>
	<g>
		<path class="st23" d="M66.9,28.6c3.1,2,6.4,3.3,10.2,3c3.7-0.3,6.5-2,9.4-4.1c0.1-0.1,0.2,0.1,0.1,0.2c-2.2,2.7-6.2,4.1-9.5,4.3
			c-3.6,0.2-7.6-0.8-10.4-3.2C66.6,28.7,66.7,28.5,66.9,28.6L66.9,28.6z"/>
	</g>
	<g>
		<path class="st23" d="M66.1,29.2c3.6,8,0.2,18.7-6.9,23.6c-0.1,0.1-0.3-0.1-0.2-0.2c3.1-2.8,5.6-6,6.9-10
			C67.4,38.2,67.1,33.8,66.1,29.2C66.1,29.2,66.1,29.2,66.1,29.2L66.1,29.2z"/>
	</g>
	<g>
		<path class="st23" d="M88.5,26.4c2.8,3.9,7,5,11.3,6.4c3.6,1.2,7.3,2.8,9.2,6.3c0.1,0.1-0.1,0.2-0.2,0.1
			c-2.4-3.9-7.1-5.2-11.2-6.6c-3.4-1.1-7.6-2.7-9.3-6.1C88.3,26.4,88.4,26.3,88.5,26.4L88.5,26.4z"/>
	</g>
	<g>
		<path class="st24" d="M68.3,16.4c1.9,2.8,4.6,4.8,7.7,6.1c1.5,0.6,3,1,4.6,1.1c1.6,0.1,3.1-0.1,4.6-0.1c0.2,0,0.2,0.2,0,0.3
			c-2.9,1.2-6.9,0.4-9.7-0.8c-3.1-1.3-5.8-3.5-7.7-6.4C67.7,16.4,68.1,16.2,68.3,16.4L68.3,16.4z"/>
	</g>
	<g>
		<path class="st24" d="M64.6,21.2c2.2,2.4,4.6,4.4,7.6,5.4c3.1,1.1,6.2,1.1,9.4,0.6c0.1,0,0.2,0.2,0.1,0.2
			c-5.9,2.1-14-0.8-17.2-6.2C64.4,21.2,64.5,21.1,64.6,21.2L64.6,21.2z"/>
	</g>
	<g>
		<path class="st24" d="M93.4,14.6c0.3,3.4,1.7,6.1,4.2,8.5c2.3,2.3,5.2,3.8,7.9,5.6c4.4,2.8,9.4,6.9,9,12.8c0,0.2-0.2,0.2-0.2,0
			c-0.4-7-6.8-10.7-12.1-14.1c-4.2-2.7-9.7-7.1-9.1-12.7C93.1,14.4,93.4,14.4,93.4,14.6L93.4,14.6z"/>
	</g>
	<g>
		<path class="st24" d="M59,24.1c1.4,4.5,1.3,9.3,0.5,13.9c-0.4,2.4-1.1,4.6-2,6.9c-0.8,2.1-1.8,4.3-3.4,6c-0.1,0.1-0.3,0-0.3-0.1
			c0.9-2.1,2.1-3.9,2.9-6c0.9-2.1,1.5-4.4,1.9-6.7c0.9-4.6,0.6-9.3,0.1-13.9C58.9,24,59,24,59,24.1L59,24.1z"/>
	</g>
	<g>
		<path class="st24" d="M53.9,60.3c0.1,2.8,0.6,5.2,1.8,7.7c1,2,2.1,4,3.1,6.1c1.4,3.1,2.6,7.8,0.1,10.7c-0.1,0.1-0.3,0-0.3-0.2
			c0.8-2.2,1.3-4.2,0.8-6.6c-0.4-2.2-1.4-4.3-2.5-6.3c-1.8-3.4-4.3-7.5-3.5-11.5C53.5,60,53.9,60.1,53.9,60.3L53.9,60.3z"/>
	</g>
	<g>
		<path class="st24" d="M117,60.1c-1,3.9-3.5,7.2-5,10.9c-0.7,1.8-1.3,3.7-1.4,5.6c-0.1,1.1-0.1,2.1,0.2,3.2
			c0.2,0.9,0.6,1.8,0.8,2.7c0,0.2-0.2,0.3-0.3,0.2c-1.1-1.2-1.3-3.2-1.3-4.8c0-2,0.4-4.1,1.1-6c0.7-2,1.7-3.8,2.6-5.7
			c1.1-2,2-4.1,2.9-6.2C116.7,59.7,117.1,59.8,117,60.1L117,60.1z"/>
	</g>
	<path class="st13" d="M65.1,125.3c0.8,0.1,2.6,0.3,4.4-0.6c2.4-1.1,3.7-3.2,4.2-4.5c0.6,0.6,1.2,1.2,1.8,1.8c0,0.1,0,0.1,0.1,0.2
		c2.8,3.6,7.2,5.6,11.7,5.5c0.2,0,0.3-0.1,0.3-0.2c0.5,0.2,0.9,0.2,1.1,0c0.1-0.1,0.3-0.4,0.2-1c0.6,0.7,1.6,0.8,2.1,0.3
		c0.3-0.3,0.4-0.8,0.2-1.3c0.5,0.4,1.2,0.3,1.4-0.1c0.2-0.3,0.1-0.7-0.2-1c0.2,0,1.3,0,1.6-0.6c0.1-0.3,0-0.6-0.3-1.1
		c-0.2-0.5-0.6-1.3-1.1-2.4c0.6,0,1.1-0.3,1.1-0.7c0-0.4-0.6-0.7-0.6-0.8c-0.1-0.1-0.2-0.1-0.4-0.1c0-0.1,0-0.3-0.2-0.3
		c-4.1-1.9-8.3-4-11.1-7.7c-1.6-2-2.7-4.6-2.7-7.2c0-0.1,0-0.2,0-0.2c0-1.6,0.4-3.2,1.3-4.7c1.1-1.5,2.4-2.9,3-4.4
		c0.6-1.5,0.8-3.1,0.7-4.7c-0.1-0.8-0.3-1.6-0.5-2.4c-0.2-0.6-0.7-1.4-0.9-2.2c0.2-0.1,0.3-0.2,0.2-0.5c-0.1-0.5,0.4-0.9,0.8-0.9
		c0.2,0,0.3-0.1,0.4-0.3c0,0,0,0,0,0c0-0.2,0.1-0.6-0.2-0.9c-0.1-0.2-0.4-0.4-1.2-0.4c-1.2-0.1-2.5,0.4-3.3,0.7c-0.1,0-0.3,0-0.4,0
		c-0.2-0.1-0.4-0.1-0.5,0c-1.8,0.2-3.3,1.2-4.4,2.6c-0.2,0.3,0.2,0.8,0.5,0.5c1.1-0.7,5.7-0.2,7.1,0.2c1.7,11.6-3.6,6.7-5,12.5
		c-1.2,4.8-0.6,5.9,0.1,7.7c1.7,4.1,5.3,7.2,7.4,8.4c2.4,1.3,3.3,2.1,5,2.5c0.9,0.5,1.9,1,2.9,1.4c-0.5,0.2-0.9,0.5-1,0.8
		c0,0.1,0,0.4,0.2,0.7c0.1,0,0.4,0.1,0.6,0.2c0.6,0.4,0.9,1.2,0.6,1.7c-0.2,0.5-0.6,0.5-0.7,0.9c-0.1,0.4,0.1,0.8,0.4,1.1
		c-0.5-0.1-1-0.1-1.5-0.2c0,0.4,0.1,0.9,0.1,1.3c-0.7-0.2-1.5-0.4-2.2-0.6c-0.1,0.1-0.3,0.2-0.5,0.3c-0.4,0.1-0.7,0-1-0.1
		c0,0,0,0,0,0c-2.4-1.4-4.2-2.7-5.6-3.7c-3.5-2.7-5.8-4.4-7.2-7.5c-0.8-1.7-1.1-0.3-1.3-1.4c0,1.6-0.2,1-1.3,3.8
		c-1.4,3.5-3.5,5.7-4.7,6.9C66.2,123.8,65.7,124.5,65.1,125.3z M77.5,83.9c-0.1,0.1-0.1,0.1-0.1,0.2c-0.2,0-0.5,0-0.7,0
		C76.9,84.1,77.2,84,77.5,83.9z M86.4,126.8c-0.1,0-0.3,0-0.4,0c0-0.1,0-0.2-0.1-0.3C86.1,126.6,86.2,126.7,86.4,126.8z"/>
	<path class="st13" d="M94.2,83.7c0.3,0.4,1.2,1.8,0.9,3.2c-0.3,1.2-1.4,1.8-1.2,2c0.1,0.1,1.3-0.3,1.9-1.3c0.1-0.1,0.2-0.3,0.6-2
		c0.2-0.8,0.2-1.2,0.4-1.4c1,0.3,2,0.8,2.9,1.4c0,0.1,0.1,0.1,0.1,0.1c0.1,0.1,0.2,0.1,0.3,0.2c0.1,0.1,0.3,0.1,0.4,0
		c0.2,0.4,0.4,0.8,0.5,1.2c0.1,0.5,0.9,0.3,0.8-0.2c-0.1-0.6-0.4-1.1-0.7-1.6c-0.2-0.3-0.4-0.7-0.6-1c-0.3-0.6-0.5-2.2,0.7-1.9
		c0.5,0.1,0.7-0.7,0.2-0.8c0,0-0.1,0-0.1,0c1.1-0.3,2.2,0.3,2.2,0.2c0-0.1-1.4-1-3.3-1.4c-0.9-0.2-3.6-0.7-4.6,0.6
		c-0.2,0.2-0.3,0.5-0.3,0.6c-1.4-0.1-2.8-0.1-4.1-0.2C91.5,81.6,93.1,82.1,94.2,83.7z"/>
	<path class="st13" d="M82,131.7c1.4,0.7,2.8,1.3,4.3,2c0.2,0.1,0.3,0,0.5-0.1c1.4,0.8,2,1.1,3,1.3c3.2,0.7,6.3,0.1,7.5-0.2
		c2-0.4,4.1-1.2,6.6-1.3c1,0,2,0,2,0c1.3,0.1,2.3,0.2,3.1,0.4c0.1-0.8,0.1-1.7,0.2-2.5c-1.5,0.7-2.7,0.8-3.4,0.8
		c-1.1,0-3.2-0.3-3.8-1.3c-0.4-0.6-0.1-1.4,0.3-1.8c0.3-0.3,0.4-0.6,0.6-1c0.2-0.3,0.7,0,0.9-0.3c0.4-0.6,2-0.1,2.1-0.5
		c0.1-0.3-0.8-0.7-0.7-1.1c0.1-0.4,1-0.3,2.5-0.6c0.8-0.1,1.4-0.3,1.8-0.4c1.2-1.2,4.6-5.2,4.4-10.7c0-0.5-0.1-0.9-0.1-1.4
		c-0.3-1.2-0.6-2.4-0.9-3.4c-0.2-0.4-0.4-0.8-0.5-1.2c0.5,2.3,0.9,5.6,0.2,8.5c0,0-0.1,0.1-0.1,0.1c-3.2,5.6-10.2,7.4-15.8,4.1
		c-0.3-0.2-0.5,0-0.6,0.3c-0.2,0.1-0.4,0.3-0.2,0.6c1.5,3-1,6.4-4.4,5.9c-0.1,0-0.2,0-0.3,0.1c-0.3-0.2-0.5-0.3-0.8-0.5
		c0.2,0.3,0.4,0.6,0.6,0.8c0,0.1,0.1,0.3,0.3,0.3c0.7,0.9,1.4,1.6,2.1,2.3c0.5,0.5,0.8,0.7,0.8,1c0,0-0.1,0-0.2,0
		c-3.9,1.1-8.1,0.6-11.5-1.6c-0.4-0.2-0.7,0.3-0.5,0.6C81.8,131.3,81.8,131.6,82,131.7z M93.1,129c-0.2,0-0.3-0.1-0.4-0.2
		c0.1,0,0.3,0,0.4-0.1C93.1,128.9,93.1,128.9,93.1,129z M108.8,122c0.7-0.4,1.4-0.9,2-1.5c-0.1,0.1-0.2,0.2-0.3,0.3
		C109.9,121.4,109.4,121.7,108.8,122z M101.1,124.9c-0.1,0.2-0.2,0.3-0.2,0.5c0-0.1,0-0.3,0-0.4c0,0,0-0.1,0-0.1
		C100.9,124.9,101,124.9,101.1,124.9z M101.6,125.7c0.2-0.4,0.4-0.8,0.6-1.2c0.1,0,0.1,0,0.2,0C102.1,124.9,101.9,125.3,101.6,125.7
		z M100.6,127.9c0.6-0.5,1.1-1,1.5-1.6C101.7,126.9,101.2,127.4,100.6,127.9z"/>
	<path class="st13" d="M97.2,95.5c1.1,0.5,2.1,1.1,3,2c0.4,0.4,0.9-0.2,0.6-0.6c-0.1-0.1-0.1-0.1-0.2-0.2c0.1,0,0.1,0,0.2,0
		c0.1,0.1,0.3,0,0.5-0.1c0.2-0.2,0.2-0.4,0.2-0.6c0.2-0.1,0.2-0.3,0.2-0.4c0.1-0.2-0.1-0.6-0.4-0.6l-0.7,0c0-0.1-0.2-0.2-0.4-0.2
		c-0.9,0.1-1.8,0-2.7-0.1C97.1,94.7,96.8,95.3,97.2,95.5z"/>
	<path class="st12" d="M101.9,130.6c0.2,0.8,1,1.2,1.7,1.4c0.4,0.2,0.7-0.5,0.3-0.7c-0.4-0.2-0.8-0.6-1-1c0.2-0.1,0.4-0.3,0.6-0.4
		c0,0.1,0.6,0.3,0.6,0.3c0.2,0,0.4,0,0.6-0.1c0.5-0.4,0.1-1.1-0.3-1.6c0.8-0.1,1.5-0.1,2.3,0.2c0.3,0.1,0.6-0.3,0.5-0.6
		c-0.1-0.2-0.3-0.4-0.4-0.7c0.5,0.2,0.9,0.4,1.3,0.2c0.5-0.2,0.5-0.6,0.4-1.1c0,0,0,0,0,0c0.5-0.1,0.5-0.9,0-0.8c-0.2,0-0.4,0-0.6,0
		c-0.3,0-0.5,0.3-0.3,0.6c0.3,0.5-0.8,0-0.8,0c-0.3-0.1-0.6-0.3-0.9-0.4c-0.3-0.2-0.8,0.2-0.5,0.5c0.2,0.4,0.5,0.8,0.7,1.1
		c-0.6-0.1-1.2-0.1-1.8,0.1c-0.2-0.2-0.5-0.2-0.7,0C102.8,128.5,101.7,129.6,101.9,130.6z M103.4,129C103.4,129,103.4,129,103.4,129
		c0-0.1,0.1-0.1,0.1-0.2c0.1,0.1,0.1,0.2,0.2,0.3c0,0,0,0,0,0.1C103.7,129.1,103.6,129,103.4,129z"/>
	<path class="st25" d="M104.8,85.3c0-0.3,0.4-0.6,0.7-0.4c0.3,0.1,0.2,0.6-0.1,0.5c-0.1,0,0.1,0.2,0.1,0.2c0.1,0.1,0.1,0.2,0.2,0.3
		c0.1,0.1,0.2,0.1,0.2,0.1c0.1,0,0.2,0,0.2-0.1c-0.1-0.3,0.4-0.4,0.5-0.1c0.1,0.3-0.1,0.6-0.4,0.7c-0.3,0.1-0.7,0-0.9-0.2
		C105.1,86,104.8,85.6,104.8,85.3z"/>
	<path class="st25" d="M102.5,86.8c0.2,0.5,0.8,0.5,1.1,0.2c0.4-0.4,0.4-0.9,0.3-1.4c0-0.3,0.4-0.5,0.5-0.1c0.1,0.8,0,1.7-0.8,2.2
		c-0.6,0.3-1.4,0-1.6-0.6C102,86.7,102.5,86.5,102.5,86.8z"/>
	<path class="st25" d="M77,95.6c-0.2-0.3-0.4-0.6-0.3-1c0,0,0,0,0,0c0,0,0,0,0,0c0,0,0,0,0-0.1c0-0.3,0.5-0.2,0.5,0.1
		c0,0.3,0.1,0.5,0.3,0.8c0.2,0.2,0.5,0.2,0.8,0.2c0.3-0.1,0.4,0.4,0.1,0.5c-0.4,0.1-0.7,0-1-0.1c-0.1,0-0.1,0-0.2-0.1
		C77.1,95.7,77,95.7,77,95.6z"/>
	<path class="st25" d="M74.8,91.6c0-0.3,0.5-0.3,0.5,0c0,0.5-0.1,1,0.1,1.4c0.2,0.4,0.6,0.8,1.1,0.6c0.3-0.1,0.5,0.3,0.3,0.4
		c-0.5,0.3-1.1,0.1-1.5-0.4C74.7,93.1,74.7,92.3,74.8,91.6z"/>
	<path class="st25" d="M72.6,90.2c0.1-0.3,0.6,0,0.4,0.3c-0.4,0.8,0.8,1.5,1.3,0.7c0.2-0.3,0.6,0,0.4,0.3c-0.4,0.5-1.1,0.8-1.7,0.4
		C72.5,91.5,72.4,90.8,72.6,90.2z"/>
	<path class="st25" d="M71.2,89.9c0.1-0.1,0.2-0.1,0.3-0.1c0.1-0.1,0.2-0.1,0.3-0.1c0.1,0,0.3,0.1,0.4,0.2c0,0,0.1,0.1,0.1,0.2
		c0.1,0,0.3,0.2,0.2,0.4c0,0,0,0,0,0.1c0,0.1,0,0.1,0,0.2c-0.1,0.1-0.2,0.2-0.3,0.2c-0.1,0-0.1-0.1-0.2-0.1c-0.1,0.1-0.3,0.1-0.4,0
		C71.1,90.7,71,90.2,71.2,89.9z"/>
	<path class="st26" d="M113.6,58.2c0,0.1-0.1,0.2,0,0.2c0.3,0.5,0.9,0.8,1.4,0.5c0.1,0,0.1,0,0.2,0c0.6-0.1,0.8-0.8,0.7-1.3
		c0-0.1-0.1-0.2-0.1-0.3c0-0.1-0.1-0.3-0.1-0.4c-0.1-0.2-0.3-0.1-0.4,0c0,0-0.1,0-0.1-0.1c0,0,0-0.1,0-0.1c-0.1-0.1-0.3-0.1-0.4,0
		c-0.1,0-0.2,0-0.2,0c-0.6,0-1.3,0.6-1,1.3C113.5,58.1,113.5,58.2,113.6,58.2z"/>
	<path class="st26" d="M57.6,67.4c-0.1,0.6,0,1.4,0.7,1.4c0.3,0.3,0.7,0.4,1.1,0.2c0.1,0,0.1-0.1,0.2-0.1c0.2,0.2,0.5,0.2,0.8,0.2
		c0.1,0,0.2-0.1,0.2-0.2c0-0.5-0.1-0.9-0.4-1.2c0-0.1,0-0.2,0-0.3c-0.1-0.5-0.6-0.9-1.1-0.8c0,0,0,0,0,0c-0.4-0.2-0.8-0.3-1.2-0.1
		c0,0-0.1,0-0.1,0.1c0,0-0.1,0-0.1,0.1C57.4,66.8,57.4,67.2,57.6,67.4z M59.9,68.2c0.1,0.1,0.1,0.3,0.1,0.4c-0.1,0-0.2-0.1-0.3-0.1
		C59.8,68.4,59.9,68.3,59.9,68.2z"/>
	<path class="st27" d="M113.4,57.7c0-0.3,0.1-0.4,0.4-0.5c0.5-0.3,0.9-0.5,1.4-0.7c0.3-0.1,0.5,0.3,0.2,0.4
		c-0.4,0.2-0.8,0.4-1.2,0.6c-0.2,0.1-0.3,0.2-0.3,0.4c0,0.2,0.1,0.3,0.2,0.5c0.5,0.9,1.8,0.3,1.7-0.6c0-0.3,0.5-0.3,0.5,0
		c0,1.2-1.3,2-2.3,1.2C113.6,58.7,113.3,58.2,113.4,57.7z"/>
	<path class="st27" d="M57.2,67.6c0.2,0.3,0.5,0.6,0.7,0.8c0,0,0,0,0.1,0.1c0,0,0,0.1,0.1,0.1c0.2,0.1,0.4,0.2,0.5,0.2
		c0,0.1,0.1,0.1,0.2,0.1c0.3,0.3,0.8,0.4,1.2,0.1c0,0,0,0,0,0c0,0.1,0,0.2,0.1,0.2c0,0,0.1,0,0.1,0.1c0.1,0,0.2,0,0.3-0.1l0.1-0.1
		c0.1-0.1,0.1-0.2,0-0.3c0-0.2,0-0.4-0.2-0.6c0-0.5-0.4-0.9-0.8-1.2c0-0.1-0.1-0.2-0.1-0.2c-0.1-0.2-0.4-0.1-0.4,0
		c-0.1,0-0.3,0.1-0.2,0.3c0.1,0.3,0.2,0.7,0.1,1c0,0,0,0.1-0.1,0.1c-0.2-0.1-0.4-0.2-0.6-0.3c-0.1,0-0.1,0-0.2,0
		c-0.1-0.2-0.3-0.4-0.4-0.5C57.4,67,57,67.3,57.2,67.6z M59.3,68.2c0,0,0-0.1,0.1-0.1c0,0.1,0,0.1,0,0.2
		C59.4,68.2,59.4,68.2,59.3,68.2z"/>
	<g>
		<path class="st23" d="M109.8,52.9c0.9,1.4,1.5,3.1,1.9,4.7c0.4,1.4,0.9,3.2,0.6,4.6c-0.1,0.3-0.4,0.2-0.5,0
			c-0.5-1.4-0.4-3.1-0.8-4.6c-0.4-1.5-1.1-2.9-1.6-4.4C109.1,52.8,109.6,52.6,109.8,52.9L109.8,52.9z"/>
	</g>
	<g>
		<path class="st23" d="M111.7,61.4c-2.2,7.1-8.7,12.9-15.2,16c-7.1,3.3-15.3,3.7-22.8,1.2c-4.2-1.4-8.3-3.7-11.5-6.9
			c-0.5-0.5,0.2-1.1,0.7-0.7c5.9,5.2,13.1,8.3,21,8.3c7.5,0,14.7-3,20.2-8.1c3-2.8,5.2-6.2,7.3-9.8
			C111.4,61.1,111.7,61.2,111.7,61.4L111.7,61.4z"/>
	</g>
	<g>
		<path class="st23" d="M107.5,52.6c-0.8,0.3-1.7,0-2.5-0.1c-1-0.1-1.9-0.3-2.9-0.4c-2.2-0.3-4.4-0.5-6.6-0.7
			c-4.1-0.3-8.3-0.2-12.4,0.9c-3.7,1-7.2,2.7-10.4,4.8c-1.6,1-3.2,2.1-4.7,3.3c-0.7,0.5-1.4,1.1-2.1,1.6c-0.7,0.5-1.4,1.3-2.3,1.5
			c-0.3,0.1-0.6-0.3-0.4-0.6c0.4-0.7,1.1-1.2,1.8-1.7c0.8-0.6,1.6-1.3,2.5-1.9c1.7-1.2,3.4-2.4,5.1-3.5c3.3-2,6.8-3.7,10.6-4.7
			c4.1-1,8.3-1.2,12.5-0.9c2.1,0.2,4.3,0.5,6.4,0.8c1.1,0.2,2.2,0.4,3.3,0.6c0.8,0.2,1.7,0.2,2.3,0.7
			C107.6,52.4,107.6,52.6,107.5,52.6L107.5,52.6z"/>
	</g>
	<g>
		<path class="st23" d="M62.8,62.7c0.6,1.1,0.3,2.6,0.3,3.8c0,1.4,0.2,3-0.2,4.3c-0.1,0.3-0.4,0.3-0.5,0c-0.4-1.4-0.2-2.9-0.2-4.3
			c0-1.2-0.2-2.7,0.4-3.8C62.7,62.7,62.8,62.7,62.8,62.7L62.8,62.7z"/>
	</g>
	<g>
		<path class="st23" d="M109.2,53.1c-0.2,0.1-0.3,0.2-0.6,0.2c-0.3,0-0.6,0-0.9-0.1c-0.5-0.2-1.1-0.6-1.3-1.1
			c-0.1-0.3,0.3-0.7,0.5-0.4c0.3,0.4,0.6,0.7,1,0.9c0.3,0.1,0.9,0.3,1.2,0.2C109.3,52.9,109.3,53.1,109.2,53.1L109.2,53.1z"/>
	</g>
	<g>
		<path class="st23" d="M109.4,52.4c0.7-0.4,1.4-0.7,2.1-1c0.6-0.2,1.3-0.6,2-0.5c0.2,0,0.2,0.2,0.2,0.4c-0.4,0.6-1,0.7-1.6,0.9
			c-0.8,0.3-1.6,0.6-2.4,0.8C109.3,53.1,109,52.6,109.4,52.4L109.4,52.4z"/>
	</g>
	<path class="st23" d="M111.9,60.1c0,0.2,0.3,0.3,0.4,0.2c0.4-0.4,0.6-0.9,0.8-1.4c0.2,0.2,0.4,0.4,0.7,0.5c1.3,0.6,2.7-0.5,2.6-1.9
		c0-0.6-0.3-1.1-0.8-1.4c2.1-1.7,3.6-4.7,3-7.2c-0.3-1.5-1.5-2.9-3.1-2.5c-2.1,0.5-2.4,2.9-2.3,4.7c0,0.5,0.7,0.4,0.7,0
		c0.1-0.9,0.1-1.8,0.5-2.6c0.5-1,1.5-1.7,2.5-1c1.1,0.8,1,2.5,0.8,3.7c-0.6,2.4-2.1,4-4.2,5c0-1,0.1-2.8-0.8-3.5c0,0-0.1,0-0.1,0
		c-0.4,1,0.2,2.4,0.1,3.5c0,0.1,0,0.2,0,0.3c-0.1,0.1-0.3,0.1-0.4,0.2c-0.5,0.2-0.3,0.8,0.2,0.8C112.3,58.4,112,59.3,111.9,60.1z
		 M113.3,58.2c0.1-0.3,0.1-0.6,0.1-0.9c0.5-0.2,1-0.4,1.5-0.7c0.4,0.2,0.7,0.5,0.7,1c0,0.2,0.1,0.2,0.3,0.2c0,0.1,0,0.1,0,0.2
		c-0.2,0.9-1.2,1.3-2,0.9C113.6,58.7,113.4,58.5,113.3,58.2z"/>
	<g>
		<path class="st23" d="M62.3,62.8c-0.1-0.5-0.6-1.1-0.8-1.5c-0.3-0.5-0.7-1-1.1-1.4c-0.5-0.4-1-0.8-1.6-1c-0.4-0.2-0.7-0.2-0.9-0.6
			c0-0.1,0-0.2,0.1-0.3c0.8-0.8,2.5,0.6,3.1,1.2c0.5,0.5,0.9,1,1.3,1.6c0.4,0.7,0.3,1.2,0.4,1.9C62.7,63,62.3,63.1,62.3,62.8
			L62.3,62.8z"/>
	</g>
	<path class="st23" d="M57.2,66.7c-0.7,1.4,1,2.8,2.3,2.7c0.5,0,1-0.3,1.2-0.7c0,0,0.1,0.1,0.1,0.1c0.5,0.9,1.2,1.6,2,2.2
		c0.2,0.2,0.5-0.2,0.3-0.4c-0.6-0.7-1.3-1.5-1.7-2.4c-0.1-0.1-0.1-0.3-0.2-0.4c0,0,0.1-0.1,0-0.2c-0.1-0.1-0.2-0.3-0.2-0.4
		c0,0,0,0,0-0.1c0.3-0.1,0.4-0.5,0.1-0.6c-0.2-0.1-0.3-0.2-0.5-0.3c-0.1-0.1-0.1-0.2-0.2-0.3c0-0.1-0.1-0.1-0.2-0.1
		c-0.4-0.8-0.8-1.7-1.1-2.5c-0.5-1.5-0.5-3.2-0.4-4.7c0-0.2-0.1-0.3-0.3-0.2c-0.1-1.2-0.6-2.3-1.9-2.4c-1.4-0.1-2,1.4-2,2.6
		c0,2.6,1.6,5.7,3.8,7.5C57.9,66,57.4,66.2,57.2,66.7z M58.9,65.2c-0.3-0.2-0.6-0.5-0.9-0.7c-0.8-0.8-1.5-1.7-1.9-2.7
		c-0.5-1.1-0.9-2.4-0.8-3.5c0.1-0.7,0.2-1,0.8-1.3c0.4-0.4,0.7-0.4,0.9,0.1c0.3,0.1,0.5,0.3,0.5,0.6c0.3,0.6,0.2,1.4,0.3,2.1
		c0,0.1,0.1,0.1,0.1,0.2C57.8,61.8,58.1,63.6,58.9,65.2z M60.1,68.6c0.1-0.3,0.1-0.7,0-1c-0.1-0.2-0.2-0.5-0.4-0.7
		c0.1,0,0.2,0.1,0.3,0.1c0.1,0.4,0.3,0.8,0.5,1.2C60.4,68.3,60.3,68.5,60.1,68.6z M57.9,66.6c0.4-0.2,0.8-0.1,1.2,0.2
		c0.3,0.2,0.6,0.6,0.7,1c0.1,0.3,0,0.7-0.3,0.8c-0.2,0-0.4,0.1-0.5-0.1c-0.1-0.3-0.6-0.2-0.5,0.1c0,0,0,0.1,0,0.1
		c-0.3-0.2-0.6-0.4-0.8-0.7C57.4,67.6,57.4,66.9,57.9,66.6z"/>
	<g>
		<path class="st23" d="M111.8,50.5c-0.8-1.6-0.9-3.7-1.4-5.5c-0.5-1.9-1.1-3.7-1.9-5.4c-1.5-3-3.8-5.8-6.9-7.2
			c-3.2-1.5-6.9-1.5-9.9-3.4c-1.9-1.2-4.5-3.7-3.7-6.2c0.1-0.2,0.5-0.3,0.5,0c0.5,1.7,0.8,3,2.1,4.3c1.3,1.2,2.8,1.9,4.5,2.4
			c3.2,1,6.5,1.4,9.2,3.5c2.3,1.8,4,4.2,5.2,6.9c0.7,1.6,1.3,3.3,1.7,5c0.4,1.7,1.2,3.8,1,5.6C112.2,50.6,111.9,50.7,111.8,50.5
			L111.8,50.5z"/>
	</g>
	<g>
		<path class="st23" d="M88.6,26.4c-1.3,1.4-3.4,2.1-5.2,2.7c-2,0.7-4.1,1-6.3,1.1c-4.2,0.2-8.4-0.7-12.2-2.6
			c0.2-0.1,0.5-0.3,0.7-0.4c0.5,6.4,1.1,13.2-1.5,19.2c-1,2.4-2.5,4.7-4.4,6.5c-1.7,1.6-3.9,3.1-6.3,3.1c-0.2,0-0.3-0.3-0.1-0.4
			c2.2-1.1,4.4-2,6.2-3.8c1.8-1.8,3.2-4.1,4.1-6.5c2.1-5.8,1.6-12.1,1.1-18.2c0-0.4,0.4-0.6,0.7-0.4c3.6,1.8,7.7,2.7,11.7,2.4
			c2-0.1,3.9-0.4,5.8-1c1.9-0.6,3.5-1.6,5.4-2.2C88.6,26,88.8,26.2,88.6,26.4L88.6,26.4z"/>
	</g>
	<g>
		<path class="st23" d="M62,19.4c-0.6-3,1.3-6.3,3.5-8.3c2.6-2.4,5.9-3.9,9.1-5c3.6-1.3,7.3-2.1,11.1-2.6c2-0.2,4-0.3,6-0.3
			c0.9,0,1.8,0,2.8,0.1c1,0.1,1.9,0.3,2.8,0.5c0.3,0.1,0.3,0.6-0.1,0.6c-1.7-0.1-3.5-0.1-5.3-0.1c-1.7,0-3.4,0-5.1,0.2
			c-3.5,0.3-7.1,1-10.5,2c-3.2,1-6.4,2.2-9.1,4.2c-1.4,1-2.6,2.3-3.5,3.8c-0.9,1.5-1.2,3.2-1.5,4.9C62.2,19.6,62,19.6,62,19.4
			L62,19.4z"/>
	</g>
	<g>
		<path class="st23" d="M98.8,5.6c4.2,3,7.7,7.2,10.5,11.4c3,4.4,5.3,9.2,7,14.2c3.3,9.9,3.9,20.8,1.3,30.9
			c-1.5,6.1-5.3,12.9-1.5,18.9c0.2,0.3-0.3,0.7-0.5,0.4c-3.7-4-1.7-10.3-0.2-14.8c1.7-5.2,2.8-10.5,2.9-16
			c0.3-10.7-2.6-21.5-8.1-30.7c-3.2-5.3-7.3-9.6-11.8-13.8C98.1,5.9,98.5,5.4,98.8,5.6L98.8,5.6z"/>
	</g>
	<g>
		<path class="st23" d="M60.9,19.7c-4.7-1.2-8.8,1.7-10.2,6.2c-1.5,4.7-0.7,10.2-0.5,15c0.3,5.5,0.6,11.1,1.4,16.6
			c0.7,5,2,9.8,3.1,14.7c0.9,4.2,1.6,9.5-1.4,13.2c-0.3,0.4-0.8-0.1-0.6-0.5c1.3-2.3,1.9-4.5,1.8-7.1c-0.1-2.4-0.6-4.8-1.2-7.1
			C52.1,65.5,51,60.4,50.3,55c-0.7-5.6-1-11.3-1.2-17c-0.2-4.8-0.8-10.1,1.5-14.5c1.8-3.4,6.8-6.8,10.5-4.3
			C61.3,19.4,61.2,19.8,60.9,19.7L60.9,19.7z"/>
	</g>
	<g>
		<path class="st23" d="M116.3,81.7c-1.2,2.4-3.4,4.1-5.8,5.1c-2.1,0.8-5.6,1.5-7.7,0.1c-0.2-0.1-0.1-0.4,0.1-0.5
			c1.1,0,2.2,0.3,3.4,0.3c1.2,0,2.4-0.3,3.6-0.7c2.5-0.9,4.4-2.6,5.8-4.7C116,81,116.5,81.3,116.3,81.7L116.3,81.7z"/>
	</g>
	<g>
		<path class="st23" d="M70.3,89.1c-2.7,1.6-5.8,1.5-8.7,0.8c-1.7-0.4-3.3-1-4.9-1.7c-1.3-0.6-3.1-1.2-4-2.3c-0.1-0.2,0-0.4,0.2-0.4
			c1.4,0.3,2.7,1.4,4,2c1.4,0.6,2.8,1.2,4.2,1.6c2.9,0.8,6.3,1.3,9.2-0.2C70.3,88.9,70.4,89,70.3,89.1L70.3,89.1z"/>
	</g>
	<g>
		<path class="st23" d="M66.9,28.2c0.9,0.9,1.3,2.2,2.3,3.1c1.2,1.1,2.5,1.6,4,2.1c0.2,0.1,0.1,0.3,0,0.3c-1.5,0-3-0.8-4.1-1.8
			C68,31.2,66.7,29.7,66.9,28.2C66.8,28.2,66.9,28.2,66.9,28.2L66.9,28.2z"/>
	</g>
	<g>
		<path class="st23" d="M67.7,29.3c1.8,2.1,2.3,6.8,0,8.8c-0.2,0.2-0.5,0-0.4-0.3c0.4-1.4,1.1-2.5,1.1-4c0-1.6-0.4-2.9-1.1-4.3
			C67.2,29.4,67.5,29.1,67.7,29.3L67.7,29.3z"/>
	</g>
	<g>
		<path class="st23" d="M97.1,45.7c1.1,1.3-0.8,3.1-2.1,3.3c-1.5,0.2-2.7-1.3-2.7-2.7c0-1.6,1.4-2.5,2.9-2.3
			c1.5,0.2,2.6,1.7,1.9,3.2c-0.3,0.8-1.1,1.3-1.9,1.5c-0.6,0.1-1.7,0.1-1.8-0.7c0-0.1,0.1-0.2,0.2-0.2c0.5-0.1,0.9,0.2,1.4,0.1
			c0.6-0.1,1.2-0.6,1.3-1.2c0.3-1.3-1.5-2.1-2.5-1.6c-1.2,0.6-0.9,2.4,0.1,3c0.7,0.5,1.6,0.2,2.2-0.3C96.7,47.1,96.8,46.4,97.1,45.7
			C97.1,45.7,97.1,45.7,97.1,45.7L97.1,45.7z"/>
	</g>
	<g>
		<path class="st23" d="M75,49.3c1.1,1.3,0,3.4-1.5,3.7c-1.8,0.4-3.7-1.5-3.1-3.3c0.5-1.6,2.8-2.4,4.1-1.2c1,1,1.1,3.4-0.6,3.8
			c-0.2,0-0.5-0.2-0.3-0.4c0.6-0.7,1-1.7,0.4-2.6c-0.7-1-2.4-0.5-2.7,0.6c-0.5,1.3,1,2.6,2.3,2.2c1.2-0.4,1.5-1.7,1.4-2.8
			C74.8,49.3,74.9,49.2,75,49.3L75,49.3z"/>
	</g>
	<g>
		<path class="st23" d="M97.4,44.2c0.9,0.2,1.7,0.1,2.6-0.1c0.2,0,0.4,0.2,0.2,0.4c-0.8,0.9-2.1,0.9-3.1,0.3
			C96.7,44.7,97,44.1,97.4,44.2L97.4,44.2z"/>
	</g>
	<g>
		<path class="st23" d="M96.5,43.7c0.4-0.8,0.9-1.7,1.7-2.2c0.2-0.1,0.5,0.1,0.4,0.3c-0.2,0.9-0.9,1.6-1.4,2.3
			C96.8,44.5,96.3,44,96.5,43.7L96.5,43.7z"/>
	</g>
	<g>
		<path class="st23" d="M70.4,49.1c0,0-0.1,0-0.1,0c-0.2,0-0.4,0-0.5-0.1c-0.3-0.4-0.6-0.8-0.9-1.1c-0.3-0.3-0.5-0.7-0.6-1.1
			c-0.1-0.3,0.2-0.4,0.4-0.3c0.7,0.3,1.3,1.3,1.8,1.9c0.1,0.1,0.2,0.3,0.1,0.5C70.5,48.8,70.5,49,70.4,49.1L70.4,49.1z"/>
	</g>
	<g>
		<path class="st23" d="M70.7,49.1c-0.3,0.1-0.5,0.3-0.8,0.4c-0.2,0.1-0.5,0.2-0.7,0.2c-0.4,0.1-0.9,0.2-1.4,0.1
			c-0.2-0.1-0.3-0.3-0.1-0.4c0.4-0.3,0.9-0.4,1.3-0.5c0.2,0,0.5-0.1,0.8-0.1c0.3,0,0.5,0.1,0.8,0.1C70.8,48.9,70.8,49.1,70.7,49.1
			L70.7,49.1z"/>
	</g>
	<g>
		<path class="st23" d="M96.1,45.6c0,0.5-0.1,1-0.1,1.4c0,0.3-0.3,0.5-0.6,0.4c-1.3-0.5-1.2-2.3,0.1-2.7c0.4-0.1,0.7,0.2,0.7,0.5
			c0,1.3-0.9,2.4-2.2,2.6c-0.3,0-0.6,0-0.7-0.3c-0.7-1.2,0.5-2.6,1.8-2.3c0.4,0.1,0.7,0.7,0.4,1c-0.5,0.8-1.5,1.2-2.4,0.9
			c-0.5-0.1-0.6-0.7-0.5-1.1c0.2-0.5,0.4-1,0.6-1.5c0.1-0.3,0.6-0.5,0.9-0.4c0.5,0.2,1.1,0.4,1.6,0.6c0.3,0.1,0.7,0.4,0.6,0.8
			c-0.3,2-2.9,2.6-4,1c-0.2-0.3-0.1-0.8,0.1-1.1c0.8-0.9,2.3-1.1,3.3-0.4c0.2,0.2,0.5,0.5,0.4,0.8c-0.1,1-0.9,1.8-1.9,1.8
			c-1.1,0-1.7-0.9-1.6-2c0.1-0.9,0.9-1.6,1.8-1.6c1,0,1.9,0.9,1.9,2c-0.1,2.1-3.6,2.4-3.7,0.2c-0.1-0.9,0.7-1.7,1.4-2.1
			c0.5-0.3,1-0.4,1.5-0.1c0.4,0.3,0.7,0.7,0.8,1.1c0.3,1-0.1,2.2-1,2.7c-1,0.6-2.2,0.3-2.9-0.6c-0.5-0.6,0.5-1.6,1.1-1.1
			c0.3,0.2,0.7,0.4,1,0.1c0.3-0.3,0-0.7-0.2-0.8c0.3,0.1,0.6,0.2,0.9,0.2c-0.2,0-0.4,0.1-0.6,0.3c-0.1,0-0.3,0.3-0.3,0.3
			c0,0,0-0.2-0.1-0.1c0,0,0,0.1,0.1,0c0,0,0.1-0.1,0.1,0c0-0.1-0.1-0.1-0.1-0.1c0.1,0.1,0.2-0.2,0,0.1c0,0.1,0,0.1,0,0.1
			c-0.1,0-0.2-0.1-0.2-0.2c0,0,0.1-0.3,0.1,0c0.1,0.3,0.3,0.5,0.4,0.8c-0.4-0.3-0.8-0.2-1.1,0.1c0-0.4,0.1-0.7,0.1-1.1
			c0,0.1,0,0,0.1,0.1c0.1,0,0.2,0,0.3,0c0.3-0.1,0.4-0.2,0.4-0.4c0.2,0.3,0.4,0.7,0.6,1c-0.5-0.2-1.1-0.4-1.6-0.6
			c0.3-0.1,0.6-0.2,0.9-0.4c-0.2,0.5-0.5,1-0.7,1.4c-0.2-0.4-0.3-0.7-0.5-1.1c0.4,0.1,0.7-0.1,0.9-0.3c0.1,0.4,0.2,0.8,0.3,1.2
			c-0.1,0-0.5,0.1-0.3,0.3c-0.2-0.1-0.4-0.2-0.5-0.3c0.7-0.1,1.2-0.7,1.2-1.4c0.2,0.2,0.5,0.4,0.7,0.5c-0.4,0.1-0.3,0.7,0,0.9
			c-0.2,0.1-0.4,0.2-0.7,0.3c0.1-0.5,0.3-0.9,0.4-1.4C95.6,45.2,96.2,45.2,96.1,45.6L96.1,45.6z"/>
	</g>
	<g>
		<path class="st23" d="M74.6,50.5c-0.2,0.4-0.6,0.7-1,0.9c-0.5,0.1-1.1,0.1-1.3-0.4c-0.4-1,0.4-2.1,1.3-2.4c0.2-0.1,0.5,0,0.7,0.2
			c0.7,0.9,0.4,2.2-0.6,2.7c-0.5,0.3-1.1,0.3-1.6,0c-0.4-0.2-0.4-0.5-0.5-0.9c-0.1-0.4-0.1-0.9-0.2-1.3c0-0.3,0.2-0.6,0.4-0.7
			c1-0.5,2.3-0.1,2.7,1.1c0.4,1.1-0.4,2.3-1.5,2.5c-1.3,0.2-2.2-0.9-1.9-2.1c0.3-1.1,1.4-1.9,2.6-1.6c0.4,0.1,0.6,0.5,0.7,0.9
			c0.1,0.6,0.1,1.3,0.2,1.9c0,0.4-0.3,0.8-0.7,0.9c-0.6,0.2-1.2,0.4-1.9,0.6c-0.6,0.2-1.3-0.3-1.3-1c0-0.4,0-0.8,0-1.2
			c0-0.4,0-0.8,0.1-1.2c0.3-0.5,0.7-0.8,1.2-0.9c1.1-0.3,2.3,0.3,2.6,1.4c0.3,1.2-0.5,2.3-1.6,2.6c-0.6,0.1-1.2,0-1.7-0.3
			c-0.5-0.4-0.8-1.5-0.6-2.1c0.1-0.3,0.5-0.6,0.9-0.5c0.6,0.2,0.9,0.7,1.2,1.3c-0.1-0.1-0.2-0.2-0.4-0.4c0.4,0.3-0.2-0.2,0.1,0
			c0,0,0.1-0.1,0.1-0.1c0,0-0.1,0.5,0,0.2c0,0-0.1,0-0.1-0.1c-0.1,0-0.2,0.1-0.1,0c0-0.2,0.1-0.3,0.1-0.5c0,0.6,0,1.2-0.1,1.9
			c-0.4-0.3-0.8-0.6-1.3-1c0.6-0.2,1.3-0.4,1.9-0.6c-0.2,0.3-0.5,0.6-0.7,0.9c0-0.6-0.1-1.3-0.1-1.9c0.2,0.3,0.5,0.6,0.7,0.9
			c-0.2,0-0.2,0,0,0c-0.1,0-0.1,0-0.1,0c0,0-0.2,0.2-0.2,0.2c0,0-0.1,0.2,0,0.1c0.1,0.1,0,0-0.2-0.2c0,0,0.1,0,0.1,0
			c0,0,0.2,0,0.2-0.1c0.1,0,0.1-0.1,0.1-0.1c0.1-0.2,0.1-0.2,0,0c-0.1-0.1-0.2-0.3-0.4-0.2c0.1-0.2,0.3-0.5,0.4-0.7
			c0.1,0.5,0.1,1,0.2,1.6c-0.1-0.2-0.3-0.5-0.4-0.7c0.1,0,0.1,0,0,0c0,0,0.1,0,0.1,0c0.1-0.1,0.1-0.1,0.2-0.2
			c0.1-0.2,0.2-0.2,0.1-0.4c0.3,0.1,0.5,0.2,0.8,0.3c-0.4,0.1-0.7,0.3-0.6,0.7c-0.1-0.1-0.3-0.3-0.4-0.4c0.4,0.1,0.9,0.2,1.3,0
			C74.5,50.1,74.7,50.3,74.6,50.5L74.6,50.5z"/>
	</g>
	<g>
		<path class="st23" d="M111.4,59.8c-0.7,1.1-1.9,2-2.8,2.9c-1,0.9-1.9,2-3,2.7c-0.1,0.1-0.4-0.1-0.3-0.3c0.8-1.1,1.8-2,2.8-2.9
			c0.9-0.9,1.9-2,3-2.7C111.3,59.5,111.5,59.7,111.4,59.8L111.4,59.8z"/>
	</g>
	<g>
		<path class="st23" d="M111.2,58c-0.7,0.3-1.3,0.6-2,0.9c-0.5,0.2-1.1,0.5-1.7,0.6c-0.2,0-0.3-0.3-0.2-0.4c0.4-0.4,1-0.6,1.6-0.8
			c0.7-0.3,1.3-0.5,2-0.8C111.3,57.3,111.5,57.8,111.2,58L111.2,58z"/>
	</g>
	<g>
		<path class="st23" d="M110.5,55.1c-1.2,0.4-2.3,0.9-3.5,1.1c-0.2,0-0.3-0.2-0.1-0.3c1.2-0.5,2.4-0.7,3.6-1
			C110.6,54.8,110.6,55,110.5,55.1L110.5,55.1z"/>
	</g>
	<g>
		<path class="st23" d="M65.3,70.4c2,0.3,3.8,0.7,5.7,1.3c1.7,0.5,3.5,0.9,5.1,1.7c0.2,0.1,0.1,0.4-0.1,0.4
			c-1.8-0.1-3.5-0.7-5.2-1.2c-1.9-0.5-3.7-1.2-5.5-1.9C65.1,70.6,65.1,70.4,65.3,70.4L65.3,70.4z"/>
	</g>
	<g>
		<path class="st23" d="M64.2,68.5c2-1.7,5.5-2.5,7.8-1.2c0.1,0.1,0.1,0.3-0.1,0.3c-1.3,0-2.6-0.2-3.8,0c-1.3,0.2-2.4,0.8-3.6,1.3
			C64.3,69,63.9,68.7,64.2,68.5L64.2,68.5z"/>
	</g>
	<g>
		<path class="st23" d="M64.5,65.3c2-1.5,4.2-2.7,6.7-2.9c0.2,0,0.2,0.3,0,0.3c-2.3,0.7-4.6,1.5-6.6,2.9
			C64.5,65.7,64.3,65.4,64.5,65.3L64.5,65.3z"/>
	</g>
	<g>
		<path class="st23" d="M90.9,79.7c0,0.1,0.1,0.1,0.2,0.2c0,0.1,0,0.2,0.1,0.3C91,80.1,91,80,90.9,79.9c0,0,0,0,0,0
			c0.2,0,0.3,0.2,0.3,0.4c0,0.3,0,0.6,0,0.9c0,0.5-0.8,0.5-0.8,0c0-0.3,0-0.6,0-0.9c0-0.2,0.1-0.3,0.3-0.4c0,0,0,0,0,0
			c-0.1,0.1-0.2,0.2-0.2,0.2c0-0.1,0-0.2,0.1-0.3c0-0.1,0.2-0.1,0.2-0.2C90.7,79.5,90.9,79.5,90.9,79.7L90.9,79.7z"/>
	</g>
	<g>
		<path class="st23" d="M90.9,81.4c2.1,0.9,4.8,2.4,4.6,5.2c-0.2,1.6-2,3.2-3.5,2c-0.1-0.1,0-0.3,0.1-0.3c2.1,0.1,3.2-1.8,2.1-3.7
			c-0.8-1.3-2.3-2-3.6-2.6C90.1,81.8,90.5,81.2,90.9,81.4L90.9,81.4z"/>
	</g>
	<g>
		<path class="st23" d="M92.9,88.9c-4,0.6-8.4-2.1-9.6-6c-0.1-0.4,0.5-0.5,0.6-0.2c1.5,3.6,4.9,6,8.9,5.8
			C93.1,88.5,93.2,88.9,92.9,88.9L92.9,88.9z"/>
	</g>
	<g>
		<path class="st23" d="M83.8,79.7c0,0.5,0,1,0,1.5c0,0.4,0.1,0.8-0.3,1c-0.1,0-0.2,0-0.2,0c-0.4-0.2-0.3-0.6-0.3-1c0-0.5,0-1,0-1.5
			C83.2,79.2,83.8,79.2,83.8,79.7L83.8,79.7z"/>
	</g>
	<g>
		<path class="st23" d="M90.8,80.8c1.5-0.1,3.1,0.1,4.7,0.3c0.5,0.1,0.3,0.8-0.1,0.8c-1.5-0.1-3.1-0.2-4.6-0.6
			C90.4,81.2,90.5,80.8,90.8,80.8L90.8,80.8z"/>
	</g>
	<g>
		<path class="st23" d="M94.8,81.6c1.3-0.1,2.9,1.3,3.8,2.1c1.3,1.2,2.2,2.7,2.9,4.2c1.3,3,1.6,6.5,0.3,9.5c-0.2,0.5-1,0.1-0.9-0.4
			c1-3,0.9-6-0.3-8.9c-0.6-1.4-1.5-2.7-2.5-3.7c-0.5-0.6-1.1-1.1-1.8-1.5c-0.5-0.4-1.2-0.6-1.6-1.1C94.6,81.7,94.6,81.6,94.8,81.6
			L94.8,81.6z"/>
	</g>
	<g>
		<path class="st23" d="M105,86.8c1,0.8,1.3,2.5,1.7,3.6c0.4,1.4,0.8,2.8,1,4.2c0.5,2.9,1,5.9,1.2,8.8c0,0.4-0.6,0.5-0.7,0.1
			c-0.7-2.8-0.7-5.8-1.2-8.7c-0.2-1.3-0.5-2.6-0.8-3.9C105.7,89.7,104.7,88.1,105,86.8C104.9,86.8,104.9,86.7,105,86.8L105,86.8z"/>
	</g>
	<g>
		<path class="st23" d="M107.4,133.5c-0.4,4.1-1.8,8.3-2.9,12.2c-1.2,4.6-2.6,9.1-3.9,13.6c-1.3,4.5-2.6,9.1-3.9,13.6
			c-1.1,4.2-2,8.4-3.1,12.5c-0.2,0.6-1,0.3-0.9-0.3c0.7-4.2,2-8.4,3.1-12.5c1.2-4.5,2.5-8.9,3.8-13.4c1.3-4.5,2.6-8.9,3.8-13.4
			c0.6-2.2,1.2-4.3,1.7-6.5c0.5-2,0.9-4.1,1.5-6C106.9,133.1,107.4,133.1,107.4,133.5L107.4,133.5z"/>
	</g>
	<g>
		<path class="st23" d="M69.7,125.8c0.6,3.3,1.2,6.5,2.4,9.7c1.3,3.3,3,6.5,4.6,9.7c1.6,3,3.1,6,4.3,9.2c0.6,1.6,1.1,3.2,1.4,4.8
			c0.2,1.2,0.8,3,0.3,4.1c-0.1,0.2-0.4,0.2-0.5,0c-0.4-0.6-0.3-1.4-0.4-2.1c-0.1-0.8-0.3-1.7-0.4-2.5c-0.4-1.6-0.9-3.3-1.5-4.8
			c-1.3-3.3-3-6.5-4.6-9.7c-1.5-3-3.1-6-4.2-9.2c-1.1-2.9-2-6.1-1.6-9.2C69.5,125.7,69.7,125.7,69.7,125.8L69.7,125.8z"/>
	</g>
	<g>
		<path class="st23" d="M92.2,141.6c1,1,1.1,3.2,1.4,4.6c0.4,1.8,0.6,3.5,0.9,5.3c0.5,3.8,0.7,7.7,0.4,11.5c0,0.5-0.9,0.6-0.9,0
			c0-3.7,0.1-7.4-0.3-11c-0.2-2-0.5-3.9-0.9-5.9c-0.2-0.8-0.3-1.6-0.5-2.5c-0.2-0.7-0.4-1.3-0.2-2.1
			C92.1,141.6,92.2,141.5,92.2,141.6L92.2,141.6z"/>
	</g>
	<g>
		<path class="st23" d="M94.8,163.6c-0.3,1.9-1.1,3.7-1.7,5.5c-0.7,1.9-1.4,3.8-2.1,5.7c-1.3,3.5-2.3,7.4-4,10.7
			c-0.2,0.5-0.9,0.1-0.8-0.3c0.5-1.9,1.3-3.7,2-5.5c0.7-1.9,1.4-3.8,2.1-5.7c0.7-1.8,1.4-3.6,2-5.4c0.7-1.7,1.3-3.5,2.2-5.1
			C94.7,163.5,94.8,163.5,94.8,163.6L94.8,163.6z"/>
	</g>
	<g>
		<path class="st23" d="M82.9,163.6c0.1,1.9-0.4,3.9-0.7,5.8c-0.3,2-0.6,4.1-0.8,6.1c-0.2,1.7-0.5,3.5-0.7,5.2
			c-0.2,1.6-0.3,3.6-1.2,5c-0.1,0.2-0.4,0.2-0.5-0.1c-0.3-1.5,0.3-3.2,0.5-4.8c0.3-1.9,0.6-3.8,0.8-5.7c0.3-2,0.6-4,0.9-6
			c0.3-1.9,0.6-3.8,1.4-5.6C82.7,163.5,82.9,163.5,82.9,163.6L82.9,163.6z"/>
	</g>
	<g>
		<path class="st23" d="M86.8,185.9c-1.4,0.6-2.5,0.8-4,0.6c-1.3-0.2-3-0.5-3.8-1.6c-0.1-0.2,0-0.6,0.3-0.5c1.1,0.1,2.2,0.8,3.3,1.1
			c1.3,0.3,2.8,0.2,4.1,0.2C86.9,185.6,87,185.8,86.8,185.9L86.8,185.9z"/>
	</g>
	<g>
		<path class="st23" d="M86.7,184c0.4,1.2,1,2.3,1.5,3.5c0.4,1.2,0.9,2.4,1.2,3.6c0.1,0.2-0.1,0.5-0.3,0.6c-1.9,0.5-4.3,0.6-5.3-1.4
			c-0.5-1-1-3-0.8-4.2c0-0.2,0.2-0.2,0.4-0.1c0.9,0.4,0.8,2.2,1,3c0.6,2.3,2.6,2.3,4.6,1.8c-0.1,0.2-0.2,0.4-0.3,0.6
			c-0.6-2.5-1.6-4.8-2-7.4C86.5,184,86.6,183.9,86.7,184L86.7,184z"/>
	</g>
	<g>
		<path class="st23" d="M88,184.9c0.1,2,0.4,3.8,1.4,5.6c0.5,0.8,1,1.6,1.7,2.3c0.6,0.6,1.5,1.1,2.1,1.7c0.2,0.2,0,0.4-0.2,0.4
			c-1.8-0.4-3.4-2.7-4.2-4.2c-0.9-1.8-1.5-3.9-1.1-5.8C87.7,184.7,88,184.7,88,184.9L88,184.9z"/>
	</g>
	<g>
		<path class="st23" d="M92.8,194.4c0.9,0.8,1,2.2,0.2,3.1c-0.4,0.4-0.9,0.7-1.5,0.7c-0.4,0-1.2,0-1.3-0.5c0-0.1,0-0.2,0.2-0.3
			c0.3-0.1,0.6,0.1,0.9,0.1c0.4,0,0.8-0.1,1.1-0.4c0.6-0.6,0.5-1.6-0.1-2.2C92,194.5,92.4,194.1,92.8,194.4L92.8,194.4z"/>
	</g>
	<g>
		<path class="st23" d="M90.4,198c-2.6,0.8-6.9,0-8.4-2.4c-0.1-0.1,0-0.2,0.1-0.2c1.3,0.4,2.5,1.2,3.8,1.5c1.5,0.4,2.9,0.4,4.4,0.4
			C90.7,197.3,90.8,197.8,90.4,198L90.4,198z"/>
	</g>
	<g>
		<path class="st23" d="M82.7,195.8c-1.8-1.7-2.9-4.3-3.7-6.7c-0.2-0.8-1.2-3.6,0.3-3.7c0.2,0,0.2,0.2,0.1,0.3
			c-0.9,0.7,0.4,3.7,0.7,4.4c0.7,1.9,1.7,3.8,2.8,5.5C83,195.8,82.8,195.9,82.7,195.8L82.7,195.8z"/>
	</g>
	<g>
		<path class="st23" d="M93.1,182.7C93.1,182.7,93.1,182.6,93.1,182.7C93.1,182.6,93.1,182.7,93.1,182.7L93.1,182.7z"/>
	</g>
	<g>
		<path class="st23" d="M93.2,182.7c-0.1,0.4,0.1,0.9,0.1,1.3c-0.1,0.6-0.2,1.2-0.3,1.7c-0.1,0.4-0.8,0.3-0.8-0.1
			c0.1-1,0.2-2,0.4-2.9c0.3,0.1,0.5,0.1,0.8,0.2c-0.3,0.9-0.5,1.9-0.8,2.7c-0.2,0.5-0.4,0.6-1,0.7c-1.3,0.4-2.8,0.4-4.1-0.2
			c-0.4-0.2-0.1-0.7,0.3-0.6c1.1,0.2,2.5,0.6,3.6,0.1c0.6-0.3,0.6-0.6,0.8-1.3c0.2-0.6,0.3-1.1,0.4-1.7c0.1-0.4,0.9-0.4,0.8,0.1
			c-0.1,1-0.2,2-0.4,2.9c-0.3-0.1-0.5-0.1-0.8-0.2c0.1-0.6,0.3-1.3,0.5-1.9C92.8,183.3,93.2,182.9,93.2,182.7
			C93.2,182.7,93.2,182.7,93.2,182.7L93.2,182.7z"/>
	</g>
	<g>
		<path class="st23" d="M92.8,186.3c0.5,1.1,0.7,2.3,1,3.5c0,0.2-0.1,0.3-0.2,0.4c-1.2,0.5-2.4,1-3.6,1.4c-0.3,0.1-0.5-0.4-0.2-0.5
			c1.2-0.6,2.4-1,3.7-1.5c-0.1,0.1-0.1,0.3-0.2,0.4c-0.3-1.2-0.6-2.4-0.7-3.7C92.5,186.1,92.7,186.1,92.8,186.3L92.8,186.3z"/>
	</g>
	<g>
		<path class="st23" d="M93,186.4c-0.4,3.8,6,3.6,6.4,7.3c0.4,3.7-4.7,3.8-6.8,2.3c-0.1-0.1-0.1-0.3,0.1-0.3c1.7,0,3.8,1,5.2-0.4
			c1.6-1.6-0.6-3.4-1.9-4.2c-1.7-1-4-2.5-3.2-4.7C92.8,186.3,93,186.3,93,186.4L93,186.4z"/>
	</g>
	<g>
		<path class="st23" d="M74.1,129.3c-0.5,4.3,1.5,8,3.7,11.5c2,3.2,3.9,6.4,5.2,10c2.5,7,3.1,14.6,1.8,21.9c-0.7,4.1-2,8.5-4.2,12
			c-0.2,0.3-0.6,0-0.5-0.3c1.6-3.6,3.1-7,3.9-10.9c0.8-3.8,1.1-7.7,0.8-11.5c-0.3-3.9-1.1-7.7-2.5-11.3c-1.4-3.7-3.5-7-5.5-10.4
			c-2-3.3-4-7.1-3.1-11.1C73.8,129.1,74.2,129.1,74.1,129.3L74.1,129.3z"/>
	</g>
	<g>
		<path class="st23" d="M92.4,142.6c-0.1-0.4-0.4-0.9-0.6-1.2c-0.3-0.5-0.6-1-1.1-1.4c-0.4-0.3-0.9-0.6-1.5-0.7
			c-0.5-0.1-0.9,0-1.3-0.2c-0.2-0.1-0.1-0.3,0-0.4c0.9-0.6,2.5,0.2,3.3,0.8c0.5,0.4,0.9,0.9,1.2,1.5c0.1,0.2,0.2,0.5,0.3,0.7
			c0.1,0.4-0.1,0.6-0.1,0.9C92.5,142.6,92.4,142.6,92.4,142.6L92.4,142.6z"/>
	</g>
	<g>
		<path class="st23" d="M91.8,140.7c0-0.7-0.2-1.3-0.5-1.9c-0.2-0.4-0.8-0.8-0.8-1.3c0-0.2,0.1-0.3,0.3-0.3c0.7-0.1,1.2,0.9,1.4,1.4
			c0.3,0.7,0.4,1.4,0.3,2.2C92.5,141.2,91.8,141.1,91.8,140.7L91.8,140.7z"/>
	</g>
	<g>
		<path class="st23" d="M83.5,133.8c1,1.2,1.2,2.8,0.7,4.3c-0.4,1.3-1.5,2.8-2.9,2.9c-0.2,0-0.3-0.2-0.1-0.3
			c0.9-0.8,1.9-1.4,2.4-2.6c0.5-1.3,0.4-2.7-0.3-3.9C83.1,133.9,83.4,133.6,83.5,133.8L83.5,133.8z"/>
	</g>
	<g>
		<path class="st23" d="M100.6,136.2c-0.3,1-0.4,2.1-0.1,3.2c0.3,1.1,1,1.6,1.5,2.5c0.1,0.2-0.1,0.4-0.3,0.3
			c-2.3-0.8-2.6-4.5-1.5-6.2C100.3,135.9,100.6,136,100.6,136.2L100.6,136.2z"/>
	</g>
	<g>
		<path class="st23" d="M94.2,164.3c-0.2,1-1.4,1.8-2.4,1.3c-0.1,0,0-0.2,0-0.2c0.8,0,1.7-0.4,1.9-1.2
			C93.8,163.9,94.3,164,94.2,164.3L94.2,164.3z"/>
	</g>
	<g>
		<path class="st23" d="M93.6,165.8c-0.3,0.7-0.8,1.1-1.5,1.2c-0.6,0.1-1.4-0.1-1.6-0.7c0-0.1,0.1-0.3,0.2-0.2
			c0.4,0.1,0.8,0.4,1.2,0.3c0.5,0,1-0.3,1.3-0.7C93.3,165.4,93.7,165.6,93.6,165.8L93.6,165.8z"/>
	</g>
	<g>
		<path class="st23" d="M97.4,162.2c-0.4,0.3-0.7,0.9-1.2,1c-0.1,0-0.1-0.1-0.1-0.1C96.3,162.6,96.9,162.4,97.4,162.2
			C97.4,162.1,97.4,162.1,97.4,162.2L97.4,162.2z"/>
	</g>
	<g>
		<path class="st23" d="M97.1,163.4c-0.1,0.2-0.3,0.4-0.4,0.6c-0.1,0.2-0.3,0.4-0.5,0.4c-0.1,0-0.2-0.1-0.2-0.2
			c0.1-0.2,0.3-0.4,0.4-0.5C96.6,163.6,96.8,163.5,97.1,163.4C97,163.3,97.1,163.3,97.1,163.4L97.1,163.4z"/>
	</g>
	<g>
		<path class="st23" d="M82.9,162.5c0.1,0.1,0.3,0.1,0.5,0.1c0.2,0.1,0.3,0.1,0.5,0.2c0.3,0.1,0.6,0.3,0.9,0.5
			c0.3,0.2,0,0.8-0.4,0.6c-0.3-0.1-0.6-0.3-0.9-0.5c-0.1-0.1-0.3-0.2-0.4-0.3c-0.1-0.1-0.2-0.3-0.3-0.3
			C82.6,162.7,82.7,162.4,82.9,162.5L82.9,162.5z"/>
	</g>
	<g>
		<path class="st23" d="M82.8,162.9c0.5,0.3,0.9,0.7,1.1,1.2c0.2,0.4,0.5,1,0.2,1.5c-0.1,0.1-0.3,0.2-0.4,0
			c-0.3-0.3-0.3-0.8-0.4-1.2c-0.2-0.5-0.5-0.9-0.8-1.3C82.5,163,82.7,162.9,82.8,162.9L82.8,162.9z"/>
	</g>
	<g>
		<path class="st23" d="M98.1,35.4c-1.3,0.5-2.6,0.5-3.9,0.7c-1,0.1-2.3,0.5-3.2,0c-0.2-0.1-0.2-0.3-0.1-0.5
			c0.8-0.7,2.1-0.6,3.2-0.7c1.3-0.1,2.7-0.3,4-0.1C98.4,34.9,98.3,35.3,98.1,35.4L98.1,35.4z"/>
	</g>
	<g>
		<path class="st23" d="M71.8,39.7c-0.6,0.8-1.4,1.3-2.2,1.9c-0.6,0.5-1.3,1.2-2.1,1.4c-0.3,0.1-0.6-0.3-0.4-0.5
			c0.4-0.8,1.3-1.3,2-1.8c0.7-0.6,1.4-1.2,2.2-1.6C71.7,38.8,72,39.3,71.8,39.7L71.8,39.7z"/>
	</g>
	<g>
		<path class="st23" d="M113.6,55.2c0.1-1.6,0.7-4.2,2.4-4.9c0.2-0.1,0.3,0.2,0.2,0.3c-0.3,0.7-0.9,1.3-1.2,2
			c-0.4,0.8-0.6,1.7-0.7,2.6C114.3,55.7,113.6,55.7,113.6,55.2L113.6,55.2z"/>
	</g>
	<g>
		<path class="st23" d="M58.4,64.1c-0.4-0.7-0.7-1.5-1.1-2.2c-0.3-0.6-0.7-1.3-0.8-2c0-0.2,0.2-0.3,0.3-0.2c0.5,0.6,0.7,1.4,1,2.1
			c0.3,0.7,0.7,1.4,0.9,2.2C58.8,64.2,58.5,64.3,58.4,64.1L58.4,64.1z"/>
	</g>
	<g>
		<path class="st23" d="M80.1,82.7c-2,0-4,0.8-5.6,2.1c-0.7,0.6-1.4,1.4-1.8,2.2c-0.4,0.8-0.6,1.6-1.1,2.3c-0.1,0.1-0.3,0.1-0.3,0
			c-0.4-1.9,1.5-4.1,2.8-5.2c1.7-1.4,3.8-2.2,6-2.1C80.5,82,80.5,82.7,80.1,82.7L80.1,82.7z"/>
	</g>
	<g>
		<path class="st23" d="M79,96.1c-2,1.7-4.2-1.7-2-3.2c0.3-0.2,0.5,0.1,0.5,0.4c-0.1,1-1,1.6-2,1.2c-1.4-0.6-1.3-2.2-1-3.4
			c0.1-0.3,0.6-0.3,0.6,0.1c0,1.1-1.2,2.2-2.3,1.6c-1-0.6-0.9-2-0.1-2.7c0.2-0.2,0.6,0,0.5,0.3c-0.3,0.9-1.5,1.6-2.3,0.7
			c-0.7-0.7-0.3-1.9,0.6-2.2c0.3-0.1,0.5,0.4,0.2,0.5c0.3,0.2,0.6,0.5,0.8,0.7c0.2,0.1,0.4,0.2,0.5,0.3c-0.3,0.2-0.4,0.4-0.4,0.7
			c-0.2,0.9,0.4,0.9,1.8-0.1c0.2,0,0.4,0.1,0.6,0.1c-0.2,0.6-0.3,1.1-0.2,1.7c0.3,1,0.9,1.1,1.9,0.2c0.2,0.1,0.4,0.1,0.5,0.2
			c-0.6,0.5-1,1.3-0.3,2.1c0.4,0.5,1.2,0.5,1.8,0.3C79,95.8,79.1,96,79,96.1L79,96.1z"/>
	</g>
	<g>
		<path class="st23" d="M95,80.5c4.1-1.7,9.5,0,11.6,4c0.2,0.4-0.1,0.7-0.5,0.6c-2.1-0.3-3.4,1-4.5,2.6c-0.1,0.2-0.6,0.2-0.6-0.1
			c0.3-2.4,3.1-3.6,5.3-3.3c-0.2,0.2-0.3,0.4-0.5,0.6c-2-3.8-6.8-5.3-10.7-3.8C94.7,81.3,94.6,80.6,95,80.5L95,80.5z"/>
	</g>
	<g>
		<path class="st23" d="M106.3,84.9c0.9-0.1,1.3,1.1,0.7,1.7c-1,1-2.3-0.1-2.8-0.9c0.2-0.1,0.4-0.2,0.6-0.3c0.6,1,0.4,2.4-0.7,2.9
			c-0.7,0.3-2.5,0.1-2.4-0.9c0-0.1,0.1-0.2,0.3-0.2c0.5,0.1,0.8,0.6,1.3,0.6c1,0,1.4-1.1,0.9-2c-0.2-0.4,0.3-0.7,0.6-0.3
			c0.1,0.2,0.3,0.5,0.5,0.7c0.8,0.7,1.1,0.4,1-0.7C106,85.3,106.1,84.9,106.3,84.9L106.3,84.9z"/>
	</g>
	<path class="st21" d="M96.4,45.9C96.4,45.9,96.4,45.9,96.4,45.9c0-0.4,0.5-0.4,0.5-0.1v0.5c0,0,0,0,0,0c0,0.1,0,0.1,0,0.2
		c0,0.3-0.4,0.3-0.5,0.1c0-0.1-0.1-0.3-0.1-0.4C96.2,46.1,96.3,46,96.4,45.9z"/>
	<path class="st21" d="M74.1,50.3c0-0.1,0-0.2,0-0.4c0-0.3,0.4-0.3,0.5-0.1c0,0.1,0,0.1,0.1,0.2c0.2,0.1,0.3,0.4,0.1,0.6
		c0,0-0.1,0.1-0.1,0.1c0,0-0.1,0-0.2,0c-0.1,0-0.2-0.1-0.2-0.2C74.2,50.5,74.1,50.4,74.1,50.3z"/>
	<g class="st28">
		<path class="st11" d="M110.8,64.3c-1.4,2.5-3.6,5.5-7,8.3c-0.2,0.2-0.8,0.6-1.6,1.2c-0.1-0.2-0.1-0.5-0.2-0.7
			c-0.3-1.2-0.7-2.5-1-3.7c-0.7-2.4-1.3-4.9-2-7.3c-0.7-2.4-1.3-4.9-2-7.3c-0.3-1.2-0.7-2.5-1-3.7c0-0.1,0-0.2-0.1-0.2
			c1.7,0.1,3.1,0.3,4.1,0.4c0.2,0.8,0.4,1.6,0.6,2.4c0.6,2.1,1.1,4.3,1.7,6.4c0.6,2.1,1.1,4.3,1.7,6.4c0.3,1.1,0.6,2.1,0.8,3.2
			c0.1,0.3,0.2,0.7,0.3,1c0.1-0.1,0.2-0.2,0.3-0.3c0.5-0.6,0.9-1.3,1.2-1.9c0.7-1.7,0.2-3.4-0.4-5.1c-1.4-4-2.9-7.9-4.4-11.9
			c1.6,0.2,3,0.5,4.4,0.7c0.6,1.6,1.2,3.2,1.8,4.9c0.9,2.3,1.9,4.6,2.5,7C110.7,64.2,110.8,64.3,110.8,64.3z"/>
		<path class="st11" d="M95.5,77.5c-0.1-0.8-0.3-1.5-0.5-2.3l-0.9-3c-0.5-1.9-1.1-3.8-1.6-5.7l-3.3-11.4c-0.4-1.2-0.9-2.7-1.2-4.2
			c1.3-0.1,2.7-0.1,4-0.1c0.2,0.9,0.5,1.7,0.8,2.6c1.4,4.9,2.8,9.8,4.2,14.7c0.7,2.4,1.4,4.8,2.1,7.2c0.1,0.2,0.1,0.4,0.1,0.6
			c-1.1,0.6-2.3,1.2-3.6,1.8C95.5,77.6,95.5,77.5,95.5,77.5z"/>
		<path class="st11" d="M69.2,75.6c-1.7-1-3.1-2-4.2-2.9c-0.4-3.2-0.9-6.5-1.6-9.7c0.9-0.9,2-1.9,3.3-3
			C67.9,65.2,68.7,70.4,69.2,75.6z"/>
		<path class="st11" d="M81.2,79.6c0-0.1,0-0.1,0-0.2c-0.1-1.7-0.3-3.4-0.6-5c-0.7-4.1-1.7-8.2-2.7-12.3l-2-8
			c1.2-0.6,2.4-1.1,3.6-1.5c1.5,6.1,3.1,12.1,4.4,18.2c0.4,1.8,0.7,3.7,0.9,5.6c0.1,1.1,0.3,2.2,0.3,3.3
			C83.9,79.8,82.6,79.7,81.2,79.6z"/>
		<path class="st11" d="M87.1,79.7c-2-9.2-3.6-18.5-4.9-27.9c1.2-0.3,2.4-0.5,3.6-0.7c0,0,0.1,0,0.1,0c0.8,6.5,1.9,13,3.1,19.5
			c0.4,1.9,0.8,3.8,1.2,5.7c0.2,0.9,0.4,1.7,0.6,2.6c0,0.1,0,0.2,0.1,0.3c-0.9,0.2-1.7,0.3-1.9,0.4C89,79.5,88.3,79.6,87.1,79.7z"/>
		<path class="st11" d="M72.9,74.5c-0.8-3.7-1.5-7.3-2.2-11c-0.3-1.9-0.6-3.8-0.9-5.7c0,0,0,0,0-0.1c1.1-0.8,2.3-1.6,3.6-2.3
			c0.5,2.9,0.9,5.8,1.4,8.7c0.7,3.7,1.4,7.4,2.3,11c0.3,1.3,0.6,2.6,0.9,3.9c-1.5-0.3-3-0.8-4.3-1.3C73.4,76.7,73.2,75.6,72.9,74.5z
			"/>
	</g>
	<path class="st29" d="M96,130.5c-0.1-0.4,0.1-0.8,0.6-0.8c0.8,0,1.6,0.1,2.3-0.1c0.9-0.2,1.4-0.7,1.9-1.4c0.4-0.6,0.8-1.1,1.4-1.4
		c0.5-0.2,1-0.3,1.5-0.4c0-1,0.7-1.9,1.7-2.1c0-0.4,0.3-0.8,0.8-0.7c1.2,0.3,2.4,0.3,3.4-0.6c0.9-0.8,1.4-1.9,1.9-3
		c0.3-0.7,1.4-0.1,1.1,0.6c-0.6,1.4-1.3,2.7-2.6,3.6c-0.9,0.7-2,0.8-3,0.7c-0.1,0.3-0.4,0.6-0.8,0.5c-0.8-0.2-1.4,0.5-1.1,1.2
		c0.2,0.4-0.2,0.8-0.6,0.8c-0.9,0.1-1.8,0.1-2.3,0.9c-0.4,0.6-0.8,1.2-1.4,1.7c-1,0.8-2.3,0.9-3.6,0.8c1.4,0.4,2.9,0.3,4.2-0.3
		c0.4-0.2,0.8,0.1,0.9,0.5c0.1,0.1,0.1,0.1,0.1,0.2c0.6,1.7,2.9,1,4.1,0.7c0.3-0.1,0.7-0.2,1.1-0.1c0.3-0.5,1.2-0.5,1.2,0.2
		c0,0.3-0.1,0.6-0.1,0.8c0,0.1,0,0.3-0.1,0.4c-0.2,0.6-1.3,0.6-1.2-0.2c0-0.1,0-0.1,0-0.2c-0.1,0.1-0.9,0.2-1,0.3
		c-0.4,0.1-0.7,0.2-1.1,0.3c-0.6,0.1-1.3,0.1-1.9,0c-0.9-0.2-1.7-0.8-2.1-1.6c-2,0.7-4,0.5-5.9-0.4C94.8,131.2,95.3,130.2,96,130.5z
		"/>
	<path class="st29" d="M73.2,113.7c1.7,2.6,3.8,5,6.2,7.1c1.2,1,2.4,2,3.8,2.8c0.6,0.4,1.3,0.8,1.9,1.2c0.4,0.2,0.7,0.4,1.1,0.6
		c0.1,0.1,1.6,0.7,1.5,0.3c-0.1-0.3,0.1-0.6,0.3-0.7c0.2-0.3,0.5-0.4,0.8-0.2c0.3,0.2,1.2,0.9,1.3,0.2c0.1-0.3,0.1-0.5,0.3-0.7
		c0.1-0.1,0.2-0.2,0.3-0.3c0,0,0.1,0,0.1-0.1c0,0,0,0,0.1,0c0-0.3,0.2-0.6,0.4-0.7c0.9-0.7,0.9-2.1-0.3-2.6
		c-0.7-0.3-0.4-1.5,0.3-1.2c2,0.8,2.4,3.3,0.8,4.6c0,0.2-0.1,0.4-0.2,0.5c-0.2,0.2-0.5,0.2-0.6,0.4c-0.1,0.2-0.1,0.5-0.2,0.8
		c-0.5,0.9-1.5,0.8-2.3,0.4c-0.1,0.4-0.4,0.7-0.8,0.8c-0.9,0.3-1.9-0.3-2.6-0.7c-1.8-0.9-3.5-2.1-5.1-3.3c-3.2-2.5-5.9-5.4-8.1-8.8
		C71.7,113.6,72.8,113,73.2,113.7z"/>
	<path class="st29" d="M75.2,104.4c0.4-1.3,0.8-2.7,1.2-4c0.3-1.2,0.6-2.4,1.2-3.5c0.5-1.1,1.4-1.7,2.3-2.5c0.8-0.8,1.4-1.8,1.7-3
		c0.3-1.1,0.3-2.2-0.1-3.3C81.1,87,80.2,86,80,84.8c-0.2-0.9,0-2,0.9-2.6c0.8-0.5,1.6-0.5,2.4,0.1c0.6,0.5-0.3,1.4-0.9,0.9
		c-0.4-0.3-1,0.1-1.1,0.5c-0.2,0.6,0,1.2,0.2,1.8c0.4,0.9,0.9,1.7,1.2,2.7c0.4,1.8,0.2,3.6-0.7,5.2c-0.9,1.8-2.9,2.7-3.6,4.5
		c-0.4,1-0.7,2.1-1,3.2c-0.2,0.8-0.5,1.6-0.7,2.4c0.1,0.1,0.2,0.2,0.3,0.3c1.9,4.9,5.2,9.1,9.4,12c0.7,0.5,0,1.5-0.6,1.1
		c-4.3-3-7.6-7.1-9.7-11.9C75.7,105.4,75,105.1,75.2,104.4z"/>
	<g>
		<path class="st23" d="M83.4,82.5c-0.8-0.4-2-0.1-2.7,0.3c-1.1,0.5-0.9,1.7-0.5,2.7c0.1,0.2-0.2,0.3-0.3,0.2
			C78.6,85,78.9,83,80,82.3c0.9-0.6,2.7-0.9,3.7-0.2C83.9,82.3,83.7,82.7,83.4,82.5L83.4,82.5z"/>
	</g>
	<g>
		<path class="st23" d="M71.6,91.2c-0.8,2.4-1.5,4.7-1.8,7.2c-0.2,1.4-0.2,2.8-0.2,4.1c0.1,1.5,0.5,3,0.5,4.6c0,0.3-0.3,0.3-0.5,0.1
			c-0.8-1.1-0.9-2.7-1-4c-0.1-1.6,0-3.2,0.3-4.7c0.4-2.5,1-5.2,2.2-7.5C71.3,90.8,71.7,90.9,71.6,91.2L71.6,91.2z"/>
	</g>
	<g>
		<path class="st23" d="M77.7,96.2c-0.4,1.6-1,3.2-1.4,4.8c-0.2,0.9-0.4,1.8-0.5,2.8c-0.1,1-0.1,2-0.4,2.9c-0.1,0.2-0.4,0.2-0.5,0
			c-0.4-1.7,0.2-4,0.6-5.6c0.4-1.7,0.9-3.4,1.8-4.9C77.4,95.8,77.7,96,77.7,96.2L77.7,96.2z"/>
	</g>
	<g>
		<path class="st23" d="M75.8,104.2c3.2,7.3,9.3,12.7,17.2,14.3c0.5,0.1,0.5,0.8,0,0.9c-0.7,0.1-1.4,0.3-2.1,0.4
			c-0.6,0.1-0.9-0.8-0.3-0.9c0.7-0.1,1.4-0.3,2.1-0.4c0,0.3,0,0.6,0,0.9c-4-0.8-7.8-2.6-10.9-5.2c-1.5-1.3-2.8-2.7-3.9-4.3
			c-1.2-1.8-1.9-3.5-2.3-5.7C75.7,104.1,75.8,104.1,75.8,104.2L75.8,104.2z"/>
	</g>
	<g>
		<path class="st23" d="M90.5,120.4c1.4-0.3,2.7,1.5,1.7,2.7c-1.2,1.4-3.3-0.2-3-1.7c0.1-0.4,0.6-0.4,0.8-0.1
			c0.7,0.9,1.4,1.9,2.1,2.8c0.2,0.3-0.1,0.6-0.4,0.6c-1.8-0.1-3.2-1.2-3.8-2.9c-0.1-0.4,0.4-0.7,0.7-0.4c1.2,1.2,1.9,2.6,2.1,4.3
			c0,0.3-0.3,0.5-0.5,0.4c-1.7-0.5-3-1.6-3.7-3.2c-0.2-0.4,0.3-0.9,0.7-0.5c1.1,1,1.5,2.4,1.2,3.8c-0.1,0.3-0.5,0.4-0.7,0.2
			c-1-1.2-2.2-0.9-3.3-2c-0.4-0.4-0.2-1.1,0.2-0.7c1,1.2,2.6,0.9,3.7,2.1c-0.2,0.1-0.5,0.1-0.7,0.2c0.3-1.2-0.1-2.2-1-3
			c0.2-0.2,0.4-0.3,0.7-0.5c0.6,1.4,1.7,2.4,3.1,2.9c-0.2,0.1-0.4,0.3-0.5,0.4c-0.1-1.5-0.8-2.7-1.8-3.7c0.2-0.1,0.5-0.3,0.7-0.4
			c0.4,1.4,1.6,2.2,3,2.3c-0.1,0.2-0.2,0.4-0.4,0.6c-0.7-0.9-1.4-1.9-2.1-2.8c0.3,0,0.5-0.1,0.8-0.1c-0.2,1,1.7,1.9,1.7,0.2
			c0-0.6-0.6-1-1.2-1C90.3,120.9,90.2,120.4,90.5,120.4L90.5,120.4z"/>
	</g>
	<g>
		<path class="st23" d="M86.4,125.6c-1.1-0.3-2-1.1-2.9-1.7c-0.9-0.6-1.7-1.2-2.5-1.9c-1.6-1.3-3.2-2.7-4.6-4.2
			c-1.3-1.4-2.5-3-3.5-4.6c-1.2-1.9-2.5-4-3-6.2c0-0.1,0.1-0.2,0.2-0.1c1.3,1.6,2.2,3.6,3.3,5.4c1.1,1.7,2.3,3.3,3.7,4.8
			c1.3,1.4,2.7,2.7,4.2,3.9c0.9,0.7,1.8,1.4,2.8,2.1c0.9,0.6,2,1.2,2.7,2.1C86.8,125.4,86.6,125.7,86.4,125.6L86.4,125.6z"/>
	</g>
	<g>
		<path class="st23" d="M110,124.8c1.4,1.4,1.3,3.7,0.2,5.2c-1.3,1.9-3.9,2.7-6.2,2.4c-1.6-0.2-3.6-1.5-2.7-3.4
			c0.6-1.2,2.5-1.1,2.8,0.3c0.1,0.3-0.2,0.5-0.5,0.5c-0.9-0.2-1.5-0.8-1.7-1.7c0-0.2,0.1-0.4,0.3-0.5c1.3-0.5,2.7-0.5,4-0.1
			c-0.1,0.3-0.2,0.5-0.3,0.8c-0.9-0.6-1.5-1.4-1.9-2.4c-0.1-0.2,0.1-0.4,0.3-0.5c1.4-0.4,2.7,0.2,3.5,1.4c-0.3,0.1-0.5,0.2-0.8,0.3
			c-0.2-0.7-0.5-1.5-0.7-2.2c-0.1-0.3,0.3-0.7,0.6-0.5c0.8,0.6,1.6,0.5,2.6,0.8c0.2,0.1,0.2,0.3,0.1,0.4c-0.9,0.6-2.2,0.1-3-0.5
			c0.2-0.2,0.4-0.3,0.6-0.5c0.2,0.7,0.4,1.5,0.7,2.2c0.1,0.5-0.5,0.7-0.8,0.3c-0.6-0.9-1.5-1.3-2.6-1c0.1-0.2,0.2-0.3,0.3-0.5
			c0.3,0.9,0.7,1.4,1.5,1.9c0.4,0.2,0.1,0.9-0.3,0.8c-1.2-0.5-2.4-0.5-3.6,0c0.1-0.2,0.2-0.3,0.3-0.5c0.2,0.7,0.6,1.1,1.2,1.2
			c-0.2,0.2-0.3,0.3-0.5,0.5c-0.5-0.9-1-0.8-1.6,0.3c0,0.5,0.2,0.9,0.6,1.2c0.6,0.5,1.4,0.7,2.1,0.7c1.1,0,2.3-0.2,3.3-0.7
			c2.2-1.1,3.1-3.7,1.7-5.9C109.3,124.9,109.7,124.6,110,124.8L110,124.8z"/>
	</g>
	<g>
		<path class="st23" d="M99.1,95.8c2.5,1.2,4.9,3.2,7,5.1c2.1,1.9,4,4,5.4,6.5c1.2,2.2,2,4.6,2.2,7.1c0.2,2.3-0.1,5.2-1.7,7
			c-0.1,0.2-0.4,0-0.3-0.2c0.7-2.4,1.4-4.5,1.2-7c-0.2-2.6-1.2-5.2-2.6-7.4c-1.4-2.2-3.3-4.1-5.2-5.9c-2-1.7-4.2-3.1-6-5
			C98.9,95.9,99,95.7,99.1,95.8L99.1,95.8z"/>
	</g>
	<g>
		<path class="st23" d="M112.1,121.6c-0.5,1.1-1,2.3-1.9,3.1c-0.5,0.4-1,0.9-1.7,0.8c-0.2-0.1-0.2-0.3-0.1-0.5c0.5-0.4,1-0.6,1.4-1
			c0.7-0.8,1.3-1.7,1.7-2.7C111.8,121,112.2,121.3,112.1,121.6L112.1,121.6z"/>
	</g>
	<g>
		<path class="st23" d="M101.9,130.5c-1.8,0.8-4.3,1.4-6.2,0.4c-0.2-0.1-0.1-0.4,0.1-0.4c2,0,3.8,0.2,5.7-0.6
			C102,129.7,102.3,130.3,101.9,130.5L101.9,130.5z"/>
	</g>
	<g>
		<path class="st23" d="M72.8,112.9c0,2.1-0.8,4.2-1.9,6c-0.9,1.6-2.4,3.6-4.2,4.3c-0.2,0.1-0.4-0.2-0.2-0.4c0.6-0.7,1.4-1.2,2-1.9
			c0.7-0.7,1.3-1.6,1.9-2.5c1-1.8,1.5-3.6,1.9-5.6C72.3,112.6,72.8,112.7,72.8,112.9L72.8,112.9z"/>
	</g>
	<g>
		<path class="st23" d="M108.9,131.8c0.1,0.8,0.1,1.7,0.1,2.5c0,0.3-0.5,0.6-0.7,0.3c-0.9-1.2-2.9-0.8-4.2-0.6
			c-1.4,0.2-2.7,0.5-4.1,0.8c-1.8,0.3-3.7,0.5-5.6,0.7c-2,0.3-4,0.3-5.9-0.2c-7.9-2-14.3-10.9-23.1-9c-0.4,0.1-0.7-0.3-0.7-0.7
			c0.2-1.1,1.3-1.8,1.7-2.8c0.2-0.4,0.7-0.1,0.7,0.2c0.1,1.2-1.2,1.8-1.3,2.9c-0.2-0.2-0.4-0.4-0.7-0.7c9.3-2.1,15.5,7.2,23.8,9.2
			c2.6,0.6,5.2,0.2,7.8-0.2c1.6-0.2,3.2-0.3,4.7-0.6c2.1-0.4,5.7-1.5,7.3,0.6c-0.2,0.1-0.5,0.1-0.7,0.2c0-0.8,0-1.7,0.1-2.5
			C108.3,131.4,108.9,131.4,108.9,131.8L108.9,131.8z"/>
	</g>
	<path class="st29" d="M83.3,98.3c2.9,2.9,7.8,2,9.5-1.7c0.3-0.7,1.4-0.1,1.1,0.6c-2.1,4.5-8,5.4-11.5,2
		C81.8,98.6,82.7,97.7,83.3,98.3z"/>
	<g>
		<path class="st23" d="M93.5,96.5c-0.9,2.2-3.1,3.7-5.5,3.9c-1.8,0.1-5.2-0.9-5.6-3c0-0.2,0.1-0.3,0.3-0.2c0.8,0.4,1.3,1.2,2,1.6
			c0.9,0.5,2,0.8,3.1,0.8c2.2-0.1,4.1-1.5,5.1-3.4C93.1,95.7,93.7,96.1,93.5,96.5L93.5,96.5z"/>
	</g>
	<path class="st30" d="M82.2,187.8c0.1-0.8,1.3-0.5,1.2,0.3c-0.3,2.3,1.6,4.1,3.8,3.9c0.8-0.1,0.8,1.2,0,1.2
		C84.1,193.6,81.7,190.8,82.2,187.8z"/>
	<path class="st30" d="M94.6,191.4c0.8,0.6,1.6,1.2,2.4,1.9c0.2,0.1,0.2,0.4,0.2,0.6c0,0.1-0.1,0.2-0.1,0.3
		c-0.2,0.7-1.3,0.5-1.2-0.2c-0.7-0.6-1.4-1.1-2.1-1.7C93.1,191.8,94,190.9,94.6,191.4z"/>
	<path class="st31" d="M89.3,144.9c0.1,0.3,0.3,0.7,0.4,1c0.2-0.5,1-0.6,1.2,0.1c1.1,4.4,1.7,8.9,1.8,13.4c0.1,1.2,0.2,2.5,0.2,3.7
		c0,0.8-1.2,0.8-1.2,0c0-0.3,0-0.5,0-0.8c-0.3,0-0.6-0.2-0.6-0.6c0-0.4-0.1-0.8-0.1-1.1c-0.3,0.3-0.9,0.2-1-0.3
		c0-0.1-0.1-0.2-0.1-0.4c-0.3,0.1-0.7,0-0.8-0.4c0,0,0,0,0-0.1c-0.3,0-0.6-0.2-0.6-0.6c-0.1-0.7-0.1-1.4-0.2-2.1
		c0-0.3,0.2-0.5,0.4-0.6c0-0.1,0-0.2,0-0.4c-0.1-0.6,0.7-0.7,1-0.4c0.2,0,0.4,0.2,0.5,0.4c0.1,0.6,0.3,1.2,0.4,1.7
		c-0.4-2.8-0.9-5.5-1.7-8.2c-0.1-0.4,0.2-0.7,0.5-0.8c-0.4-1.2-0.8-2.3-1.2-3.5C87.8,144.5,89,144.2,89.3,144.9z"/>
	<path class="st31" d="M99.2,151.9c0.2-0.7,0.3-1.5,0.5-2.2c-0.2-0.1-0.3-0.2-0.3-0.4c-0.3-1.8,0-3.7,1-5.3c0.3-0.5,1-0.3,1.1,0.2
		c0.3-1,0.6-2,0.9-3c-0.1-0.1-0.1-0.3-0.1-0.5c0.1-0.8,0.2-1.5,0.4-2.3c0.1-0.3,0.5-0.5,0.8-0.4c0,0,0,0,0,0c0.4-0.4,1.2,0,1,0.6
		c-1.4,4.6-2.8,9.1-4.1,13.7C100.1,153,99,152.7,99.2,151.9z"/>
	<path class="st31" d="M76.6,133.9c0.5,1,1.3,1.8,2.4,2.2c0.2,0.1,0.4,0.3,0.4,0.5c0.3-0.3,0.9-0.1,1,0.3c0,0.1,0,0.1,0,0.2
		c0.2-0.1,0.4-0.1,0.6,0c0.3-0.4,0.9-0.2,1.1,0.2c0-0.1,0.1-0.3,0.1-0.4c0.2-0.8,1.4-0.5,1.2,0.3c-0.3,1.7-1.5,3-3.1,3.6
		c-0.5,0.2-0.9-0.5-0.7-0.9c0.1-0.1,0.1-0.2,0.2-0.4c0-0.1,0-0.2-0.1-0.3c-0.2-0.1-0.3-0.2-0.4-0.4c0-0.3-0.1-0.6-0.1-0.9
		c-0.4,0-0.9-0.3-1-0.7c-1.2-0.5-2.2-1.4-2.8-2.6C75.2,133.9,76.2,133.2,76.6,133.9z"/>
	<path class="st31" d="M84.2,182.8c0.3-0.9,0.6-1.8,0.9-2.6c0,0,0-0.1,0-0.1c0-0.8,0.1-1.5,0.1-2.3c-0.2-0.1-0.4-0.4-0.3-0.7
		c0.4-1.2,0.8-2.3,1.2-3.5c0,0,0-0.1,0-0.1c0.3-0.9,0.6-1.9,1.1-2.8c0.3-0.6,1.2-0.2,1.2,0.3c0-0.1,0.1-0.3,0.1-0.4
		c0.1-0.3,0.3-0.4,0.5-0.4c0.2-0.4,0.4-0.8,0.5-1.3c0.3-0.7,1.4-0.1,1.1,0.6c-0.4,1-0.8,2-1.3,3c-0.6,2.7-1.3,5.3-2.9,7.5
		c0,0,0,0.1,0,0.1c-0.3,1-0.7,2-1,2.9C85.1,183.9,83.9,183.6,84.2,182.8z"/>
	<path class="st32" d="M98.5,99.7c2.8,2.6,5.7,5.3,7.4,8.7c0.9,1.8,1.6,3.9,1.4,5.9c-0.2,1.9-1.4,3.8-3.4,4.1
		c-0.5,0.1-0.6,0.9-0.1,1.1c2.6,1.5,5.7,0.2,7.1-2.2c0.2-0.1,0.5-0.3,0.5-0.6c0-0.2,0-0.4,0-0.6c0,0,0-0.1,0-0.1
		c0.7-2.5-0.1-4.9-1.6-6.7c-2.3-4.3-6.6-7.7-10.5-10.6C98.7,98.3,98,99.3,98.5,99.7z M106.2,106.4c0.2,0.3,0.4,0.5,0.7,0.8
		c0,0-0.1,0-0.1,0.1C106.6,107,106.4,106.7,106.2,106.4z"/>
	<path class="st32" d="M85.2,94.2c0.2,0,0.4,0,0.6,0c0,0,0-0.1,0.1-0.1c0.3-0.4,0.7-0.7,1.1-1c-0.1-0.2-0.1-0.4,0-0.6
		c-0.2-0.1-0.5-0.2-0.7-0.3c-0.7-0.4-0.1-1.4,0.6-1.1c0.5,0.2,0.9,0.5,1.4,0.7c0.2,0.1,0.3,0.3,0.3,0.4c0.4,0,0.9,0,1.3,0
		c0.7,0,0.8,1,0.2,1.2c0.2,0,0.4,0,0.6,0c0.4,0,0.6,0.3,0.6,0.6c0.2,0.3,0.2,0.8-0.3,1c-1.8,0.4-3.5,0.8-5.3,1.2
		c-0.6,0.1-0.9-0.4-0.7-0.8C84.4,95.1,84.5,94.1,85.2,94.2z"/>
	<path class="st13" d="M78.5,93.5c1.5-1.9,2.3-4.2,1.9-6.6c-0.1-0.8,1.1-1.1,1.2-0.3c0.2,1.4,0.1,2.8-0.3,4.2
		c-0.1,0.4-0.2,0.7-0.4,1.1c0.2,0.2,0.3,0.5,0.1,0.8c-0.4,0.6-0.7,1.2-1.1,1.8c-0.2,0.4-0.5,0.8-1,0.8C78,95.2,78.1,94,78.5,93.5z"
		/>
	<g>
		<path class="st23" d="M78.5,95.9c-0.8-1.5-1.4-2.8-2.7-4c-1.3-1.2-2.8-1.8-4.5-2.1c-0.5-0.1-0.4-1,0.1-0.9
			c3.3,0.4,7.3,3.3,7.3,6.9C78.7,96,78.6,96,78.5,95.9L78.5,95.9z"/>
	</g>
	<g>
		<path class="st23" d="M80.3,84.6c1.6,1.4,1.9,4.1,1.7,6c-0.3,2.2-1.3,4.2-3,5.6c-0.4,0.4-1.1-0.3-0.6-0.6c1.6-1.4,2.6-3.2,2.8-5.3
			c0.2-2.1-0.6-3.6-1.3-5.4C79.7,84.6,80.2,84.5,80.3,84.6L80.3,84.6z"/>
	</g>
</g>
</svg>
