<?xml version="1.0" encoding="utf-8"?>
<!-- Generator: Adobe Illustrator 23.1.0, SVG Export Plug-In . SVG Version: 6.00 Build 0)  -->
<svg version="1.1" id="Capa_1" xmlns="http://www.w3.org/2000/svg" xmlns:xlink="http://www.w3.org/1999/xlink" x="0px" y="0px"
	 viewBox="0 0 180 200" style="enable-background:new 0 0 180 200;" xml:space="preserve">
<style type="text/css">
	.st0{fill:#F9C3A2;}
	.st1{opacity:0.3;fill:#F9C3A2;}
	.st2{opacity:0.3;}
	.st3{fill:#21221D;}
	.st4{fill:#E89945;}
	.st5{opacity:0.5;}
	.st6{fill:#F9A36E;}
	.st7{fill:#A8493C;}
	.st8{fill:#F0EDE6;}
	.st9{opacity:0.3;fill:#E89945;}
	.st10{fill:#506BB2;}
	.st11{opacity:0.3;fill:#506BB2;}
	.st12{fill:#3F5FA0;}
</style>
<g>
	<g>
		<path class="st0" d="M45,108c0.7,4.1,1.4,8.9,3.5,12.6c1.8,3.1,4.7,5.5,7.3,7.9c2.9,2.7,5.8,5,9.6,6.2c7.4,2.4,15.8,2.5,23-0.8
			c6.3-2.9,11.1-8.1,14.7-13.9c-0.3-0.3-0.5-0.5-0.8-0.8c-4.2-4.2-7.1-10.2-3.5-15.2c-0.1-0.2-0.2-0.5-0.5-0.5
			c-11.5-1-22.7-5.7-31.6-13.1c-2.5-2.1-4.8-4.4-7-7c-0.1-0.1-0.2-0.1-0.3-0.2c0,0,0,0,0,0c-1.6,5.1-5.5,10-10.9,11
			c-1,0.2-2,0.4-3,0.5C44.7,99.3,44.2,103.5,45,108z"/>
		<path class="st1" d="M98.6,104.1c-0.1-0.2-0.2-0.5-0.5-0.5c-11.5-1-22.7-5.7-31.6-13.1c-2.5-2.1-4.8-4.4-7-7
			c-0.1-0.1-0.2-0.1-0.3-0.2c0,0,0,0,0,0c-0.5,1.8-1.4,3.5-2.4,5c0.6,4.4,3.9,16,15,21.7c9.4,4.9,18.3,2.9,25.3-0.3
			C96.9,107.9,97.3,105.9,98.6,104.1z"/>
		<g>
			<g>
				<path class="st0" d="M60.5,46.5c0-0.5-0.2-0.9-0.5-1.2c0-2.6-0.8-5.1-3.3-6.2c-2.7-1.1-6.3,0-7.5,2.7c-0.7,1.4-0.7,3.2-0.7,4.8
					c0,1.6,0.3,3.2,0.7,4.7c0.4,1.5,1.1,2.9,2.3,3.9c1.2,1,2.7,1.3,4.2,0.7C59.1,54.8,60.3,49.9,60.5,46.5z"/>
				<path class="st0" d="M128.4,80.9c0.8,1.3,2.2,2,3.7,1.9c1.6-0.1,2.9-0.8,4.2-1.8c1.3-0.9,2.4-2,3.4-3.3c1-1.2,2-2.7,2.4-4.2
					c0.7-3-1.5-6-4.3-6.8c-2.7-0.7-4.9,0.8-6.4,2.9c-0.4,0-0.8,0.2-1.1,0.6C128.3,73.1,126.3,77.7,128.4,80.9z"/>
			</g>
			<g class="st2">
				<path class="st0" d="M60.5,46.5c0-0.5-0.2-0.9-0.5-1.2c0-2.6-0.8-5.1-3.3-6.2c-0.1-0.1-0.3-0.1-0.5-0.1
					c-0.2,1.1-0.4,2.3-0.7,3.4c-1.1,3.8-3.3,7.1-6.1,9.7c0.4,1.2,1,2.3,2,3.2c1.2,1,2.7,1.3,4.2,0.7C59.1,54.8,60.3,49.9,60.5,46.5z
					"/>
				<path class="st0" d="M136.6,73.1c0.6-2,1.5-3.9,2.6-5.6c-0.5-0.3-1-0.5-1.5-0.7c-2.7-0.7-4.9,0.8-6.4,2.9
					c-0.4,0-0.8,0.2-1.1,0.6c-1.9,2.8-3.9,7.4-1.9,10.6c0.8,1.3,2.2,2,3.7,1.9c1.3-0.1,2.4-0.6,3.5-1.3
					C135.5,78.7,135.8,75.9,136.6,73.1z"/>
			</g>
			<path class="st0" d="M66.7,97.5c6.7,8,17.4,11.7,27.6,9.4c13-2.9,25.4-11.6,33.2-21.7c11.9-15.4,20.9-56.2-17.6-69.3
				C71.3,2.8,53.5,40.6,53.6,60.1C53.6,72.8,58.1,87.2,66.7,97.5z"/>
		</g>
		<path class="st3" d="M140.3,34.6c-1.1-7.1-5.4-15.2-13.1-15.3C123.7,4.8,99.8,3.8,88.4,5.3C72.9,7.2,59,18.1,55.6,34.4
			c0,0.2-0.1,0.4-0.1,0.6c-0.5,1.5-0.9,3-1.2,4.5c-0.2,1-0.3,2-0.4,3c0,0.1,0,0.1,0,0.2c-0.5,1.6-0.6,3.2-0.1,4.9
			c0.1,0.4,0.6,0.6,0.9,0.2c1.8-1.9,3-4.3,4.1-6.7c1.1-2.4,2.2-4.7,3.8-6.7c3.1-4,7.4-7,11.8-9.6c1.1-0.7,2.3-1.3,3.5-1.9
			c-1.4,1.2-2.8,2.4-4.2,3.5c-0.5,0.4,0,1,0.5,0.9c5.6-1.2,11.1-2.9,16.4-5c-2.2,2.4-4.9,4.4-7.9,5.8c-0.5,0.2-0.2,1,0.3,1
			c10.1,0.1,20.1-0.8,30-2.6c-1.5,2.3-3.3,4.3-5.4,6c-0.4,0.3-0.1,1,0.4,0.9c4.2-0.3,8.3-1.4,12-3.3c0.1,3.5,0.9,6.9,2.6,10
			c0.9,1.6,2,3,3.1,4.4c1.2,1.4,2.3,2.9,2.7,4.7c0.1,0.5,0.9,0.5,1.1,0c0.3-1,0.5-2,0.6-3.1c1.3,3.7,2.1,7.6,2.4,11.6
			c0.3,5-0.1,10-0.6,14.9c0,0.3,0.3,0.5,0.6,0.6c1.9,0.2,2.2-2.8,2.8-4c3.8-7.4,5.6-14.7,5.8-19.3C141.4,44.8,141,39.7,140.3,34.6z"
			/>
		<g>
			<path class="st3" d="M79,55.4c0.7-1.4-0.2-3.3-2-4.2c-1.8-0.9-5.1-1.5-5.8-0.1c-0.7,1.4,1.5,4.4,3.3,5.2
				C76.3,57.3,78.3,56.9,79,55.4z"/>
			<path class="st3" d="M108.3,67.5c0,1.6,1.6,2.9,3.6,2.9c2,0,5.2-0.9,5.2-2.5c0-1.6-3.2-3.3-5.2-3.3
				C109.9,64.6,108.3,65.9,108.3,67.5z"/>
			<path class="st3" d="M68.4,45.3c0,0,7.3,0,11,2.6c4.1,2.9,4.6,1.2,4.5,0.6c-0.1-1.5-3.4-4.1-7.6-4.6
				C71.2,43.2,68.4,45.3,68.4,45.3z"/>
			<path class="st3" d="M122.9,66.8c0,0-5.4-4.9-9.9-5.4c-5-0.6-4.2-2.1-3.8-2.6c1-1.1,5.3-0.8,8.8,1.6
				C122.2,63.4,122.9,66.8,122.9,66.8z"/>
		</g>
		<g>
			<path class="st1" d="M141.5,67.1c-0.2-0.8-0.7-1.5-1.5-1.4l-11.7,1.8c0-0.1,0-0.2-0.1-0.3c-0.2-0.6-0.8-0.9-1.4-1
				c-0.2-2.5-1.3-5-3.1-7c-2.3-2.6-5.7-4.3-9.3-4.7c-3.7-0.4-7.2,0.5-10.1,2.6c-1.2,0.9-2.3,2-3.1,3.1c-0.4,0.6-1.2,0.8-1.9,0.4
				c-2.1-1.3-7.4-3.7-9.2-4.1c-0.7-0.1-1.2-0.8-1.1-1.5c0.7-5.4-2.4-11.1-8-13.9c-5.1-2.5-10.9-1.8-14.8,1.3
				c-0.2-0.1-0.3-0.2-0.5-0.3c-0.4-0.3-1-0.4-1.4-0.1c-0.4,0.2-0.6,0.7-0.9,1.1l-10-6.8c-0.7-0.5-1-0.3-1.4,0.5
				c-0.4,0.7,9.8,8.9,9.8,8.9c-0.2,0.3-0.3,0.5-0.4,0.8c-0.2,0.5-0.2,1,0.1,1.4c0.2,0.2,0.4,0.4,0.6,0.6C60.8,54.4,64,61,70.1,64
				c6.7,3.3,14.6,1.1,17.8-4.8c1.7,0.2,8.9,2.7,11.7,5.2c-0.1,0.4-0.1,0.8-0.2,1.2c-0.4,3.4,0.7,6.7,3.1,9.4
				c1.2,1.4,2.7,2.5,4.3,3.3c1.5,0.8,3.2,1.2,5,1.4c3.7,0.4,7.2-0.5,10.1-2.6c1.7-1.3,3.1-2.8,3.9-4.6c0.7,0.1,1.4-0.4,1.8-1
				c0.2-0.3,0.3-0.6,0.4-1L141.5,67.1z M71.4,61.3c-5.4-2.7-7.9-8.7-5.5-13.5c2.4-4.8,8.7-6.6,14.1-3.9c5.4,2.7,7.9,8.7,5.5,13.5
				C83.1,62.2,76.8,64,71.4,61.3z M120.2,74.7c-2.3,1.6-5.1,2.4-8,2c-2.9-0.3-5.6-1.6-7.4-3.7c-1.8-2-2.7-4.6-2.4-7.1
				c0.3-2.6,1.6-4.8,3.9-6.5c2.3-1.6,5.1-2.4,8-2c1.4,0.2,2.8,0.5,4,1.2c1.3,0.6,2.4,1.5,3.4,2.6c1.8,2,2.7,4.6,2.4,7.1
				C123.7,70.8,122.4,73.1,120.2,74.7z"/>
			<path class="st4" d="M142.5,65.3c-0.2-0.8-1-1.2-1.7-1.1L129.1,66c0-0.1,0-0.2-0.1-0.3c-0.2-0.6-0.8-0.9-1.4-1
				c-0.2-2.5-1.3-5-3.1-7c-2.3-2.6-5.7-4.3-9.3-4.7c-3.7-0.4-7.2,0.5-10.1,2.6c-1.2,0.9-2.3,2-3.1,3.1c-0.4,0.6-1.2,0.8-1.9,0.4
				c-2.1-1.3-7.4-3.7-9.2-4.1c-0.7-0.1-1.2-0.8-1.1-1.5c0.7-5.4-2.4-11.1-8-13.9c-5.1-2.5-10.9-1.8-14.8,1.3
				c-0.2-0.1-0.3-0.2-0.5-0.3c-0.4-0.3-1-0.4-1.4-0.1c-0.4,0.2-0.6,0.7-0.9,1.1l-10-6.8c-0.7-0.5-1.7-0.3-2.1,0.5
				c-0.4,0.7-0.1,1.5,0.5,2l10,6.9c-0.2,0.3-0.3,0.5-0.4,0.8c-0.2,0.5-0.2,1,0.1,1.4c0.2,0.2,0.4,0.4,0.6,0.6
				c-1.6,5.9,1.5,12.4,7.7,15.4c6.7,3.3,14.6,1.1,17.8-4.8c1.7,0.2,8.9,2.7,11.7,5.2c-0.1,0.4-0.1,0.8-0.2,1.2
				c-0.4,3.4,0.7,6.7,3.1,9.4c1.2,1.4,2.7,2.5,4.3,3.3c1.5,0.8,3.2,1.2,5,1.4c3.7,0.4,7.2-0.5,10.1-2.6c1.7-1.3,3.1-2.8,3.9-4.6
				c0.7,0.1,1.4-0.4,1.8-1c0.2-0.3,0.3-0.6,0.4-1l12.6-1.9C142.1,67,142.7,66.2,142.5,65.3z M72.1,59.8c-5.4-2.7-7.9-8.7-5.5-13.5
				c2.4-4.8,8.7-6.6,14.1-3.9c5.4,2.7,7.9,8.7,5.5,13.5C83.8,60.7,77.5,62.5,72.1,59.8z M120.9,73.2c-2.3,1.6-5.1,2.4-8,2
				c-2.9-0.3-5.6-1.6-7.4-3.7c-1.8-2-2.7-4.6-2.4-7.1c0.3-2.6,1.6-4.8,3.9-6.5c2.3-1.6,5.1-2.4,8-2c1.4,0.2,2.8,0.5,4,1.2
				c1.3,0.6,2.4,1.5,3.4,2.6c1.8,2,2.7,4.6,2.4,7.1C124.5,69.3,123.1,71.6,120.9,73.2z"/>
			<g class="st5">
				<path class="st4" d="M125.3,65.5c0.3-2.6-0.6-5.1-2.4-7.1c-0.9-1.1-2.1-1.9-3.4-2.6c-1.2-0.6-2.6-1-4-1.2c-2.9-0.3-5.8,0.4-8,2
					c-1.5,1.1-2.6,2.5-3.3,4.1c0.7-1.1,1.5-2.1,2.6-2.9c2.3-1.6,5.1-2.4,8-2c1.4,0.2,2.8,0.5,4,1.2c1.3,0.6,2.4,1.5,3.4,2.6
					c1.8,2,2.7,4.6,2.4,7.1c-0.1,0.8-0.3,1.6-0.6,2.4C124.8,68,125.2,66.8,125.3,65.5z"/>
				<path class="st4" d="M81.3,41.1c-5.4-2.7-11.7-0.9-14.1,3.9c-0.1,0.2-0.2,0.4-0.3,0.6c2.6-4.4,8.6-5.9,13.7-3.3
					c5.2,2.5,7.6,8.2,5.8,12.9c0.1-0.2,0.2-0.4,0.3-0.6C89.2,49.9,86.7,43.8,81.3,41.1z"/>
				<path class="st4" d="M127.2,69.8c-0.9,1.8-2.2,3.4-3.9,4.6c-2.9,2.1-6.4,3-10.1,2.6c-1.8-0.2-3.5-0.7-5-1.4
					c-1.6-0.8-3.1-1.9-4.3-3.3c-2.4-2.7-3.5-6-3.1-9.4c0-0.4,0.1-0.8,0.2-1.2c-2.8-2.5-10-5-11.7-5.2c-3.3,5.9-11.1,8.1-17.8,4.8
					c-6.1-3-9.2-9.6-7.7-15.4c-0.2-0.2-0.5-0.4-0.6-0.6c-0.3-0.4-0.3-0.9-0.1-1.4c0.1-0.3,0.3-0.5,0.4-0.8l-10-6.9
					c-0.4-0.3-0.7-0.8-0.7-1.2c-0.2,0.1-0.3,0.3-0.4,0.5c-0.4,0.7-0.1,1.5,0.5,2l10,6.9c-0.2,0.3-0.3,0.5-0.4,0.8
					c-0.2,0.5-0.2,1,0.1,1.4c0.2,0.2,0.4,0.4,0.6,0.6c-1.6,5.9,1.5,12.4,7.7,15.4c6.7,3.3,14.6,1.1,17.8-4.8
					c1.7,0.2,8.9,2.7,11.7,5.2c-0.1,0.4-0.1,0.8-0.2,1.2c-0.4,3.4,0.7,6.7,3.1,9.4c1.2,1.4,2.7,2.5,4.3,3.3c1.5,0.8,3.2,1.2,5,1.4
					c3.7,0.4,7.2-0.5,10.1-2.6c1.7-1.3,3.1-2.8,3.9-4.6c0.7,0.1,1.4-0.4,1.8-1c0.2-0.3,0.3-0.6,0.4-0.9
					C128.3,69.5,127.7,69.8,127.2,69.8z"/>
				<path class="st4" d="M141.9,65.9l-12.6,1.9c-0.1,0.4-0.2,0.7-0.4,1c-0.1,0.1-0.1,0.2-0.2,0.2l12.5-1.9c0.8-0.1,1.3-0.8,1.3-1.5
					C142.3,65.7,142.1,65.8,141.9,65.9z"/>
			</g>
		</g>
		<path class="st6" d="M95.2,73.5c-0.3-0.3-0.9-0.5-1.2-0.2c-1,1-2.4,1.6-3.9,1.3c-1.3-0.2-2.4-0.9-3.1-2c-0.3-0.4-0.9-0.5-1.2-0.2
			c-0.4,0.3-0.5,0.8-0.2,1.2c1,1.4,2.6,2.4,4.3,2.7c1.9,0.3,3.8-0.4,5.2-1.7C95.4,74.4,95.5,73.9,95.2,73.5z"/>
		<path class="st3" d="M94.1,81.6c-0.1,0-0.2,0.1-0.3,0.1c-0.1,0.3-0.4,0.6-0.9,0.7c-2.3,0.8-4.7,0-6.8-0.8
			c-2.2-0.9-4.3-2.1-5.8-4.1c-0.3-0.4-0.3-0.9-0.1-1.3c-0.4-0.5-1.3-1.7-1.6-2.2c0,0-5.8,12.1,2.1,16.5c4.6,2.6,7.8,0.1,8.5-0.2
			c4.7-2.7,6.7-9.2,6.7-9.2S94.2,81.6,94.1,81.6z"/>
		<path class="st7" d="M84.3,85.2c-2-1.3-5.2-2.4-7.7-1.8c0.1,2.8,1.2,5.5,4.1,7.1c3.9,2.2,6.9,0.7,8,0
			C87.8,88.3,86.2,86.4,84.3,85.2z"/>
		<path class="st8" d="M79.6,77.3c-0.2,0.8-0.1,1.5,0.4,2.3c0.9,1.4,2.6,2.4,4,3.2c1.3,0.8,2.7,1.3,4.2,1.5c1.3,0.2,2.8,0.2,3.9-0.5
			c0.8-0.5,1.4-1.3,1.9-2.2c-2.7,0.9-5.6,0.1-8-1.2c-2.1-1.1-4.4-2.4-5.9-4.3C79.9,76.5,79.7,76.9,79.6,77.3z"/>
	</g>
	<g>
		<path class="st4" d="M152.8,222.2c0.9-17.7-5.6-34.7-12.3-50.9c-5.7-13.9-11.8-23.1-20.4-34.2c-2.7-3.5-16.9-19.5-17.2-19.8
			c-3.9,2.9-9.7,6.5-14.1,8.5c-6.5,3-14.5,6.2-21.9,5.8c-7.1-0.4-10.8-4.7-12.9-10.4c-2.8-7.1-6.3-27-6.4-27.9
			c-0.6,0.2-14.4,1.4-21.9,1.6C17.1,95.3,8.4,96.9,0,99.5c-0.3,17.8-0.4,35.6-0.3,53.4c0.1,18.2,0.3,36.4,0.8,54.6c0,1,0,2,0.1,3
			c0,0.9,0,1.9,0.3,2.8c0.6,1.8,2.1,2.2,3.8,2.5c4.4,0.7,8.9,1.4,13.3,2c8.8,1.3,17.7,2.3,26.6,3.2c17.9,1.9,35.8,3.2,53.7,4.3
			c9,0.6,17.9,1.2,26.9,1.6c4.5,0.2,9,0.4,13.4,0.2c3.5-0.1,7.3-0.3,10.5-1.7c0.9-0.4,1.7-0.9,2.5-1.5c0.2,0.5,1.1,0.4,1.2-0.2
			c0-0.3,0-0.7,0.1-1c0,0,0,0,0,0C152.9,222.7,152.9,222.4,152.8,222.2z"/>
		<path class="st9" d="M121.4,201.4c-5.5-3.7-9.9-8.7-13.3-14.4c-0.3-0.5-0.5-1-0.5-1.5c-8.3-1.9-14-11-15.1-19.5c0,0-0.1,0-0.1,0.1
			c-3,2.1-5.4,5.3-7.1,8.5c-2,3.8-1.7,6.6-0.3,10.6c2.9,8.3,6.8,16.2,9.7,24.4c1,2.7,1.6,6.2,4,8.1c2.9,2.2,7,3.2,10.5,4.1
			c12.9,3.6,26.4,3.8,39.8,3.7c0,0,0,0,0,0c0.9-0.4,1.7-0.9,2.5-1.5c0.2,0.5,1.1,0.4,1.2-0.2c0-0.3,0-0.7,0.1-1c0,0,0,0,0,0
			c0.2-0.2,0.2-0.5,0-0.7c0.2-3.7,0.1-7.5-0.3-11.1c-5-0.3-10.1-1.4-14.5-2.6C132.2,206.8,126.4,204.7,121.4,201.4z"/>
		<path class="st9" d="M110.8,170.9c0.3,4.1-0.1,8.1-0.6,12.1c-0.6,4-1.4,7.9-2.5,11.8c-0.5,1.9-1.2,3.9-1.8,5.8
			c-0.7,1.9-1.4,3.8-2.2,5.6c-1.6,3.7-3.6,7.2-5.9,10.6c1-3.9,2.2-7.7,3.2-11.5l1.7-5.7l0.8-2.8c0.3-0.9,0.6-1.9,0.8-2.8
			c1.1-3.8,2.1-7.6,3.2-11.4C108.6,178.6,109.6,174.8,110.8,170.9z"/>
		<path class="st9" d="M120.6,137.6c-0.1-0.2-0.3-0.4-0.4-0.6c-1.1-1.5-4.2-5-7.4-8.7c-0.1,0.1-0.1,0.1-0.2,0.2
			c-5.2,6.7-10.2,13.4-15.2,20.2c-4.2,5.7-15.6,19-18.7,25.5c-1.5,3.2-0.2,5.8,2,7.6c2.5,2,5.8,0.3,7.8-1.6c2.5-2.6,4.7-5.5,7-8.3
			c2.3-2.8,10.4-13.3,12.5-16.2C111.7,150.6,118.8,140.8,120.6,137.6z"/>
		<path class="st9" d="M25.8,95.1c-2.8,0.1-5.6,0.3-8.4,0.7c-1.2,4.2-3.4,14.9-4.6,20.5c-0.7,3.5-3,16.6-3.6,20.2
			c-0.6,3.5-1.2,7.1-1.4,10.7c-0.2,2.8,0.8,6.3,4,6.9c2.9,0.5,5.6-0.3,7-3.6c2.7-6.6,4.8-24,6.3-30.9c1.7-8.2,3.2-16.4,4.7-24.6
			C28.3,95,27,95,25.8,95.1z"/>
		<path class="st10" d="M102.2,207.4c-0.3-0.9-0.9-1.6-1.5-2.4c-1.1-1.5-2.1-3-3.1-4.5c-1.9-3.1-3.5-6.4-4.8-9.9
			c-2.6-7-3.8-14.4-3.5-21.8c0.1-1.8,0.2-3.6,0.5-5.4c0.1-0.5-0.2-1.1-0.9-1.1c-10.5,0.4-20.7-2.9-30.4-6.5
			c-8.3-3-16.6-6.5-23.9-11.6c-3.9-2.7-7.5-6-10.4-9.7c0-0.6-0.7-1.1-1.3-0.8c-9.4,5.3-19.7,8.8-30.3,10.5c0-0.7,0-1.4,0-2.1
			c0-1-1.5-1.2-1.7-0.2c-2.5,8.1-3.3,16.6-3.6,25c-0.2,4.2-0.3,8.4-0.3,12.6c0,4.2,0.1,8.4,0.7,12.5c1.2,7.8,4.6,15.2,10.9,20.2
			c3,2.4,6.3,4.3,9.7,6.1c3.5,1.8,7.1,3.4,10.8,4.9c14.9,5.9,30.8,8.8,46.6,11c3.9,0.5,7.9,1,11.8,1.5c2,0.2,3.8,0.4,5.4-1
			c0.7-0.6,1.3-1.4,1.9-2.1c0.7-0.9,1.4-1.7,2.2-2.6c2.8-3.4,5.6-6.8,8.5-10.2c2.5-3,5-6.1,6.5-9.7
			C102.2,209.2,102.4,208.3,102.2,207.4z"/>
		<path class="st11" d="M100.7,205c-0.9-1.2-1.8-2.5-2.6-3.8c-3.2,1.8-6.7,3.2-10.4,4c-10.4,2.4-21.5,1.8-31.7-1.2
			c-10.3-3-19.1-8.4-27-15.5c-7.8-7-14.9-15.9-16.8-26.5c-0.8-4.8-0.8-9.9-0.5-14.8c0.2-2.9,0.4-5.9,1.2-8.7
			c-6.5,2.7-13.3,4.5-20.2,5.6c0-0.7,0-1.4,0-2.1c0-1-1.5-1.2-1.7-0.2c-2.5,8.1-3.3,16.6-3.6,25c-0.2,4.2-0.3,8.4-0.3,12.6
			c0,4.2,0.1,8.4,0.7,12.5c1.2,7.8,4.6,15.2,10.9,20.2c3,2.4,6.3,4.3,9.7,6.1c3.5,1.8,7.1,3.4,10.8,4.9c14.9,5.9,30.8,8.8,46.6,11
			c3.9,0.5,7.9,1,11.8,1.5c2,0.2,3.8,0.4,5.4-1c0.7-0.6,1.3-1.4,1.9-2.1c0.7-0.9,1.4-1.7,2.2-2.6c2.8-3.4,5.6-6.8,8.5-10.2
			c2.5-3,5-6.1,6.5-9.7c0.4-0.8,0.6-1.7,0.3-2.6C101.9,206.5,101.3,205.8,100.7,205z"/>
		<path class="st12" d="M36.2,93.6c-3.6-1.4-7.6-1.2-11.1,0.3c-0.8,0.3-3.8,15.3-5.3,22.3c-0.7,3.5-3,16.6-3.6,20.2
			c-0.6,3.5-1.2,7.1-1.4,10.7c-0.2,2.8,0.8,6.3,4,6.9c2.9,0.5,5.6-0.3,7-3.6c2.7-6.6,4.8-24,6.3-30.9c1.7-8.2,3.3-16.5,4.7-24.8
			C36.9,94.2,36.7,93.8,36.2,93.6z"/>
		<path class="st12" d="M109.8,124.6c-5.2,6.7-10.2,13.4-15.2,20.2c-4.2,5.7-15.6,19-18.7,25.5c-1.5,3.2-0.2,5.8,2,7.6
			c2.5,2,5.8,0.3,7.8-1.6c2.5-2.6,4.7-5.5,7-8.3c2.3-2.8,10.4-13.3,12.5-16.2c4.2-5.8,13.2-18.2,13-18.9c-1.2-3.6-3.8-6.7-7.2-8.4
			C110.6,124.1,110.2,124.2,109.8,124.6z"/>
	</g>
	<g class="st2">
		<path class="st4" d="M44.6,95.6c1.1,7.4,2.5,14.8,4.6,21.8c1.1,3.5,2.4,7,4.2,10c1.8,3.1,4,5.8,7.3,6.7c3.2,1.2,6.8,1.4,10.4,1.1
			c3.6-0.3,7.2-1.1,10.7-2.1c3.5-1,7-2.3,10.4-3.8c3.4-1.5,6.8-3.1,10.1-4.9c-3,2.3-6.1,4.3-9.4,6.2c-3.3,1.8-6.7,3.4-10.3,4.7
			c-3.6,1.3-7.3,2.3-11.2,2.7c-3.8,0.4-7.9,0.3-11.7-1.1l-1.4-0.5c-0.5-0.3-0.9-0.5-1.4-0.8c-0.4-0.3-0.9-0.6-1.3-0.9
			c-0.4-0.3-0.8-0.7-1.1-1.1c-1.4-1.5-2.6-3.1-3.5-4.8c-1.8-3.5-3.1-7.1-4-10.8C45.2,110.7,44.5,103.1,44.6,95.6z"/>
	</g>
	<g>
		<path class="st0" d="M-38.6,134.9c0.5,2.4,1.6,4.8,2.8,6.9c1.2,2.2,2.6,4.3,4.4,6.1c1.7,1.7,3.8,3.2,6.1,4
			c1.1,0.4,2.4,0.8,3.5,0.3c1.2-0.5,2-1.9,2.7-2.9c3.5-4.5,24.2-32,27.7-36.6C9,112.9,9.5,113,10,113c0.2,0,0.5,0,0.7-0.2
			c4.9,0.3,10.1-2,14.9-2.9c1.8-0.3,3.6-0.4,5.4-0.3c1.7,0,3.5,0.1,5.1-0.4c1.5-0.4,2.9-1.1,3.9-2.2c1-1.1,1.8-2.8,0.8-4.1
			c-0.6-0.7-1.5-1.1-2.3-1.4c-1-0.4-2-0.8-3.1-1.1c-1.4-0.5-2.9-0.9-4.4-1.2c6.4-4.5,12.8-9,19.2-13.6c1.5-1,3.3-2.1,3.9-3.9
			c0.5-1.5-0.2-3-1.6-3.9c-3.7-2.5-15.6,5.5-17.1,6.3c1.3-1.4,4.7-5.6,5.9-7.1c1.3-1.5,2.5-3.1,3.7-4.7c1.1-1.5,2.2-2.9,3.2-4.5
			c0.7-1.2,1.2-2.7,0.8-4c-0.5-1.5-2.1-2.3-3.6-2.2c-1.8,0.1-3.2,1.3-4.5,2.4C39.3,65,29.1,74.9,27.4,76.3
			c-0.1-1.4,8.2-11.2,9.7-15.4c0.4-1.3-0.3-2.6-1.5-3.3c-1.2-0.7-2.6-0.6-3.8-0.1c-1.4,0.6-2.7,1.5-3.9,2.4
			c-1.3,0.9-9.3,10.4-10.6,11.7c0.5-1.3,3.4-7.7,3.8-9c0.4-1.2,0.9-2.6,0.7-3.9c-0.2-1.2-1.2-2.1-2.4-2.3c-2.9-0.5-4.9,2.6-6.3,4.7
			c-1.7,2.7-3.1,5.6-4.5,8.3c-3,5.7-6.1,11.4-9,17.3c-1.2,2.3-2.4,4.8-3.3,7.3c-3.3,1.7-32.4,32.5-34,34.5
			C-39.3,130.4-39.2,132.2-38.6,134.9z"/>
		<path class="st1" d="M-37.7,128.4c1.6-2,30.7-32.8,34-34.5c0.8-2.5,2.1-4.9,3.3-7.3c0.3-0.7,0.7-1.3,1-2c0.3,2.3,0.6,4.6,1.3,6.7
			c1.5,5.1,4.9,8.9,9.3,11.6c8.1,5,19.5,7.3,28.7,4.1c0,0,0.1,0,0.1,0c-1,1.1-2.4,1.8-3.9,2.2c-1.7,0.4-3.4,0.4-5.1,0.4
			c-1.8,0-3.6,0-5.4,0.3c-4.8,0.9-9.9,3.2-14.9,2.9c-0.2,0.1-0.4,0.2-0.7,0.2c-0.5,0-1-0.1-1.4-0.2c-3.5,4.5-24.2,32-27.7,36.6
			c-0.8,1-1.5,2.4-2.7,2.9c-1.1,0.5-2.4,0.1-3.5-0.3c-2.3-0.8-4.4-2.3-6.1-4c-1.8-1.8-3.2-3.9-4.4-6.1c-1.1-2.2-2.3-4.5-2.8-6.9
			C-39.2,132.2-39.3,130.4-37.7,128.4z"/>
		<g class="st2">
			<path class="st0" d="M31.1,99.1c-1.6-1.7-3.6-3.2-5.6-4.4c-1-0.6-2.1-1.2-3.2-1.7c-0.5-0.3-1.1-0.5-1.7-0.7
				c-0.6-0.2-1.1-0.5-1.7-0.6c-2.3-0.8-4.7-1.3-7.1-1.4c-0.6,0-1.2-0.1-1.8-0.1c-0.6,0-1.2,0.1-1.8,0.1l-0.9,0.1
				c-0.3,0-0.6,0.1-0.9,0.2c-0.6,0.1-1.2,0.2-1.7,0.4c0.6,0.1,1.2,0.1,1.8,0.1l0.9,0l0.9,0.1c0.6,0.1,1.2,0.1,1.7,0.2
				c0.6,0.1,1.1,0.2,1.7,0.3c2.3,0.4,4.5,1,6.7,1.7c0.6,0.2,1.1,0.4,1.6,0.6c0.5,0.2,1.1,0.4,1.6,0.6c1.1,0.4,2.1,0.9,3.2,1.4
				C26.9,96.9,29,97.9,31.1,99.1z"/>
		</g>
		<g class="st2">
			<path class="st0" d="M9,78.6c2.1,1.4,4.2,2.9,6.2,4.4c1,0.8,2,1.5,3,2.3c1,0.8,1.9,1.6,2.9,2.4c1.9,1.6,3.7,3.4,5.4,5.3
				c1.7,1.9,3.2,3.9,4.6,6c-0.8-2.4-2-4.8-3.5-6.9c-1.6-2.1-3.3-4-5.3-5.7c-0.5-0.4-1-0.8-1.5-1.2c-0.5-0.4-1-0.8-1.5-1.2
				c-1.1-0.8-2.1-1.5-3.2-2.1C13.8,80.6,11.4,79.4,9,78.6z"/>
		</g>
	</g>
</g>
</svg>
