<?xml version="1.0" encoding="utf-8"?>
<!-- Generator: Adobe Illustrator 23.1.0, SVG Export Plug-In . SVG Version: 6.00 Build 0)  -->
<svg version="1.1" id="Capa_1" xmlns="http://www.w3.org/2000/svg" xmlns:xlink="http://www.w3.org/1999/xlink" x="0px" y="0px"
	 viewBox="0 0 180 200" style="enable-background:new 0 0 180 200;" xml:space="preserve">
<style type="text/css">
	.st0{fill:#ECECEC;}
	.st1{fill:#E1E1E1;}
	.st2{fill:#F5F5F5;}
	.st3{fill:#FF4F5B;}
	.st4{fill:#1A2E35;}
	.st5{opacity:0.3;}
	.st6{fill:none;stroke:#1A2E35;stroke-width:5.000000e-02;stroke-miterlimit:10;}
	.st7{fill:#FF9E77;}
	.st8{fill:#ED7B54;}
	.st9{fill:#375A64;}
</style>
<g>
	<g>
		<g>
			<g>
				<g>
					<path class="st0" d="M175,132.3c4.8-2.5,10.4-2.8,15.6-1.9c2.8,0.5,5.8,1.3,7.7,3.4c1.9,2.1,2.3,5.9,0.1,7.7
						c-1.3,1.1-3.2,1.3-4.9,1.2c-4.1,0-8.7-0.8-12,1.7c-1.9,1.4-3.1,3.8-5.4,4.5c-2.2,0.7-4.7-0.6-5.9-2.6c-1.2-2-1.2-4.5-0.7-6.7
						C169.7,139.7,170.2,134.8,175,132.3z"/>
				</g>
			</g>
		</g>
		<g>
			<g>
				<g>
					<path class="st0" d="M164.1,111.3c2.9,4.2,8.6,2.8,11.2,0.2c2.6-2.5,3.7-6.2,4.7-9.7c2.3-8,4.6-16.4,2.9-24.6
						c-0.5-2.4-1.4-4.9-3.1-6.7c-1.7-1.8-4.3-2.9-6.8-2.2c-2.9,0.8-4.6,3.5-5.9,6.2c-3.8,7.8-5.8,16.5-5.8,25.1
						C161.4,103.7,161.9,108,164.1,111.3"/>
				</g>
			</g>
		</g>
		<g>
			<g>
				<g>
					<path class="st0" d="M156.2,117.3c3.2-3.7,3.8-9.2,2.4-13.9c-1.4-4.7-4.6-8.7-8.2-12c-4.3-3.8-9.3-6.8-14.8-8.7
						c-2.1-0.7-4.4-1.3-6.6-1.1c-2.3,0.2-4.5,1.4-5.6,3.4c-1.6,3-0.1,6.6,1.5,9.5c2.8,5.2,6.1,10.1,9.7,14.8
						c2.9,3.7,6.2,7.4,10.7,9.1c4.4,1.7,9,1.5,11.4-1.6"/>
				</g>
			</g>
		</g>
		<g>
			<g>
				<g>
					<g>
						<path class="st1" d="M163.9,174c0.1,0,0.1-0.7,0.3-1.9c0.1-1.4,0.3-3.1,0.5-5.2c0.2-2.2,0.6-4.7,1.2-7.6
							c0.6-2.8,1.5-5.8,2.7-8.9c1.2-3.1,2.8-5.8,4.6-8.1c1.8-2.2,3.8-3.9,5.8-4.8c1.9-1,3.7-1.3,4.8-1.5c1.2-0.1,1.9-0.2,1.9-0.3
							c0-0.1-0.7-0.1-1.9,0c-1.2,0.1-3,0.4-5.1,1.3c-2,0.9-4.2,2.5-6.1,4.8c-1.9,2.3-3.4,5.1-4.7,8.2c-1.2,3.1-2.2,6.2-2.7,9.1
							c-0.6,2.9-0.8,5.5-1,7.7c-0.2,2.2-0.2,4-0.3,5.2C163.9,173.3,163.9,174,163.9,174z"/>
					</g>
				</g>
			</g>
		</g>
		<g>
			<g>
				<g>
					<g>
						<path class="st1" d="M164.3,170c0,0,0-0.3,0.1-0.9c0-0.7,0-1.5,0-2.5c0-2.2,0-5.3,0.1-9.2c0.2-7.8,0.9-16.1,2.2-27.9
							c1.2-11.1,2.9-24,4.6-32.4c0.4-1.9,0.7-3.6,1.1-5.1c0.3-1.5,0.6-2.8,0.9-3.9c0.2-1,0.4-1.8,0.6-2.4c0.1-0.6,0.2-0.9,0.2-0.9
							c0,0-0.1,0.3-0.3,0.8c-0.2,0.6-0.4,1.4-0.7,2.4c-0.3,1-0.7,2.3-1,3.8c-0.4,1.5-0.8,3.2-1.2,5.1c-1.7,7.6-3.5,18.2-4.8,30
							c-1.3,11.8-1.9,22.6-1.9,30.4c0,3.9,0,7,0.1,9.2c0.1,1,0.1,1.8,0.2,2.5C164.2,169.7,164.3,170,164.3,170z"/>
					</g>
				</g>
			</g>
		</g>
		<g>
			<g>
				<g>
					<g>
						<path class="st1" d="M164.4,149.3c0.1,0,0-0.9,0-2.6c-0.1-1.7-0.3-4.1-0.8-7.1c-0.5-3-1.2-6.5-2.3-10.3
							c-0.5-1.8-1.6-5.9-4.3-12.2c-3.6-8.5-8.4-15.4-12.7-19.7c-1-1.1-2.1-2-3-2.8c-0.5-0.4-0.9-0.8-1.3-1.1
							c-0.4-0.3-0.8-0.6-1.2-0.8c-1.4-1-2.2-1.5-2.2-1.4c-0.1,0.2,3.1,2.1,7.2,6.4c4.1,4.4,8.8,11.3,12.4,19.7
							c2,4.6,3.4,8.6,4.3,12.1c1.1,3.8,1.9,7.3,2.5,10.2c0.5,2.9,0.9,5.4,1,7C164.2,148.3,164.3,149.3,164.4,149.3z"/>
					</g>
				</g>
			</g>
		</g>
	</g>
	<g>
		<g>
			<g>
				<polygon class="st1" points="144.3,185.8 146.4,214.3 183,214.3 185,185.8 				"/>
			</g>
		</g>
	</g>
	<g>
		<g>
			<g>
				<rect x="140.8" y="174.6" class="st1" width="48.6" height="11.2"/>
			</g>
		</g>
	</g>
	<g>
		<g>
			<g>
				<polygon class="st0" points="140.8,213.2 140.8,216.3 143.1,216.3 188.6,216.3 188.6,213.2 				"/>
			</g>
		</g>
	</g>
	<g>
		<g>
			<g>
				<polygon class="st1" points="145.3,221.8 143.1,216.3 186.9,216.3 184.2,221.8 				"/>
			</g>
		</g>
	</g>
	<g>
		<g>
			<g>
				<g>
					<path class="st2" d="M184.4,195.2c0,0,0,0.1-0.2,0.3c-0.1,0.2-0.3,0.4-0.5,0.7c-0.5,0.7-1.2,1.6-2.1,2.7l-0.1,0.1l-0.1-0.1
						c-1.3-1.9-3.1-4.3-5.2-7.2h0.3c-1.6,2.2-3.3,4.7-5.2,7.3l-0.2,0.2l-0.2-0.2c-1.9-2.3-4-4.7-6.1-7.3l0.4,0
						c-0.1,0.1-0.2,0.3-0.3,0.4c-1.9,2.4-3.7,4.7-5.5,6.9l-0.2,0.2l-0.2-0.2c-1.9-2.6-3.6-5.1-5.2-7.3l0.3,0
						c-2.5,2.9-4.7,5.4-6.4,7.2l-0.1,0.1l-0.1-0.1c-0.8-1.4-1.5-2.5-2-3.3c-0.2-0.4-0.4-0.7-0.5-0.9c-0.1-0.2-0.2-0.3-0.2-0.3
						c0,0,0.1,0.1,0.2,0.3c0.1,0.2,0.3,0.5,0.6,0.9c0.5,0.8,1.2,1.9,2.1,3.3l-0.2,0c1.6-1.9,3.7-4.4,6.2-7.3l0.2-0.2l0.1,0.2
						c1.6,2.2,3.3,4.7,5.2,7.3l-0.4,0c1.7-2.2,3.6-4.5,5.5-6.9c0.1-0.1,0.2-0.3,0.3-0.4l0.2-0.2l0.2,0.2c2.1,2.6,4.2,5,6.1,7.3
						l-0.3,0c1.9-2.6,3.6-5.1,5.2-7.3l0.2-0.2l0.1,0.2c2.1,2.9,3.8,5.4,5.1,7.3l-0.2,0c0.9-1.1,1.7-2,2.2-2.7
						c0.2-0.3,0.4-0.5,0.6-0.7C184.3,195.2,184.4,195.1,184.4,195.2z"/>
				</g>
			</g>
		</g>
	</g>
	<g>
		<g>
			<g>
				<g>
					<path class="st2" d="M185.5,185.7c0,0.1-9.2,0.2-20.5,0.2c-11.3,0-20.5-0.1-20.5-0.2c0-0.1,9.2-0.2,20.5-0.2
						C176.4,185.4,185.5,185.5,185.5,185.7z"/>
				</g>
			</g>
		</g>
	</g>
	<g>
		<g>
			<g>
				<g>
					<path class="st2" d="M187.4,216.7c0,0.1-10,0.2-22.2,0.2c-12.3,0-22.2-0.1-22.2-0.2c0-0.1,10-0.2,22.2-0.2
						C177.4,216.4,187.4,216.5,187.4,216.7z"/>
				</g>
			</g>
		</g>
	</g>
</g>
<g>
	<g>
		<path class="st3" d="M55.5,108.6l-4.1,2.2l-9.1,7c0,0-27.9,3.7-29,4.5c-1.1,0.8-14.9,7.4-16.8,16.2c-1.9,8.8-5.7,66.5-5.7,66.5
			l5.1,17l101.6,0.2l23.8-0.3c0,0,9.2-21.4,9.2-27.3c0-5.9-2.7-50.1-2.7-50.1l-28.6-20.2L55.5,108.6z"/>
	</g>
	<g>
		<g>
			<path class="st4" d="M42,117.4c0,0,0,0.1-0.1,0.2c-0.1,0.2-0.3,0.4-0.4,0.7c-0.4,0.6-0.9,1.4-1.6,2.4c-0.3,0.5-0.7,1.1-1,1.7
				c-0.3,0.6-0.7,1.3-1,2.1c-0.7,1.5-1.3,3.1-1.8,4.9c-1.1,3.6-1.6,6.9-2,9.4c-0.2,1.2-0.3,2.2-0.4,2.9c0,0.3-0.1,0.6-0.1,0.8
				c0,0.2,0,0.3-0.1,0.3c0,0,0-0.1,0-0.3c0-0.2,0-0.5,0.1-0.8c0.1-0.7,0.2-1.7,0.3-2.9c0.3-2.4,0.9-5.8,1.9-9.4
				c0.5-1.8,1.2-3.5,1.9-4.9c0.3-0.7,0.7-1.4,1-2.1c0.3-0.6,0.7-1.2,1-1.7c0.7-1,1.2-1.9,1.7-2.4c0.2-0.3,0.4-0.5,0.5-0.6
				C41.9,117.5,42,117.4,42,117.4z"/>
		</g>
	</g>
	<g class="st5">
		<g>
			<path d="M42.6,134.4c-0.2-0.5-0.4-1.2-0.9-1.4c-0.4-0.2-0.2,0.1-0.7,0.3c-3.9,1.6-5.7,5.2-7.4,9.2l0.1-0.1
				c-0.2,0.6,0,1.5,0.6,1.9c0.9,0.5,2,0.2,2.9-0.2s1.7-1.1,2.7-1.4c2.1-0.5,4.2,0.9,5.7,2.5c1.5,1.6,2.8,3.5,4.9,4.3
				C47,144.9,44.3,139.8,42.6,134.4z"/>
		</g>
	</g>
	<g>
		<g>
			<path class="st4" d="M33.4,142.7c0,0,0.5-1.2,1.6-3.3c0.6-1,1.4-2.2,2.5-3.5c0.6-0.6,1.2-1.3,1.9-1.9c0.8-0.6,1.7-1.1,2.7-1.3
				l0.1,0l0,0.1c0.6,1.7,1.3,3.5,2.1,5.5c0.8,1.9,1.7,4,2.9,6c1.2,2,2.7,3.9,4.4,5.7c1.8,1.8,3.8,3.4,6.1,4.8
				c0.7,0.4,1.5,0.9,2.2,1.3c0.8,0.4,1.5,0.8,2.2,1.2l-0.1,0c1.3-0.9,2.5-1.7,3.7-2.6c0.6-0.4,1.2-0.8,1.8-1.2
				c0.6-0.4,1.2-0.8,1.7-1.2c2.2-1.7,4.1-3.6,5.8-5.4l0,0l0,0c2.3-1.8,4.1-3.8,5.3-5.8c1.2-2,2-3.9,2.4-5.5c0.4-1.6,0.5-2.9,0.6-3.8
				c0-0.4,0-0.8,0-1c0-0.2,0-0.4,0-0.4s0,0.1,0,0.4c0,0.2,0,0.6,0,1c0,0.9-0.1,2.2-0.5,3.9c-0.4,1.6-1.1,3.6-2.4,5.6
				c-1.2,2-3,4.1-5.3,5.9l0,0c-1.7,1.8-3.6,3.7-5.8,5.5c-0.6,0.4-1.1,0.8-1.7,1.3c-0.6,0.4-1.2,0.8-1.8,1.2
				c-1.2,0.8-2.5,1.7-3.7,2.6l-0.1,0l-0.1,0c-0.7-0.4-1.5-0.8-2.2-1.2c-0.7-0.4-1.5-0.9-2.2-1.3c-2.2-1.4-4.3-3.1-6.1-4.8
				c-1.8-1.8-3.3-3.8-4.5-5.8c-1.2-2-2.1-4.1-2.9-6c-0.8-1.9-1.4-3.8-2.1-5.5l0.1,0.1c-1,0.2-1.9,0.7-2.6,1.2
				c-0.7,0.6-1.4,1.2-1.9,1.8c-1.1,1.3-1.9,2.5-2.5,3.5c-0.6,1-1,1.8-1.3,2.4c-0.1,0.3-0.2,0.5-0.3,0.6
				C33.4,142.7,33.4,142.7,33.4,142.7z"/>
		</g>
	</g>
	<g>
		<g>
			<path class="st4" d="M90.9,130.1c0,0,0.2,3-0.4,7.8c-0.3,2.4-0.8,5.3-1.6,8.4c-0.8,3.1-1.9,6.5-3.4,10l-0.2,0.5l-0.1-0.5
				c0-0.3-0.1-0.6-0.1-1c-0.3-1.9-0.7-3.7-1.3-5.4c-0.3-0.9-0.6-1.7-1-2.5c-0.2-0.4-0.4-0.8-0.6-1.2c-0.2-0.4-0.4-0.8-0.6-1.1
				c-0.2-0.3-0.5-0.6-0.9-0.7c-0.3-0.1-0.7,0-1,0.2c-0.3,0.2-0.5,0.6-0.8,0.8c-0.3,0.3-0.5,0.6-0.7,0.9c-1,1.1-1.9,2.2-2.7,3.1
				c-1.7,1.9-3,3.4-4,4.5c-0.5,0.5-0.8,0.9-1.1,1.2c-0.1,0.1-0.2,0.2-0.3,0.3c-0.1,0.1-0.1,0.1-0.1,0.1c0,0,0,0,0.1-0.1
				c0.1-0.1,0.2-0.2,0.3-0.3c0.3-0.3,0.6-0.7,1-1.2c0.9-1.1,2.3-2.6,3.9-4.5c0.8-1,1.7-2,2.7-3.1c0.2-0.3,0.5-0.6,0.7-0.9
				c0.3-0.3,0.5-0.6,0.8-0.9c0.3-0.3,0.8-0.4,1.2-0.2c0.4,0.2,0.7,0.5,1,0.8c0.3,0.3,0.5,0.7,0.7,1.1c0.2,0.4,0.4,0.8,0.6,1.2
				c0.4,0.8,0.7,1.6,1,2.5c0.6,1.7,1.1,3.6,1.3,5.5c0,0.3,0.1,0.7,0.1,1l-0.3,0c1.5-3.4,2.6-6.8,3.4-9.9c0.8-3.1,1.3-6,1.6-8.4
				c0.3-2.4,0.4-4.4,0.5-5.7c0-0.7,0-1.2,0.1-1.6c0-0.2,0-0.3,0-0.4C90.9,130.1,90.9,130.1,90.9,130.1z"/>
		</g>
	</g>
	<g>
		<g>
			<path class="st4" d="M52.5,115.9c0,0,0,0-0.1,0.1c-0.1,0.1-0.1,0.2-0.2,0.3c-0.2,0.2-0.5,0.6-0.9,1.1c-0.7,1-1.7,2.5-2.5,4.6
				c-0.8,2.1-1.5,4.6-1.8,7.5c-0.3,2.9-0.3,6.2,0.4,9.5c0.3,1.7,0.8,3.2,1.4,4.7c0.6,1.5,1.3,2.8,2.1,4.1c1.6,2.5,3.4,4.4,5.1,5.8
				c0.8,0.7,1.7,1.3,2.4,1.8c0.7,0.5,1.4,0.9,1.9,1.2c0.5,0.3,0.9,0.5,1.3,0.7c0.1,0.1,0.2,0.1,0.3,0.2c0.1,0,0.1,0.1,0.1,0.1
				c0,0,0,0-0.1,0c-0.1,0-0.2-0.1-0.3-0.2c-0.3-0.2-0.7-0.4-1.3-0.6c-0.5-0.3-1.2-0.7-1.9-1.2c-0.7-0.5-1.6-1.1-2.4-1.8
				c-1.7-1.4-3.6-3.3-5.2-5.8c-0.8-1.2-1.6-2.6-2.1-4.1c-0.6-1.5-1.1-3.1-1.5-4.7c-0.7-3.3-0.7-6.6-0.4-9.5c0.4-2.9,1.1-5.5,1.9-7.6
				c0.8-2.1,1.8-3.6,2.6-4.6c0.4-0.5,0.7-0.9,0.9-1.1C52.3,116.1,52.3,116,52.5,115.9C52.5,115.9,52.5,115.9,52.5,115.9z"/>
		</g>
	</g>
	<g>
		<g>
			<path class="st4" d="M8.7,165.3c0,0,0,0,0.1,0.1c0.1,0.1,0.2,0.3,0.3,0.5l-0.1,0c-0.4-1.7-1.4-7-2.5-13.3
				c-0.7-3.9-1.3-7.4-1.8-9.9c-0.2-1.2-0.4-2.3-0.5-3c0-0.3-0.1-0.6-0.1-0.8c0-0.2,0-0.3,0-0.3s0,0.1,0.1,0.3c0,0.2,0.1,0.5,0.2,0.8
				c0.1,0.7,0.3,1.8,0.6,3c0.5,2.6,1.1,6.1,1.8,9.9c1.1,6.3,2.1,11.6,2.3,13.3l0,0.3L9,166c-0.1-0.2-0.2-0.4-0.2-0.5
				C8.7,165.3,8.7,165.3,8.7,165.3z"/>
		</g>
	</g>
	<g>
		<g>
			<path class="st4" d="M7.5,164.2c-0.1,0-1.4-2.6-2.9-5.8c-1.5-3.2-2.7-5.9-2.7-5.9c0.1,0,1.4,2.6,2.9,5.8
				C6.4,161.5,7.6,164.2,7.5,164.2z"/>
		</g>
	</g>
	<g>
		<path class="st6" d="M5.5,167.9"/>
	</g>
	<g class="st5">
		<g>
			<path d="M7,220.8c3.2,1.6,10.7-1.2,13.4-4.8c2.7-3.6,3.5-8.2,4.1-12.6c0.9-6.7,1.5-13.4,1.9-20.2c5.5,4.1,12.5,6.1,19.3,5.8
				c4.4-0.2,9.3-1.9,10.7-6.1c1.3-4.1-1.5-8.3-4.5-11.5c-2.8-3-5.9-5.7-9.3-8.1c-2.2-1.6-4.6-3.1-7.3-3.4c-2.9-0.3-5.8,0.9-8,2.8
				c-2.2,1.9-3.7,4.5-4.9,7.2c-3.4,8.2-3.3,17.4-4,26.3C17.8,205,16.8,214.2,9,220"/>
		</g>
	</g>
	<g>
		<g>
			<path class="st4" d="M7.2,220.8c0,0,0.1,0,0.2-0.1c0.2-0.1,0.4-0.2,0.6-0.3c0.5-0.3,1.3-0.7,2.2-1.5c1.8-1.5,3.9-4,5.9-7.4l0,0
				c0.5-3.5,1-7.6,1.6-12c0.9-6.9,1.8-13.2,2.5-17.7c0.4-2.2,0.8-4.1,1-5.3c0.1-0.6,0.2-1.1,0.3-1.4c0-0.2,0.1-0.3,0.1-0.4
				c0-0.1,0-0.1,0-0.1c0,0,0,0,0,0.1c0,0.1,0,0.2-0.1,0.4c-0.1,0.4-0.1,0.8-0.2,1.5c-0.2,1.3-0.5,3.1-0.9,5.4
				c-0.6,4.6-1.4,10.8-2.4,17.8c-0.6,4.4-1.2,8.5-1.6,12l0,0l0,0c-2.1,3.4-4.3,5.9-6.1,7.4c-0.9,0.8-1.7,1.2-2.3,1.5
				c-0.3,0.1-0.5,0.2-0.7,0.2C7.3,220.8,7.2,220.8,7.2,220.8z"/>
		</g>
	</g>
	<g>
		<g>
			<path class="st4" d="M56.7,221.9c0,0,0-0.1,0-0.2c0-0.1-0.1-0.3-0.1-0.5c-0.1-0.4-0.3-1-0.4-1.9c-0.3-1.6-0.6-4-0.7-7
				c-0.1-3,0.1-6.5,0.6-10.4c0.5-3.9,1.3-8.1,2.2-12.5c0.9-4.4,2-8.6,2.9-12.4c0.9-3.8,1.5-7.3,1.7-10.2c0.2-2.9,0-5.3-0.3-7
				c-0.1-0.8-0.2-1.4-0.3-1.9c0-0.2-0.1-0.4-0.1-0.5c0-0.1,0-0.2,0-0.2c0,0,0,0.1,0,0.2c0,0.1,0.1,0.3,0.1,0.5
				c0.1,0.4,0.2,1.1,0.3,1.9c0.3,1.6,0.5,4,0.3,7c-0.1,3-0.7,6.5-1.6,10.3c-0.9,3.8-2,8-2.9,12.4c-0.9,4.4-1.7,8.6-2.2,12.5
				c-0.5,3.9-0.7,7.4-0.6,10.3c0.1,3,0.3,5.3,0.6,7c0.1,0.8,0.3,1.4,0.3,1.9c0,0.2,0.1,0.4,0.1,0.5
				C56.7,221.9,56.7,221.9,56.7,221.9z"/>
		</g>
	</g>
	<g>
		<g>
			<path class="st4" d="M65.4,163.9c-0.1,0,0.8-1.5,1.8-3.3c1-1.8,1.7-3.3,1.8-3.3c0,0-0.1,0.4-0.4,1c-0.3,0.6-0.7,1.5-1.2,2.4
				c-0.5,0.9-1,1.7-1.4,2.3C65.6,163.6,65.4,164,65.4,163.9z"/>
		</g>
	</g>
	<g class="st5">
		<g>
			<path d="M67,161.8c2.7-3.1,5.6-6.1,8.7-8.8c0.8-0.7,1.8-1.5,2.9-1.7c1.4-0.2,2.7,0.5,3.7,1.5c0.9,1,1.5,2.3,2.1,3.5
				c1.3-3.3-0.1-7-1.4-10.3c-0.5-1.1-1.2-2.3-2.4-2.2c-0.6,0.1-1.1,0.6-1.5,1.1c-4.5,5.2-8.6,10.6-12.3,16.3"/>
		</g>
	</g>
	<g class="st5">
		<g>
			<path d="M112.2,137.3l0.2-1.6c-2,0.2-4.4,0.4-5.9,1.6c-1.8,1.4-2.5,3.8-3.2,6c-1.4,5,2.6,30.9,2.4,36.2c1.7-0.7,3-11.9,3.3-13.7
				c0.8-4.5-0.8-7.4-0.3-8.6c0.5-1.3,0.5-2.6,0.5-4C109.3,147.1,109.9,142.8,112.2,137.3"/>
		</g>
	</g>
</g>
<g>
	<g>
		<g>
			<path class="st4" d="M86.7,54.1c-2.5-3.1-1.7-8,1.2-10.8c2.9-2.8,7.2-3.6,11.1-2.9c5.7,1,10.8,4.8,13.2,10c1.3,2.8,2.1,6.1,4.5,8
				c2.2,1.7,5.1,1.8,7.6,3c3.3,1.6,5.4,5,6.2,8.6c0.8,3.6,0.3,7.3-0.5,10.9c-0.7,3.3-1.6,6.8-0.2,9.9c1.4,3,4.6,4.6,6.7,7.1
				c4,4.7,3.1,12.7-1.8,16.4c-1.6,1.2-3.6,2.1-4.3,3.9c-0.7,1.7-0.1,3.5-0.1,5.3c-0.1,4.6-5.2,8.4-9.6,7.2c-2.2-0.6-4.3-2.3-6.6-2
				c-2.3,0.3-3.8,2.4-5.7,3.8c-3.7,2.7-9.3,2.3-12.5-0.9c-1.4-1.3-2.4-3.2-4.3-3.7c-1.8-0.5-3.8,0.6-5.7,0.3
				c-2.5-0.3-4.1-2.8-4.8-5.2c-0.7-2.4-0.9-5-2.2-7.1c-1.6-2.8-4.7-4.4-7.3-6.4c-5.7-4.4-9.3-11.3-9.8-18.5
				c-0.4-7.2,2.4-14.5,7.6-19.5"/>
		</g>
	</g>
</g>
<g>
	<g>
		<path class="st7" d="M52.2,115.9c-4.9,5.6-6.9,13.8-5,21c1.8,7.3,7.9,17.9,14.9,20.5c4.5-3.3,10.4-8,14.6-11.7
			c2.7-2.4,4.2-5.9,5.6-9.3c0.8-2,1.6-4.1,1.1-6.1c-0.4-1.5-1.4-2.8-2.5-3.9c-6.9-7.2-17.4-10.7-27.2-9.1"/>
	</g>
	<g>
		<g>
			<g>
				<g>
					<g>
						<g>
							<g>
								<g>
									<g>
										<g>
											<g>
												<g>
													<g>
														<g>
															<g>
																<path class="st7" d="M73,63.6L73,63.6c2.6-5.3,8.6-8,14.3-6.6l17.6,4.5c8.8,2.8,15.6,16.4,10.5,28.3
																	c-4.1,9.4-8.3,21.2-12.5,27.7c-8.4,13-20,10.1-20,10.1l-6.2,13.9l-25.5-23.9L73,63.6z"/>
															</g>
														</g>
													</g>
													<g>
														<g>
															<g>
																<g>
																	<g>
																		<g>
																			<g>
																				<g>
																					<g>
																						<g>
																							<g>
																								<g>
																									<path class="st4" d="M102.6,93.5c0.3-0.1,1.2,1.5,3.1,2.4c1.9,0.9,3.8,0.6,3.9,1c0.1,0.2-0.4,0.5-1.2,0.6
																										c-0.8,0.2-2,0.1-3.2-0.5c-1.2-0.6-2-1.5-2.3-2.2C102.5,94,102.5,93.5,102.6,93.5z"/>
																								</g>
																							</g>
																						</g>
																					</g>
																				</g>
																			</g>
																		</g>
																	</g>
																</g>
															</g>
														</g>
													</g>
													<g>
														<g>
															<g>
																<g>
																	<g>
																		<g>
																			<g>
																				<g>
																					<g>
																						<g>
																							<g>
																								<g>
																									<path class="st4" d="M82.7,84.4c0.4-0.1,1.2,1.8,3.3,3c2,1.3,4.1,1.3,4.2,1.7c0,0.2-0.4,0.4-1.4,0.4
																										c-0.9,0-2.3-0.3-3.5-1.1c-1.3-0.8-2.1-1.9-2.4-2.7C82.5,85,82.6,84.4,82.7,84.4z"/>
																								</g>
																							</g>
																						</g>
																					</g>
																				</g>
																			</g>
																		</g>
																	</g>
																</g>
															</g>
														</g>
													</g>
													<g>
														<g>
															<g>
																<g>
																	<g>
																		<g>
																			<g>
																				<g>
																					<g>
																						<g>
																							<g>
																								<path class="st4" d="M91.2,103.8c0-0.1,1.3,0.2,3.4,0.8c0.5,0.2,1,0.3,1.3,0c0.3-0.3,0.3-0.9,0.3-1.6
																									c0.1-1.4,0.1-2.9,0.2-4.4c0.3-6.3,0.8-11.3,1.1-11.3c0.3,0,0.2,5.1-0.2,11.4c-0.1,1.5-0.2,3-0.3,4.4
																									c-0.1,0.6,0,1.4-0.6,2.1c-0.3,0.3-0.8,0.4-1.1,0.4c-0.4,0-0.6-0.2-0.9-0.3
																									C92.3,104.5,91.1,103.9,91.2,103.8z"/>
																							</g>
																						</g>
																					</g>
																				</g>
																			</g>
																		</g>
																	</g>
																</g>
															</g>
														</g>
													</g>
													<g>
														<g>
															<g>
																<g>
																	<g>
																		<g>
																			<g>
																				<g>
																					<g>
																						<g>
																							<path class="st8" d="M82.8,127.6c0,0-10.2-3.8-17-13.6c0,0,0.4,11.9,15.5,17.1L82.8,127.6z"/>
																						</g>
																					</g>
																				</g>
																			</g>
																		</g>
																	</g>
																</g>
															</g>
														</g>
													</g>
												</g>
											</g>
										</g>
										<g>
											<g>
												<g>
													<g>
														<g>
															<g>
																<g>
																	<g>
																		<g>
																			<g>
																				<path class="st4" d="M84.3,77.8c0.3-0.5,2.3,0.2,4.8,0.4c2.5,0.3,4.6,0,4.8,0.5c0.1,0.3-0.4,0.7-1.3,1.1
																					c-0.9,0.4-2.3,0.6-3.8,0.5c-1.5-0.1-2.8-0.7-3.6-1.2C84.6,78.6,84.2,78.1,84.3,77.8z"/>
																			</g>
																		</g>
																	</g>
																</g>
															</g>
														</g>
													</g>
												</g>
											</g>
										</g>
										<g>
											<g>
												<g>
													<g>
														<g>
															<g>
																<g>
																	<g>
																		<g>
																			<g>
																				<path class="st4" d="M106.8,83.5c0.7,0,1.5,1.6,2.8,3.1c1.3,1.6,2.8,2.6,2.7,3.2c-0.1,0.3-0.6,0.4-1.5,0.2
																					c-0.8-0.2-2-0.9-2.9-2c-0.9-1.1-1.5-2.3-1.6-3.1C106.3,84,106.5,83.5,106.8,83.5z"/>
																			</g>
																		</g>
																	</g>
																</g>
															</g>
														</g>
													</g>
												</g>
											</g>
										</g>
									</g>
								</g>
							</g>
						</g>
					</g>
				</g>
			</g>
		</g>
		<g>
			<path class="st8" d="M86.7,109.2c0,0,1.2-0.6,0.6-2.9c-0.6-2.3-3.5-4.4-5.3-2.5c0,0-1.9,0.1-1.1,2.3c0.7,2.1,5,5.2,5.8,3.5"/>
		</g>
		<g>
			<g>
				<g>
					<g>
						<g>
							<g>
								<g>
									<g>
										<g>
											<g>
												<g>
													<path class="st4" d="M86,111c-0.3-0.1,0.2-2.3-1.4-4.3c-1.5-2-4-2.3-3.9-2.7c0-0.1,0.6-0.3,1.6-0.1
														c1,0.2,2.4,0.8,3.3,2.1c0.9,1.2,1.1,2.7,1,3.6C86.5,110.5,86.2,111,86,111z"/>
												</g>
											</g>
										</g>
									</g>
								</g>
							</g>
						</g>
					</g>
				</g>
			</g>
		</g>
		<g>
			<g>
				<g>
					<g>
						<path class="st4" d="M58,56.3c-2.7,2.1-4.4,5.6-4.2,9c0.1,1.9,0.5,4.2-0.9,5.5c-1.4,1.3-3.7,0.6-5.7,0.6c-3.4,0-6.6,2.9-7,6.2
							c-0.1,1.2,0,2.5-0.6,3.6c-0.6,1.1-1.9,1.6-3,2.2c-2.7,1.6-4.4,4.8-4.4,7.9c0.1,3.2,1.9,6.2,4.7,7.8c1.3,0.7,2.7,1.1,3.7,2.2
							c1.1,1.3,1.1,3.1,1.6,4.6c1,3,4,5.2,7.2,5.2c3.2,0,6.2-2.1,7.3-5.1"/>
					</g>
				</g>
			</g>
			<g>
				<g>
					<g>
						<g>
							<g>
								<path class="st4" d="M86.4,51.4c-1,3-0.7,6.5,1,9.2c1.7,2.7,4.6,4.6,7.7,5.1c2.4,0.4,5.4,0,6.9,1.9c1.7,2,0.7,5.2,2,7.4
									c1.9,3.2,5.1,5.8,8.1,7.9c2.3,1.7-0.3,6.2,0.7,8.9c1,2.7,5.2,8.8,8.1,8.9c0.6-2.4,4.2-12.9,4.2-15.4c0.1-2.5-0.5-5-2-7
									c-0.8-1.1-1.9-1.9-2.7-3.1c-1.6-2.5-1-5.7-1.5-8.6c-0.7-3.7-3.2-7-6.7-8.6c-2.9-1.3-6.2-1.4-8.8-3.2
									c-1.9-1.3-3.3-3.3-5.4-4.4c-3.9-2.2-8.9-0.5-12.9,1.4"/>
							</g>
						</g>
					</g>
				</g>
			</g>
			<g>
				<g>
					<g>
						<path class="st4" d="M67.5,81.3C67.1,81,64.4,83,67,84.7c4.7,2.9,8.7-6.8,8.5-10c2.4-1,4.8-2,6.9-3.6c2.1-1.6,5.2-6.8,5.8-9.4
							c1.8,0.7,10.4,0.8,9.7,0.3c-1.7-1.2-5.1-3.7-5.6-5.7c-1-4.3-4-8-8.1-9.2c-4-1.1-8.9,0.7-11.1,4.6c-4.8-1.6-10.5-0.2-14.3,3.6
							c-3.8,3.7-5.6,9.7-4.6,14.9c0.3,1.4,0.7,2.8,0.3,4.2C54,76,52.3,76.9,50.9,78c-3.7,3-5.2,8.2-4.8,12.9
							c0.5,4.7,1.3,6.6,3.6,8.3c4.6,3.3-4.9,11.9,3.6,14.8"/>
					</g>
				</g>
			</g>
			<g>
				<g>
					<g>
						<g>
							<path class="st9" d="M131.2,114c0,0,0.3-0.2,0.8-0.7c0.5-0.5,1.2-1.2,1.7-2.4c0.5-1.2,0.9-2.8,0.5-4.6
								c-0.4-1.8-1.8-3.5-3.6-5c-1.8-1.5-4.1-2.9-5.7-5.2c-1.7-2.4-1.9-5.6-1.4-8.7c0.5-3.1,1.8-6.2,2.7-9.4c0.4-1.6,0.7-3.3,0.6-5
								c-0.1-1.7-0.4-3.4-1.3-4.9c-0.9-1.5-2.3-2.6-3.8-3.3c-1.5-0.8-3.2-1.2-4.8-1.5c-1.7-0.3-3.3-0.4-4.9-0.9
								c-1.6-0.5-3.1-1.5-3.8-3c-0.7-1.5-0.9-3-1.2-4.4c-0.3-1.4-0.8-2.7-1.7-3.8c-1.6-2.2-4.1-3.3-6.3-3.8c-2.3-0.4-4.4,0-6.1,0.7
								c-1.7,0.7-3,1.7-4,2.6c-1.9,1.8-2.5,3.2-2.6,3.1c0,0,0-0.1,0.1-0.2c0.1-0.2,0.2-0.4,0.4-0.7c0.4-0.6,1-1.4,1.9-2.4
								c0.9-0.9,2.3-2,4-2.7c1.7-0.8,3.9-1.3,6.3-0.9c2.4,0.4,4.9,1.6,6.7,3.9c0.9,1.1,1.5,2.5,1.8,4c0.3,1.4,0.5,3,1.2,4.3
								c0.7,1.3,2,2.2,3.5,2.7c1.5,0.5,3.2,0.6,4.9,0.9c1.7,0.3,3.4,0.7,5,1.5c1.6,0.8,3.1,2,4.1,3.6c1,1.6,1.4,3.5,1.4,5.2
								c0.1,1.8-0.2,3.5-0.7,5.2c-0.9,3.3-2.2,6.3-2.7,9.4c-0.5,3-0.3,6.1,1.3,8.3c1.5,2.3,3.8,3.6,5.5,5.2c1.8,1.5,3.2,3.3,3.6,5.2
								c0.4,1.9,0,3.6-0.6,4.8c-0.6,1.2-1.3,2-1.9,2.4C131.5,113.8,131.2,114,131.2,114z"/>
						</g>
					</g>
				</g>
			</g>
			<g>
				<g>
					<g>
						<g>
							<path class="st9" d="M115.4,82.9c0.1,0-0.3,0.7-0.6,2.1c-0.3,1.3-0.6,3.4-0.2,5.8c0.2,1.2,0.6,2.5,1.2,3.8
								c0.6,1.3,1.5,2.5,2.5,3.9c0.5,0.7,1,1.4,1.4,2.2c0.4,0.8,0.6,1.8,0.5,2.7c-0.2,1.9-1.1,3.6-1.8,5.3c-0.7,1.7-1.1,3.5-0.5,5.1
								c0.6,1.6,1.9,2.8,3.1,4c1.2,1.2,2.3,2.3,3,3.7c0.3,0.7,0.6,1.4,0.6,2.1c0,0.7,0,1.4-0.2,2c-0.6,2.6-2.4,4-3.7,4.6
								c-0.7,0.3-1.2,0.4-1.6,0.4c-0.4,0-0.6,0-0.6,0c0-0.1,0.8-0.1,2-0.7c1.2-0.6,2.8-2.1,3.3-4.5c0.3-1.2,0.2-2.5-0.5-3.8
								c-0.7-1.2-1.8-2.3-3-3.5c-1.2-1.1-2.5-2.4-3.2-4.2c-0.4-0.9-0.5-1.9-0.3-2.9c0.1-1,0.4-1.9,0.8-2.8c0.7-1.8,1.6-3.4,1.8-5.1
								c0.2-1.7-0.7-3.2-1.7-4.5c-1-1.3-1.9-2.6-2.5-4c-0.6-1.4-1-2.7-1.1-4c-0.3-2.5,0-4.6,0.4-5.9c0.2-0.7,0.4-1.2,0.6-1.5
								C115.3,83.1,115.4,82.9,115.4,82.9z"/>
						</g>
					</g>
				</g>
			</g>
			<g>
				<g>
					<g>
						<g>
							<path class="st9" d="M38.2,99c0,0-0.1-0.1-0.3-0.2c-0.2-0.1-0.4-0.4-0.7-0.8c-0.6-0.7-1.4-1.9-1.7-3.7
								c-0.3-1.7-0.2-4.1,1.3-6.1c1.4-2,4.1-3.7,7.2-3.5l-0.3,0.4c-0.6-1.6-1-3.4-0.9-5.4c0.1-1.9,1-3.9,2.8-5.2c0.8-0.6,1.9-1,3-1
								c1.1,0,2.2,0.4,3.1,0.9c1,0.4,1.9,0.9,2.9,1.1c1,0.2,2-0.1,2.7-0.8c1.1-1,1.6-2.6,1.7-4c0.1-1.5,0-3.1,0.1-4.6
								c0.3-3.1,1.8-5.8,3.8-7.8c2-2,4.6-3.1,7-3.4c2.4-0.3,4.7,0.1,6.5,0.8l-0.3,0.1c0.8-1.7,2.2-2.7,3.5-3.2
								c1.3-0.5,2.6-0.6,3.6-0.5c1,0.1,1.7,0.4,2.2,0.6c0.4,0.3,0.7,0.4,0.7,0.4c0,0.1-0.9-0.7-2.8-0.8c-0.9-0.1-2.2,0.1-3.4,0.6
								c-1.2,0.5-2.5,1.6-3.3,3.1l-0.1,0.2l-0.2-0.1c-1.8-0.7-4-1-6.3-0.7c-2.3,0.3-4.7,1.4-6.6,3.3c-1.9,1.9-3.3,4.5-3.6,7.4
								c-0.1,1.5,0,3-0.1,4.6c-0.1,1.6-0.6,3.3-1.9,4.5c-0.9,0.8-2.1,1.2-3.3,1c-1.1-0.2-2.1-0.7-3.1-1.2c-0.9-0.4-1.9-0.8-2.8-0.8
								c-0.9,0-1.9,0.3-2.6,0.9c-1.6,1.1-2.4,2.9-2.5,4.7c-0.1,1.8,0.2,3.5,0.8,5.1l0.1,0.4l-0.4,0c-2.9-0.2-5.5,1.4-6.8,3.2
								c-1.4,1.9-1.6,4.1-1.3,5.8c0.3,1.7,1,2.9,1.5,3.6C37.9,98.7,38.2,99,38.2,99z"/>
						</g>
					</g>
				</g>
			</g>
			<g>
				<g>
					<g>
						<g>
							<path class="st9" d="M86.2,55.2c0,0.1-1,0-2.3,0.9c-1.3,0.9-2.5,3.2-2.8,6l0,0.2l-0.2,0c-2.4-0.2-5.5,0.7-7.6,3.2
								c-0.5,0.6-0.9,1.3-1.2,2.1c-0.3,0.8-0.4,1.6-0.5,2.5c-0.1,0.9-0.3,1.8-0.5,2.7c-0.2,0.9-0.8,1.9-1.6,2.4
								c-1.7,1.3-3.8,1.6-5.6,1.9c-1.9,0.3-3.6,0.6-5.1,1.3c-3.1,1.5-5.1,4.1-6,6.4c-0.9,2.4-0.9,4.6-0.7,6c0.2,1.4,0.5,2.2,0.4,2.2
								c0,0-0.1-0.2-0.2-0.5c-0.1-0.4-0.3-0.9-0.4-1.6c-0.3-1.4-0.4-3.7,0.5-6.2c0.9-2.5,2.9-5.2,6.1-6.8c1.6-0.8,3.5-1.2,5.3-1.4
								c1.8-0.3,3.8-0.5,5.3-1.7c1.5-1,1.6-3,1.9-4.7c0.1-0.9,0.3-1.8,0.6-2.6c0.3-0.9,0.8-1.6,1.3-2.2c2.3-2.6,5.5-3.5,8.1-3.3
								l-0.3,0.2c0.4-3,1.7-5.3,3.1-6.2c0.7-0.5,1.4-0.6,1.8-0.7C86,55.2,86.2,55.2,86.2,55.2z"/>
						</g>
					</g>
				</g>
			</g>
		</g>
		<g>
			<g>
				<g>
					<g>
						<g>
							<g>
								<g>
									<g>
										<g>
											<g>
												<g>
													<g>
														<g>
															<path class="st7" d="M68.5,82.7c1.5-2.9-0.5-6.5-3.7-6.5c-1.8,0-3.7,1-5.3,4c-4.2,8.1,4.8,10.7,4.9,10.4
																C64.5,90.6,66.8,86.1,68.5,82.7z"/>
														</g>
													</g>
												</g>
											</g>
										</g>
									</g>
								</g>
							</g>
						</g>
					</g>
				</g>
			</g>
			<g>
				<g>
					<g>
						<g>
							<g>
								<g>
									<g>
										<g>
											<g>
												<g>
													<g>
														<g>
															<g>
																<path class="st8" d="M63.5,86.3c0,0-0.2,0-0.5,0c-0.3,0-0.7-0.1-1.1-0.5c-0.7-0.8-0.7-2.5,0-4
																	c0.4-0.7,0.9-1.4,1.4-1.8c0.6-0.5,1.2-0.7,1.6-0.5c0.5,0.1,0.7,0.5,0.6,0.8c0,0.3-0.1,0.4-0.1,0.5
																	c0,0,0.2,0,0.4-0.4c0.1-0.2,0.1-0.4-0.1-0.7c-0.1-0.3-0.4-0.5-0.7-0.6c-0.6-0.3-1.5,0-2.1,0.5
																	c-0.7,0.5-1.3,1.2-1.7,2c-0.8,1.7-0.8,3.6,0.2,4.6c0.5,0.4,1.1,0.5,1.4,0.5C63.4,86.5,63.5,86.4,63.5,86.3z"/>
															</g>
														</g>
													</g>
												</g>
											</g>
										</g>
									</g>
								</g>
							</g>
						</g>
					</g>
				</g>
			</g>
		</g>
	</g>
</g>
<g>
	<g>
		<g>
			<path class="st4" d="M60.4,195.2c-0.7-1.3-2.6-2.1-2.6-2.1l-1.5-3.8c0,0,0.6-1.3,0-3c-0.6-1.6-5.1-11.1-5-11.4l-1.2-0.1
				c0,0,4.1,10.1,4.6,10.6c0.4,0.5,1,3.5,0,3.9c-1,0.4-3.2-0.7-4.1-1.6c-0.9-0.9-3.8-7.8-4.4-9.3c-0.5-1.4,0.4-3.4,0.4-3.4l0.8-1.9
				h-1.1c0,0-0.7,2-1.1,4c-0.4,1.9,4.2,10.4,4.9,11.3c0.7,0.9,3.2,1.6,4.5,2.6c1.3,0.9,1.1,3.8,1.1,3.8s-1.1,1.5-1.2,3.4
				s4,10.5,6.7,12.4c2.8,1.8,6,0.5,6.3,0.6c0.3,0.1,1-1.4,1-1.4S61.1,196.5,60.4,195.2z M64.2,210.4c-1.5-0.1-3-1.1-3.8-2.2
				c-0.3-0.4-3.9-6.7-4.4-7.8c-0.8-2-0.2-3.1,0-4.3c0.4-1.7,3.1-0.7,3.1-0.7s7.8,13.5,7.7,13.9C66.6,209.7,65.6,210.5,64.2,210.4z"
				/>
		</g>
		<g>
			<path class="st4" d="M68.6,209.6c0,0,22.8-8.7,23.9-9.7c1.1-1,4.9-6.6,4.9-6.6s1.9,0.3,1.6,0.8c-0.2,0.5-3.8,6.1-7.7,7.8
				c-3.8,1.6-23.7,9.1-23.7,9.1L68.6,209.6z"/>
		</g>
	</g>
	<g>
		<g>
			<path class="st3" d="M-3.6,138.1l-9.4,54.2c0,0-3.5,10.5-3,12.8c0.5,2.3,2.2,12.2,7.5,15.4c5.3,3.1,15.7,1.1,17.8-1.1
				c2.1-2.1,6.4-6.1,6.9-7.9c0.5-1.8,4-29.3,4-29.3l1.4-7.7c0,0-5.1,1.6-8.2-0.5c-3.1-2.1-7.2-11.4-7.2-11.4l-4.6,7.1L-3.6,138.1z"
				/>
		</g>
		<g>
			<g>
				<path class="st4" d="M6.1,162.7c0,0-0.1,0.1-0.2,0.3c-0.1,0.2-0.3,0.5-0.6,0.8c-0.5,0.7-1.2,1.8-2,3.1
					c-1.7,2.7-3.9,6.4-6.4,10.5c-2.5,4.1-4.7,7.9-6.3,10.5c-0.8,1.3-1.5,2.4-2,3.2c-0.2,0.3-0.4,0.6-0.6,0.8
					c-0.1,0.2-0.2,0.3-0.2,0.3c0,0,0-0.1,0.2-0.3c0.1-0.2,0.3-0.5,0.5-0.9c0.5-0.8,1.1-1.9,1.9-3.2c1.6-2.7,3.8-6.5,6.3-10.6
					c2.5-4.1,4.7-7.8,6.5-10.4c0.9-1.3,1.6-2.4,2.1-3.1c0.2-0.3,0.4-0.6,0.6-0.8C6.1,162.7,6.1,162.7,6.1,162.7z"/>
			</g>
		</g>
		<g>
			<g>
				<path class="st4" d="M20.4,181.2c0,0-0.1,0.1-0.2,0.2c-0.1,0.1-0.3,0.4-0.6,0.6c-0.5,0.5-1.4,1.2-2.6,1.8
					c-0.6,0.3-1.3,0.5-2.1,0.7c-0.8,0.1-1.6,0.2-2.5,0.1c-0.9-0.1-1.8-0.3-2.7-0.7c-0.9-0.4-1.8-0.9-2.6-1.4c-0.8-0.6-1.5-1.3-2.2-2
					c-0.6-0.7-1.1-1.5-1.6-2.3c-0.9-1.5-1.3-3.1-1.6-4.4c-0.2-1.3-0.2-2.4-0.2-3.1c0-0.4,0.1-0.7,0.1-0.8c0-0.2,0-0.3,0.1-0.3
					c0,0,0,0.4,0,1.1c0,0.7,0,1.8,0.3,3.1c0.3,1.3,0.7,2.8,1.6,4.3c0.4,0.8,0.9,1.5,1.6,2.2c0.6,0.7,1.3,1.4,2.1,2
					c0.8,0.6,1.7,1,2.5,1.4c0.9,0.4,1.7,0.6,2.6,0.7c0.9,0.1,1.7,0.1,2.4,0c0.8-0.1,1.4-0.4,2-0.6c1.2-0.5,2-1.2,2.6-1.7
					C20.1,181.4,20.4,181.1,20.4,181.2z"/>
			</g>
		</g>
		<g>
			<path class="st7" d="M6.1,162.7l7-4.5c0,0,18.7-7.6,20.6-8c1.9-0.4,4.1-1.3,5.1,0c1,1.3,11.7,9.1,11.7,9.1s6.3,11.9,6.3,13.5
				c0,1.6,1.8,3.7,0,4.2s-1.8,0.6-1.8,0.6s-0.6,2.9-2.8,3.2c-2.2,0.3-2.9,0-2.9,0s-0.1,2.9-1.9,2.7c-1.8-0.2-4.7-2.7-4.7-2.7
				s-1.3,1.5-2.3,1.5c-1,0-4.2-2.2-4.2-2.2l-6.2-5.4l-5.5-1.9l-3,1.9c0,0-6.3,0.5-7.3,0C13.4,174,6.1,162.7,6.1,162.7z"/>
		</g>
		<g>
			<g>
				<path class="st8" d="M42.1,181.2c0,0-0.1-0.3-0.3-0.8c-0.1-0.3-0.2-0.6-0.4-1c-0.2-0.4-0.3-0.8-0.5-1.3c-0.2-0.5-0.4-1-0.7-1.5
					c-0.3-0.5-0.6-1.1-1-1.7c-0.7-1.1-1.6-2.3-2.6-3.5c-1-1.2-2.1-2.2-3.1-3c-0.5-0.4-1-0.8-1.5-1.2c-0.5-0.4-1-0.7-1.4-0.9
					c-0.4-0.3-0.8-0.5-1.2-0.7c-0.3-0.2-0.7-0.4-0.9-0.5c-0.5-0.3-0.8-0.4-0.8-0.4c0,0,0.3,0.1,0.8,0.3c0.3,0.1,0.6,0.3,0.9,0.5
					c0.4,0.2,0.8,0.4,1.2,0.7c0.4,0.3,0.9,0.6,1.4,0.9c0.5,0.3,1,0.7,1.5,1.2c1.1,0.9,2.1,1.9,3.2,3.1c1,1.2,1.9,2.4,2.6,3.6
					c0.3,0.6,0.7,1.1,0.9,1.7c0.3,0.5,0.5,1,0.7,1.5c0.2,0.5,0.4,0.9,0.5,1.3c0.1,0.4,0.3,0.7,0.3,1C42,180.8,42.1,181.1,42.1,181.2
					z"/>
			</g>
		</g>
		<g>
			<g>
				<path class="st8" d="M49.4,181c0,0-0.1-0.1-0.2-0.2c-0.1-0.2-0.2-0.4-0.4-0.7c-0.3-0.6-0.7-1.5-1.1-2.7
					c-0.4-1.2-0.8-2.6-1.3-4.1c-0.5-1.5-1-3.2-2-4.8c-0.9-1.6-2.2-2.8-3.5-3.8c-1.3-0.9-2.5-1.7-3.5-2.5c-1-0.8-1.6-1.5-2-2.1
					c-0.2-0.3-0.3-0.5-0.4-0.7c-0.1-0.2-0.1-0.3-0.1-0.3c0,0,0.2,0.3,0.6,0.9c0.4,0.6,1.1,1.3,2,2c1,0.8,2.2,1.5,3.5,2.4
					c1.3,0.9,2.7,2.2,3.6,3.8c1,1.6,1.5,3.3,2,4.9c0.5,1.6,0.8,3,1.2,4.1c0.4,1.2,0.8,2.1,1.1,2.7C49.3,180.6,49.5,181,49.4,181z"/>
			</g>
		</g>
		<g>
			<g>
				<path class="st8" d="M54.7,177.6c0,0,0-0.1-0.1-0.3c0-0.2-0.1-0.4-0.2-0.7c-0.1-0.3-0.2-0.7-0.3-1.2c-0.1-0.4-0.3-1-0.4-1.5
					c-0.2-0.6-0.4-1.2-0.6-1.8c-0.2-0.7-0.5-1.3-0.9-2c-0.7-1.4-1.5-2.9-2.5-4.4c-1-1.5-2.1-2.8-3.2-3.9c-0.5-0.6-1.1-1.1-1.6-1.6
					c-0.5-0.5-1-0.9-1.4-1.3c-0.4-0.4-0.9-0.7-1.3-1c-0.4-0.3-0.7-0.5-1-0.7c-0.2-0.2-0.5-0.3-0.6-0.4c-0.1-0.1-0.2-0.2-0.2-0.2
					c0,0,0.1,0,0.2,0.1c0.2,0.1,0.4,0.2,0.7,0.4c0.3,0.2,0.6,0.4,1,0.7c0.4,0.3,0.8,0.6,1.3,1c0.5,0.4,1,0.8,1.5,1.2
					c0.5,0.5,1,1,1.6,1.5c1.1,1.1,2.2,2.5,3.2,4c1,1.5,1.8,3,2.5,4.4c0.3,0.7,0.6,1.4,0.8,2.1c0.3,0.6,0.4,1.3,0.6,1.8
					c0.2,0.6,0.3,1.1,0.4,1.5c0.1,0.5,0.2,0.9,0.2,1.2c0.1,0.3,0.1,0.5,0.1,0.8C54.7,177.5,54.7,177.6,54.7,177.6z"/>
			</g>
		</g>
		<g>
			<g>
				<path class="st8" d="M27.2,157.6c0,0-0.4,0.1-0.9,0.3c-0.5,0.2-1.2,0.7-1.8,1.4c-0.5,0.7-0.8,1.5-0.8,2.1c-0.1,0.6,0,1-0.1,1
					c0,0-0.1-0.4-0.1-1c0-0.6,0.2-1.5,0.8-2.2c0.6-0.8,1.3-1.2,1.9-1.4C26.8,157.6,27.2,157.6,27.2,157.6z"/>
			</g>
		</g>
		<g>
			<g>
				<path class="st8" d="M32.4,152.6c0,0.1-0.9,0.6-1.8,1.6c-0.9,0.9-1.4,1.9-1.5,1.8c-0.1,0,0.4-1,1.3-2
					C31.4,153.1,32.4,152.6,32.4,152.6z"/>
			</g>
		</g>
	</g>
</g>
<g>
	<g>
		<g>
			<g>
				<g>
					<path class="st7" d="M105.8,91.6c-0.9,0.4-1.1,1.4-1.1,2.4c0,1.2,0.3,1.4,1.3,3.4c1.6,3.3,3.5,9.6,3.5,9.6s-1.6,15.8-0.5,19.5
						c0.9,3.3,4.1,4.2,4.1,4.2l-1.4,12.2h17.2c0,0-0.6-11.8-1-15.4c-0.4-3.8-0.1-26.8-0.1-26.8l-1.7-12.3l-4-6.9
						c0,0-2.1,1.2-1.2,3.8c0.9,2.5,1.5,7.4,1.5,7.4l-10-15c0,0-2,0.5-2.1,4.1c0,0-2.9,1.9-1,5c2.1,3.4,4.3,13.7,3.5,13.7l-6.2-9.1
						L105.8,91.6z"/>
				</g>
			</g>
			<g>
				<g>
					<g>
						<path class="st8" d="M111.7,142.8c0,0,0-0.3,0.1-0.8c0.1-0.5,0.1-1.3,0.3-2.4c0.2-2.1,0.6-5.1,1-9l0,0.1
							c-0.8-0.2-1.5-0.7-2.2-1.2c-0.7-0.6-1.3-1.3-1.6-2.2c-0.4-0.9-0.5-1.9-0.6-2.9c-0.1-1-0.1-2.1-0.1-3.1c0-4.3,0.4-9.1,0.9-14.4
							l0,0c-0.8-2.5-1.7-5.2-2.8-7.9c-0.3-0.7-0.6-1.4-0.9-2c-0.3-0.7-0.7-1.3-1-2.1c-0.1-0.4-0.1-0.8-0.1-1.2c0-0.4,0-0.8,0.2-1.2
							c0.1-0.4,0.4-0.8,0.7-1c0.2-0.1,0.4-0.2,0.6-0.3l0.5-0.2l0.1,0l0.1,0.1c2.1,3,4.2,6.2,6.5,9.5l-0.2,0c0.1-0.8,0.1-1.6,0-2.4
							c-0.1-0.8-0.2-1.6-0.4-2.4c-0.4-1.6-0.9-3.2-1.4-4.8c-0.6-1.6-1.3-3.1-2-4.7c-0.3-0.8-0.5-1.7-0.3-2.6
							c0.2-0.9,0.7-1.7,1.5-2.2l-0.1,0.1c0.1-0.8,0.2-1.6,0.5-2.3c0.2-0.4,0.3-0.8,0.6-1.1c0.3-0.3,0.6-0.6,1-0.8l0.1,0l0.1,0.1
							c0,0.1,0.1,0.1,0.1,0.2c3.4,5.1,6.7,10,9.9,14.8l-0.2,0.1c-0.3-2-0.6-4-1.1-5.9c-0.1-0.5-0.3-0.9-0.4-1.4
							c-0.2-0.5-0.3-1-0.2-1.5c0-1,0.6-2,1.5-2.5l0.1-0.1l0.1,0.1c1.4,2.4,2.7,4.7,4,6.9l0,0l0,0c0.6,4.3,1.2,8.4,1.7,12.3l0,0l0,0
							c-0.1,6.4-0.1,12.2-0.1,17.4c0,2.6,0,5,0.1,7.2c0,1.1,0.1,2.2,0.2,3.2c0.1,1,0.1,2,0.2,2.9c0.2,3.7,0.4,6.6,0.5,8.5
							c0,1,0.1,1.7,0.1,2.2c0,0.5,0,0.8,0,0.8s0-0.3-0.1-0.8c0-0.5-0.1-1.3-0.1-2.2c-0.1-2-0.3-4.9-0.5-8.5
							c-0.1-0.9-0.1-1.9-0.2-2.9c-0.1-1-0.2-2.1-0.2-3.2c-0.1-2.2-0.1-4.6-0.1-7.2c0-5.2,0-11,0.1-17.4l0,0c-0.5-3.9-1.1-8-1.7-12.3
							l0,0c-1.3-2.2-2.6-4.5-4-6.9l0.2,0c-0.8,0.5-1.3,1.4-1.3,2.3c0,0.5,0.1,0.9,0.2,1.4c0.2,0.5,0.3,0.9,0.4,1.4
							c0.5,1.9,0.8,3.9,1.1,5.9l0.1,0.6l-0.3-0.5c-3.2-4.8-6.5-9.8-9.9-14.8c0-0.1-0.1-0.1-0.1-0.2l0.1,0.1
							c-0.3,0.1-0.6,0.4-0.9,0.7c-0.2,0.3-0.4,0.7-0.6,1c-0.3,0.7-0.4,1.5-0.5,2.3l0,0.1l-0.1,0c-0.7,0.5-1.2,1.2-1.4,2.1
							c-0.2,0.8,0,1.7,0.3,2.5c0.7,1.6,1.4,3.1,2,4.7c0.6,1.6,1.1,3.2,1.4,4.8c0.2,0.8,0.3,1.6,0.4,2.4c0.1,0.8,0.1,1.6,0,2.5l0,0.3
							l-0.2-0.3c-2.2-3.3-4.4-6.5-6.4-9.5l0.1,0c-0.4,0.2-0.8,0.3-1.1,0.5c-0.3,0.2-0.5,0.5-0.6,0.9c-0.1,0.4-0.2,0.7-0.2,1.1
							c0,0.4,0,0.8,0.1,1.1c0.2,0.7,0.6,1.4,1,2c0.3,0.7,0.6,1.4,0.9,2c1.1,2.7,2,5.4,2.8,8l0,0l0,0c-0.5,5.2-0.8,10.1-0.9,14.4
							c0,1.1,0,2.1,0.1,3.1c0.1,1,0.2,2,0.6,2.8c0.7,1.7,2.3,2.8,3.7,3.3l0.1,0l0,0.1c-0.5,3.9-0.8,7-1.1,9c-0.1,1-0.2,1.8-0.3,2.4
							C111.7,142.6,111.7,142.8,111.7,142.8z"/>
					</g>
				</g>
			</g>
		</g>
		<g>
			<g>
				<path class="st8" d="M119.3,101.6c0,0-0.1-0.3-0.2-0.9c-0.1-0.6-0.3-1.3-0.5-2.3c-0.5-1.9-1.3-4.6-2.5-7.4
					c-1.3-2.8-2.8-5.1-3.9-6.8c-0.6-0.8-1-1.5-1.3-2c-0.3-0.5-0.5-0.7-0.5-0.7c0,0,0.2,0.2,0.6,0.7c0.3,0.4,0.8,1.1,1.4,1.9
					c1.2,1.6,2.7,4,4,6.8c1.3,2.8,2.1,5.5,2.5,7.4c0.2,1,0.3,1.8,0.4,2.3C119.3,101.3,119.3,101.6,119.3,101.6z"/>
			</g>
		</g>
		<g>
			<g>
				<path class="st8" d="M124.7,97.8c-0.1,0-0.6-1.2-1.3-2.7c-0.6-1.5-1.1-2.7-1-2.8c0.1,0,0.6,1.2,1.3,2.7
					C124.3,96.5,124.7,97.7,124.7,97.8z"/>
			</g>
		</g>
	</g>
	<g>
		<path class="st3" d="M110.3,137.8L110.3,137.8c-3,26.7-7,55.1-11.5,84.6h35.1h0c6.6-14.6,2.6-27.3,0.8-45.5l-5.8-41.2L110.3,137.8
			z"/>
	</g>
</g>
<g>
	<g>
		<path class="st4" d="M98.8,222.4c0,0,0-0.1,0-0.2c0-0.1,0-0.3,0.1-0.5c0.1-0.5,0.2-1.1,0.3-1.9c0.2-1.7,0.6-4.1,1-7.1
			c0.9-6,2.1-14.4,3.5-23.5c1.3-9.2,2.4-17.5,3.2-23.6c0.4-3,0.7-5.5,0.9-7.2c0.1-0.8,0.2-1.5,0.2-1.9c0-0.2,0-0.4,0.1-0.5
			c0-0.1,0-0.2,0-0.2c0,0,0,0.1,0,0.2c0,0.1,0,0.3,0,0.5c0,0.5-0.1,1.1-0.2,2c-0.2,1.7-0.4,4.1-0.8,7.2c-0.7,6.1-1.8,14.4-3.1,23.6
			c-1.3,9.2-2.6,17.5-3.5,23.5c-0.5,3-0.9,5.4-1.1,7.1c-0.1,0.8-0.2,1.5-0.3,1.9c0,0.2-0.1,0.4-0.1,0.5
			C98.9,222.3,98.8,222.4,98.8,222.4z"/>
	</g>
</g>
<g>
	<g>
		<g>
			<g>
				<path class="st9" d="M174.8,222.2h-100L87.7,152c0.5-2.5,2.6-4.3,5.2-4.3h89.9c3.3,0,5.8,3,5.2,6.2L174.8,222.2z"/>
			</g>
		</g>
		<g>
			<g>
				<path class="st9" d="M74.8,222.2H36.9L37,222c3.4-2.5,7.5-4,11.7-4.1l27.1-0.8L74.8,222.2z"/>
			</g>
		</g>
	</g>
	<g>
		<g>
			<g>
				<path class="st4" d="M98.8,147.8c0,0-0.3-0.1-0.8-0.1c-0.5,0-1.3,0.1-2.2,0.6c-0.9,0.4-1.9,1.2-2.7,2.4
					c-0.8,1.2-1.3,2.8-1.6,4.5c-0.3,1.8-0.6,3.7-1,5.8c-0.4,2.1-0.7,4.3-1.2,6.7c-0.9,4.7-1.9,9.9-3,15.3
					c-2.3,10.8-4.3,20.6-5.7,27.8c-0.7,3.6-1.2,6.4-1.6,8.4c-0.2,1-0.3,1.7-0.4,2.3c0,0.2-0.1,0.4-0.1,0.6c0,0.1,0,0.2-0.1,0.2
					c0,0,0-0.1,0-0.2c0-0.2,0-0.4,0.1-0.6c0.1-0.6,0.2-1.3,0.3-2.3c0.3-2,0.8-4.9,1.5-8.5c1.3-7.1,3.4-17,5.6-27.8
					c1.1-5.4,2.2-10.6,3.1-15.3c0.5-2.4,0.8-4.6,1.2-6.7c0.4-2.1,0.7-4.1,1-5.8c0.4-1.8,0.9-3.4,1.7-4.6c0.8-1.2,1.9-2,2.8-2.4
					c0.9-0.4,1.8-0.5,2.3-0.5C98.6,147.7,98.8,147.8,98.8,147.8z"/>
			</g>
		</g>
	</g>
	<g>
		<g>
			<path class="st2" d="M141.1,183.3c0,2.7-2.2,4.8-4.8,4.8c-2.7,0-4.8-2.2-4.8-4.8s2.2-4.8,4.8-4.8
				C138.9,178.5,141.1,180.7,141.1,183.3z"/>
		</g>
	</g>
</g>
<g>
	<g>
		<polygon class="st3" points="60,37.9 58.6,25 52,26.5 46.4,16.5 49.9,30 56.6,28.5 		"/>
	</g>
	<g>
		<polygon class="st3" points="57.3,40.4 51.2,34.1 48.3,37.6 41.1,34.7 48.6,40.4 51.6,36.8 		"/>
	</g>
</g>
<g>
	<g>
		<polygon class="st3" points="123.5,46 129.1,35.8 134,39.3 142.1,33 134.5,42.9 129.5,39.4 		"/>
	</g>
	<g>
		<polygon class="st3" points="133.7,51.7 139.5,49.3 140.4,52.4 145.9,52.4 139.4,54.1 138.5,51 		"/>
	</g>
</g>
<g>
	<g>
		<path class="st4" d="M93.8,12.4c0,0,0.2-0.1,0.7-0.4c0.5-0.3,1.2-0.7,2.1-1.1c1.9-0.8,5-1.8,9.1-1.7c0.5,0,1,0.1,1.6,0.1
			c0.5,0.1,1.1,0.1,1.6,0.3c0.5,0.2,1.1,0.4,1.6,0.7c0.5,0.3,1,0.7,1.3,1.3c0.3,0.5,0.4,1.2,0.3,1.9c-0.1,0.7-0.5,1.3-1,1.8
			c-0.9,1-2.2,1.7-3.6,2.2c-2.8,1-5.9,1.6-9.3,1.3c-3.3-0.2-6.9-1.2-10.1-3.1l-0.1,0l0-0.1c1.2-2,3.1-3.7,5.3-4.9
			c2.2-1.2,4.8-1.9,7.4-2.1c2.7-0.2,5.4,0.1,8.2,0.7c1.4,0.3,2.8,0.7,4.1,1.1c1.4,0.4,2.8,0.9,4.1,1.6c1.3,0.7,2.5,1.7,3.3,3
			c0.4,0.7,0.6,1.4,0.7,2.2c0.1,0.8-0.1,1.6-0.4,2.3c-0.6,1.5-2,2.5-3.3,3.2c-1.4,0.7-2.9,1.2-4.5,1.6c-6.2,1.5-13.1,1.8-19.8,0.5
			c-0.4-0.1-0.8-0.2-1.3-0.3c-0.4-0.1-0.8-0.2-1.3-0.3c-0.8-0.2-1.7-0.4-2.5-0.8c-0.8-0.3-1.6-0.8-2.3-1.3c-0.7-0.6-1.2-1.4-1.4-2.3
			c-0.2-0.9,0.1-1.9,0.6-2.6c0.5-0.8,1.2-1.4,1.9-1.9c0.7-0.5,1.6-0.9,2.4-1.3c0.4-0.2,0.8-0.4,1.2-0.6c0.4-0.2,0.8-0.4,1.3-0.5
			c3.4-1.3,7.1-2,10.9-2.1c1.9,0,3.8,0.1,5.6,0.4c0.5,0.1,0.9,0.1,1.4,0.3c0.5,0.1,0.9,0.2,1.4,0.3c0.9,0.2,1.8,0.5,2.7,0.9
			c0.9,0.4,1.7,0.9,2.5,1.5c0.7,0.6,1.3,1.5,1.6,2.5l0.1,0.4l0,0.4c0,0.2,0,0.5,0,0.7c-0.1,0.5-0.2,1-0.4,1.4
			c-0.4,0.9-1.1,1.6-1.9,2.3c-0.8,0.6-1.6,1.2-2.5,1.6c-0.4,0.2-0.9,0.4-1.3,0.6c-0.5,0.2-0.9,0.4-1.4,0.6c-1.8,0.7-3.7,1.3-5.7,1.7
			c-3.9,0.9-7.9,1.2-12,1c-2-0.1-4.1-0.5-5.9-1.5c-0.9-0.5-1.7-1.2-2.3-2.1c-0.6-0.9-0.8-2-0.7-3c0.1-0.9,0.4-1.7,0.8-2.4
			c0.5-0.7,1-1.4,1.7-1.9c1.3-1.1,2.8-1.9,4.3-2.6c3.1-1.3,6.3-2.1,9.6-2.3c1.6-0.1,3.3-0.1,4.9,0c0.8,0.1,1.6,0.2,2.4,0.3
			c0.8,0.1,1.6,0.3,2.4,0.6c0.8,0.3,1.5,0.6,2.2,1.1c0.7,0.5,1.3,1.1,1.6,1.9c0.3,0.8,0.3,1.7,0.1,2.4c-0.3,0.8-0.8,1.5-1.4,2
			c-1.2,1.1-2.8,1.5-4.3,1.9c-1.5,0.4-3.1,0.7-4.6,1.1c-3,0.7-6.1,1.2-9.1,1.5c-3.1,0.3-6.1,0.1-9.1-0.4c-2.9-0.6-5.8-1.7-8.2-3.3
			l-0.1-0.1l0.1-0.1c4.2-3.7,9.5-6,14.8-6.7c5.3-0.8,10.7-0.1,15.3,2c0.6,0.3,1.1,0.6,1.6,1c0.5,0.4,0.9,0.9,1.1,1.6
			c0.2,0.6,0.2,1.3-0.1,1.9c-0.3,0.6-0.7,1.1-1.2,1.4c-1,0.8-2.2,1.2-3.3,1.6c-1.2,0.4-2.3,0.6-3.5,0.8c-2.4,0.4-4.7,0.4-7,0
			c-0.6-0.1-1.2-0.3-1.6-0.7c-0.5-0.4-0.7-1-0.6-1.6c0.1-0.6,0.5-1.1,0.9-1.5c0.4-0.4,0.9-0.7,1.4-1c4.1-1.8,8.5-2.4,12.5-2
			c1,0.1,2,0.3,3,0.7c0.9,0.4,1.8,1,2.4,1.8c0.6,0.8,0.9,1.8,0.8,2.8c-0.1,1-0.7,1.8-1.4,2.4c-0.7,0.6-1.5,1.1-2.3,1.5
			c-0.8,0.4-1.6,0.8-2.4,1.1c-1.6,0.7-3.3,1.1-4.9,1.4c-3.3,0.5-6.5,0.3-9.3-0.4l-0.1,0l0.1-0.1c1.4-1.9,3.2-3.1,5.1-3.8
			c1.9-0.7,3.9-0.9,5.6-0.6c0.9,0.1,1.7,0.4,2.4,0.9c0.3,0.2,0.6,0.5,0.8,0.9c0.2,0.3,0.3,0.7,0.4,1.1c0.1,0.8-0.2,1.5-0.6,2
			c-0.4,0.6-0.8,1-1.3,1.4c-1,0.7-2,1-2.8,1.4c-0.9,0.3-1.6,0.6-2.1,0.9c-0.5,0.3-0.9,0.6-1.1,0.8c-0.1,0.1-0.2,0.2-0.2,0.2
			c-0.1,0.1-0.1,0.1-0.1,0.1s0.1-0.1,0.3-0.3c0.2-0.2,0.6-0.5,1.1-0.8c0.5-0.3,1.2-0.6,2.1-0.9c0.8-0.3,1.9-0.7,2.8-1.4
			c0.5-0.4,0.9-0.8,1.3-1.4c0.4-0.5,0.6-1.2,0.5-2c0-0.4-0.2-0.7-0.4-1c-0.2-0.3-0.5-0.6-0.8-0.8c-0.7-0.5-1.5-0.7-2.3-0.9
			c-1.7-0.3-3.7-0.1-5.6,0.6c-1.9,0.7-3.7,2-5.1,3.8l0-0.1c2.8,0.7,5.9,0.9,9.2,0.4c1.6-0.3,3.3-0.7,4.9-1.4
			c0.8-0.3,1.6-0.7,2.4-1.1c0.8-0.4,1.6-0.9,2.3-1.5c0.7-0.6,1.3-1.4,1.4-2.3c0.1-0.9-0.2-1.9-0.8-2.6c-0.6-0.8-1.4-1.3-2.3-1.7
			c-0.9-0.4-1.9-0.6-2.9-0.7c-4-0.4-8.4,0.1-12.4,2c-0.5,0.3-0.9,0.6-1.3,0.9c-0.4,0.4-0.7,0.8-0.8,1.4C92.8,22,93,22.6,93.5,23
			c0.4,0.3,1,0.5,1.5,0.6c2.3,0.4,4.6,0.4,7,0c1.2-0.2,2.3-0.5,3.5-0.8c1.1-0.4,2.3-0.8,3.3-1.5c0.5-0.4,0.9-0.8,1.1-1.4
			c0.2-0.5,0.3-1.2,0.1-1.7c-0.2-0.6-0.6-1.1-1-1.5c-0.5-0.4-1-0.7-1.6-1c-4.6-2-10-2.7-15.2-1.9c-5.3,0.8-10.5,3-14.7,6.7l0-0.2
			c2.4,1.6,5.2,2.7,8.1,3.3c2.9,0.6,6,0.7,9,0.4c3-0.2,6.1-0.8,9.1-1.5c1.5-0.3,3-0.7,4.6-1.1c1.5-0.4,3.1-0.8,4.2-1.9
			c0.6-0.5,1-1.2,1.3-1.9c0.2-0.7,0.2-1.5-0.1-2.2c-0.3-0.7-0.8-1.3-1.5-1.8c-0.6-0.5-1.4-0.8-2.1-1.1c-0.8-0.3-1.5-0.4-2.3-0.6
			c-0.8-0.1-1.6-0.2-2.4-0.3c-1.6-0.1-3.2-0.2-4.9,0c-3.2,0.2-6.5,1-9.5,2.3c-1.5,0.6-3,1.4-4.2,2.5c-1.2,1.1-2.3,2.5-2.4,4.2
			c-0.1,1,0.2,2,0.7,2.8c0.5,0.8,1.3,1.5,2.2,2c1.8,1,3.8,1.4,5.8,1.5c4,0.3,8-0.1,11.9-1c1.9-0.4,3.8-1,5.6-1.7
			c0.5-0.2,0.9-0.4,1.4-0.6c0.5-0.2,0.9-0.4,1.3-0.6c0.9-0.4,1.7-1,2.4-1.6c0.7-0.6,1.4-1.3,1.8-2.2c0.2-0.4,0.3-0.9,0.4-1.3
			c0-0.2,0-0.5,0-0.7l0-0.3l-0.1-0.3c-0.2-0.9-0.8-1.7-1.5-2.3c-0.7-0.6-1.5-1.1-2.4-1.5c-0.9-0.4-1.8-0.6-2.7-0.9
			c-0.5-0.1-0.9-0.2-1.4-0.3c-0.5-0.1-0.9-0.2-1.4-0.3c-1.9-0.3-3.7-0.4-5.6-0.4c-3.7,0.1-7.4,0.8-10.8,2c-0.4,0.1-0.8,0.3-1.3,0.5
			c-0.4,0.2-0.8,0.4-1.2,0.6c-0.8,0.4-1.6,0.8-2.3,1.3c-0.7,0.5-1.4,1.1-1.9,1.8c-0.5,0.7-0.7,1.6-0.5,2.5c0.1,0.8,0.7,1.6,1.3,2.1
			c0.7,0.6,1.4,1,2.2,1.3c0.8,0.3,1.6,0.6,2.5,0.8c0.4,0.1,0.8,0.2,1.3,0.3c0.4,0.1,0.8,0.2,1.3,0.3c6.7,1.3,13.5,1,19.7-0.5
			c1.6-0.4,3.1-0.8,4.5-1.6c1.4-0.7,2.6-1.7,3.2-3.1c0.3-0.7,0.4-1.4,0.4-2.2c-0.1-0.7-0.3-1.5-0.7-2.1c-0.7-1.3-1.9-2.3-3.2-2.9
			c-1.3-0.7-2.7-1.1-4.1-1.6c-1.4-0.4-2.7-0.8-4.1-1.1c-2.7-0.6-5.5-0.9-8.1-0.7c-2.6,0.2-5.2,0.9-7.4,2.1c-2.2,1.2-4.1,2.8-5.3,4.8
			l0-0.1c3.2,1.9,6.7,2.9,10.1,3.1c3.3,0.2,6.5-0.3,9.2-1.3c1.4-0.5,2.6-1.2,3.6-2.1c0.4-0.5,0.8-1.1,0.9-1.7c0.1-0.6,0-1.3-0.3-1.8
			c-0.3-0.5-0.8-0.9-1.3-1.2c-0.5-0.3-1.1-0.5-1.6-0.7c-0.5-0.2-1.1-0.2-1.6-0.3c-0.5-0.1-1.1-0.1-1.6-0.1c-4.1-0.2-7.1,0.8-9.1,1.6
			c-1,0.4-1.7,0.8-2.2,1.1C94,12.3,93.8,12.4,93.8,12.4z"/>
	</g>
</g>
</svg>
