<?xml version="1.0" encoding="utf-8"?>
<!-- Generator: Adobe Illustrator 23.1.0, SVG Export Plug-In . SVG Version: 6.00 Build 0)  -->
<svg version="1.1" id="Capa_1" xmlns="http://www.w3.org/2000/svg" xmlns:xlink="http://www.w3.org/1999/xlink" x="0px" y="0px"
	 viewBox="0 0 30 30" style="enable-background:new 0 0 30 30;" xml:space="preserve">
<style type="text/css">
	.st0{fill:#141414;}
	.st1{fill:none;stroke:#000000;stroke-miterlimit:10;}
</style>
<g>
	<path class="st0" d="M9.5,21.2c-0.8-0.4-1.5-0.9-2.1-1.6l1.5-2c0.2,0.3,0.5,0.5,0.7,0.8s0.5,0.4,0.8,0.5s0.5,0.2,0.8,0.3
		s0.5,0.1,0.8,0.1c0.4,0,0.7-0.1,1-0.2s0.5-0.3,0.6-0.5s0.2-0.5,0.2-0.7s0-0.4-0.1-0.5c-0.1-0.2-0.1-0.3-0.2-0.4
		c-0.1-0.1-0.2-0.2-0.4-0.3s-0.4-0.2-0.6-0.3c-0.2-0.1-0.5-0.2-0.8-0.3c-0.3-0.1-0.6-0.2-0.8-0.3s-0.5-0.2-0.7-0.4
		c-0.3-0.2-0.5-0.3-0.7-0.5s-0.4-0.3-0.6-0.5c-0.2-0.2-0.3-0.4-0.5-0.7c-0.1-0.2-0.2-0.5-0.3-0.8C8,12.6,8,12.3,8,11.9
		c0-0.7,0.2-1.4,0.5-1.9c0.3-0.6,0.8-1,1.4-1.4c0.6-0.3,1.3-0.5,2-0.5c1.5,0,2.8,0.5,4.1,1.7l-1.4,2c-1-0.9-1.9-1.3-2.7-1.3
		c-0.4,0-0.8,0.1-1.1,0.4s-0.4,0.6-0.4,1c0,0.2,0,0.3,0.1,0.5s0.1,0.3,0.2,0.4c0.1,0.1,0.2,0.2,0.4,0.3s0.4,0.2,0.6,0.3
		c0.2,0.1,0.4,0.2,0.8,0.3c1,0.4,1.7,0.8,2,1c0.8,0.5,1.3,1,1.5,1.7c0.2,0.4,0.2,0.9,0.2,1.5s-0.1,1.1-0.3,1.6s-0.4,0.9-0.7,1.2
		c-0.3,0.3-0.6,0.6-1,0.8c-0.4,0.2-0.8,0.4-1.2,0.5s-0.8,0.1-1.2,0.1C11.1,21.7,10.3,21.5,9.5,21.2z"/>
	<path class="st0" d="M18.4,8.1h2.4v13.5h-2.4V8.1z"/>
</g>
<line class="st1" x1="3" y1="3" x2="27" y2="28"/>
<line class="st1" x1="25.5" y1="2.5" x2="2.5" y2="27.5"/>
</svg>
