<?xml version="1.0" encoding="utf-8"?>
<!-- Generator: Adobe Illustrator 23.1.0, SVG Export Plug-In . SVG Version: 6.00 Build 0)  -->
<svg version="1.1" xmlns="http://www.w3.org/2000/svg" xmlns:xlink="http://www.w3.org/1999/xlink" x="0px" y="0px"
	 viewBox="0 0 599.9 600" style="enable-background:new 0 0 599.9 600;" xml:space="preserve">
<style type="text/css">
	.st0{fill:#AAD3EA;}
	.st1{opacity:0.66;fill:none;stroke:#92BBD7;stroke-width:13.5953;stroke-miterlimit:10;}
	.st2{opacity:0.66;fill:none;stroke:#92BBD7;stroke-width:10.8763;stroke-miterlimit:10;}
	.st3{fill:#92BBD7;}
	.st4{opacity:0.8;fill:#F4F4F4;}
	.st5{fill:#F4F4F4;}
	.st6{fill:#2F4260;}
	.st7{opacity:0.42;fill:#2F4260;}
	.st8{fill:#92CBB8;}
	.st9{opacity:0.4;fill:#92CBB8;}
	.st10{opacity:0.99;fill:#F4F4F4;}
	.st11{opacity:0.15;fill:#CACACA;}
	.st12{opacity:0.42;fill:#CACACA;}
	.st13{opacity:0.63;fill:#F4F4F4;}
	.st14{opacity:0.99;fill:none;stroke:#F4F4F4;stroke-width:0.6315;stroke-linecap:round;stroke-miterlimit:10;}
	.st15{opacity:0.51;}
	.st16{font-family:'Montserrat-Bold';}
	.st17{font-size:9.5768px;}
	.st18{font-size:13.2903px;}
	.st19{opacity:0.48;fill:#2F4260;}
	.st20{fill:#FFFFFF;}
	.st21{opacity:0.99;fill:none;stroke:#F4F4F4;stroke-width:3.3347;stroke-miterlimit:10;}
	.st22{opacity:0.99;fill:none;stroke:#F4F4F4;stroke-width:1.4365;stroke-miterlimit:10;}
	.st23{opacity:0.99;fill:none;stroke:#F4F4F4;stroke-width:1.1287;stroke-miterlimit:10;}
	.st24{opacity:0.99;fill:none;stroke:#F4F4F4;stroke-width:2.0008;stroke-miterlimit:10;}
	.st25{opacity:0.99;fill:none;stroke:#F4F4F4;stroke-width:2.1547;stroke-miterlimit:10;}
</style>
<g id="BACKGROUND">
	<circle class="st0" cx="302.4" cy="300" r="300"/>
</g>
<g id="OBJECTS">
	<g>
		<path class="st1" d="M297.5,151c0,0-0.4-0.9-0.5-0.7c-0.2-0.2-0.5,0.7-0.5,0.7c-30.4,37.6-81,38-105,35.7
			c-7.2-0.7-13.3,4.9-13.3,12.1v117.8c0,35.1,14.4,68.9,40.2,92.7c32.1,29.7,71.2,44.5,78.1,46.9v0.4c0,0,0.2-0.1,0.5-0.2
			c0.3,0.1,0.5,0.2,0.5,0.2v-0.4c6.9-2.5,46-17.2,78.1-46.9c25.8-23.9,40.2-57.6,40.2-92.7V198.9c0-7.2-6.2-12.8-13.3-12.1
			C378.6,189,327.9,188.7,297.5,151z"/>
		<path class="st2" d="M297,416.6c-13.3-5.9-35-17.3-53.5-34.4c-18-16.7-28.3-40.5-28.3-65.5v-92.2c17.6-0.6,34.2-3.5,49.4-8.6
			c11.8-4,22.6-9.2,32.4-15.7c9.8,6.5,20.6,11.7,32.4,15.7c15.2,5.1,31.8,8,49.4,8.6v92.2c0,25-10.3,48.9-28.3,65.5
			C332,399.3,310.3,410.6,297,416.6z"/>
		<ellipse class="st3" cx="319.5" cy="476.7" rx="76" ry="7.4"/>
		<ellipse class="st3" cx="172.2" cy="477.8" rx="23.2" ry="2.9"/>
		<g>
			<g>
				<path class="st4" d="M239,407.6l-40.7-22.6l95-170.9c1.4-2.6,4.7-3.5,7.3-2.1l31.4,17.4c2.6,1.4,3.5,4.7,2.1,7.3L239,407.6z"/>
				<path class="st5" d="M238.6,417.3l-48.4-26.9c-2.8-1.6-3.8-5.1-2.3-7.9l0,0c1.6-2.8,5.1-3.8,7.9-2.3l48.4,26.9
					c2.8,1.6,3.8,5.1,2.3,7.9l0,0C245,417.9,241.4,418.9,238.6,417.3z"/>
				<g>
					<path class="st6" d="M323.9,224.9l-15.3-8.5l14.1-25.4l7.5-5.4c1.8-1.3,4.1-1.4,6-0.4l0,0c2,1.1,3.1,3.3,2.8,5.6l-1.1,8.7
						L323.9,224.9z"/>
					
						<rect x="306.8" y="217.9" transform="matrix(0.8741 0.4858 -0.4858 0.8741 146.496 -126.356)" class="st6" width="20.4" height="2.9"/>
					<polygon class="st7" points="325.3,222.4 338,199.5 339.6,187 337,185.6 335.5,198.1 322.8,221 324,221.7 322.6,224.2 
						323.9,224.9 325.2,225.6 326.6,223.1 					"/>
				</g>
				<g>
					<polygon class="st6" points="319.7,215.9 318.5,215.2 379.3,105.8 383.4,101.4 					"/>
				</g>
				<path class="st8" d="M248.7,306.3l45.9-82.6c2-3.6,6.5-4.9,10.1-2.9l17.5,9.7c3.6,2,4.9,6.5,2.9,10.1l-45.9,82.6L248.7,306.3z"
					/>
				<path class="st9" d="M306.2,248.4c-2.3,4.2-7.7,5.7-11.9,3.4c-4.2-2.3-5.7-7.7-3.4-11.9c2.3-4.2,7.7-5.7,11.9-3.4
					C307,238.9,308.6,244.2,306.2,248.4z"/>
				<path class="st9" d="M289.8,295.9c-1.6,2.8-5.1,3.8-7.9,2.3c-2.8-1.6-3.8-5.1-2.3-7.9c1.6-2.8,5.1-3.8,7.9-2.3
					C290.4,289.5,291.4,293.1,289.8,295.9z"/>
				<path class="st9" d="M304.2,263.9c-0.8,1.4-2.6,1.9-4,1.1c-1.4-0.8-1.9-2.6-1.1-4c0.8-1.4,2.6-1.9,4-1.1
					C304.5,260.8,305,262.5,304.2,263.9z"/>
				<path class="st9" d="M287.8,268.2c1.5,0.4,2.4,2,2,3.6c-0.4,1.5-2,2.4-3.6,2c-1.5-0.4-2.4-2-2-3.6
					C284.6,268.7,286.2,267.8,287.8,268.2z"/>
				<path class="st9" d="M274.5,307.4c0.9,0.2,1.4,1.1,1.1,2c-0.2,0.9-1.1,1.4-2,1.1c-0.9-0.2-1.4-1.1-1.1-2
					C272.7,307.7,273.6,307.2,274.5,307.4z"/>
				<path class="st9" d="M269.2,304.4c-0.9,1.6-2.8,2.1-4.4,1.3c-1.6-0.9-2.1-2.8-1.3-4.4c0.9-1.6,2.8-2.1,4.4-1.3
					C269.5,300.9,270,302.8,269.2,304.4z"/>
				
					<rect x="253.1" y="303.7" transform="matrix(0.4858 -0.8741 0.8741 0.4858 -146.8404 392.7722)" class="st6" width="14.6" height="34.9"/>
				<g>
					
						<rect x="210.7" y="317.5" transform="matrix(0.8741 0.4858 -0.4858 0.8741 220.5642 -55.8313)" class="st10" width="14.6" height="160.1"/>
					
						<rect x="162.7" y="466.9" transform="matrix(0.8741 0.4858 -0.4858 0.8741 250.5759 -26.9666)" class="st5" width="29.1" height="5.8"/>
					
						<rect x="217.7" y="319.3" transform="matrix(0.8741 0.4858 -0.4858 0.8741 221.8671 -57.1976)" class="st11" width="7" height="160.1"/>
				</g>
				<path class="st12" d="M329.3,227.9l-11.2-6.2c2.6,1.5,3.6,4.8,2.1,7.4l-94.9,170.8l11.2,6.2l94.9-170.8
					C332.9,232.7,331.9,229.4,329.3,227.9z"/>
				<path class="st13" d="M307.6,215.9l3.5,2c-2.6-1.5-6-0.5-7.4,2.1l-94.9,170.8l-3.5-2L300.2,218
					C301.7,215.4,305,214.4,307.6,215.9z"/>
				<g>
					<line class="st14" x1="290.4" y1="222.9" x2="303.1" y2="230"/>
					<line class="st14" x1="287" y1="229" x2="297.2" y2="234.7"/>
					<line class="st14" x1="283.6" y1="235.2" x2="293.8" y2="240.8"/>
					<line class="st14" x1="280.2" y1="241.3" x2="290.4" y2="246.9"/>
					<line class="st14" x1="276.8" y1="247.4" x2="289.5" y2="254.4"/>
					<line class="st14" x1="273.4" y1="253.5" x2="283.6" y2="259.1"/>
					<line class="st14" x1="270" y1="259.6" x2="280.2" y2="265.2"/>
					<line class="st14" x1="266.6" y1="265.7" x2="276.8" y2="271.3"/>
					<line class="st14" x1="263.2" y1="271.8" x2="273.4" y2="277.5"/>
					<line class="st14" x1="259.8" y1="277.9" x2="272.6" y2="285"/>
					<line class="st14" x1="256.4" y1="284" x2="266.6" y2="289.7"/>
					<line class="st14" x1="253" y1="290.1" x2="263.2" y2="295.8"/>
					<line class="st14" x1="249.7" y1="296.2" x2="259.8" y2="301.9"/>
					<line class="st14" x1="246.3" y1="302.3" x2="259" y2="309.4"/>
					<line class="st14" x1="242.9" y1="308.4" x2="253" y2="314.1"/>
					<line class="st14" x1="239.5" y1="314.5" x2="249.6" y2="320.2"/>
					<line class="st14" x1="236.1" y1="320.7" x2="246.3" y2="326.3"/>
					<line class="st14" x1="232.7" y1="326.8" x2="245.4" y2="333.8"/>
					<line class="st14" x1="229.3" y1="332.9" x2="239.5" y2="338.5"/>
					<line class="st14" x1="225.9" y1="339" x2="236.1" y2="344.6"/>
					<line class="st14" x1="222.5" y1="345.1" x2="232.7" y2="350.7"/>
					<line class="st14" x1="219.1" y1="351.2" x2="231.8" y2="358.3"/>
					<line class="st14" x1="215.7" y1="357.3" x2="225.9" y2="363"/>
					<line class="st14" x1="212.3" y1="363.4" x2="222.5" y2="369.1"/>
					<line class="st14" x1="208.9" y1="369.5" x2="219.1" y2="375.2"/>
					<line class="st14" x1="205.5" y1="375.6" x2="218.3" y2="382.7"/>
				</g>
			</g>
			<g>
				<path class="st4" d="M352.3,316.2v-13.8h-67.9v14.1c0,3.2-1.4,6.2-3.9,8.2l-12.5,10c-3,2.4-4.8,6.1-4.8,10v125.7
					c0,5.7,4.6,10.2,10.2,10.2h92c5.7,0,10.2-4.6,10.2-10.2V344.9c0-4.1-2-7.9-5.3-10.3l-13.8-10
					C353.9,322.6,352.3,319.5,352.3,316.2z"/>
				<path class="st8" d="M359.5,467.8h-80.2c-5.4,0-9.7-4.4-9.7-9.7V344.8h99.7v113.3C369.3,463.5,364.9,467.8,359.5,467.8z"/>
				<g class="st15">
					
						<ellipse transform="matrix(0.1602 -0.9871 0.9871 0.1602 -105.1609 591.4675)" class="st8" cx="295" cy="357.5" rx="8.5" ry="8.5"/>
					
						<ellipse transform="matrix(0.7071 -0.7071 0.7071 0.7071 -170.3744 358.8969)" class="st8" cx="348" cy="385.1" rx="8.5" ry="8.5"/>
					<circle class="st8" cx="305.6" cy="427.5" r="8.5"/>
					<circle class="st8" cx="329" cy="416.9" r="8.5"/>
					<circle class="st8" cx="319.4" cy="375.6" r="3.2"/>
					<circle class="st8" cx="287.6" cy="390.4" r="3.2"/>
					<path class="st8" d="M352.3,439.2c0,1.8-1.4,3.2-3.2,3.2c-1.8,0-3.2-1.4-3.2-3.2s1.4-3.2,3.2-3.2
						C350.9,436,352.3,437.4,352.3,439.2z"/>
					<path class="st8" d="M333.2,454c0,1.8-1.4,3.2-3.2,3.2c-1.8,0-3.2-1.4-3.2-3.2s1.4-3.2,3.2-3.2
						C331.8,450.9,333.2,452.3,333.2,454z"/>
					<path class="st8" d="M316.2,462.5c0,1.8-1.4,3.2-3.2,3.2s-3.2-1.4-3.2-3.2c0-1.8,1.4-3.2,3.2-3.2S316.2,460.8,316.2,462.5z"/>
					<path class="st8" d="M303.5,453c0,3.5-2.8,6.4-6.4,6.4c-3.5,0-6.4-2.8-6.4-6.4c0-3.5,2.8-6.4,6.4-6.4
						C300.6,446.6,303.5,449.5,303.5,453z"/>
					<circle class="st8" cx="304.6" cy="409.5" r="3.2"/>
					<circle class="st8" cx="342.7" cy="365" r="3.2"/>
					<path class="st8" d="M362.9,354.4c0,1.8-1.4,3.2-3.2,3.2c-1.8,0-3.2-1.4-3.2-3.2c0-1.8,1.4-3.2,3.2-3.2
						C361.5,351.2,362.9,352.6,362.9,354.4z"/>
				</g>
				<path class="st5" d="M350.5,444.5h-64.4c-2.1,0-3.9-1.7-3.9-3.9v-75c0-2.1,1.7-3.9,3.9-3.9h64.4c2.1,0,3.9,1.7,3.9,3.9v75
					C354.4,442.8,352.7,444.5,350.5,444.5z"/>
				<rect x="289.6" y="383" class="st6" width="57.9" height="17.4"/>
				<text transform="matrix(1 0 0 1 295.8307 394.4664)" class="st5 st16 st17">COVID 19</text>
				<text transform="matrix(1 0 0 1 290.9567 420.0797)" class="st6 st16 st18">Vaccine</text>
				<path class="st12" d="M370.4,334.6l-13.7-10c-2.8-2-4.4-5.2-4.4-8.6v-13.7h-21.2v14.4c0,2.9,1.4,5.7,3.8,7.4l14.3,10.4
					c3.3,2.4,5.3,6.2,5.3,10.3v125.4c0,5.7-4.6,10.2-10.2,10.2h21.2c5.7,0,10.2-4.6,10.2-10.2V344.9
					C375.6,340.9,373.7,337,370.4,334.6z"/>
				<path class="st13" d="M276.9,334.6l17.5-12.7c0.4-0.3,0.6-0.7,0.6-1.2v-18.4h10.6v18.4c0,0.5-0.2,0.9-0.6,1.2l-17.5,12.7
					c-3.3,2.4-5.3,6.2-5.3,10.3v125.4c0,5.7,4.6,10.2,10.2,10.2h-10.6c-5.7,0-10.2-4.6-10.2-10.2V344.9
					C271.7,340.9,273.6,337,276.9,334.6z"/>
				<rect x="284.4" y="304.5" class="st12" width="67.9" height="14.8"/>
				<g>
					<path class="st6" d="M361.7,307.6h-84.7c-3,0-5.4-2.4-5.4-5.4v-14.5c0-3,2.4-5.4,5.4-5.4h84.7c3,0,5.4,2.4,5.4,5.4v14.5
						C367.1,305.2,364.7,307.6,361.7,307.6z"/>
					<path class="st19" d="M359.6,301.3h-80.3c-4.2,0-7.6-3.4-7.6-7.6v6.4c0,4.2,3.4,7.6,7.6,7.6h80.3c4.2,0,7.6-3.4,7.6-7.6v-6.4
						C367.1,297.9,363.7,301.3,359.6,301.3z"/>
					<path class="st19" d="M353.2,282.3h-23.3c4.2,0,7.6,3.4,7.6,7.6v10.2c0,4.2-3.4,7.6-7.6,7.6h23.3c4.2,0,7.6-3.4,7.6-7.6v-10.2
						C360.8,285.7,357.4,282.3,353.2,282.3z"/>
					<path class="st19" d="M293.8,300.1v-10.2c0-4.2,3.4-7.6,7.6-7.6h-12.7c-4.2,0-7.6,3.4-7.6,7.6v10.2c0,4.2,3.4,7.6,7.6,7.6h12.7
						C297.2,307.6,293.8,304.2,293.8,300.1z"/>
				</g>
			</g>
		</g>
		<g>
			<g>
				<rect x="231.6" y="164" class="st20" width="10" height="36.1"/>
				
					<rect x="231.6" y="164" transform="matrix(6.123234e-17 -1 1 6.123234e-17 54.5405 418.61)" class="st20" width="10" height="36.1"/>
			</g>
			<circle class="st21" cx="237" cy="181.1" r="30.1"/>
		</g>
		<g>
			<g>
				<rect x="377.4" y="219.1" class="st20" width="4.3" height="15.6"/>
				
					<rect x="377.4" y="219.1" transform="matrix(6.123234e-17 -1 1 6.123234e-17 152.6237 606.4444)" class="st20" width="4.3" height="15.6"/>
			</g>
			<ellipse transform="matrix(0.231 -0.973 0.973 0.231 71.6277 543.6479)" class="st22" cx="379.7" cy="226.5" rx="13" ry="13"/>
		</g>
		<g>
			<g>
				<rect x="175" y="347.7" class="st20" width="3.4" height="12.2"/>
				
					<rect x="175" y="347.7" transform="matrix(6.123234e-17 -1 1 6.123234e-17 -177.1144 530.4211)" class="st20" width="3.4" height="12.2"/>
			</g>
			<circle class="st23" cx="176.8" cy="353.5" r="10.2"/>
		</g>
		<g>
			<g>
				<rect x="404.7" y="371.4" class="st20" width="6" height="21.7"/>
				
					<rect x="404.7" y="371.4" transform="matrix(6.123234e-17 -1 1 6.123234e-17 25.4455 789.9877)" class="st20" width="6" height="21.7"/>
			</g>
			<circle class="st24" cx="408" cy="381.7" r="18.1"/>
		</g>
		<g>
			<g>
				<rect x="212.2" y="262.7" class="st20" width="6.4" height="23.4"/>
				
					<rect x="212.2" y="262.7" transform="matrix(6.123234e-17 -1 1 6.123234e-17 -58.9384 489.7937)" class="st20" width="6.4" height="23.4"/>
			</g>
			
				<ellipse transform="matrix(0.2298 -0.9732 0.9732 0.2298 -100.2806 420.8247)" class="st25" cx="215.7" cy="273.8" rx="19.5" ry="19.5"/>
		</g>
	</g>
</g>
<g id="Capa_3">
</g>
</svg>
